<?xml version="1.0" encoding="utf-8"?><svg xmlns="http://www.w3.org/2000/svg" version="1.1" baseProfile="tiny" width="800" height="600" viewBox="0 0 800 600"><g><g stroke="#000000" stroke-width=".98" fill="#FFFFFF"><path d="m410.88 310.38l.51.18.52-.15 1.03-.55 2.48-1.22 1.84-.92.52-1.55.78-1.81.66-1-.03-.81-.63-.3-.78-.48-.66-.48-.93-.48-.29-.81-.52-1-.37-1.22.52-1.21.48-.12.81-.59.3-.48-.04-.48-.15-.7 0-1.25.19-2.33.37-.52.77-.33.74.04.37.37.52-.37.07-.34.07-1.29.08-1.11-.37.37.07-.77.37-2.37.7-1.66-.14-.18-1.04-.37-.85-.67-.59-.4-.63-.52.04-.41.81-.07.85.44.74.93 1 .29.33-.26 0-.37-.52-.33-.55-.55-1.51-.48-1.52-.08-.15-.25.11-.15.45-.11.66.07-.37-.26-.33-.03-.52-.63-.24-.67.02-.5-.22-.31.26-.55.44-.46.06-.37-.13-.47-.09-.22-.17-.42-.15-.32.13-.44.08-.39-.13-.27-.19-.32.19-.33-.41.07-.35-.22.02-.22-.21-.11-.53.11-.55-.04-.47-.07-.18-.37-.26-.24.19-.28.12-.26-.11-.22.23-.05.05-.24.13-.13.11.09 0 .28.39.11.48-.08.29-.07.28.15.19-.17.12-.24.23-.05.49.35-.11.15.26.12-.03.3.07.2.35.11.28.02.31.04.74.18.55.54.35.85.3.35.37.35.89.37 1.18.41.39-.04.25.17.76.27.54-.31.85-.13.07.13.55.39 1.02.07 9.49-.37 14.55-2.66 2.81-.85 6.35-1.36 7.79-2.7 4.51-1.96 4.39-2.29 1.22-.74 2.22-1.84.33-.37.52-.37.18-.74-.07-1.03.22-1.44.52-1.92 4.76-5.03 1.66-3.28 3.58-5.69.89-1.7-.22-6.42-.59-2.81-.45-.26-.29.55-1.22-.03-1.51.07-2-1.22-1.96-2.49-.59-.94-.59-1.42-.11-.52-.15-.98.15-1.18.54-1.72 1.57-2.27 1.29-1.92-.15-.67-.7-1.55-.78-1.03-1.21-1.51-2.33-2.22-1.18-.74-1.22-.74-1.55-1.14-.96-.67-.74.11-.96-.81-1.44-.55-.92-.22-1.04-.71-1.03-.81-.34-1.22-.62-.15-.67-.51-.33-.81-.26-.48.15-.52.33-.37.15-.44-.04-.67-.29-.63-.15-.26.29-.07.74-.22.37-.48.41-.33-.08-.3-.29-.22.11-.44.18-.63-.03-.59 0-.59-.26-.41-.59-.22-.81.11-1.44.47-.77.03-.4-.15-.3-.42-.38-.55-.13-.28-.53-.08-.76.13-.54-.39-.26-.53-.59-.34-.5-.07-.31-.48-.41.09-.35-.2-.92.24-.26-.15-.46-.51-.74.05-.07-.96-.26-.37-1.18.08-1.15-.04-.48-.59-.33-.74-.52.18-.7.11-.26.34-.22-.45-.29-.44-.37-.26-.63-.18-.67.07-.55-.33-.07-.74-1-.44-1.55-.63-1.74-1.74-1.55-1.36-.07.44-1.19 1.33-1.03 2.66-1.33 1.48-1.92-1.04-2.36-.29-1.04.29-11.08 12.71-8.45.22-13.89.07.13 81.93.02 11.93.02 5.65.02 4.65.01 3.2.21-.21.05.12-.05.24.16-.1.5-.14.24.09-.02.15.17.14.35-.09.54-.04.55.02.19.19.35.11.61.4.6.19.23.33.51.15.45.28.22.48.2.09.15.35.5.41.26.42.2.24.26.48.33.41.17.83z" /><path d="m378.64 95.92l-.89-.59-.74-.59-.81-.15-.74.59-1.33.45-.44 1.62-.74-.74-.96-.66-.15-1.26-.52-.74-.66-.44-.59.81-.67-1.69-.59-.74-.59-2.59-.07-2.36-1.11-.52-1.11-.89.15-.73.66.07.08-.37.74-.74.51-.52.3-.36-.59 0 .37-.45.66-.59.45-.52.59-.29-.15-.67-.59-.81 1.11-1.4-.45-.59-1.33-.82-1.18-.73-1.7.37-.44-.82.44-.59.45-.22-.67-.44.07-.74.15-.52.74-.37-.07-.74-.22-.81.14-1.03-.59-.89-1.47.3-1.19 1.62.15 1.77-.74-.29-1.47-.59-.6-1.18-.44-2.07-1.18-.89-1.77-1.03 0-1.63-.3-2.8 2.22.29.74-.15.73-1.03.3-.89.15-1.03.29-.89.3-1.03-.59-.3-.89 0 0-.88 0-.59-.59-.74-3.54.44-7.1-.15-6.35.15-7.53-1.48-.74 1.04-.74.88.74 1.04-.59 1.18 0 1.18.89 1.04-1.04.44.89 1.18 1.62 6.94-2.36 1.92-.15 3.55 1.92 3.54 1.77 1.92.6 1.48-1.33 1.18-1.33.15-1.48 0-.3 1.18-.29.89-.74-.59-1.18-1.04-.74.74-1.18 1.04 1.62 1.47-1.03-.44-.89.59-.29 1.33-1.33.89 1.77.44-.59.44-.89.89-.74 1.48-.59 1.48 1.33-.3 1.33 0 1.48-.15 1.62 1.04 1.63-.15 1.33 1.03.22.96-.15 1.04.15.59.44-.59.82.44.59-.15-.08.59.15.74.59-.29 1.04 0 .44.37.52 1.25.22-.29.59-.52.81-.3.59-.37.22.67.15.81.3.67.44.81 0 .74.29.59.52-.45.45 0 0-.29.73-.15.37-.15 4.8 1.19 2.44-.3 1.11-1.55.66-.22 5.77.66.88 3.03-.44.59.52 0 .22 1.48.59.52.74.51.66.37-.15.59-.59.59 0 .74.22.37 3.77 1.18.89.82 1.4 1.25 1.59 1.7-.02 1.4.94 0 .43.78-.08 1.24 2.13 5.81.81 1.92.96 3.22 3.91-1.04 2.74-2.51-.74-4.5 2.32-.6-.18-.55 0-.66.11-.34.3-.33.25-.33-.22-.44-.33-.41-.15-.37-.07-.52.29-.48.45-.14-.85-.93-.08-1.84 0-.45-.11-.59-.33-.85-.15-.48 0-.29-.22-.63.3-.41-.37-.37-.74-.44-.55-.81-1.48-.3-.33-1.14.25 0 .52-3.29-.15-3.32-1.1-4.29z" /><path d="m416.82 38.31l.02.46.04 4.14-1.74 2.27-5.24 6.7-7.48 9.64 11.13.04 11.78 0-.05 9.31.05 19.18.04 6.89 14.37.02 17.61-.04 5.63.02.84.2.2-.5.13-.35-.3-.4.24-.93.3-1.62-.45-1.26-.73-1.25.44-1.78 1.26-1.62 1.8-.64.78-.34-.32-.12-.09-.18.05-.15.13-.18.05-.17-.05-.22-.18-.22-.59-.29-.07-.41.11-.7.66-.37.6-.15.14-.85.34.34.25 0-.03-.3-.11-.63.29-.07.15.33.07-.55-.4-.89.63.04.25-.08.56-.33.44-.37-.15-.37-.48-.18-.44-.15-.55-.26-.04-.59-.37-.37-.41-.11-.33-.44 0-.22-.33-.11-.63-.3-.29-.26-.19-.33-.07-.41-.37-.22-.48.3-.04-.19-.11-.26 0-.48-.48-.48-.26.34-.48-.6-.52-.48-.44-.36-.55-.56-.63-.41-.55.08-.45-.33-.51-.52-.56-.48-.37.52-.96.29-.81-.07-.67 0-.07-1.04-.29-.59.07-.59-.81-.59-.74.08-1.04-.37-1.03.07-.22-.52-.08-.51-.07-.67-.44-.66-.67-1.04-.88-.81-.59-.67-.6-.59-1.1-.73-.96-.67-1.19-.66-.36-.15-.52-.89.22-.44.15-.37-.45-.3-.88-1.1-.96-1.19-.89-1.1-1.18-1.26-1.48-.29-.88-.89-.96-.44-1.85-.96-2.88-2.66 0-.74-.89-1.7-1.03-.37-1.48-.3-1.33-.22-1.33-2.36-.96-.07-.66-.23-.08-.51.08-.59-.82-.52-.81.07-.96 0-.15-.66-1.1-.59-1.11-.08-.37-.44-.44.3-.82-.52-.07-.52-2.07-.96z" /><path d="m379.97 327.62l-90.48 0 .59 1.04.14 1.18-1.33 1.03-.73 0-2.37-1.33.45.89-1.92-.29.44 2.95-.15.89 1.77 1.33.15 2.21-.59 1.04-.29 2.06-1.33 0 .59 1.33-.3 1.48.74 1.18 1.33 1.48 1.03 1.33 1.18 1.48 1.33-.15 0 1.18.3 2.07-1.48-.3-.74.59-.44 1.04.59 1.18.89 1.18-1.04 1.04 1.33-.15 1.19.44 2.36.89-.3 2.06-1.03.74-1.33 1.48 1.18 1.48-1.62 3.1-1.19.15.6.74 1.33 1.03-.74.3 0 1.33-.59.88.59 1.48.88-1.18 1.63.88 3.25 0 2.07.89.88 1.33.15 1.03-1.62.15.59 1.33-.74 1.77-.45 1.19-.59-.15-1.33-.74-1.03-.59-.89.59-1.03.59-.89-.59-1.18-.3-.29 1.19-1.04-.3-2.21-.44.14 1.77.89 1.18 1.18.74.59-1.03 1.18.29.89.15 1.48.59.29.89 1.04 1.92 1.33.88 1.47 2.22-.88.74-1.18 1.62-.45-.44-.44.22-.3 1.11.74.52-.88.81-1.26-.22-.81.44-1.48.66.96.45-.29.37-1.19.29.74.3.3.74-.74.37.59.88.44.52-.44.96.37.52 1.03.81.67 1.03-.37.96 23.86.08 30.65 0 .29-.74.15-.67.44-.74.45-.73.52-.52.51-.59.67 0-.08-.52.15-1.03-.15-.74.22-1.04 1.7-1.69.67-1.04 1.99-3.17 1.7-1.19 1.4-.51 1.63 0 2.07.14-.3-.66-.81-.52.22-.44.67 0 .96.66.07-.51-.66-.22-.45-.52.37-.37.59-.37.59-.22.59-.3.82-.07.74-.37.73 0 0-.52.45-.37.44.15.44 0 .52.07.44 0 .52.23.44.44.37.44.59.15.15-.59.08-.59.51-.08.37.52.15.59.52-.59.37.3.59.51.81-.07.52-.29.07-.52-.59-.59.59-.45.89-1.1-.45-.15-.74.29-.81-.22-.59-1.03 0-.81.59-.23.15-1.4.52-1.03.81-.3 1.55-1.48.67.67.44-.37-.15-.74.74-.44.44 0 .22-.96-.44-.37.22-.37.15-.44.3-.3.59-.07 0-.74-.52-.37-.15-1.04-.44-.36 0-1.19.37-.74.74 0-.23-.96.08-.73 1.03-.45-1.25-.07-.22-.52.81-.51-1.11-.52-.66-.81.07-1.78.37-.22-.96-.52.37-1.47.29-1.11.67-.89 1.03-.88.89-1.48 1.18-1.26-.3-1.03.45-.74 1.55-1.25 3.4-1.78 2.58-1.33 2-1.25-.15-.89-2 .37-.66-.66-1.7-.08-.52-.37-1.62-.88-.89-.3-1.03-.52-1.11-.88.15-.59.51-1.04.67-1.03 1.18.15.89-.67 1.47-1.03 1.48-.59 1.7.22 1.48.44.29.81.37-.07.37.22 0 .74.74.15-.74 1.77.22 1.18 1.04 1.33.96.15 1.25-.44 3.77-.82.81-.51.3-.74.59-1.92.15-1.41-.3-1.47-.29-1.41.44-.81-.15-.88-.59-1.33-1.03-1.33-.67-1.48-1.18.52-1.48.66-1.33.67-1.33.36-2.43.89.74.07.66-.36.81.07 1.04 0 .44.44.37.96-.15 1.04-.59.96-.81.14-.89-.22-1.18-.37-.89.67-1.4.22-1.62-.44.07-.67.37-.88 0-.67.81-.15.89-.88-2.14-.08-1.7-.29-1.41-.15-1.84-1.48-1.11-1.1-.44-1.56z" /><path d="m408.84 197.48l.74 0 .89-1.55 2.07-3.25 2.66-4.28 4.8-7.46 2.73-4.29.81-.37.89-1.33.07-1.25-.07-1.26-.15-.81-.7-.98-.24-.52-.33.08-.63-.22-.2-.06.05-.48.61-.5.08-.16.07-.24-.3.05-.16-.2.05-.17.17-.15-.24-.44-.07-.96-.67-1.55-.89-1.77-1.33-.96-.88-1.11.44-1.18.37-1.04-.66-1.1-.37-.96.07-2.66 1.03-1.26.45-.15 3.54-13.59-3.99-2.36.3-.96.07-.96 0-1.04-.37-.66-.73-.81-1.56.15-1.77.14-.88-.07-.74-1.03-.15-.6-.07-1.18.29-.88-.59-.52-.52-.37-.66-.59-.44-.59-.74-.81-.3-.82.44-.66-9.01-.37-.14-1.04-.3.08-.15-1.11-.51 0-1.56 0-1.47-.15-.45-.51-.14-.59-.67-.15-.52.88-1.1-.14 0-.96-4.88-.74-6.79.88-2.22.74.81 4.51-2.88 2.51-3.54.89-4.8 14.32.07 13.52.44.07 2-.07 1.77 1.04 1.99 1.25.89 1.33.22 1.99.3 1.33 3.54-.59 0 .67.15 1.03.52 1.48.44 1.11-.81.37-.37 1.33-.44 1.99-.15 1.85-.44 1.55-.74 1.92-1.33 1.18 1.03 29.1 22.75.15 0-10.34 6.2.44z" /><path d="m477.54 139.21l.29-.74 0-.59-.66-.82-.37-1.7.96-.44.66-.59.44-.59 1.04-.81.07-.67-.07-.88.74-.74.88-1.04.96-.74.59-.36.74-.6.52-.29 0-.59.15-.67-.08-.44.08-.81.59-.59 1.18-.22 1.18-.37 1.18-1.26.82-1.26.74-1.18.96-.59.51-.88.37-.67.67-.15.37-.74.59-2.36.74-.81.44-.08.74-.14.74-.37-.08-1.26 1.04-.44.59-.52.22-.81.15-.96.51-.74.52-.15.37-.44.89-.52.51-.59 1.15-1.18-.37-.26-.15-.18.48-.74.44-.11.45.03.66-.22-.03-.26-.08-.4-.07-.3-.04-.4.15-.34.22-.22.33-.07.33.15.56.03.59.08.18.26.19.36.15.3.14-.22.19-.59.15-.45-.04-.29-.41-.3-.37-.25-.33-.23-.4-.33.18-.22 1-.44.55-.45.33-.26.23-.22-.19-.14-.29-.34-.45-.26-.4-.29-.15-.19 0-.18-.22.07-.19.19-.11-.26-.07-.3 0-.18-.19-.41-.4-.62-.04-.37 0-.41-.22-.41 0-.29-.11-.15.03-.52.08-.25-2.03-4.03-.56-.44-.37-.59-.14-.45.11-.26.22-.14-.04-.26.04-.52 0-.29.07-.37-.4-.15-.63.07-1.48.59-1.33.74-1.62.59-.74-.22-1.11 0-1.48.37-.15.67-.22.66-1.03.44-1.26.22-1.55-.88-1.33-.37-1.55-.59-1.4-.59-1.48-.15-1.33 0-1.25-.67-1.78-.66-1.25-.07-1.48-.89-1.4-.3-1.48.52-1.18-.07-.67 0-1.77 0-1.25 0-.97.29-.96.59-.73.45-1.63 1.7-.44 1.03-.15.66.37.74.37 1.33.29 1.41.08 1.18-.22 1.03-.67.89-.52.81-.29.74-1.26.29-.88.82-.3.88.45 1.19.29 1.55.37.51-.59.67-.59.66.66 2.07-.66.67-.59 2.14-.59 1.03.29 1.26-2.73 1.84.52.67-2.15 1.33 0 .66-.59.67-.74.88.3.74-.52 1.26.45.81-.67 1.33.37 1.48-.74 1.11 1.7 2.29-.74 1.77-.59 1.99-.44 1.63 1.4 1.77.52-1.63 1.18-.36.81.29 1.26.59.96-.44.88-.74.89-.81 1.33-.52.59.44 1.18.37.67-.81 1.62-.66 2.07-.08.89.59 2.43.37 1.04.52.44 1.03 1.18 1.92.96 2 1.41 1.25 1.11 1.19z" /><path d="m453.09 132.93l-.82 1.47.45.37.22.74.3 2.14.07.74-.52 1.18-.59 1.04-1.18 1.55-.67 1.4-1.18 1.78-.74 1.55-1.62 1.1.52.89-.37.67-.89.88-.89 1.04-1.55.51.15.74-.44.67-1.55.88-1.19.08-.81 1.03-.74 2.81.37 2.51-.51 1.11.51.81.08.96-.37.37-.67.52.22.88-.14.96-.52 1.04.37 1.69.59 1.26-.22 1.26 1.03.73-.51 1.11.88 1.11.81 1.55.82.96.74.81.51.23.89-.23.52-.22.29.59-.29.52.37.37.51.66 1.7 1.56 2.07 1.47 1.92 1.04.07.66 1.11.52.15-.3.81.45.74.66 1.33-.37.96 1.33 2.44.08.07 1.18.67 0 .88.44 1.18.22.67-.22.29.37.23.44.51.22.67.45.44.74.52-.15.66-.15.22.44.59.89.67.07.81-.22 1.11-.29 1.33-.15-1.03-2.22-.37-2.21 0-2.44.07-2.36.81-1.7.45-1.33 0-2.22.44-.15.74-.07.51 0 .89-.07 1.03-1.11.6-.3-.15-.44-.37-1.11-.08-.44-.07-.89-.15-.81-.22-.96.08-.74-.37-1.55-.15-1.11 0-1.03.37-.81.15-.74.66-.81-.52-.89-.59-1.18.3-.67.22-.74-.07-.96-.3-.81-.37-.81.07-.74.45-.52.96.3.37-.74.22-.96.44-.74.15-.66.44-.3-.22-1.18-.74-.67-.51-.73.44-.45.44-.66.96-1.41.37-.81 0-.59-.07-1.03.15-.59.07-.52.44.07.08-.51-.08-.59-.29-.67-.3-.52.52-.37.74.37.14-1.1-.36-2.22-.89-.67-.44-.59-.89-.59-.59-.37-.15-.44-.15-.66-.22-.74-.44-.37-.59-.52-.15-1.11-.3-.59-.44-.29-.52-.37-.66 0-.44.22-.52-.3-.52-.29-.37-.15-.59-.22-.37-.22-.37-.37-.96-.08-.59.08-1.03.51-.81.15-.82.82-.96-.23-.51-.44-.59.07-.6.23-.51.14-.3.3 0 .37-.66.44-.59.44-.52.3-.52 0-.66-.44-.81-.37-.74.15-.82.14-.59.45-.14 1.33-.67-.89-.44-.81z" /><path d="m480.16 57.61l-.5-.65-.61-.92-.63-1.48-1.33-1.33-1.44-.18-1.55-.89-2.03-1.29-1.18.96-1.15-.89-.51-.92-1.07-.56-1.7-.14-4.14-2.22-3.84-2.14-3.32-2.88-7.21-4.77-1.99.37-2.14-.29-1.74-.59-2.66-1.22-.77-.37-1.63-.04-1.81-.77-1.22-1.41-.29-1.58-2.62-1.7-2.66-1.15-.56-1.03-.99-.93-.89.04-3.62-3.4-2.66-4.13-.96-1.55-1.92-2.22.08 22.97 1.92.85.18.55.74.6.48-.34.37.52 1.11.04 1.07.51.22.78 1.7-.07.77 1.03.11.55 1.63.26 1.25 2.44 3.88.89.96 1.58-.03.74 2.84 2.66 3.06 1.55.45.74 1.7.3 4.28 4.98-.29.78.44.99 1.73.89 2.22 1.44 1.81 2.03 1.18 1.63.22 1.66 1.11-.07 1.26.4.37-.15.92.63 0 .52.18.44.08 1.26.96.07 1.51-.22.37-.59 1.48 1.29.63 0 .85.59 1.03 1.11.63.52.37-.11.51.37-.07.48.18.29.48-.15.26.34.34.59.77.55.48.19.19.51.51.19.45.4.03.63.89.3.41.29.59.3.37 0-.3-1.04.59-.03.04-.56.44-.03 0-.52.08-.41-.08-.55 0-.3.74.11.15-.14-.33-.3.25-.44.08-.37-.45-.26.08-.41.18-.37-.4-.4.59-.19-.22-.29-.11-.52.22-.48.62-.59-.18-1 .85-.44-.33-.44.26-.93 1.07-.62 1.36-.74 1-.7-.48-.85.74-.67-.37-.74.96-.55-.15-.89 1.11-.81-.55-.22.44-.63.66.11.3-.85.66.37.52-1.11.19-1.4-.45-.74-.66-.31z" /><path d="m352.12 33.07l3.1 4.13.45-1.03.73 1.92 1.63.89 2.81.44 1.03-.3.89-1.33.29-.73-.59-.89.74-1.33-.74-2.36 1.33-.89.44-1.48 1.18-1.33 1.63.15.89.59.29 1.33-.29 1.04-.3 1.47.15 2.37 1.48 1.47 1.03 0 1.03 1.33.89 1.78 0 .88.3.74 1.32 1.03.74.3.89 0 .89.59.88.15 1.18 0 1.48 1.18 1.77 1.03 1.04-.14-.15-1.48.3-1.18.73.29.6.74.59.89 1.18.15 1.33 0 .29-1.33 1.18-.74.74 0 .74 0 .89-.89 1.48-1.18 0-2.36.14-3.84 0-2.96-.14-2.07-1.04-.29-1.48.29-.88.45 0 1.03-1.04-.59-1.03-1.04-1.03-.73-1.19.14-1.18.15-.88-.74-.3-1.03-.15-1.03-1.03-.45-.89-.59-.44-1.03.29-.89-.88-1.33-1.33-.89-.59-.88-.74-1.77 1.03-.89-1.47-1.18.59-1.48.14-1.48 1.04-1.33-.15-1.03.3-1.03.29-.89-1.03-.3-1.04.45-4.28-.3-1.33.15-1.18-1.18-1.04-1.18-1.03-.3-.89 0 .45-1.48-2.07-.44-.89 1.18 0 1.92-.59 1.33-1.33.44-1.62.74-1.48.15-1.03.3-.89.59 0 1.33-.3 1.03-.88.3-.89.59-1.03.59-.15 1.03-.74 1.33-1.03 1.04-.59.73.88.6.89.44.89.59.29.89-3.25 9.3-.15 1.18.89.45z" /><path d="m402.9 280.54l-.26-73.01-22.45-.15 0 16.54-43.29-.59 0 1.33 0 3.25.3 1.48.15 20.98.88 0 1.33.29 1.48.3 2.36.59.74 1.47.59 1.92-.88 1.48-1.18.3-.15 1.18.74.89 1.33 0 .29 1.03.74 1.33 2.36.89 2.07.14 1.77-.88.15.74.59 1.18.89 1.33 1.92.44.89.74 1.77.15 1.48.59-.6 2.51 1.78 1.33 1.73.11.08-.08.18.06.28.06.29.2.19-.19.13.26.04-.35.14.02.13.2.39-.22.22-.11.2.04.19.02.22-.1.13.02.11-.09 0 .3.37-.28.24.11.07-.07.08.22.05-.11.13-.15.17-.06.16-.11.04.17.09.11-.01.2.16.04.17-.13.11.11.11-.18.06.24.11-.21.55.06.52.04-.1.24.06.14.28-.13-.08.28.28-.15-.02.21.48-.04-.09.26.15-.13.11.07-.09.21.44-.24.13.16.09-.18.2.11-.14.18.12.06.24-.2-.01.22.29.09.22-.02.1.04.25.18.15-.18.41.29.55-.26-.07-.25.26.18 0-.29.18.14.26-.11-.33-.22.15-.22.25-.08.11.19.78-.07.85.59.37.18.74.19.11.37.18-.04.63-.3.55-.29.12.22.44.04.29.11.34-.15-.23-.33.34-.15.29.04.15.25.19-.07.14-.18.22-.26.12.33.25.11.67.07.33.08.63.11.59.18.04-.22.37-.18.48.18.48-.15 1.21.34.19 0 .48-.08.41.26.25.08.3.11.07-.15.3.18.26.04.4-.18.04.22.22.07.26-.22.22.11.45.18.22.12.4-.19-.22.41.26-.08.3-.22.22.3.26.37.4-.3.3.33.66.34 1.07.48.52.29.48.3.52.14.11.19.26-.04 0 .3.26.22.44.15.37.37-.15.33.33-.04.22.37.19-.26.33.11.26.15-.15.41.19-.11.33-.15.18-.33.22.44.34.11-.26.33.33.19.15.4.26.15.4.04.34.11-.19.26.19.11.37-.08.03.23-.03.29.33.04.33-.11.18.26.37.22-.07.37.44.22.41 0 .11.29.3-.22.25.3.67 0z" /><path d="m375.61 129.6l-.59-1.25-.59-1.78-3.03-7.82.29-.67 0-1.33-1.62 0 .51-1.48-4.35-3.91-2.14-.74-1.41-.22-.59-1.11.3-.52.88-.29-.22-.44-1.99-1.63-.15-1.4-.67.22.6-.81-.96-3.11-6.06-.44-1.33 1.63-2.66.29-4.73-1.25-.59.51-.44.08-.89.74-.15-1.33-.73-1.41-1.04-1.92-1.77 1.55-.44-.59-.45-.88-.88-.23-.96.45-.3-1.55-.29.51-.67-.51-.59.51-.07-2.36-1.26-.52 0-.66-1.77 0-1.7-1.11-4.06.63 0 .55-.11.63-.41.33.15.45-.08.48-.33.29-.33.37-.26-.04-.18-.03-.48.03-.04.34-.26.4.11.33-.44.41-.04.41-.29.59-.15.37-.41.29-.29.15-.08.55-.92-.59-.26.85-.37.34-.18.81-.41.48-.44 0-.08.48-.44-.11-.26.33.48.37.56-.22.7.37.44-.34.22.34.41.37.55 0 .56-.26.44-.3 1.4 2.7.11.22-.18.44 0 .59.22.45.19.29.25.15.08.52 3.36 1.55-.15.15-.22.4-.11.41-.19.48.37.44.04.59.33.08.04.55-.19.18-.14.23.22.4-.3.45-.15.4-.29-.55-.48.66.18.52.04.48-.11.48.41-.04 0 .45.03.29-.22-.15-.04.34.08.55-.33.52.14.44.26.3-.18.44-.08-.19-.37.45-.22.63.04.7.11.55.26.33.55.26.41-.11.04-.52.33.04.41-.44-.12.48.19.18.44-.03.56-.19.33.22.44-.22.63.37.96-.18 2.1.11 2.74 1.73 0 .45 1.11 0-.15 1.25 1.11.22 1.1.96 1.63 1.55 2.21 2.07 2.07 2-.07 1.55 1.03 1.77 1.18 1.7 1.78 1.18.44.3 1.11 1.84 1.11 1.26-.37 1.4.37 1.18-.45 1.33.67 1.41-.52 2.21 2.29 3.77.89.07 1.03 2.88 1.99 1.7 2.29.89 9.53-1.41.08-13.66 4.8-14.11z" /><path d="m308.1 226.58l.59.3.15 3.69 1.03-.29.89-.3.88 2.36.3 1.48 2.22 2.36 3.1 3.11 0 1.77.44 1.03 1.77 1.33.45 1.04.88.14 1.92-1.18 1.92-.29 2.07 1.18.74 1.48-.15 1.77 1.48-.3.89-.29 1.18 0 1.48 1.03.73.59 1.33 1.18 1.63.74 1.48-.14-.45-22.01-.15-5.03 22.31.3.22-1.11.22-1.33.3-1.26.22-1.4.07-.74.08-.51.29-.3.3-.89.07-.59-.44-.81 0-.74.22-.81.67-.52-.59-.51.66-.6-.3-.73 0-1.04-.29-.96-.15-.59-.29-1.03.37-.67-.89-2.44-1.33-.66.66-.15-.22-.51-.37-.96-.66-.97-.44-1.32.14-.82-.29-.96-.59-.44-.15-.59.52-.44-.15-.67.07-.74.52-.29.15-1.18.14-1.04.3-1.25.52-.45-.22-.44-.6-.44-.66-.52-.37-.52-.96-.07.07-.67-.51-.74-.74-1.03-.44-.81-.67-.59-.74-1.33-.81-1.92-.22-3.1.15-1.19-1.11-4.21.88-.74.37-1.84-1.4-.89.52-.96-.89-.22.37-.66-.52-.45.22-.44-.66-1.63-.07-1.1-1.04.14-.88 0-.45-.88 0-.74-.88 0-1.33.15-1.04-.45-.74.15-1.33-.59-1.18-.74-.29-1.03-1.04.29-1.47.89-.89-.59-2.36.59-.3 1.33-3.54 1.62-2.52-.29 0-3.25-1.47-.15-.45-.59-1.33-.74-1.62.59-.59 1.18-.89-1.03-1.18 0-1.03 1.03-.45 1.04-.59 1.03-1.03 1.04-.44.88.73 1.48-1.18.59-1.03.74-.89.15-.88-1.04-.74.74-.45 1.18-1.18-.44-.15 1.03.45 1.04.59 1.03.74.89.88 1.03.3.74-.74.89-.74.59 0 1.18 0 .89 0 .88 0 .74 1.18.3.3-.89.74-.44.74.29.88 1.18 0 1.19-.88 1.18-.74 1.18 0 1.48.59 1.33-.59 2.06.59.89-.74 1.18 1.03-.29.15 1.18 0 1.18.15 1.18.15.89-1.19 1.03-.59.15-1.62-.44.44 1.33-.15 1.77-.88.74-.89.74-.74.74-.59 1.92-.29 1.33.88.59-1.77 1.77-.15 2.07.15 1.18-1.33 1.18-1.77 0 .29 1.03.59 1.04 1.04.44.15 1.04-.15 1.77.74 1.18-.45 1.77.74 1.04 1.33.74-2.66 1.33 1.33.73-.14 1.63-.3.89-.59 1.47z" /><path d="m502.2 86.99l-.51-.12-.04.63 0 .59-.26.26.11.48.45.67.51.4.56 1.26.55 1.03.81 1.74-.03.59.22.81.15.44.11.67.37.59.37 1.18.29-.37.15.26.66.52.56.59.11-.33.26-.22.18.22-.07.29.15.22.36.11.12-.4.22-.26.14-.26.23-.37.25.04.34.37.18-.33.08-.37.29-.22.52-.12.11-.59-.19-.33.45-.04.03-.36.19-.41.41 0 .44.04.29-.3.52-.74.33-.07.26.22.48.22.48-.52.37.11.52-.07-.37-.63-.37-.37.26-.22.29.19.41.22.18-.11 0-.19.23-.14.29.07.3-.15.14-.4.26-.48-.07-.52.15-.67.22-.03.55.07.08-.44 0-.34.22-.4.15-.33.25.03.08.3 0 .26.22.22.18-.19 0-.29.37.04.34.07.33.15 0-.48 0-.45.33-.03.11.29.19.26.25-.15.19-.62.15-.34 0-.18.22-.04.22.3.18.18.23.15.26-.19.22-.07.55-.04-.07-.18-.22-.3 0-.33.18-.07.33 0 .19-.04.03-.18.23.18.29.37.19.33.29-.07 0-.3-.07-.4 0-.23.18.19.33.33.19.26.26-.18.18-.41 0-.26.41-.15.15-.66.25-.37.12-.37-.04-.37.29-.18.19.11.04.44.22.15.55 0 .37-.22.22-.41.33-.15.41-.74.63 0 .07-.62.33.03.34.15.18-.48.3-.15.51.56 0-.3.23-.04-.23-.29.11-.33.19-.08.22-.07-.15-.3.11-.14.26 0 .45.18-.52-.63.26-.18.37 0-.11-.37.14-.74.11-.15.37.04.08-.37.26-.37-.26-.04-.26-.26.22-.14.26-.08-.3-.37-.18-.44-.11-.29-.15-.45-.11-.29-.26-.04-.04-.3.34-.29-.04-.19-.04-.25-.11-.15-.15-.41.26-.26.08-.59-.04-.22 0-.44.04-.22.07-.15.22.04 0-.23.04-.22 0-.26.11-.18-.07-.37-.15-.59.22-.26.26-.41.37-.66.07-.55.11-.56-.18-.37-.19-.29-.29-.41-.45-.3-.4-.25 0-.63.29-.22-.48-.34-.48-.44-.4-.26-.19-.59.04-.51 0-.63-.07-.37.29-.22-.15-.63-.18-.48-.15-.26-.15-.41.22-.22.12-.22-.34-.44-.26-.34-.44-.11-.18 0-.19.15 0 .37-.22-.18-.52-1-.62-.15-.45.37-.37.37-.22-.37.22-.74 0-.81-.29.44-.89.08.15.51.07.45-.66-.45-.15.52-.37-.07-.29-.52-.45.22-.44.37-.44.15-.37.52-.15.96-.3-.3-.29-.66-.59-.67-.3.67-.07-.52-.3-.3-.37.59-.22.6-.59-.23.07.67.37.59.08.59.15.44.22.59-.37.74 0 .52.15.37.07.52-.89-.08-.07.67.29.37.3.66-.3.67 0 .37.6.73-.89.82.37.59-.59.88-.22 1.26-.82.89-.66.66.29.44.23.59-.45.52-.74.44-.22-.44-.88.37-.08.74-.22.74-.44 0-1.11.59-.67.52-.14.66.51.52-1.03.37-.59-.15-.81 0-.89.37-.81.37-.45.66 0 1.11-.81 0-.66-.52-.15 1.55-.81-.51 0 .81.59.74-.22.66.07.82-1.33.66-.81 1.11-2.07-1.77-1.26 0z" /><path d="m337.35 250.37l-1.78-.15-1.18-1.04-1.33-.88-1.18-.15-.74-.74-1.47-.44-1.63.59-1.33-.3 0-1.18.15-1.33-1.77-1.18-1.63-.44-3.4 1.03-.88-1.33-2.07-.88 0-1.19.3-1.03-1.04-1.03-1.03-1.33-1.18-1.33-1.33-1.78-1.48-1.77-.3-1.77-.29-1.04-.74 0-1.18.45 0-1.63 0-1.47-.45-.74-.59 1.03-1.03-.89-1.03.89-1.48 1.18 0 1.18.59 1.04-.74.59-1.77-.74-1.63 1.18-.74 1.18-.73.6 1.03.88.15 1.33-1.33.44-.74 1.92.29 1.04.45.89-.89.14.74 1.78.59 1.18-.29.88-.74.74-.74 1.04-.44.73.88.89.59 1.18 0 1.18-.44 1.33-.59.74.59 1.04.74.74-1.33 1.62.74-.15.29.74.15 1.04.89.88.59.89.88.88-1.47.15.44 1.18.59 1.33-.44 1.63.44 1.62 1.33.45.59 1.33-.44 1.33 0 1.03-.74.44-1.18.45-1.63.14-1.03 1.04-1.33-.89.15 1.48-1.19.74-1.32.59.44 1.33 0 1.47.29 1.78.45 1.03.74.59-.89.89-.44.88-.89 1.33-.44 1.19 1.18.29.29 1.18-1.33 1.04-1.18-1.33-1.92-1.04.74 1.78 1.03.88-1.03 1.04.3 1.03 1.03.3 0 1.03-.44 1.03-.74 1.04.15.74.88.88-1.03.15-1.77-.59-.15 1.48.29 1.33.59.88.15-.88.89.74.59 1.18-.59 1.03-.59.44-1.33 0-.45 1.48-.29 1.18 1.18.3-.44.89-1.18.59-.45 1.33.45 1.47 1.03 1.18-.59 1.19.29.74 1.78.14 1.77.15 1.33 0 1.18.59 1.04 1.04 2.06-.89 1.33-1.03.45-.74 0-.74-.15-1.04-.44-1.03-.15-.74 1.33-.59-.15-1.18 1.48-1.04 1.92-.29 1.62.29 1.18-1.77 2.37.59 1.18-.59 1.03.3 1.04 0-.3-1.18 1.04-1.63 0-2.07 1.77-1.77-.3-2.95 2.37-1.19 4.87-2.06 2.36-1.92.74-1.63 3.84-2.22 2.52-3.25 1.77-.73 1.33-2.81 1.47-.59 2.66-.59 2.66-1.18-1.47-2.07-2.22-2.51.15-18.76z" /><path d="m337.35 250.07l-.15 19.06 1.33 1.03 2.29 4.28-.96.15-1.77 0-1.33.3-2.37 1.03-1.77 2.22-1.62 1.33-1.33 1.92-2.37 2.07-2.66 1.62-1.92 2.36-1.33 1.19-2.8 1.03-2.81.89-1.92 1.47.15 1.18.59 1.78-1.77 1.33-.15 2.51-1.22 1.03.22.89-.74.55-.88-.26-1.78.56-1.22-.56-.48.23-.88.73-.37.6-.48.11-1.07-.3-.67.22-.77.15-.33.44-.52.15-.67.37-.26.48-.44.92-.92-.03-.33.66.11.41.33.48-.11.4.44.15.19.74.29 1.18-.37.37-.48.22.04.37-.78.45-.14.55-1.37.66-1.33-.11-.96-.88-.85-.19-.85-.22-.66.26-1.59-.26-2.03-.29.22.51.29.67-.07.88-.81.74.59.89-.74.81.37.67-.07 1.25.66 1.33 0 .96.15 1.18-.59 1.04.51.88.37.37.08.81.66.52 0 1.04-.59.51.15.82.07 1.62 90.41.15 0-1.18.29-1.26-.22-.74.59 0-.14-.81-.15-.81 0-.82.07-1.18.59-.81-.37-1.4-.44-.82-.37-1.25-.52-1.85-.51-1.25-.22-1.26.07-2.36.07-1.11.3-1.33.66-1.33 1.33-.52 1.04.23-.3-.74.67-.15.96.29.44.74-1.63.45.45.51 1.33-.37 1.1.23 1.78.66 1.62.96 2 1.11 1.77.74.44-.82.45.3.22.81 1.33.52.74 1.11.81.29 1.4.22 2.36-.07 2.74.07 2.43.15 1.78-.44 1.4-.89 2.29-1.77-1.62-2.07-2.37-2.36-2.21-.59-1.78.29-.29-24.67-.89-.29-1.18-1.04-1.33-.74-1.18-.29-.15-1.33-1.48-.15-1.47-.88-3.4-1.78-1.92-1.18-2.51-.74-2.22-.14-2.51.44-3.54-1.77-.3 1.33-1.18.73-1.33-.59-2.37-1.18-1.03 1.04-1.03.44-1.33-.44-1.04-.74-1.18-1.19-1.48-.29-1.18.59-1.18.74-2.36-.15-3.11-1.48 1.04-2.66-3.84-.88-2.51-1.63-1.78-3.1-2.36 1.48-3.69-1.48-.89-2.66-1.48.74-.88-2.07.15-1.03 1.62.15.74-1.33-1.33-3.25-6.35-1.48z" /><path d="m335.57 54.19l5.62 1.18 6.79.3 7.24-.15 3.84-.29.74.44 1.77 2.21-1.03 2.96-1.03 1.92-2.37 0-.29 1.62.29 1.92 2.37 1.92 1.33 3.11 2.21 1.47 0-1.62 2.36-2.22 1.93.89 3.84 2.22.59-1.04-.15-1.33 1.03-1.77 1.18.15 1.48 0 1.48-.3 1.18.74.59 1.18 1.92.59.59 1.48 1.78-.44 1.47-.74.89 0 1.48-.59 1.47-.59 1.48-3.4 1.92-3.25 2.81 0 .15-1.18 7.53.74 5.17-7.09 9.45-12.41.3-27.48-.59-1.03-.74-.45-1.62-1.47-1.78-1.63-1.47-1.03-.15-1.48-3.1-.15-8.28-.15-.29.89-.59-1.18-2.81.59-1.26 2.36-1.33 2.22-.22.89-.66 1.03-.59 1.92-.15.66-.3 1.33-.14.74 0 .67-.45.74-.22.37-.22-.45.22-1.11-.15-.88-.37-.52-.66-.59-.22-.52-.15-.74.44-.73-.96-.82-.37-.59-.51 0-.08-.59-.14-.59-.15-.66.74-.52-1.04-.67-.81-.73-1.18-.23-.81.15-.08-.66-.88-.15-.74-.15-1.04-.29-1.03-.15-1.11.07-.41.45-.4 1.51-.11.55-.04.63.07.3-.44.37-.18.48-.3.81-.26.81-.4.48-.11.7.03.59.37.3.67.33-.15.74-.37.48.26.22 0 .45.18.25 0 .56-.03.33.14.41.71.37.29.51.15.26.44.41.67.4.33.3.22.48 0 .33 0 .48-.04.19.3.14-.07 1.07.33.48.51.3.37.15.19-.22.33.22.33.59-.03.26.03.48-.07.44.15.26.15.29.18.15 0 .22.22.19.52-.04.55-.04.48-.11.37-.11.41-.14.11.29.7.19.22.14.19.08.26.11.48.29.33.26.11.19.29.37.34.59.18.07.15.04.22-.08.26-.29.04-.44-.12-.3.19-.07.18-.11.11-.23.6-.18 2.29-.15-.15 9.01 0 1.63-1.11 1.84-.81.82-.82.29-.29-.44-.59 0-.59.52-.22.36-.67.52-.37.96-.44.22-.52.3-.44 0-.81-1.26-.67-.59-.81-.37-.44.37-.08.3-.29.74 0 .81-1.19-.07-1.32-.52-.96-.74-.6-.59-.59-.15-.51.3-.45.29-.44-.07 0-.45-.37-.29-.44.22-.37-.15-.44-.44-.3.3-.59 0-.59-.74-.67-.3-.44-.44-.07-.67-.52-1.18-.15-.81-.15-.67-.66-1.25-1.26-.44-.29.11-.48-.04-.26-.04.11-.29 0-.22-.3.03-.22 0-.29-.4-.22-.71-.04-.77.15-1-.04-.81.07-1.03.19-.67.07-.55-.11-.59-.52-.52-.66-.52-.81-.37-.37-.18-.15.4-.37.45-.48.44-.26.7-.48.37-.22.19.04.29-.15.56-.3.29-.37.44.08.63 0 .85.29.52-.29-.15-.04.41.08.44.03 1 .08.7.4-.15-.22.55-.15.15-.22.74.08.22-.04.26-.22.19-.19-.11-.22-.08 0 .37 0 .3-.29.22-.34-.15-.14.22-.04.37-.33-.07-.3.11-.37-.19-.26-.14-.55-.19-.56-.18-.44-.3-.26-.11-.33-.33-.11-.3-.33-.03-.56.14-.48-.29-.29-.37-.08-.45-.18-.33.04-.37-.22-.14-.37.14-.15.19-.48-.63-.63-.66-.18-.6-.6-.62-1.88-1.81-1.55 5.06-12.48 5.31-.08.37-.14.41-.26.07-.11.45-.11.14-.41-.03-.52 0-.22-.15-.07.52-.26.7-.15.41.04.29-.26-.07-.19.22-.29-.26-.19.04 0 .51 0 .26-.22.63-.33.3-.29.55-.08.63.26.26.18.33.48.7.63.11.22.22 0 .67.19.22.04.59.48.59.14.41.15.33.11.22-.77.44.25.15z" /><path d="m319.18 103.23l-1.11.45.52.52 0 .96-.37.66-.22.66-.59.96.07.67.59.15.3.44-.52.59-.22.81-.59.52.29.37-.15.74-.29.89-.08.96.08.73-1.04.15-1.1.3.07.66-.22.74-.67.81 0 .67-.14.59.66.52-.15.51.22.45.15.73.15.52-.15.81.08.67.44.44.37.15 0 .59-.22 1.03.29.6-.15.44-.14.81 0 .52-.22.66-.08.67-.44.29-.08.52.23.52.44-.45.89-.07.22.66 0 .67-.37.44-.3.52-.29.52 0 .66.07.67-.89.37-.59-.08-.66.3-.74-.82-.89.37.59.89-.59 1.03-.51.6-.15 1.03-.37.89.07.88-.44.89-.22 1.25-.44 1.33.37.45.51.74-.44.59-.44.14-.45.08.08.59.07.74-.89.66.15-1.11-.81-.44-.44.59-.15.67-.37.96-.22 1.1.29.96-.37.96-.07.82.15.59-.3.66.15.74.44.37.22.89.6 0 .07.66-.07 1.04.14.81.08.37.96.29.81.08.74-.08.26.59.18.34.3.44-.04.3-.63.25.04.48-.33 0-.26.34-.3-.11-.26-.04-.33-.26-.29.11.11.19.48.18.03.33-.11.19.19.33.18.29.22.26-.33.3.26.29.26.3-.22.37.22.18-.33.11-.15.3.22.22.22.22.37.19.3.18.18.19.19.14-.11.26.07.34-.15.36-.11.34.07.29.26-.03.3.18.55.33.37.52-.26.11.3.7-.37.63 1.07.33.59-1.14.67-.48.88.96.78-.26 1.4-.74.89-.59-.45-1.26.37-1.1 1.04-1.11.88-2 1.19-.88.96.15 1.1.73.52-1.18 1.63-.37 1.03.52.59.66 1.4.37.23 3.03 2.36.22 3.62-1.47.44-1.33 2.22-.59 1.11.37.81-.6 1.33-.14.15.66 1.25.89 2.14.44 1.41.52 1.69-.3.08.59.59 1.04 1.92-.3 0 .52 1.18.37-.52-.96-1.62-1.48-.96-1.62.44-1.78 0-2.21 2.59.37 1.33-.89 6.28 1.26-1.63-1.55-1.03-2.81-.82 0-2.21-3.69.44-2.37-.59-1.18.44-1.85-.29-1.1.37-1.26-2.29-2.88-2.37-1.48-2.06-3.4-.08-1.69-6.79-6.5-1.33-.3.15-1.48-1.11.08 0-.3-2.74-1.7-2.58 0-1.18-.29-.81-.15-.74.22.07-.66-.96.66-.3.59-.81-.37-.15-1.1.15-.89.37-.96.08-1.11-.15-.81.37 0 .07-1.04-.59 0 .37-.36-.59-.89.59-.52.52.59.37-.66-.3-.81.44-.52-.66-.52-.15-.89.59-1.55-3.69-2.14-.44-.96.29-.96-2.07-2.51-.96.3-.88-.52-.74.15-.96-.23z" /><path d="m379.97 207.38l-.15-3.03-.3-3.18-.59-17.5-.07-5.69 1.4-.88.67-1.78.66-2.14.3-2.58.59-2.29.74-.37-.37-.82-.82-1.92.15-1.69-3.77.73-.59-4.13-4.21-2.88-2.8.14-3.47.37-3.99.74-2.44.3-2.44-1.26-.66.08-1.04-.3-1.77-.37-1.33-.29-1.48-.3-1.7.81-2.28-.37.14 2.59-.37 1.4.37 1.11.89 1.11 1.33 1.03.15.81-1.11-.36.22.73.44.82.08.81-.22.44.66.37-.22.96.66.08-.37.73.52.45.67.66-.08.89-.15 1.03-.81.52.3 1.26.37 1.03.14 1.03.3.89-.37.74.22 1.18.15 1.26.07 1.25.45 1.11.29.59.67.96.59.44-.08.45.67 1.25.66.59.45.74 0 .89 1.1.15 1.04 1.1.74.59-.3.6-.37.73-.22 1.04 0 .74-.15.66-.07.44-.59 0 0 .96.15.6-.37.51.14.67.45.29.22 1.04-.07 1.1.22.82.29.37 0 .59.3.44.29.59.67.3-.96.37.74.51.66.15.22.89.45 1.18.29.59-.44.44.07.52.45.74.22.96.07 1.18.07 1.11-.59.59.67.44-.52 1.04-.37 1.1.37.6-.29 1.18-.52.74.37.81-.3.74-.14.96-.08.74-.52 1.47-.07.96-.07 1.04 20.83.14 0-16.76z" /><path d="m346.28 402.59l-54.43.08-.89 1.77-2.66.89.74.88 1.04.44.88 1.63-.44 1.77.59 3.84.74.89-.15 1.18-1.92 2.51-2.81-.44 1.04.59-.59 1.18 0 1.48 1.33 1.48-1.33.44 1.62 1.33-.59 1.33 0 1.18-2.36-1.48.88 2.07-.73 1.18-1.48 1.33-1.48-.15-1.62 1.33 1.33 1.33-.74 2.22-2.66 1.77.88 1.78-1.77.59 1.18 1.77 2.07.88 0 1.78.59 3.25 2.37 2.07-2.37.88-1.47 2.66-1.78-.74.45 6.21-.89 1.33-1.18 0-1.04 1.62-.44 1.48-.74-.89-1.33.59-1.18 2.22-1.48.74 0 1.33 1.19.29 1.03 1.18-.59 1.04-1.18 1.77 1.03 1.92-.74.44-1.92 0 2.51 2.52-.88.73-1.92.89-2.81 2.07-.3 1.03-.88 1.63 1.03.15-.88 1.32 1.33 1.48-.74.45-.59 1.03 0 1.77.59 1.33.88.89-.29 1.03 1.18 1.92.89 1.48.88 1.92 1.33.59-1.33 1.03-.59 1.33.74 1.04.89-.44 1.03-.3 1.03-.3.45-.88 1.18-1.18.89-1.33 1.32 0 1.04.88 1.03.89 0-.89.45-1.33 1.03.15 1.33.44.89 1.19-.89 1.33 1.33 2.06 0 2.37-.15 1.47-1.33.15-.44 1.92.59 1.63 1.33.29-.3 1.63-1.18 1.62.89.59.15 1.48-.59 1.48-1.48 1.33 1.62-.15.45 1.48.59 1.33 1.33.59 1.18.15 1.33 1.77.74 1.77-.89 1.77 1.62.59 24.97-.29 6.8 3.69 4.43-.44 1.47.59 1.19 1.62 2.36 1.04 2.81.15 1.33.29 1.18 1.18.88-.29-3.1-4.73-2.66-3.69-2.95-7.39.44-2.21-1.18-3.99-1.48-7.24-.88-.89 1.03-1.18-.15-3.25 0-2.36 1.48-3.1 1.62-3.11 1.78-1.03 2.51-1.48 3.1-1.18.15-1.33 2.07 0 1.62-1.03 3.1-2.07 1.33-3.99.59-3.69.45-3.4 1.18-3.32-.15-.45-.59.15-.3-.52-.29-.44.44-.3.59 0 .15-.44-.37-.29-.22-.67.59-.52.15-.59.59-1.33.81-.96.96-1.18 1.92-.96.89-.52.07-.59.22-.66.52-.67.08-.96.96-.44.73-.96.74-.22.89-.07.59-.45-.44-.59.66-.74.74-.51.66-.45.67-.37.52-.37 1.7-.22.81-.37-.22-.96.81-.22.81.15-.37-.89.44-.66.6-.81.73-.67 1.04-.29.37-1.19.29-.37.67-.22.81-.07.52.44.74.3.14-.59-.22-.52-.59-.07-.22-.45.81-1.11-.29-.59-.08-.59.45-.29.59.44 1.03.59.22-.44-.15-.59.52-.08-.22-.37-.89-.07-.14-.52-.23-1.1-.29-.97.29-.59.3-.96.44-1.18.59-1.11.37-2.14.3-1.55-.22-2.14-.45-.59.3-.59-.07-.52-.74-.59-.59-.67-.3-.73-1.25-.3-1.48.15-.74.44-1.63-.44-2.14-.67-1.47-.14-1.19.22-.44-.45-.74 0-1.62-1.03-.22-.37-.45-.52-.59-.73-.59-.6-.59-.51-.74-.96-1.03-1.48-.59-.44-.67-.3-.44-.66-1.33-.08-1.04-1.33-1.25-2.95-1.26-3.92-.37-2.29.3-1.1.37-.45-.08-.59z" /><path d="m444.78 179.26l.2.17-.04-.2-.25-.14-.29-.27.17-.4-.08-.18-.21-.21-.39-.09-.41.05-.39.03-.54-.22-.78-.74-.72-1-.76-1.07-.15-.59-.53-.72-.45-.48.23-.33.16-.59-.5-.41-.33-.87.09-1.05-.46-.72 0-.59-.02-.76-.27-.63.31-.51.3-.76.09-.83-.28-.48.13-.28.24-.13.41-.05 0-.56.07-.98-.22-.27-.22-.59.29-.76.35-.67-.16-.4-.06-.59-.09-.56-.15-.46.35-.52.15-.84.04-.43.24-1.55.88-.68.65 0 .83-.08.81-.72.8-.61 0-.44-.04-.28.26-.33.52-.18.64-.15.37-.39.17-.39.39-.35.38-.33.3-.37.13-.44.31-.52-.13-.48.19-.39.26-.27.77-.63.19-.65 1.1-1.53.82-1.46.4-.96.74-.57.48-.69.28-.83.29-.72.37-.31.34-.41-.15-.63-.22-.79.07-.55 0-.76-.11-.96-.26-.24-.26-.55.1-.32.16-.63.15-.57.37-1.18-.06-.52.13-.5.13-.37.2-1.05.36-.55.16-.83-.28-.94-.22-.74-.44-.5-.28-.52.24-.52.41-.75 0-.26-.17-.33-.02-.67.19-.61.15-.81-.45-.68.08-.15.2-.33.41-.82-.17-.88.2-.08.52-.37.31-.4.13-.57 0-.59.67-.43.64-.22.61-.22.19-.17-.02-.44-.17-.39.3-.33.83-.32.81-.62.34-.48-.12-.52.12-.81.64-1.24.26-1.51.39-.87.28-.69-.17-.53-.2-.72.14-.57.48-.59.28-.87-.39-.52.08-.81-.39-.93-.2-.88.22-.76.48-.9.72.03.63-.14.46-.3.37-.52.07-.72-.11-.35-.41-.05-37.67-.08-3.69 26.3-1.85 13.74 3.85 2.29-2.22 8.73-1.42 5.13-.35.04-1.15 1.27.24.48.04.74-.04 1.72.45.46.31 1.09-.26 1.24-.18.7.25.81.89.93.98.64.42 1.48.71 1.14.57 1.2-.08.17.08.22-.08.13-.14.19.18.07.15.15 0 .16-.26.22.04.1.11.11.33-.06-.05.39-.3.22-.41.37 0 .43.13.01.17.17.29.09.6 0 .12.37.41.59.15.1.2.25.11.43.08.39-.17.72.24.7-.2.76-.06.75-.46.45-.7.96-.67.4-2.51 4.01-6.24 9.86-4.14 6.54 11.8-.02 3.9-.02 4.19-4.67 2.38-2.74 2.85-3.47.72-.64.42-.34.13-.31.02-.59.3-.44.75-.47.39.04.11.26.3.26.57.15.79.07.32.17.5.35.51.26.58.18.66-.07.44-.23-.02-.51.19-.32.29-.2.1-.37-.04-.39.06-.61.38-.49.56-.41.22-.46.24-.93.42-.44.21-.46-.02-.31z" /><path d="m420 133.89l2.29-17.21 1.77-9.16 1.18-10.34.3-10.49-.3-7.24.15-10.63 0-7.54-23.04.15-1.04.89-7.09-.74.15 1.18-2.51-.59-.74.88-1.18 2.37-.89 2.36-.89 1.48.15 1.62-.74 2.52.3 3.1-.89-.15-1.03 2.22-.89.88-1.03 2.96-.74 2.8-.59 1.18-1.48.89 0 1.63-.44 1.77.15 1.18.88 1.18-1.03.45-.74 1.47-1.77.3.59 1.62.59 1.63.15 5.02 0 1.63-1.33 1.32 1.03.74 1.03 1.04 1.33 1.18 1.48 3.1-.74 3.99 1.11 4.36 1.11-.37 3.4-.44 2.8-.23 3.4.59 1.18.23-.15.88.67.15.44-.22.3-.59.51-.15.37.44.15.74.96.15 2.96.15-.08.96.52 0 .15 1.03 8.93.44-.51.89.88.96 1.26 1.26 1.26 1.33-.37.59-.15 1.1.59 1.26.74.74.74 0 3.25-.3 1.18 1.41z" /><path d="m332.69 540.42l0 51.11.52-.81 0-.37.3-.37.51.29 1.11.08.59-.22.45-.52.37.22.36.3.67.14-.07-.29-.6-.37-.14-.45 1.1 0 1.11.45 1.26.29 1.03.45 1.55.14 1.11.15.96.3 1.11.07.89-.52.88-.14.45.07-.45.37-.52.22.3.52 1.11.22.15-.81.66-.22.89 0 .88.14 1.26.45 1.33.66 1.7.37.96.15 1.03.44.96 1.04 2.14 1.03 1.11-.22.81.15.15-.89.15-.52.44-.14.52.14.96-.14.74.14 1.03.08 1.41-.59.29-.52-.81-.59-.22-.37.88-.15.82.15.73-.22.45.22.59-.08.59.37.3.59.73.52.52-.22.52-.22.51-.15.52-.22-.07-.89.44-.22.37.3.3.44.44.66.74-.66.51-1.03.15-.67.96-.29-.59-.74.74-.08-.07-.59.22-1.18.22-.66.74-.74-.89-.22-.74.51.3-1.03-.81.22-.59 0-.74.22-.52.59-.15-.74-.59.3-.66.52-.52-.59-.67.29-.59.3-1.03-.52-1.26 0-.73-.59-2.22-.96-1.85-.67-1.84-1.03-.74-.59-.74.22-.44-.22-.52-.89-.52-.88-.74-.89-1.03-.74-.44-1.11-.67-.96-1.11-.29-1.1-.37-.37-.59-.82-.81-.88-.67-.45.37-.66-.52-1.11-1.03-1.25-.52-.15-.88-.81-.45-.67-.37.08-.37-.74-.51-.59-.23-.23-.88-.14-.67.51-.22-2.06-1.4-1.93-2-1.4-1.55-1.33-1.77 0-1.4-.44-1.26-.3-1.33-.44-1.03-.96-.52-.59.3-1.7-.15-.96-.3-.96-.74-.89-1.1.3-1.48.96-1.26 1.03-1.69 1.26-.6.59.3.07.96.89 2.29-.81-3.62-.37-1.18-1.48-1.85-1.18-1.99-1.26-1.63-.37-.88z" /><path d="m378.12 95.7l.4.22-.22-.66.34-.08 1.33-.29.84-1.55 1.08-.26-.63-.67-.45-1.14-.07-.85.48-1.29.11-2.03 1.48-.78.59-1.4 1.66-5.47.85-.92 1.11-2.25.85.18-.3-3.03.78-2.55-.39-.83-.37-.02-.13.12-.37-.02-.37-.06-.2.08-.39.14-.31.15-.33-.07-.13-.08-.3-.02-.4.1-.17-.1-.2-.12-.28-.02-.26.09-.15.17-.09-.08-.29.09-.02.15-.13.19-.21.2-.16.11-.06-.11-.07.09-.3.15-.29.11-.19.07-.18-.14 0-.23-.19-.03-.22-.02-.22.09-.29.08-.06-.23-.13-.16.02-.22.15-.24-2.13-.54-.37-.07 0-.11-.66-.15-.06-.26-.11-.31-.11-.54-.02-.13 0-.11-.03-.09-.21.07-.16-.15-.15-.16-.3 0-.27.13-.15.18-.2.17-.21.18-.25.06-.3-.32-.22.02-.28-.05-.28.11-.55-.08-.26.3-.24.11-.24.09-.31 0-.04-.18-.66.11-.19.65.13.03 0 .24-.11.22-.22.28.04.13.18.02-.06.22-.18.24.13.11-.19.3.3.24-.3.22.13.29-.07.32-4.34-1.46-.18-.22-.39-.08-.17-.2-.09.06.04.25.05.15-.29-.02-.02.3-.04.26-.07.16.05.11.02.13.06.26.14.33-.14.08 0 .29-.56.41-.02.15.06.35-.09.26-.22.42.16.35-.18.15.11.15.15.15-.13.05.05.19 0 .24-.13.01 0 .15.08.17-.15.05-.09.11.05.26-.04.19 1.96-.46 2.46 1.71.26.19.13.22 0 .28-.23.37-.83.81.06.29.28.28-.1.13.22 0 .17.17.09.18 0 .31-.26.08.02.31-.22.21-.31.2.02.15-.08.25-.31.21-.32.15-.16.35.09.09-.09.52-.15.2-.22 0-.22.09-.28.26-.2.29-.15.15.04.22-.1.23-.22.11.11.16-.18.02-.19.06-.11-.08-.05.1-.09.27-.12.19.12.18.22.17.29.15.28.12.24.1.39.09.16.17.24.01.24.39.08.41-.04.44-.07.65 0 .68.11.63.03.59.45 1.25.33.15.37.22.15.34.14.44.26.85.08.41.33.25.15-.29 0-.41.22-.18.37.18.44.37.19.41.11.74.03.55.26.55.37.23.59.07.52.74.15-.81.96-1.04 1.11-.59 1.03-.22 1.33 1.18z" /></g></g></svg>