<?xml version="1.0" encoding="UTF-8" standalone="no"?>
<svg
   id="Layer_1"
   viewBox="0 0 595.28003 595"
   version="1.1"
   sodipodi:docname="Argentina-01.svg"
   width="595.28003"
   height="595"
   inkscape:export-filename="Argentina-01-portrait.svg"
   inkscape:export-xdpi="96"
   inkscape:export-ydpi="96"
   xmlns:inkscape="http://www.inkscape.org/namespaces/inkscape"
   xmlns:sodipodi="http://sodipodi.sourceforge.net/DTD/sodipodi-0.dtd"
   xmlns="http://www.w3.org/2000/svg"
   xmlns:svg="http://www.w3.org/2000/svg">
  <sodipodi:namedview
     id="namedview88"
     pagecolor="#ffffff"
     bordercolor="#000000"
     borderopacity="0.25"
     inkscape:showpageshadow="2"
     inkscape:pageopacity="0.0"
     inkscape:pagecheckerboard="0"
     inkscape:deskcolor="#d1d1d1" />
  <defs
     id="defs1">
    <style
       id="style1">.cls-1{clip-path:url(#clippath);}.cls-2{fill:none;}.cls-2,.cls-3,.cls-4,.cls-5,.cls-6,.cls-7,.cls-8,.cls-9,.cls-10,.cls-11,.cls-12,.cls-13,.cls-14,.cls-15,.cls-16,.cls-17,.cls-18,.cls-19,.cls-20,.cls-21,.cls-22,.cls-23,.cls-24,.cls-25,.cls-26,.cls-27,.cls-28,.cls-29,.cls-30,.cls-31,.cls-32,.cls-33,.cls-34,.cls-35,.cls-36,.cls-37,.cls-38,.cls-39,.cls-40,.cls-41,.cls-42{stroke-width:0px;}.cls-3{fill:#503517;}.cls-4{fill:#572413;}.cls-5{fill:#705748;}.cls-6{fill:#9b7d5f;}.cls-7{fill:#1b3660;}.cls-8{fill:#3f3e40;}.cls-9{fill:#3e2d22;}.cls-10{fill:#1d1b0c;}.cls-11{fill:#0f1100;}.cls-12{fill:#413c3d;}.cls-13{fill:#058b71;}.cls-14{fill:#059579;}.cls-15{fill:#070000;}.cls-16{fill:#0c0000;}.cls-17{fill:#231f1f;}.cls-18{fill:#a8aaac;}.cls-19{fill:#c59b96;}.cls-20{fill:#cda19c;}.cls-21{fill:#ac8771;}.cls-22{fill:#d5effb;}.cls-23{fill:#dcddde;}.cls-24{fill:#d52b2f;}.cls-25{fill:#aa8783;}.cls-26{fill:#bbbcbe;}.cls-27{fill:#a61e20;}.cls-28{fill:#b18b74;}.cls-29{fill:#b28d89;}.cls-30{fill:#a98570;}.cls-31{fill:#b7918c;}.cls-32{fill:#8c6f6c;}.cls-33{fill:#90715e;}.cls-34{fill:#302e2f;}.cls-35{fill:#bb937b;}.cls-36{fill:#31a383;}.cls-37{fill:#303425;}.cls-38{fill:#a26655;}.cls-39{fill:#a17e6a;}.cls-40{fill:#fff;}.cls-41{fill:#e7eff3;}.cls-42{fill:#69553f;}</style>
    <clipPath
       id="clippath">
      <rect
         class="cls-2"
         x="5.0900002"
         y="303.67001"
         width="599.75"
         height="555.29999"
         id="rect1" />
    </clipPath>
  </defs>
  <g
     class="cls-1"
     clip-path="url(#clippath)"
     id="g88"
     transform="matrix(2.2485137,0,0,2.3359713,-608.66279,-1058.7112)">
    <circle
       class="cls-34"
       cx="257.16"
       cy="634.10999"
       r="17.969999"
       id="circle1" />
    <circle
       class="cls-17"
       cx="257.16"
       cy="634.10999"
       r="7.96"
       id="circle2" />
    <path
       class="cls-15"
       d="m 71.14,621.93 c -1.24,0.16 -13.67,-2.88 -17.17,0 -3.5,2.88 -6.88,9.97 -6.61,19.1 0.13,4.17 0.79,9.38 8.71,12.35 7.92,2.97 18.08,-0.09 20.01,-0.5 1.93,-0.41 -4.94,-30.96 -4.94,-30.96 z"
       id="path2" />
    <path
       class="cls-41"
       d="m 150.84,535.74 c 0,0 -30.39,0 -37.32,4.95 -6.93,4.95 -27.74,23.78 -32.7,29.39 -4.96,5.61 -18.17,20.81 -18.17,20.81 0,0 -30.05,9.25 -35.34,16.84 -5.29,7.59 -2.64,16.84 -1.98,22.13 0.66,5.29 10.24,13.54 17.17,11.89 l 5.61,0.21 c 0,0 -2.64,-21.02 9.58,-21.68 12.22,-0.66 21.8,1.87 23.78,13.82 l 0.99,5.01 154.9,-5.01 c 0,0 -0.06,-14.81 19.79,-15.47 19.85,-0.66 19.85,12.55 19.85,12.55 0,0 32.04,-1.98 39.63,-2.31 7.59,-0.33 17.17,-1.32 18.5,-3.96 1.33,-2.64 1.98,-23.33 0,-38.42 -1.98,-15.09 -5.61,-46.79 -11.89,-48.44 -6.28,-1.65 -172.4,-2.31 -172.4,-2.31 z"
       id="path3" />
    <path
       class="cls-34"
       d="m 60.9,620.72 10.24,1.12 c 0,0 7.43,4.46 8.75,14.53 1.32,10.07 -3.81,16.51 -3.81,16.51 l -9.97,1.71 c 0,0 6.48,-10.19 5.36,-16.99 C 69.82,627.61 60.9,620.71 60.9,620.71 Z"
       id="path4" />
    <path
       class="cls-26"
       d="m 65.96,596.52 c -0.13,1.75 15.52,0.17 21.63,-1.65 6.11,-1.82 28.07,-7.27 29.56,-9.91 1.49,-2.64 4.29,-21.63 2.81,-23.94 -1.48,-2.31 -13.71,-0.33 -16.84,0 -3.13,0.33 -9.74,1.32 -16.68,9.58 -6.94,8.26 -20.15,21.63 -20.48,25.93 z"
       id="path5" />
    <path
       class="cls-23"
       d="m 44.16,604.77 c -3.07,-1.95 -13.05,2.15 -13.71,2.97 -0.66,0.82 -2.31,6.94 -0.99,7.1 1.32,0.16 8.7,-1.72 11.23,-3.47 2.53,-1.75 5.28,-5.45 3.47,-6.61 z"
       id="path6" />
    <path
       class="cls-26"
       d="m 149.68,557.87 c -2.15,0.33 -16.68,-0.17 -17.5,1.32 -0.82,1.49 -0.5,7.43 0,16.02 0.5,8.59 2.97,15.19 2.97,15.19 h 79.1 l 91.98,-3.9 c 0,0 1.82,0.77 2.15,-2.37 0.33,-3.14 -2.64,-21.37 -4.46,-24.22 -1.82,-2.85 -1.16,-4.77 -10.07,-4.72 -8.91,0.05 -144.16,2.69 -144.16,2.69 z"
       id="path7" />
    <path
       class="cls-24"
       d="m 93.17,561.18 c 0,0 12.75,-4.62 22.5,-4.62 9.75,0 134.26,-3.63 142.35,-3.3 8.09,0.33 66.22,-0.02 66.22,-0.02 0,0 2.64,-2.13 0,-1.96 -2.64,0.17 -105.03,-0.68 -109.49,0 -4.46,0.68 -82.07,2.49 -85.71,2.49 -3.64,0 -25.76,1.65 -32.2,3.96 l -3.67,3.47 z"
       id="path8" />
    <polygon
       class="cls-24"
       points="321.92,543.34 275.52,543.34 275.52,549.78 323.24,549.78 "
       id="polygon8" />
    <polygon
       class="cls-17"
       points="329.52,617.49 328.19,610.55 204.51,615.51 216.82,623.46 "
       id="polygon9" />
    <polygon
       class="cls-24"
       points="309.86,608.24 307.89,609.78 302.89,603.46 295.33,608.24 293.85,606.42 303.59,600.31 "
       id="polygon10" />
    <polygon
       class="cls-24"
       points="312.01,598 310.03,599.54 305.04,593.22 297.48,598 295.99,596.18 305.74,590.07 "
       id="polygon11" />
    <polygon
       class="cls-24"
       points="313.66,587.32 311.68,588.86 306.68,582.54 299.12,587.32 297.64,585.51 307.38,579.4 "
       id="polygon12" />
    <polygon
       class="cls-24"
       points="315.4,577.05 313.42,578.59 308.42,572.27 300.86,577.05 299.38,575.24 309.12,569.12 "
       id="polygon13" />
    <polygon
       class="cls-24"
       points="316.41,565.82 314.43,567.36 309.44,561.04 301.88,565.82 300.39,564.01 310.14,557.9 "
       id="polygon14" />
    <path
       class="cls-24"
       d="m 327.7,587.76 v 27.74 c 0,0 6.77,0.83 6.94,0 0.17,-0.83 0,-27.74 -0.66,-27.74 z"
       id="path14" />
    <path
       class="cls-3"
       d="m 336.38,778.83 7.01,76.95 144.66,-4.29 c 0,0 -2.97,-61.43 -11.89,-73.98 -8.92,-12.55 -139.78,1.32 -139.78,1.32 z"
       id="path15" />
    <path
       class="cls-28"
       d="m 399.37,523.87 c 0,0 -2.48,3.62 2.31,4.45 4.79,0.83 13.71,0 14.86,2.81 1.15,2.81 1.49,11.72 1.49,11.72 l -3.63,18.83 c 0,0 -2.79,6.11 -6.02,11.23 -3.23,5.12 -6.7,6.61 -10.5,8.92 -3.8,2.31 -9.91,3.8 -9.91,3.8 0,0 -15.52,1.16 -19.16,0.83 -3.64,-0.33 -7.47,-5.04 -7.47,-5.04 0,0 -2.48,-6.15 -2.11,-8.61 0.15,-0.99 -2.15,-7.82 -2.15,-9.14 0,-1.32 -2.15,-4.79 -2.15,-4.79 0,0 -4.29,-0.17 -1.98,-7.76 2.31,-7.59 0.99,-8.59 0.99,-8.59 0,0 -1.7,0.17 -1.67,-2.64 0.03,-2.81 0,-7.43 0,-7.43 V 528 l 47.09,-4.12 z"
       id="path16"
       style="fill:#b89986;fill-opacity:1" />
    <path
       class="cls-21"
       d="m 352.62,538.55 c 0.83,0.5 4.62,2.97 4.62,2.97 0,0 3.47,3.8 7.43,5.61 3.96,1.81 5.78,3.8 10.73,2.81 4.95,-0.99 9.41,-5.56 9.41,-5.56 0,0 5.45,-7.65 7.6,-8.64 2.15,-0.99 4.79,-7.6 4.79,-7.6 0,0 0.66,-4.79 -5.12,-2.64 -5.78,2.15 -16.18,2.81 -16.18,2.81 l -12.16,-1.33 c 0,0 -10.63,4.14 -11.12,4.97 -0.49,0.83 0,6.61 0,6.61 z"
       id="path17"
       style="fill:#b89986;fill-opacity:1" />
    <path
       class="cls-30"
       d="m 392.42,543.67 c -0.33,0.66 -5.12,9.08 -6.61,10.9 -1.49,1.82 -7.27,5.28 -7.93,5.12 -0.66,-0.16 -5.78,-3.3 -7.6,-2.97 -1.82,0.33 -6.77,0.99 -7.43,1.65 -0.66,0.66 -1.16,1.32 0.83,2.31 1.99,0.99 4.46,1.32 4.46,1.32 0,0 5.61,0.33 3.14,2.48 -2.47,2.15 -2.97,3.3 -5.12,3.96 -2.15,0.66 -4.62,1.98 -5.28,1.98 -0.66,0 -2.15,1.16 -1.82,2.31 0.33,1.15 0.83,8.26 2.64,9.08 1.81,0.82 2.15,2.48 7.43,2.97 5.28,0.49 11.51,3.23 17.19,0.83 4.72,-2 8.58,0.37 10.39,-5.41 1.81,-5.78 1.32,-8.3 2.97,-14.58 1.65,-6.28 0,-13.05 0,-13.05 0,0 -0.66,-10.57 -1.16,-10.4 -0.5,0.17 -6.11,1.49 -6.11,1.49 z"
       id="path18"
       style="fill:#a48372;fill-opacity:1" />
    <path
       class="cls-14"
       d="m 382.99,614.86 c 0,0 -11.86,-16.47 -14.84,-20.05 -2.98,-3.58 -9.91,-4.73 -9.91,-4.73 0,0 -30.05,17.67 -36.99,29.89 -6.94,12.22 -20.86,50.76 -20.86,50.76 0,0 1.54,2.08 1.46,8.69 -0.08,6.61 -8.02,12.71 -4.22,18.74 3.8,6.03 2.65,8.54 6.36,17.52 3.71,8.98 2.05,9.64 9.65,15.92 7.6,6.28 17.7,9.98 22.72,7.47 0,0 -1.13,10.37 -1.69,18.29 -0.56,7.92 1.69,21.47 1.69,21.47 l 8.33,15.52 c 0,0 28.52,13.87 36.06,12.88 7.54,-0.99 11.83,-3.96 12.82,-4.29 0.99,-0.33 29.39,4.95 44.59,1.98 15.2,-2.97 13.87,-5.94 19.82,-7.93 5.95,-1.99 18.17,-10.53 18.17,-10.53 l 2.31,-12.59 v -20.89 l 2.31,-16.52 v -2.66 c 0,0 22.79,-9.8 26.09,-13.1 3.3,-3.3 6.28,-5.61 9.25,-10.9 2.97,-5.29 0.99,-8.9 3.96,-17.5 2.97,-8.6 6.94,-13.42 3.3,-21.58 -3.64,-8.16 -6.94,-9.48 -10.9,-16.41 -3.96,-6.93 -11.56,-21.14 -14.2,-25.76 -2.64,-4.62 -4.62,-13.85 -7.27,-15.84 -2.65,-1.99 -3.3,-0.67 -8.26,-6.28 -4.96,-5.61 -7.6,-12.88 -17.17,-16.02 -9.57,-3.14 -31.18,-13.2 -31.18,-13.2 0,0 -0.53,17.86 -2.51,20.07 -1.98,2.21 -4.62,3.17 -13.87,2.2 -9.25,-0.97 -14.53,-1.03 -21.47,4.78 -6.94,5.81 -13.57,10.6 -13.57,10.6 z"
       id="path19" />
    <path
       class="cls-13"
       d="m 365.7,797.12 c 1.73,-0.44 6.48,-20.84 3.89,-19.01 -2.59,1.83 -7.78,9.13 -9.51,9.45 -1.73,0.32 1.73,-13.72 2.16,-15.07 0.43,-1.35 -5.62,3.49 -5.62,3.49 0,0 0.43,-5.72 0,-7.93 -0.43,-2.21 -2.16,-17.68 -3.03,-6.42 -0.87,11.26 -2.16,20.39 -4.32,21.77 -2.16,1.38 -4.75,4.02 -4.32,-7.87 0.43,-11.89 3.03,-12.5 2.59,-22.32 -0.43,-9.83 -0.86,-13.92 -0.86,-13.92 h -10.37 c 0,0 0.86,34.81 2.59,43.23 1.73,8.42 8.97,8.86 14.43,11.5 5.46,2.64 14.53,3.08 14.53,3.08 h -2.16 z"
       id="path20" />
    <path
       class="cls-36"
       d="m 379.1,708.61 c 1.3,-3.52 6.92,-11.56 5.19,-16.13 -1.73,-4.57 -2.43,-8.97 -2.43,-8.97 0,0 0.6,-4.31 0,-5.9 -0.6,-1.59 0,-8.92 0,-8.92 0,0 -4.49,-14.48 -2.76,-26.48 1.73,-12 5.26,-18.57 -0.4,-24.97 -5.66,-6.4 -7.82,-10.25 -10.41,-16.69 -2.59,-6.44 -8.21,7.78 -9.51,14.54 -1.3,6.76 -5.73,20.18 -5.46,27.12 0.27,6.94 -0.16,14.65 2.43,23.57 2.59,8.92 1.3,14.64 3.46,17.28 2.16,2.64 7.78,-19.41 6.92,-21.37 -0.86,-1.96 -1.3,-6.85 0,-7.93 1.3,-1.08 6.27,16.54 4.22,22.7 -2.05,6.16 -7.24,16.57 -4.65,18.63 2.59,2.06 5.19,-5.87 7.35,-7.85 2.16,-1.98 6.92,8.37 6.48,14.86 l -0.43,6.5 z"
       id="path21" />
    <path
       class="cls-36"
       d="m 348.85,623.05 c 3.46,-9.56 7.22,-20.54 4.47,-20.99 -2.75,-0.45 -4.91,11.33 -9.66,18.87 -4.75,7.54 -3.03,13.15 -5.62,13.43 -2.59,0.28 1.73,-15.58 -1.73,-15.8 -3.46,-0.22 -4.75,5.94 -3.89,11.89 0.86,5.95 3.46,28.18 3.89,35.34 0.43,7.16 3.43,20.81 6.9,21.47 3.47,0.66 3.44,-3.3 0,-14.31 -3.44,-11.01 -6.04,-27.51 -2.15,-34.67 3.89,-7.16 7.78,-15.22 7.78,-15.22 z"
       id="path22" />
    <path
       class="cls-36"
       d="m 327.24,623.7 c 0,0 -0.86,21.93 0,27.22 0.86,5.29 4.93,10.77 4.93,10.77 0,0 -1.12,-1.31 0,4.09 1.12,5.4 7.52,15.97 0,10.68 -7.52,-5.29 -16.17,0.24 -14.44,1.44 1.73,1.2 5.19,5.17 -0.43,7.81 -5.62,2.64 -9.98,10.64 -9.75,4.88 0.24,-5.77 8.02,-45.01 9.75,-49.83 1.73,-4.82 9.94,-17.06 9.94,-17.06 z"
       id="path23" />
    <path
       class="cls-36"
       d="m 354.27,702.11 c 0,0 1.5,-5.17 -5.42,0 -6.92,5.17 -15.21,10.54 -16.68,13.8 -1.47,3.26 -10.11,4.31 -4.93,5.98 5.18,1.67 4.67,-0.08 4.93,3.88 0.26,3.96 -1.9,8.79 -1.9,8.79 0,0 -6.84,8.16 -8.61,-0.53 -1.77,-8.69 6.45,-15.36 7.31,-20.17 0.86,-4.81 6.4,-22.59 3.2,-18.77 -3.2,3.82 -7.94,17.42 -10.76,20.53 -2.82,3.11 -5.41,11.2 -7.14,6.28 -1.73,-4.92 -13.03,-13.51 -6.73,-19.79 6.3,-6.28 11.13,-11.8 14.12,-9.48 2.99,2.32 -2.8,5.26 3.85,3.86 6.65,-1.4 9.92,-13.87 17.71,-9.25 7.79,4.62 5.13,5.57 6.93,9.25 1.8,3.68 4.89,1.75 1.8,3.68 -3.09,1.93 2.33,1.93 2.33,1.93 z"
       id="path24" />
    <path
       class="cls-13"
       d="m 477.66,610.79 c -6.81,-4.83 -11.24,33.89 -11.24,33.89 l -4.75,32.93 c 0,0 -16.86,8.18 -22.91,12.98 -6.05,4.8 -0.86,6.02 5.19,1.89 6.05,-4.13 15.13,-1.85 18.59,-1.89 3.46,-0.04 6.48,15.37 7.78,18.01 1.3,2.64 1.73,8.53 -1.73,13.29 -3.46,4.76 -11.24,8.5 -7.35,12.13 3.89,3.63 11.67,3.64 13.83,-8.25 2.16,-11.89 0,-23.67 0,-23.67 0,0 23.77,15.74 15.99,6.5 -7.78,-9.25 -12.54,-13.93 -12.54,-13.93 0,0 -15.99,-8.82 -10.81,-8.45 5.18,0.37 10.81,0 17.72,4.37 6.91,4.37 20.32,9.98 17.29,4.09 -3.03,-5.89 -9.94,-2.79 -12.1,-8.97 -2.16,-6.17 -3.89,-12.58 7.35,-12.24 11.24,0.34 29.39,6.7 24.64,0 -4.75,-6.7 -11.67,-15.54 -15.99,-11.78 -4.32,3.76 -19.88,13.2 -21.18,11.78 -1.3,-1.42 5.62,-20.93 6.48,-27.03 0.86,-6.1 3.03,-34.61 -1.3,-21.46 -4.33,13.15 -13.4,40.79 -13.4,40.79 0,0 -14.26,14.4 -12.97,7.7 1.3,-6.7 26.37,-53.49 13.4,-62.69 z"
       id="path25" />
    <path
       class="cls-13"
       d="m 433.13,677.61 c 0,0 14.26,-31.97 17.29,-28.01 3.03,3.96 4.75,16.08 -1.73,23.67 -6.48,7.6 -15.99,17.93 -17.29,19.37 -1.3,1.44 1.73,-15.03 1.73,-15.03 z"
       id="path26" />
    <path
       class="cls-13"
       d="m 436.06,699.67 c 0,0 4.86,8.88 3.56,15.74 -1.3,6.85 -3.46,13.46 -6.05,14.78 -2.59,1.32 -9.51,2.71 -9.08,5.98 0.43,3.27 2.16,14.61 3.89,23.91 1.73,9.3 -2.38,22.37 2.7,18.04 5.08,-4.33 1.82,-18.64 1.07,-25.14 -0.75,-6.5 -0.09,-21.69 3.9,-18.94 3.99,2.75 15.02,21.91 17.07,16.3 2.05,-5.61 -8.75,-9.36 -8.32,-16.3 0.43,-6.94 -8.64,-19.08 0,-14.55 8.64,4.53 20.32,6.48 10.81,0 -9.51,-6.48 -14.7,-7.36 -11.67,-10.88 3.03,-3.52 -9.25,-11.85 -7.88,-8.94 z"
       id="path27" />
    <path
       class="cls-13"
       d="m 420.6,778.97 c -0.94,-5.27 -19.45,-118.6 -21.18,-129.71 -1.73,-11.11 -5.62,-34.01 -5.19,-21.24 0.43,12.77 4.32,87.61 4.32,87.61 0,0 2.16,48.09 5.62,56.86 3.46,8.78 18.19,16.35 16.43,6.48 z"
       id="path28" />
    <path
       class="cls-37"
       d="m 385.16,617.01 c 0,0 5.57,-16.53 20.1,-18.95 14.53,-2.42 21.44,4.51 27.56,-3.25 0,0 3.48,-13.15 -2.24,-22.01 -5.72,-8.86 -12.55,-11.62 -12.55,-11.62 0,0 1.5,-3.9 -2.56,-5.09 0,0 -8.67,19.4 -14.4,23.31 -5.73,3.91 -17.83,7.21 -21.58,6.77 -3.75,-0.44 -13.21,-4.18 -13.21,-4.18 0,0 -3.73,0.33 -5.28,-2.59 -1.55,-2.92 -1.77,-6.6 -1.77,-6.6 0,0 -8.15,9.74 -8.81,11.33 -0.66,1.59 -2.42,3.68 3.74,4.73 6.16,1.05 12.77,0.39 14.97,4.57 2.2,4.18 16.01,24.88 16.01,24.88 V 617 Z"
       id="path29" />
    <path
       class="cls-11"
       d="m 433.87,743.38 -3.07,3.3 c 0,0 9.69,15.63 10.13,19.6 0.44,3.97 3.74,11.45 5.72,16.29 1.98,4.84 6.39,12.77 6.39,14.31 l 3.96,-1.76 c 0,0 0,-8.15 -4.18,-11.89 -4.18,-3.74 -5.28,-11.45 -7.27,-17.17 -1.99,-5.72 -11.68,-22.68 -11.68,-22.68 z"
       id="path30" />
    <path
       class="cls-11"
       d="m 389.85,615.87 c 0,0 -1.98,2.22 -1.98,13.23 0,11.01 0.88,34.57 0.99,42.05 0.11,7.48 0.55,11.89 0.99,17.83 0.44,5.94 0.88,22.44 0.88,22.44 0,0 -3.52,22.03 -2.86,28.86 0.66,6.83 -2.71,47.56 -2.71,47.56 v 17.61 h -7.42 c 0,0 1.1,-20.26 1.98,-27.74 0.88,-7.48 0.88,-26.42 1.98,-34.35 1.1,-7.93 2.53,-27.7 2.53,-27.7 0,0 0.11,-29.99 0,-36.37 -0.11,-6.38 -3.07,-53.94 -3.46,-60.99 h 4.39 l 4.69,-2.44 z"
       id="path31" />
    <path
       class="cls-7"
       d="m 230.43,795.01 c 0.66,1.32 -7.93,63.41 -8.92,65.06 -0.99,1.65 -101.14,3.3 -101.14,3.3 l -9.26,-207.08 z"
       id="path32" />
    <path
       class="cls-19"
       d="m 251.24,694.86 -7.27,12.3 c 0,0 2.31,13.87 7.27,14.53 4.96,0.66 10.57,6.94 15.85,6.28 l 5.28,-0.66 c 0,0 4.29,-1.65 7.27,-5.61 0,0 2.64,-2.31 3.96,-6.28 0,0 7.53,-1.32 5.41,-5.94 -2.12,-4.62 -1.78,-5.94 -8.72,-8.92 -6.94,-2.98 -10.39,-4.29 -13.62,-4.29 -3.23,0 -6.86,0.66 -8.51,0 -1.65,-0.66 -6.94,-1.4 -6.94,-1.4 z"
       id="path33" />
    <path
       class="cls-19"
       d="m 151.17,560.85 -2.97,10.24 c 0,0 11.89,17.5 18.83,21.8 6.94,4.3 19.16,13.54 19.16,13.54 0,0 2.64,-10.57 3.63,-13.21 0.99,-2.64 1.98,-7.93 1.98,-7.93 0,0 10.57,4.95 14.86,3.3 4.29,-1.65 6.28,-3.96 6.94,-8.09 0.66,-4.13 2.31,-5.78 2.31,-6.77 0,-0.99 -1.65,-4.62 -1.65,-4.62 0,0 3.96,-2.31 4.62,-3.3 0.66,-0.99 0,-4.95 0,-4.95 0,0 5.94,-2.31 5.28,-5.61 -0.66,-3.3 -2.97,-7.93 -3.63,-10.24 -0.66,-2.31 -2.97,-5.28 -1.65,-6.93 1.32,-1.65 2.64,0.33 3.3,-3.3 0.66,-3.63 2.03,-7.93 2.03,-7.93 0,0 -3.35,-4.62 -9.3,-2.31 -5.95,2.31 -56.15,27.74 -63.74,36.33 z"
       id="path34" />
    <path
       class="cls-31"
       d="m 173.83,568.64 c -1.65,-2.97 -0.66,-12.22 -3.96,-12.55 -3.3,-0.33 -10.57,3.14 -13.21,5.28 -2.64,2.14 -7.6,0.66 -8.42,3.63 -0.82,2.97 1.82,8.92 1.82,8.92 0,0 10.07,15.69 15.69,19.49 5.62,3.8 16.26,11.98 19.89,14.13 3.63,2.15 3.39,-11.16 3.39,-11.16 l 2.99,-9.77 -18.18,-17.97 z"
       id="path35" />
    <path
       class="cls-20"
       d="m 210.94,542.68 c -1.49,0.5 -4.79,0.99 -3.3,2.31 1.49,1.32 3.3,4.62 3.3,4.62 l -1.84,6.61 c 0,0 -4.44,5.61 -4.44,8.09 0,2.48 0.17,3.8 1.16,1.32 0.99,-2.48 2.81,-6.61 3.63,-7.76 0.82,-1.15 2.48,-4.46 3.47,-7.76 0.99,-3.3 0.99,-8.92 0.99,-8.92 z"
       id="path36" />
    <path
       class="cls-10"
       d="m 229.24,677.37 19.35,14.87 c 0,0 0.33,0.28 2.64,0 2.31,-0.28 6.94,4.02 6.94,4.02 h 3.3 c 0,0 -7.6,0.33 -9.25,5.61 -1.65,5.28 -4.14,17.38 -4.14,17.38 l -10.72,-5.49 -6.9,-23.45 z"
       id="path37" />
    <path
       class="cls-10"
       d="m 209.29,676.11 c 4.37,2.42 0,-34.13 0,-34.13 l -4.78,-18.51 c 0,0 7.56,-21.56 7.16,-23.92 -0.4,-2.36 -8.38,-10.68 -8.38,-10.68 l -11.5,-3.58 c 0,0 -0.33,2.31 -1.98,7.93 -1.65,5.62 -2.31,9.13 -1.98,11.83 0.33,2.7 0.34,-7.65 -7.59,-10.24 -7.93,-2.59 -18.17,-12.01 -22.46,-16.22 -4.29,-4.21 -9.58,-13.44 -9.58,-13.44 0,0 -8.26,4.55 -7.27,8.71 0.99,4.16 9.25,17.24 17.5,23.42 8.25,6.18 14.2,9.79 17.83,12.28 3.63,2.49 17.51,31.88 20.48,38.48 2.97,6.6 9.56,26.42 12.54,28.07 z"
       id="path38" />
    <path
       class="cls-24"
       d="m 85.75,669.84 c 0,0 -5.59,-25.76 -3.61,-41.94 1.98,-16.18 9.17,-21.91 11.03,-22.85 1.86,-0.94 10.77,-3.91 13.41,-4.73 2.64,-0.82 12.22,-7.88 18.5,-11.45 6.28,-3.57 19.19,-11.66 19.19,-11.66 0,0 10.3,10.44 15.49,17.6 5.19,7.16 16.08,11.62 19.49,17.34 3.41,5.72 23.78,44.81 25.27,47.78 1.49,2.97 2.15,-9.74 0,-19.4 -2.15,-9.66 -4.95,-19.4 -2.48,-22.21 2.47,-2.81 5.98,-14.62 7.26,-14.06 1.28,0.56 7.95,5.15 10.75,14.06 2.8,8.91 -0.07,14.3 4.17,23.66 4.24,9.36 5.56,17.62 4.9,20.59 -0.66,2.97 -2.34,8.26 2.79,19.49 5.13,11.23 8.44,20.12 7.12,29.38 -1.32,9.26 2.31,24.12 3.3,29.74 0.99,5.62 0.99,17.5 0,25.1 -0.99,7.6 -1.98,19.16 -1.98,24.77 0,5.61 -18.84,17.17 -31.06,19.49 -12.22,2.32 -28.06,2.97 -37.97,1.98 -9.91,-0.99 -22.39,9.03 -27.05,-7.05 -4.66,-16.08 -3.42,-44.07 -3.42,-44.07 0,0 -4.87,-23.53 -7.51,-39.05 -2.64,-15.52 3.17,-32.29 3.63,-46.12 0.46,-13.83 -8.74,-34 -13.38,-42.12 -4.64,-8.12 -17.7,-23.29 -19.46,-23.88 -4.85,-1.63 -16.74,17.33 -18.37,59.61 z"
       id="path39" />
    <path
       class="cls-24"
       d="m 99.31,750.09 c -0.95,2.64 -3.3,51.63 14.2,55.38 17.5,3.75 6.86,-49.43 6.86,-49.43 L 99.31,750.1 Z"
       id="path40" />
    <path
       class="cls-19"
       d="m 240.34,718.72 -2.64,1.98 c 0,0 15.75,1.36 18.25,2.82 2.5,1.46 0.42,3.22 0,4.5 -0.42,1.28 -8.52,2.26 -8.52,2.26 0,0 2.13,3.78 0,6.18 -2.13,2.4 -5.77,2.56 -5.77,2.56 0,0 1.32,3.48 -0.33,4.8 -1.65,1.32 -5.28,2.64 -5.94,3.63 -0.66,0.99 -0.99,4.95 -5.28,5.28 -4.29,0.33 -7.6,0.33 -10.9,0 -3.3,-0.33 -12.55,-3.63 -12.55,-3.63 v -27.74 c 0,0 7.6,-1.65 10.57,-3.3 2.97,-1.65 6.28,-3.04 11.56,-2.05 5.28,0.99 11.56,2.71 11.56,2.71 z"
       id="path41" />
    <path
       class="cls-10"
       d="m 104.55,609.55 c 0,0 -11.38,1.93 -15.15,27.92 -1.41,9.77 -3.68,27.74 -3.66,32.37 0.02,4.63 -7.5,40.95 -6.87,51.85 0.63,10.9 -9.61,21.8 10.86,28.4 20.47,6.6 36.99,9.58 43.93,9.91 6.94,0.33 44.26,2.97 51.52,0 7.26,-2.97 24.1,-4.62 24.1,-4.62 0,0 3.97,-22.13 1.66,-33.69 l -11.23,0.33 c 0,0 -4.95,-6.2 -8.59,-2.77 -3.64,3.43 -20.48,4.09 -24.11,3.1 -3.63,-0.99 -9.25,-2.9 -10.24,-3.1 -0.99,-0.2 -2.64,3.5 -4.29,0 -1.65,-3.5 -4.89,-2.98 -8.22,-3.57 -3.33,-0.59 -7.3,-0.92 -8.62,-2.58 -1.32,-1.66 -3.3,-0.99 -1.65,-7.93 1.65,-6.94 9.91,-9.91 3.96,-40.29 -5.95,-30.38 -33.4,-55.33 -33.4,-55.33 z"
       id="path42" />
    <path
       class="cls-27"
       d="m 104.55,609.55 c 0,0 -9.91,-7.07 -16.51,5.3 -6.6,12.37 -2.64,53.66 -2.64,53.66 0,0 3.63,-26.96 4.62,-30.49 0.99,-3.53 1.32,-24.68 14.53,-28.47 z"
       id="path43" />
    <path
       class="cls-7"
       d="m 193.06,586.61 c 0,0 -4.29,9.25 -3.63,13.21 0.66,3.96 -1.13,11.56 -0.07,12.88 1.06,1.32 8.33,19.49 8.33,19.49 0,0 -0.66,-10.9 1.98,-14.53 2.64,-3.63 8.92,-12.22 9.58,-16.18 0.66,-3.96 -7.6,-12.61 -7.6,-12.61 0,0 -5.28,-2.25 -6.94,-2.25 h -1.65 z"
       id="path44" />
    <path
       class="cls-10"
       d="m 206.28,687.01 3.01,4.62 c 0,0 -16.22,8.26 -30.09,8.26 -13.87,0 -23.78,1.98 -23.78,1.98 0,0 -2.64,-6.89 0,-5.92 2.64,0.97 14.53,-0.68 19.49,-1.51 4.96,-0.83 26.09,-2.81 31.38,-7.43 z"
       id="path45" />
    <polygon
       class="cls-24"
       points="120.38,759.84 120.38,766.28 144.26,770.13 144.26,766.28 "
       id="polygon45" />
    <polygon
       class="cls-24"
       points="116.16,783.17 116.16,790.06 148.19,796.88 151.17,790.06 "
       id="polygon46" />
    <path
       class="cls-22"
       d="m 236.82,720.92 21.8,-16.07 c 0,0 14.75,2.64 19.82,3.3 l 20.7,-11.89 c 0,0 -3.05,8.15 -10.55,12.33 -7.5,4.18 -31.5,16.95 -31.5,16.95 0,0 -0.22,-1.76 -7.49,-2.86 -7.27,-1.1 -12.77,-1.76 -12.77,-1.76 z"
       id="path46" />
    <path
       class="cls-40"
       d="m 368.98,713.74 c 0,0 11.45,-5.5 12.55,-5.5 1.1,0 16.95,-2.64 16.95,-2.64 l 5.17,5.37 c 0,0 -5.39,2.12 -9.14,2.78 -3.75,0.66 -8.37,2.64 -8.59,3.74 -0.22,1.1 0,2.42 0,2.42 l -5.94,1.76 -4.84,-3.3 c 0,0 -4.4,-4.84 -6.17,-4.62 z"
       id="path47" />
    <path
       class="cls-28"
       d="m 376.74,711.44 -7.27,2.33 c 0,0 5.28,2.31 7.27,3.3 1.99,0.99 1.98,3.63 1.98,3.63 0,0 5.61,1.32 3.96,3.63 -1.65,2.31 -0.33,4.62 -2.97,6.94 -2.64,2.32 -5.61,5.19 -5.61,5.19 0,0 -4.62,2.05 -9.91,2.56 -5.29,0.51 -9.91,-2.94 -13.87,-4.69 -3.96,-1.75 -10.57,-8.35 -10.57,-15.94 0,-7.59 -3.96,-16.84 6.61,-18.5 10.57,-1.66 17.17,1.65 18.17,1.98 1,0.33 11.89,7.24 12.22,9.56 z"
       id="path48"
       style="fill:#a48372;fill-opacity:1" />
    <path
       class="cls-28"
       d="m 399.2,707.16 2.64,4.28 c 0,0 -12.22,3.51 -14.2,4.24 -1.98,0.73 -4.95,2.78 -3.63,3.57 1.32,0.79 -2.9,2.29 -2.9,2.29 0,0 -2.06,5.2 3.89,6.47 5.95,1.27 20.48,4.41 23.45,5.15 2.97,0.74 11.56,1.41 15.52,-1.57 3.96,-2.98 9.58,-4.62 10.24,-9.25 0.66,-4.63 -0.33,-15.85 -3.3,-19.16 -2.97,-3.31 -1.98,-2.82 -7.93,-5.04 -5.95,-2.22 -13.62,-0.75 -15.39,0 -1.77,0.75 -4.09,6.36 -5.41,7.02 -1.32,0.66 -2.97,1.98 -2.97,1.98 z"
       id="path49"
       style="fill:#a48372;fill-opacity:1" />
    <path
       class="cls-11"
       d="m 380.91,620.69 c 0,0 -4.27,-13.1 -8.23,-16.44 -3.96,-3.34 -8.9,-8.34 -11.66,-11.26 -2.76,-2.92 -6.83,-4.13 -6.83,-4.13 l -3.74,-4.73 c 0,0 5.19,1.54 10.58,3.63 5.94,2.31 7.3,4.08 10.01,7.04 3.52,3.85 14.14,22.2 14.14,22.2 0,0 3.4,-20.03 16.14,-19.73 12.74,0.3 18.5,-0.11 22.46,-1.1 3.96,-0.99 5.29,-4.88 7.05,-12.05 1.76,-7.17 -4.48,-16.77 -4.48,-16.77 0,0 5.97,5.5 8.09,9.84 2.12,4.34 4.32,15.1 -2.51,20.07 -6.83,4.97 -11.31,1.99 -21.18,3.04 -9.87,1.05 -13.44,1.97 -16.2,8.76 -2.76,6.79 -6.45,14.39 -6.45,14.39 l -7.17,-2.78 z"
       id="path50" />
    <path
       class="cls-27"
       d="m 142.16,714.09 c 0,0 0.99,-17.5 2.64,-24.77 1.65,-7.27 0.66,-30.72 0,-36.99 -0.66,-6.27 -2.64,-27.41 -5.28,-29.39 -2.64,-1.98 3.55,20.15 3.09,30.72 -0.46,10.57 -0.33,31.82 -0.33,31.82 0,0 -2.76,19.7 -0.12,28.62 z"
       id="path51" />
    <path
       class="cls-27"
       d="m 231,752.74 7.6,17.39 c 0,0 1.32,19.27 0,21.58 -1.32,2.31 -19.82,12.05 -25.1,13.95 -5.28,1.9 -23.45,6.2 -27.08,6.2 H 166.6 c 0,0 -6.28,-5.28 -8.26,-13.54 -1.98,-8.26 -5.61,-33.33 -5.61,-33.33 0,0 8.26,37.78 11.23,40.67 2.97,2.89 3.96,4.55 11.23,4.55 7.27,0 23.12,-4.47 25.76,-4.55 2.64,-0.08 18.5,-4.92 24.77,-8.78 6.27,-3.86 12.22,-7.49 11.89,-10.79 -0.33,-3.3 -2.64,-9.16 -2.31,-15.96 0.33,-6.8 -4.29,-17.39 -4.29,-17.39 z"
       id="path52" />
    <path
       class="cls-27"
       d="m 218.45,665.54 v 25.43 c 0,0 5.94,22.46 7.93,23.12 1.99,0.66 7.27,2.04 2.97,0 -4.3,-2.04 -2.33,-7.27 -4.63,-13.54 -2.3,-6.28 -4.62,-16.18 -4.62,-18.17 0,-1.99 -1.65,-16.84 -1.65,-16.84 z"
       id="path53" />
    <path
       class="cls-27"
       d="m 147.11,630.2 c 0.99,2.31 5.61,57.14 5.61,57.14 0,0 -2.97,0.66 -2.81,0 0.16,-0.66 1.49,-20.81 0,-26.09 -1.49,-5.28 -2.81,-31.05 -2.81,-31.05 z"
       id="path54" />
    <path
       class="cls-27"
       d="m 151.4,634.11 c 0,0 6.28,7.09 9.58,7.87 3.3,0.78 9.58,-0.12 16.84,0 7.26,0.12 16.18,-0.47 14.53,0.32 -1.65,0.79 -5.61,3.1 -10.57,2.77 -4.96,-0.33 -13.87,2.71 -20.48,0.03 -6.61,-2.68 -9.91,-10.99 -9.91,-10.99 z"
       id="path55" />
    <path
       class="cls-27"
       d="m 204.91,617.65 9.91,7.1 c 0,0 -2.97,0.83 0,1.82 2.97,0.99 7.6,3.63 7.6,3.63 0,0 -0.33,3.63 -3.96,0 -3.63,-3.63 -4.95,-5.28 -6.94,-5.45 -1.99,-0.17 -4.62,-2.07 -4.29,-1.94 0.11,0.04 0.9,1.69 1.98,4.04 2.2,4.77 5.61,12.39 6.94,15.13 1.98,4.08 7.27,12.34 6.28,14.32 -0.99,1.98 0.66,7.6 -1.65,3.96 -2.31,-3.64 -0.99,-3.66 -5.28,-14.05 -4.29,-10.39 -10.57,-28.56 -10.57,-28.56 z"
       id="path56" />
    <path
       class="cls-39"
       d="m 405.15,538.63 c -0.08,0.25 -0.74,2.31 -0.74,3.06 0,0.75 -0.17,0.5 0,1.49 0.17,0.99 0.6,1.16 -0.07,1.9 -0.67,0.74 -2.24,3.3 -1.58,3.3 0.66,0 2.15,-1.8 2.89,-2.51 0.74,-0.71 2.23,0.03 2.89,-1.53 0.66,-1.56 0.99,-3.55 0,-3.96 -0.99,-0.41 -3.39,-1.73 -3.39,-1.73 z"
       id="path57" />
    <path
       class="cls-39"
       d="m 408.37,533.43 c 2.23,-0.74 5.37,0.25 5.53,2.72 0.16,2.47 0.74,3.14 -0.5,5.37 -1.24,2.23 -1.45,2.39 -2.13,4.05 -0.68,1.66 -2.4,4.13 -2.12,2.81 0.28,-1.32 1.39,-2.97 2.12,-4.21 0.73,-1.24 1.39,-1.98 1.39,-3.8 0,-1.82 -0.91,-5.12 -0.91,-5.12 l -3.39,-1.82 z"
       id="path58" />
    <path
       class="cls-18"
       d="m 392.44,525.59 c 0,0 0.58,3.89 -0.74,7.6 -1.32,3.71 -2.15,8.99 -2.15,8.99 0,0 4.71,2.72 7.93,1.98 3.22,-0.74 5.13,-7.76 5.13,-7.76 0,0 4.71,-4.95 6.56,-5.04 1.85,-0.09 3.65,-0.66 5.02,2.64 1.37,3.3 0.96,6.36 0.55,7.35 -0.41,0.99 -3.93,6.94 -3.45,7.39 0.48,0.45 0.48,5.41 2.46,6.48 1.98,1.07 2.14,1.53 2.14,1.53 l 2.15,2.06 2.77,-4.39 c 0.5,-0.8 0.46,-1.78 0.01,-2.61 -0.31,-0.58 -0.38,-1.52 0.36,-3.07 1.65,-3.43 1.64,-4.42 1.64,-4.42 0,0 -2.3,-1.16 -0.65,-3.8 1.65,-2.64 4.54,-4.21 1.82,-6.03 -2.72,-1.82 -4.21,-3.3 -4.21,-3.3 0,0 -11.39,-6.69 -15.52,-6.77 -4.13,-0.08 -11.81,1.16 -11.81,1.16 z"
       id="path59" />
    <path
       class="cls-35"
       d="m 355.04,540.12 c 0,0 -0.25,3.8 -0.74,4.62 -0.49,0.82 -1.49,3.72 -1.57,4.38 -0.08,0.66 -1.73,4.54 -1.57,5.94 0.16,1.4 1.57,3.8 3.06,3.96 1.49,0.16 2.89,0.08 3.88,-0.91 0.99,-0.99 4.54,-1.57 6.03,-2.89 1.49,-1.32 1.32,-3.06 1.32,-3.06 0,0 -2.56,-1.98 -3.8,-0.58 -1.24,1.4 -2.06,2.64 -2.15,2.31 -0.09,-0.33 2.31,-3.55 2.31,-3.55 l -3.96,-4.49 c 0,0 -1.9,-6.41 -2.81,-5.75 z"
       id="path60"
       style="fill:#b89986;fill-opacity:1" />
    <path
       class="cls-17"
       d="m 360.65,535.83 c 1.43,1.2 3.96,2.97 5.37,2.81 1.41,-0.16 6.28,-0.91 6.28,-0.91 0,0 4.88,0.66 4.3,0 -0.58,-0.66 -2.81,-2.31 -4.79,-2.31 -1.98,0 -4.45,0.58 -6.35,0.5 -1.9,-0.08 -5.35,-0.55 -4.79,-0.08 z"
       id="path61" />
    <path
       class="cls-40"
       d="m 366.26,540.07 c 0,0 2.72,-0.78 4.21,-0.61 1.49,0.17 5.37,1.16 5.37,1.16 0,0 -2.39,0 -4.79,0.66 -2.4,0.66 -2.56,1.08 -3.72,0.99 -1.16,-0.09 -1.07,-2.19 -1.07,-2.19 z"
       id="path62" />
    <path
       class="cls-38"
       d="m 384.02,541.27 c -1.17,-0.05 -2.34,-0.1 -3.51,-0.18 -0.58,-0.04 -1.17,-0.02 -1.76,-0.05 l -1.76,-0.05 c -0.07,0 -0.13,-0.06 -0.13,-0.14 0,-0.06 0.05,-0.11 0.1,-0.13 0.71,-0.21 1.43,-0.45 2.08,-0.79 0.67,-0.35 1.35,-0.68 2.06,-0.95 0.71,-0.25 1.47,-0.47 2.24,-0.41 0.38,0.01 0.75,0.05 1.13,0.08 0.37,0.01 0.76,0.1 1.12,-0.01 -0.35,0.14 -0.75,0.08 -1.12,0.09 h -1.13 c -0.75,-0.04 -1.46,0.2 -2.15,0.48 -0.69,0.27 -1.37,0.61 -2.02,0.96 -0.68,0.37 -1.4,0.61 -2.13,0.82 l -0.03,-0.27 c 1.17,0.06 2.34,0.08 3.51,0.17 1.17,0.11 2.34,0.24 3.5,0.38 z"
       id="path63" />
    <path
       class="cls-38"
       d="m 377.99,544.41 c -0.79,-0.42 -1.58,-0.83 -2.38,-1.19 -0.2,-0.08 -0.41,-0.17 -0.61,-0.22 -0.1,-0.03 -0.21,-0.05 -0.26,-0.04 -0.08,0.02 -0.17,0.08 -0.27,0.13 -0.37,0.23 -0.79,0.47 -1.23,0.59 -0.9,0.25 -1.84,0.14 -2.7,-0.04 -0.86,-0.19 -1.78,-0.34 -2.54,-0.82 0.39,0.21 0.83,0.3 1.27,0.38 0.43,0.09 0.87,0.16 1.31,0.22 0.87,0.14 1.76,0.23 2.59,-0.02 0.42,-0.11 0.79,-0.31 1.18,-0.54 0.1,-0.06 0.2,-0.12 0.33,-0.15 0.17,-0.03 0.28,0.01 0.39,0.04 0.23,0.06 0.43,0.17 0.63,0.26 0.81,0.4 1.56,0.88 2.29,1.39 z"
       id="path64" />
    <path
       class="cls-38"
       d="m 381.29,543.51 -2.03,-0.84 c -0.67,-0.27 -1.36,-0.58 -2.04,-0.73 -0.28,-0.08 -0.66,0.09 -1,0.18 -0.35,0.1 -0.7,0.23 -1.05,0.32 -0.71,0.2 -1.43,0.37 -2.17,0.4 0.72,-0.14 1.41,-0.38 2.1,-0.61 l 1.04,-0.36 c 0.36,-0.09 0.68,-0.29 1.13,-0.21 0.75,0.19 1.41,0.5 2.07,0.81 0.66,0.32 1.31,0.67 1.95,1.04 z"
       id="path65" />
    <path
       class="cls-39"
       d="m 365.44,550.28 c -0.47,0.35 1.56,3.14 2.55,4.13 0.99,0.99 3.47,4.38 3.88,5.7 0.41,1.32 0.74,3.18 0.74,3.18 v -2.6 c 0,0 -1.16,-2.52 -2.15,-3.9 -0.99,-1.38 -4.37,-7 -5.03,-6.5 z"
       id="path66" />
    <path
       class="cls-6"
       d="m 352.72,532.55 v 6.39 l -0.54,4.29 c 0,0 -1.76,3.52 -5.28,2.42 -3.52,-1.1 -11.89,-7.49 -12.77,-9.69 -0.88,-2.2 -5.94,-4.18 -2.64,-7.27 3.3,-3.09 12.55,-5.94 15.63,-9.03 3.08,-3.09 17.61,-17.17 24,-19.6 6.39,-2.43 28.62,-1.98 32.81,0 4.19,1.98 14.97,7.49 17.61,13.21 2.64,5.72 0.44,16.95 0,18.5 -0.44,1.55 -10.79,-4.54 -10.79,-4.54 h -16.73 c 0,0 -6.61,3.44 -12.11,3.66 -5.5,0.22 -12.55,-3.52 -13.43,-2.64 -0.88,0.88 -2.86,3.3 -8.59,3.3 -5.73,0 -7.16,0.99 -7.16,0.99 z"
       id="path67" />
    <path
       class="cls-40"
       d="m 359.49,563.28 c 0,0 -0.09,2.11 0.66,2.52 0.75,0.41 0.08,1.4 1.24,0.99 1.16,-0.41 6.93,-2.67 6.61,-3.03 -0.32,-0.36 -2.07,-1.16 -3.23,-1.13 -1.16,0.03 -5.28,0.65 -5.28,0.65 z"
       id="path68" />
    <path
       class="cls-33"
       d="m 357.68,561.84 c 0,0.41 1.92,2.89 1.92,2.89 0,0 -0.26,-1.57 1.3,-1.44 1.56,0.13 4.79,-0.21 6.03,0 1.24,0.21 1.89,0.21 1.69,0 -0.2,-0.21 -2.84,-0.7 -5.07,-1.03 -2.23,-0.33 -5.86,-0.41 -5.86,-0.41 z"
       id="path69" />
    <path
       class="cls-5"
       d="m 358.84,565.73 c -0.26,0.15 -2.4,2.06 -1.65,2.8 0.75,0.74 0.17,1.98 2.31,0.83 2.14,-1.15 4.79,-3.14 4.79,-3.14 0,0 4.73,-2.55 4.33,-2.93 -0.4,-0.38 -3.91,1.3 -5.75,2.27 -2.88,1.53 -2.07,1.09 -2.39,0.6 -0.37,-0.58 -0.76,-0.94 -1.64,-0.43 z"
       id="path70" />
    <path
       class="cls-42"
       d="m 353.32,532.36 -0.6,5.23 c 0,0 0.11,2.12 0.6,3.28 0.49,1.16 -1.67,2.81 -1.67,2.81 0,0 -2.15,2.81 -4.79,2.31 -2.64,-0.5 -8.67,-6.05 -10.73,-7.6 -3.97,-2.97 -6.94,-8.75 -4.46,-8.59 2.48,0.16 10.24,1.82 14.7,1.49 4.46,-0.33 13.87,-1.49 16.84,-2.64 2.97,-1.15 4.62,-1.32 5.94,-3.47 1.32,-2.15 2.15,-7.6 3.96,-8.42 1.81,-0.82 3.63,-2.48 6.11,0 2.48,2.48 5.45,3.96 5.45,3.96 0,0 -0.83,-2.64 -2.97,-4.13 -2.14,-1.49 -4.13,-1.65 -4.62,-2.64 -0.49,-0.99 -0.83,-9.41 2.97,-7.93 3.8,1.48 15.85,10.73 15.85,11.39 0,0.66 -1.98,2.31 0,2.64 1.98,0.33 5.12,1.32 4.95,-3.14 -0.17,-4.46 -2.64,-4.13 -1.98,-6.28 0.66,-2.15 -3.3,-3.96 -3.3,-3.96 0,0 1.98,-0.83 2.81,-1.82 0.83,-0.99 1.33,-3.14 2.48,-2.81 1.15,0.33 -2.68,-3.42 -0.45,-2.84 2.52,0.65 11.66,2.02 19.59,11.1 7.93,9.08 5.63,21.8 2.49,21.8 -3.14,0 -7.99,-2.37 -9.64,-2.86 -1.65,-0.49 -7.93,-2.37 -9.25,-1.54 -1.32,0.83 -8.36,-1.58 -11.83,0.57 -3.47,2.15 -9.14,3.67 -12.61,2.85 -3.47,-0.82 -5.91,-2.96 -9.21,-1.97 -3.3,0.99 0.53,1.97 -8.39,2.63 -8.92,0.66 -8.24,0.57 -8.24,0.57 z"
       id="path71" />
    <path
       class="cls-16"
       d="m 180.83,548.63 c 0,0 2.81,7.6 0,11.89 -2.81,4.29 -7.76,6.94 -7.27,8.59 0.49,1.65 10.24,12.06 14.2,15.03 3.96,2.97 6.11,4.29 10.9,4.95 4.79,0.66 10.07,0.5 11.56,-0.99 1.49,-1.49 2.31,-3.47 2.81,-5.61 0.5,-2.14 3.47,-7.1 2.81,-7.6 -0.66,-0.5 -3.63,-0.99 -4.13,1.32 -0.5,2.31 2.64,4.46 -2.64,4.62 -5.28,0.16 -9.58,-1.16 -10.24,-3.8 -0.66,-2.64 5.78,-6.38 1.32,-11.28 -4.46,-4.9 -6.94,-5.89 -9.58,-10.19 -2.64,-4.3 -4.62,-11.39 -4.62,-11.39 z"
       id="path72" />
    <path
       class="cls-29"
       d="m 219.15,558.7 c -1.17,0 -2.78,0.33 -3.21,0 -0.2,-0.15 -0.98,-0.2 -1.8,-0.33 -0.93,-0.14 -1.9,-0.38 -2.14,-1 -0.45,-1.16 -0.95,-4.13 0.71,-4.46 1.66,-0.33 0.33,0 0.17,1.65 -0.16,1.65 -0.83,2.31 1.16,2.81 1.99,0.5 3.8,-0.99 5.12,0.17 1.32,1.16 1.2,1.16 0,1.16 z"
       id="path73" />
    <path
       class="cls-16"
       d="m 219.09,536.41 2.53,-2.86 c 0,0 1.28,1.24 0.77,2.2 -0.75,1.43 -2.3,1.43 -2.3,1.43 z"
       id="path74" />
    <path
       class="cls-16"
       d="m 218.54,534.31 c -0.73,1.64 0.08,2.75 -2.6,2.2 -2.68,-0.55 -5.43,-1.43 -6.76,-1.04 -1.33,0.39 -1.11,0.04 -3.85,0.49 -2.74,0.45 -4.07,1.88 -3.63,0.67 0.44,-1.21 6.34,-3.92 6.34,-3.92 0,0 4.89,-0.29 6.54,0 1.65,0.29 4.77,-0.2 3.96,1.61 z"
       id="path75" />
    <path
       class="cls-25"
       d="m 215.83,568.94 c 0,0 -4.91,0.33 -6.04,0 -1.13,-0.33 -3.05,0.15 -1.98,-1.05 1.07,-1.2 4.71,-2.29 6.88,-2.13 2.17,0.16 4.21,0 3.63,1.06 -0.58,1.06 -2.49,2.13 -2.49,2.13 z"
       id="path76" />
    <path
       class="cls-32"
       d="m 215.94,572.57 c 0.5,-0.13 0.34,-3.65 -0.49,-3.61 -0.83,0.04 -8.51,-2.16 -8.27,-0.39 0.24,1.77 5.97,4.74 8.76,4 z"
       id="path77" />
    <path
       class="cls-17"
       d="m 146.54,563.27 c 0.45,0.76 0,2.86 4.4,2.42 4.4,-0.44 13.65,-4.18 18.28,-7.71 4.63,-3.53 30.39,-19.38 35.67,-23.12 5.28,-3.74 12.77,-8.37 14.53,-8.15 1.76,0.22 2.86,4.4 2.86,4.4 0,0 1.76,0 2.42,-6.17 0.66,-6.17 -5.5,-16.29 -5.5,-16.29 l -2.64,-1.1 c 0,0 -11.23,-14.75 -22.68,-16.51 -11.45,-1.76 -19.6,-3.3 -24.22,-1.54 -4.62,1.76 -8.37,1.54 -10.79,2.64 -2.42,1.1 -8.15,4.84 -9.69,8.37 -1.54,3.53 -6.83,13.87 -6.83,13.87 0,0 0.66,2.2 0,7.49 -0.66,5.29 3.08,24.88 3.08,24.88 0,0 -1.76,11.67 1.1,16.51 z"
       id="path78" />
    <path
       class="cls-16"
       d="m 216.83,559.52 c -1.98,0.33 -4.46,1.16 -6.94,1.82 -2.48,0.66 -3.8,0.99 -4.29,2.81 -0.49,1.82 -3.96,5.12 -2.15,5.61 1.81,0.49 6.43,-2.95 6.43,-2.95 0,0 3.51,-1.28 6.05,-1.06 2.54,0.22 3.7,2.07 4.36,1.06 0.66,-1.01 1.32,-5.47 0,-6.13 -1.32,-0.66 -3.47,-1.16 -3.47,-1.16 z"
       id="path79" />
    <path
       class="cls-40"
       d="m 212.48,538.72 c 0,0 -0.01,0.99 -0.57,1.6 l -5.39,-0.4 c 0,0 3.1,-0.67 3.88,-0.98 0.78,-0.31 2.07,-0.22 2.07,-0.22 z"
       id="path80" />
    <path
       class="cls-4"
       d="m 211.88,538.72 c 0,0 -0.3,1.57 -0.63,1.6 -0.33,0.03 -1.96,-0.33 -1.96,-0.33 0,0 0.38,-0.73 0.86,-0.96 0.48,-0.23 1.74,-0.31 1.74,-0.31 z"
       id="path81" />
    <path
       class="cls-17"
       d="m 214.25,538.28 c 0,0 -0.88,-0.11 -1.54,-0.55 l -7.38,2.42 c 0,0 5.19,-1.32 6.67,-1.21 1.48,0.11 2.25,-0.66 2.25,-0.66 z"
       id="path82" />
    <path
       class="cls-17"
       d="m 212,541.36 c 0,0 0.29,-1.21 -0.44,-1.21 -0.73,0 -4.98,-0.41 -4.98,-0.41 l -1.26,0.41 c 0,0 4.12,-0.41 5.39,0.4 1.27,0.81 1.76,0.81 1.76,0.81 h -0.49 z"
       id="path83" />
    <path
       class="cls-8"
       d="m 149.39,565.91 c 0,0 5.83,-1.32 6.5,-5.72 0.67,-4.4 -4.62,-6.06 -5.72,-8.7 -1.1,-2.64 2.97,-6.5 4.18,-7.38 1.21,-0.88 3.74,-3.74 0.44,-2.92 -3.3,0.82 -7.82,3.91 -7.05,1.05 0.77,-2.86 1.04,-4.4 -0.09,-7.49 -1.13,-3.09 -3.33,-2.53 -1.45,-6.39 1.88,-3.86 1.3,-3.08 -0.73,-7.38 -2.03,-4.3 -2.91,-6.06 0.95,-7.93 3.86,-1.87 11.56,-5.94 11.78,-9.03 0.22,-3.09 -5.83,-9.69 1.87,-8.59 7.7,1.1 11.12,3.63 15.74,1.1 4.62,-2.53 10.02,-7.05 7.82,-7.27 -2.2,-0.22 -8.04,-1.98 -12.55,0 -4.51,1.98 -8.04,2.31 -10.13,2.53 -2.09,0.22 -5.93,-1.87 -9.68,5.06 -3.75,6.93 -11.23,14.75 -10.35,20.26 0.88,5.51 3.3,11.89 4.18,19.05 0.88,7.16 -1.32,4.62 0.22,11.34 1.54,6.72 0.22,18.5 4.07,18.39 z"
       id="path84" />
    <path
       class="cls-8"
       d="m 156.88,539.6 c 0.77,-0.22 28.4,-17.17 35.34,-21.25 6.94,-4.08 19.49,-8.92 19.49,-8.92 0,0 5.83,-0.77 5.39,-1.1 -0.44,-0.33 -7.93,0.11 -12.33,2.42 -4.4,2.31 -20.63,10.9 -20.63,10.9 0,0 -16.36,9.47 -20.43,12.11 -4.07,2.64 -12.44,7.43 -12.44,7.43 l 5.61,-1.6 z"
       id="path85" />
    <path
       class="cls-8"
       d="m 93.25,647.16 c 1.32,-0.44 2.64,-1.76 4.4,0 1.76,1.76 -7.05,19.82 -6.61,23.34 0.44,3.52 3.55,-11.9 6.84,-12.11 3.29,-0.21 -2.91,21.8 -6.85,32.37 -3.94,10.57 -2.19,23.34 -2.19,23.34 0,0 -3.52,8.37 -3.52,14.09 0,5.72 3.52,16.73 3.52,16.73 0,0 -11.89,-6.61 -7.93,-30.83 3.96,-24.22 12.33,-66.94 12.33,-66.94 z"
       id="path86" />
    <path
       class="cls-9"
       d="m 367.66,539.74 c 0,0 -0.61,1.84 0.66,2.45 l 2.73,-0.91 -0.58,-1.81 -2.81,0.28 z"
       id="path87" />
    <path
       class="cls-12"
       d="m 366.25,540.06 c 0.8,-0.23 1.58,-0.41 2.39,-0.55 0.8,-0.13 1.64,-0.2 2.45,-0.03 1.61,0.27 3.19,0.65 4.78,1.03 0.06,0.01 0.09,0.07 0.08,0.13 -0.01,0.05 -0.06,0.08 -0.11,0.08 -1.88,0.06 -3.77,0.35 -5.56,0.93 -0.45,0.15 -0.9,0.29 -1.34,0.45 -0.44,0.16 -0.94,0.3 -1.43,0.27 -0.23,0 -0.53,-0.06 -0.71,-0.24 -0.19,-0.17 -0.31,-0.4 -0.39,-0.63 -0.15,-0.47 -0.18,-0.94 -0.15,-1.43 z m 0.02,0.02 c 0.02,0.45 0.08,0.94 0.26,1.37 0.16,0.44 0.51,0.78 0.98,0.73 0.47,0.02 0.9,-0.12 1.34,-0.31 0.44,-0.17 0.89,-0.36 1.34,-0.49 1.82,-0.6 3.74,-0.85 5.65,-0.87 l -0.03,0.21 c -1.57,-0.41 -3.15,-0.81 -4.75,-1.11 -0.8,-0.18 -1.61,-0.13 -2.41,-0.02 -0.8,0.11 -1.61,0.29 -2.38,0.48 z"
       id="path88" />
  </g>
</svg>
