<?xml version="1.0" encoding="UTF-8"?><svg id="Layer_1" xmlns="http://www.w3.org/2000/svg" xmlns:xlink="http://www.w3.org/1999/xlink" viewBox="0 0 595.28 841.89"><defs><style>.cls-1{clip-path:url(#clippath);}.cls-2{fill:none;}.cls-2,.cls-3,.cls-4,.cls-5,.cls-6,.cls-7,.cls-8,.cls-9,.cls-10,.cls-11,.cls-12,.cls-13,.cls-14,.cls-15,.cls-16,.cls-17,.cls-18,.cls-19,.cls-20,.cls-21,.cls-22,.cls-23,.cls-24,.cls-25,.cls-26,.cls-27,.cls-28,.cls-29,.cls-30,.cls-31,.cls-32,.cls-33,.cls-34,.cls-35,.cls-36,.cls-37,.cls-38,.cls-39,.cls-40,.cls-41,.cls-42{stroke-width:0px;}.cls-3{fill:#503517;}.cls-4{fill:#572413;}.cls-5{fill:#705748;}.cls-6{fill:#9b7d5f;}.cls-7{fill:#1b3660;}.cls-8{fill:#3f3e40;}.cls-9{fill:#3e2d22;}.cls-10{fill:#1d1b0c;}.cls-11{fill:#0f1100;}.cls-12{fill:#413c3d;}.cls-13{fill:#058b71;}.cls-14{fill:#059579;}.cls-15{fill:#070000;}.cls-16{fill:#0c0000;}.cls-17{fill:#231f1f;}.cls-18{fill:#a8aaac;}.cls-19{fill:#c59b96;}.cls-20{fill:#cda19c;}.cls-21{fill:#ac8771;}.cls-22{fill:#d5effb;}.cls-23{fill:#dcddde;}.cls-24{fill:#d52b2f;}.cls-25{fill:#aa8783;}.cls-26{fill:#bbbcbe;}.cls-27{fill:#a61e20;}.cls-28{fill:#b18b74;}.cls-29{fill:#b28d89;}.cls-30{fill:#a98570;}.cls-31{fill:#b7918c;}.cls-32{fill:#8c6f6c;}.cls-33{fill:#90715e;}.cls-34{fill:#302e2f;}.cls-35{fill:#bb937b;}.cls-36{fill:#31a383;}.cls-37{fill:#303425;}.cls-38{fill:#a26655;}.cls-39{fill:#a17e6a;}.cls-40{fill:#fff;}.cls-41{fill:#e7eff3;}.cls-42{fill:#69553f;}</style><clipPath id="clippath"><rect class="cls-2" x="5.09" y="303.67" width="599.75" height="555.3"/></clipPath></defs><g class="cls-1"><circle class="cls-34" cx="257.16" cy="634.11" r="17.97"/><circle class="cls-17" cx="257.16" cy="634.11" r="7.96"/><path class="cls-15" d="m71.14,621.93c-1.24.16-13.67-2.88-17.17,0s-6.88,9.97-6.61,19.1c.13,4.17.79,9.38,8.71,12.35s18.08-.09,20.01-.5-4.94-30.96-4.94-30.96Z"/><path class="cls-41" d="m150.84,535.74s-30.39,0-37.32,4.95-27.74,23.78-32.7,29.39-18.17,20.81-18.17,20.81c0,0-30.05,9.25-35.34,16.84s-2.64,16.84-1.98,22.13,10.24,13.54,17.17,11.89l5.61.21s-2.64-21.02,9.58-21.68,21.8,1.87,23.78,13.82l.99,5.01,154.9-5.01s-.06-14.81,19.79-15.47,19.85,12.55,19.85,12.55c0,0,32.04-1.98,39.63-2.31s17.17-1.32,18.5-3.96,1.98-23.33,0-38.42-5.61-46.79-11.89-48.44-172.4-2.31-172.4-2.31Z"/><path class="cls-34" d="m60.9,620.72l10.24,1.12s7.43,4.46,8.75,14.53-3.81,16.51-3.81,16.51l-9.97,1.71s6.48-10.19,5.36-16.99c-1.65-9.99-10.57-16.89-10.57-16.89Z"/><path class="cls-26" d="m65.96,596.52c-.13,1.75,15.52.17,21.63-1.65s28.07-7.27,29.56-9.91,4.29-21.63,2.81-23.94-13.71-.33-16.84,0-9.74,1.32-16.68,9.58-20.15,21.63-20.48,25.93Z"/><path class="cls-23" d="m44.16,604.77c-3.07-1.95-13.05,2.15-13.71,2.97s-2.31,6.94-.99,7.1,8.7-1.72,11.23-3.47,5.28-5.45,3.47-6.61Z"/><path class="cls-26" d="m149.68,557.87c-2.15.33-16.68-.17-17.5,1.32s-.5,7.43,0,16.02,2.97,15.19,2.97,15.19h79.1l91.98-3.9s1.82.77,2.15-2.37-2.64-21.37-4.46-24.22-1.16-4.77-10.07-4.72-144.16,2.69-144.16,2.69Z"/><path class="cls-24" d="m93.17,561.18s12.75-4.62,22.5-4.62,134.26-3.63,142.35-3.3,66.22-.02,66.22-.02c0,0,2.64-2.13,0-1.96s-105.03-.68-109.49,0-82.07,2.49-85.71,2.49-25.76,1.65-32.2,3.96l-3.67,3.47Z"/><polygon class="cls-24" points="275.52 543.34 275.52 549.78 323.24 549.78 321.92 543.34 275.52 543.34"/><polygon class="cls-17" points="328.19 610.55 204.51 615.51 216.82 623.46 329.52 617.49 328.19 610.55"/><polygon class="cls-24" points="295.33 608.24 293.85 606.42 303.59 600.31 309.86 608.24 307.89 609.78 302.89 603.46 295.33 608.24"/><polygon class="cls-24" points="297.48 598 295.99 596.18 305.74 590.07 312.01 598 310.03 599.54 305.04 593.22 297.48 598"/><polygon class="cls-24" points="299.12 587.32 297.64 585.51 307.38 579.4 313.66 587.32 311.68 588.86 306.68 582.54 299.12 587.32"/><polygon class="cls-24" points="300.86 577.05 299.38 575.24 309.12 569.12 315.4 577.05 313.42 578.59 308.42 572.27 300.86 577.05"/><polygon class="cls-24" points="301.88 565.82 300.39 564.01 310.14 557.9 316.41 565.82 314.43 567.36 309.44 561.04 301.88 565.82"/><path class="cls-24" d="m327.7,587.76v27.74s6.77.83,6.94,0,0-27.74-.66-27.74h-6.28Z"/><path class="cls-3" d="m336.38,778.83l7.01,76.95,144.66-4.29s-2.97-61.43-11.89-73.98-139.78,1.32-139.78,1.32Z"/><path class="cls-28" d="m399.37,523.87s-2.48,3.62,2.31,4.45,13.71,0,14.86,2.81,1.49,11.72,1.49,11.72l-3.63,18.83s-2.79,6.11-6.02,11.23-6.7,6.61-10.5,8.92-9.91,3.8-9.91,3.8c0,0-15.52,1.16-19.16.83s-7.47-5.04-7.47-5.04c0,0-2.48-6.15-2.11-8.61.15-.99-2.15-7.82-2.15-9.14s-2.15-4.79-2.15-4.79c0,0-4.29-.17-1.98-7.76s.99-8.59.99-8.59c0,0-1.7.17-1.67-2.64s0-7.43,0-7.43v-4.46l47.09-4.12Z"/><path class="cls-21" d="m352.62,538.55c.83.5,4.62,2.97,4.62,2.97,0,0,3.47,3.8,7.43,5.61s5.78,3.8,10.73,2.81,9.41-5.56,9.41-5.56c0,0,5.45-7.65,7.6-8.64s4.79-7.6,4.79-7.6c0,0,.66-4.79-5.12-2.64s-16.18,2.81-16.18,2.81l-12.16-1.33s-10.63,4.14-11.12,4.97,0,6.61,0,6.61Z"/><path class="cls-30" d="m392.42,543.67c-.33.66-5.12,9.08-6.61,10.9s-7.27,5.28-7.93,5.12-5.78-3.3-7.6-2.97-6.77.99-7.43,1.65-1.16,1.32.83,2.31,4.46,1.32,4.46,1.32c0,0,5.61.33,3.14,2.48s-2.97,3.3-5.12,3.96-4.62,1.98-5.28,1.98-2.15,1.16-1.82,2.31.83,8.26,2.64,9.08,2.15,2.48,7.43,2.97,11.51,3.23,17.19.83c4.72-2,8.58.37,10.39-5.41s1.32-8.3,2.97-14.58c1.65-6.28,0-13.05,0-13.05,0,0-.66-10.57-1.16-10.4s-6.11,1.49-6.11,1.49Z"/><path class="cls-14" d="m382.99,614.86s-11.86-16.47-14.84-20.05-9.91-4.73-9.91-4.73c0,0-30.05,17.67-36.99,29.89s-20.86,50.76-20.86,50.76c0,0,1.54,2.08,1.46,8.69s-8.02,12.71-4.22,18.74,2.65,8.54,6.36,17.52,2.05,9.64,9.65,15.92,17.7,9.98,22.72,7.47c0,0-1.13,10.37-1.69,18.29s1.69,21.47,1.69,21.47l8.33,15.52s28.52,13.87,36.06,12.88,11.83-3.96,12.82-4.29,29.39,4.95,44.59,1.98,13.87-5.94,19.82-7.93,18.17-10.53,18.17-10.53l2.31-12.59v-20.89l2.31-16.52v-2.66s22.79-9.8,26.09-13.1,6.28-5.61,9.25-10.9.99-8.9,3.96-17.5,6.94-13.42,3.3-21.58-6.94-9.48-10.9-16.41-11.56-21.14-14.2-25.76-4.62-13.85-7.27-15.84-3.3-.67-8.26-6.28-7.6-12.88-17.17-16.02-31.18-13.2-31.18-13.2c0,0-.53,17.86-2.51,20.07s-4.62,3.17-13.87,2.2-14.53-1.03-21.47,4.78-13.57,10.6-13.57,10.6Z"/><path class="cls-13" d="m365.7,797.12c1.73-.44,6.48-20.84,3.89-19.01s-7.78,9.13-9.51,9.45,1.73-13.72,2.16-15.07-5.62,3.49-5.62,3.49c0,0,.43-5.72,0-7.93s-2.16-17.68-3.03-6.42-2.16,20.39-4.32,21.77-4.75,4.02-4.32-7.87c.43-11.89,3.03-12.5,2.59-22.32-.43-9.83-.86-13.92-.86-13.92h-10.37s.86,34.81,2.59,43.23c1.73,8.42,8.97,8.86,14.43,11.5s14.53,3.08,14.53,3.08h-2.16Z"/><path class="cls-36" d="m379.1,708.61c1.3-3.52,6.92-11.56,5.19-16.13s-2.43-8.97-2.43-8.97c0,0,.6-4.31,0-5.9s0-8.92,0-8.92c0,0-4.49-14.48-2.76-26.48s5.26-18.57-.4-24.97-7.82-10.25-10.41-16.69-8.21,7.78-9.51,14.54c-1.3,6.76-5.73,20.18-5.46,27.12.27,6.94-.16,14.65,2.43,23.57s1.3,14.64,3.46,17.28,7.78-19.41,6.92-21.37-1.3-6.85,0-7.93,6.27,16.54,4.22,22.7-7.24,16.57-4.65,18.63,5.19-5.87,7.35-7.85,6.92,8.37,6.48,14.86l-.43,6.5Z"/><path class="cls-36" d="m348.85,623.05c3.46-9.56,7.22-20.54,4.47-20.99s-4.91,11.33-9.66,18.87c-4.75,7.54-3.03,13.15-5.62,13.43s1.73-15.58-1.73-15.8-4.75,5.94-3.89,11.89,3.46,28.18,3.89,35.34,3.43,20.81,6.9,21.47,3.44-3.3,0-14.31c-3.44-11.01-6.04-27.51-2.15-34.67,3.89-7.16,7.78-15.22,7.78-15.22Z"/><path class="cls-36" d="m327.24,623.7s-.86,21.93,0,27.22,4.93,10.77,4.93,10.77c0,0-1.12-1.31,0,4.09s7.52,15.97,0,10.68-16.17.24-14.44,1.44,5.19,5.17-.43,7.81-9.98,10.64-9.75,4.88c.24-5.77,8.02-45.01,9.75-49.83s9.94-17.06,9.94-17.06Z"/><path class="cls-36" d="m354.27,702.11s1.5-5.17-5.42,0-15.21,10.54-16.68,13.8-10.11,4.31-4.93,5.98,4.67-.08,4.93,3.88-1.9,8.79-1.9,8.79c0,0-6.84,8.16-8.61-.53-1.77-8.69,6.45-15.36,7.31-20.17s6.4-22.59,3.2-18.77-7.94,17.42-10.76,20.53-5.41,11.2-7.14,6.28-13.03-13.51-6.73-19.79c6.3-6.28,11.13-11.8,14.12-9.48s-2.8,5.26,3.85,3.86,9.92-13.87,17.71-9.25,5.13,5.57,6.93,9.25,4.89,1.75,1.8,3.68,2.33,1.93,2.33,1.93Z"/><path class="cls-13" d="m477.66,610.79c-6.81-4.83-11.24,33.89-11.24,33.89l-4.75,32.93s-16.86,8.18-22.91,12.98-.86,6.02,5.19,1.89,15.13-1.85,18.59-1.89,6.48,15.37,7.78,18.01,1.73,8.53-1.73,13.29-11.24,8.5-7.35,12.13,11.67,3.64,13.83-8.25c2.16-11.89,0-23.67,0-23.67,0,0,23.77,15.74,15.99,6.5-7.78-9.25-12.54-13.93-12.54-13.93,0,0-15.99-8.82-10.81-8.45s10.81,0,17.72,4.37,20.32,9.98,17.29,4.09-9.94-2.79-12.1-8.97c-2.16-6.17-3.89-12.58,7.35-12.24s29.39,6.7,24.64,0c-4.75-6.7-11.67-15.54-15.99-11.78-4.32,3.76-19.88,13.2-21.18,11.78s5.62-20.93,6.48-27.03,3.03-34.61-1.3-21.46-13.4,40.79-13.4,40.79c0,0-14.26,14.4-12.97,7.7,1.3-6.7,26.37-53.49,13.4-62.69Z"/><path class="cls-13" d="m433.13,677.61s14.26-31.97,17.29-28.01c3.03,3.96,4.75,16.08-1.73,23.67-6.48,7.6-15.99,17.93-17.29,19.37s1.73-15.03,1.73-15.03Z"/><path class="cls-13" d="m436.06,699.67s4.86,8.88,3.56,15.74c-1.3,6.85-3.46,13.46-6.05,14.78s-9.51,2.71-9.08,5.98,2.16,14.61,3.89,23.91c1.73,9.3-2.38,22.37,2.7,18.04s1.82-18.64,1.07-25.14c-.75-6.5-.09-21.69,3.9-18.94s15.02,21.91,17.07,16.3c2.05-5.61-8.75-9.36-8.32-16.3s-8.64-19.08,0-14.55,20.32,6.48,10.81,0c-9.51-6.48-14.7-7.36-11.67-10.88s-9.25-11.85-7.88-8.94Z"/><path class="cls-13" d="m420.6,778.97c-.94-5.27-19.45-118.6-21.18-129.71s-5.62-34.01-5.19-21.24,4.32,87.61,4.32,87.61c0,0,2.16,48.09,5.62,56.86,3.46,8.78,18.19,16.35,16.43,6.48Z"/><path class="cls-37" d="m385.16,617.01s5.57-16.53,20.1-18.95,21.44,4.51,27.56-3.25c0,0,3.48-13.15-2.24-22.01s-12.55-11.62-12.55-11.62c0,0,1.5-3.9-2.56-5.09,0,0-8.67,19.4-14.4,23.31s-17.83,7.21-21.58,6.77-13.21-4.18-13.21-4.18c0,0-3.73.33-5.28-2.59s-1.77-6.6-1.77-6.6c0,0-8.15,9.74-8.81,11.33s-2.42,3.68,3.74,4.73,12.77.39,14.97,4.57,16.01,24.88,16.01,24.88v-1.31Z"/><path class="cls-11" d="m433.87,743.38l-3.07,3.3s9.69,15.63,10.13,19.6,3.74,11.45,5.72,16.29,6.39,12.77,6.39,14.31l3.96-1.76s0-8.15-4.18-11.89-5.28-11.45-7.27-17.17-11.68-22.68-11.68-22.68Z"/><path class="cls-11" d="m389.85,615.87s-1.98,2.22-1.98,13.23.88,34.57.99,42.05.55,11.89.99,17.83.88,22.44.88,22.44c0,0-3.52,22.03-2.86,28.86s-2.71,47.56-2.71,47.56v17.61h-7.42s1.1-20.26,1.98-27.74.88-26.42,1.98-34.35,2.53-27.7,2.53-27.7c0,0,.11-29.99,0-36.37s-3.07-53.94-3.46-60.99h4.39l4.69-2.44Z"/><path class="cls-7" d="m230.43,795.01c.66,1.32-7.93,63.41-8.92,65.06s-101.14,3.3-101.14,3.3l-9.26-207.08,119.32,138.72Z"/><path class="cls-19" d="m251.24,694.86l-7.27,12.3s2.31,13.87,7.27,14.53,10.57,6.94,15.85,6.28l5.28-.66s4.29-1.65,7.27-5.61c0,0,2.64-2.31,3.96-6.28,0,0,7.53-1.32,5.41-5.94s-1.78-5.94-8.72-8.92-10.39-4.29-13.62-4.29-6.86.66-8.51,0-6.94-1.4-6.94-1.4Z"/><path class="cls-19" d="m151.17,560.85l-2.97,10.24s11.89,17.5,18.83,21.8,19.16,13.54,19.16,13.54c0,0,2.64-10.57,3.63-13.21s1.98-7.93,1.98-7.93c0,0,10.57,4.95,14.86,3.3s6.28-3.96,6.94-8.09,2.31-5.78,2.31-6.77-1.65-4.62-1.65-4.62c0,0,3.96-2.31,4.62-3.3s0-4.95,0-4.95c0,0,5.94-2.31,5.28-5.61s-2.97-7.93-3.63-10.24-2.97-5.28-1.65-6.93,2.64.33,3.3-3.3,2.03-7.93,2.03-7.93c0,0-3.35-4.62-9.3-2.31s-56.15,27.74-63.74,36.33Z"/><path class="cls-31" d="m173.83,568.64c-1.65-2.97-.66-12.22-3.96-12.55s-10.57,3.14-13.21,5.28-7.6.66-8.42,3.63,1.82,8.92,1.82,8.92c0,0,10.07,15.69,15.69,19.49s16.26,11.98,19.89,14.13,3.39-11.16,3.39-11.16l2.99-9.77-18.18-17.97Z"/><path class="cls-20" d="m210.94,542.68c-1.49.5-4.79.99-3.3,2.31s3.3,4.62,3.3,4.62l-1.84,6.61s-4.44,5.61-4.44,8.09.17,3.8,1.16,1.32,2.81-6.61,3.63-7.76,2.48-4.46,3.47-7.76.99-8.92.99-8.92l-2.97,1.49Z"/><path class="cls-10" d="m229.24,677.37l19.35,14.87s.33.28,2.64,0,6.94,4.02,6.94,4.02h3.3s-7.6.33-9.25,5.61-4.14,17.38-4.14,17.38l-10.72-5.49-6.9-23.45-1.22-12.94Z"/><path class="cls-10" d="m209.29,676.11c4.37,2.42,0-34.13,0-34.13l-4.78-18.51s7.56-21.56,7.16-23.92-8.38-10.68-8.38-10.68l-11.5-3.58s-.33,2.31-1.98,7.93-2.31,9.13-1.98,11.83.34-7.65-7.59-10.24-18.17-12.01-22.46-16.22-9.58-13.44-9.58-13.44c0,0-8.26,4.55-7.27,8.71s9.25,17.24,17.5,23.42,14.2,9.79,17.83,12.28,17.51,31.88,20.48,38.48,9.56,26.42,12.54,28.07Z"/><path class="cls-24" d="m85.75,669.84s-5.59-25.76-3.61-41.94,9.17-21.91,11.03-22.85,10.77-3.91,13.41-4.73,12.22-7.88,18.5-11.45,19.19-11.66,19.19-11.66c0,0,10.3,10.44,15.49,17.6s16.08,11.62,19.49,17.34,23.78,44.81,25.27,47.78,2.15-9.74,0-19.4-4.95-19.4-2.48-22.21,5.98-14.62,7.26-14.06,7.95,5.15,10.75,14.06-.07,14.3,4.17,23.66,5.56,17.62,4.9,20.59-2.34,8.26,2.79,19.49c5.13,11.23,8.44,20.12,7.12,29.38s2.31,24.12,3.3,29.74.99,17.5,0,25.1-1.98,19.16-1.98,24.77-18.84,17.17-31.06,19.49-28.06,2.97-37.97,1.98-22.39,9.03-27.05-7.05-3.42-44.07-3.42-44.07c0,0-4.87-23.53-7.51-39.05s3.17-32.29,3.63-46.12-8.74-34-13.38-42.12c-4.64-8.12-17.7-23.29-19.46-23.88-4.85-1.63-16.74,17.33-18.37,59.61Z"/><path class="cls-24" d="m99.31,750.09c-.95,2.64-3.3,51.63,14.2,55.38s6.86-49.43,6.86-49.43l-21.06-5.94Z"/><path class="cls-19" d="m240.34,718.72l-2.64,1.98s15.75,1.36,18.25,2.82.42,3.22,0,4.5-8.52,2.26-8.52,2.26c0,0,2.13,3.78,0,6.18s-5.77,2.56-5.77,2.56c0,0,1.32,3.48-.33,4.8s-5.28,2.64-5.94,3.63-.99,4.95-5.28,5.28-7.6.33-10.9,0-12.55-3.63-12.55-3.63v-27.74s7.6-1.65,10.57-3.3,6.28-3.04,11.56-2.05,11.56,2.71,11.56,2.71Z"/><path class="cls-10" d="m104.55,609.55s-11.38,1.93-15.15,27.92c-1.41,9.77-3.68,27.74-3.66,32.37s-7.5,40.95-6.87,51.85-9.61,21.8,10.86,28.4,36.99,9.58,43.93,9.91,44.26,2.97,51.52,0,24.1-4.62,24.1-4.62c0,0,3.97-22.13,1.66-33.69l-11.23.33s-4.95-6.2-8.59-2.77-20.48,4.09-24.11,3.1-9.25-2.9-10.24-3.1-2.64,3.5-4.29,0-4.89-2.98-8.22-3.57-7.3-.92-8.62-2.58-3.3-.99-1.65-7.93,9.91-9.91,3.96-40.29-33.4-55.33-33.4-55.33Z"/><path class="cls-27" d="m104.55,609.55s-9.91-7.07-16.51,5.3-2.64,53.66-2.64,53.66c0,0,3.63-26.96,4.62-30.49s1.32-24.68,14.53-28.47Z"/><path class="cls-7" d="m193.06,586.61s-4.29,9.25-3.63,13.21-1.13,11.56-.07,12.88,8.33,19.49,8.33,19.49c0,0-.66-10.9,1.98-14.53s8.92-12.22,9.58-16.18-7.6-12.61-7.6-12.61c0,0-5.28-2.25-6.94-2.25h-1.65Z"/><path class="cls-10" d="m206.28,687.01l3.01,4.62s-16.22,8.26-30.09,8.26-23.78,1.98-23.78,1.98c0,0-2.64-6.89,0-5.92s14.53-.68,19.49-1.51,26.09-2.81,31.38-7.43Z"/><polygon class="cls-24" points="120.38 766.28 144.26 770.13 144.26 766.28 120.38 759.84 120.38 766.28"/><polygon class="cls-24" points="116.16 790.06 148.19 796.88 151.17 790.06 116.16 783.17 116.16 790.06"/><path class="cls-22" d="m236.82,720.92l21.8-16.07s14.75,2.64,19.82,3.3l20.7-11.89s-3.05,8.15-10.55,12.33-31.5,16.95-31.5,16.95c0,0-.22-1.76-7.49-2.86s-12.77-1.76-12.77-1.76Z"/><path class="cls-40" d="m368.98,713.74s11.45-5.5,12.55-5.5,16.95-2.64,16.95-2.64l5.17,5.37s-5.39,2.12-9.14,2.78-8.37,2.64-8.59,3.74,0,2.42,0,2.42l-5.94,1.76-4.84-3.3s-4.4-4.84-6.17-4.62Z"/><path class="cls-28" d="m376.74,711.44l-7.27,2.33s5.28,2.31,7.27,3.3,1.98,3.63,1.98,3.63c0,0,5.61,1.32,3.96,3.63s-.33,4.62-2.97,6.94-5.61,5.19-5.61,5.19c0,0-4.62,2.05-9.91,2.56s-9.91-2.94-13.87-4.69-10.57-8.35-10.57-15.94-3.96-16.84,6.61-18.5,17.17,1.65,18.17,1.98,11.89,7.24,12.22,9.56Z"/><path class="cls-28" d="m399.2,707.16l2.64,4.28s-12.22,3.51-14.2,4.24-4.95,2.78-3.63,3.57-2.9,2.29-2.9,2.29c0,0-2.06,5.2,3.89,6.47s20.48,4.41,23.45,5.15,11.56,1.41,15.52-1.57,9.58-4.62,10.24-9.25-.33-15.85-3.3-19.16-1.98-2.82-7.93-5.04-13.62-.75-15.39,0-4.09,6.36-5.41,7.02-2.97,1.98-2.97,1.98Z"/><path class="cls-11" d="m380.91,620.69s-4.27-13.1-8.23-16.44-8.9-8.34-11.66-11.26-6.83-4.13-6.83-4.13l-3.74-4.73s5.19,1.54,10.58,3.63c5.94,2.31,7.3,4.08,10.01,7.04,3.52,3.85,14.14,22.2,14.14,22.2,0,0,3.4-20.03,16.14-19.73s18.5-.11,22.46-1.1,5.29-4.88,7.05-12.05-4.48-16.77-4.48-16.77c0,0,5.97,5.5,8.09,9.84s4.32,15.1-2.51,20.07-11.31,1.99-21.18,3.04-13.44,1.97-16.2,8.76-6.45,14.39-6.45,14.39l-7.17-2.78Z"/><path class="cls-27" d="m142.16,714.09s.99-17.5,2.64-24.77.66-30.72,0-36.99-2.64-27.41-5.28-29.39,3.55,20.15,3.09,30.72-.33,31.82-.33,31.82c0,0-2.76,19.7-.12,28.62Z"/><path class="cls-27" d="m231,752.74l7.6,17.39s1.32,19.27,0,21.58-19.82,12.05-25.1,13.95-23.45,6.2-27.08,6.2h-19.82s-6.28-5.28-8.26-13.54-5.61-33.33-5.61-33.33c0,0,8.26,37.78,11.23,40.67s3.96,4.55,11.23,4.55,23.12-4.47,25.76-4.55,18.5-4.92,24.77-8.78,12.22-7.49,11.89-10.79-2.64-9.16-2.31-15.96-4.29-17.39-4.29-17.39Z"/><path class="cls-27" d="m218.45,665.54v25.43s5.94,22.46,7.93,23.12,7.27,2.04,2.97,0-2.33-7.27-4.63-13.54c-2.3-6.28-4.62-16.18-4.62-18.17s-1.65-16.84-1.65-16.84Z"/><path class="cls-27" d="m147.11,630.2c.99,2.31,5.61,57.14,5.61,57.14,0,0-2.97.66-2.81,0s1.49-20.81,0-26.09-2.81-31.05-2.81-31.05Z"/><path class="cls-27" d="m151.4,634.11s6.28,7.09,9.58,7.87,9.58-.12,16.84,0,16.18-.47,14.53.32-5.61,3.1-10.57,2.77-13.87,2.71-20.48.03-9.91-10.99-9.91-10.99Z"/><path class="cls-27" d="m204.91,617.65l9.91,7.1s-2.97.83,0,1.82,7.6,3.63,7.6,3.63c0,0-.33,3.63-3.96,0s-4.95-5.28-6.94-5.45-4.62-2.07-4.29-1.94c.11.04.9,1.69,1.98,4.04,2.2,4.77,5.61,12.39,6.94,15.13,1.98,4.08,7.27,12.34,6.28,14.32s.66,7.6-1.65,3.96-.99-3.66-5.28-14.05-10.57-28.56-10.57-28.56Z"/><path class="cls-39" d="m405.15,538.63c-.08.25-.74,2.31-.74,3.06s-.17.5,0,1.49.6,1.16-.07,1.9-2.24,3.3-1.58,3.3,2.15-1.8,2.89-2.51,2.23.03,2.89-1.53.99-3.55,0-3.96-3.39-1.73-3.39-1.73Z"/><path class="cls-39" d="m408.37,533.43c2.23-.74,5.37.25,5.53,2.72s.74,3.14-.5,5.37-1.45,2.39-2.13,4.05-2.4,4.13-2.12,2.81,1.39-2.97,2.12-4.21,1.39-1.98,1.39-3.8-.91-5.12-.91-5.12l-3.39-1.82Z"/><path class="cls-18" d="m392.44,525.59s.58,3.89-.74,7.6-2.15,8.99-2.15,8.99c0,0,4.71,2.72,7.93,1.98s5.13-7.76,5.13-7.76c0,0,4.71-4.95,6.56-5.04s3.65-.66,5.02,2.64.96,6.36.55,7.35-3.93,6.94-3.45,7.39.48,5.41,2.46,6.48,2.14,1.53,2.14,1.53l2.15,2.06,2.77-4.39c.5-.8.46-1.78.01-2.61-.31-.58-.38-1.52.36-3.07,1.65-3.43,1.64-4.42,1.64-4.42,0,0-2.3-1.16-.65-3.8s4.54-4.21,1.82-6.03-4.21-3.3-4.21-3.3c0,0-11.39-6.69-15.52-6.77s-11.81,1.16-11.81,1.16Z"/><path class="cls-35" d="m355.04,540.12s-.25,3.8-.74,4.62-1.49,3.72-1.57,4.38-1.73,4.54-1.57,5.94,1.57,3.8,3.06,3.96,2.89.08,3.88-.91,4.54-1.57,6.03-2.89,1.32-3.06,1.32-3.06c0,0-2.56-1.98-3.8-.58s-2.06,2.64-2.15,2.31,2.31-3.55,2.31-3.55l-3.96-4.49s-1.9-6.41-2.81-5.75Z"/><path class="cls-17" d="m360.65,535.83c1.43,1.2,3.96,2.97,5.37,2.81s6.28-.91,6.28-.91c0,0,4.88.66,4.3,0s-2.81-2.31-4.79-2.31-4.45.58-6.35.5-5.35-.55-4.79-.08Z"/><path class="cls-40" d="m366.26,540.07s2.72-.78,4.21-.61,5.37,1.16,5.37,1.16c0,0-2.39,0-4.79.66s-2.56,1.08-3.72.99-1.07-2.19-1.07-2.19Z"/><path class="cls-38" d="m384.02,541.27c-1.17-.05-2.34-.1-3.51-.18-.58-.04-1.17-.02-1.76-.05l-1.76-.05c-.07,0-.13-.06-.13-.14,0-.06.05-.11.1-.13.71-.21,1.43-.45,2.08-.79.67-.35,1.35-.68,2.06-.95.71-.25,1.47-.47,2.24-.41.38.01.75.05,1.13.08.37.01.76.1,1.12-.01-.35.14-.75.08-1.12.09h-1.13c-.75-.04-1.46.2-2.15.48-.69.27-1.37.61-2.02.96-.68.37-1.4.61-2.13.82l-.03-.27c1.17.06,2.34.08,3.51.17,1.17.11,2.34.24,3.5.38Z"/><path class="cls-38" d="m377.99,544.41c-.79-.42-1.58-.83-2.38-1.19-.2-.08-.41-.17-.61-.22-.1-.03-.21-.05-.26-.04-.08.02-.17.08-.27.13-.37.23-.79.47-1.23.59-.9.25-1.84.14-2.7-.04-.86-.19-1.78-.34-2.54-.82.39.21.83.3,1.27.38.43.09.87.16,1.31.22.87.14,1.76.23,2.59-.02.42-.11.79-.31,1.18-.54.1-.06.2-.12.33-.15.17-.03.28.01.39.04.23.06.43.17.63.26.81.4,1.56.88,2.29,1.39Z"/><path class="cls-38" d="m381.29,543.51l-2.03-.84c-.67-.27-1.36-.58-2.04-.73-.28-.08-.66.09-1,.18-.35.1-.7.23-1.05.32-.71.2-1.43.37-2.17.4.72-.14,1.41-.38,2.1-.61l1.04-.36c.36-.09.68-.29,1.13-.21.75.19,1.41.5,2.07.81.66.32,1.31.67,1.95,1.04Z"/><path class="cls-39" d="m365.44,550.28c-.47.35,1.56,3.14,2.55,4.13s3.47,4.38,3.88,5.7.74,3.18.74,3.18v-2.6s-1.16-2.52-2.15-3.9-4.37-7-5.03-6.5Z"/><path class="cls-6" d="m352.72,532.55v6.39l-.54,4.29s-1.76,3.52-5.28,2.42-11.89-7.49-12.77-9.69-5.94-4.18-2.64-7.27,12.55-5.94,15.63-9.03,17.61-17.17,24-19.6,28.62-1.98,32.81,0,14.97,7.49,17.61,13.21.44,16.95,0,18.5-10.79-4.54-10.79-4.54h-16.73s-6.61,3.44-12.11,3.66-12.55-3.52-13.43-2.64-2.86,3.3-8.59,3.3-7.16.99-7.16.99Z"/><path class="cls-40" d="m359.49,563.28s-.09,2.11.66,2.52.08,1.4,1.24.99,6.93-2.67,6.61-3.03-2.07-1.16-3.23-1.13-5.28.65-5.28.65Z"/><path class="cls-33" d="m357.68,561.84c0,.41,1.92,2.89,1.92,2.89,0,0-.26-1.57,1.3-1.44s4.79-.21,6.03,0,1.89.21,1.69,0-2.84-.7-5.07-1.03-5.86-.41-5.86-.41Z"/><path class="cls-5" d="m358.84,565.73c-.26.15-2.4,2.06-1.65,2.8s.17,1.98,2.31.83,4.79-3.14,4.79-3.14c0,0,4.73-2.55,4.33-2.93s-3.91,1.3-5.75,2.27c-2.88,1.53-2.07,1.09-2.39.6-.37-.58-.76-.94-1.64-.43Z"/><path class="cls-42" d="m353.32,532.36l-.6,5.23s.11,2.12.6,3.28-1.67,2.81-1.67,2.81c0,0-2.15,2.81-4.79,2.31s-8.67-6.05-10.73-7.6c-3.97-2.97-6.94-8.75-4.46-8.59s10.24,1.82,14.7,1.49,13.87-1.49,16.84-2.64,4.62-1.32,5.94-3.47,2.15-7.6,3.96-8.42,3.63-2.48,6.11,0,5.45,3.96,5.45,3.96c0,0-.83-2.64-2.97-4.13s-4.13-1.65-4.62-2.64-.83-9.41,2.97-7.93,15.85,10.73,15.85,11.39-1.98,2.31,0,2.64,5.12,1.32,4.95-3.14-2.64-4.13-1.98-6.28-3.3-3.96-3.3-3.96c0,0,1.98-.83,2.81-1.82s1.33-3.14,2.48-2.81-2.68-3.42-.45-2.84c2.52.65,11.66,2.02,19.59,11.1,7.93,9.08,5.63,21.8,2.49,21.8s-7.99-2.37-9.64-2.86-7.93-2.37-9.25-1.54-8.36-1.58-11.83.57-9.14,3.67-12.61,2.85-5.91-2.96-9.21-1.97.53,1.97-8.39,2.63-8.24.57-8.24.57Z"/><path class="cls-16" d="m180.83,548.63s2.81,7.6,0,11.89-7.76,6.94-7.27,8.59,10.24,12.06,14.2,15.03,6.11,4.29,10.9,4.95,10.07.5,11.56-.99,2.31-3.47,2.81-5.61,3.47-7.1,2.81-7.6-3.63-.99-4.13,1.32,2.64,4.46-2.64,4.62-9.58-1.16-10.24-3.8,5.78-6.38,1.32-11.28-6.94-5.89-9.58-10.19-4.62-11.39-4.62-11.39l-5.12,4.46Z"/><path class="cls-29" d="m219.15,558.7c-1.17,0-2.78.33-3.21,0-.2-.15-.98-.2-1.8-.33-.93-.14-1.9-.38-2.14-1-.45-1.16-.95-4.13.71-4.46s.33,0,.17,1.65-.83,2.31,1.16,2.81,3.8-.99,5.12.17,1.2,1.16,0,1.16Z"/><path class="cls-16" d="m219.09,536.41l2.53-2.86s1.28,1.24.77,2.2c-.75,1.43-2.3,1.43-2.3,1.43l-1-.77Z"/><path class="cls-16" d="m218.54,534.31c-.73,1.64.08,2.75-2.6,2.2s-5.43-1.43-6.76-1.04-1.11.04-3.85.49-4.07,1.88-3.63.67,6.34-3.92,6.34-3.92c0,0,4.89-.29,6.54,0s4.77-.2,3.96,1.61Z"/><path class="cls-25" d="m215.83,568.94s-4.91.33-6.04,0-3.05.15-1.98-1.05,4.71-2.29,6.88-2.13,4.21,0,3.63,1.06-2.49,2.13-2.49,2.13Z"/><path class="cls-32" d="m215.94,572.57c.5-.13.34-3.65-.49-3.61s-8.51-2.16-8.27-.39,5.97,4.74,8.76,4Z"/><path class="cls-17" d="m146.54,563.27c.45.76,0,2.86,4.4,2.42s13.65-4.18,18.28-7.71,30.39-19.38,35.67-23.12,12.77-8.37,14.53-8.15,2.86,4.4,2.86,4.4c0,0,1.76,0,2.42-6.17s-5.5-16.29-5.5-16.29l-2.64-1.1s-11.23-14.75-22.68-16.51-19.6-3.3-24.22-1.54-8.37,1.54-10.79,2.64-8.15,4.84-9.69,8.37-6.83,13.87-6.83,13.87c0,0,.66,2.2,0,7.49s3.08,24.88,3.08,24.88c0,0-1.76,11.67,1.1,16.51Z"/><path class="cls-16" d="m216.83,559.52c-1.98.33-4.46,1.16-6.94,1.82s-3.8.99-4.29,2.81-3.96,5.12-2.15,5.61,6.43-2.95,6.43-2.95c0,0,3.51-1.28,6.05-1.06s3.7,2.07,4.36,1.06,1.32-5.47,0-6.13-3.47-1.16-3.47-1.16Z"/><path class="cls-40" d="m212.48,538.72s-.01.99-.57,1.6l-5.39-.4s3.1-.67,3.88-.98,2.07-.22,2.07-.22Z"/><path class="cls-4" d="m211.88,538.72s-.3,1.57-.63,1.6-1.96-.33-1.96-.33c0,0,.38-.73.86-.96s1.74-.31,1.74-.31Z"/><path class="cls-17" d="m214.25,538.28s-.88-.11-1.54-.55l-7.38,2.42s5.19-1.32,6.67-1.21,2.25-.66,2.25-.66Z"/><path class="cls-17" d="m212,541.36s.29-1.21-.44-1.21-4.98-.41-4.98-.41l-1.26.41s4.12-.41,5.39.4,1.76.81,1.76.81h-.49Z"/><path class="cls-8" d="m149.39,565.91s5.83-1.32,6.5-5.72-4.62-6.06-5.72-8.7,2.97-6.5,4.18-7.38,3.74-3.74.44-2.92-7.82,3.91-7.05,1.05,1.04-4.4-.09-7.49-3.33-2.53-1.45-6.39,1.3-3.08-.73-7.38-2.91-6.06.95-7.93,11.56-5.94,11.78-9.03-5.83-9.69,1.87-8.59,11.12,3.63,15.74,1.1,10.02-7.05,7.82-7.27-8.04-1.98-12.55,0-8.04,2.31-10.13,2.53-5.93-1.87-9.68,5.06-11.23,14.75-10.35,20.26,3.3,11.89,4.18,19.05-1.32,4.62.22,11.34.22,18.5,4.07,18.39Z"/><path class="cls-8" d="m156.88,539.6c.77-.22,28.4-17.17,35.34-21.25s19.49-8.92,19.49-8.92c0,0,5.83-.77,5.39-1.1s-7.93.11-12.33,2.42-20.63,10.9-20.63,10.9c0,0-16.36,9.47-20.43,12.11s-12.44,7.43-12.44,7.43l5.61-1.6Z"/><path class="cls-8" d="m93.25,647.16c1.32-.44,2.64-1.76,4.4,0s-7.05,19.82-6.61,23.34,3.55-11.9,6.84-12.11-2.91,21.8-6.85,32.37-2.19,23.34-2.19,23.34c0,0-3.52,8.37-3.52,14.09s3.52,16.73,3.52,16.73c0,0-11.89-6.61-7.93-30.83s12.33-66.94,12.33-66.94Z"/><path class="cls-9" d="m367.66,539.74s-.61,1.84.66,2.45l2.73-.91-.58-1.81-2.81.28Z"/><path class="cls-12" d="m366.25,540.06c.8-.23,1.58-.41,2.39-.55.8-.13,1.64-.2,2.45-.03,1.61.27,3.19.65,4.78,1.03.06.01.09.07.08.13-.01.05-.06.08-.11.08-1.88.06-3.77.35-5.56.93-.45.15-.9.29-1.34.45-.44.16-.94.3-1.43.27-.23,0-.53-.06-.71-.24-.19-.17-.31-.4-.39-.63-.15-.47-.18-.94-.15-1.43Zm.02.02c.02.45.08.94.26,1.37.16.44.51.78.98.73.47.02.9-.12,1.34-.31.44-.17.89-.36,1.34-.49,1.82-.6,3.74-.85,5.65-.87l-.03.21c-1.57-.41-3.15-.81-4.75-1.11-.8-.18-1.61-.13-2.41-.02-.8.11-1.61.29-2.38.48Z"/></g></svg>