<?xml version="1.0" encoding="UTF-8" standalone="no"?>
<svg
   viewBox="0 0 595.28 594.99999"
   version="1.1"
   id="svg71"
   sodipodi:docname="Argentina-04.svg"
   width="595.28003"
   height="595"
   xmlns:inkscape="http://www.inkscape.org/namespaces/inkscape"
   xmlns:sodipodi="http://sodipodi.sourceforge.net/DTD/sodipodi-0.dtd"
   xmlns="http://www.w3.org/2000/svg"
   xmlns:svg="http://www.w3.org/2000/svg">
  <sodipodi:namedview
     id="namedview71"
     pagecolor="#ffffff"
     bordercolor="#000000"
     borderopacity="0.25"
     inkscape:showpageshadow="2"
     inkscape:pageopacity="0.0"
     inkscape:pagecheckerboard="0"
     inkscape:deskcolor="#d1d1d1" />
  <defs
     id="defs2">
    <style
       id="style1">.cls-1{fill:#7c7db3;}.cls-1,.cls-2,.cls-3,.cls-4,.cls-5,.cls-6,.cls-7,.cls-8,.cls-9,.cls-10,.cls-11,.cls-12,.cls-13,.cls-14,.cls-15,.cls-16,.cls-17,.cls-18,.cls-19,.cls-20,.cls-21{stroke-width:0px;}.cls-1,.cls-3{mix-blend-mode:multiply;}.cls-22{clip-path:url(#clippath);}.cls-2{fill:none;}.cls-3{fill:#4b73a3;opacity:.51;}.cls-23{clip-path:url(#clippath-1);}.cls-24{clip-path:url(#clippath-2);}.cls-25{isolation:isolate;}.cls-4{fill:#60432c;}.cls-5{fill:#7a553b;}.cls-6{fill:#71483f;}.cls-7{fill:#653f37;}.cls-8{fill:#6e4d35;}.cls-9{fill:#311c03;}.cls-10{fill:#58362e;}.cls-11{fill:#845d41;}.cls-12{fill:#361e14;}.cls-13{fill:#07385b;}.cls-14{fill:#160600;}.cls-15{fill:#216193;}.cls-16{fill:#8486be;}.cls-17{fill:#875f43;}.cls-18{fill:#805a3f;}.cls-19{fill:#7f593e;}.cls-20{fill:#fff;}.cls-21{fill:#fcd965;}</style>
    <clipPath
       id="clippath">
      <rect
         class="cls-2"
         x="101.07"
         y="303.67001"
         width="417.04001"
         height="555.29999"
         id="rect1" />
    </clipPath>
    <clipPath
       id="clippath-1">
      <path
         class="cls-2"
         d="m 347.68,557.62 c 0,0 -3.47,1.24 -6.61,1.96 -3.14,0.72 -8.92,0.27 -9.66,-0.01 -0.74,-0.28 -2.06,1.2 -2.44,0.95 -0.38,-0.25 0.62,-1.9 0.62,-1.9 0,0 0.91,-5.55 11.15,-4.39 0,0 4.13,0 8.59,3.73"
         id="path1" />
    </clipPath>
    <clipPath
       id="clippath-2">
      <path
         class="cls-2"
         d="m 286.16,560.54 c 0.83,0.14 2.97,2.12 8.5,2.12 5.53,0 7.1,-1.57 8.26,-1.57 1.16,0 3.96,0.47 2.97,-0.55 -0.99,-1.02 -4.21,-5.39 -11.97,-4.32 -7.76,1.07 -9.41,5.86 -9.41,5.86"
         id="path2" />
    </clipPath>
  </defs>
  <g
     class="cls-25"
     id="g71"
     transform="matrix(1.5488282,0,0,1.5488282,-168.94685,-656.7078)">
    <g
       id="Layer_1">
      <g
         class="cls-22"
         clip-path="url(#clippath)"
         id="g70"
         transform="translate(-10.493548,3.4978493)">
        <path
           class="cls-4"
           d="m 269.57,609.01 c 0,0 15.03,36.05 47.89,36.88 0,0 17.64,5.99 37.96,-26.57 l 11.43,31.69 c 0,0 -39.16,17.67 -44.94,15.52 -5.78,-2.15 -33.52,-12.06 -33.52,-12.06 l -24.7,-14.04 5.87,-31.43 z"
           id="path3"
           style="fill:#7f593e;fill-opacity:1" />
        <path
           class="cls-19"
           d="m 352.47,623.82 c 0,0 10.35,-12.77 14.09,-16.29 3.74,-3.52 9.03,-14.09 9.25,-16.07 0.22,-1.98 -1.1,-16.51 0,-20.04 1.1,-3.52 5.06,-12.11 4.62,-20.04 -0.44,-7.93 3.52,-6.83 -3.08,-18.5 -6.61,-11.67 -57.37,-24.44 -65.35,-24.66 -7.18,-0.2 -35.94,9.69 -35.94,9.69 l -16.51,22.02 c 0,0 -8.59,3.74 -12.99,8.59 -4.4,4.84 -6.61,10.57 -3.96,15.41 2.65,4.84 2.86,1.76 4.62,8.37 1.76,6.61 0.66,7.71 3.3,13.87 2.64,6.16 8.81,13.87 8.81,13.87 l 12.33,13.69 c 0,0 12.28,31.5 46.62,33.15 0,0 17.17,4.4 34.18,-23.06"
           id="path4"
           style="fill:#906547;fill-opacity:1" />
        <path
           class="cls-18"
           d="m 337.63,560.3 c -2.02,0.16 -5.94,0.22 -7.27,0.88 -1.33,0.66 -3.63,2.64 0.77,3.3 4.4,0.66 3.63,1.76 8.59,0.77 4.96,-0.99 8.37,-2.86 9.14,-3.63 0.77,-0.77 7.16,-0.44 6.83,-0.66 -0.33,-0.22 -7.16,-2.09 -9.14,-2.09 -1.98,0 -5.67,1.17 -8.92,1.43 z"
           id="path5"
           style="fill:#8d6144;fill-opacity:1" />
        <path
           class="cls-18"
           d="m 301.74,562.25 c 0,0 0.99,0.02 -5.5,0.57 -6.49,0.55 -10.9,-0.37 -11.89,-0.57 -0.99,-0.2 -1.54,1.34 -1.1,2.44 0.44,1.1 7.27,3.96 2.31,5.72 -4.96,1.76 -11.01,5.39 -9.03,7.93 1.98,2.53 10.46,4.62 10.46,4.62 0,0 12.22,-6.28 15.3,-11.34 3.08,-5.06 6.39,-10.83 -0.55,-9.38 z"
           id="path6"
           style="fill:#8f6245;fill-opacity:1" />
        <path
           class="cls-11"
           d="m 321.69,621.3 c -3.29,0.1 -11.16,1.12 -18.32,-7.08 0,0 6.37,-1.34 10.23,-0.79 3.86,0.55 4.57,-0.57 7.62,-0.33 3.05,0.24 3.41,0.41 5.4,-0.04 1.99,-0.45 3.99,-0.71 3.99,-0.71 0,0 7.52,-2.24 7.75,-0.75 0.23,1.49 -4.7,9.32 -16.67,9.69 z"
           id="path7" />
        <path
           class="cls-11"
           d="m 321.22,604.85 c 0,0 -3.81,-1.4 -4.49,-1.4 -0.68,0 -10.78,5.23 -13.36,10.58 0,0 1.88,1.75 4.58,0.68 2.7,-1.07 5.99,-1.45 8.1,-2.08 2.11,-0.63 3.64,0.38 5.17,0.26 1.53,-0.12 2.94,-0.77 4.46,-1.02 1.52,-0.25 3.41,1.15 5.87,0.77 2.46,-0.38 6.81,0.13 6.81,-1.28 0,-1.41 -7.75,-7.52 -11.39,-7.91 0,0 -4.94,1.7 -5.75,1.4 z"
           id="path8" />
        <path
           class="cls-11"
           d="m 330.79,563.49 c -1.56,1.26 -1.16,4.95 0.83,8.26 1.99,3.31 5.94,10.07 8.92,11.06 2.98,0.99 5.12,-1.49 11.56,-6.11 6.44,-4.62 11.89,-7.27 11.06,-9.91 -0.83,-2.64 -15.69,-3.3 -15.69,-3.3 0,0 -15.8,-0.71 -16.68,0 z"
           id="path9"
           style="fill:#8f6245;fill-opacity:1" />
        <path
           class="cls-11"
           d="m 339.71,535.74 c -8.27,2.76 -8.85,2.64 -9.87,6.11 -1.03,3.47 -3.01,6.11 3.6,5.12 6.61,-0.99 7.43,-3.8 13.87,-2.64 6.44,1.16 10.4,5.04 10.73,2.85 0.33,-2.19 -14.37,-12.76 -18.33,-11.44 z"
           id="path10"
           style="fill:#8d6144;fill-opacity:1" />
        <path
           class="cls-11"
           d="m 316.75,561.67 c -1.63,4.88 -0.83,17.77 1.98,21.35 2.81,3.58 6.28,1.1 9.25,1.1 2.97,0 0.5,-6.1 -1.65,-10.81 -2.15,-4.71 -6.61,-20.56 -9.58,-11.65 z"
           id="path11"
           style="fill:#8f6245;fill-opacity:1" />
        <path
           class="cls-11"
           d="m 336.24,588.26 c -2.48,-2.64 -4.62,1.16 -4.13,1.82 0.49,0.66 4.13,10.57 4.13,10.57 0,0 7.22,6.61 10.3,3.96 3.08,-2.65 -10.3,-16.35 -10.3,-16.35 z"
           id="path12"
           style="fill:#8f6245;fill-opacity:1" />
        <path
           class="cls-5"
           d="m 300.63,642.96 c -1.1,-2.2 -8.81,-22.88 -9.91,-33.89 -1.1,-11.01 -3.96,-21.73 -3.96,-21.73 0,0 -11.67,-1.61 -13.43,-7.99 -1.76,-6.39 -4.84,-14.71 -1.1,-20.34 3.74,-5.64 5.5,-5.66 10.79,-11.15 5.28,-5.49 14.97,-12.1 11.89,-18.92 -3.08,-6.82 -12.13,-17.61 -24.45,-4.4 -12.32,13.21 -28.56,25.37 -29,28.5 -0.84,5.99 10.61,40.07 10.61,45.15 0,18.55 13.48,-4.57 15.87,5 7.58,30.34 32.69,39.8 32.69,39.8 z"
           id="path13"
           style="fill:#8d6144;fill-opacity:1" />
        <path
           class="cls-19"
           d="m 120.28,844.88 c 1.32,-1.65 18.83,-38.31 18.83,-38.31 0,0 38.31,-9.25 43.93,-4.29 5.62,4.96 2.31,8.59 2.31,8.59 l -8.92,34.02 h -56.15 z"
           id="path14" />
        <path
           class="cls-19"
           d="m 434.71,847.52 c -2.31,-13.87 -15.19,-58.13 -15.19,-58.13 0,0 12.55,-4.95 17.83,-6.28 5.28,-1.32 9.91,-2.31 9.91,-2.31 0,0 -8.26,4.68 0,20.01 8.26,15.33 8.92,28.54 8.92,28.54 l 3.96,18.17 z"
           id="path15" />
        <path
           class="cls-15"
           d="m 170.38,858.97 14.11,-44.81 c 0,0 -12.35,-6.72 -17.63,-6.28 -5.28,0.44 -32.15,2.2 -32.15,2.2 0,0 -4.84,3.08 -6.17,1.32 -1.32,-1.76 -4.84,-19.38 -4.84,-19.38 0,0 8.81,-28.18 14.53,-45.8 5.72,-17.61 3.52,-16.29 6.61,-31.27 3.08,-14.97 11.45,-59.45 24.22,-71.78 12.77,-12.33 22.9,-21.58 40.95,-18.5 18.05,3.08 33.91,-0.31 40.95,-0.6 7.04,-0.29 19.27,-2.49 19.27,-2.49 l 2.97,15.52 c 0,0 45.91,23.78 46.9,24.11 0.99,0.33 32.7,-1.65 37.65,-15.85 4.95,-14.2 -5.28,-21.58 -5.28,-21.58 l 6.64,-10.09 c 0,0 77.25,5.58 82.87,13.17 5.61,7.6 13.54,33.03 14.53,41.94 0.99,8.92 10.9,67.5 10.9,67.5 l 7.93,33.89 c 0,0 -13.87,5.94 -22.79,10.57 -8.92,4.63 -26.42,8.59 -26.42,8.59 0,0 11.89,67.16 13.71,69.58 H 170.38 Z"
           id="path16"
           style="fill:#18456b;fill-opacity:1" />
        <path
           class="cls-16"
           d="m 164.5,650.06 c 0,0 8.08,-15.23 19.97,-22.66 11.89,-7.43 43.16,-3.68 49.76,-4.45 l 36.6,2.71 c 0,0 2.97,7.61 5.31,10.7 2.34,3.09 31.27,22.69 35.19,25.11 3.92,2.42 5.9,4.93 14.05,2.24 8.15,-2.68 18.01,-11.05 18.01,-11.05 l 10.65,-8.9 4,-7.62 -6.75,-8.92 2.74,-4.57 7.75,-7.91 c 3.08,-0.26 39.19,3.34 61.21,4.22 22.02,0.88 22.9,18.94 22.46,23.99 -0.44,5.05 -4.4,10.8 -6.17,15.44 -1.76,4.64 -3.52,17.38 -6.17,25.75 -2.65,8.37 -4.4,41.39 -7.93,52.2 -3.52,10.81 -7.05,34.55 -9.25,41.13 -2.2,6.58 7.05,24.68 5.72,36.68 -1.32,12 -2.16,39.3 -2.16,39.3 l -248.41,5.5 3.08,-14.09 11.45,-44.06 8.81,-26.17 4.84,-31.93 -4.4,-42.64 c 0,0 -11.01,-23.85 -11.89,-25.35 -0.88,-1.5 -18.5,-24.67 -18.5,-24.67"
           id="path17"
           style="fill:#1c517c;fill-opacity:1" />
        <path
           class="cls-14"
           d="m 320.76,511.96 c 0,0.66 -5.06,5.28 -10.79,5.94 -5.73,0.66 -15.63,0.66 -18.06,1.76 -2.42,1.1 -6.61,5.5 -11.23,8.59 -4.62,3.09 -8.59,6.83 -11.89,13.43 -3.3,6.61 -3.96,23.12 -5.28,23.78 -1.32,0.66 -2.2,3.96 -3.96,0 -1.76,-3.96 -3.52,-8.81 -5.94,-10.57 -2.42,-1.76 -5.83,-6.5 -9.25,0.88 -4.11,8.89 2.14,11.45 2.86,14.64 0.48,2.15 3.3,8.48 3.96,12 0.66,3.52 0.91,4.06 2.2,7.49 1.49,3.96 5.06,7.49 7.05,6.83 1.99,-0.66 5.5,-2.86 5.5,-2.86 0,0 0.85,8.96 6.14,20.15 0,0 2.71,9.57 1.13,12.22 -1.58,2.65 -8.59,5.5 -8.59,5.5 0,0 -9.68,3.21 -18.5,-1.54 -8.82,-4.75 -17.39,-8.37 -11.89,-8.37 5.5,0 12.77,-3.3 13.87,-5.28 1.1,-1.98 1.54,-15.85 0.66,-23.78 -0.88,-7.93 -2.42,-14.31 -6.39,-26.64 -3.96,-12.33 -6.03,-40.29 -0.92,-49.98 5.1,-9.69 27.12,-30.17 32.63,-33.25 5.51,-3.08 18.94,-8.59 25.43,-8.15 6.49,0.44 10.24,1.32 10.24,1.32 0,0 19.38,-7.05 33.25,4.84 13.87,11.89 34.13,28.18 36.55,38.75 2.42,10.57 2.86,24 2.64,25.76 -0.22,1.76 -0.98,3.74 -0.98,3.74 0,0 -6.29,-4.4 -7.83,-3.08 -1.54,1.32 -2.86,7.05 -4.18,9.47 -1.32,2.42 -3.08,3.52 -4.4,3.74 -1.32,0.22 -0.88,-14.31 -2.42,-16.29 -1.54,-1.98 -4.84,-8.37 -7.93,-11.23 -3.08,-2.86 -14.53,-6.83 -21.8,-10.57 -7.27,-3.74 -11.89,-9.25 -11.89,-9.25 z"
           id="path18" />
        <path
           class="cls-14"
           d="m 377.24,567.4 c 0,0 -2.7,7.1 -2.98,9.96 -0.17,1.77 0.88,7.05 -2.42,9.47 -3.3,2.42 -5.06,4.4 -6.17,4.18 -1.11,-0.22 -2.2,0.02 -2.2,0.02 0,0 -6.37,25.75 -8.05,28.3 -1.68,2.55 -4.13,6.33 -4.13,6.33 0,0 4.69,2.57 8.44,1.46 3.75,-1.11 8.6,-2.1 9.91,-7.27 1.31,-5.16 -0.22,-5.28 2.86,-11.45 3.08,-6.17 6.39,-12.33 6.61,-17.39 0.22,-5.06 -0.66,-10.57 -1.32,-13.21 -0.66,-2.64 -0.55,-10.4 -0.55,-10.4 z"
           id="path19" />
        <path
           class="cls-17"
           d="m 367,571.52 c 0,0 3.41,-0.22 4.4,-2.42 0.99,-2.2 1.76,-3.96 0,-5.83 -1.76,-1.87 -1.54,-3.08 0,-5.61 1.54,-2.53 2.42,-7.05 1.98,-3.52 -0.44,3.53 1.54,7.16 1.76,7.6 0.22,0.44 3.74,-7.07 3.63,-8.32 -0.11,-1.25 -1.65,-5.22 -2.86,-5 -1.21,0.22 -5.39,6.28 -5.39,6.28 0,0 -4.51,11.78 -3.52,16.84 z"
           id="path20" />
        <path
           class="cls-19"
           d="m 262.96,585.4 c 1.4,-1.4 0.55,-5.39 -0.55,-6.72 -1.1,-1.32 -2.97,1.43 -3.41,-2.64 -0.44,-4.07 1.21,-4.07 0.99,-5.94 -0.22,-1.87 -3.19,-4.73 -4.07,-2.97 -0.88,1.76 -1.98,1.87 -2.42,4.4 -0.44,2.53 0.11,3.08 1.98,4.46 1.87,1.38 1.98,3.47 1.1,3.69 -0.88,0.22 -5.61,-4.84 -5.61,-8.15 0,-3.31 0.66,-6.39 0.99,-9.36 0.33,-2.97 0.55,-7.27 -0.99,-2.21 -1.54,5.06 -1.54,9.91 -1.76,8.04 -0.22,-1.87 -1.65,-7.93 -2.2,-7.49 -0.55,0.44 -0.77,2.31 0,4.84 0.77,2.53 2.53,8.04 3.85,10.46 1.32,2.42 0.77,4.95 3.19,5.28 2.42,0.33 3.08,-0.77 4.18,0 1.1,0.77 3.08,5.94 4.73,4.29 z"
           id="path21" />
        <path
           class="cls-5"
           d="m 307.37,581.43 c -0.63,0.21 -2.46,8.48 -2.35,9.47 0.11,0.99 0.99,2.64 3.74,2.97 2.75,0.33 3.85,0.88 5.94,0.66 2.09,-0.22 6.06,0.1 7.16,0.05 1.1,-0.05 4.95,-0.27 5.94,-0.71 0.99,-0.44 1.76,-2.86 0.55,-3.63 -1.21,-0.77 -2.97,-0.66 -4.07,0.33 -1.1,0.99 -4.18,2.64 -5.83,2.09 -1.65,-0.55 -5.63,-2.2 -6.45,-1.54 -0.82,0.66 -1.51,0.99 -0.67,1.76 0.84,0.77 2.26,1.15 -0.59,0.99 -2.85,-0.16 -5.06,-1.21 -4.62,-3.63 0.44,-2.42 1.62,-4.75 1.25,-6.28 -0.37,-1.52 1.69,-3.08 0,-2.53 z"
           id="path22" />
        <path
           class="cls-9"
           d="m 328.11,550.52 c 0.72,0.84 1.16,2.64 3.22,2.48 2.06,-0.16 4.95,-0.24 8.34,-1.23 3.39,-0.99 8.09,-2.73 9.58,-2.48 1.49,0.25 6.52,1.24 6.77,1.24 0.25,0 -7.02,-4.29 -7.02,-4.29 0,0 -6.44,0.5 -9.33,1.4 -2.89,0.9 -11.89,2.5 -11.56,2.89 z"
           id="path23" />
        <path
           class="cls-9"
           d="m 307.37,553.01 c 0,0 -4.28,1.56 -5.6,1.15 -1.32,-0.41 -6.61,-0.39 -8.42,-1.15 -1.81,-0.76 -10.57,-0.92 -13.46,-0.59 -2.89,0.33 -5.53,1.87 -5.94,1.8 -0.41,-0.07 2.97,-2.3 6.03,-3.29 3.06,-0.99 4.54,-1.39 8.09,-1.32 3.55,0.07 8.2,0.57 11.45,0.99 3.25,0.42 8.58,2.16 7.85,2.41 z"
           id="path24" />
        <path
           class="cls-14"
           d="m 309.09,513.29 c 0,0 -12.15,13.98 -13.78,16.4 -1.63,2.42 -12.2,25.14 -13.63,27.93 -1.43,2.79 -3.63,11.26 -4.4,11.48 -0.77,0.22 1.76,-8.59 4.07,-13.54 2.31,-4.95 5.83,-12.44 7.6,-15.96 1.77,-3.52 4.14,-10.35 6.37,-13.32 2.22,-2.97 5.08,-7.27 7.18,-9.58 2.09,-2.31 -2.13,-0.44 -4.42,2.04 -2.29,2.48 -8.35,9.63 -11.54,14.48 -3.19,4.84 -8.04,11.65 -9.91,15.18 -1.87,3.53 -5.5,11.56 -5.5,11.56 0,0 2.37,-8.75 12.55,-24.77 10.18,-16.02 13.32,-18.17 13.32,-18.17 0,0 10.13,-4.62 12.11,-3.74 z"
           id="path25" />
        <path
           class="cls-14"
           d="m 309.09,516.37 c -0.44,0 -31.72,39.08 -35.18,42.99 -3.46,3.91 -3.46,2.37 -1.26,-0.6 2.2,-2.97 4.73,-6.17 8.26,-11.01 3.52,-4.84 13.28,-16.58 14.4,-18.06 1.12,-1.48 12.12,-14.49 12.12,-14.49 z"
           id="path26" />
        <path
           class="cls-10"
           d="m 321.59,609.67 c -2.48,-0.33 -10.25,1.49 -10.25,1.49 l 1.94,3.78 c 0,0 5.5,0.64 10.35,0 4.85,-0.64 6.55,-1.52 6.55,-2.13 0,-0.61 0.94,-0.5 -0.28,-1.6 -1.22,-1.1 -8.31,-1.54 -8.31,-1.54 z"
           id="path27" />
        <path
           class="cls-7"
           d="m 321.64,620.15 c -3.08,0.09 -10.46,0.97 -17.17,-6.11 0,0 5.97,-1.15 9.59,-0.68 3.62,0.47 4.28,-0.5 7.14,-0.28 2.86,0.22 3.19,0.36 5.06,-0.03 1.87,-0.39 3.74,-0.61 3.74,-0.61 0,0 7.05,-1.93 7.27,-0.64 0.22,1.29 -4.4,8.05 -15.63,8.37 z"
           id="path28"
           style="fill:#6d463d;fill-opacity:1" />
        <path
           class="cls-6"
           d="m 321.2,605.94 c 0,0 -3.57,-1.21 -4.21,-1.21 -0.64,0 -10.11,4.51 -12.53,9.14 0,0 1.76,1.51 4.29,0.59 2.53,-0.92 5.61,-1.25 7.6,-1.8 1.99,-0.55 3.41,0.33 4.84,0.22 1.43,-0.11 2.75,-0.66 4.18,-0.88 1.43,-0.22 3.19,0.99 5.5,0.66 2.31,-0.33 6.39,0.11 6.39,-1.1 0,-1.21 -7.27,-6.5 -10.68,-6.83 0,0 -4.63,1.46 -5.39,1.21 z"
           id="path29"
           style="fill:#6d4a43;fill-opacity:1" />
        <g
           class="cls-23"
           clip-path="url(#clippath-1)"
           id="g30">
          <path
             class="cls-20"
             d="m 329.77,556.99 c 0,0 -0.98,1.32 1.23,2.97 2.2,1.65 6.81,1.77 9.56,1.11 2.75,-0.66 5.5,-1.32 6.06,-3.08 0.55,-1.76 3.41,-2.09 0.44,-3.85 -2.97,-1.76 -12.55,-1.21 -12.55,-1.21 0,0 -4.73,1.65 -4.73,4.07 z"
             id="path30" />
          <circle
             class="cls-12"
             cx="337.85001"
             cy="556.65997"
             r="4.2399998"
             id="circle30" />
        </g>
        <g
           class="cls-24"
           clip-path="url(#clippath-2)"
           id="g31">
          <path
             class="cls-20"
             d="m 304.68,559 c 0,0 -0.88,2.7 -4.06,3.33 -2.65,0.53 -5.37,1.8 -8.56,0.96 -3.19,-0.84 -5.1,-1.63 -5.63,-2.22 -0.53,-0.59 0,-3.82 0,-3.82 l 5.31,-3.13 c 0,0 11.98,1.64 12.94,4.87 z"
             id="path31" />
          <circle
             class="cls-12"
             cx="294.91"
             cy="558.41998"
             r="4.2399998"
             id="circle31" />
        </g>
        <path
           class="cls-8"
           d="m 347.69,557.65 c -1.68,0.61 -3.37,1.17 -5.09,1.65 -0.86,0.24 -1.72,0.48 -2.62,0.6 -0.89,0.13 -1.78,0.19 -2.68,0.22 -1.79,0.05 -3.58,0 -5.37,-0.22 l -0.34,-0.06 c -0.11,-0.02 -0.29,-0.08 -0.32,-0.08 -0.13,-0.03 -0.32,0.03 -0.5,0.12 -0.37,0.17 -0.72,0.45 -1.11,0.69 -0.1,0.06 -0.21,0.12 -0.35,0.17 -0.06,0.03 -0.15,0.05 -0.26,0.05 -0.12,0 -0.27,-0.08 -0.34,-0.2 -0.16,-0.44 0,-0.63 0.05,-0.87 0.16,-0.45 0.37,-0.85 0.6,-1.25 l -0.04,0.1 c 0.27,-1.18 0.98,-2.12 1.85,-2.86 0.88,-0.73 1.93,-1.22 3.01,-1.51 0.53,-0.19 1.09,-0.23 1.64,-0.35 0.55,-0.06 1.11,-0.11 1.66,-0.13 0.55,0.01 1.11,0 1.66,0.03 l 1.64,0.16 h -0.04 c 0.85,0.04 1.63,0.22 2.42,0.44 0.78,0.22 1.53,0.52 2.25,0.87 0.72,0.37 1.42,0.75 2.07,1.22 0.66,0.45 1.27,0.97 1.87,1.49 0.01,0.01 0.02,0.04 0,0.05 -0.01,0.01 -0.03,0.02 -0.05,0 -0.64,-0.47 -1.29,-0.92 -1.98,-1.3 -0.68,-0.4 -1.39,-0.74 -2.1,-1.05 -0.72,-0.3 -1.47,-0.54 -2.22,-0.73 -0.75,-0.19 -1.53,-0.32 -2.27,-0.34 v 0 c 0,0 -0.03,0 -0.03,0 l -1.6,-0.1 c -0.53,-0.03 -1.07,0 -1.6,0 -0.53,0.02 -1.06,0.09 -1.59,0.12 -0.51,0.11 -1.05,0.14 -1.55,0.31 -1.02,0.25 -1.99,0.68 -2.8,1.32 -0.8,0.63 -1.46,1.52 -1.7,2.46 v 0.03 c 0,0 -0.02,0.05 -0.04,0.07 -0.22,0.37 -0.43,0.76 -0.58,1.15 -0.08,0.17 -0.11,0.45 -0.1,0.42 -0.01,-0.03 -0.06,-0.05 -0.07,-0.04 0,0 0.02,0 0.07,-0.02 0.07,-0.02 0.16,-0.07 0.25,-0.12 0.37,-0.21 0.73,-0.49 1.17,-0.69 0.22,-0.09 0.47,-0.2 0.79,-0.14 l 0.33,0.09 0.31,0.06 c 1.74,0.26 3.53,0.33 5.29,0.32 0.89,0 1.77,-0.05 2.65,-0.15 0.88,-0.1 1.74,-0.32 2.6,-0.53 1.72,-0.44 3.43,-0.95 5.12,-1.52 0.02,0 0.04,0 0.05,0.02 0,0.02 0,0.04 -0.02,0.05 z"
           id="path32" />
        <path
           class="cls-8"
           d="m 286.17,560.51 c 0.48,0.12 0.89,0.39 1.32,0.58 0.43,0.21 0.87,0.39 1.32,0.55 0.9,0.32 1.83,0.54 2.77,0.68 1.88,0.27 3.81,0.24 5.69,0.03 0.94,-0.12 1.88,-0.29 2.78,-0.57 0.45,-0.13 0.89,-0.3 1.34,-0.47 0.45,-0.16 0.88,-0.39 1.43,-0.44 1,-0.02 1.96,0.15 2.84,0.04 0.1,-0.02 0.2,-0.06 0.19,-0.06 0,0 -0.02,0.03 -0.02,0.06 0,0 -0.02,-0.03 -0.03,-0.05 -0.09,-0.12 -0.31,-0.33 -0.46,-0.5 -0.32,-0.35 -0.65,-0.69 -1,-1 -2.78,-2.58 -6.77,-3.35 -10.46,-2.77 -1.87,0.23 -3.7,0.76 -5.36,1.63 -1.63,0.9 -3.15,2.17 -3.99,3.88 v 0 c 0,0 -0.03,0.03 -0.05,0.02 -0.02,0 -0.02,-0.03 -0.02,-0.04 0.68,-1.83 2.15,-3.27 3.81,-4.29 1.68,-1 3.58,-1.59 5.51,-1.9 1.93,-0.28 3.93,-0.26 5.84,0.22 1.92,0.47 3.69,1.49 5.11,2.83 0.36,0.33 0.69,0.69 1.01,1.05 0.17,0.19 0.3,0.31 0.5,0.57 0.04,0.08 0.09,0.17 0.11,0.28 0,0.15 -0.04,0.29 -0.15,0.37 -0.18,0.15 -0.33,0.16 -0.47,0.19 -1.04,0.11 -1.99,-0.09 -2.9,-0.09 -0.41,0.02 -0.86,0.23 -1.31,0.38 -0.45,0.17 -0.91,0.33 -1.38,0.46 -0.93,0.27 -1.89,0.43 -2.85,0.53 -1.92,0.17 -3.86,0.15 -5.77,-0.17 -0.95,-0.16 -1.89,-0.41 -2.78,-0.76 -0.45,-0.17 -0.89,-0.37 -1.32,-0.59 -0.43,-0.2 -0.84,-0.48 -1.29,-0.6 v 0 c 0,0 -0.03,-0.03 -0.02,-0.05 0,-0.02 0.02,-0.03 0.04,-0.02 z"
           id="path33" />
        <path
           class="cls-21"
           d="m 368.3,583.58 c -0.5,-0.24 -0.22,1.38 0,1.54 0.22,0.16 2.09,1.93 1.71,5.23 -0.39,3.3 -2.64,4.13 -3.19,4.18 -0.55,0.05 -3.58,-0.88 -3.58,-3.63 l -0.46,2.89 c 0,0 2.55,1.9 4.09,1.74 1.54,-0.16 4.13,-1.6 4.51,-5.12 0.38,-3.52 -0.88,-5.78 -3.08,-6.83 z"
           id="path34" />
        <ellipse
           class="cls-21"
           cx="372.35001"
           cy="579.96997"
           rx="1.35"
           ry="1.95"
           id="ellipse34" />
        <path
           class="cls-21"
           d="m 188.35,632.81 -13.87,7.64 c 0,0 13.21,-13.21 19.49,-14.86 6.28,-1.65 23.12,-1.65 23.12,-1.65 l -10.24,3.47 7.27,10.07 -15.52,-5.28 c 0,0 -5.61,6.94 -6.94,10.9 0,0 -3.67,-5.77 -3.3,-10.28 z"
           id="path35" />
        <path
           class="cls-21"
           d="m 409.3,618.97 v 10.6 l 11.23,-5.65 15.85,3.47 -5.61,-5.78 c 0,0 -8.26,-2.64 -21.47,-2.64 z"
           id="path36" />
        <path
           class="cls-21"
           d="m 261.34,643.08 c 0,0 -12.88,11.89 -19.16,14.2 -6.28,2.31 -22.13,17.17 -22.13,19.16 0,1.99 0,-1.98 0,-1.98 l 10.24,68.37 c 0,0 19.49,51.85 25.43,64.07 5.94,12.22 24.77,38.64 24.77,38.64 h -12.55 c 0,0 -39.96,-43.67 -47.89,-109.19 0,0 -6.94,-45.38 -6.94,-53.3 0,-7.92 -3.96,-13.21 -2.97,-14.2 0.99,-0.99 0.66,-4.29 6.94,-8.59 6.28,-4.29 5.28,-5.61 10.24,-8.26 4.96,-2.65 8.59,-2.64 12.22,-6.28 3.63,-3.64 5.61,-6.28 8.26,-7.27 2.65,-0.99 5.94,0 5.94,0 l 7.6,4.62 z"
           id="path37" />
        <path
           class="cls-21"
           d="m 344.24,661.58 c 0,0 17.5,-12.88 25.76,-28.07 0,0 1.98,-3.96 5.61,0 3.63,3.96 0.99,5.94 4.95,6.28 3.96,0.34 9.91,-2.97 14.53,0 4.62,2.97 19.82,9.25 25.1,11.56 5.28,2.31 9.58,5.61 9.58,5.61 0,0 3.63,54.83 2.97,64.73 -0.66,9.91 -1.98,29.06 -4.62,37.98 -2.64,8.92 -5.28,15.85 -5.28,15.85 0,0 5.97,37.64 6.84,49.85 0.04,0.63 0.08,1.19 0.09,1.67 0.33,9.91 -12.22,0 -12.22,0 L 415.9,780.8 c 0,0 8.26,-15.85 6.94,-68.04 l -2.97,-46.57 c 0,0 -3.3,-4.95 -14.2,-9.91 -10.9,-4.95 -10.57,-4.29 -13.87,-6.28 -3.3,-1.99 -5.94,-4.29 -7.6,-3.96 -1.66,0.33 -5.28,3.96 -7.27,2.97 -1.99,-0.99 -6.28,-5.94 -6.28,-5.94 0,0 -17.83,24.11 -26.42,18.5 z"
           id="path38" />
        <path
           class="cls-21"
           d="m 272.13,745.58 h 11.45 c 0,0 0.22,-11.01 0,-11.45 -0.22,-0.44 -6.83,-8.59 -7.71,-8.59 -0.88,0 -20.7,1.98 -21.36,1.98 -0.66,0 -9.27,11.45 -9.27,11.45 l 3.33,35.67 c 0,0 8.81,7.49 9.47,7.49 0.66,0 20.7,-1.32 20.7,-1.32 0,0 5.72,-5.06 6.61,-5.72 0.89,-0.66 0,-14.53 0,-14.53 l -12.33,-0.66 0.66,10.13 -1.32,0.88 -6.95,0.44 -3.84,-3.3 -1.76,-26.26 c 0,0 -0.66,-1.27 1.54,-2.37 2.2,-1.1 7.05,-0.88 8.37,-0.44 1.32,0.44 2.2,1.76 2.2,1.76 l 0.22,4.84 z"
           id="path39" />
        <path
           class="cls-21"
           d="m 334.22,765.4 c -0.66,-0.44 -12.99,-29.5 -12.99,-29.5 h 1.98 l -0.44,-8.81 c 0,0 -24,-1.76 -24.66,-1.54 -0.66,0.22 0.22,10.35 0.22,10.35 h 2.64 c 0,0 -9.69,32.15 -10.57,32.15 -0.88,0 -2.64,1.32 -2.64,1.32 v 7.93 c 0,0 20.7,0.44 20.7,0 0,-0.44 0.22,-5.73 0.22,-5.73 l -2.64,-0.44 c 0,0 1.76,-7.71 1.76,-8.59 0,-0.88 11.21,-0.66 11.21,-0.66 l 2.44,5.72 c 0,0 -1.1,0 -2.2,0.22 -1.1,0.22 1.98,9.47 1.98,9.47 0,0 16.07,-0.22 16.29,0 0.22,0.22 0,-10.79 0,-11.89 0,-1.1 -2.64,0.44 -3.3,0 z m -23.56,-11.56 1.76,-7.6 2.86,6.17 z"
           id="path40" />
        <path
           class="cls-21"
           d="m 376.06,751.5 -3.52,-5.26 2.64,-3.52 -2.42,-13.65 -8.56,-6.61 -29.97,3.06 3.4,10.81 2.76,-0.22 3.85,28.04 -3.85,1.25 1.93,12.09 c 0,0 26.26,-0.86 27.8,-2.18 1.54,-1.32 6.17,-6.83 6.83,-8.37 0.66,-1.54 -0.88,-15.43 -0.88,-15.43 z m -22.02,-16.49 c 0,0 6.17,0 6.17,3.85 0,3.85 -4.62,3.85 -4.62,3.85 L 354.05,735 Z m 9.47,25.36 -3.3,3.49 c 0,0 -3.52,0.66 -4.18,0 -0.66,-0.66 0,-7.27 0,-7.27 0,0 5.94,-1.76 7.49,-1.1 1.54,0.66 0,4.88 0,4.88 z"
           id="path41" />
        <polygon
           class="cls-21"
           points="391.03,733.69 394.11,733.25 397.64,759.74 396.75,762.31 394.77,762.53 391.03,759.74 390.15,752.85 379.14,753.84 379.14,767.16 387.51,774.64 405.56,772.44 412.39,764.15 406.66,732.81 409.3,731.6 408.2,718.94 388.54,721.14 "
           id="polygon41" />
        <polygon
           class="cls-21"
           points="289.5,669.69 291.33,663.71 293.17,669.69 299.42,669.59 294.3,673.18 296.33,679.1 291.33,675.33 286.34,679.1 288.37,673.18 283.25,669.59 "
           id="polygon42" />
        <polygon
           class="cls-21"
           points="256.36,669.69 258.2,663.71 260.03,669.69 266.28,669.59 261.16,673.18 263.19,679.1 258.2,675.33 253.2,679.1 255.23,673.18 250.11,669.59 "
           id="polygon43" />
        <polygon
           class="cls-21"
           points="243.41,687.34 245.24,681.36 247.08,687.34 253.33,687.24 248.21,690.83 250.24,696.75 245.24,692.98 240.25,696.75 242.28,690.83 237.16,687.24 "
           id="polygon44" />
        <polygon
           class="cls-21"
           points="274.87,688.4 276.7,682.42 278.53,688.4 284.79,688.3 279.67,691.89 281.7,697.8 276.7,694.04 271.7,697.8 273.74,691.89 268.61,688.3 "
           id="polygon45" />
        <polygon
           class="cls-21"
           points="246.13,708.99 247.97,703.01 249.8,708.99 256.05,708.88 250.93,712.48 252.97,718.39 247.97,714.63 242.97,718.39 245,712.48 239.88,708.88 "
           id="polygon46" />
        <polygon
           class="cls-21"
           points="277.55,707.11 279.38,701.13 281.21,707.11 287.47,707.01 282.35,710.6 284.38,716.51 279.38,712.75 274.38,716.51 276.42,710.6 271.29,707.01 "
           id="polygon47" />
        <polygon
           class="cls-21"
           points="308.83,706.06 310.66,700.08 312.5,706.06 318.75,705.95 313.63,709.54 315.66,715.46 310.66,711.7 305.66,715.46 307.7,709.54 302.58,705.95 "
           id="polygon48" />
        <polygon
           class="cls-21"
           points="339.67,705.48 341.5,699.5 343.34,705.48 349.59,705.38 344.47,708.97 346.5,714.89 341.5,711.12 336.51,714.89 338.54,708.97 333.42,705.38 "
           id="polygon49" />
        <polygon
           class="cls-21"
           points="371.08,704.52 372.25,698.38 374.72,704.13 380.93,703.34 376.23,707.47 378.89,713.13 373.51,709.93 368.95,714.22 370.33,708.11 364.85,705.1 "
           id="polygon50" />
        <polygon
           class="cls-21"
           points="399.33,702.91 400.51,696.85 402.44,702.72 407.74,702.28 403.62,706.14 405.71,711.93 401.24,708.45 397.23,712.47 398.58,706.45 394.01,703.14 "
           id="polygon51" />
        <polygon
           class="cls-21"
           points="397.05,680.8 398.33,674.73 400.37,680.59 406.03,680.13 401.61,684.01 403.83,689.8 399.06,686.33 394.76,690.37 396.24,684.35 391.37,681.05 "
           id="polygon52" />
        <polygon
           class="cls-21"
           points="367.23,684.09 368.52,678.02 370.55,683.89 376.22,683.42 371.8,687.3 374.01,693.09 369.24,689.62 364.95,693.66 366.42,687.64 361.55,684.34 "
           id="polygon53" />
        <polygon
           class="cls-21"
           points="379.27,663.22 380.56,657.14 382.6,663.01 388.26,662.55 383.84,666.42 386.06,672.21 381.29,668.74 376.99,672.78 378.47,666.76 373.6,663.47 "
           id="polygon54" />
        <path
           class="cls-21"
           d="m 310.66,689.54 -3.19,-5.39 -0.88,4.91 c 0,0 -5.94,-0.38 -5.72,0 0.22,0.38 4.9,2.91 4.9,2.91 l -0.6,4.78 4.29,-2.36 6.94,1.87 -3.41,-3.85 3.41,-2.29 -5.72,-0.57 z"
           id="path54" />
        <path
           class="cls-21"
           d="m 333.42,688.44 4.21,0.61 c 0,0 -1.75,6.1 -0.98,5.88 0.77,-0.22 5.28,-4.49 5.28,-4.49 l 4.73,3.94 -1.87,-5.94 3.96,-4.29 -6.61,1.21 -2.97,-1.21 -0.55,2.42 -5.21,1.87 z"
           id="path55" />
        <path
           class="cls-21"
           d="m 349.59,679.85 11.16,-8.45 -6.72,0.74 -3.08,-4.51 -0.99,5.15 c 0,0 -5.28,0.03 -4.62,0.47 0.66,0.44 4.25,3.08 4.25,3.08 z"
           id="path56" />
        <path
           class="cls-21"
           d="m 328.94,671.4 c 0.44,0.3 3.08,3.32 3.08,3.32 l -4.51,1.05 c 0,0 -0.44,4.4 0,4.73 0.44,0.33 -3.08,-2.5 -3.08,-2.5 l -5.67,1.83 2.37,-5.13 -5.83,-4.67 h 3.46 l 5.59,3.81 4.59,-2.47 z"
           id="path57" />
        <path
           class="cls-21"
           d="m 185.38,671.4 c 0.66,-0.25 7.27,3.9 7.27,3.9 l 9.69,-8.99 -4.18,30.43 c 0,0 -13.43,-20.87 -12.77,-22.02 0.66,-1.15 0,-3.32 0,-3.32 z"
           id="path58" />
        <path
           class="cls-21"
           d="m 224.82,761.53 c -1.13,0.12 -14.78,4.74 -16.32,3.64 -1.54,-1.1 -1.76,-3.64 -1.76,-3.64 h -5.5 v 12.45 c 0,0 -3.96,-0.22 -4.4,7.05 -0.44,7.27 -0.22,9.47 0,10.13 0.22,0.66 -5.72,4.18 -5.72,9.69 0,5.51 1.1,19.16 1.1,19.16 l 10.13,17.83 4.18,7.71 59.77,-1.92 -41.47,-82.09 z"
           id="path59" />
        <path
           class="cls-21"
           d="m 436.15,670.21 c 0,0 7.08,-18.1 7.8,-20.5 0.72,-2.4 -1,-3.99 -1,-3.99 l -4.99,5.38 -6.93,-4.58 -0.12,4.62 2.88,7.78 -3.28,7.4 -0.13,5.09 5.76,-1.2 z"
           id="path60" />
        <path
           class="cls-13"
           d="m 320.79,662.57 -6.83,3.74 c 0,0 -27.2,-15.41 -30.72,-16.73 -3.52,-1.32 -8.02,-5.72 -10.71,-7.71 -2.68,-1.98 -1.41,-14.64 -1.41,-14.64 0,0 5.39,5.72 8.09,7.93 2.7,2.2 31.22,20.96 33.76,21.99 2.54,1.03 7.82,5.43 7.82,5.43 z"
           id="path61" />
        <path
           class="cls-13"
           d="m 351.3,625.66 c -1.18,0.66 1.72,4.99 1.72,4.99 l 2.64,7.38 c 0,0 -10.46,13.68 -17.29,16.46 -11.97,4.86 -22.59,6.58 -27.81,9.91 l 13.79,10.07 c 0,0 17.73,-10.89 22.22,-14.69 4.49,-3.8 12.33,-11.3 13.65,-14.38 1.32,-3.08 2.42,-4.62 2.42,-9.91 0,-5.29 -11.33,-9.83 -11.33,-9.83 z"
           id="path62" />
        <path
           class="cls-3"
           d="m 162.48,653.06 c 0,0 -6.03,55.92 -5.57,68.14 0.46,12.21 1.16,43.71 1.62,54.96 0.46,11.25 5.1,24.75 8.81,25.71 3.71,0.96 5.57,7.07 3.02,-1.29 -2.55,-8.36 -8.81,-26.35 -8.81,-26.35 0,0 -1.16,-41.62 -0.93,-45.23 0.23,-3.62 2.09,21.77 6.26,28.84 4.17,7.07 1.86,-4.18 0.23,-8.03 -1.63,-3.85 -4.41,-19.28 -4.64,-29.57 -0.23,-10.28 -2.32,-31.5 -1.62,-38.57 0.7,-7.07 1.62,-28.6 1.62,-28.6 z"
           id="path63" />
        <path
           class="cls-3"
           d="m 168.24,662.65 c 0,0 -2.81,34.95 -0.97,46.5 1.84,11.55 4.66,28.73 4.9,19.05 0.24,-9.68 -3.82,-27.98 -3.82,-27.98 l 1.3,-33.84 z"
           id="path64" />
        <path
           class="cls-3"
           d="m 450.43,671.49 c 0,3.86 -4.56,20 -6.32,24.56 -1.76,4.56 -5.26,9.47 -4.56,12.28 0.7,2.81 1.66,3.51 5.39,-5.97 3.73,-9.47 5.48,-32.98 5.48,-32.98 v 2.11 z"
           id="path65" />
        <path
           class="cls-3"
           d="m 450.43,707.63 c -0.81,6.3 -6.32,41.41 -9.47,52.28 -3.16,10.88 -11.58,22.46 -5.61,21.76 5.97,-0.7 12.63,-12.28 15.09,-22.46 2.46,-10.18 7.37,-35.44 7.37,-35.44 0,0 -7.08,-18.4 -7.37,-16.14 z"
           id="path66" />
        <path
           class="cls-3"
           d="m 187.6,790.21 c 0.61,-0.47 -4.17,-26.35 -6.49,-37.28 -2.32,-10.93 -3.94,-16.71 -2.78,-27.96 1.16,-11.25 1.39,-24.43 1.62,-31.18 0.23,-6.75 -0.07,-17.91 -2.01,-6.39 -1.94,11.53 -2.63,21.49 -2.63,29.53 0,8.04 -0.46,24.75 2.09,34.71 2.55,9.96 8.12,40.17 10.21,38.57 z"
           id="path67" />
        <path
           class="cls-1"
           d="m 212.8,640.78 c 0.97,1.4 12.55,30.18 12.55,30.18 0,0 4.21,18.34 6.67,20.4 2.46,2.06 4.91,-8.47 0,-20.4 -4.91,-11.93 -19.22,-30.18 -19.22,-30.18 z"
           id="path68" />
        <path
           class="cls-1"
           d="m 216.93,626.74 c 7.02,2.46 16.84,10.18 23.51,20 6.67,9.82 9.83,13.33 11.58,12.98 1.75,-0.35 -4.21,-14.74 0,-12.63 4.21,2.11 20.35,14.74 42.46,20.7 22.11,5.96 34.39,5.97 24.56,0 -9.83,-5.97 -49.83,-20 -60,-27.02 -10.17,-7.02 -42.11,-14.04 -42.11,-14.04 z"
           id="path69" />
        <path
           class="cls-1"
           d="m 390.97,621.83 c 0,0 -18.6,23.16 -28.42,31.23 -9.83,8.07 -30.18,13.69 -21.76,14.74 8.42,1.05 24.09,-11.58 24.09,-11.58 0,0 12.75,-12.98 17.67,-18.95 4.91,-5.97 8.07,-13.69 8.42,-7.02 0.35,6.67 -8.42,22.81 -8.42,22.81 0,0 -24.91,23.16 -32.28,27.02 -7.37,3.86 -7.37,7.02 1.4,2.81 8.77,-4.21 19.3,-13.69 30.88,-25.62 11.58,-11.93 9.12,-11.93 18.6,-21.05 9.47,-9.12 11.23,-18.25 11.23,-9.47 0,8.78 -8.77,22.46 -14.04,31.23 -5.26,8.77 -19.3,36.84 -17.9,48.77 1.4,11.93 11.58,-11.23 11.58,-11.23 0,0 18.95,-36.93 23.16,-46.01 4.21,-9.08 3.51,-26.27 1.4,-27.68 -2.11,-1.41 -7.72,0.7 -13.33,4.91 -5.61,4.21 -8.07,-5.35 -8.07,-5.35 l -4.21,0.43 z"
           id="path70" />
      </g>
    </g>
  </g>
</svg>
