<?xml version="1.0" encoding="UTF-8" standalone="no"?>
<svg
   viewBox="0 0 849.99995 594.99999"
   version="1.1"
   id="svg77"
   sodipodi:docname="Argentina-02-portrait.svg"
   width="850"
   height="595"
   inkscape:export-filename="Argentina-02-portrait.svg"
   inkscape:export-xdpi="96"
   inkscape:export-ydpi="96"
   inkscape:version="1.3 (0e150ed6c4, 2023-07-21)"
   xmlns:inkscape="http://www.inkscape.org/namespaces/inkscape"
   xmlns:sodipodi="http://sodipodi.sourceforge.net/DTD/sodipodi-0.dtd"
   xmlns="http://www.w3.org/2000/svg"
   xmlns:svg="http://www.w3.org/2000/svg">
  <sodipodi:namedview
     id="namedview77"
     pagecolor="#ffffff"
     bordercolor="#000000"
     borderopacity="0.25"
     inkscape:showpageshadow="2"
     inkscape:pageopacity="0.0"
     inkscape:pagecheckerboard="0"
     inkscape:deskcolor="#d1d1d1"
     inkscape:zoom="0.4614617"
     inkscape:cx="-104.0173"
     inkscape:cy="657.69271"
     inkscape:window-width="2400"
     inkscape:window-height="1261"
     inkscape:window-x="2391"
     inkscape:window-y="-9"
     inkscape:window-maximized="1"
     inkscape:current-layer="Layer_1" />
  <defs
     id="defs1">
    <style
       id="style1">.cls-1{clip-path:url(#clippath);}.cls-2{fill:none;}.cls-2,.cls-3,.cls-4,.cls-5,.cls-6,.cls-7,.cls-8,.cls-9,.cls-10,.cls-11,.cls-12,.cls-13,.cls-14,.cls-15,.cls-16,.cls-17,.cls-18,.cls-19,.cls-20,.cls-21,.cls-22,.cls-23,.cls-24,.cls-25,.cls-26,.cls-27,.cls-28,.cls-29,.cls-30,.cls-31,.cls-32,.cls-33{stroke-width:0px;}.cls-34{isolation:isolate;}.cls-3{fill:#454547;mix-blend-mode:multiply;opacity:.77;}.cls-4{fill:#77a545;}.cls-5{fill:#733a00;}.cls-6{fill:#954f05;}.cls-7{fill:#a45e53;}.cls-8{fill:#2f332f;}.cls-9{fill:#1b3660;}.cls-10{fill:#1b221d;}.cls-11{fill:#112b51;}.cls-12{fill:#c5a575;}.cls-13{fill:#c3aa8f;}.cls-14{fill:#d1d2d4;}.cls-15{fill:#e0dcea;}.cls-16{fill:#d7a89a;}.cls-17{fill:#e1d5cf;}.cls-18{fill:#d5d7d8;}.cls-19{fill:#dcbf9f;}.cls-20{fill:#d52b2f;}.cls-21{fill:#d9d7e6;}.cls-22{fill:#be6d61;}.cls-23{fill:#af9469;}.cls-24{fill:#a58c63;}.cls-25{fill:#ad6458;}.cls-26{fill:#aa6256;}.cls-27{fill:#ba6414;}.cls-28{fill:#c2b5cb;}.cls-29{fill:#8f4b02;}.cls-30{fill:#9a584e;}.cls-31{fill:#874600;}.cls-32{fill:#fff;}.cls-33{fill:#e6e3f1;}</style>
    <clipPath
       id="clippath">
      <rect
         class="cls-2"
         x="-12.01"
         y="303.67001"
         width="622.64001"
         height="555.29999"
         id="rect1" />
    </clipPath>
  </defs>
  <g
     class="cls-34"
     id="g77">
    <g
       id="Layer_1"
       transform="matrix(4.0212975,0,0,4.0212975,-1188.0376,-1524.1126)">
      <g
         class="cls-1"
         clip-path="url(#clippath)"
         id="g76"
         transform="matrix(1.1037125,0,0,1.1231399,68.460342,-64.063281)">
        <path
           class="cls-4"
           d="m -34.78,587.29199 c 6.27,0.6068 102.01,0.0659 256.31,0 154.3,-0.066 242.28,1.22019 242.28,1.22019 0,0 135.17,-4.53122 138.99,-1.22019 3.83,3.31102 17.85,269.41326 12.75,270.98963 -5.1,1.57636 -623.54,0 -623.54,0 z"
           id="path1" />
        <path
           class="cls-3"
           d="m 290.93,777.22 c -3.3,-0.37 -64.07,34.97 -64.07,34.97 l 4.62,7.64 c 0,0 62.09,-22.75 64.73,-21.31 2.64,1.44 13.21,21.31 13.21,21.31 L 370.85,796 c 0,0 32.37,-5.21 36.33,-18.79 3.96,-13.58 11.23,-22.17 11.23,-22.17 L 395.95,744.1 c 0,0 -1.98,-17.8 -9.91,-14.99 -7.93,2.81 -52.84,0 -52.84,0 l -25.76,-1.91 1.32,42.37 -17.83,7.64 z"
           id="path2" />
        <path
           class="cls-3"
           d="m 347.74,715.21 c 2.64,-1.78 23.78,-2.44 34.35,-7.72 10.57,-5.28 11.89,-28.4 15.85,-28.4 3.96,0 29.72,-3.3 29.72,-3.3 0,0 29.06,-11.01 31.71,-3.52 2.64,7.49 6.61,16.85 6.61,16.85 l -9.91,11.91 c 0,0 -31.05,27.61 -37.65,30.91 -6.61,3.3 -35.01,16.51 -37.65,16.51 -2.64,0 -38.31,-9.32 -38.31,-9.32 l 5.28,-23.91 z"
           id="path3" />
        <path
           class="cls-23"
           d="m 213.59,789.84 -2.64,28.21 c 0,0 -0.22,4.59 6.17,6.13 6.39,1.54 12.77,2.42 14.97,-1.32 2.2,-3.74 1.54,-7.71 1.54,-7.71 0,0 3.3,0.22 5.06,-4.84 1.76,-5.06 1.76,-5.72 0,-7.27 -1.76,-1.55 -3.3,-2.64 -2.86,-4.18 0.44,-1.54 1.1,-7.71 1.1,-7.71 l -23.34,-1.32 z"
           id="path4" />
        <path
           class="cls-23"
           d="m 279.65,798.42 c 0.22,0.66 0,12.55 0,18.5 0,5.95 -1.1,11.23 1.98,13.21 3.08,1.98 13.87,5.28 17.39,1.76 3.52,-3.52 10.13,-8.59 10.13,-8.59 0,0 5.5,-5.94 5.94,-8.37 0.44,-2.43 0,-10.35 0,-10.35 l -7.93,-7.27 h -5.94 l -21.58,1.1 z"
           id="path5" />
        <path
           class="cls-24"
           d="m 302.72,798.48 -1.32,10.73 c 0,0 -3.8,1.82 -1.65,2.64 2.15,0.82 1.98,-0.17 5.12,0 3.14,0.17 4.46,0.33 4.46,0.33 l 5.96,-1.1 c 0,0 1.14,-8.31 -2.66,-11.12 -3.8,-2.81 -9.25,-3.96 -9.25,-3.96 z"
           id="path6" />
        <path
           class="cls-24"
           d="m 236.17,793.69 c 0,0 -3.47,6.44 -3.8,10.07 -0.33,3.63 0,9.82 0,12.06 0,2.24 -1.45,5.03 -0.15,3.63 1.3,-1.4 -2.36,-3.63 1.7,-5.28 4.06,-1.65 6.37,-2.31 5.88,-5.61 -0.49,-3.3 -1.98,-7.1 -1.98,-7.1 l -1.65,-7.76 z"
           id="path7" />
        <path
           class="cls-26"
           d="m 348.87,495.89 -2.64,-15.19 3.74,-14.31 c 0,0 -4.62,-2.64 -5.5,-7.27 -0.88,-4.63 -1.98,-10.57 -1.76,-12.77 0.22,-2.2 0.88,-7.49 1.1,-8.15 0.22,-0.66 1.73,-1.32 2.52,-2.2 0.79,-0.88 17.08,-3.52 20.38,-3.08 3.3,0.44 13.21,2.42 13.21,2.42 l 1.31,9.17 c 0,0 -3.07,7.35 -4.17,7.57 -1.1,0.22 -0.66,7.71 -0.66,8.37 0,0.66 -3.08,15.85 -3.08,15.85 l -15.41,22.9 -9.03,-3.3 z"
           id="path8"
           style="fill:#bd8277;fill-opacity:1" />
        <path
           class="cls-22"
           d="m 350.49,447.19 c -0.39,0.18 -0.59,0.7 -0.53,1.2 0.06,0.5 -0.13,1.49 0.26,1.61 0.39,0.12 0.77,0.58 1.51,0.58 0.74,0 0.69,-0.25 1.03,-0.6 0.34,-0.35 0.57,-1.09 0.57,-1.09 0,0 -0.93,-2.6 -2.83,-1.69 z"
           id="path9"
           style="fill:#be8b81;fill-opacity:1" />
        <path
           class="cls-7"
           d="m 343.5,439.9 -0.69,5.4 c 0,0 7.44,-0.61 7.86,-0.35 0,0 1.35,-2.88 2.65,-3.1 1.3,-0.22 3.06,2.42 3.06,2.42 0,0 6.28,1.8 9.19,1.04 2.91,-0.76 5.5,-2.08 6.22,-2.36 0.72,-0.28 0.39,-5.17 0.39,-5.17 0,0 -20.25,-2.17 -28.68,2.13 z"
           id="path10"
           style="fill:#ac6e63;fill-opacity:1" />
        <path
           class="cls-18"
           d="m 371.47,437.65 -0.22,5.78 c 0,0 -0.22,2.37 0.88,2.64 1.1,0.27 2.04,-1.65 2.37,-2.15 0.33,-0.5 1.43,-1.68 1.87,-2.05 0.44,-0.37 1.82,-1.03 2.42,-0.81 0.6,0.22 0.77,-0.06 0.77,-0.06 l -1.82,-2.7 -6.28,-0.66 z"
           id="path11" />
        <path
           class="cls-25"
           d="m 349.52,466.03 c 0,0 2.16,0.71 4.93,0.53 2.77,-0.18 4.58,-1.62 5.53,-2.16 0.95,-0.54 9.83,-5 10.82,-5.82 0.99,-0.82 3.72,-2.97 3.67,-5.99 0,0 2.06,-0.13 2.58,-0.52 0,0 -0.77,0.28 -0.75,5.06 l -4.31,12.26 c 0,0 -3.67,4.62 -8.34,4.21 -4.67,-0.41 -14.13,0.25 -14.13,0.25 l 0.3,-4 z"
           id="path12"
           style="fill:#a56a63;fill-opacity:1" />
        <path
           class="cls-22"
           d="m 358.52,462.84 c -0.41,-0.5 -3.72,-1.73 -5.2,-1.9 -1.48,-0.17 -3.72,0 -4.38,0.95 -0.66,0.95 -0.83,1.78 -0.83,1.78 0,0 0.74,2.72 3.39,2.89 2.65,0.17 5.94,0 6.52,-1.24 0.58,-1.24 0.5,-2.48 0.5,-2.48 z"
           id="path13"
           style="fill:#be8b81;fill-opacity:1" />
        <path
           class="cls-22"
           d="m 362.29,478.16 c 0.63,-0.2 -3.52,1.93 -5.34,2.1 -1.82,0.17 -3.63,-0.95 -3.63,-0.95 0,0 -1.24,-0.02 -1.74,0 -0.5,0.02 -2.23,-0.05 -2.15,0.53 0.08,0.58 0,15.28 0,15.28 0,0 10.64,-13.46 10.81,-13.71 0.17,-0.25 2.05,-3.26 2.05,-3.26 z"
           id="path14"
           style="fill:#be8b81;fill-opacity:1" />
        <path
           class="cls-9"
           d="m 398.72,554.02 c 0,0 5.94,7.05 6.61,17.83 0.66,10.79 1.32,31.71 0,39.19 -1.32,7.49 -4.4,49.54 -4.4,49.54 l -2.2,31.27 -13.21,15.63 -20.04,-1.32 c 0,0 -3.08,-19.16 -4.18,-24.44 -1.1,-5.28 -1.76,-8.15 -1.76,-8.15 0,0 -1.98,14.97 -3.96,19.38 -1.98,4.41 -16.29,10.79 -16.29,10.79 l -5.72,-2.64 c 0,0 -11.23,-17.61 -12.11,-24.88 -0.88,-7.27 0,-36.77 0,-36.77 l 3.74,-37.12 2.2,-32.68 c 0,0 3.52,-7.27 9.69,-7.71 6.17,-0.44 26.5,0.88 26.5,0.88 l 35.15,-8.81 z"
           id="path15" />
        <path
           class="cls-11"
           d="m 348.96,672.26 c -5.28,0.22 -19.49,-8.7 -18.83,-5.06 0.66,3.64 7.88,10.9 -0.02,11.56 -7.9,0.66 -3.94,4.62 -3.94,4.62 l 10.9,14.53 15.52,-4.62 5.28,-12.55 c 0,0 2.31,24.08 9.58,25.75 7.27,1.67 24.77,-15.18 24.77,-15.18 0,0 -13.87,-8.7 -10.9,-19.05 2.97,-10.35 5.61,-14.31 4.29,-16.62 -1.32,-2.31 -3.3,-17.5 -6.28,-2.64 -2.97,14.86 2.64,14.86 -2.97,14.86 -5.61,0 -14.53,-6.28 -14.53,-6.28 0,0 -21.53,-3.5 -1.65,-7.6 19.88,-4.09 32.04,-8.92 32.04,-8.92 0,0 16.84,0.13 5.94,-6.21 -10.9,-6.34 -14.86,-13.69 -14.86,-13.69 0,0 -3.3,-9.44 -12.88,-8.31 -9.58,1.13 -7.27,-1.18 -10.57,3.77 -3.3,4.95 -11.89,4.54 -11.89,4.54 0,0 -2.97,-4.49 1.98,-8.31 4.95,-3.82 8.59,-6.8 4.62,-10.1 -3.96,-3.3 -20.48,-1.98 -14.2,0 6.28,1.98 10.57,-0.66 5.94,6.28 -4.63,6.94 1.65,8.59 -11.56,8.59 -13.21,0 -26.09,-8.1 -15.52,3.55 10.57,11.65 17.17,17.59 19.16,19.57 1.99,1.98 9.25,17.83 9.25,17.83 l 1.32,9.69 z"
           id="path16" />
        <path
           class="cls-31"
           d="m 365.2,714.42 c 0,1.49 -1.63,12.72 -1.63,12.72 v 7.27 l -5.8,8.92 c 0,0 -0.29,6.61 5.8,8.26 6.09,1.65 18.31,-8.59 18.81,-10.24 0.5,-1.65 3.3,-8.92 3.3,-8.92 v -20.81 l -15.39,-5.13 h -5.75 l 0.66,7.94 z"
           id="path17"
           style="fill:#6a412f;fill-opacity:1" />
        <path
           class="cls-31"
           d="m 354.13,703.19 c -0.33,2.64 -1.65,8.75 -1.16,10.24 0.5,1.49 0.55,0.33 0.52,3.63 -0.03,3.3 -0.91,2.31 -0.63,3.96 0.28,1.65 1.6,3.96 0.61,5.28 -0.99,1.32 -1.32,2.81 -1.32,2.81 0,0 -0.33,5.94 -1.98,7.93 -1.65,1.99 -2.48,4.79 -13.54,6.44 -11.06,1.65 -18.33,-0.17 -16.84,-3.3 1.49,-3.13 4.62,-7.43 6.44,-9.74 1.82,-2.31 3.14,-6.44 3.47,-8.75 0.33,-2.31 5.78,-5.94 4.29,-6.77 -1.49,-0.83 -6.11,-2.64 -4.46,-4.46 1.65,-1.82 2.97,-4.95 2.97,-4.95 0,0 -1.32,-4.13 -0.83,-4.46 0.49,-0.33 22.46,2.15 22.46,2.15 z"
           id="path18"
           style="fill:#6a412f;fill-opacity:1" />
        <path
           class="cls-33"
           d="m 349.68,494.13 c 0,0 -1.14,-16.73 1.01,-23.5 0,0 0.24,-3.42 -0.72,-4.24 -0.53,-0.45 -2.08,-1.58 -2.08,-1.58 l -8.29,7.03 -1.82,2.15 c 0,0 -1.98,0.99 -3.63,2.97 -1.65,1.98 -4.95,6.11 -5.61,8.92 -0.66,2.81 -2.48,8.92 -3.63,13.05 -1.15,4.13 -2.81,9.91 -2.81,9.91 v 51.03 c 0,0 26.92,10.57 45.74,9.08 18.83,-1.49 25.27,-5.61 27.08,-7.93 1.81,-2.32 4.79,-6.72 5.28,-6.99 0.49,-0.27 0,-4.9 0,-4.9 l 11.56,-59.28 c 0,0 -5.61,-6.61 -8.42,-10.07 -2.81,-3.46 -10.24,-8.42 -12.39,-9.58 -2.15,-1.16 -10.73,-4.62 -10.73,-4.62 l -3.92,-8.42 c 0,0 -3.18,7.27 -5.16,9.74 -1.98,2.48 -5.12,7.43 -6.28,8.26 -1.16,0.83 -3.14,3.3 -4.62,6.28 l -10.57,12.72 z"
           id="path19" />
        <path
           class="cls-15"
           d="m 349.7,495.45 c 0,0 -5.04,-7.87 -5.81,-9.85 -0.77,-1.98 -1.54,-3.69 -1.54,-3.69 v -2.59 c 0,0 -2.2,-1.76 -2.37,-2.31 -0.17,-0.55 0.66,-2.7 1.1,-2.92 0.44,-0.22 -2.99,1.65 -3.32,0.88 -0.33,-0.77 0.94,-2.57 2.26,-2.57 1.32,0 3.51,1.77 4.72,2.82 1.21,1.05 4.75,3.89 4.75,3.89 z"
           id="path20" />
        <path
           class="cls-30"
           d="m 351.58,442.11 c 0,0 -0.57,0.99 -1.04,2.19 -0.22,0.57 -0.42,1.19 -0.53,1.77 -0.33,1.82 -0.83,2.39 -0.58,3.14 0.25,0.75 1.65,1.73 1.65,1.73 h 2.23 c 0,0 -0.66,-0.74 0,-0.91 0.66,-0.17 2.31,0.08 2.31,0.08 l 1.16,-0.25 c 0,0 1.4,-0.5 0.99,-1.32 -0.41,-0.82 -0.25,-1.16 -1.07,-1.49 -0.82,-0.33 -0.5,-0.08 -0.5,-0.08 0,0 0.33,0.17 0.5,0.83 0.17,0.66 -0.33,1.07 -0.33,1.07 0,0 -1.16,-0.41 -1.98,-0.17 -0.82,0.24 -1.65,0.74 -1.73,0.99 -0.08,0.25 0.61,0.33 -0.74,0.58 -1.35,0.25 -1.49,-0.26 -1.9,-1.4 -0.41,-1.14 1.57,-6.77 1.57,-6.77 z"
           id="path21" />
        <path
           class="cls-30"
           d="m 375.93,445.03 c 0,0 1.16,-2.72 2.39,-2.39 1.23,0.33 2.48,1.07 1.9,2.39 -0.58,1.32 -1.34,1.32 -2.07,2.02 -0.73,0.7 -1.06,2.19 -1.72,2.68 -0.66,0.49 -1.9,1.9 -1.65,0.74 0.25,-1.16 0.66,-1.57 0.99,-2.31 0.33,-0.74 -0.08,-1.4 -0.08,-1.4 l 0.25,-1.74 z"
           id="path22" />
        <path
           class="cls-30"
           d="m 348.85,457.14 c 0,0 3.81,0.17 4.75,0 0.94,-0.17 4.99,-0.99 4.99,-0.99 0,0 -2.14,-1.16 -4.99,-0.91 -2.85,0.25 -4.83,1.32 -4.75,1.9 z"
           id="path23"
           style="fill:#8c5047;fill-opacity:1" />
        <path
           class="cls-30"
           d="m 358.59,441.29 c 0,0 2.31,-0.74 3.22,-0.58 0.91,0.16 2.89,1.38 2.89,1.38 0,0 -1.65,0.11 -3.06,0.03 -1.41,-0.08 -3.06,-0.83 -3.06,-0.83 z"
           id="path24"
           style="fill:#603731;fill-opacity:1" />
        <path
           class="cls-30"
           d="m 350.09,441.41 c 0,0 -1.49,-0.78 -2.31,0 -0.82,0.78 -1.98,1.44 -1.4,1.11 0.58,-0.33 2.99,0.09 2.99,0.09 l 0.73,-1.2 z"
           id="path25"
           style="fill:#603731;fill-opacity:1" />
        <path
           class="cls-18"
           d="m 352.24,450.95 c 0,0 -1.65,-0.58 -2.48,0.41 -0.83,0.99 -2.48,2.39 -2.64,2.64 -0.16,0.25 -2.56,2.71 -1.24,3.21 1.32,0.5 1.65,0.13 3.8,-1 2.15,-1.13 5.91,-1.44 7.83,-0.5 1.92,0.94 2.41,1.42 3.65,1.51 1.24,0.09 3.88,0.46 3.06,-1 -0.83,-1.46 -1.32,-2.46 -2.97,-3.45 -1.65,-0.99 -5.2,-2.31 -9,-1.82 z"
           id="path26" />
        <path
           class="cls-27"
           d="m 379.02,449.21 c 0,0 14.34,2.15 15.49,-1.73 1.16,-3.88 -2.15,-8.34 -7.76,-9.17 -5.61,-0.83 -20.72,-1.07 -20.72,-1.07 0,0 -11.31,1.16 -14.94,1.32 -3.63,0.16 -13.79,0.41 -13.79,0.41 l -5.61,0.5 11.34,4.05 0.48,-3.63 c 0,0 9.4,-0.34 14.93,-1 5.53,-0.66 14.76,-1.25 17.56,-0.25 1.56,0.56 2.65,1.24 2.65,1.24 l 0.75,1.53 c 0,0 2.39,1.69 0.76,5.12 -1.01,2.11 -1.13,2.68 -1.13,2.68 z"
           id="path27"
           style="fill:#57422d;fill-opacity:1" />
        <path
           class="cls-19"
           d="m 343.5,429.48 c 0,0 -1.5,3.39 -4.23,4.54 -2.73,1.15 -5.94,3.47 -9.91,4.29 -3.97,0.82 -5.2,0.66 -4.87,1.16 0.33,0.5 -1.07,1.85 1.73,1.21 2.8,-0.64 10.8,-1.48 18.58,-1.38 7.78,0.1 11.84,-1.16 14.42,-1.4 2.58,-0.24 13.31,-0.34 14.8,-0.09 1.49,0.25 6.76,-0.04 6.76,-0.04 0,0 -1.89,-5.74 -2.06,-6.81 -0.17,-1.07 -2.43,-7.35 -2.74,-8.17 -0.31,-0.82 -1.28,-4.71 -2.81,-5.7 -1.54,-0.99 -3.11,-1.98 -7.15,-2.31 -4.04,-0.33 -8.83,-1.24 -11.64,-0.83 -2.81,0.41 -3.8,0.99 -4.79,3.39 -0.99,2.4 -3.42,7.76 -3.42,7.76 z"
           id="path28" />
        <path
           class="cls-26"
           d="m 343.39,540.37 c 0,0 6.83,5.72 10.79,5.94 3.96,0.22 16.51,-3.96 18.94,-5.94 2.42,-1.98 9.69,-7.05 9.69,-7.05 l 6.83,-1.54 12.33,14.54 c 0,0 -13.21,5.28 -17.61,6.38 -4.4,1.1 -13.65,1.54 -17.83,2.2 -4.18,0.66 -15.85,1.76 -15.85,1.76 l -3.52,-2.42 -3.74,-13.87 z"
           id="path29" />
        <path
           class="cls-21"
           d="m 382.7,531.78 c 0,0 10.07,6.44 12.55,8.75 2.48,2.31 4.95,8.59 4.95,8.59 0,0 4,-2.15 5.88,-2.15 1.88,0 3.7,-0.5 3.7,-0.5 l 1.98,-4.62 c 0,0 1.98,-14.04 3.3,-18.99 1.32,-4.95 1.49,-10.4 1.49,-14.04 0,-3.64 -4.79,-14.7 -4.79,-16.84 0,-2.14 -6.94,-7.43 -9.74,-7.6 -2.8,-0.17 -5.94,-1.65 -7.27,0 -1.33,1.65 -8.09,9.58 -9.74,12.55 -1.65,2.97 -2.48,4.79 -2.31,7.27 0.17,2.48 1.11,4.62 -0.02,7.27 -1.13,2.65 -2.29,13.38 0.02,20.31 z"
           id="path30" />
        <polygon
           class="cls-5"
           points="614.79,592.34 -6.39,541.7 -6.39,562.06 614.79,612.71 "
           id="polygon31" />
        <polygon
           class="cls-5"
           points="614.79,649.15 -6.39,596.18 -6.39,616.54 614.79,670.73 "
           id="polygon32" />
        <polygon
           class="cls-5"
           points="614.79,711.59 -6.39,644.85 -6.39,665.22 614.79,733.16 "
           id="polygon33" />
        <polygon
           class="cls-5"
           points="614.79,761.59 -6.39,694.86 -6.39,715.23 614.79,783.17 "
           id="polygon34" />
        <rect
           class="cls-5"
           x="462.88"
           y="506.91"
           width="22.02"
           height="324.10999"
           id="rect34" />
        <rect
           class="cls-5"
           x="137.00999"
           y="480.32001"
           width="22.02"
           height="324.10999"
           id="rect35" />
        <polygon
           class="cls-6"
           points="608.21,595.63 -12.98,544.99 -12.98,565.36 608.21,616 "
           id="polygon36" />
        <polygon
           class="cls-6"
           points="608.21,652.44 -12.98,599.47 -12.98,619.84 608.21,674.02 "
           id="polygon37" />
        <polygon
           class="cls-6"
           points="608.21,714.88 -12.98,648.15 -12.98,668.51 608.21,736.46 "
           id="polygon38" />
        <polygon
           class="cls-6"
           points="608.21,764.89 -12.98,698.15 -12.98,718.52 608.21,786.46 "
           id="polygon39" />
        <rect
           class="cls-6"
           x="456.29001"
           y="510.20001"
           width="22.02"
           height="324.10999"
           id="rect39" />
        <rect
           class="cls-6"
           x="130.42"
           y="483.60999"
           width="22.02"
           height="324.10999"
           id="rect40" />
        <path
           class="cls-30"
           d="m 343.17,430.11 c 0,0 1.29,-1.38 5.82,-1.1 4.53,0.28 14.41,1.1 18.89,2.75 4.47,1.65 12.59,4.62 12.59,4.62 0,0 0.01,-1.91 -0.11,-2.57 -0.12,-0.66 -1.07,-2.11 -1.07,-2.11 0,0 -7.65,-4.73 -18.65,-6.22 -11,-1.49 -15.18,-1.05 -15.89,0 -0.71,1.05 -1.88,3.63 -1.59,4.62 z"
           id="path40" />
        <path
           class="cls-13"
           d="m 369.15,417.18 c -0.6,0.56 -1.32,3.3 -0.77,4.79 0.55,1.49 0.22,0.28 1.71,0 1.49,-0.28 4.46,2.2 5.17,3.91 0.72,1.71 -1.21,-5.61 -2.37,-6.94 -1.16,-1.32 -2.86,-2.59 -3.74,-1.76 z"
           id="path41" />
        <path
           class="cls-28"
           d="m 344.93,503.74 c 0,0 4.13,-7.43 6.28,-9.5 2.15,-2.07 2.23,-3.39 3.96,-4.13 1.73,-0.74 4.21,-2.81 4.95,-3.39 0.74,-0.58 1.32,-2.48 1.24,-4.05 -0.08,-1.57 -0.08,-3.8 0.99,-4.95 1.07,-1.16 2.81,-2.56 4.21,-2.56 1.4,0 2.97,0 3.96,1.32 0.99,1.32 4.29,4.87 4.95,4.71 0.66,-0.16 1.24,-1.9 1.9,-3.39 0.66,-1.49 1.65,-6.28 1.65,-6.28 0,0 0.08,-0.08 -1.73,-0.66 -1.81,-0.58 -4.62,-1.98 -4.62,-1.98 l -3.87,1.18 c 0,0 2.97,-3.95 4.13,-6.02 1.16,-2.06 3.09,-6.09 3.26,-6.91 0.17,-0.82 1.93,3.74 2.26,4.49 0.33,0.75 1.82,3.55 1.9,3.88 0.08,0.33 9.11,3.7 9.11,3.95 0,0.25 -1.34,-0.32 -2.58,0.42 -1.24,0.74 -1.16,1.73 -2.97,1.49 -1.81,-0.24 -3.47,-0.99 -4.05,0.58 -0.58,1.57 -1.24,6.94 -1.65,8.01 -0.41,1.07 0.33,3.96 -2.72,3.72 -3.05,-0.24 -5.53,-1.98 -5.53,-1.98 0,0 -3.72,0.17 -5.04,1.07 -1.32,0.9 -1.57,3.39 -3.06,5.2 -1.49,1.82 -4.95,2.81 -6.61,5.12 -1.65,2.31 -2.89,4.95 -4.46,6.36 -1.57,1.41 -5.86,4.29 -5.86,4.29 z"
           id="path42" />
        <path
           class="cls-28"
           d="m 348.83,479.35 c 0,0 -4.05,-4.29 -5.61,-4.87 -1.56,-0.58 -3.88,-1.73 -3.88,-1.73 0,0 -1.73,0.25 -1.16,2.48 0.57,2.23 0.34,2.23 -0.12,1.9 -0.46,-0.33 -1.69,-1.84 -1.45,-2.42 0.24,-0.58 2.14,-2.87 3.46,-3.69 1.32,-0.82 7.8,-6.2 7.8,-6.2 0,0 1.44,0.64 2.27,1.79 0.83,1.15 0.58,3.03 0.66,3.77 0.08,0.74 -0.88,2.92 -1.38,9.47 -0.12,1.59 -0.83,-0.75 -1.46,-1.37"
           id="path43" />
        <circle
           class="cls-32"
           cx="347.19"
           cy="505.28"
           r="1.49"
           id="circle43" />
        <circle
           class="cls-32"
           cx="346.41"
           cy="514.88"
           r="1.49"
           id="circle44" />
        <path
           class="cls-16"
           d="m 328.19,558.04 24.61,0.83 c 0,0 1.49,4.95 1.49,10.07 0,5.12 0.5,8.26 -3.3,10.9 -3.8,2.64 -14.37,6.44 -16.18,6.61 -1.81,0.17 -5.94,0 -5.94,0 l -1.98,-16.51 1.32,-11.89 z"
           id="path44" />
        <path
           class="cls-16"
           d="m 220.69,567.95 c -1.16,0.17 -7.93,0.99 -9.08,0 -1.15,-0.99 -5.45,-4.29 -6.28,-4.95 -0.83,-0.66 -7.43,-4.13 -7.43,-4.13 0,0 -3.47,17.83 2.97,20.97 6.44,3.14 11.06,3.14 13.05,1.82 1.99,-1.32 7.6,-9.38 7.6,-9.38 z"
           id="path45" />
        <path
           class="cls-17"
           d="m 327.72,507.51 c 0,0 7.1,3.63 10.73,9.08 3.63,5.45 4.95,7.93 6.28,12.55 1.33,4.62 8.42,30.88 8.42,30.88 0,0 -12.72,2.64 -18.99,0.83 -6.27,-1.81 -8.26,-4.62 -8.26,-4.62 l -3.8,-21.73 5.61,-26.99 z"
           id="path46" />
        <path
           class="cls-17"
           d="m 222.03,506.85 c 0,0 -7.6,0 -13.21,15.03 -5.61,15.03 -15.36,32.86 -15.36,32.86 0,0 1.32,1.65 2.97,3.63 1.65,1.98 3.47,9.08 11.31,9.58 7.84,0.5 15.44,1.16 15.44,1.16 l 2.64,-26.09 -3.8,-36.17 z"
           id="path47" />
        <path
           class="cls-12"
           d="m 213.78,628.55 c 0,0 -1.32,29.17 1.98,36.22 3.3,7.05 4.95,13.32 5.28,18.28 0.33,4.96 -3.96,11.56 0,15.52 3.96,3.96 1.65,6.25 1.65,7.91 0,1.66 1.67,3.65 0.67,4.31 -1,0.66 -3.64,2.31 -2.65,3.63 0.99,1.32 0.66,3.3 0,4.95 -0.66,1.65 -4.56,4.29 -2.11,5.28 2.45,0.99 1.19,2.97 0,7.93 -1.19,4.96 -2.84,17.17 -2.18,21.14 0.66,3.97 -2.17,5.94 -2.9,9.91 -0.73,3.97 0,11.56 0,11.56 0,0 -1.24,1.32 -0.32,5.61 0.92,4.29 -0.34,9.25 -0.34,9.25 0,0 7.53,4.62 12.98,5.94 5.45,1.32 13.38,-1.98 13.05,-3.3 -0.33,-1.32 -1.65,-5.61 1.98,-8.26 3.63,-2.65 3.96,-7.22 3.96,-7.22 0,0 -0.66,-8.96 0,-13.25 0.66,-4.29 8.59,-17.5 8.59,-17.5 0,0 0,-12.88 2.31,-15.52 2.31,-2.64 2.97,-0.89 5.28,-8.37 2.31,-7.48 5.71,-23.66 5.71,-23.66 l 3.86,-13.21 c 0,0 -0.33,11.56 0,16.84 0.33,5.28 -0.99,6.61 0,12.22 0.99,5.61 2.64,11.89 3.3,14.37 0.66,2.48 -1.98,3.8 0,6.11 1.98,2.31 0.99,11.26 1.65,16.53 0.66,5.27 0,17.16 0,17.16 0,0 -0.4,8.92 0.29,12.22 0.69,3.3 -1.36,4.29 0,6.94 1.36,2.65 2.35,4.62 2.35,4.62 0,0 -3.96,3.96 0,6.94 3.96,2.98 3.96,5.28 9.25,5.28 5.29,0 16.51,-5.28 16.51,-5.28 0,0 0.66,-6.61 1.65,-8.59 0.99,-1.98 1.65,-4.95 1.65,-7.93 0,-2.98 0.99,-4.62 1.98,-8.92 0.99,-4.3 1.98,-19.16 1.98,-19.16 0,0 1.65,-7.67 1.65,-10.94 0,-3.27 0.66,-6.24 0,-8.88 -0.66,-2.64 2.97,-7.78 1.65,-8.02 -1.32,-0.24 -3.3,-1.79 -2.31,-4.65 0.99,-2.86 2.23,0.78 2.6,-5.83 0.37,-6.61 3.67,-11.89 4.66,-17.17 0.99,-5.28 1.98,-11.56 2.64,-15.52 0.66,-3.96 7.6,-19.16 9.25,-25.76 1.65,-6.6 3.96,-19.39 4.29,-24.72 l 0.33,-5.33 -122.2,0.33 z"
           id="path48" />
        <path
           class="cls-20"
           d="m 328.62,503.79 c 0,0 1.32,8.83 0,15.11 -1.32,6.28 -2.64,12.88 -2.64,12.88 0,0 2.5,32.7 3.23,35.01 0.73,2.31 1.39,13.21 1.39,13.21 0,0 5.28,5.61 5.28,12.22 0,6.61 -1.98,2.72 -1.32,10.11 0.66,7.39 4.29,11.03 5.28,14.66 0.99,3.63 0.99,8.59 0,11.23 -0.99,2.64 -0.66,4.62 -3.63,3.96 -2.97,-0.66 -36.55,2.64 -44.86,2.64 -8.31,0 -41.01,1.32 -46.3,2.64 -5.29,1.32 -28.4,2.31 -30.05,0 -1.65,-2.31 -5.28,-11.56 -2.64,-18.83 2.64,-7.27 1.98,-5.54 2.64,-16.31 0.66,-10.77 -1.32,-7.98 1.65,-15.82 2.97,-7.84 4.95,-9.16 3.63,-11.47 -1.32,-2.31 -4.62,-4.62 -1.65,-8.92 2.97,-4.3 1.65,-13.87 1.65,-17.01 0,-3.14 -3.63,-7.29 -3.3,-14.63 0.33,-7.34 0.33,-17.91 1.98,-22.86 1.65,-4.95 0,-6.94 3.96,-10.57 3.96,-3.63 18.17,-12.06 18.17,-12.06 h 44.26 c 0,0 24.11,2.81 25.43,3.8 1.32,0.99 17.83,10.98 17.83,10.98 z"
           id="path49" />
        <path
           class="cls-32"
           d="m 260.35,566.12 -1.32,-12.08 -13.16,0.5 -1.53,-22.9 13.89,-1.02 0.84,-12.57 h 21.66 l 1.14,8.78 15.57,-0.84 1.29,24.49 -12.86,0.95 v 13.44 l -25.51,1.25 z m 3.74,-17.95 1.32,12.03 14.78,-0.73 v -13.31 l 12.57,-0.93 -0.7,-13.27 -15.15,0.81 -1.17,-9.05 h -11.37 l -0.81,12.2 -13.19,0.96 0.79,11.78 z"
           id="path50" />
        <path
           class="cls-32"
           d="m 237.12,576.38 c 0,-3.16 2.42,-5.41 5.68,-5.41 1.81,0 3.32,0.66 4.31,1.85 l -1.56,1.44 c -0.7,-0.81 -1.58,-1.23 -2.63,-1.23 -1.96,0 -3.35,1.38 -3.35,3.35 0,1.97 1.39,3.35 3.35,3.35 1.05,0 1.93,-0.42 2.63,-1.24 l 1.56,1.44 c -0.99,1.21 -2.5,1.87 -4.32,1.87 -3.25,0 -5.67,-2.26 -5.67,-5.41 z"
           id="path51" />
        <path
           class="cls-32"
           d="m 253.57,573.45 v 2.15 c -0.19,-0.01 -0.34,-0.03 -0.52,-0.03 -1.29,0 -2.14,0.7 -2.14,2.24 v 3.8 h -2.33 v -8.04 h 2.23 v 1.06 c 0.57,-0.78 1.53,-1.18 2.77,-1.18 z"
           id="path52" />
        <path
           class="cls-32"
           d="m 263.12,573.57 v 8.04 h -2.21 v -0.96 c -0.61,0.7 -1.51,1.08 -2.5,1.08 -2.02,0 -3.44,-1.14 -3.44,-3.62 v -4.55 h 2.33 v 4.2 c 0,1.35 0.6,1.94 1.63,1.94 1.03,0 1.85,-0.69 1.85,-2.17 v -3.98 h 2.33 z"
           id="path53" />
        <path
           class="cls-32"
           d="m 271.91,579.82 v 1.79 h -7.18 v -1.41 l 4.1,-4.85 h -3.99 v -1.79 h 6.94 v 1.41 l -4.1,4.85 z"
           id="path54" />
        <path
           class="cls-32"
           d="m 284.47,581.62 -2.02,-2.92 h -2.23 v 2.92 h -2.42 v -10.47 h 4.53 c 2.8,0 4.55,1.45 4.55,3.8 0,1.57 -0.79,2.72 -2.15,3.3 l 2.35,3.36 h -2.6 z m -2.27,-8.49 h -1.97 v 3.65 h 1.97 c 1.48,0 2.23,-0.69 2.23,-1.82 0,-1.13 -0.75,-1.82 -2.23,-1.82 z"
           id="path55" />
        <path
           class="cls-32"
           d="m 288.03,577.59 c 0,-2.42 1.87,-4.14 4.43,-4.14 2.56,0 4.41,1.72 4.41,4.14 0,2.42 -1.85,4.14 -4.41,4.14 -2.56,0 -4.43,-1.72 -4.43,-4.14 z m 6.47,0 c 0,-1.39 -0.88,-2.23 -2.05,-2.23 -1.17,0 -2.06,0.84 -2.06,2.23 0,1.39 0.9,2.23 2.06,2.23 1.16,0 2.05,-0.84 2.05,-2.23 z"
           id="path56" />
        <path
           class="cls-32"
           d="m 295.95,584.19 0.63,-1.69 c 0.25,0.18 0.6,0.28 0.99,0.28 0.58,0 0.96,-0.37 0.96,-1.17 v -8.04 h 2.33 v 8.03 c 0,1.85 -1.09,3.04 -3.04,3.04 -0.72,0 -1.42,-0.13 -1.87,-0.45 z m 2.29,-13.04 c 0,-0.73 0.58,-1.3 1.45,-1.3 0.87,0 1.45,0.54 1.45,1.26 0,0.78 -0.58,1.35 -1.45,1.35 -0.87,0 -1.45,-0.57 -1.45,-1.3 z"
           id="path57" />
        <path
           class="cls-32"
           d="m 310.13,577.03 v 4.59 h -2.18 v -1 c -0.43,0.73 -1.27,1.12 -2.45,1.12 -1.88,0 -3,-1.05 -3,-2.44 0,-1.39 1,-2.41 3.45,-2.41 h 1.85 c 0,-1 -0.6,-1.58 -1.85,-1.58 -0.85,0 -1.73,0.28 -2.32,0.75 l -0.84,-1.63 c 0.88,-0.63 2.18,-0.97 3.47,-0.97 2.45,0 3.87,1.14 3.87,3.57 z m -2.33,2.05 v -0.82 h -1.6 c -1.09,0 -1.44,0.4 -1.44,0.94 0,0.58 0.49,0.97 1.32,0.97 0.78,0 1.45,-0.36 1.72,-1.09 z"
           id="path58" />
        <path
           class="cls-14"
           d="m 215.23,612.15 c 0,0 -0.88,4.18 -1.32,5.72 -0.44,1.54 0,5.06 0,5.06 0,0 30.83,0 40.73,1.54 9.9,1.54 34.35,0 34.35,0 l 36.33,-3.08 12.99,0.44 c 0,0 -2.2,-7.05 -5.72,-9.69 -3.52,-2.64 -6.39,-3.96 -12.11,-3.52 -5.72,0.44 -25.32,1.54 -36.33,1.76 -11.01,0.22 -48.88,2.2 -53.06,1.54 -4.18,-0.66 -15.85,0.22 -15.85,0.22 z"
           id="path67" />
        <path
           class="cls-10"
           d="m 270.29,431.38 c -3.11,1.01 -19.16,5.28 -22.02,11.89 -2.86,6.61 -9.91,16.51 -10.57,24.88 -0.66,8.37 0.66,12.33 -2.64,18.72 -3.3,6.39 -5.5,12.33 -5.5,12.33 0,0 -9.61,7.25 -13.78,12.45 -0.6,0.74 -1.08,1.45 -1.41,2.08 -2.64,5.06 -3.3,13.65 -3.3,13.65 l 3.74,7 1.32,2.47 c 0,0 -3.74,-10.35 -3.3,-12.77 0.44,-2.42 2.86,-12.55 15.41,-20.04 l -1.76,13.87 c 0,0 -0.88,17.39 -2.42,21.58 -1.54,4.19 -1.54,7.93 1.54,13.87 3.08,5.94 3.52,13.43 3.52,13.43 0,0 -5.06,7.93 -3.08,8.59 1.98,0.66 7.05,-3.96 7.05,-3.96 l 4.84,-10.13 -3.3,11.89 3.74,4.13 c 0,0 5.94,-2.81 7.93,-8.09 1.99,-5.28 1.76,-6.17 3.52,-10.57 l 3.08,-7.71 c 0,0 1.76,5.72 0.66,9.47 -1.1,3.75 -1.98,10.13 -2.86,12.55 -0.88,2.42 -3.3,10.13 -1.54,9.03 1.76,-1.1 4.4,-5.94 8.15,-12.55 3.75,-6.61 3.08,-8.37 3.3,-2.64 0.22,5.73 0.88,7.27 0.88,7.27 0,0 -2.86,9.14 0.22,3.25 3.08,-5.89 2.2,-3.69 4.4,-11.61 2.2,-7.92 0.22,-9.91 1.54,-15.63 1.32,-5.72 4.18,-22.46 3.96,-9.69 -0.22,12.77 -0.42,18.5 0.01,23.12 0.43,4.62 -2.02,9.47 -3,12.11 -0.98,2.64 -6.73,9.25 0,4.62 6.73,-4.63 11.57,-10.13 12.89,-14.31 1.32,-4.18 3.08,-8.37 1.98,-12.77 -1.1,-4.4 -5.7,-3.96 -3.95,-14.75 0.15,-0.93 0.29,-1.81 0.43,-2.63 1.43,-8.74 1.98,-11.68 1.98,-11.68 0,0 -1.32,15.19 0.88,23.78 2.2,8.59 3.08,11.67 2.42,15.19 -0.66,3.52 -2.65,9.25 0.21,4.18 2.86,-5.07 3.97,-7.71 1.99,-12.99 -1.98,-5.28 -7.05,-5.28 -2.42,-14.09 4.63,-8.81 7.27,-10.57 7.71,-18.94 0.44,-8.37 0,-20.26 0,-20.26 0,0 0.55,3.52 1.6,12.77 1.05,9.25 0.82,12.11 -0.94,16.73 -1.76,4.62 -5.72,10.79 -5.06,14.75 0.66,3.96 0.66,4.4 1.76,-0.99 1.1,-5.39 5.94,-13.76 7.93,-21.91 1.72,-7.05 2.61,-7.34 1.53,-10.43 -0.17,-0.48 -0.38,-1.03 -0.65,-1.68 -1.98,-4.84 -4.57,-12.11 -4.57,-12.11 0,0 7.87,8.37 8.09,16.29 0.22,7.92 -1.98,14.53 -2.42,23.78 -0.44,9.25 0.22,22.24 4.4,28.4 4.18,6.16 2.86,1.76 2.86,1.76 0,0 -3.52,-4.84 -3.3,-12.33 0.22,-7.49 1.98,-19.82 4.84,-28.4 2.86,-8.58 4.4,-20.04 3.52,-22.68 -0.88,-2.64 -8.81,-12.33 -8.81,-12.33 0,0 12.11,8.81 14.53,10.57 2.42,1.76 5.28,7.1 3.96,13.46 -1.32,6.36 -7.05,12.3 -8.37,12.74 -1.32,0.44 -1.32,3.96 2.42,1.98 3.74,-1.98 12.99,-16.95 12.77,-18.94 -0.22,-1.99 -0.44,-8.59 -4.62,-12.55 -4.18,-3.96 -8.37,-2.2 -14.31,-9.47 -5.94,-7.27 -6.17,-7.27 -7.49,-18.5 -1.32,-11.23 1.54,-5.5 -4.4,-18.28 -5.94,-12.78 -1.1,-12.55 -8.81,-17.39 -7.71,-4.84 -13.17,-6.71 -18.94,-4.84 z"
           id="path68" />
        <path
           class="cls-8"
           d="m 273.67,437.65 c 0,0 5.28,6.43 6.28,13.42 1,6.99 -2.97,11.7 -1.65,19.75 1.32,8.05 2.3,12.01 1.81,16.64 -0.49,4.63 -4.83,5.28 -3.15,10.9 1.68,5.62 0,16.65 0,16.65 l 1.67,5.67 c 0,0 -2.31,0.19 0,-7.1 2.31,-7.29 2.89,-7.57 1.61,-12.88 -1.28,-5.31 2.02,-9.28 2.68,-14.72 0.66,-5.44 1.65,-5.71 0,-10.87 -1.65,-5.16 -2.97,-5.66 -1.65,-13.33 1.32,-7.67 -3.63,-20.77 -7.6,-24.13 z"
           id="path69" />
        <path
           class="cls-8"
           d="m 268.82,463 c -1.09,9.93 3.2,13.57 -2.08,22.98 -5.28,9.41 -5.94,7.82 -4.29,14.72 1.65,6.9 2.36,7.18 -0.8,14.31 -3.16,7.13 -6.47,15.55 -7.13,19.93 -0.66,4.38 -1.65,12.96 -1.65,12.96 0,0 -2.31,-4.13 0,-12.96 2.31,-8.83 7.77,-24.86 7.77,-24.86 0,0 -4.14,-14.69 -1.83,-17.66 2.31,-2.97 5.94,-11.84 5.94,-11.84 L 268.81,463 Z"
           id="path70" />
        <path
           class="cls-8"
           d="m 265.09,445.76 c -0.99,1.42 -9.58,23.62 -9.58,23.62 l -1.65,19.75 c 0,0 -13.54,18.38 -11.23,24.22 2.31,5.84 -2.51,18.39 -0.27,22.68 0.4,0.76 0.7,1.76 0.92,2.91 1.01,5.32 0.19,13.77 -1.53,16.08 -2.09,2.81 -5.07,2.7 -2.42,-4.02 2.65,-6.72 0.02,-27.14 1.98,-30.3 1.96,-3.16 -5.72,1.68 -3.02,-8.84 2.7,-10.52 5.67,-13.82 9.3,-19.76 3.63,-5.94 3,-3.37 3.81,-14.73 0.81,-11.36 13.69,-31.6 13.69,-31.6 z"
           id="path71" />
        <path
           class="cls-23"
           d="m 295.86,657.62 c -1.32,1.98 -0.33,5.72 -7.6,7.16 -7.27,1.44 -10.9,-1.54 -13.21,-1.54 -2.31,0 -5.09,1.98 -8.82,4.29 -3.73,2.31 -10.01,0 -10.01,0 0,0 17.5,-7.6 17.83,-9.91 0.33,-2.31 1.32,-4.29 -4.95,0 -6.27,4.29 -12.22,6.39 -15.52,7.16 -3.3,0.77 -15.85,0 -15.85,0 l 18.83,-4.84 c 0,0 21.8,-11.89 14.86,-8.92 -6.94,2.97 -18.83,10.46 -23.45,8.53 -4.62,-1.93 -19.16,-1.93 -14.53,-2.26 4.63,-0.33 5.94,2.26 5.94,2.26 0,0 -17.17,1.38 -14.2,2.7 2.97,1.32 9.91,1.72 16.18,6.31 6.27,4.59 12.55,3.49 16.51,3.71 3.96,0.22 5.61,1.54 -0.66,2.86 -6.27,1.32 -8.59,-0.33 -6.28,1.32 2.31,1.65 17.82,1.32 9.41,2.97 -7.51,1.47 -18.84,0.58 -26.59,-2.21 -0.93,-0.34 -1.81,-0.7 -2.63,-1.09 -7.6,-3.63 -10.9,-5.28 -10.9,-5.28 0,0 21.14,11.23 28.73,11.89 7.59,0.66 14.2,-2.31 10.9,0 -3.3,2.31 -16.51,15.52 -16.51,15.52 0,0 -7.93,8.23 -3.63,8.24 4.3,0.01 15.19,-4.94 20.48,-8.9 5.29,-3.96 10.57,-11.23 5.28,-3.96 -5.29,7.27 -9.91,12.88 -16.51,16.18 -6.6,3.3 -13.21,6.77 -13.21,6.77 l 8.92,-2.15 4.62,-0.66 c 0,0 -8.92,6.94 -14.86,5.94 -0.64,-0.11 -1.27,-0.23 -1.89,-0.36 -5.07,-1.07 -9.01,-2.78 -9.01,-2.78 0,0 25.76,2.48 27.41,1.49 1.65,-0.99 7.1,-6.61 7.1,-6.61 0,0 0.17,5.48 -7.43,8.35 -7.6,2.87 -14.2,2.64 -10.9,2.76 3.3,0.12 11.23,5.54 12.88,4.65 1.65,-0.89 -13.54,5.38 -15.85,5.71 -2.31,0.33 10.9,2.64 13.87,0 2.97,-2.64 -10.24,5.79 -13.21,6.2 -2.97,0.41 7.27,0.08 10.9,-1.57 3.63,-1.65 3.96,-0.5 -1.65,1.73 -5.61,2.23 -1.98,3.88 0,3.22 1.98,-0.66 1.32,4.29 -4.95,5.94 -6.27,1.65 0,5.31 2.64,3.32 2.64,-1.99 -1.98,0.04 -2.64,2 -0.66,1.96 0.33,7.24 0.33,7.24 0,0 -7.27,0.66 -4.62,3.63 2.65,2.97 1.32,7.27 0.66,8.26 -0.66,0.99 0.66,5.28 -6.28,5.94 -6.94,0.66 -19.16,-3.3 -9.91,0 9.25,3.3 21.14,-1.98 21.8,-3.96 0.66,-1.98 -2.31,-6.94 2.31,-11.89 4.62,-4.95 3.96,-15.93 6.28,-18.86 2.32,-2.93 1.95,-4.92 4.94,-12.18 2.99,-7.26 5.3,-10.57 7.61,-18.83 2.31,-8.26 4.29,-10.57 5.28,-14.53 0.99,-3.96 0.99,-12.55 0.99,-12.55 0,0 2.64,-16.18 1.98,-10.57 -0.66,5.61 7.27,-3.08 10.24,-3.19 2.97,-0.11 23.12,1.87 27.41,2.86 4.29,0.99 12.88,-3.63 13.21,-7.93 0.33,-4.3 -8.26,0.99 -8.26,0.99 0,0 -7.93,5.17 -12.22,4.07 -4.29,-1.1 -15.19,-1.1 -4.29,-2.75 10.9,-1.65 17.83,-5.61 17.5,-6.94 -0.33,-1.33 -5.61,-0.55 -12.22,2.2 -6.61,2.75 -20.15,9.03 -15.52,5.06 4.63,-3.97 10.57,-8.92 10.57,-8.92 l -3.63,-3.3 z"
           id="path72" />
        <path
           class="cls-23"
           d="m 277.69,678.42 c 0,0 11.23,1.98 22.13,2.31 10.9,0.33 18.5,-3.63 20.15,-4.29 1.65,-0.66 5.94,-11.78 7.27,-11.67 1.33,0.11 -5.61,15.63 -6.28,20.26 -0.67,4.63 0,15.52 -1.32,19.49 -1.32,3.97 -3.96,11.23 -5.28,14.86 -1.32,3.63 -3.63,5.94 -3.63,5.94 0,0 -14.53,1.42 -11.23,-2.76 3.3,-4.18 6.61,-4.25 9.91,-7.35 3.3,-3.1 10.24,-13.01 3.96,-7.72 -6.28,5.29 -28.73,0.99 -18.5,0 10.23,-0.99 12.88,1.32 17.83,-4.95 4.95,-6.27 6.28,-7.6 2.97,-8.92 -3.31,-1.32 -1.32,-5.61 -0.33,-7.27 0.99,-1.66 -7.6,3.87 -16.84,2.76 -9.24,-1.11 -14.53,-2.1 -4.95,-1.77 9.58,0.33 19.82,-0.33 20.48,-2.64 0.66,-2.31 -3.47,-0.99 -11.48,-1.32 -8.01,-0.33 -24.85,-4.95 -24.85,-4.95 z"
           id="path73" />
        <path
           class="cls-23"
           d="m 218.55,637.14 c 0,0 0.69,6.94 9.28,6.28 8.59,-0.66 15.19,-3.59 23.78,-3.12 8.59,0.47 10.22,3.78 19.64,1.46 9.42,-2.32 31.22,-3.5 37.83,-2.91 6.61,0.59 14.55,-0.64 14.87,4.6 0.32,5.24 -4.96,9.53 -6.95,11.85 -1.99,2.32 0.66,1.65 2.97,3.63 2.31,1.98 -4.43,7.57 1.42,6.7 5.85,-0.87 8.49,-3.73 9.48,-7.03 0.99,-3.3 1.65,-12.55 2.31,-17.83 0.66,-5.28 0,-10.02 0,-10.02 h -39.3 c 0,0 -41.28,1.52 -49.21,2.8 -7.93,1.28 -26.12,3.59 -26.12,3.59 z"
           id="path74" />
        <path
           class="cls-23"
           d="m 311.71,729.12 c -0.99,0.49 -13.87,8.09 -12.22,7.43 1.65,-0.66 11.23,-2.97 12.22,-2.64 0.99,0.33 -4.29,7.27 -4.29,7.27 0,0 -7.76,0.91 -4.87,2.93 2.89,2.02 5.2,2.05 4.21,7.65 -0.99,5.6 -4.21,21.78 -4.21,21.78 0,0 -1.37,6.61 -3.2,7.93 -1.83,1.32 6.75,-3.49 4.77,-1.58 -1.98,1.91 -18.83,3.89 -16.18,4.88 2.65,0.99 9.42,1.98 11.81,1.32 2.39,-0.66 -2.88,-1.32 -2.39,0.66 0.49,1.98 3.63,-1.98 5.19,0 1.56,1.98 0,5.61 0,5.61 0,0 6.85,-8.45 6.85,-12.48 0,-4.03 1.57,-7.01 2.44,-15.26 0.87,-8.25 0.12,-20.3 0,-25.51 -0.12,-5.21 -0.12,-10 -0.12,-10 z"
           id="path75" />
        <polygon
           class="cls-29"
           points="159.02,480.32 152.44,483.61 130.42,483.61 137.01,480.32 "
           id="polygon75" />
        <polygon
           class="cls-29"
           points="484.9,506.91 478.31,510.2 456.29,510.2 462.88,506.91 "
           id="polygon76" />
      </g>
    </g>
  </g>
</svg>
