<?xml version="1.0" encoding="UTF-8"?><svg xmlns="http://www.w3.org/2000/svg" xmlns:xlink="http://www.w3.org/1999/xlink" viewBox="0 0 595.28 841.89"><defs><style>.cls-1{fill:#7c7db3;}.cls-1,.cls-2,.cls-3,.cls-4,.cls-5,.cls-6,.cls-7,.cls-8,.cls-9,.cls-10,.cls-11,.cls-12,.cls-13,.cls-14,.cls-15,.cls-16,.cls-17,.cls-18,.cls-19,.cls-20,.cls-21{stroke-width:0px;}.cls-1,.cls-3{mix-blend-mode:multiply;}.cls-22{clip-path:url(#clippath);}.cls-2{fill:none;}.cls-3{fill:#4b73a3;opacity:.51;}.cls-23{clip-path:url(#clippath-1);}.cls-24{clip-path:url(#clippath-2);}.cls-25{isolation:isolate;}.cls-4{fill:#60432c;}.cls-5{fill:#7a553b;}.cls-6{fill:#71483f;}.cls-7{fill:#653f37;}.cls-8{fill:#6e4d35;}.cls-9{fill:#311c03;}.cls-10{fill:#58362e;}.cls-11{fill:#845d41;}.cls-12{fill:#361e14;}.cls-13{fill:#07385b;}.cls-14{fill:#160600;}.cls-15{fill:#216193;}.cls-16{fill:#8486be;}.cls-17{fill:#875f43;}.cls-18{fill:#805a3f;}.cls-19{fill:#7f593e;}.cls-20{fill:#fff;}.cls-21{fill:#fcd965;}</style><clipPath id="clippath"><rect class="cls-2" x="101.07" y="303.67" width="417.04" height="555.3"/></clipPath><clipPath id="clippath-1"><path class="cls-2" d="m347.68,557.62s-3.47,1.24-6.61,1.96-8.92.27-9.66-.01-2.06,1.2-2.44.95.62-1.9.62-1.9c0,0,.91-5.55,11.15-4.39,0,0,4.13,0,8.59,3.73"/></clipPath><clipPath id="clippath-2"><path class="cls-2" d="m286.16,560.54c.83.14,2.97,2.12,8.5,2.12s7.1-1.57,8.26-1.57,3.96.47,2.97-.55-4.21-5.39-11.97-4.32-9.41,5.86-9.41,5.86"/></clipPath></defs><g class="cls-25"><g id="Layer_1"><g class="cls-22"><path class="cls-4" d="m269.57,609.01s15.03,36.05,47.89,36.88c0,0,17.64,5.99,37.96-26.57l11.43,31.69s-39.16,17.67-44.94,15.52c-5.78-2.15-33.52-12.06-33.52-12.06l-24.7-14.04,5.87-31.43Z"/><path class="cls-19" d="m352.47,623.82s10.35-12.77,14.09-16.29,9.03-14.09,9.25-16.07c.22-1.98-1.1-16.51,0-20.04,1.1-3.52,5.06-12.11,4.62-20.04-.44-7.93,3.52-6.83-3.08-18.5-6.61-11.67-57.37-24.44-65.35-24.66-7.18-.2-35.94,9.69-35.94,9.69l-16.51,22.02s-8.59,3.74-12.99,8.59c-4.4,4.84-6.61,10.57-3.96,15.41s2.86,1.76,4.62,8.37c1.76,6.61.66,7.71,3.3,13.87s8.81,13.87,8.81,13.87l12.33,13.69s12.28,31.5,46.62,33.15c0,0,17.17,4.4,34.18-23.06"/><path class="cls-18" d="m337.63,560.3c-2.02.16-5.94.22-7.27.88s-3.63,2.64.77,3.3,3.63,1.76,8.59.77,8.37-2.86,9.14-3.63,7.16-.44,6.83-.66-7.16-2.09-9.14-2.09-5.67,1.17-8.92,1.43Z"/><path class="cls-18" d="m301.74,562.25s.99.02-5.5.57-10.9-.37-11.89-.57-1.54,1.34-1.1,2.44,7.27,3.96,2.31,5.72-11.01,5.39-9.03,7.93c1.98,2.53,10.46,4.62,10.46,4.62,0,0,12.22-6.28,15.3-11.34,3.08-5.06,6.39-10.83-.55-9.38Z"/><path class="cls-11" d="m321.69,621.3c-3.29.1-11.16,1.12-18.32-7.08,0,0,6.37-1.34,10.23-.79s4.57-.57,7.62-.33,3.41.41,5.4-.04,3.99-.71,3.99-.71c0,0,7.52-2.24,7.75-.75.23,1.49-4.7,9.32-16.67,9.69Z"/><path class="cls-11" d="m321.22,604.85s-3.81-1.4-4.49-1.4-10.78,5.23-13.36,10.58c0,0,1.88,1.75,4.58.68s5.99-1.45,8.1-2.08,3.64.38,5.17.26,2.94-.77,4.46-1.02,3.41,1.15,5.87.77,6.81.13,6.81-1.28-7.75-7.52-11.39-7.91c0,0-4.94,1.7-5.75,1.4Z"/><path class="cls-11" d="m330.79,563.49c-1.56,1.26-1.16,4.95.83,8.26s5.94,10.07,8.92,11.06,5.12-1.49,11.56-6.11,11.89-7.27,11.06-9.91-15.69-3.3-15.69-3.3c0,0-15.8-.71-16.68,0Z"/><path class="cls-11" d="m339.71,535.74c-8.27,2.76-8.85,2.64-9.87,6.11-1.03,3.47-3.01,6.11,3.6,5.12s7.43-3.8,13.87-2.64,10.4,5.04,10.73,2.85-14.37-12.76-18.33-11.44Z"/><path class="cls-11" d="m316.75,561.67c-1.63,4.88-.83,17.77,1.98,21.35s6.28,1.1,9.25,1.1.5-6.1-1.65-10.81c-2.15-4.71-6.61-20.56-9.58-11.65Z"/><path class="cls-11" d="m336.24,588.26c-2.48-2.64-4.62,1.16-4.13,1.82s4.13,10.57,4.13,10.57c0,0,7.22,6.61,10.3,3.96s-10.3-16.35-10.3-16.35Z"/><path class="cls-5" d="m300.63,642.96c-1.1-2.2-8.81-22.88-9.91-33.89-1.1-11.01-3.96-21.73-3.96-21.73,0,0-11.67-1.61-13.43-7.99-1.76-6.39-4.84-14.71-1.1-20.34,3.74-5.64,5.5-5.66,10.79-11.15,5.28-5.49,14.97-12.1,11.89-18.92s-12.13-17.61-24.45-4.4c-12.32,13.21-28.56,25.37-29,28.5-.84,5.99,10.61,40.07,10.61,45.15,0,18.55,13.48-4.57,15.87,5,7.58,30.34,32.69,39.8,32.69,39.8Z"/><path class="cls-19" d="m120.28,844.88c1.32-1.65,18.83-38.31,18.83-38.31,0,0,38.31-9.25,43.93-4.29s2.31,8.59,2.31,8.59l-8.92,34.02h-56.15Z"/><path class="cls-19" d="m434.71,847.52c-2.31-13.87-15.19-58.13-15.19-58.13,0,0,12.55-4.95,17.83-6.28,5.28-1.32,9.91-2.31,9.91-2.31,0,0-8.26,4.68,0,20.01,8.26,15.33,8.92,28.54,8.92,28.54l3.96,18.17h-25.43Z"/><path class="cls-15" d="m170.38,858.97l14.11-44.81s-12.35-6.72-17.63-6.28-32.15,2.2-32.15,2.2c0,0-4.84,3.08-6.17,1.32-1.32-1.76-4.84-19.38-4.84-19.38,0,0,8.81-28.18,14.53-45.8,5.72-17.61,3.52-16.29,6.61-31.27,3.08-14.97,11.45-59.45,24.22-71.78,12.77-12.33,22.9-21.58,40.95-18.5s33.91-.31,40.95-.6,19.27-2.49,19.27-2.49l2.97,15.52s45.91,23.78,46.9,24.11,32.7-1.65,37.65-15.85-5.28-21.58-5.28-21.58l6.64-10.09s77.25,5.58,82.87,13.17c5.61,7.6,13.54,33.03,14.53,41.94.99,8.92,10.9,67.5,10.9,67.5l7.93,33.89s-13.87,5.94-22.79,10.57-26.42,8.59-26.42,8.59c0,0,11.89,67.16,13.71,69.58H170.38Z"/><path class="cls-16" d="m164.5,650.06s8.08-15.23,19.97-22.66c11.89-7.43,43.16-3.68,49.76-4.45l36.6,2.71s2.97,7.61,5.31,10.7c2.34,3.09,31.27,22.69,35.19,25.11,3.92,2.42,5.9,4.93,14.05,2.24,8.15-2.68,18.01-11.05,18.01-11.05l10.65-8.9,4-7.62-6.75-8.92,2.74-4.57,7.75-7.91c3.08-.26,39.19,3.34,61.21,4.22s22.9,18.94,22.46,23.99-4.4,10.8-6.17,15.44c-1.76,4.64-3.52,17.38-6.17,25.75s-4.4,41.39-7.93,52.2c-3.52,10.81-7.05,34.55-9.25,41.13-2.2,6.58,7.05,24.68,5.72,36.68-1.32,12-2.16,39.3-2.16,39.3l-248.41,5.5,3.08-14.09,11.45-44.06,8.81-26.17,4.84-31.93-4.4-42.64s-11.01-23.85-11.89-25.35-18.5-24.67-18.5-24.67"/><path class="cls-14" d="m320.76,511.96c0,.66-5.06,5.28-10.79,5.94s-15.63.66-18.06,1.76c-2.42,1.1-6.61,5.5-11.23,8.59s-8.59,6.83-11.89,13.43c-3.3,6.61-3.96,23.12-5.28,23.78s-2.2,3.96-3.96,0c-1.76-3.96-3.52-8.81-5.94-10.57-2.42-1.76-5.83-6.5-9.25.88-4.11,8.89,2.14,11.45,2.86,14.64.48,2.15,3.3,8.48,3.96,12,.66,3.52.91,4.06,2.2,7.49,1.49,3.96,5.06,7.49,7.05,6.83s5.5-2.86,5.5-2.86c0,0,.85,8.96,6.14,20.15,0,0,2.71,9.57,1.13,12.22s-8.59,5.5-8.59,5.5c0,0-9.68,3.21-18.5-1.54-8.82-4.75-17.39-8.37-11.89-8.37s12.77-3.3,13.87-5.28c1.1-1.98,1.54-15.85.66-23.78s-2.42-14.31-6.39-26.64c-3.96-12.33-6.03-40.29-.92-49.98,5.1-9.69,27.12-30.17,32.63-33.25s18.94-8.59,25.43-8.15,10.24,1.32,10.24,1.32c0,0,19.38-7.05,33.25,4.84,13.87,11.89,34.13,28.18,36.55,38.75,2.42,10.57,2.86,24,2.64,25.76-.22,1.76-.98,3.74-.98,3.74,0,0-6.29-4.4-7.83-3.08-1.54,1.32-2.86,7.05-4.18,9.47s-3.08,3.52-4.4,3.74-.88-14.31-2.42-16.29-4.84-8.37-7.93-11.23c-3.08-2.86-14.53-6.83-21.8-10.57s-11.89-9.25-11.89-9.25Z"/><path class="cls-14" d="m377.24,567.4s-2.7,7.1-2.98,9.96c-.17,1.77.88,7.05-2.42,9.47-3.3,2.42-5.06,4.4-6.17,4.18s-2.2.02-2.2.02c0,0-6.37,25.75-8.05,28.3s-4.13,6.33-4.13,6.33c0,0,4.69,2.57,8.44,1.46s8.6-2.1,9.91-7.27c1.31-5.16-.22-5.28,2.86-11.45,3.08-6.17,6.39-12.33,6.61-17.39s-.66-10.57-1.32-13.21-.55-10.4-.55-10.4Z"/><path class="cls-17" d="m367,571.52s3.41-.22,4.4-2.42,1.76-3.96,0-5.83-1.54-3.08,0-5.61c1.54-2.53,2.42-7.05,1.98-3.52s1.54,7.16,1.76,7.6,3.74-7.07,3.63-8.32-1.65-5.22-2.86-5-5.39,6.28-5.39,6.28c0,0-4.51,11.78-3.52,16.84Z"/><path class="cls-19" d="m262.96,585.4c1.4-1.4.55-5.39-.55-6.72-1.1-1.32-2.97,1.43-3.41-2.64s1.21-4.07.99-5.94c-.22-1.87-3.19-4.73-4.07-2.97-.88,1.76-1.98,1.87-2.42,4.4s.11,3.08,1.98,4.46,1.98,3.47,1.1,3.69-5.61-4.84-5.61-8.15.66-6.39.99-9.36.55-7.27-.99-2.21-1.54,9.91-1.76,8.04-1.65-7.93-2.2-7.49-.77,2.31,0,4.84c.77,2.53,2.53,8.04,3.85,10.46s.77,4.95,3.19,5.28,3.08-.77,4.18,0,3.08,5.94,4.73,4.29Z"/><path class="cls-5" d="m307.37,581.43c-.63.21-2.46,8.48-2.35,9.47s.99,2.64,3.74,2.97,3.85.88,5.94.66,6.06.1,7.16.05,4.95-.27,5.94-.71,1.76-2.86.55-3.63-2.97-.66-4.07.33-4.18,2.64-5.83,2.09-5.63-2.2-6.45-1.54-1.51.99-.67,1.76,2.26,1.15-.59.99-5.06-1.21-4.62-3.63,1.62-4.75,1.25-6.28c-.37-1.52,1.69-3.08,0-2.53Z"/><path class="cls-9" d="m328.11,550.52c.72.84,1.16,2.64,3.22,2.48s4.95-.24,8.34-1.23,8.09-2.73,9.58-2.48,6.52,1.24,6.77,1.24-7.02-4.29-7.02-4.29c0,0-6.44.5-9.33,1.4s-11.89,2.5-11.56,2.89Z"/><path class="cls-9" d="m307.37,553.01s-4.28,1.56-5.6,1.15-6.61-.39-8.42-1.15-10.57-.92-13.46-.59-5.53,1.87-5.94,1.8,2.97-2.3,6.03-3.29,4.54-1.39,8.09-1.32,8.2.57,11.45.99,8.58,2.16,7.85,2.41Z"/><path class="cls-14" d="m309.09,513.29s-12.15,13.98-13.78,16.4-12.2,25.14-13.63,27.93-3.63,11.26-4.4,11.48,1.76-8.59,4.07-13.54c2.31-4.95,5.83-12.44,7.6-15.96s4.14-10.35,6.37-13.32c2.22-2.97,5.08-7.27,7.18-9.58,2.09-2.31-2.13-.44-4.42,2.04-2.29,2.48-8.35,9.63-11.54,14.48-3.19,4.84-8.04,11.65-9.91,15.18s-5.5,11.56-5.5,11.56c0,0,2.37-8.75,12.55-24.77s13.32-18.17,13.32-18.17c0,0,10.13-4.62,12.11-3.74Z"/><path class="cls-14" d="m309.09,516.37c-.44,0-31.72,39.08-35.18,42.99-3.46,3.91-3.46,2.37-1.26-.6,2.2-2.97,4.73-6.17,8.26-11.01,3.52-4.84,13.28-16.58,14.4-18.06,1.12-1.48,12.12-14.49,12.12-14.49l1.66,1.17Z"/><path class="cls-10" d="m321.59,609.67c-2.48-.33-10.25,1.49-10.25,1.49l1.94,3.78s5.5.64,10.35,0,6.55-1.52,6.55-2.13.94-.5-.28-1.6-8.31-1.54-8.31-1.54Z"/><path class="cls-7" d="m321.64,620.15c-3.08.09-10.46.97-17.17-6.11,0,0,5.97-1.15,9.59-.68s4.28-.5,7.14-.28,3.19.36,5.06-.03,3.74-.61,3.74-.61c0,0,7.05-1.93,7.27-.64s-4.4,8.05-15.63,8.37Z"/><path class="cls-6" d="m321.2,605.94s-3.57-1.21-4.21-1.21-10.11,4.51-12.53,9.14c0,0,1.76,1.51,4.29.59,2.53-.92,5.61-1.25,7.6-1.8s3.41.33,4.84.22,2.75-.66,4.18-.88,3.19.99,5.5.66,6.39.11,6.39-1.1-7.27-6.5-10.68-6.83c0,0-4.63,1.46-5.39,1.21Z"/><g class="cls-23"><path class="cls-20" d="m329.77,556.99s-.98,1.32,1.23,2.97c2.2,1.65,6.81,1.77,9.56,1.11s5.5-1.32,6.06-3.08c.55-1.76,3.41-2.09.44-3.85-2.97-1.76-12.55-1.21-12.55-1.21,0,0-4.73,1.65-4.73,4.07Z"/><circle class="cls-12" cx="337.85" cy="556.66" r="4.24"/></g><g class="cls-24"><path class="cls-20" d="m304.68,559s-.88,2.7-4.06,3.33c-2.65.53-5.37,1.8-8.56.96s-5.1-1.63-5.63-2.22,0-3.82,0-3.82l5.31-3.13s11.98,1.64,12.94,4.87Z"/><circle class="cls-12" cx="294.91" cy="558.42" r="4.24"/></g><path class="cls-8" d="m347.69,557.65c-1.68.61-3.37,1.17-5.09,1.65-.86.24-1.72.48-2.62.6-.89.13-1.78.19-2.68.22-1.79.05-3.58,0-5.37-.22l-.34-.06c-.11-.02-.29-.08-.32-.08-.13-.03-.32.03-.5.12-.37.17-.72.45-1.11.69-.1.06-.21.12-.35.17-.06.03-.15.05-.26.05-.12,0-.27-.08-.34-.2-.16-.44,0-.63.05-.87.16-.45.37-.85.6-1.25l-.04.1c.27-1.18.98-2.12,1.85-2.86.88-.73,1.93-1.22,3.01-1.51.53-.19,1.09-.23,1.64-.35.55-.06,1.11-.11,1.66-.13.55.01,1.11,0,1.66.03l1.64.16h-.04c.85.04,1.63.22,2.42.44.78.22,1.53.52,2.25.87.72.37,1.42.75,2.07,1.22.66.45,1.27.97,1.87,1.49.01.01.02.04,0,.05-.01.01-.03.02-.05,0-.64-.47-1.29-.92-1.98-1.3-.68-.4-1.39-.74-2.1-1.05-.72-.3-1.47-.54-2.22-.73-.75-.19-1.53-.32-2.27-.34h0s-.03,0-.03,0l-1.6-.1c-.53-.03-1.07,0-1.6,0-.53.02-1.06.09-1.59.12-.51.11-1.05.14-1.55.31-1.02.25-1.99.68-2.8,1.32-.8.63-1.46,1.52-1.7,2.46v.03s-.02.05-.04.07c-.22.37-.43.76-.58,1.15-.08.17-.11.45-.1.42-.01-.03-.06-.05-.07-.04,0,0,.02,0,.07-.02.07-.02.16-.07.25-.12.37-.21.73-.49,1.17-.69.22-.09.47-.2.79-.14l.33.09.31.06c1.74.26,3.53.33,5.29.32.89,0,1.77-.05,2.65-.15.88-.1,1.74-.32,2.6-.53,1.72-.44,3.43-.95,5.12-1.52.02,0,.04,0,.05.02,0,.02,0,.04-.02.05Z"/><path class="cls-8" d="m286.17,560.51c.48.12.89.39,1.32.58.43.21.87.39,1.32.55.9.32,1.83.54,2.77.68,1.88.27,3.81.24,5.69.03.94-.12,1.88-.29,2.78-.57.45-.13.89-.3,1.34-.47.45-.16.88-.39,1.43-.44,1-.02,1.96.15,2.84.04.1-.02.2-.06.19-.06,0,0-.02.03-.02.06,0,0-.02-.03-.03-.05-.09-.12-.31-.33-.46-.5-.32-.35-.65-.69-1-1-2.78-2.58-6.77-3.35-10.46-2.77-1.87.23-3.7.76-5.36,1.63-1.63.9-3.15,2.17-3.99,3.88h0s-.03.03-.05.02c-.02,0-.02-.03-.02-.04.68-1.83,2.15-3.27,3.81-4.29,1.68-1,3.58-1.59,5.51-1.9,1.93-.28,3.93-.26,5.84.22,1.92.47,3.69,1.49,5.11,2.83.36.33.69.69,1.01,1.05.17.19.3.31.5.57.04.08.09.17.11.28,0,.15-.04.29-.15.37-.18.15-.33.16-.47.19-1.04.11-1.99-.09-2.9-.09-.41.02-.86.23-1.31.38-.45.17-.91.33-1.38.46-.93.27-1.89.43-2.85.53-1.92.17-3.86.15-5.77-.17-.95-.16-1.89-.41-2.78-.76-.45-.17-.89-.37-1.32-.59-.43-.2-.84-.48-1.29-.6h0s-.03-.03-.02-.05c0-.02.02-.03.04-.02Z"/><path class="cls-21" d="m368.3,583.58c-.5-.24-.22,1.38,0,1.54s2.09,1.93,1.71,5.23c-.39,3.3-2.64,4.13-3.19,4.18s-3.58-.88-3.58-3.63l-.46,2.89s2.55,1.9,4.09,1.74,4.13-1.6,4.51-5.12-.88-5.78-3.08-6.83Z"/><ellipse class="cls-21" cx="372.35" cy="579.97" rx="1.35" ry="1.95"/><path class="cls-21" d="m188.35,632.81l-13.87,7.64s13.21-13.21,19.49-14.86c6.28-1.65,23.12-1.65,23.12-1.65l-10.24,3.47,7.27,10.07-15.52-5.28s-5.61,6.94-6.94,10.9c0,0-3.67-5.77-3.3-10.28Z"/><path class="cls-21" d="m409.3,618.97v10.6l11.23-5.65,15.85,3.47-5.61-5.78s-8.26-2.64-21.47-2.64Z"/><path class="cls-21" d="m261.34,643.08s-12.88,11.89-19.16,14.2-22.13,17.17-22.13,19.16,0-1.98,0-1.98l10.24,68.37s19.49,51.85,25.43,64.07,24.77,38.64,24.77,38.64h-12.55s-39.96-43.67-47.89-109.19c0,0-6.94-45.38-6.94-53.3s-3.96-13.21-2.97-14.2.66-4.29,6.94-8.59c6.28-4.29,5.28-5.61,10.24-8.26s8.59-2.64,12.22-6.28,5.61-6.28,8.26-7.27,5.94,0,5.94,0l7.6,4.62Z"/><path class="cls-21" d="m344.24,661.58s17.5-12.88,25.76-28.07c0,0,1.98-3.96,5.61,0s.99,5.94,4.95,6.28,9.91-2.97,14.53,0,19.82,9.25,25.1,11.56c5.28,2.31,9.58,5.61,9.58,5.61,0,0,3.63,54.83,2.97,64.73-.66,9.91-1.98,29.06-4.62,37.98-2.64,8.92-5.28,15.85-5.28,15.85,0,0,5.97,37.64,6.84,49.85.04.63.08,1.19.09,1.67.33,9.91-12.22,0-12.22,0l-1.65-46.24s8.26-15.85,6.94-68.04l-2.97-46.57s-3.3-4.95-14.2-9.91c-10.9-4.95-10.57-4.29-13.87-6.28s-5.94-4.29-7.6-3.96-5.28,3.96-7.27,2.97-6.28-5.94-6.28-5.94c0,0-17.83,24.11-26.42,18.5Z"/><path class="cls-21" d="m272.13,745.58h11.45s.22-11.01,0-11.45-6.83-8.59-7.71-8.59-20.7,1.98-21.36,1.98-9.27,11.45-9.27,11.45l3.33,35.67s8.81,7.49,9.47,7.49,20.7-1.32,20.7-1.32c0,0,5.72-5.06,6.61-5.72s0-14.53,0-14.53l-12.33-.66.66,10.13-1.32.88-6.95.44-3.84-3.3-1.76-26.26s-.66-1.27,1.54-2.37c2.2-1.1,7.05-.88,8.37-.44s2.2,1.76,2.2,1.76l.22,4.84Z"/><path class="cls-21" d="m334.22,765.4c-.66-.44-12.99-29.5-12.99-29.5h1.98l-.44-8.81s-24-1.76-24.66-1.54c-.66.22.22,10.35.22,10.35h2.64s-9.69,32.15-10.57,32.15-2.64,1.32-2.64,1.32v7.93s20.7.44,20.7,0,.22-5.73.22-5.73l-2.64-.44s1.76-7.71,1.76-8.59,11.21-.66,11.21-.66l2.44,5.72s-1.1,0-2.2.22c-1.1.22,1.98,9.47,1.98,9.47,0,0,16.07-.22,16.29,0,.22.22,0-10.79,0-11.89s-2.64.44-3.3,0Zm-23.56-11.56l1.76-7.6,2.86,6.17-4.62,1.43Z"/><path class="cls-21" d="m376.06,751.5l-3.52-5.26,2.64-3.52-2.42-13.65-8.56-6.61-29.97,3.06,3.4,10.81,2.76-.22,3.85,28.04-3.85,1.25,1.93,12.09s26.26-.86,27.8-2.18c1.54-1.32,6.17-6.83,6.83-8.37.66-1.54-.88-15.43-.88-15.43Zm-22.02-16.49s6.17,0,6.17,3.85-4.62,3.85-4.62,3.85l-1.54-7.71Zm9.47,25.36l-3.3,3.49s-3.52.66-4.18,0c-.66-.66,0-7.27,0-7.27,0,0,5.94-1.76,7.49-1.1,1.54.66,0,4.88,0,4.88Z"/><polygon class="cls-21" points="379.14 753.84 379.14 767.16 387.51 774.64 405.56 772.44 412.39 764.15 406.66 732.81 409.3 731.6 408.2 718.94 388.54 721.14 391.03 733.69 394.11 733.25 397.64 759.74 396.75 762.31 394.77 762.53 391.03 759.74 390.15 752.85 379.14 753.84"/><polygon class="cls-21" points="291.33 663.71 293.17 669.69 299.42 669.59 294.3 673.18 296.33 679.1 291.33 675.33 286.34 679.1 288.37 673.18 283.25 669.59 289.5 669.69 291.33 663.71"/><polygon class="cls-21" points="258.2 663.71 260.03 669.69 266.28 669.59 261.16 673.18 263.19 679.1 258.2 675.33 253.2 679.1 255.23 673.18 250.11 669.59 256.36 669.69 258.2 663.71"/><polygon class="cls-21" points="245.24 681.36 247.08 687.34 253.33 687.24 248.21 690.83 250.24 696.75 245.24 692.98 240.25 696.75 242.28 690.83 237.16 687.24 243.41 687.34 245.24 681.36"/><polygon class="cls-21" points="276.7 682.42 278.53 688.4 284.79 688.3 279.67 691.89 281.7 697.8 276.7 694.04 271.7 697.8 273.74 691.89 268.61 688.3 274.87 688.4 276.7 682.42"/><polygon class="cls-21" points="247.97 703.01 249.8 708.99 256.05 708.88 250.93 712.48 252.97 718.39 247.97 714.63 242.97 718.39 245 712.48 239.88 708.88 246.13 708.99 247.97 703.01"/><polygon class="cls-21" points="279.38 701.13 281.21 707.11 287.47 707.01 282.35 710.6 284.38 716.51 279.38 712.75 274.38 716.51 276.42 710.6 271.29 707.01 277.55 707.11 279.38 701.13"/><polygon class="cls-21" points="310.66 700.08 312.5 706.06 318.75 705.95 313.63 709.54 315.66 715.46 310.66 711.7 305.66 715.46 307.7 709.54 302.58 705.95 308.83 706.06 310.66 700.08"/><polygon class="cls-21" points="341.5 699.5 343.34 705.48 349.59 705.38 344.47 708.97 346.5 714.89 341.5 711.12 336.51 714.89 338.54 708.97 333.42 705.38 339.67 705.48 341.5 699.5"/><polygon class="cls-21" points="372.25 698.38 374.72 704.13 380.93 703.34 376.23 707.47 378.89 713.13 373.51 709.93 368.95 714.22 370.33 708.11 364.85 705.1 371.08 704.52 372.25 698.38"/><polygon class="cls-21" points="400.51 696.85 402.44 702.72 407.74 702.28 403.62 706.14 405.71 711.93 401.24 708.45 397.23 712.47 398.58 706.45 394.01 703.14 399.33 702.91 400.51 696.85"/><polygon class="cls-21" points="398.33 674.73 400.37 680.59 406.03 680.13 401.61 684.01 403.83 689.8 399.06 686.33 394.76 690.37 396.24 684.35 391.37 681.05 397.05 680.8 398.33 674.73"/><polygon class="cls-21" points="368.52 678.02 370.55 683.89 376.22 683.42 371.8 687.3 374.01 693.09 369.24 689.62 364.95 693.66 366.42 687.64 361.55 684.34 367.23 684.09 368.52 678.02"/><polygon class="cls-21" points="380.56 657.14 382.6 663.01 388.26 662.55 383.84 666.42 386.06 672.21 381.29 668.74 376.99 672.78 378.47 666.76 373.6 663.47 379.27 663.22 380.56 657.14"/><path class="cls-21" d="m310.66,689.54l-3.19-5.39-.88,4.91s-5.94-.38-5.72,0,4.9,2.91,4.9,2.91l-.6,4.78,4.29-2.36,6.94,1.87-3.41-3.85,3.41-2.29-5.72-.57Z"/><path class="cls-21" d="m333.42,688.44l4.21.61s-1.75,6.1-.98,5.88,5.28-4.49,5.28-4.49l4.73,3.94-1.87-5.94,3.96-4.29-6.61,1.21-2.97-1.21-.55,2.42-5.21,1.87Z"/><path class="cls-21" d="m349.59,679.85l11.16-8.45-6.72.74-3.08-4.51-.99,5.15s-5.28.03-4.62.47,4.25,3.08,4.25,3.08v3.52Z"/><path class="cls-21" d="m328.94,671.4c.44.3,3.08,3.32,3.08,3.32l-4.51,1.05s-.44,4.4,0,4.73-3.08-2.5-3.08-2.5l-5.67,1.83,2.37-5.13-5.83-4.67h3.46l5.59,3.81,4.59-2.47Z"/><path class="cls-21" d="m185.38,671.4c.66-.25,7.27,3.9,7.27,3.9l9.69-8.99-4.18,30.43s-13.43-20.87-12.77-22.02c.66-1.15,0-3.32,0-3.32Z"/><path class="cls-21" d="m224.82,761.53c-1.13.12-14.78,4.74-16.32,3.64-1.54-1.1-1.76-3.64-1.76-3.64h-5.5v12.45s-3.96-.22-4.4,7.05c-.44,7.27-.22,9.47,0,10.13s-5.72,4.18-5.72,9.69,1.1,19.16,1.1,19.16l10.13,17.83,4.18,7.71,59.77-1.92-41.47-82.09Z"/><path class="cls-21" d="m436.15,670.21s7.08-18.1,7.8-20.5-1-3.99-1-3.99l-4.99,5.38-6.93-4.58-.12,4.62,2.88,7.78-3.28,7.4-.13,5.09,5.76-1.2Z"/><path class="cls-13" d="m320.79,662.57l-6.83,3.74s-27.2-15.41-30.72-16.73c-3.52-1.32-8.02-5.72-10.71-7.71-2.68-1.98-1.41-14.64-1.41-14.64,0,0,5.39,5.72,8.09,7.93,2.7,2.2,31.22,20.96,33.76,21.99s7.82,5.43,7.82,5.43Z"/><path class="cls-13" d="m351.3,625.66c-1.18.66,1.72,4.99,1.72,4.99l2.64,7.38s-10.46,13.68-17.29,16.46c-11.97,4.86-22.59,6.58-27.81,9.91l13.79,10.07s17.73-10.89,22.22-14.69,12.33-11.3,13.65-14.38,2.42-4.62,2.42-9.91-11.33-9.83-11.33-9.83Z"/><path class="cls-3" d="m162.48,653.06s-6.03,55.92-5.57,68.14c.46,12.21,1.16,43.71,1.62,54.96.46,11.25,5.1,24.75,8.81,25.71,3.71.96,5.57,7.07,3.02-1.29s-8.81-26.35-8.81-26.35c0,0-1.16-41.62-.93-45.23.23-3.62,2.09,21.77,6.26,28.84s1.86-4.18.23-8.03-4.41-19.28-4.64-29.57c-.23-10.28-2.32-31.5-1.62-38.57s1.62-28.6,1.62-28.6Z"/><path class="cls-3" d="m168.24,662.65s-2.81,34.95-.97,46.5,4.66,28.73,4.9,19.05c.24-9.68-3.82-27.98-3.82-27.98l1.3-33.84-1.41-3.73Z"/><path class="cls-3" d="m450.43,671.49c0,3.86-4.56,20-6.32,24.56s-5.26,9.47-4.56,12.28,1.66,3.51,5.39-5.97c3.73-9.47,5.48-32.98,5.48-32.98v2.11Z"/><path class="cls-3" d="m450.43,707.63c-.81,6.3-6.32,41.41-9.47,52.28-3.16,10.88-11.58,22.46-5.61,21.76s12.63-12.28,15.09-22.46c2.46-10.18,7.37-35.44,7.37-35.44,0,0-7.08-18.4-7.37-16.14Z"/><path class="cls-3" d="m187.6,790.21c.61-.47-4.17-26.35-6.49-37.28-2.32-10.93-3.94-16.71-2.78-27.96,1.16-11.25,1.39-24.43,1.62-31.18s-.07-17.91-2.01-6.39c-1.94,11.53-2.63,21.49-2.63,29.53s-.46,24.75,2.09,34.71,8.12,40.17,10.21,38.57Z"/><path class="cls-1" d="m212.8,640.78c.97,1.4,12.55,30.18,12.55,30.18,0,0,4.21,18.34,6.67,20.4s4.91-8.47,0-20.4c-4.91-11.93-19.22-30.18-19.22-30.18Z"/><path class="cls-1" d="m216.93,626.74c7.02,2.46,16.84,10.18,23.51,20s9.83,13.33,11.58,12.98-4.21-14.74,0-12.63c4.21,2.11,20.35,14.74,42.46,20.7s34.39,5.97,24.56,0c-9.83-5.97-49.83-20-60-27.02s-42.11-14.04-42.11-14.04Z"/><path class="cls-1" d="m390.97,621.83s-18.6,23.16-28.42,31.23c-9.83,8.07-30.18,13.69-21.76,14.74,8.42,1.05,24.09-11.58,24.09-11.58,0,0,12.75-12.98,17.67-18.95,4.91-5.97,8.07-13.69,8.42-7.02.35,6.67-8.42,22.81-8.42,22.81,0,0-24.91,23.16-32.28,27.02-7.37,3.86-7.37,7.02,1.4,2.81,8.77-4.21,19.3-13.69,30.88-25.62,11.58-11.93,9.12-11.93,18.6-21.05,9.47-9.12,11.23-18.25,11.23-9.47s-8.77,22.46-14.04,31.23c-5.26,8.77-19.3,36.84-17.9,48.77,1.4,11.93,11.58-11.23,11.58-11.23,0,0,18.95-36.93,23.16-46.01,4.21-9.08,3.51-26.27,1.4-27.68s-7.72.7-13.33,4.91-8.07-5.35-8.07-5.35l-4.21.43Z"/></g></g></g></svg>