<?xml version="1.0" encoding="UTF-8"?><svg id="Layer_1" xmlns="http://www.w3.org/2000/svg" xmlns:xlink="http://www.w3.org/1999/xlink" viewBox="0 0 595.28 841.89"><defs><style>.cls-1{clip-path:url(#clippath);}.cls-2,.cls-3{fill:none;}.cls-2,.cls-4,.cls-5,.cls-6,.cls-7,.cls-8,.cls-9,.cls-10,.cls-11,.cls-12,.cls-13,.cls-14,.cls-15,.cls-16,.cls-17,.cls-18,.cls-19,.cls-20,.cls-21,.cls-22,.cls-23,.cls-24,.cls-25,.cls-26,.cls-27,.cls-28,.cls-29,.cls-30,.cls-31,.cls-32,.cls-33,.cls-34,.cls-35,.cls-36,.cls-37,.cls-38,.cls-39,.cls-40,.cls-41,.cls-42,.cls-43,.cls-44{stroke-width:0px;}.cls-45{clip-path:url(#clippath-1);}.cls-46{clip-path:url(#clippath-2);}.cls-3{stroke:#080000;stroke-linecap:round;stroke-linejoin:round;stroke-width:1.01px;}.cls-4{fill:#f8b05c;}.cls-5{fill:#603f38;}.cls-6{fill:#5d5e60;}.cls-7{fill:#5e3429;}.cls-8{fill:#2d1b46;}.cls-9{fill:#64524c;}.cls-10{fill:#381e18;}.cls-11{fill:#393739;}.cls-12{fill:#5a4943;}.cls-13{fill:#3f3e40;}.cls-14{fill:#0e2125;}.cls-15{fill:#230e39;}.cls-16{fill:#231f1f;}.cls-17{fill:#216193;}.cls-18{fill:#c59b96;}.cls-19{fill:#df9f53;}.cls-20{fill:#d0d1d3;}.cls-21{fill:#c9282c;}.cls-22{fill:#c3ab9d;}.cls-23{fill:#d5b2ab;}.cls-24{fill:#d79950;}.cls-25{fill:#d5aea4;}.cls-26{fill:#d5afa1;}.cls-27{fill:#d52b2f;}.cls-28{fill:#a4a6a8;}.cls-29{fill:#be8074;}.cls-30{fill:#c09f92;}.cls-31{fill:#d7e8f1;}.cls-32{fill:#a71e21;}.cls-33{fill:#b2b4b6;}.cls-34{fill:#ceaa9c;}.cls-35{fill:#b57a6f;}.cls-36{fill:#b72326;}.cls-37{fill:#6c3e32;}.cls-38{fill:#fff;}.cls-39{fill:#e3e4e5;}.cls-40{fill:#fcd965;}.cls-41{fill:#efa958;}.cls-42{fill:#f4f4f4;}.cls-43{fill:#e9e9ea;}.cls-44{fill:#011518;}</style><clipPath id="clippath"><rect class="cls-2" x="-16.67" y="303.67" width="622.64" height="555.3"/></clipPath><clipPath id="clippath-1"><path class="cls-2" d="m341.11,340.93s0,.28.48.27,4.44-1.95,4.44-1.95c0,0,.35-.32-.26-.41s-2.23.06-2.73.18-1.58.36-1.94,1.91Z"/></clipPath><clipPath id="clippath-2"><path class="cls-2" d="m334.38,344.27l.14.59s-1.91,1.11-2.24,1.25-1.47.7-1.47.7c0,0-.49-.02-.49-.34s1-1.3,1.41-1.52,1.77-.76,2.64-.68Z"/></clipPath></defs><g class="cls-1"><path class="cls-42" d="m601.57,855.12c5.37-6.94,2.73-320.7,2.73-320.7L-48.98,882.86l650.55-27.74Z"/><polygon class="cls-43" points=".6 682.08 -30.13 874.36 601.57 537.23 600.61 462.5 .6 682.08"/><polygon class="cls-20" points=".6 682.08 600.61 462.5 595.88 444.26 -16.67 652.17 .6 682.08"/><path class="cls-16" d="m277.96,562.55c-.94,3.65-17.34,53.85-17.34,53.85h0l-5.65.71,18.04-56.32,4.95,1.77Z"/><path class="cls-39" d="m261.99,619.62l-9.21-43.91-2.35,1.8,8.54,40.32-4,2.79-21.73-36.32-1.92,1.77,21.94,36.14-36.97-20.97,35.32,22.86-33.67,5.65,32.5-3.98-.47,5.86-30.24,13.89,30.24-11.38,2.12,2.9s-24.02,35.09-23.31,34.85,24.49-32.64,24.49-32.64l-12.95,39.27,15.14-37h5.18l-1.62,39.56,3.49-39.56,2.99-1.18,17.45,34.62-16.15-35.7,4.83-3.15,28.12,20.62-27.65-23.92v-1.88l38.38-1.18-38.85-1.3,37.15-16.68-39.98,15.06,29.91-29.35-32.23,26.62,22.65-40.5-27.12,36.03Z"/><polyline class="cls-39" points="276.53 581.18 276.53 578.37 261.99 619.62"/><polyline class="cls-39" points="412.28 531.66 424.44 581.24 432.22 529.82 421.34 580.1 402.16 538.27 427.27 581.24 451.06 546.81 424.44 582.34 425.24 582.47 446.98 586.07 424.44 584.3 438.97 600.39 423.29 585.32 428.77 610.91 423.29 583.44 416.05 614.68 422.17 584.3 402.86 611.76 420.76 584.3 393.91 585.32 421.39 583.44 392.94 568.71 422 582.59 394.07 555.96 422 581.4"/><path class="cls-28" d="m353.41,614.68l-8.16,21.19s7.22,15.2,8.16,16.16c.94.96,6.59.72,6.59.72l25.28.87.46-4.95-23.63-1.8-7.29-13.97,2.83-16.48-4.24-1.73Z"/><path class="cls-28" d="m359.17,597.72l-6.59-4.71s6.28-13.74,5.34-15.5c-.94-1.77-5.34-6.61-5.34-6.61,0,0-.31,2.33,0,4.22s-.91.08-.14,4.59-2.69,7.87-2.37,11.84c.31,3.97-2.51,2.65,2.51,6.17l5.02,3.52,1.57-3.52Z"/><path class="cls-16" d="m340.96,562.4c-2.04-.94-1.26,5.1,1.26,6.56,2.51,1.45,10.36,6.16,10.36,6.16l1.78-2.19s-4.92-6.6-13.4-10.52Z"/><path class="cls-16" d="m413.41,617.83c-3.01,0-6.12-.38-9.31-1.15-6.13-1.48-11.22-5.7-14.73-12.2-6.53-12.1-7.01-31.13-1.2-47.35,8.59-23.98,30.54-38.14,48.93-31.55,18.81,6.74,22.37,36.61,13.9,60.29h0c-7.36,20.55-21.04,31.96-37.59,31.96Zm14.21-87.82c-13.39,0-27.46,11.64-33.74,29.17-5.18,14.47-4.84,31.92.83,42.43,2.7,5.01,6.34,8.1,10.82,9.19,17.61,4.26,32.1-5.57,39.76-26.96,7.34-20.49,4.94-47.1-10.23-52.54-2.42-.87-4.92-1.28-7.44-1.28Z"/><path class="cls-16" d="m258.9,684.59c-6.15,0-12.31-1.06-18.27-3.19-13.86-4.96-24.91-15.15-31.12-28.67-6.2-13.5-6.82-28.72-1.76-42.86,10.46-29.2,42.23-44.63,70.82-34.39,13.86,4.96,24.91,15.15,31.12,28.68,6.2,13.5,6.82,28.72,1.76,42.86-5.06,14.14-15.21,25.5-28.57,32-7.64,3.72-15.8,5.59-23.98,5.59Zm1.49-106.22c-20.31,0-39.55,12.93-46.93,33.54-4.53,12.63-3.97,26.23,1.56,38.29,5.52,12.03,15.34,21.09,27.65,25.5,12.31,4.41,25.65,3.65,37.55-2.14,11.93-5.8,20.99-15.96,25.51-28.59h0c4.53-12.63,3.97-26.23-1.56-38.29-5.52-12.03-15.34-21.08-27.65-25.5-5.32-1.91-10.77-2.81-16.13-2.81Z"/><path class="cls-33" d="m424.44,581.24l-27.09-29.8,2.84-1.75,27.08,31.55s-.71,4.24-3.06,4.95-36.03,19.78-36.03,19.78v-4.72l36.26-20Z"/><path class="cls-33" d="m370.99,545.21l-6.12,27.1s-30.14,9.64-45.21-11.32c-15.07-20.96-17.43-43.09-17.43-43.09l-3.77-2.12,5.18-22.71s8.95-2.49,15.31-2.49,14.36,2.49,14.36,2.49l-2.59,13.53s4.24,1.18,5.65.94,3.3-.71,3.3-.71c0,0,9.42-.71,11.77,4,2.35,4.71,4.47,6.59,4.95,5.65s2.12-4.71.71-5.42-2.35,1.18-2.83.47-6.59-6.12-8.95-6.83-8.71-.94-8.01-3.3c.71-2.35,2.59-8.35,2.59-8.35,0,0,3.06-6.02.71-6.25s-17.66-2.83-20.96-2.35-10.13,3.06-14.13,3.3-27.55-8.71-27.55-8.71v3.53s12.72,5.89,13.19,6.59,5.18,8.95,5.18,8.95l-6.59,21.43-11.77,39.09s-1.44,4,3.17,6.36c4.61,2.35,6.49-2.12,6.49-2.12,0,0-4.95-2.59-3.53-3.77s12.25-29.09,12.25-29.09c0,0,9.89,31.7,25.43,40.88,15.54,9.17,42.86,6.94,42.86,6.94l-7.54,23.42-36.97-28.94,3.06-4.25-4.47-4-3.87,4.95-27.69-24.49-2.35,7.77,68.05,56.75-2.83,15.07h12.95l28.3-19.89-1.07-2.97-26.06,13.91,10.13-63.58-3.3-6.36Z"/><circle class="cls-6" cx="260.62" cy="629.75" r="13.34"/><path class="cls-16" d="m271.14,627.16s19.31-62.87,17.9-63.58-5.89-1.18-5.89-1.18l-5.39,17.66-12.27,39.8,5.65,7.3Z"/><path class="cls-33" d="m424.44,581.24l-10.6-5.18s-.47-2.12-2.12,0,.94,2.31.94,2.31l10.6,5.93,1.18-3.06Z"/><path class="cls-25" d="m320.13,412.4s-9.65,12.01-11.77,16.72c-2.12,4.71-8.01,16.3-10.83,20.75-2.83,4.45-3.53,6.8-9.89,8.22-6.36,1.41-16.01,7.54-16.01,7.54l6.36,5.42h17.9l15.07-15.54,12.25-12.72,13.66-20.72,1.88-6.83-18.6-2.83Z"/><path class="cls-25" d="m336.02,322.91c-2.83,3.27-8.48,12.25-8.48,15.66s.94,8.48,1.41,9.89c.47,1.41,1.41,3.18,1.06,4.71-.35,1.53.47,4.95,2.47,6.12,2,1.18,5.89,5.53,6.24,6.24s-1.77,4,2.59,4.83c4.36.82,7.06.47,7.42.59s3.65,8.95,8.01,9.54,9.65-1.3,11.66-3.3c2-2,7.54-12.48,7.54-12.48l.47-9.65s-4.95-4.12-5.18-6c-.24-1.88.55-6.75.55-7.22s-1.73-5.97-2.43-7.85-9.89-6.12-9.89-6.12c0,0-21.98-6.63-23.43-4.95Z"/><path class="cls-44" d="m345.74,336.57c-.27-.04-3.45,1.02-4.63,1.53s-3.53,1.69-3.53,1.69c0,0-1.17-1.53.57-2.47s3.39-1.61,5.2-2,2.71.11,5.06.19,3.73.31,3.73.31l-6.4.75Z"/><path class="cls-18" d="m363.73,338.31c.06.33.56,1.35.97,1.71s.53.56.53,1.41.24,1.18.24,1.18c0,0,.56-1.15,1.21-1.18s1.37-.26,1.47-.97.39-1.5-.53-1.91-1.53-1.06-1.53-1.06c0,0-1.3-.83-.74,0s1.68,1.09,2.09,1.5,1.12,1.3.29,1.53-1.42.24-1.74.34-1.58-2.26-1.82-2.31-.51-.63-.44-.24Z"/><path class="cls-18" d="m364.29,335.31c.6.52,1.74.91,2.3.85s1.91.26,2.12.95.56,2.34.5,2.93.56.24.44-.41-.38-1.91-.65-3.06c-.26-1.15-.53-2.33-1.21-2.56s-.46-.15-.82.38-.63.79-1.45.78-1.42-.02-1.24.13Z"/><path class="cls-18" d="m369.91,346.07c-.46.35-1.92.78-2.47.86s-1.57-.31-1.77,0,.43,1.41.67,2.28,1.1,4.83-.7,7.06-8.05,6.59-8.87,7.46-6.12,4.32-6.12,4.32l-6.36,2.59s4.24-.39,5.1,1.1c.86,1.49,3.18,6.08,7.1,7.42,3.92,1.33,7.77-.59,7.77-.59l5.4-7.03s6.53-16.44,6.22-17.03-2.55-.59-2.63-.75-3.34-7.69-3.34-7.69Z"/><path class="cls-44" d="m298.15,564.13s-13.45-.31-21.95,1.57c-8.5,1.88-24.52,4.08-29.85,1.57-5.34-2.51-8.16-12.56,0-14.44,8.16-1.88,17.9-1.88,20.72-2.2s10.68,0,10.68,0l20.41,1.26v12.25Z"/><path class="cls-44" d="m365.11,627.16s-14.03,8.87-17.42,9.5c-3.39.63-15.32.63-16.26,5.02-.94,4.4,2.51,10.36,10.05,10.99s26.37-2.83,33.28-3.45c6.91-.63,8.79,2.83,14.13-3.45,5.34-6.28,4.08-8.48,3.45-11.62-.63-3.14-4.47-8.37-4.47-8.37,0,0-21.38.52-22.77,1.39Z"/><path class="cls-17" d="m342.97,447.25c-1.65.71-44.51,14.36-49.45,17.43-4.95,3.06-14.6,7.3-14.13,11.3s-.02,38.15-.02,38.15l-3.18,25.67s-4.11,4.95-4.11,8.48,2.12,8.01,9.89,10.6c7.77,2.59,17.43-2.12,17.43-2.12,0,0,5.18-20.72,6.36-28.96,1.18-8.24,4.47-26.37,5.18-28.02.71-1.65,13.42,0,21.43-2.35,8.01-2.35,27.32-7.77,27.32-7.77,0,0,3.77,21.19,3.77,24.49s-4,18.6-3.77,23.78,3.77,10.83,3.77,11.54-2.01,33.91-2.01,33.91l3.65,24.49s-1.65,8.24,0,10.6,0,8.71,0,8.71c0,0,20.02-.94,21.43,0,1.41.94,4.71-11.3,4.71-11.3,0,0,9.18-19.78,9.65-27.79.47-8.01-3.77-22.37-3.77-28.73s-.24-11.07,2.83-20.02c3.06-8.95,4.24-16.72,8.95-23.78,4.71-7.06,9.89-11.54,11.3-15.31s3.3-2.59,3.06-9.42c-.24-6.83.24-19.31-3.06-20.49s-77.24-23.08-77.24-23.08Z"/><path class="cls-12" d="m152.79,796.6s2.07,12.37,2.23,20.25c.16,7.88,16.24,5.8,20.91,5.91s34.24-3.76,34.24-3.76c0,0,3.73-4.83,1.42-9.95-2.31-5.12-8.35-5.4-13.73-6.7-10.82-2.62-18.16-1.9-19.01-2.44s-1.95-5.95-1.95-5.95l-24.1,2.65Z"/><path class="cls-9" d="m186.04,798.08s.76,12.52,0,20.37,16.82,7.54,21.84,8.16c5.02.63,37.36,0,37.36,0,0,0,4.59-4.39,2.71-9.73s-8.36-6.28-14.01-8.16c-11.35-3.78-14.94-3.14-15.79-3.77s-5.82-6.87-5.82-6.87h-26.3Z"/><path class="cls-15" d="m149.99,632.65s.23,130.29-.48,144.42c-.71,14.13,2.83,22.83,2.83,22.83l24.93-3.47,9.69-39.52s-27.08-184.31-36.97-124.26Z"/><path class="cls-8" d="m140.45,581.47c-.71,7.99,6.26,51.1,15.85,65.23,9.58,14.13,21.48,145.91,27.13,150.14,5.65,4.24,31.08,2.83,31.08,2.83,0,0,4.95-16.25,6.36-41.68,1.41-25.43,6.47-174.79,5.76-180.48-.71-5.69-86.19,3.96-86.19,3.96Z"/><path class="cls-26" d="m148.46,425.58c.71-.71,4.71-20.96,4.71-20.96l15.78-22.61,16.25-15.78,14.36-5.42s3.77,14.13,3.77,15.54-1.88,3.53-1.41,5.18,2.35,5.42,2.35,8.95-4.24,14.36-4.47,16.01c-.24,1.65-1.41,5.18-1.65,8.01-.24,2.83-1.65,5.18-4.95,4.47-3.3-.71-10.6-1.41-11.07,1.41-.47,2.83-3.53,12.01-3.06,15.78.47,3.77,0,7.77,0,7.77l-30.61-16.95v-1.41Z"/><path class="cls-26" d="m199.33,475.74c.94,0,19.55-.24,25.2-1.18,5.65-.94,22.61-3.53,27.55-4.71s4.47-1.88,8.01-2.12,8.48-1.18,11.54-2.12c3.06-.94,4.71-1.18,7.77,0s13.42,1.88,13.89,2.59-3.06,7.54-3.06,7.54c0,0-1.18,4.24-3.3,3.77,0,0-.47,2.59-2.83,2.83,0,0-1.88,3.77-4.47,3.3s-14.13-3.77-16.25-3.3-13.85,5.18-17.05,5.65-19.68,5.42-20.86,5.89-18.6,2.59-18.6,2.59l-7.54-20.72Z"/><path class="cls-30" d="m182.92,380.14c0,.5-1.57,2.43-1.57,2.43l1.57-1.22-.39,2.47s.31.47.86-.78c.55-1.26-.47-4.12-.47-2.9Z"/><path class="cls-30" d="m182.45,386.1c-.13.73-.15,1.65,0,3.14s.24,1.57,1.1,1.96,2.04,1.02,2.27.55-1.64-.55-1.76-1.73c-.12-1.18.43-2.83.43-2.83,0,0-1.9-1.9-2.04-1.1Z"/><path class="cls-37" d="m202.62,373.93c-.23.22-3.14,3.77-3.3,4.55s.39-.78,1.65-1.57,2.54-.63,2.61-1.49c.06-.86-.52-1.9-.96-1.49Z"/><path class="cls-34" d="m180.37,425.11s-1.53-24.02-1.3-24.84,14.92,14.61,15.78,17.43c.29.94-2.47,1.18-6,1.3s-7.65,1.77-8.48,6.12Z"/><path class="cls-30" d="m184.1,396.86c.47-.08,1.73-1.33,2.36-1.96s.39-.31.51.55-.55,1.44-.51,2.04-2.24.78-2.3.08"/><path class="cls-37" d="m182.27,376.34h0s-3.21,3.51-4.1,6.56-1.57,12.62,5.99,14.66,12.27.16,13.52-.78,2.51-1.57,1.57,0c-.94,1.57-4.08,3.92-7.06,3.92s-7.06-.78-7.06-.78c0,0,2.83,2.35,6.59,2.67s5.97,0,5.97,0c0,0-4.87,1.73-7.54,1.1s-8.79-2.35-10.52-5.18-5.65-9.11-5.34-12.4.78-8.79,3.14-10.83c2.35-2.04,7.54-2.04,7.54-2.04l8.48,1.88s3.14,5.97,8.48,8.63,13.5,1.26,15.23-.16,3.3-3.14,3.3-3.14c0,0-.31,3.77-3.77,4.55s-5.71,2.52-11.46.94c-11.46-3.14-13.5-7.85-13.5-7.85l-9.44-1.76Z"/><path class="cls-27" d="m193.22,459.26c-.94-.63-14.76-18.15-20.72-23.05-5.97-4.9-13.67-11.49-20.81-13.06-7.13-1.57-14.98-7.22-20.95,0-5.97,7.22-17.58,24.8-18.84,36.11-1.26,11.3,6.59,49.61,9.11,56.83,2.51,7.22,11.3,26.06,11.3,26.06,0,0-1.88,26.78.31,37.05,2.2,10.27,6.28,26.06,12.25,26.06s31.71-8.16,31.71-8.16l32.34-5.54s16.95-2.94,19.78-9.53c2.83-6.59,4.08-15.07,0-20.09-4.08-5.02-7.22-15.7-7.22-15.7,0,0-3.71-24.8-6.85-36.11-3.14-11.3-8.14-28.26-12.7-36.58-4.79-8.73-8.71-14.29-8.71-14.29Z"/><path class="cls-32" d="m121.04,516.25l19.44,44.11s16.01-1.57,19-1.57,6.42-.86,6.42-.86c0,0-1.39-.78-1.86-4.87s-5.95-21.9-5.95-21.9c0,0-7.06,2.98-10.05,3.3s-2.67-.47-5.02-3.45-2.67-1.57-9.58-5.49c-6.91-3.92-12.72-10-12.4-9.26Z"/><path class="cls-21" d="m219.86,564.99c-.85-1.04-4.36-4.95-7.77-8.01-3.41-3.06-11.77-2.24-9.89,2.24,1.88,4.47,8.6,8.95,12.13,12.25s6.83,9.07,8.12,4.12c1.3-4.95-2.13-10.04-2.59-10.6Z"/><path class="cls-21" d="m155.69,511.18s-3.51-8.71-5.7-14.6c-2.19-5.89-4.78-10.36-3.25-17.07,1.53-6.71,1.53-11.07,6-16.37,4.47-5.3,7.54-7.65,7.54-6.83s-2.12,2.47-5.3,8.83c-3.18,6.36-4.12,5.18-5.53,11.89s-2.47,15.31-.59,14.25,2.47-7.06,5.89-13.19,6.71-11.66,8.24-12.25.16.24-1.92,5.06c-2.08,4.83-4.95,13.19-6.11,16.72-1.16,3.53-3.04,9.18-2.69,10.6s4.12,11.07,3.41,12.95Z"/><path class="cls-21" d="m148.16,503.65c-4.45-9.55-4.47-10.95-7.3-16.01-2.83-5.06-3.65,4.12-3.65,4.12l8.24,11.89s3.31,1.3,2.71,0Z"/><path class="cls-21" d="m149.99,530.11c-10.08-18.93-10.55-13.89-14.43-25.89s-3.41-23.77-3.41-23.77c0,0,4.24-20.25,1.65-12.83-2.59,7.42-2.83,26.61-2.83,26.61l7.18,18.49,8.13,13.89,3.71,3.51Z"/><path class="cls-26" d="m171.54,557.93s6.12,27.55,7.54,28.73,25.9,39.33,28.26,40.03,14.6-1.41,15.31-2.35c.71-.94-2.35-17.66-4.24-25.67s-3.06-13.42-6.59-19.07-7.54-8.71-7.54-15.54v-7.77l-32.73,1.65Z"/><path class="cls-21" d="m150.64,493.95s4.71,16.17,5.02,22.45,1.88,17.43,3.77,23.71c1.88,6.28,5.81,19.15,5.81,19.15,0,0,2.98,3.77,20.09,1.88,17.11-1.88,34.38-9.73,35.48-11.77,1.1-2.04.94-24.02-2.35-33.12s-11.46-28.89-11.93-29.51-10.52-11.62-25.75-8.63c-15.23,2.98-30.14,15.86-30.14,15.86Z"/><path class="cls-37" d="m154.19,410.91s7.54-.63,10.2-3.14c2.67-2.51,5.18-13.34,5.18-13.34l7.69-8.48s1.88-7.22,3.61-9.11,6.42,3.53,8.01,3.3c3.9-.57,4.55-4.4,6.59-6.91s3.61-.78,5.34-3.92,3.61-5.65,2.35-8.32c-1.26-2.67-3.61-10.52-10.36-15.7s-7.6-7.38-13.92-9.26c-6.33-1.88-17-4.55-26.58,0s-17.74,16.01-19,21.35-4.24,5.5-1.88,14.84c2.35,9.34,1.41,13.58,1.41,13.58l-2.29,8.01s-7.28-.47-6.97,3.92c.31,4.4-.94,4.87-2.04,9.58s-1.26,6.44,0,8.48-3.34-2.35-.88,4.24c2.45,6.59,1.2,4.71,2.14,7.69.94,2.98,3.14,1.26,2.67,5.34-.47,4.08-1.1,6.28-4.08,6.91-2.98.63-5.49.16-5.18,0s.16,2.98,2.67,2.51,6.75-1.73,7.69-3.61,2.2-1.1,1.1,1.1c-1.1,2.2-5.34,5.81-8.95,4.08-3.61-1.73-6.59-6.28-6.44-4.08s3.92,7.22,6.28,7.22,10.52-3.92,10.52-3.92c0,0-3.77,7.69-1.41,8.79,2.35,1.1,5.65,0,5.65,0,0,0-1.88.94-2.67-.78-.78-1.73-1.41-3.77-.47-5.65.94-1.88,2.35-6.12,2.35-6.12,0,0,3.14,7.22,6.44,5.81s5.97-7.85,5.97-7.85c0,0-1.26,6.75-5.49,5.49s-4.55-5.81-4.55-5.81c0,0,.78-10.36,3.45-12.09,2.67-1.73,9.73,2.35,13.19.47,3.45-1.88,4.31-7.85,4.31-7.85,0,0-1.48-5.65-1.64-6.75Z"/><path class="cls-7" d="m129.78,398.39s-.94,12.6,6.24,18.96c7.18,6.36,13.42,6.83,15.54,6s4.43-3.89,4.43-3.89c0,0-4.54,4.59-9.25,1.88-4.71-2.71-10.24-6-10.83-8.12s-3.18-12.95-3.06-14.13-1.53-6-1.53-6c0,0-1.49,4-1.53,5.3Z"/><path class="cls-7" d="m125.66,409.34c.35,1.88.24,11.66,2.59,16.25,2.35,4.59,5.53,8.71,5.53,8.71l-.94,7.06s-4,4.36-4.47,4.12-1.06-5.3-.71-6.95c.35-1.65,1.53-4.71.94-8.12s-3.53-8.95-3.77-11.42.82-9.65.82-9.65Z"/><path class="cls-7" d="m135.67,385.2s9.65-5.53,14.36.82c4.71,6.36,3.41,14.13,1.3,14.72s-12.83-.82-12.83-.82c0,0-6-5.53-2.83-14.72Z"/><path class="cls-27" d="m130.72,384.85s-5.37-3.99-5.92-1.88-2.67,5.29-.79,6.94,6.24,3.18,6.24,3.18c0,0-1.27-2,2,0s5.53,2,5.53,2l2.59-6.95s.02-3.52-1.18-3.77-7.39.24-7.39.24l-1.09.24Z"/><path class="cls-7" d="m160.17,345.28s-21.98,16.22-25.43,38.88c0,0,.63-23.81,5.97-30.71,5.34-6.91,16.33-17.58,19.47-17.58s8.16-1.88,16.33,4.08c8.16,5.97,12.56,3.56,18.52,11.67,5.97,8.11,8.16,13.13,4.4,14.07s-20.09-10.36-20.09-10.36c0,0-13.4-15.02-19.15-10.05Z"/><path class="cls-30" d="m185.14,378.01s-1.52-3.06-4.66-.86-4.01,9.9-2.48,13.55c1.53,3.65.67-1.79.67-1.79l1.02-6.19s1.73-5.81,2.75-5.49,1.8,1.29,2.27,1.47.42-.69.42-.69Z"/><path class="cls-38" d="m170.18,517.97l1.26,9.11s1.26,3.92,1.1,7.06c-.16,3.14.01,7.69.01,7.69l2.97,4.55s13.82,1.41,20.57-.94,7.54-1.26,7.85-2.83-.16-9.11-1.88-12.56-2.98-4.4-3.61-9.11c-.63-4.71-1.57-7.54-1.57-7.54,0,0-12.09,3.14-15.23,3.14s-11.46,1.41-11.46,1.41Z"/><path class="cls-36" d="m162.85,549.33s3.14,1.88,11.77,2.98c8.63,1.1,11.77,1.57,19.15,0,7.38-1.57,12.56-2.04,16.95-4.24s9.42-6.28,8.95-6.59-5.81,2.51-8.01,3.61-10.52,5.18-17.9,5.65c-7.38.47-19.94.16-21.82-.16s-9.11-1.26-9.11-1.26Z"/><path class="cls-36" d="m194.05,542.38l4.79-1.41s-6.75-7.54-7.77-8.71-5.57-5.49-6.59-6.91-2.75-3.45-2.67-3.85,3.45-.24,4.16,0,1.33,1.02,1.18,1.57-.63,2.43-.63,2.43l2.12,2.43.71-2.9-1.1-2.98s-.31-3.61-1.73-3.61-3.93-2.04-4.71-.78-2.04,3.38-2.43,4.47-.71,2.83.78,4.08,13.89,16.17,13.89,16.17Z"/><path class="cls-36" d="m182.28,543.4c.05.23,2.2-4,2.67-5.42.47-1.41,1.65-3.53,1.41-3.61s-2.98-3.61-2.98-3.3-1.96,3.85-2.35,5.02-.86,1.65-.86,2.28,1.88,3.92,2.12,5.02Z"/><path class="cls-26" d="m201.93,620.03s10.54,13.19,11.67,16.46,7.62,25.93,12.53,29.56,7.24,3.85,8.18,3.16-.92-2.67-.92-2.67c0,0,4.23,1.99,5.89,1.02s-1.35-3.92-1.35-3.92c0,0,.87,4.21,4.52,2.86s-1.98-5.73-1.98-5.73c0,0,2.43,2.82,4.61,2.4s-.34-3.87-1.74-5.05c-1.4-1.18-3.53-5.42-5.57-10.37l-2.04-4.94s3.38,6.14,6.61,8.68,7.33,4.78,4.89-.36-2.84-5.33-5.56-9.37-5.12-5.59-10.93-9.18c-9.29-5.74-8.4-17.03-9.29-18.77s-19.5,6.23-19.5,6.23Z"/><path class="cls-4" d="m346.04,447.64s16.01,18.52,32.34,24.02c16.33,5.49,42.54,12.72,42.86,11.77s2.04-8.48,2.04-8.48c0,0,0,3.78,2.51,8.56,2.51,4.78,0,8.08,0,8.08,0,0,.94,3.3,2.67,0s1.57-10.05,2.67-13.82c1.1-3.77,1.73-16.8,1.73-16.8,0,0,1.57,1.88,1.1-2.35-.47-4.24-1.57-4.55-.63-6.44.94-1.88,2.51-.94,1.88-5.81-.63-4.87-4.55-17.9-5.81-21.98s-2.35-4.24-2.35-9.58-.78-5.02-.78-5.97,0-7.22-.63-10.83-2.51-5.81-2.98-8.16c-.47-2.35-4.55-19.15-13.5-24.8-8.95-5.65-22.61-9.73-24.02-10.05s-3.61-1.1-4.08-1.88l-4.24-7.06h-6.9s.46,5.49,2.03,7.22,2.35,5.02,0,10.83c-2.35,5.81-6.28,12.09-6.28,12.09,0,0-4.24,7.06-5.02,8.95-.78,1.88-2.67,2.67-2.67,2.67,0,0-2.35-5.18-4.87-8.63-2.51-3.45-4.55-9.26-4.55-9.26,0,0-7.07,1.88-8.49-.63s-1.33-3.77-1.33-3.77c0,0-6.82,9.11-8.55,13.66-1.73,4.55-6.12,15.86-6.59,18.37-.47,2.51-2.2,4.71-2.67,6.75s0,2.98,0,2.98c0,0-1.1,4.24-1.26,5.02s4.87,4.4,4.87,4.4c0,0,11.15,1.73,12.56,1.57s5.34-2.83,4.87-2.35,1.1,10.05,1.1,10.05l9.11,9.73s-2.51,5.34-.63,8.32l-5.49,3.61Z"/><path class="cls-19" d="m391.73,437.12s-5.34-6.59-4.08-8.63.94-3.92.94-3.92c0,0-1.01-.63-1.13-3.14-.12-2.51-.91-7.54-.91-7.54l-1.57-6.12s.16-7.85,4.24-12.72,13.5-11.77,17.27-11.46,15.7,9.89,15.7,9.89c0,0-3.3,11.62-3.14,15.54s-.47,15.38-.47,15.38c0,0-1.88,5.65-2.35,6.59s-1.88,8.95-1.88,8.95c0,0-6.28-2.2-8.16-2.04s-14.44-.78-14.44-.78Z"/><path class="cls-41" d="m377.27,463.97s16.17,6.91,18.37,8.16c2.2,1.26,12.09,5.02,16.33,4.71,4.24-.31,10.83-1.41,10.68-1.88s-4.4.16-7.22.16-6.44,1.1-11.93-1.26-12.25-5.34-15.07-6.59c-2.83-1.26-11.15-3.3-11.15-3.3Z"/><path class="cls-41" d="m385.43,463.97s13.03,2.04,13.5,1.26-5.34-1.26-5.34-1.26c0,0-7.06-.31-8.16,0Z"/><path class="cls-41" d="m411.02,453.61c.47,0,4.24-.94,7.54-1.57,3.3-.63,5.02-2.17,5.02-2.17,0,0,.63-.65,2.67-.81s8.01,0,8.01,0c0,0-5.18,2.98-7.38,3.45s-7.69,1.57-8.48,1.1-7.38,0-7.38,0Z"/><path class="cls-41" d="m358.43,440.42c-.63-.63-5.97-4.24-7.22-6.12-1.26-1.88-4.24-4.87-2.67-2.04s3.61,11.77,3.61,11.77l6.28-1.57v-2.04Z"/><path class="cls-41" d="m342.26,416.09s-1.26-5.02-.78-8.63c.47-3.61,2.2-10.83,2.35-11.93s2.2-19.62,2.2-19.62l-3.3,16.17s-2.1-2.35-1.36-5.97c.73-3.61,1.2-9.26,1.36-11.77s-2.04,1.1-2.2,4.71-.78,8.63,0,11.3c.78,2.67.94,2.83-1.26-1.1-2.2-3.92-4.24-4.24-4.55-8.32-.31-4.08-.16-9.42-.78-5.97-.63,3.45-.78,8.79.94,11.62s4.88,8.22,4.88,8.22c0,0,3.44,4.66,1.87,3.09-1.57-1.57-5.65-5.39-3.77-3.09s2.98,3.87,2.98,3.87c0,0,1.57,3.61,0,2.04s-5.34-5.91-5.34-5.91c0,0,7.38,6.7,5.97,7.33-1.41.63-.63.16-2.35-1.57s-2.98-1.1-1.41.31,2.98.63,2.83,3.3.78,6.59,0,7.06-5.65,0-9.26-1.88c-3.61-1.88-2.35-.47,0,1.41,2.35,1.88,7.54,2.51,8.01,2.67s-.63,4.55-.63,4.55l3.61-1.88Z"/><path class="cls-41" d="m386.37,440.11s-8.32-11.15-12.09-12.87c-3.77-1.73-5.65.31-10.68-2.98-5.02-3.3-4.55-6.75-5.18-8.01-.63-1.26-3.14-7.06-3.77-11.62-.63-4.55-.31-13.24,0-8.9.31,4.34,5.65,19.41,6.28,22.24.63,2.83,6.39,6.28,9.4,7.06s6.15-1.1,10.39,3.14,8.16,7.54,9.42,8.16,4.11.09,2.05,1.22-5.82,2.54-5.82,2.54Z"/><path class="cls-41" d="m389.04,431.09c0,.48-6.28.83-11.77-5.28-5.49-6.11-7.22-8-10.05-13.49-2.83-5.49-8.63-14.44-6.44-11.46,2.2,2.98,9.26,13.63,11.15,16.47,1.88,2.84,7.97,10.17,10.05,11.63s7.06,1.44,7.06,2.14Z"/><path class="cls-41" d="m389.04,425.35s-5.34,3.61-5.81,2.04c-.47-1.57,3.61,1.88.94-2.04s-1.73-5.18-1.73-5.18l4.71-1.26-9.89-7.54s-8.16-2.35-10.36-8.16c-2.2-5.81-3.45-10.83-3.3-11.62s2.67-4.55,4.08-5.34,2.9.94,1.13,1.73-3.49-1.01-3.49,4.87,6.04,12.75,8.27,15.38,5.39,2.04,7.27,3.61,2.98,3.61,4.55,4.55,3.61,1.57,3.61,1.57c0,0,.94,2.67.78,4.08s-.78,3.3-.78,3.3Z"/><path class="cls-41" d="m368.82,379.82s5.78.47,7.9,0,5.26-4.08,5.41-5.02c.16-.94,1.1-5.34.78-7.69s-.66-9.58.06-8.63,3.7,4.55,2.45,8.16-4.24,13.4-4.24,13.4l.16,7.64s.78-6.44-1.1-6.75-3.78,1.21-5.58.16-5.84-1.26-5.84-1.26Z"/><path class="cls-41" d="m389.04,374.33c-2.1-1.15-5.81,7.38-5.81,10.05s-1.41,5.91-.78,11.36c.63,5.44,2.67,8.74,2.98,8.74s-.47-1.88-.78-5.49c-.31-3.61.31-10.29.78-12.92s5.34-10.79,3.61-11.73Z"/><path class="cls-41" d="m395.95,377.62c-3.82,1.8-6.91,9.42-6.91,9.42l-3.61,7.51s6.28-7.98,8.16-10.02,5.02-8.16,2.35-6.91Z"/><path class="cls-24" d="m393.59,392.22c-.94,1.26-6.91,6.91-6.28,8.79.63,1.88-1.36,4.28-1.47,5.91-.1,1.63-1.38,3.36-.11,4.61s1.11,3.82,1.74,4.26,4.24-.65,7.38-2.38,8.48-6.59,10.05-8.95,4.24-7.22,3.61-11.46c-.63-4.24,1.1-9.46-.78-7.01s-2.04,9.73-2.04,9.73c0,0-1.88,9.72-4.87,11.19s-12.09,7.28-12.56,6.65,6.94-8.79,8.65-10.36,4.38-8.48,1.4-5.97-4.37,4.08-6.11,6.44-3.78,6.75-4.41,6.12-2.01-6.52,2.06-9.54c4.06-3.02,5.79-9.14,5.79-9.14l-2.04,1.1Z"/><path class="cls-24" d="m399.95,417.97c-1.61-.19-4.16,5.65-5.42,6.28s-6.1,2.83-2.34,2.2,5.8-.31,9.09-1.41c3.3-1.1,8.01.94,9.73-1.57s1.41-2.51.63-5.49-1.26-10.83-1.57-9.73-1.95,8.01-1.44,9.73c.5,1.73,2.07,3.77-1.38,4.55s-4.71,1.1-7.3,1.41-4.9,3.67-2.97-.47c1.93-4.15,4.31-5.34,2.97-5.49Z"/><path class="cls-41" d="m421.16,400.65s-1.76,10.29-1.49,14.8c.27,4.51-.95,13.06-.95,13.06,0,0,.54,7.77,0,9.33-.54,1.55,3.79-7,3.79-7,0,0,5.01-10.41,4.46-11.5s-2.17,1.37-2.98,3.87-1.84,7.85-3.25,3.9c-1.41-3.95.67-6.68,2.09-9.64s2.91-11.35,1.83-9.79c-1.08,1.55-3.79,7.31-3.92,7.62s1.76-15.14.41-14.64Z"/><path class="cls-19" d="m356.72,409.49s-3.77-8.48-.94-13.82c2.83-5.34,12.12-13.03,12.12-13.03v-2.67s3.73,2.98,7.81,0c4.08-2.98,5.18-4.71,5.18-4.71,0,0,.78-13.82.94-16.01.16-2.2,0-5.34,0-5.34,0,0-4.08-8.63-4.55-7.85s-2.2,8.79-2.2,8.79c0,0-3.96,11.3-6.77,16.64-2.81,5.34-5.32,8.01-6.73,10.36s-2.67,5.02-3.77,7.22c-1.1,2.2-3.14,2.2-4.24,7.22s1.88,13.97,3.14,13.19Z"/><path class="cls-19" d="m357.97,387.83c-.47-1.73-3.45-2.98-6.75-6.59-3.3-3.61-2.83-5.02-3.3-5.97s1.26-.63-1.57-.94-4.24.63-3.92-.78,4.08-3.45,4.08-3.45l1.78-.09s.85,1.77,3.1,5.08c1.84,2.71,6.58,12.76,6.58,12.76Z"/><path class="cls-25" d="m411.97,438.54c-2.67-.47-11.46-2.04-12.56-2.04s-7.06-1.1-10.05,1.02c-2.98,2.12-5.49,4.95-12.09,6.44s-14.44,2.59-17.58,3.53-14.6,1.73-14.6,1.73c0,0-9.11,1.57-10.36,2.51s-6.91,3.3-6.91,3.3c0,0-4.55,2.83-3.92,4.24.63,1.41,0,1.57,2.2,1.57s5.02-1.73,5.97-1.88,3.61-.78,4.24-.78.78,1.26.78,1.26c0,0-1.57,2.67-4.55,3.14s-7.06-.31-7.54,0-3.77,1.57-3.77,1.57c0,0,4.71,4.4,7.54,3.77,0,0,1.26,2.51,4.08,3.14,0,0,.47,2.67,3.61,3.3s9.26.47,10.05,0,3.14-2.83,4.24-4.24c1.1-1.41-.94-5.05,4.08-5.27s27.16-1.64,32.97-2.26,15.54-4.4,18.52-5.02,3.14-1.1,4.87-4.71,5.08-13.53.78-14.29Z"/><path class="cls-38" d="m348.98,371.36s5.98,8.07,9.4,8.3,6.3-1.78,6.3-1.78l-2.12,3.66-2.88,6.36-1.69-.08-2.43-3.92s-6.45-11.95-6.57-12.54Z"/><path class="cls-14" d="m343.38,325.66s3.38,3.92,6.04,5.26,6.04,2.04,7.14,3.06,4.24,4.87,5.26,5.57c1.02.71,0-2.28,0-2.28,0,0,2.98,1.18,2.75.16s-1.96-2.83-1.49-2.9,2.9.78,3.3.47-1.1-2.34-1.1-2.34c0,0,3.61.38,4.32,2.26.71,1.88,1.1,4.47,1.1,5.97s-.86,4.79-.78,5.18,1.96,6.12,2.35,6.52,2.67-2.9,2.67-2.9l1.94-2.43-.61-5.89s-.16-6.99-1.02-9.42c-.86-2.43-1.18-4.55-3.22-7.93s-4.71-9.73-7.93-11.22-5.89-3.3-8.48-2.75-7.93,2.67-8.16,2.83-7.22-1.88-11.15.08c-3.92,1.96-11.15,12.25-11.15,12.25l-3.77,6.83v12.32l1.81,4.16s1.41-.63,1.65-.55,2.67,3.3,3.69,3.69,1.41.94,1.49.63.39-2.2.24-2.83-2.2-4.08-1.88-6.04,2.67-5.81,2.67-5.81l1.33-5.34,3.61-6.2s-1.73,5.73-1.88,7.61c-.16,1.88,1.81,5.65,1.81,5.65,0,0-.94-4.4-.78-5.73s4.16-9.42,4.16-9.42c0,0-2.12,8.01-1.81,9.42.31,1.41.47,3.85.86,4.16s-.47-3.61.24-5.65c.71-2.04,2.67-8.56,2.67-8.56l-1.33,7.74s.47,2.94.86,3.1.31-4.4.31-4.4l2.28-4.32Z"/><circle class="cls-41" cx="357.26" cy="396.54" r="1.26"/><circle class="cls-41" cx="357.26" cy="403.13" r="1.36"/><path class="cls-31" d="m277.16,475.2s11.42-8.95,14.95-11.3c3.53-2.35,7.18-5.42,10.24-6.36s8.24-2.94,8.6-2.47,20.49,7.06,20.49,7.06c0,0-6.71,1.11-10.71,2.97-4,1.86-20.96,11.87-20.96,11.87l-22.61-1.77Z"/><path class="cls-34" d="m271.41,476.21s4.55-.71,6.28-1.41,1.88-3.22,3.38-3.22,4.95,1.73,7.22.71,4.08-2.12,3.61-2.9-2.43-1.88-4.4-1.88-8.56-2.35-8.56-2.35l-10.36,1.81s-7.54,1.02-7.93,1.1-1.65,1.96-1.65,1.96l2.9,6.2h9.5Z"/><path class="cls-40" d="m255.44,468.88s.99-.08,2.4,4.39,1.88,8.36,1.88,8.36l-.34,2.04s.15.85,1.29,0,1.53.19,1.71-1.04c.18-1.23.29-5.47-.65-8.77-.94-3.3-1.65-6.12-1.65-6.12,0,0-3.51-.07-4.64,1.14Z"/><path class="cls-22" d="m338,356.91s-1.97,1.32-1.62,1.74,1.62,1,1.62,1c0,0,2.74,0,4.15-.55s1.91-.75,3.03-1.71,1.82-1.9,2.24-2.43.98-1.34.58-1.42-2.94.71-4,.92-4.44,1.45-4.44,1.45l-1.56.99Z"/><path class="cls-38" d="m338.25,359.81s-.98-1.96-.59-2.16,1.06,0,1.06,0c0,0-.12-.59.31-.67s1.26.24,1.26.24c0,0,.16-.67.71-.82s1.18,0,1.18,0c0,0,.2-.75.51-.78s1.06.16,1.06.16c0,0,.08-.71.67-.82s1.18.2,1.18.2c0,0,.2-.67.59-.67s.63.24.63.24l1.32-.47-1.24,2.26s-4.28,2.87-5.74,3.31-2.9,0-2.9,0Z"/><path class="cls-29" d="m336.97,359.1s.66-.95,2.15-1.87,1.37-1.19,3.34-1.94c1.96-.75,2.47-.98,3.49-1.06s2.63-.51,3.1-1.3c0,0-.04-.43-.9,0s-3.96,1.3-5.77,1.53-5.3,1.45-6,2.12-.38,2.39.6,2.51Z"/><path class="cls-35" d="m336.97,359.1s-.56,1.49.93,2.59,3.69-.75,4.67-1.3,3.72-3.16,3.72-3.16c0,0,1.61-1.98,2.12-2.57s.81-1.95.44-1.91-2.83,3.17-2.83,3.17c0,0-2.12,1.8-3.3,2.31s-2.71.98-3.34,1.1-2.42-.24-2.42-.24Z"/><path class="cls-18" d="m333.27,342.07c.13-.11,1.69,1.3,1.65,2.9-.04,1.61,0,6.28,0,6.28,0,0-.28,1.77.94,2.2s1.61.27,1.61.27c0,0-.55.43-.9.39s-1.45-.08-1.88-1.18-.3-3.37-.04-4-.16-3.3-.12-4.08-1.49-2.59-1.26-2.79Z"/><path class="cls-18" d="m340.02,348.09s.98-1.31,1.84-.92,1.81.98,1.84,1.57c.03.42-.26,1.18-.43,1.58-.07.16-.12.27-.12.27,0,0-3.45,1.92-3.69,1.88s-.55-.16,0-.67,2.04-1.33,2.24-1.26-.22.2.12.39.9-.24,1.14-.82.55-1.46-.16-2.02-.71-.57-1.37-.65-1.22.74-1.42.65Z"/><path class="cls-23" d="m348.07,340.57c-1.95.65-3.65.24-5.69,2s-3.96,3.38-1.22,4,7.1,2.99,7.54,3.2,2-.26,2.28,2.53.35,5.57,2.24,2.94,3.81-8.16,3.81-8.16c0,0-.98-5.62-2.63-6.17s-2.9-1.49-6.32-.35Z"/><path class="cls-44" d="m333.77,341.08s.35,1.37-.39,1.53-3.02,1.06-3.02,1.06l-1.73,1.77s-.9-1.88.06-3.11c.55-.71,2.26-1.25,2.26-1.25,0,0,2.35-.51,2.83,0Z"/><path class="cls-38" d="m341.11,340.93s0,.28.48.27,4.44-1.95,4.44-1.95c0,0,.35-.32-.26-.41s-2.23.06-2.73.18-1.58.36-1.94,1.91Z"/><g class="cls-45"><ellipse class="cls-10" cx="342.68" cy="339.79" rx="1.1" ry="1.22"/></g><path class="cls-38" d="m334.38,344.27l.14.59s-1.91,1.11-2.24,1.25-1.47.7-1.47.7c0,0-.49-.02-.49-.34s1-1.3,1.41-1.52,1.77-.76,2.64-.68Z"/><g class="cls-46"><ellipse class="cls-10" cx="331.81" cy="345.48" rx="1.1" ry="1.22"/></g><path class="cls-5" d="m346.45,339.09c-1.61.72-3.21,1.45-4.83,2.19l.03-.02c-.15.14-.31.28-.47.42l-.25.2s-.09.06-.14.09c-.06.02-.08.09-.25.04-.03-.03-.06-.08-.07-.12v-.06s.03-.07.04-.1c.02-.06.05-.11.07-.15.05-.09.1-.19.15-.28.05-.09.14-.19.19-.25.04-.06.07-.15.1-.25.11-.4.27-.81.56-1.15.28-.35.68-.58,1.1-.69.84-.2,1.66-.2,2.49-.21.83,0,1.65,0,2.48.12,0,0,.01,0,.01.02,0,0,0,.01-.02.01-.82,0-1.65.04-2.47.08-.81.06-1.65.1-2.42.27-.77.18-1.29.84-1.5,1.63-.04.1-.07.21-.14.31-.08.1-.13.15-.18.24-.05.08-.1.17-.15.26-.03.05-.05.09-.06.13-.01.02-.02.04-.02.05v.02s-.02-.05-.04-.05c-.07-.02.1-.06.16-.12l.24-.18c.16-.13.31-.26.47-.4,0,0,.02-.01.03-.02,1.61-.7,3.25-1.38,4.89-2.05,0,0,.02,0,.02,0,0,0,0,.02,0,.02Z"/><path class="cls-5" d="m330.28,347.08l2.14-1.1c.72-.32,1.4-.75,2.04-1.22l-.04.09v-.57s.08.11.08.11c-.48-.06-1.01,0-1.48.15-.48.14-.95.36-1.36.64-.42.27-.8.61-1.07,1.04-.28.42-.44.91-.52,1.42,0,0,0,.01-.02.01,0,0-.01,0-.01-.01,0-.52.1-1.06.36-1.54.26-.47.65-.88,1.09-1.17.89-.6,1.98-.92,3.06-.76.05,0,.09.06.09.11v.57s0,0,0,0c0,.03-.02.06-.04.08-.67.45-1.36.87-2.12,1.17l-2.18,1s-.02,0-.02,0c0,0,0-.02,0-.02Z"/><path class="cls-10" d="m341.49,340l-.05.45s.1-.86,1.32-1.11c1.32-.28,2.71-.22,3.14-.22s1.55-.61.92-.65-2.96.14-2.96.14c0,0-2.05.1-2.37,1.39Z"/><path class="cls-10" d="m333.59,344.4s-2.16.42-2.54,1.39c-.3.76-.61.89-.61.89,0,0-.16-.09-.3,0s-.14.1-.26.13.17-.49.17-.49c0,0-.19-.47.77-1.14s2.69-1.29,2.77-.78Z"/><path class="cls-13" d="m281.13,498.58s24.15,10.13,23.21,11.54c-.94,1.41-28.96,3.77-33.67,3.53s-15.78,1.41-27.55-4.71c-11.77-6.12-20.37-12.48-20.37-12.48,0,0-9.3-3.3,4.13-5.42,13.42-2.12,28.73-1.88,31.08-1.65s17.16,3.53,23.18,9.18Z"/><path class="cls-16" d="m234.64,560.05c-4-2.59-9.65-12.01-9.65-12.01l-5.27-53.67s23.65,16.82,36.73,18.8c15.61,2.36,47.9-3.04,47.9-3.04,0,0-14.6,54.87-16.95,55.1s-27.32,4.71-33.44,3.53-19.31-8.71-19.31-8.71Z"/><path class="cls-11" d="m257.95,489.4l-.82,24.29s15.54.91,28.49-.27c12.95-1.18,18.71-3.3,18.71-3.3,0,0-37.8-22.37-46.39-20.72Z"/><path class="cls-3" d="m219.71,494.36s23.65,16.82,36.73,18.8c15.61,2.36,47.9-3.04,47.9-3.04"/><path class="cls-33" d="m356.39,516.48c-.47.94-2.59-.94-4.95-5.65-2.35-4.71-11.77-4-11.77-4,0,0-1.88.47-3.3.71s-5.65-.94-5.65-.94l2.59-13.53s-8.01-2.49-14.36-2.49-15.31,2.49-15.31,2.49l-3.52,14.47-6.19-2.98,2.34-13.42s-12.86-6.37-13.33-7.08l1.17-1.71,1.5-.49s15.92,6.14,19.92,5.91,10.83-2.83,14.13-3.3,18.6,2.12,20.96,2.35-.71,6.25-.71,6.25c0,0-1.88,5.99-2.59,8.35-.71,2.35,5.65,2.59,8.01,3.3s8.48,6.12,8.95,6.83,1.41-1.18,2.83-.47-.24,4.47-.71,5.42"/><polygon class="cls-16" points="365.81 491.52 362.11 499.28 339.49 494.36 341.47 487.73 365.81 491.52"/></g></svg>