<?xml version="1.0" encoding="UTF-8" standalone="no"?>
<svg
   viewBox="0 0 595.28 399.99999"
   version="1.1"
   id="svg158"
   sodipodi:docname="Argentina-03-colored.svg"
   width="595.28003"
   height="400"
   inkscape:version="1.3 (0e150ed6c4, 2023-07-21)"
   xmlns:inkscape="http://www.inkscape.org/namespaces/inkscape"
   xmlns:sodipodi="http://sodipodi.sourceforge.net/DTD/sodipodi-0.dtd"
   xmlns="http://www.w3.org/2000/svg"
   xmlns:svg="http://www.w3.org/2000/svg">
  <sodipodi:namedview
     id="namedview158"
     pagecolor="#ffffff"
     bordercolor="#000000"
     borderopacity="0.25"
     inkscape:showpageshadow="2"
     inkscape:pageopacity="0.0"
     inkscape:pagecheckerboard="0"
     inkscape:deskcolor="#d1d1d1"
     inkscape:zoom="0.6526054"
     inkscape:cx="869.59133"
     inkscape:cy="402.23388"
     inkscape:window-width="2400"
     inkscape:window-height="1261"
     inkscape:window-x="2391"
     inkscape:window-y="-9"
     inkscape:window-maximized="1"
     inkscape:current-layer="g157" />
  <defs
     id="defs1">
    <style
       id="style1">.cls-1{clip-path:url(#clippath);}.cls-2{fill:none;}.cls-2,.cls-3,.cls-4,.cls-5,.cls-6,.cls-7,.cls-8,.cls-9,.cls-10,.cls-11,.cls-12,.cls-13,.cls-14,.cls-15,.cls-16,.cls-17,.cls-18,.cls-19,.cls-20,.cls-21,.cls-22,.cls-23,.cls-24,.cls-25,.cls-26,.cls-27,.cls-28,.cls-29,.cls-30,.cls-31,.cls-32,.cls-33,.cls-34,.cls-35,.cls-36,.cls-37,.cls-38,.cls-39,.cls-40,.cls-41,.cls-42,.cls-43,.cls-44,.cls-45,.cls-46,.cls-47,.cls-48,.cls-49,.cls-50,.cls-51,.cls-52,.cls-53,.cls-54,.cls-55,.cls-56,.cls-57,.cls-58,.cls-59,.cls-60,.cls-61,.cls-62,.cls-63,.cls-64,.cls-65,.cls-66,.cls-67,.cls-68,.cls-69,.cls-70,.cls-71,.cls-72,.cls-73,.cls-74,.cls-75{stroke-width:0px;}.cls-3{fill:#4a4a4c;mix-blend-mode:darken;opacity:.23;}.cls-4{fill:#5d5e60;opacity:.28;}.cls-4,.cls-5,.cls-6{mix-blend-mode:multiply;}.cls-5{fill:#8bb3c6;opacity:.54;}.cls-76{isolation:isolate;}.cls-6{fill:#d0d1d3;opacity:.8;}.cls-7{fill:#f2f2f3;}.cls-8{fill:#775d4d;}.cls-9{fill:#5e483a;}.cls-10{fill:#794837;}.cls-11{fill:#844e3d;}.cls-12{fill:#7b6050;}.cls-13{fill:#2d2721;}.cls-14{fill:#2d2a2a;}.cls-15{fill:#48352b;}.cls-16{fill:#705748;}.cls-17{fill:#9b755d;}.cls-18{fill:#9a7965;}.cls-19{fill:#886b59;}.cls-20{fill:#957562;}.cls-21{fill:#a2876f;}.cls-22{fill:#302411;}.cls-23{fill:#32261f;}.cls-24{fill:#321f1c;}.cls-25{fill:#3a3b3b;}.cls-26{fill:#3d2c23;}.cls-27{fill:#1a120b;}.cls-28{fill:#0a0200;}.cls-29{fill:#1c1711;}.cls-30{fill:#0b0000;}.cls-31{fill:#231f1f;}.cls-32{fill:#a8aaac;}.cls-33{fill:#241f19;}.cls-34{fill:#c49e88;}.cls-35{fill:#d1a991;}.cls-36{fill:#df727a;}.cls-37{fill:#c97ea5;}.cls-38{fill:#dcddde;}.cls-39{fill:#c17ba0;}.cls-40{fill:#b09257;}.cls-41{fill:#b08f7b;}.cls-42{fill:#c09e5e;}.cls-43{fill:#a58971;}.cls-44{fill:#bf9b86;}.cls-45{fill:#a78875;}.cls-46{fill:#b1907c;}.cls-47{fill:#a68a72;}.cls-48{fill:#a98d74;}.cls-49{fill:#a9796a;}.cls-50{fill:#cfab6f;}.cls-51{fill:#adc2d7;}.cls-52{fill:#85919c;}.cls-53{fill:#b7d0dc;}.cls-54{fill:#bb9a5c;}.cls-55{fill:#9d7b67;}.cls-56{fill:#c2c4c6;}.cls-57{fill:#73594a;}.cls-58{fill:#323132;}.cls-59{fill:#8e6b54;}.cls-60{fill:#97a5b2;}.cls-61{fill:#806453;}.cls-62{fill:#7d5f57;}.cls-63{fill:#926e56;}.cls-64{fill:#7d6151;}.cls-65{fill:#a1afbe;}.cls-66{fill:#a17a61;}.cls-67{fill:#a16e62;}.cls-68{fill:#9f6358;}.cls-69{fill:#85644f;}.cls-70{fill:#876958;}.cls-71{fill:#664f41;}.cls-72{fill:#81635b;}.cls-73{fill:#826554;}.cls-74{fill:#fff;}.cls-75{fill:#e4deee;}</style>
    <clipPath
       id="clippath">
      <rect
         class="cls-2"
         x="-8.0299997"
         y="426.75"
         width="609.83002"
         height="422.22"
         id="rect1" />
    </clipPath>
  </defs>
  <g
     class="cls-76"
     id="g158">
    <g
       id="Layer_1">
      <g
         class="cls-1"
         clip-path="url(#clippath)"
         id="g157"
         transform="translate(70.486698,-357.03045)">
        <polygon
           class="cls-23"
           points="-8.03,872.64 -8.03,637.86 601.8,697.58 601.8,903.01 "
           id="polygon1"
           transform="matrix(0.92154151,-0.10221033,-0.09468696,-0.99476281,90.003617,1616.214)" />
        <path
           class="cls-3"
           d="m 515.13,687.01 c -1.95,13.98 -14.53,35.67 -14.53,35.67 v 68.04 l 3.96,58.26 c 0,0 -16.51,9.56 -19.82,10 -3.31,0.44 -64.91,-6.5 -64.93,-6.76 -0.02,-0.26 -14.33,-35.74 -14.33,-35.74 v -89.83 l 1.5,-50.2 108.15,10.57 z"
           id="path1" />
        <path
           class="cls-3"
           d="m 367.61,700.66 c -1.95,13.98 -14.53,35.67 -14.53,35.67 v 68.04 l 3.96,58.26 c 0,0 -16.51,9.56 -19.82,10 -3.31,0.44 -64.91,-6.5 -64.93,-6.76 -0.02,-0.26 -14.33,-35.74 -14.33,-35.74 V 740.3 l 1.5,-50.2 108.15,10.57 z"
           id="path2" />
        <path
           class="cls-4"
           d="m 201.32,511.3 13.26,18.72 v 21.25 c 0,0 -19.92,10.9 -13.26,13.98 6.66,3.08 19.02,11.69 19.02,11.69 0,0 -0.99,8.64 6.57,17.38 7.56,8.74 9.57,29.88 9.57,29.88 v 32.65 l 93.03,-39.63 c 0,0 6.15,-96.18 12.33,-92.92 6.18,3.27 13.21,7.93 15.85,17.61 2.64,9.69 1.32,20.39 0,23.86 -1.32,3.48 9.91,22.26 9.91,22.26 0,0 17.39,11.12 20.48,22.13 3.08,11.01 48.44,-11.23 54.61,-22.13 6.17,-10.9 22.9,-60.22 22.9,-60.22 0,0 27.3,8.37 29.06,13.21 1.76,4.84 7.93,34.79 7.93,34.79 0,0 11.01,15.85 8.81,23.78 -2.2,7.93 -7.96,14.24 -7.96,14.24 l 3.55,35.97 c 0,0 8.07,23.34 4.69,31.27 -3.37,7.93 -11.3,15.85 -11.3,15.85 L 454.13,707.93 158.2,680.19"
           id="path11" />
        <path
           class="cls-48"
           d="m 142.25,521.54 c 0,0 -0.06,3.29 0.6,9.56 0.66,6.28 2.53,44.52 11.78,46.17 9.25,1.65 26.26,9 28.24,9.33 1.98,0.33 13.87,-14.2 13.87,-14.2 0,0 -6.23,-4.49 -7.88,-11.1 -1.65,-6.61 -1.45,-11.03 -0.13,-17.64 1.32,-6.61 2.39,-7.6 1.73,-13.54 -0.66,-5.94 -1.98,-10.24 -1.98,-10.24 0,0 -2.97,-8.26 -16.18,-15.19 -13.21,-6.94 -18.83,-5.94 -18.83,-5.94 l -11.23,22.79 z"
           id="path12" />
        <path
           class="cls-43"
           d="m 184.93,521.21 c 0,0 -4.62,5.97 -8.59,5.21 -3.97,-0.76 -7.6,-2.24 -8.59,-3.4 -0.99,-1.16 -3.47,-3.96 -4.79,-3.3 -1.32,0.66 -2.97,6.79 -4.29,6.7 -1.32,-0.09 -3.14,3.04 -7.1,2.88 -3.96,-0.16 -5.28,-0.83 -6.44,-1.32 -1.16,-0.49 -3.47,-3.1 -3.47,-3.1 l 2.31,-9.94 11.06,-10.23 19.49,-0.67 c 0,0 11.26,16.18 10.4,17.17 z"
           id="path13" />
        <path
           class="cls-47"
           d="m 181.76,517.68 c 0,0 4.06,6.82 -0.4,11.61 -2.44,2.62 -6.55,3.31 -9.76,3.39 -1.66,0.04 -2.65,1.85 -1.78,3.27 0.87,1.42 2.81,4.72 2.19,5.83 -1.49,2.64 -10.88,4.37 -12.03,4.37 -1.15,0 -5.12,-1.96 -4.95,-2.88 0.17,-0.92 0.83,-4.72 -1.49,-3.23 -2.32,1.49 -6.15,5.19 -6.65,5.52 -0.5,0.33 0.39,7.05 0.39,7.05 0,0 7.58,8.24 16,11.71 8.42,3.47 20.4,-4.79 21.76,-8.59 1.36,-3.8 2.35,-7.09 3.83,-11.89 1.48,-4.8 -0.33,-16.66 0,-17.41 0.33,-0.75 -5.14,-11.06 -7.12,-8.75 z"
           id="path14" />
        <path
           class="cls-37"
           d="m 193.22,569.59 c 0,0 3.53,4.02 -5.05,6.89 -8.59,2.86 -35.67,-5.61 -35.67,-5.61 l -12.55,-9.56 c 0,0 -7.93,15.06 8.92,17.37 16.85,2.31 34.68,4.93 40.62,3.29 5.94,-1.64 11.56,-8.69 10.57,-9.13 -0.99,-0.44 -2.78,-2.1 -6.84,-3.25 z"
           id="path15" />
        <path
           class="cls-75"
           d="m 223.84,602.79 c -0.66,-1.98 -10.57,-24.8 -14.53,-26.77 -3.96,-1.97 -10.82,-4.13 -10.82,-4.13 0,0 1.1,6.85 -14.28,8.14 -15.37,1.29 -27.56,-6 -31.71,-9.16 -4.15,-3.16 -12.55,-9.56 -12.55,-9.56 0,0 -9.91,-2.84 -13.87,0 -3.96,2.84 -19.16,22.04 -19.16,22.04 l 2.64,0.7 c 0,0 -5.61,-2.88 4.29,-0.65 9.91,2.22 7.81,8.98 7.81,8.98 l -7.7,32.24 41.51,17.15 26.09,17.16 24.77,-10.23 2.64,-29.72 14.86,-16.18 z"
           id="path16"
           style="fill:#d5ccff;fill-opacity:1" />
        <polygon
           class="cls-37"
           points="231.1,611.74 223.06,600.86 206.99,611.74 213.6,618.97 "
           id="polygon16" />
        <path
           class="cls-17"
           d="m 274.03,783.42 c 2.2,2.45 0,25.35 0,25.35 l -3.52,27.3 v 21.14 l 13.46,5.28 c 0,0 6.36,-20.7 6.8,-26.42 0.44,-5.72 0,-18.06 0,-18.06 0,0 0.38,13.46 0.63,13.35 0.25,-0.11 -0.67,9.11 -0.43,12.63 0.24,3.52 -5.04,20.7 -2.4,21.58 2.64,0.88 18.5,4.4 19.38,3.08 0.88,-1.32 5.72,-14.53 7.93,-24.22 2.2,-9.69 0,-18.5 2.64,-29.5 2.64,-11.01 5.98,-22.02 4.75,-24.66 -1.23,-2.64 -26.24,-16.66 -26.24,-16.66 l -22.98,9.81 z"
           id="path17" />
        <path
           class="cls-69"
           d="m 289.12,789.34 c 0,0 2.57,41.56 1.64,46.74 -0.93,5.17 -4.84,25.54 -4.84,28.18 0,2.64 10.02,5.72 15.58,6.61 5.56,0.89 7.76,-3.93 10.48,-12.89 2.72,-8.96 4.56,-9.33 4.91,-21.95 0.36,-12.62 -0.15,-14.15 2.3,-23.88 2.45,-9.73 4.42,-19.66 4.07,-21.86 -0.35,-2.2 -34.14,-0.94 -34.14,-0.94 z"
           id="path18" />
        <path
           class="cls-20"
           d="m 206.98,652 c 0,0 -6.94,6.94 -4.29,12.55 2.64,5.61 2.31,6.25 5.61,6.92 3.3,0.67 3.63,-2.63 3.63,-2.63 v 8.92 c 0,0 -3.96,1.98 -7.93,7.27 -3.96,5.28 3,25.4 3,25.4 l 26.39,5.97 c 0,0 22.46,5.61 29.39,-4.62 6.93,-10.23 -3.42,-23.55 -4.95,-26.81 -1.53,-3.26 -11.23,-7.21 -11.23,-7.21 0,0 1.98,-2.64 3.3,-9.58 1.32,-6.94 1.65,-13.21 1.32,-16.18 -0.33,-2.97 -0.33,-16.18 -1.98,-17.83 -1.65,-1.65 -3.3,-3.3 -10.9,-3.96 -7.6,-0.66 -16.51,-3.63 -20.48,0 -3.96,3.63 -12.22,2.33 -10.9,21.8 z"
           id="path19" />
        <path
           class="cls-19"
           d="m 213.04,647.41 c 0,0 -1.65,8.17 0,12.55 1.65,4.38 2.86,9.05 2.86,9.05 l 1.16,11.81 -5.12,-5.61 -0.55,-9.87 c 0,0 -2.23,-4.54 -2.15,-10.82 0.08,-6.28 1.16,-9 1.16,-9 0,0 2.48,-4.62 2.64,1.9 z"
           id="path20" />
        <path
           class="cls-19"
           d="m 206.76,660.49 c -0.34,-0.77 0.91,2.89 -0.5,1.24 -1.4,-1.65 -2.89,-1.89 -2.31,0.62 0.58,2.52 0.83,3.84 1.98,4.58 1.15,0.74 1.9,2.48 1.57,0.66 -0.33,-1.82 1.15,-1.57 1.15,-1.57 0,0 1.82,1.12 0.33,-1.59 -1.49,-2.7 -1.32,-6.78 -1.32,-3.96 0,2.82 0,2.74 0.08,3.48 0.08,0.74 -0.2,1.98 -1.05,1.41 -0.85,-0.57 -1.92,-1.98 -1.18,-1.98 0.74,0 2.72,0.5 1.24,-2.89 z"
           id="path21" />
        <path
           class="cls-61"
           d="m 212.07,673.8 c 0,0 2.81,6.44 9.91,9.25 7.1,2.81 9.74,3.14 10.9,2.81 1.16,-0.33 7.27,-3.8 7.27,-3.8 l 2.81,-2.18 c 0,0 1.32,1.85 -3.63,4.98 -4.95,3.14 -6.94,6.61 -13.38,4.79 -6.44,-1.82 -12.22,-4.79 -12.88,-4.79 -0.66,0 -3.14,-5.78 -3.14,-5.78 l 2.31,-1.16 -0.17,-4.13 z"
           id="path22" />
        <path
           class="cls-74"
           d="m 215.79,687.89 c 0,0 -3.63,-11.92 -4.35,-10.51 -1.37,2.66 -4.66,1.32 -4.35,3.69 0.32,2.37 5.5,10.89 5.5,10.89 0,0 -1.89,5.6 0,7.6 1.89,2 -4.63,8.35 0,9.9 4.63,1.55 34.58,10.17 34.58,10.17 l 10.13,-13.46 c 0,0 4.84,-16.97 0,-19.27 -4.84,-2.31 -10.24,-12.55 -10.68,-9.13 -0.44,3.42 -1.21,17.1 -0.33,20.11 0.88,3.01 3.52,6.09 0,9.17 -3.52,3.08 -15.41,2.41 -15.41,2.41 0,0 -13.65,1.55 -13.21,-3.3 0.44,-4.85 -1.87,-18.28 -1.87,-18.28 z"
           id="path23" />
        <path
           class="cls-56"
           d="m 230.87,709.46 c -4.26,-1.14 -20.7,-10.34 -22.02,-10.78 -1.32,-0.44 -6.17,-11.68 -4.84,-11.79 1.33,-0.11 7.93,-9.82 7.93,-9.82 0,0 -14.34,3.11 -16.42,11.92 -2.08,8.81 -14.41,47.12 -14.41,47.12 0,0 0,75.3 3.96,87.19 3.96,11.89 8.37,22.02 8.37,22.02 h 20.26 l -1.76,-16.73 8.37,-17.17 5.28,13.96 c 0,0 -6.17,23.03 -4.84,23.47 1.33,0.44 12.77,-0.44 15.41,0 2.64,0.44 14.09,-16.29 17.17,-25.54 3.08,-9.25 8.81,-29.06 8.81,-29.06 0,0 0.88,-26.82 0,-27.5 -0.88,-0.68 2.64,-9.71 2.64,-9.71 0,0 3.08,-2.42 3.52,-11.67 0.44,-9.25 0,-21.14 0,-21.14 0,0 1.27,-6.17 0.2,-8.81 -1.07,-2.64 -2.02,-7.49 0.43,-11.89 2.45,-4.4 6.42,-10.36 -2.83,-16.63 -9.25,-6.27 -19.06,-9.82 -19.06,-9.82 0,0 2.77,7.07 3.65,8.39 0.88,1.32 5.06,9.8 5.06,12.88 0,3.08 1.55,7.82 1.55,7.82 0,0 -23.56,4.06 -26.42,3.3 z"
           id="path24" />
        <path
           class="cls-32"
           d="m 235.67,749.16 c -4.83,3.84 -10.01,-2.35 -13.73,-3.07 -3.72,-0.72 -6.78,-2.74 -4.36,0 2.42,2.74 8.88,7.04 9.85,11.33 0.97,4.29 5.49,9.91 3.55,9.08 -1.94,-0.83 -7.27,-2.64 -10.66,-4.13 -3.39,-1.49 -7.59,-7.76 -1.78,-4.95 5.81,2.81 8.41,6.61 7.11,2.81 -1.3,-3.8 -0.82,-5.61 -4.85,-8.75 -4.04,-3.14 -6.94,-4.48 -7.11,-6.78 -0.16,-2.3 -0.81,-3.62 3.55,-2.3 4.36,1.32 19.87,5.61 18.41,6.77 z"
           id="path25" />
        <path
           class="cls-17"
           d="m 352.78,658.21 c 0,0 0.47,8.78 1.47,15.47 1,6.69 0.69,20.92 0.69,20.92 0,0 11.66,-22.13 11.66,-37.71 0,0 -7.48,2.41 -13.82,1.32 z"
           id="path26" />
        <path
           class="cls-17"
           d="m 296.16,563.49 c 0,0 2.97,16.86 6.28,23.12 0,0 -5.28,12.54 4.95,20.14 10.24,7.6 36.33,-2.71 36.33,-2.71 l 7.27,-11.8 -8.92,-5.73 c 0,0 2.31,-10.48 2.64,-13.78 0.33,-3.3 2.97,-2.97 3.63,-6.61 0.66,-3.63 0.33,-9.91 0.33,-9.91 l -13.87,-5.28 c 0,0 -36.99,-3.96 -38.64,12.55 z"
           id="path27" />
        <path
           class="cls-66"
           d="m 332.6,572.25 c -1.71,0.69 -8.09,1.32 -8.83,1.07 -0.74,-0.25 -1.9,1.73 -2.56,3.55 -0.66,1.82 -2.56,2.81 -3.06,1.32 -0.5,-1.49 -2.06,-2.89 -2.15,-0.25 -0.08,2.64 -0.17,3.14 -0.66,3.22 -0.49,0.08 -1.73,0 -0.41,0.66 1.32,0.66 0.99,1.73 3.3,1.49 2.31,-0.24 2.48,-1.24 4.38,-1.73 1.9,-0.49 3.55,-1.73 2.06,-1.9 -1.49,-0.17 -3.8,0.99 -2.72,-1.32 1.07,-2.31 1.98,-2.89 3.72,-1.73 1.73,1.16 6.03,0.99 8.5,1.73 2.47,0.74 3.22,4.58 5.12,-0.56 1.9,-5.14 1.65,-9.1 1.65,-9.1 0,0 -5.28,2.31 -8.34,3.55 z"
           id="path28" />
        <path
           class="cls-66"
           d="m 308.57,577.37 c -1.72,0.46 -4.71,0.74 -5.94,0.83 -1.23,0.09 -4.05,0.33 -2.06,2.97 1.98,2.64 3.14,7.18 6.19,4.87 3.06,-2.31 4.71,-5.78 4.54,-6.94 -0.17,-1.16 -1.18,-2.15 -2.72,-1.73 z"
           id="path29" />
        <path
           class="cls-30"
           d="m 298.64,568.26 c -0.23,0.39 2.64,-0.5 4.46,-0.55 1.82,-0.05 4.57,0 5.34,-0.28 0.77,-0.28 0.94,-1.16 0,-1.43 -0.94,-0.27 -4.9,0.06 -6.83,0.44 -1.93,0.38 -2.42,0.88 -2.97,1.82 z"
           id="path30" />
        <path
           class="cls-30"
           d="m 334.97,561.43 c -2.7,0.61 -4.3,0.88 -7.32,1.65 -3.02,0.77 -5.61,1.54 -5.89,1.6 -0.28,0.06 -1.05,-0.77 0.44,-1.62 1.49,-0.85 1.59,-1.35 5.94,-1.62 4.35,-0.27 6.83,0 6.83,0 z"
           id="path31" />
        <path
           class="cls-59"
           d="m 316.03,589.94 c -0.31,-0.13 -0.67,-0.04 -1.23,-0.29 -0.56,-0.25 -0.97,0.06 -0.7,0.35 0.27,0.29 1.75,0.75 1.75,0.75 l 0.19,-0.8 z"
           id="path32" />
        <path
           class="cls-59"
           d="m 329.13,587.25 c 0,0 0.82,-0.87 1.48,-0.48 0.66,0.39 -0.5,0.93 -0.89,0.93 -0.39,0 -0.59,-0.45 -0.59,-0.45 z"
           id="path33" />
        <path
           class="cls-63"
           d="m 302.59,586.94 c 0,0 7.16,5.94 9.14,7.49 1.98,1.55 8.92,5.94 12.33,5.39 3.41,-0.55 8.26,-3.52 10.24,-5.39 1.98,-1.87 0.33,-0.22 1.98,-1.87 1.65,-1.65 5.24,-5.07 5.68,-5.73 0.44,-0.66 2.93,1.55 4.37,2.43 1.44,0.88 3.72,0.99 3.83,1.54 0.11,0.55 -4.95,10.35 -11.34,11.23 -6.39,0.88 -16.51,6.28 -22.9,3.3 -6.39,-2.98 -15.19,-12.88 -15.19,-12.88 l 1.87,-5.5 z"
           id="path34" />
        <path
           class="cls-64"
           d="m 314.75,589.74 c 0.17,0 0.83,0.28 1.54,0.22 0.71,-0.06 2.86,-1.05 3.69,-1.16 0.83,-0.11 1.82,0.11 2.15,0 0.33,-0.11 0.77,-0.61 1.1,-0.66 0.33,-0.05 2.15,0.44 3.63,0 1.48,-0.44 3.14,-1.33 3.14,-1.33 0,0 0.92,0.69 -2.39,1.71 -3.31,1.02 -5.43,2.21 -9.72,2.15 -4.29,-0.06 -3.14,-0.94 -3.14,-0.94 z"
           id="path35" />
        <path
           class="cls-57"
           d="m 323.29,592.11 c -1.9,0.49 -4.07,0.22 -5.01,-0.22 -0.94,-0.44 -3.45,-1.62 -3.45,-1.62 0,0 4.18,0.32 7.25,-0.36 3.07,-0.68 6.78,-1.7 7.93,-2.69 0,0 -1.38,3.52 -6.72,4.9 z"
           id="path36" />
        <path
           class="cls-12"
           d="m 317.01,583.74 c -0.88,-0.22 -2.2,-0.22 -1.71,0 0.49,0.22 1.38,0.5 0.8,0.55 -0.58,0.05 -1.62,0.55 -1.96,-0.36 -0.34,-0.91 -0.66,-0.8 -0.55,-0.36 0.11,0.44 0.2,1.21 1.7,1.21 1.5,0 3.92,0.22 5.46,-0.28 1.54,-0.5 3.36,-1.27 3.36,-1.27 0,0 -0.33,0.38 0.39,0 0.72,-0.38 1.05,-0.82 0.72,-1.1 -0.33,-0.28 -0.94,-0.33 -1.71,0.22 -0.77,0.55 -1.82,1.71 -3.41,1.98 -1.59,0.27 -3.08,-0.61 -3.08,-0.61 z"
           id="path37" />
        <path
           class="cls-74"
           d="m 302.64,571.3 c 0,0 0.61,2.15 3.36,1.98 2.75,-0.17 3.25,-0.82 3.96,-0.99 0.71,-0.17 1.76,0.49 1.32,-0.72 -0.44,-1.21 -1.27,-2.7 -3.58,-2.53 -2.31,0.17 -4.79,1.21 -5.06,2.26 z"
           id="path38" />
        <path
           class="cls-74"
           d="m 332.97,566.07 c 0,0 -0.54,2.59 -2.97,3.19 -2.43,0.6 -4.35,0.22 -5.18,0 -0.83,-0.22 -0.22,-3.69 3.3,-3.96 3.52,-0.27 4.84,0.77 4.84,0.77 z"
           id="path39" />
        <path
           class="cls-27"
           d="m 312.83,511.19 c 0,0 -10.73,-0.11 -15.88,3.41 -5.15,3.52 -0.69,2.97 0,2.31 0.69,-0.66 -5.81,7.38 -7.9,10.9 -2.09,3.52 -6.83,14.53 -6.83,14.53 0,0 2.09,18.28 3.08,19.82 0.99,1.54 5.94,7.43 5.94,7.43 l 7.73,6.89 c 0,0 -1.12,-4.86 -1.34,-7.83 -0.22,-2.97 -0.66,-3.67 -0.66,-3.67 0,0 0.66,2.21 4.07,2.45 3.41,0.24 5.61,1.52 5.5,0 -0.11,-1.52 -2.42,-8.23 -0.66,-11.2 0,0 3.3,11.89 4.29,12.22 0,0 -3.19,-9.25 -2.42,-11.89 0,0 4.18,12.97 5.06,12.48 0,0 -3.08,-11.82 -2.64,-12.59 0,0 3.08,12.33 6.5,11.78 3.42,-0.55 7.38,-1.65 6.5,-2.42 -0.88,-0.77 -4.84,-3.96 -4.95,-8.7 0,0 3.6,7.28 5.61,8.16 0,0 8.26,-1.77 8.37,-2.21 0.11,-0.44 -3.47,-9.8 -3.47,-9.8 0,0 3.69,6.28 4.24,8.59 0.55,2.31 0.66,2.09 0.99,1.43 0.33,-0.66 1.54,-1.98 1.32,-3.74 -0.22,-1.76 -0.44,-3.3 -0.44,-3.3 0,0 1.32,3.96 2.53,3.74 1.21,-0.22 1.76,0.11 1.21,-0.22 -0.55,-0.33 -1.54,-2.53 -1.54,-2.53 3.19,1.87 6.5,2.31 6.5,5.61 v 7.38 c 0,0 3.19,-8.81 4.4,-10.57 1.21,-1.76 3.96,-3.3 3.96,-3.3 0,0 -0.77,-7.71 -0.77,-11.12 0,-3.41 -1.21,-10.24 -1.98,-14.09 -0.77,-3.85 -2.86,-6.72 -2.86,-6.72 0,0 1.43,0.55 1.43,0.22 0,-0.33 -4.51,-4.18 -5.06,-4.62 -0.55,-0.44 1.32,-0.22 1.32,-0.22 0,0 0,-2.09 -2.53,-3.41 -2.53,-1.32 2.53,0.44 1.87,-0.33 -0.66,-0.77 -3.52,-4.18 -7.82,-5.61 -4.29,-1.43 -7.93,-2.86 -9.14,-2.42 -1.21,0.44 -4.95,0.99 -4.95,0.99 0,0 7.6,-4.51 7.32,-4.73 -0.28,-0.22 -9.28,4.51 -9.28,4.51 l 5.04,-5.5 c 0,0 -5.4,2.97 -6.17,4.84 0,0 -6.29,-4.51 -6.94,-4.84 -0.65,-0.33 5.68,5.17 5.68,5.17 0,0 -3.69,2.75 -4.24,2.75 z"
           id="path40" />
        <path
           class="cls-55"
           d="m 218.87,761.98 c 0.99,0 4.29,-2.64 6.61,0 2.32,2.64 6.94,5.28 3.96,4.95 -2.98,-0.33 -4.95,0 -2.97,1.65 1.98,1.65 3.94,3.96 3.94,3.96 0,0 -5.61,4.29 -5.77,5.94 -0.15,1.65 1.5,3.3 1.5,3.3 0,0 0.64,2.97 -1.5,3.3 -2.14,0.33 -5.77,-1.65 -5.77,-1.65 0,0 0.33,2.97 0,2.97 -0.33,0 -5.28,-4.95 -5.28,-4.95 l -4.29,-5.28 9.58,-14.2 z"
           id="path41" />
        <path
           class="cls-70"
           d="m 245.96,757.03 c 0,0 -2.49,3.34 -4.83,3.78 -4.87,0.91 -11.69,6.13 -11.69,6.13 0,0 -4.7,0.07 -2.97,1.65 1.73,1.58 3.94,3.96 3.94,3.96 l 5.81,-4.95 c 0,0 -8.68,6.59 -10.13,8.74 -1.45,2.15 -2.13,4.45 0.05,5.46 4.29,1.98 7.49,1.32 7.49,1.32 7.7,1.32 10.14,-1.98 12.72,-4.29 2.58,-2.31 3.24,-7.62 4.89,-8.6 1.65,-0.98 6.28,-5.27 6.28,-5.27 0,0 -4.62,-6.61 -11.56,-7.93 z"
           id="path42" />
        <path
           class="cls-17"
           d="m 261.81,632.52 c 0,0 -5.94,13.54 -5.61,21.47 0.33,7.93 -0.01,24.44 -0.01,24.44 0,0 0.65,13.87 0,15.85 -0.65,1.98 -2.33,10.24 0,11.89 2.33,1.65 4.31,2.56 4.97,2.56 0.66,0 5.94,-2.56 5.94,-2.56 0,0 6.61,5.61 7.27,3.96 0.66,-1.65 -1.98,-3.96 -1.98,-3.96 0,0 3.96,-7.27 4.62,-12.88 0.66,-5.61 -1.32,-7.6 -1.98,-11.23 -0.66,-3.63 -2.64,-6.96 -2.31,-10.58 0.33,-3.62 1.32,-8.9 1.65,-15.51 0.33,-6.61 -0.33,-9.25 -0.33,-9.25 l -12.22,-14.2 z"
           id="path43" />
        <path
           class="cls-44"
           d="m 133.79,597.51 c 0,0 1.32,22.82 4.62,26.77 3.3,3.95 5.17,16.12 5.17,16.12 l 18.94,10.62 18.83,-4.95 c 0,0 1.65,-4.62 0,-5.61 -1.65,-0.99 -13.73,-3.04 -12.22,-4.71 1.51,-1.67 4.74,-2.86 7.66,-5.5 3.04,-2.75 5.2,-4.24 6.17,-10.44 0.87,-5.55 0.04,-4.79 1.03,-8.42 0.99,-3.63 5.49,-7.1 3.84,-13.71 -1.65,-6.61 -0.85,-14.66 -0.85,-14.66 l -42.96,-2.98 c 0,0 -10.64,12.17 -10.24,17.47 z"
           id="path44" />
        <path
           class="cls-67"
           d="m 165.2,629.43 c -1.7,-0.13 -4.24,-1.16 -5.12,-1.6 -0.88,-0.44 -4.17,-1.86 -3.52,-2.09 0.65,-0.23 4.84,-0.06 5.89,0 1.05,0.06 3.25,-0.07 5.61,-0.09 2.36,-0.02 5.17,-0.24 5.17,-0.24 0,0 -3.03,4.4 -8.04,4.02 z"
           id="path45" />
        <path
           class="cls-46"
           d="m 164.85,618.26 c -0.65,-0.33 -0.54,-0.72 -1.64,-0.94 -1.1,-0.22 -1.49,-0.11 -2.53,0 -1.04,0.11 -0.55,0.35 -1.43,-0.13 -0.88,-0.48 -1.05,-1.36 -0.88,-0.48 0.17,0.88 0.39,1.6 1.6,1.54 1.21,-0.06 2.31,-0.32 3.14,0 0.83,0.32 1.75,0 1.75,0 z"
           id="path46" />
        <path
           class="cls-46"
           d="m 167.9,618.41 c 0.17,-0.2 0.06,-0.7 0.99,-0.75 0.93,-0.05 1.49,-0.11 1.76,0 0.27,0.11 0.88,0.94 -0.55,1.05 -1.43,0.11 -2.2,-0.29 -2.2,-0.29 z"
           id="path47" />
        <path
           class="cls-74"
           d="m 157.99,604.44 c -0.45,-0.74 -2.09,-3.08 -5.01,-3.08 -2.92,0 -6.17,1.54 -6.17,1.54 0,0 2.42,2.42 4.73,2.81 2.31,0.39 3.52,0.17 4.4,0 0.88,-0.17 2.6,-0.35 2.04,-1.27 z"
           id="path48" />
        <path
           class="cls-74"
           d="m 181.99,604.5 c -0.17,-0.06 -2.75,-2.53 -6.11,-1.71 -3.36,0.82 -4.79,3.08 -4.13,3.41 0.66,0.33 1.05,-0.44 2.26,0 1.21,0.44 2.75,0.99 4.73,0.39 1.98,-0.6 3.25,-2.09 3.25,-2.09 z"
           id="path49" />
        <path
           class="cls-40"
           d="m 184.77,599.41 c -0.41,-0.08 -3.47,0.17 -4.79,0 -1.32,-0.17 -3.63,0.08 -5.45,0.74 -1.82,0.66 -4.05,0.45 -1.9,-0.4 2.15,-0.85 4.87,-1.5 6.61,-1.42 1.74,0.08 5.53,1.07 5.53,1.07 z"
           id="path50" />
        <path
           class="cls-40"
           d="m 158.1,599.43 c -1.75,1.21 -4.79,-1.68 -7.76,-1.59 -2.97,0.09 -6.36,0.65 -5.7,0 0.66,-0.65 4.13,-1.15 6.03,-1.23 1.9,-0.08 9.41,1.45 7.43,2.83 z"
           id="path51" />
        <path
           class="cls-44"
           d="m 132.75,598.32 c 0,0 -3.3,-3.87 -4.87,-2.88 -1.57,0.99 -3.03,6.37 -1.6,9.3 1.43,2.92 1.1,8.95 3.99,10.19 2.89,1.24 3.8,0.58 4.87,0 1.07,-0.58 0.74,-0.5 1.16,-1.9 0.42,-1.4 -0.91,-9 -0.91,-9 l -2.64,-5.7 z"
           id="path52" />
        <path
           class="cls-49"
           d="m 173.24,625.41 c 0,0.28 -3.58,0.66 -5.12,1.1 -1.54,0.44 -1.65,0.61 -2.64,0.55 -0.99,-0.06 -1.87,-0.82 -4.07,-0.82 -2.2,0 -5.34,-0.12 -4.84,-0.5 0.5,-0.38 2.2,-0.33 2.2,-0.33 0,0 2.7,-0.06 3.41,-0.33 0.71,-0.27 1.71,-1.02 1.98,-0.81 0.27,0.21 0.17,0.65 0.99,0.59 0.82,-0.06 1.71,-0.28 1.71,-0.28 0,0 2.04,0.77 3.41,0.77 1.37,0 2.97,-0.28 2.97,0.06 z"
           id="path53" />
        <path
           class="cls-32"
           d="m 252.87,769.03 3.55,-2.98 c 0,0 -9.12,-8.15 -10.73,-8.15 h -1.62 c 0,0 -1.13,0 1.62,-3.8 2.75,-3.8 4.16,-7.76 4.16,-7.76 0,0 5.53,-7.93 7.3,-11.06 1.78,-3.14 2.75,-9.25 4.68,-10.9 1.94,-1.65 -2.75,6.61 -0.81,5.28 1.94,-1.32 6.94,-8.42 6.62,-6.44 -0.32,1.98 0,2.97 -1.62,4.46 -1.62,1.49 -4.36,3.47 -5.49,4.95 -1.13,1.49 -4.68,7.27 -6.46,10.07 -1.78,2.81 -5.49,10.07 -6.3,11.72 -0.81,1.65 -1.29,2.48 -1.29,2.48 0,0 4.48,1.51 6.9,3.33 2.42,1.82 6.02,5.59 4.73,7.73 -1.29,2.15 -5.25,1.05 -5.25,1.05 z"
           id="path54" />
        <path
           class="cls-32"
           d="m 210.8,727.69 c 0.65,0.17 3.39,-0.99 7.59,2.64 4.2,3.63 8.72,3.47 10.82,3.3 2.1,-0.17 7.59,0.83 3.55,1.49 -4.04,0.66 -4.53,2.31 -10.26,0.66 -5.73,-1.65 -8.93,-2.64 -8.93,-2.64 0,0 -5.69,0.5 -5.04,-1.07 0.65,-1.57 2.26,-4.38 2.26,-4.38 z"
           id="path55" />
        <path
           class="cls-32"
           d="m 208.48,706.55 c -0.47,0.53 0,10.9 0,10.9 0,0 -1.56,2.98 2.47,1.9 4.03,-1.08 8.5,-0.27 10.39,0.23 1.89,0.5 -4.41,-5.27 -4.41,-5.27 0,0 -6.4,-10.07 -8.45,-7.76 z"
           id="path56" />
        <path
           class="cls-32"
           d="m 254.89,720.59 c -0.65,-0.07 -1.54,-0.16 -2.56,-0.27 -6.27,-0.66 -17.63,-1.82 -11.66,-0.7 6.94,1.3 14.37,2.26 13.41,3.27 -0.97,1.01 -3.69,6.29 -10.24,11.74 -6.55,5.45 -12.53,4.29 -11.88,4.95 0.65,0.66 2.91,2.31 6.62,0 3.71,-2.31 10.66,-6.11 12.44,-8.75 1.78,-2.64 5.33,-9.37 7.91,-11.21 2.58,-1.84 7.43,-5.8 7.43,-5.8 0,0 -8.91,7.04 -11.47,6.77 z"
           id="path57" />
        <path
           class="cls-44"
           d="m 213.71,764.63 c 0,0 1.32,2.97 4.29,-0.33 2.97,-3.3 7.6,-4.95 5.28,-10.24 -2.32,-5.29 -4.62,-7.93 -7.93,-11.89 -3.3,-3.96 -6.94,-8.92 -6.94,-8.92 l -9.91,7.27 c 0,0 0.33,4.62 1.65,7.93 1.32,3.31 4.62,4.29 3.3,5.61"
           id="path58" />
        <path
           class="cls-45"
           d="m 215.08,749.27 c 0,0 0.17,3.96 0,6.11 -0.12,1.61 0.31,2.2 0.26,3.09 -0.02,0.3 -0.09,0.63 -0.26,1.04 -0.66,1.65 0.17,2.31 -1.98,1.98 -2.15,-0.33 -3.47,-0.83 -3.63,-2.64 -0.17,-1.82 0,-5.28 0,-5.28 l -4.29,-4.29 c 0,0 -2.15,-1.32 -3.47,-3.14 -1.32,-1.82 -1.49,-7.1 -1.98,-6.61 -0.49,0.49 -2.64,3.96 -1.65,6.11 0.99,2.15 3.47,6.44 3.96,7.76 0.49,1.32 -0.17,5.28 -0.66,6.44 -0.49,1.16 -1.16,3.63 0.33,3.63 1.49,0 1.82,0.5 2.81,-1.65 0.99,-2.15 2.07,-4.13 2.07,-4.13 0,0 0.08,1.49 0,2.48 -0.08,0.99 -3.55,2.81 -3.06,4.95 0.49,2.14 0.83,2.48 2.15,1.82 1.32,-0.66 2.97,-1.98 2.97,-1.98 0,0 -2.15,1.65 1.32,1.49 3.47,-0.16 3.8,-1.16 3.8,-1.16 0,0 1.49,0.33 3.14,-0.5 1.65,-0.83 -1.82,-0.17 -0.99,-2.31 0.83,-2.14 1.44,-1.98 1.44,-1.98 0,0 -0.78,-1.98 1.2,-3.14 0,0 -1.82,0.83 -2.15,-0.99 -0.33,-1.82 1.16,-2.31 1.16,-2.31 0,0 -2.31,-0.17 -1.65,-1.82 0.66,-1.65 -0.83,-2.97 -0.83,-2.97 z"
           id="path59" />
        <path
           class="cls-65"
           d="m 271.11,784.99 c 0,0 5.5,3.08 12.99,3.52 7.49,0.44 10.57,3.96 24.44,5.06 13.87,1.1 22.68,0.22 24,0 1.32,-0.22 8.15,-4.84 8.15,-8.59 0,-3.75 -0.44,-15.19 0,-19.16 0.44,-3.97 1.98,-23.12 1.98,-23.12 l 1.1,-18.28 c 0,0 7.49,-5.5 -1.54,-5.72 -9.03,-0.22 -59.67,-9.48 -64.51,-9.25 -4.84,0.23 -17.39,0 -17.39,1.99 0,1.99 -3.52,40.34 -3.52,40.34 0,0 -1.1,24.62 0,26.16 1.1,1.54 12.33,8.37 14.31,7.05 z"
           id="path60"
           style="fill:#456785;fill-opacity:1" />
        <path
           class="cls-60"
           d="m 289.44,717.94 c 0.06,1.69 1.54,18.88 1.54,23.92 0,5.04 0.56,13.49 -3.96,21.16 -4.52,7.67 -3.63,9.4 -4.24,12.5 -0.61,3.1 -7.05,13.45 -7.05,13.45 0,0 11.33,-1.56 15.27,1.3 3.94,2.86 24.6,5.89 31.86,4.72 7.26,-1.17 9.68,-1.42 9.68,-1.42 0,0 7.21,-4.4 8.15,-8.59 0.94,-4.19 1.38,-14.36 1.16,-21.97 -0.22,-7.61 2.2,-17.61 2.2,-21.16 v -15.66 l 2.64,-6.58 c 0,0 -6.82,2.61 -16.07,1.73 -9.25,-0.88 -41.17,-3.42 -41.17,-3.42 z"
           id="path61"
           style="fill:#4b718c;fill-opacity:1" />
        <path
           class="cls-28"
           d="m 395.51,496.45 c -2.14,0.85 -1.65,9.48 -1.65,9.48 0,0 9.9,14.13 11,15.51 1.1,1.38 4.77,2.24 7.15,2.41 2.38,0.17 2.03,-4.02 1.2,-5.45 -0.83,-1.44 -7.43,-9.19 -7.43,-9.19 0,0 -6.78,-14.13 -10.26,-12.75 z"
           id="path62" />
        <path
           class="cls-16"
           d="m 409.66,515.05 c 0,0 5.28,7.05 0,9.69 -5.28,2.64 -10.13,4.84 -10.13,4.84 l -29.06,54.61 c 0,0 0.44,13.21 0,17.17 -0.44,3.96 -6.61,35.67 -6.61,35.67 v 26.86 c 0,0 -1.76,14.09 -3.52,17.61 -1.76,3.52 -7.93,18.06 -7.93,18.06 0,0 -0.44,18.06 3.96,14.97 4.4,-3.09 0,-10.57 1.76,-12.77 1.76,-2.2 8.37,-8.37 8.37,-8.37 l -1.32,10.13 c 0,0 -0.44,3.96 2.2,3.96 2.64,0 0.44,-1.32 4.4,-6.61 3.96,-5.28 3.96,-9.69 3.52,-13.65 -0.44,-3.96 -4.84,-12.33 -4.84,-12.33 0,0 5.72,-40.05 6.17,-50.63 0.45,-10.58 3.66,-18.95 5.57,-26.88 1.91,-7.93 24.81,-56.81 24.81,-56.81 0,0 15.85,11.01 24.66,11.89 8.81,0.88 19.82,-8.37 19.82,-8.37 l 21.58,49.32 c 0,0 -3.52,9.25 0,18.94 3.52,9.69 8.37,28.62 8.37,28.62 0,0 -0.88,22.9 0,25.98 0.88,3.08 -5.28,6.61 -7.05,9.25 -1.77,2.64 -6.17,7.49 -6.17,9.69 0,2.2 -3.96,2.64 0,2.2 3.96,-0.44 6.17,-3.96 6.17,-3.96 l 1.76,11.89 c 0,0 -6.17,19.64 -3.52,18.85 2.65,-0.79 5.9,-11.36 8.89,-17.97 0,0 -0.35,17.05 0,17.99 0.35,0.94 1.24,6.67 3.88,4.03 2.64,-2.64 0.44,-3.52 2.2,-7.93 1.76,-4.4 3.08,-9.69 3.08,-9.69 v -3.52 c 0,0 1.32,9.25 2.2,12.77 0.88,3.52 -0.44,3.52 2.64,3.52 3.08,0 -1.76,-3.52 0,-7.49 1.76,-3.97 -2.2,-13.65 -2.2,-13.65 0,0 4.84,8.37 7.05,9.25 2.21,0.88 0.88,-2.64 0,-5.28 -0.88,-2.64 -0.88,-3.52 -3.08,-6.61 -2.2,-3.08 -3.96,-3.96 -1.76,-12.33 2.2,-8.37 4.4,-14.09 3.08,-20.7 -1.32,-6.61 -1.76,-22.9 -2.2,-35.23 -0.44,-12.33 -5.28,-24.66 -5.72,-25.98 -0.44,-1.32 -1.32,-7.93 -1.32,-7.93 0,0 -30.83,-62.53 -32.59,-62.53 -1.76,0 -7.49,3.52 -9.25,-3.96 -1.76,-7.49 -2.2,-12.33 -0.88,-18.5 1.32,-6.17 0,-24.66 0,-24.66 0,0 -0.44,-12.77 -10.13,-13.21 -9.69,-0.44 -18.5,-1.76 -23.34,4.4 -4.84,6.17 -15.85,16.73 -16.73,19.38 -0.88,2.65 1.68,12.25 1.68,12.25 0,0 3.47,8.79 11.53,13.73 z"
           id="path63" />
        <path
           class="cls-8"
           d="m 413.18,484.55 c -0.05,1.16 -1.32,11.31 -1.32,11.31 0,0 -2.48,0.99 -2.89,2.48 -0.41,1.49 3.22,2.56 3.22,2.56 h 4.38 l 3.88,-3.14 c 0,0 5.61,-1.82 4.62,-2.64 -0.99,-0.82 -1.73,0.83 -3.88,-0.91 -2.15,-1.73 -3.3,-5.28 -3.3,-5.28 0,0 -4.67,-5.21 -4.71,-4.38 z"
           id="path64" />
        <path
           class="cls-74"
           d="m 433.9,482.49 c -0.33,-0.08 -5.86,-1.9 -7.76,-0.99 -1.9,0.91 -4.38,4.38 -3.88,4.79 0.5,0.41 0.33,-0.58 1.73,-0.33 1.4,0.25 5.2,-0.67 6.94,-1.49 1.74,-0.82 2.97,-1.97 2.97,-1.97 z"
           id="path65" />
        <path
           class="cls-28"
           d="m 428.05,475.39 c -1.99,0.08 -6.94,0.17 -8.84,1.32 -1.9,1.15 -2.97,2.48 -1.49,2.81 1.48,0.33 4.29,-0.17 6.52,-0.99 2.23,-0.82 6.28,-1.73 8.42,-1.82 2.14,-0.09 8.26,0.5 5.04,-0.5 -3.22,-1 -9.65,-0.83 -9.65,-0.83 z"
           id="path66" />
        <path
           class="cls-71"
           d="m 409.66,515.05 c 0,0 9.95,7.16 11.6,7.65 1.65,0.49 6.44,-0.17 9.08,-1.16 2.64,-0.99 9.91,-6.11 9.91,-6.11 l 5.78,-6.77 c 0,0 -5.61,9.91 -8.75,11.89 -3.14,1.98 -9.08,6.61 -15.52,6.11 -6.44,-0.5 -7.1,-0.99 -5.28,2.81 1.82,3.8 -0.83,4.29 -0.83,4.29 h -14.04 l -1.17,-4.54 c 0,0 10.44,-5.07 11.26,-6.56 0.82,-1.49 -2.04,-7.62 -2.04,-7.62 z"
           id="path67" />
        <path
           class="cls-16"
           d="m 389.85,744.48 c 0,0 -0.88,18.94 0,27.74 0.88,8.81 -2.2,3.52 -2.64,22.9 -0.44,19.38 2.8,38.75 2.8,38.75 l 9.97,40.51 h 21.58 l -4.84,-61.65 1.76,-33.47 c 0,0 4.4,-11.89 3.08,-18.5 -1.32,-6.61 -4.4,-16.29 -4.4,-16.29 l -3.96,-29.06 18.06,12.77 c 0,0 5.28,21.58 4.84,28.62 -0.44,7.04 0.88,19.38 3.52,23.78 2.64,4.4 4.84,20.26 4.4,28.62 -0.44,8.37 0.06,27.3 0.06,27.3 0,0 4.79,29.5 5.23,33.03 0.44,3.53 17.61,4.84 17.61,4.84 0,0 2.64,-9.69 4.4,-26.86 1.76,-17.17 3.08,-52.62 3.08,-52.62 0,0 0.88,-12.11 -3.52,-34.13 -4.4,-22.02 -4.4,-33.47 -7.05,-37.43 -2.64,-3.96 -33.01,-11.89 -33.01,-11.89 l -38.33,-5.28 -2.64,38.31 z"
           id="path68" />
        <path
           class="cls-38"
           d="m 369.97,677.98 c 0,0 -0.44,15.41 0,18.06 0.44,2.65 -6.17,9.86 -6.61,14.4 -0.44,4.54 0,32.28 0,32.28 0,0 21.58,6.61 35.23,7.93 13.65,1.32 23.78,-11.01 23.78,-11.01 v -7.05 c 0,0 8.37,-6.61 25.1,-3.08 16.73,3.52 17.17,5.72 17.17,5.72 0,0 3.52,-11.83 2.2,-15.6 -1.32,-3.77 0.3,-9.19 0.3,-9.19 0,0 -2.94,-9.55 -3.38,-11.75 -0.44,-2.2 3.08,-2.88 0.88,-6.72 -2.2,-3.85 -3.08,-7.37 -1.32,-10.89 1.76,-3.52 1.76,-6.85 -2.64,-9.59 -4.4,-2.74 -35.67,-4.5 -43.16,-2.3 -7.49,2.2 -47.56,8.81 -47.56,8.81 z"
           id="path69" />
        <path
           class="cls-53"
           d="m 368.2,655.52 c 0,0 -1.63,24.66 0,26.42 1.63,1.76 12.77,3.96 12.77,3.96 0,0 9.25,-2.64 18.06,-2.2 8.81,0.44 29.06,-2.2 29.06,-2.2 0,0 11.89,5.28 18.06,4.4 6.17,-0.88 12.33,2.64 12.33,2.64 l 6.17,3.4 c 0,0 1.91,-7.37 2.5,-14.85 0.58,-7.49 -2.94,-14.97 -4.26,-21.58 -1.32,-6.61 -4.84,-35.67 -4.84,-35.67 0,0 1.76,-17.17 3.08,-20.26 1.32,-3.09 3.08,-7.35 3.08,-7.35 0,0 1.91,2.51 2.94,2.95 1.03,0.44 10.27,3.35 17.76,-2.95 7.49,-6.3 17.17,-8.06 17.17,-8.06 0,0 -0.88,0.44 -3.08,-7.49 -2.2,-7.93 -12.33,-21.58 -15.85,-32.59 -3.52,-11.01 -18.94,-15.85 -22.9,-17.61 -3.96,-1.76 -11.28,-1.61 -11.28,-1.61 0,0 1.15,6.46 -1.93,10.42 -3.08,3.96 -5.72,12.33 -20.7,9.69 -14.98,-2.64 -22.9,-15.85 -26.86,-17.17 -3.96,-1.32 -12.33,4.4 -12.33,4.4 0,0 -11.89,-1.76 -16.29,3.52 -4.4,5.28 -18.94,45.58 -18.94,45.58 0,0 16.73,8.85 19.38,10.92 2.64,2.07 10.57,2.51 10.57,2.51 0,0 -0.88,10.21 -2.64,14.79 -1.76,4.58 -4.4,14.27 -5.28,19.12 -0.88,4.85 -5.38,20.71 -5.72,26.86 z"
           id="path70"
           style="fill:#9dde58;fill-opacity:1" />
        <path
           class="cls-6"
           d="m 420.52,739.19 c 0,0 -3.63,-10.9 -4.29,-13.54 -0.66,-2.64 -3.63,-2.8 -2.97,-6.02 0.66,-3.22 3.59,-5.53 3.59,-5.53 0,0 1.7,-8.26 3.68,-10.24 1.98,-1.98 20.15,-18.5 20.48,-16.84 0.33,1.66 0,4.61 -2.31,4.95 -2.31,0.34 -6.94,2.32 -1.98,4.3 4.95,1.98 16.51,3.96 16.18,4.95 -0.33,0.99 -1.98,1.65 -9.25,0.33 -7.27,-1.32 -23.78,5.61 -19.49,4.62 4.29,-0.99 22.79,3.3 22.79,3.3 0,0 -5.28,1.31 -10.9,0 -5.62,-1.31 -12.22,-1.99 -12.88,0 -0.66,1.99 17.22,8.81 11.89,6.61 -6.11,-2.52 -11.23,-3.03 -11.23,-3.03 0,0 -2.31,0.06 -0.99,3.69 1.32,3.63 -1.98,5.28 -1.98,5.28 l 0.66,7.93 -0.99,9.25 z"
           id="path71" />
        <path
           class="cls-6"
           d="m 447.94,661.25 c -8.59,3.96 -6.36,4.29 -14.91,6.93 -8.55,2.64 -7.41,3.97 -19.87,4.3 -12.46,0.33 -13.78,3.63 -6.18,3.96 7.6,0.33 21.71,0.99 26.05,-1.65 4.34,-2.64 9.62,-5.28 17.22,-4.29 7.6,0.99 16.18,4.29 11.89,-1.49 -4.29,-5.78 -4.29,-6.77 -7.93,-7.76 -3.64,-0.99 -6.28,0 -6.28,0 z"
           id="path72" />
        <path
           class="cls-6"
           d="m 379.24,589.25 c 0.66,-1.65 2.97,-5.61 3.63,-13.87 0.66,-8.26 1.65,-5.94 0,-14.53 -1.65,-8.59 -4.62,-15.19 -3.63,-8.92 0.99,6.27 -0.2,15.19 -0.2,15.19 0,0 0.53,-2.64 -2.77,-11.56 -3.3,-8.92 -6.61,-27.41 -4.95,-12.88 1.65,14.53 4.76,19.49 6.01,25.76 1.25,6.28 1.91,20.81 1.91,20.81 z"
           id="path73" />
        <path
           class="cls-6"
           d="m 463.29,592.24 c 0.83,-1.01 1.49,-8.28 5.79,-14.22 4.29,-5.94 4.95,-1.98 4.29,-9.58 -0.66,-7.6 0.11,-24.44 0.22,-25.1 0.11,-0.66 3.41,3.3 3.41,11.56 0,8.26 3.96,15.52 0,21.47 -3.96,5.94 -7.27,12.88 -7.27,12.88 l -6.45,2.99 z"
           id="path74" />
        <path
           class="cls-74"
           d="m 418.44,504.45 c -2.48,0.37 -9.59,1.74 -9.94,2.34 -0.35,0.6 5.72,3.81 10.18,2.57 4.46,-1.24 12.08,-6.13 12.05,-6.51 -0.03,-0.38 -12.29,1.6 -12.29,1.6 z"
           id="path75" />
        <path
           class="cls-71"
           d="m 430.93,502.72 c 0,0 -5.12,-0.33 -7.51,0 -2.39,0.33 -3.96,0.58 -5.37,0.99 -1.41,0.41 -4.21,-0.17 -5.7,0.58 -1.49,0.75 -4.87,2.48 -4.46,2.56 0.41,0.08 3.47,-0.66 5.53,-1.07 2.06,-0.41 3.88,-0.04 5.26,-0.55 1.38,-0.51 12.24,-2.51 12.24,-2.51 z"
           id="path76" />
        <path
           class="cls-9"
           d="m 418.71,508.74 c -2.56,-0.11 -7.6,-0.83 -8.5,-1.07 -0.9,-0.24 -2.23,-1.49 -2.31,-0.83 -0.08,0.66 5.04,5.2 9.74,5.2 4.7,0 7.95,-2.4 10.8,-5.49 0.56,-0.61 2.5,-3.84 2.5,-3.84 0,0 -3.73,2.64 -5.75,3.72 -2.02,1.08 -6.06,2.33 -6.48,2.31 z"
           id="path77" />
        <path
           class="cls-29"
           d="m 424.32,482.81 c 0,0 -0.11,1.76 1.32,2.86 0,0 2.97,0.22 4.29,-1.43 0,0 -0.11,-1.76 -1.1,-2.97 0,0 -2.86,-0.33 -4.51,1.54 z"
           id="path78" />
        <path
           class="cls-22"
           d="m 433.9,482.49 c -1.08,-0.3 -2.17,-0.58 -3.27,-0.79 -1.1,-0.21 -2.21,-0.41 -3.32,-0.34 -1.14,-0.02 -2.03,0.77 -2.81,1.54 -0.77,0.79 -1.48,1.68 -1.98,2.66 -0.06,0.12 -0.11,0.25 -0.15,0.37 -0.04,0.11 -0.04,0.26 -0.02,0.26 0.03,0.03 0.09,0.07 0.11,0.07 0.02,0 0.03,0 0.09,-0.04 0.09,-0.07 0.21,-0.19 0.35,-0.27 0.6,-0.33 1.2,-0.03 1.72,-0.07 1.11,-0.02 2.21,-0.25 3.3,-0.5 1.08,-0.27 2.17,-0.59 3.17,-1.07 1.01,-0.48 1.96,-1.09 2.81,-1.82 z m 0,0 c -0.83,0.76 -1.75,1.42 -2.75,1.94 -1.02,0.51 -2.1,0.83 -3.19,1.12 -1.09,0.27 -2.2,0.52 -3.34,0.56 -0.58,0.03 -1.16,-0.21 -1.59,0.06 -0.11,0.06 -0.19,0.15 -0.31,0.25 -0.05,0.05 -0.18,0.12 -0.3,0.09 -0.11,-0.03 -0.18,-0.08 -0.25,-0.14 -0.18,-0.22 -0.08,-0.4 -0.06,-0.54 0.04,-0.15 0.1,-0.28 0.16,-0.41 0.54,-1.02 1.27,-1.9 2.07,-2.7 0.41,-0.4 0.84,-0.77 1.32,-1.08 0.47,-0.33 1.08,-0.47 1.64,-0.48 2.29,-0.03 4.47,0.65 6.6,1.32 z"
           id="path79" />
        <path
           class="cls-33"
           d="m 422.23,467.93 c 0,0 1.32,12.33 0,12.77 -1.32,0.44 -1.32,-6.39 -1.32,-6.39 v -7.49 c 0,0 -3.52,3.74 -2.64,8.81 0.88,5.06 0.88,8.37 0.88,8.37 l -1.98,-3.52 -1.76,3.52 c 0,0 0.88,-0.44 0,-1.98 -0.88,-1.54 -1.98,0.44 -2.2,1.98 l -0.22,1.54 -2.2,-2.64 -1.1,2.64 c 0,0 -2.64,-3.3 -2.2,-2.64 0.44,0.66 1.1,4.84 1.1,4.84 0,0 -1.98,0.44 -1.98,0 0,-0.44 -1.1,-3.08 -1.1,-3.08 v 4.84 c -1.54,0.66 -2.42,-1.98 -2.42,-1.98 l -1.1,-1.1 v 10.13 c 0,0 -1.98,-1.32 -2.86,-1.54 -0.88,-0.22 -1.54,2.2 -1.76,3.08 -0.22,0.88 -1.54,1.32 -1.54,1.32 0,0 -0.88,4.84 2.2,10.79 3.08,5.95 8.37,10.79 7.49,11.23 -0.88,0.44 -6.61,-3.08 -6.61,-3.08 l -10.35,-8.59 c 0,0 -0.44,10.13 -1.1,4.4 -0.66,-5.72 1.1,-9.69 0,-14.53 -1.1,-4.84 -1.98,-23.56 1.1,-31.05 3.08,-7.49 3.96,-16.07 13.21,-22.46 9.25,-6.39 17.39,-11.01 22.02,-9.91 0,0 12.11,-1.98 18.06,3.08 5.94,5.06 11.45,14.09 14.75,21.8 3.3,7.71 7.05,41.17 7.05,41.17 0,0 -1.32,12.99 -1.76,12.11 -0.44,-0.88 0,-12.11 -0.88,-15.41 -0.88,-3.3 -2.64,-5.94 -2.64,-5.94 0,0 -1.1,24.08 -2.42,28.44 -1.32,4.36 -4.4,5.69 -4.18,4.59 0.22,-1.1 3.3,-6.61 3.3,-12.11 0,-5.5 -0.44,-11.89 -0.44,-11.89 0,0 -3.96,17.83 -5.5,18.94 -1.54,1.11 -2.42,0.22 -2.86,-1.32 -0.44,-1.54 -0.66,-13.65 -0.44,-14.31 0.22,-0.66 0,-2.86 0,-2.86 0,0 -1.98,0.22 -1.98,-6.39 0,-6.61 -2.86,-5.94 -2.86,-12.77 0,-6.83 -1.98,-15.41 -1.98,-17.17 0,-1.76 -1.98,5.5 -1.98,12.11 0,6.61 2.64,18.72 2.64,18.72 0,0 -5.94,-7.94 -7.05,-15.86 -1.1,-7.92 -1.54,-14.31 -1.98,-14.97 -0.44,-0.66 -2.64,4.18 -2.42,8.59 0.22,4.41 -0.22,10.57 -0.88,4.4 -0.66,-6.17 -1.32,-11.89 -1.32,-11.89 0,0 -1.46,5.28 -0.95,8.81 0.51,3.52 0.59,9.03 0,7.49 -0.59,-1.54 -2.79,-15.63 -2.79,-15.63 z"
           id="path80" />
        <path
           class="cls-25"
           d="m 273.78,648.04 c 0,0 -3.09,-2.2 -7.72,-8.15 -4.62,-5.94 -4.42,-5.5 -8.82,-9.03 -4.4,-3.52 -8.59,-6.61 -6.39,-8.81 2.2,-2.2 13.87,-15.19 17.39,-18.72 3.52,-3.52 14.53,-14.09 14.53,-14.09 l 18.81,-4.47 0.84,1.84 c 0,0 -1.38,2.42 3.91,8.14 5.28,5.72 12.33,9.91 21.36,8.81 9.03,-1.1 17.5,-5.94 18.99,-8.37 1.49,-2.43 3.15,-3.57 1.93,-4.4 l -1.45,-1 c 0,0 4.53,-0.54 7.17,1 2.64,1.54 16.07,7.29 17.61,17.63 1.54,10.33 1.76,18.26 1.76,18.26 l -1.1,15.19 c 0,0 -0.22,8.81 -2.64,12.77 -2.42,3.96 -16.51,4.18 -16.51,4.18 0,0 0.44,11.45 0.88,16.29 0.44,4.84 2.86,26.86 1.98,31.93 -0.88,5.07 4.85,6.92 -2.86,11.23 -7.72,4.31 -6.17,3.3 -19.38,5.28 -13.21,1.98 -27.08,0.44 -35.67,-2.42 -8.59,-2.86 -24.22,-4.84 -26.42,-6.83 -2.2,-1.99 -6.17,-1.54 -5.72,-5.94 0.45,-4.4 3.3,-20.92 4.84,-30.39 1.54,-9.47 2.67,-29.94 2.67,-29.94 z"
           id="path81"
           style="fill:#632638;fill-opacity:1" />
        <path
           class="cls-17"
           d="m 256.23,672.54 c 0,0 0.17,7.93 0,10.52 -0.17,2.59 -2.15,9.82 -2.15,9.82 v 8.8 c 0,0 0.07,6.04 1.11,6.55 1.04,0.51 3.68,2.76 5.17,2.76 1.49,0 5.28,-1.38 5.94,-1.38 0,0 3.25,1.44 5.23,2.13 1.98,0.69 2.09,-1.26 2.09,-1.26 l -2.97,-4.25 c 0,0 1.87,1.72 2.97,-1.72 1.1,-3.45 0.77,-6.21 1.43,-9.66 0.66,-3.45 2.31,-4.48 0,-8.16 -2.31,-3.68 -3.08,-3.1 -4.07,-7.01 -0.99,-3.91 -1.21,-8.51 -1.21,-8.51 l -13.54,1.38 z"
           id="path82" />
        <path
           class="cls-52"
           d="m 289.5,719.63 c 0,0 -0.88,7.51 0,12.44 0.82,4.58 0.5,22.82 -2.73,27.84 -0.25,0.38 -0.51,0.69 -0.79,0.91 -2.97,2.28 -3.22,9.05 -3.9,12.66 -0.23,1.2 -0.5,2.06 -0.94,2.28 -1.76,0.88 -6.17,5.23 -5.28,7.68 l 0.88,2.45 c 0,0 -1.32,3.47 2.64,-2.45 3.96,-5.92 11.45,-22.27 13.21,-30.17 1.76,-7.9 -1.32,-13.34 0,-21.19 1.32,-7.85 -3.08,-12.44 -3.08,-12.44 z"
           id="path83"
           style="fill:#5a7c94;fill-opacity:1" />
        <circle
           class="cls-52"
           cx="285.23001"
           cy="730.85999"
           r="3.22"
           id="circle83" />
        <circle
           class="cls-52"
           cx="281.67999"
           cy="748.84998"
           r="2.75"
           id="circle84" />
        <circle
           class="cls-52"
           cx="278.48999"
           cy="769.33002"
           r="2.75"
           id="circle85" />
        <path
           class="cls-68"
           d="m 282.78,589.25 -4.87,15.19 -2.31,6.61 c 0,0 3.63,0.99 2.31,3.96 -1.32,2.97 -2.35,14.86 -2.17,18.5 0.18,3.64 0,11.89 0,11.89 l -2.46,3.3 c 0,0 -7.6,-7.27 -12.22,-12.22 -4.62,-4.95 -12.03,-13.21 -12.03,-13.21 0,0 8.73,-9.22 12.03,-14.85 3.3,-5.63 21.71,-19.17 21.71,-19.17 z"
           id="path85"
           style="fill:#b85348;fill-opacity:1" />
        <path
           class="cls-68"
           d="m 372.42,611.74 c 0,0 -0.71,8.55 -4.34,9.88 -3.63,1.33 -9.58,3.96 -10.57,7.93 -0.99,3.97 1.65,12.22 0,15.52 -1.65,3.3 -4.71,11.39 -4.05,13.76 0,0 4.95,0.44 8.96,-0.55 4.01,-0.99 9.95,-2.64 10.61,-9.58 0.66,-6.94 0.41,-20.72 0.69,-23.56 0.51,-5.3 -1.3,-13.4 -1.3,-13.4 z"
           id="path86"
           style="fill:#b85348;fill-opacity:1" />
        <path
           class="cls-68"
           d="m 354.66,590.97 c 0,0 -2.27,-1.31 -5.25,-1.8 -2.98,-0.49 -4.32,-0.55 -4.07,-0.55 0.25,0 1.69,1.58 1.69,1.58 0,0 -4.14,14.15 -22.38,12.84 -16.38,-1.18 -20.48,-11.81 -21.55,-14.94 l -1.73,-4.05 c 0,0 -3.31,1.67 -3.72,1.67 -0.41,0 -5.36,17.24 21.39,21.62 26.75,4.38 35.63,-16.36 35.63,-16.36 z"
           id="path87"
           style="fill:#b85348;fill-opacity:1" />
        <path
           class="cls-28"
           d="m 325.82,566.19 c 0,0 0.28,3.03 3.19,2.97 2.91,-0.06 1.65,-3.85 1.65,-3.85 0,0 -2.7,-0.77 -4.84,0.88 z"
           id="path88" />
        <path
           class="cls-28"
           d="m 309.8,569.59 c 0,0 -0.19,3.28 -2.48,3.25 -2.29,-0.03 -2.81,-1.87 -2.53,-3.3 0,0 3.58,-1.49 5.01,0.05 z"
           id="path89" />
        <path
           class="cls-30"
           d="m 302.64,571.3 c 0.31,0.82 1,1.46 1.82,1.72 0.81,0.29 1.7,0.17 2.55,0.06 0.86,-0.12 1.68,-0.34 2.46,-0.74 0.76,-0.58 2.28,0.41 1.65,-0.78 -0.29,-0.8 -0.74,-1.57 -1.46,-2 -0.73,-0.44 -1.61,-0.45 -2.46,-0.35 -0.86,0.1 -1.71,0.29 -2.52,0.6 -0.41,0.15 -0.8,0.33 -1.17,0.56 -0.36,0.23 -0.72,0.52 -0.87,0.94 z m 0,0 c 0.13,-0.42 0.47,-0.74 0.83,-0.99 0.36,-0.25 0.75,-0.46 1.16,-0.63 0.81,-0.34 1.67,-0.56 2.54,-0.69 0.86,-0.14 1.82,-0.12 2.62,0.35 0.8,0.47 1.3,1.3 1.6,2.12 0.06,0.22 0.18,0.42 0.11,0.72 -0.04,0.17 -0.24,0.27 -0.36,0.28 -0.13,0.02 -0.24,0 -0.36,0 -0.45,-0.07 -0.82,-0.08 -1.21,0.13 -0.78,0.39 -1.67,0.64 -2.54,0.72 -0.86,0.08 -1.78,0.19 -2.63,-0.15 -0.84,-0.31 -1.51,-1.01 -1.77,-1.85 z"
           id="path90" />
        <path
           class="cls-30"
           d="m 332.97,566.07 c -0.19,0.85 -0.61,1.66 -1.23,2.3 -0.62,0.65 -1.51,0.99 -2.37,1.14 -0.86,0.18 -1.75,0.23 -2.64,0.19 -0.44,-0.02 -0.88,-0.08 -1.32,-0.16 -0.22,-0.04 -0.43,-0.09 -0.65,-0.15 -0.33,-0.12 -0.38,-0.43 -0.41,-0.65 -0.03,-1.92 1.73,-3.38 3.49,-3.51 1.73,-0.14 3.6,-0.09 5.11,0.84 z m 0,0 c -0.75,-0.46 -1.63,-0.6 -2.49,-0.68 -0.86,-0.08 -1.74,-0.05 -2.59,0.06 -0.84,0.13 -1.67,0.44 -2.27,1.05 -0.59,0.58 -1.02,1.41 -0.97,2.22 0,0.19 0.09,0.39 0.21,0.42 0.2,0.06 0.41,0.11 0.62,0.15 0.42,0.08 0.85,0.14 1.28,0.17 0.86,0.06 1.73,0 2.58,-0.15 0.86,-0.12 1.69,-0.42 2.31,-1.02 0.63,-0.58 1.09,-1.36 1.32,-2.2 z"
           id="path91" />
        <path
           class="cls-32"
           d="m 222.45,813.34 c 0,0 1.32,-10.24 5.94,-13.38 4.62,-3.14 16.18,-6.44 9.41,-5.28 -6.77,1.16 -13.87,4.79 -13.87,4.79 l -17.5,0.83 c 0,0 -12.19,-1.65 -11.79,-0.33 0.4,1.32 7.33,4.95 7.33,4.95 0,0 6.94,6.28 7.27,7.43 0.33,1.16 0.5,1.82 3.3,-1.65 2.8,-3.47 4.79,-4.13 6.77,-2.81 1.98,1.32 3.14,5.45 3.14,5.45 z"
           id="path92" />
        <path
           class="cls-26"
           d="m 234.83,636.31 c 0,0 -4.62,2.64 -7.27,1.82 -2.65,-0.82 -4.62,-1.82 -4.62,-1.82 0,0 -1.82,5.12 -4.79,5.28 -2.97,0.16 -5.28,0 -5.28,0 l -1.32,6.28 -2.31,5.45 c 0,0 2.48,9.08 1.49,9.08 -0.99,0 -4.46,-5.61 -5.78,-4.62 -1.32,0.99 -0.99,4.62 -4.13,1.82 -3.14,-2.8 -10.07,-10.24 -10.07,-10.24 l 3.9,-10.24 c 0,0 -0.1,-8.75 2.71,-11.39 2.81,-2.64 6.94,-5.28 6.94,-5.28 0,0 -1.98,-3.3 1.49,-5.28 3.47,-1.98 6.44,-3.8 7.93,-3.3 1.49,0.5 1.32,0.33 5.78,-1.16 4.46,-1.49 4.95,-0.17 5.61,0 0.66,0.17 3.96,-2.48 8.09,-1.98 4.13,0.5 5.94,0.17 7.1,3.3 1.16,3.14 2.81,3.63 4.95,5.12 2.14,1.49 7.93,5.13 7.93,5.13 0,0 3.47,7.42 2.81,7.91 -0.66,0.49 -2.97,5.45 -2.97,5.45 0,0 -0.83,7.76 2.31,7.27 3.14,-0.49 3.63,-4.95 3.63,-4.95 0,0 2.64,2.81 1.32,4.95 -1.32,2.14 -6.28,4.46 -6.28,4.46 l -1.16,7.76 -1.71,1.18 c 0,0 0.06,-15.55 -1.1,-18.52 -1.16,-2.97 -4.13,-5.45 -4.13,-5.45 0,0 -5.78,5.12 -11.06,1.98 z"
           id="path93" />
        <path
           class="cls-73"
           d="m 230.29,666.78 c 0,0 -0.66,1.16 0,1.49 0.66,0.33 1.07,0.41 1.73,0 0.66,-0.41 2.06,-0.41 2.31,-0.17 0.25,0.24 1.16,0.31 1.57,0.44 0.16,0.05 0.42,-0.04 0.71,-0.18 0.46,-0.22 1,-0.57 1.35,-0.71 0.58,-0.22 1.32,0.24 1.57,0 0.25,-0.24 1.32,-0.89 0.74,-1.63 -0.58,-0.74 -0.66,-0.25 -0.58,-0.74 0.08,-0.49 1.66,1.16 0.75,2.23 -0.91,1.07 -1.49,1.17 -1.74,1.04 -0.25,-0.13 -1.65,-0.15 -1.78,0.05 -0.13,0.2 -0.45,0.17 -1.82,0 -1.37,-0.17 -3.55,0.14 -3.55,0.14 0,0 -1.44,0.39 -1.78,-0.48 -0.34,-0.87 0.21,-1.57 0.5,-1.49 z"
           id="path94" />
        <path
           class="cls-11"
           d="m 235.74,672.93 c -0.39,-0.16 -1.03,-0.78 -1.28,-0.7 -0.25,0.08 -2.23,1.78 -3.14,2.15 -0.91,0.37 -2.85,0.95 -2.11,1.16 0.74,0.21 0,0.17 1.53,0 1.53,-0.17 5.08,-0.83 5.57,-0.91 0.49,-0.08 1.11,0.12 2.27,0.25 1.16,0.13 2.89,0.12 2.77,-0.17 -0.12,-0.29 -0.99,0.05 -1.9,-0.76 -0.91,-0.81 -2.02,-1.73 -2.19,-1.73 -0.17,0 -1.31,0.8 -1.53,0.71 z"
           id="path95" />
        <path
           class="cls-26"
           d="m 227.65,653.36 c -2.68,-0.25 -3.55,-0.29 -5.9,-0.33 -2.35,-0.04 -2.52,0.12 -4.91,0.87 -2.39,0.75 -2.27,0.15 0.29,-0.87 2.56,-1.02 4.62,-1.15 4.62,-1.15 0,0 7.1,0.12 6.77,0.7 -0.33,0.58 -0.87,0.78 -0.87,0.78 z"
           id="path96" />
        <path
           class="cls-26"
           d="m 248.25,652.13 c 0,0 -3.43,-0.54 -4.21,-0.5 -0.78,0.04 -3.8,1.32 -4.5,1.43 -0.7,0.11 0.08,-1.71 0.95,-1.84 0.87,-0.13 2.04,-1.16 3.27,-0.74 1.23,0.42 4.57,1.36 4.49,1.65 z"
           id="path97" />
        <path
           class="cls-74"
           d="m 246.1,655.1 c 0.07,-0.28 -2.06,-1.28 -4.29,-0.41 -2.23,0.87 -2.35,3.01 -2.31,3.3 0.04,0.29 0.37,0.29 0.83,0.21 0.46,-0.08 2.37,0.25 3.44,-0.08 1.07,-0.33 1.93,-1.24 2.34,-3.01 z"
           id="path98" />
        <path
           class="cls-74"
           d="m 219.43,658.26 c 0,0 2.52,-1.84 5.08,-1.68 2.56,0.16 2.85,1.87 2.97,1.68 0.12,-0.19 0.74,0.47 0.62,0.76 -0.12,0.29 -1.2,0.66 -1.32,0.66 -0.12,0 -5.28,1.41 -7.35,-1.42 z"
           id="path99" />
        <path
           class="cls-18"
           d="m 233.51,657.86 c -0.76,1.07 -0.74,4.5 -0.54,5.49 0.21,0.99 -0.08,2.15 -0.08,2.15 0,0 0.96,1.97 4.21,1.07 0,0 1.57,-0.22 1.07,-1.37 -0.5,-1.15 -0.91,-2.1 -0.91,-2.1 l -1.2,-3.92 c 0,0 -1.86,-2.31 -2.56,-1.32 z"
           id="path100" />
        <path
           class="cls-18"
           d="m 227.29,661.25 c -1.48,1.75 -3.85,2.09 -6.06,0.96 -2.2,-1.13 -4.62,-4.22 -4.79,-2.18 -0.17,2.04 3.91,6.99 3.91,6.99 l 3.74,3.64 c 0,0 4.4,-2.75 4.95,-5.06 0.55,-2.31 -1.16,-5.06 -1.76,-4.35 z"
           id="path101" />
        <path
           class="cls-18"
           d="m 240.01,660.03 c -0.31,0.23 -2.47,1.49 -0.74,3.64 1.73,2.15 1.97,4.4 3.53,4.35 1.56,-0.05 2.88,0.66 4.2,-1.54 1.32,-2.2 1.49,-5.61 1.49,-5.61 0,0 -0.72,-1.54 -1.87,-0.61 -1.16,0.94 -2.4,1.71 -3.81,1.05 -1.41,-0.66 -1.82,-1.98 -2.79,-1.27 z"
           id="path102" />
        <path
           class="cls-18"
           d="m 237.15,678.18 c -0.83,-0.58 -3.39,-1.07 -4.87,0 -1.48,1.07 -3.72,1.57 -2.06,2.15 1.66,0.58 4.35,-0.33 5.35,-0.41 1,-0.08 3.93,0.91 3.93,0.91 l -2.35,-2.64 z"
           id="path103" />
        <path
           class="cls-10"
           d="m 235.78,676.03 c -0.29,-0.01 -1.65,0.21 -2.44,0 -0.79,-0.21 -4.01,-0.28 -4.13,-0.5 -0.12,-0.22 3.31,-0.25 4.27,-0.41 0.96,-0.16 2.38,-0.64 3.74,-0.45 1.36,0.19 4.12,0.03 4.12,0.03 0,0 -1.91,1.48 -5.57,1.32 z"
           id="path104" />
        <path
           class="cls-13"
           d="m 221.38,657.16 c 0,0 -0.25,2.2 0.41,2.64 0,0 2.23,0.53 3.55,0 0,0 0.83,-1.05 0.41,-2.64 0,0 -1.07,-1.41 -4.38,0 z"
           id="path105" />
        <path
           class="cls-13"
           d="m 240.33,655.49 c 0,0 -0.39,1.71 0.94,2.48 1.33,0.77 3.46,-0.15 3.3,-1.51 -0.16,-1.35 -0.47,-1.73 -0.47,-1.73 0,0 -1.26,-1.29 -3.77,0.76 z"
           id="path106" />
        <path
           class="cls-15"
           d="m 223.6,625.99 c -0.74,0.08 -2.97,0.17 -3.38,1.4 -0.41,1.23 -1.4,3.3 -0.66,3.88 0.74,0.58 1.49,1.65 2.39,0.83 0.9,-0.82 0.91,-2.64 1.16,-3.3 0.25,-0.66 0,1.73 0.91,1.9 0.91,0.17 1.4,-0.5 1.4,-0.5 0,0 -1.15,-4.21 -1.49,-4.21 h -0.34 z"
           id="path107" />
        <path
           class="cls-15"
           d="m 232.6,624.27 c -0.66,-0.18 -3.06,-0.1 -2.97,1.31 0.08,1.4 0.41,3.22 0.41,3.22 l 2.56,-1.16 c 0,0 -1.9,1.54 0,1.55 1.9,0.01 2.72,2.57 3.14,-0.4 0.42,-2.97 0.5,-3.39 0,-4.13 -0.5,-0.74 -3.14,-0.4 -3.14,-0.4 z"
           id="path108" />
        <path
           class="cls-15"
           d="m 225.87,620.46 c -1.93,-0.25 -4.08,1.4 -4.08,1.4 0,0 -0.76,1.84 0.57,2.41 1.33,0.57 3.15,0.34 3.81,0 0.66,-0.34 -0.3,-3.81 -0.3,-3.81 z"
           id="path109" />
        <path
           class="cls-15"
           d="m 232.86,614.93 c -1.57,-0.83 -4.79,-0.33 -3.64,0.91 1.16,1.24 3.06,1.73 3.06,1.73 0,0 2.72,1.32 2.48,0 -0.25,-1.32 -1.89,-2.64 -1.89,-2.64 z"
           id="path110" />
        <path
           class="cls-15"
           d="m 217.41,621.78 c -1.49,0.17 -3.55,0.33 -2.97,1.4 0.58,1.07 3.55,2.81 3.55,2.81 0,0 4.04,-0.77 3.34,-1.38 -0.7,-0.61 -2.77,-2.97 -3.92,-2.84 z"
           id="path111" />
        <path
           class="cls-15"
           d="m 209.32,623.02 c -1.73,1.29 -4.62,4.01 -2.97,4.19 1.65,0.18 8.14,2.74 7.99,0.84 -0.15,-1.9 -3.81,-5.93 -5.02,-5.04 z"
           id="path112" />
        <path
           class="cls-15"
           d="m 240.06,620.43 c -2.34,1.18 -3.58,3.76 -3.58,3.76 0,0 1.32,-0.69 2.81,-1.3 1.49,-0.61 0.77,-2.46 0.77,-2.46 z"
           id="path113" />
        <path
           class="cls-15"
           d="m 226.4,614.52 c -2.78,0.39 -4.79,1.07 -2.8,2.47 1.99,1.4 3.14,2.23 3.89,1.98 0.75,-0.25 1.99,-1.19 1.49,-2.2 -0.5,-1.02 -1.61,-2.38 -2.58,-2.25 z"
           id="path114" />
        <path
           class="cls-31"
           d="m 246.1,655.1 c -0.07,-0.19 -0.3,-0.26 -0.47,-0.34 -0.19,-0.07 -0.38,-0.13 -0.58,-0.17 -0.39,-0.09 -0.79,-0.14 -1.19,-0.14 -0.8,0 -1.6,0.15 -2.31,0.51 -0.71,0.33 -1.3,0.91 -1.64,1.63 -0.17,0.36 -0.29,0.74 -0.34,1.14 -0.03,0.2 -0.05,0.41 0.16,0.46 0.19,0.05 0.4,0.03 0.6,0 -0.2,0.04 -0.4,0.1 -0.62,0.06 -0.11,-0.01 -0.22,-0.1 -0.25,-0.22 -0.03,-0.11 -0.03,-0.22 -0.02,-0.32 0.02,-0.42 0.12,-0.83 0.28,-1.22 0.32,-0.78 0.96,-1.42 1.72,-1.79 0.76,-0.36 1.61,-0.52 2.44,-0.47 0.42,0.02 0.83,0.1 1.22,0.22 0.2,0.07 0.39,0.14 0.57,0.24 0.17,0.1 0.4,0.19 0.45,0.4 z"
           id="path115" />
        <path
           class="cls-31"
           d="m 219.43,658.26 c 0.67,-0.52 1.41,-0.96 2.2,-1.28 0.79,-0.32 1.64,-0.53 2.51,-0.55 0.86,0.01 1.76,0.18 2.47,0.72 0.35,0.27 0.62,0.63 0.83,1 0.02,0.05 0.07,0.08 0,0.07 0.08,-0.08 0.17,-0.03 0.21,0 0.1,0.06 0.18,0.14 0.25,0.22 0.12,0.17 0.26,0.38 0.2,0.59 0.04,-0.21 -0.12,-0.4 -0.25,-0.54 -0.07,-0.07 -0.15,-0.14 -0.24,-0.18 -0.04,-0.02 -0.08,-0.01 -0.08,0 0.02,-0.02 -0.06,0.06 -0.09,0.04 -0.02,0 -0.05,-0.02 -0.07,-0.04 l -0.06,-0.07 c -0.23,-0.36 -0.5,-0.66 -0.84,-0.9 -0.67,-0.46 -1.52,-0.62 -2.34,-0.61 -0.83,0 -1.65,0.19 -2.43,0.47 -0.79,0.28 -1.55,0.64 -2.28,1.08 z"
           id="path116" />
        <path
           class="cls-58"
           d="m 164.32,504.71 c 0,0 3.47,8.08 5.28,10.23 1.81,2.15 0,2.64 4.46,2.64 4.46,0 9.41,-1.49 11.72,3.63 2.31,5.12 3.63,14.2 3.47,15.36 -0.16,1.16 -2.48,9.58 -2.64,11.39 -0.17,1.82 2.66,15.36 2.66,15.36 l 7.09,-6.61 5.94,-3.14 v -2.15 l 6.28,-5.78 -1.16,-3.8 1.16,-5.94 -2.81,-7.27 c 0,0 -2.81,-10.9 -4.46,-17.34 -1.65,-6.44 -7.1,-17.83 -10.57,-20.15 -3.47,-2.31 -11.72,-9.74 -20.15,-9.25 -8.43,0.49 -14.04,-4.34 -17.83,-0.02 -3.8,4.32 -19.32,19.26 -21.3,25.5 -1.98,6.23 -3.3,10.69 -3.63,16.47 -0.33,5.78 -4.29,13.21 -1.49,21.63 2.81,8.42 7.6,14.04 7.6,14.04 l 13.71,6.61 -0.67,-20.31 c 0,0 -4.12,-9.01 -4.78,-20.94 0,0 0.83,-4 1.98,-3.67 1.15,0.33 3.63,0 3.63,0 l 2.64,-1.82 c 0,0 2.31,-0.5 2.31,-1.16 0,-0.66 -0.83,-6.36 1.16,-10.86 0,0 2.31,9.21 4.79,11.35 l 1.32,-0.17 c 0,0 -1.65,-5.28 -1.49,-7.6 0.17,-2.31 1.49,-4.75 1.49,-4.75 0,0 3.47,11.85 4.79,12.68 0,0 2.63,0.17 2.14,-0.5 -0.49,-0.67 -4.29,-9.06 -2.64,-13.69 z"
           id="path117" />
        <path
           class="cls-21"
           d="m 168.78,533.85 c 0,-0.83 -0.74,-1.32 -1.49,-1.32 -0.75,0 -1.82,0.41 -1.9,0.66 -0.08,0.25 0.58,0.99 -0.5,1.32 -1.08,0.33 -3.06,1.16 -3.47,0.41 -0.41,-0.75 -0.58,-2.64 -1.9,-1.65 -1.32,0.99 -0.99,1.24 -0.99,1.49 0,0.25 -0.41,0.19 -0.66,0.47 -0.25,0.28 0.83,0.69 0.83,0.69 0,0 2.31,0.08 2.89,0 0.58,-0.08 7.18,-1.32 7.18,-2.06 z"
           id="path118" />
        <path
           class="cls-74"
           d="m 147.65,524.6 c 0.25,0 1.49,1.24 3.72,1.24 2.23,0 4.29,-0.41 4.87,-0.62 0.58,-0.21 0.91,-0.88 -0.58,-2.11 -1.49,-1.23 -4.13,-1.64 -5.53,-0.74 -1.4,0.9 -2.48,2.23 -2.48,2.23 z"
           id="path119" />
        <path
           class="cls-74"
           d="m 178.28,520.72 c 0,0 -1.98,1.9 -4.05,1.9 -2.07,0 -3.22,0.25 -3.88,0 -0.66,-0.25 -1.73,-0.08 -1.57,-0.41 0.16,-0.33 1.06,-3.14 4.74,-3.3 3.68,-0.16 4.76,1.82 4.76,1.82 z"
           id="path120" />
        <path
           class="cls-74"
           d="m 164.32,540.26 c -0.22,0.06 -7.77,3.01 -7.6,3.66 0.17,0.65 5.96,1.02 7.96,0.85 2,-0.17 7.33,-2.99 7.33,-2.99 z"
           id="path121" />
        <path
           class="cls-72"
           d="m 163.83,539.63 c -0.5,-0.08 -2.56,0.08 -4.21,1.4 -1.65,1.32 -3.39,3.06 -3.39,3.06 0,0 6.11,-2.08 7.93,-2.24 1.82,-0.16 8.26,-0.17 8.83,0 0.57,0.17 -0.58,-1.93 -3.55,-2.24 -2.97,-0.31 -5.61,0.02 -5.61,0.02 z"
           id="path122" />
        <path
           class="cls-62"
           d="m 164.61,544.08 c -1.84,0.3 -7.56,-0.27 -7.56,-0.27 l -0.82,0.27 c 0,0 3.8,3.22 8.83,3.06 5.03,-0.16 7.93,-5.29 7.93,-5.29 l -1.41,-0.1 c 0,0 -4.47,1.92 -6.97,2.33 z"
           id="path123" />
        <path
           class="cls-24"
           d="m 170.95,519.64 c 0,0 0.29,2.62 1.44,3.03 0,0 2.72,0.1 3.22,-0.31 0.5,-0.41 0.31,-2.46 -0.35,-3.37 0,0 -2.54,-0.55 -4.31,0.65 z"
           id="path124" />
        <path
           class="cls-24"
           d="m 154.14,522.37 c 0,0 0.66,2.81 0.17,3.22 0,0 -1.2,0.25 -3.34,0.25 0,0 -1.98,-1.57 -0.9,-3.47 0,0 2.76,-1.07 4.08,0 z"
           id="path125" />
        <path
           class="cls-37"
           d="m 100.73,610.66 -9.99,-6.21 17.3,-22.5 h 4.5 c 0,0 5.39,-2.35 10.13,0 4.74,2.35 6.72,5.76 6.72,5.76 l -11.26,23.27 -15.13,-6.19 -2.25,5.87 z"
           id="path126" />
        <polygon
           class="cls-39"
           points="100.73,610.66 102.99,604.79 112.53,581.95 108.04,581.95 90.74,604.44 "
           id="polygon126" />
        <path
           class="cls-31"
           d="m 304.98,517.08 c -0.17,0.5 -3.8,4.62 -3.8,4.62 l 3.8,-0.5 -3.8,5.78 c 0,0 -5.12,8.09 -5.12,9.91 0,0 9.08,-11.82 10.24,-12.02 1.16,-0.2 0,4.42 0,4.42 l 2.31,-2.31 -1.49,8.09 2.64,-3.47 -3.3,9.08 c 0,0 -0.66,4.46 -3.55,6.28 -2.89,1.82 -5.64,1.82 -4.84,1.32 0.8,-0.5 3.77,-6.61 3.77,-6.61 l -4.79,6.89 1.02,-6.56 -4.98,5.78 v -6.94 l -3.63,6.61 -1.82,3.96 -1.82,-3.3 c 0,0 -0.5,8.92 0.83,12.88 1.33,3.96 8.48,13.71 11.42,15.52 l 1.13,1.16 -2.31,-12.22 c 0,0 0.99,0.83 3.63,1.16 2.64,0.33 6.61,-2.48 6.61,-2.48 0,0 0.5,-7.76 1.32,-9.91 0.82,-2.15 2.31,-15.36 1.98,-14.04 -0.33,1.32 -4.79,8.59 -4.79,8.59 l 1.82,-7.1 3.96,-10.24 6.11,3.96 -4.62,-8.42 6.77,4.62 c 0,0 -9.08,-9.25 -9.25,-10.24 -0.17,-0.99 7.6,1.16 7.6,1.16 0,0 -3.63,0 -3.3,-4.13 0.33,-4.13 2.15,0.17 3.63,0.66 1.48,0.49 2.15,0 1.98,-1.32 -0.17,-1.32 3.14,-0.17 3.14,-0.17 l 5.45,2.31 1.82,-1.82 c 0,0 4.13,2.97 3.96,2.48 -0.17,-0.49 -2.81,-5.12 -2.81,-5.12 l 4.79,-1.82 c 0,0 -5.78,-3.3 -8.42,-2.81 -2.64,0.49 -7.27,1.16 -7.27,1.16 l -3.3,-3.3 c 0,0 -1.98,3.14 -3.14,3.63 -1.16,0.49 -6.11,-2.15 -8.26,-0.66 -2.15,1.49 -1.98,1.49 1.32,1.32 3.3,-0.17 6.77,-0.33 4.79,0.5 -1.98,0.83 -7.43,3.63 -7.43,3.63 z"
           id="path127" />
        <path
           class="cls-31"
           d="m 311.98,557.92 v -6.77 c 0,0 2.31,5.28 3.3,3.39 0.99,-1.89 1.49,-5.7 1.49,-5.7 l 2.48,-0.99 h 0.99 l 6.11,6.77 c 0,0 4.46,7.76 3.14,7.93 -0.29,0.04 -3.88,3.1 -6.19,1.49 -2.31,-1.61 -3.58,-8.03 -5.01,-7.32 -0.82,0.4 0.09,4.42 3.58,8.54 1.04,1.23 -5.94,2.94 -6.91,1.42 -2.31,-3.63 -2.97,-8.75 -2.97,-8.75 z"
           id="path128" />
        <path
           class="cls-31"
           d="m 152.42,507.38 v 11.19 h -1.98 c 0,0 -0.99,2.81 -1.82,2.64 -0.83,-0.17 -1.82,-1.98 -2.81,0 -0.99,1.98 -2.81,2.64 -2.81,2.64 0,0 0,9.17 3.71,21.17 0.08,0.26 0.16,0.52 0.25,0.79 3.96,12.39 -0.08,-0.26 -0.08,-0.26 0,0 -7.35,8.69 -10.32,7.2 -2.97,-1.49 -6.77,4.46 -6.44,-5.94 0.33,-10.4 1.32,-9.99 3.14,-16.56 1.82,-6.56 1.49,-9.37 2.31,-13.83 0.83,-4.46 1.49,-7.76 1.49,-7.76 0,0 0.5,8.92 0.83,9.41 0.33,0.49 3.38,-1.49 3.38,-1.49 0,0 -0.59,-2.3 0,-9.74 0.59,-7.44 5.87,-16.19 5.87,-16.19 0,0 -4.79,11.56 -4.79,14.86 0,3.3 0.17,12.88 0.99,12.88 0.82,0 6.77,-8.3 6.77,-8.3 0,0 -1.16,-10.85 2.31,-15.31 v 12.59 z"
           id="path129" />
        <path
           class="cls-31"
           d="m 165.14,502.8 c 0,0 1.82,9.49 4.95,11.14 3.13,1.65 13.71,2.97 13.71,2.97 l -9.33,-8.92 -9.33,-5.2 z"
           id="path130" />
        <path
           class="cls-31"
           d="m 188.26,493.96 c 0.66,0.17 11.89,24.61 11.89,24.61 0,0 2.97,9.91 1.49,12.88 -1.49,2.97 -6.28,-0.33 -7.93,-2.48 -1.65,-2.15 -4.95,-3.45 -4.62,-2.55 0.33,0.9 1.49,9.82 0.66,14.6 -0.83,4.78 -3.63,8.92 -3.47,10.57 0.17,1.65 2.64,6.11 2.64,6.11 l 8.42,-3.14 -3.18,-8.09 7.89,-3.21 c 0,0 -6.86,2.88 -3.88,-1.75 2.97,-4.62 4.79,-5.45 4.79,-5.45 0,0 2.48,-8.09 -0.99,-16.51 -3.47,-8.42 -13.71,-25.6 -13.71,-25.6 z"
           id="path131" />
        <path
           class="cls-31"
           d="m 159.69,483.82 c -0.66,0.41 -5.78,4.7 -5.61,5.69 0.17,0.99 2.81,-3.26 3.63,-3.12 0.82,0.14 1.15,4.11 -0.83,5.43 -1.98,1.32 -2.81,3.47 -2.81,3.47 l 4.13,-2.6 z"
           id="path132" />
        <path
           class="cls-30"
           d="m 156.23,525.22 c 0.23,-0.09 0.43,-0.28 0.45,-0.53 0.02,-0.24 -0.1,-0.46 -0.24,-0.66 -0.28,-0.39 -0.67,-0.72 -1.06,-1 -0.8,-0.55 -1.76,-0.88 -2.72,-0.98 -0.96,-0.11 -1.98,0 -2.76,0.6 -0.81,0.56 -1.56,1.22 -2.25,1.94 0.61,-0.79 1.31,-1.52 2.12,-2.12 0.8,-0.67 1.92,-0.81 2.92,-0.7 1.01,0.13 2,0.47 2.82,1.08 0.4,0.32 0.77,0.66 1.05,1.1 0.13,0.22 0.23,0.48 0.19,0.74 -0.04,0.27 -0.28,0.45 -0.51,0.52 z"
           id="path133" />
        <path
           class="cls-30"
           d="m 170.35,522.62 c -0.26,-0.08 -0.54,-0.1 -0.81,-0.12 l -0.41,-0.02 c -0.13,-0.03 -0.3,0.03 -0.42,-0.18 0.16,-0.6 0.43,-1.05 0.75,-1.52 0.65,-0.92 1.68,-1.54 2.77,-1.83 1.1,-0.23 2.24,-0.24 3.33,0 1.08,0.24 2.16,0.81 2.73,1.77 -0.66,-0.9 -1.73,-1.36 -2.77,-1.56 -1.06,-0.2 -2.17,-0.18 -3.22,0.06 -1.04,0.25 -2,0.83 -2.66,1.69 -0.33,0.4 -0.62,0.93 -0.79,1.36 0,0.04 0.18,0.09 0.3,0.11 l 0.41,0.06 c 0.27,0.04 0.55,0.08 0.81,0.18 z"
           id="path134" />
        <path
           class="cls-7"
           d="m 171.59,637.59 c 0,0 5.2,0.89 5.2,4.25 0,1.57 0.33,4.87 -6.49,4.43 -6.82,-0.44 -21.36,-6.17 -21.36,-6.17 l -16.51,-5.94 c 0,0 -14.97,-0.53 -17.39,1.17 -2.42,1.7 -11.45,12.27 -13.87,15.79 -2.42,3.52 -4.18,6.39 -5.06,9.69 -0.88,3.3 3.3,9.25 1.1,13.65 -2.2,4.4 -2.67,11.23 -1.22,16.51 1.45,5.28 9.15,12.33 9.15,12.33 0,0 -3.08,1.87 2.42,9.74 5.5,7.87 19.6,16.02 19.6,16.02 l 67.6,10.13 14.97,-5.06 v -6.17 c 0,0 -2.42,-4.19 -1.32,-10.02 1.1,-5.83 -0.44,-13.76 -3.08,-19.26 -2.64,-5.5 -5.94,-8.37 -4.84,-15.41 1.1,-7.05 1.76,-11.9 0.88,-15.09 -0.88,-3.19 -2.86,-12.22 -2.86,-12.22 0,0 -4.84,-7.93 -8.59,-11.89 -3.75,-3.96 -17.64,-9.12 -18.3,-6.48 z"
           id="path135" />
        <path
           class="cls-51"
           d="m 183.65,670.66 c 0,0 -1.49,-6.5 2.64,-9.85 4.13,-3.36 7.53,-11.28 7.53,-11.28 l -3.9,-5.28 6.77,3.47 -1.32,9.74 -5.33,15.52 c 0,0 3.22,10.73 3.78,15.52 0.56,4.79 1.06,14.53 1.39,20.15 0.33,5.62 -2.78,13.54 -1.39,18 1.39,4.46 1.88,11.23 1.06,14.53 -0.82,3.3 -6.77,16.02 -6.61,23.12 0.17,7.1 1.32,15.36 0.17,17.83 -1.16,2.48 -2.31,5.45 -2.31,5.45 0,0 -0.17,13.05 1.32,18.99 1.49,5.94 0,18.8 0,18.8 l -4.06,19.34 -5.85,19.65 h -37.65 l -43.1,-1.98 2.64,-40.62 c 0,0 2.64,-1.49 3.14,-7.27 0.5,-5.78 0.17,-11.06 -1.32,-19.82 -1.49,-8.75 -2.81,-13.71 -1.65,-19.49 1.16,-5.78 1.32,-8.26 1.32,-13.21 0,-4.95 -1.49,-26.42 0.66,-32.7 2.15,-6.28 5.12,-16.63 6.11,-16.24 0.99,0.39 4.29,4.52 4.29,4.52 0,0 16.18,-13.54 19.65,-21.3 3.47,-7.76 3.14,-10.24 4.29,-13.87 1.16,-3.63 1.65,-2.48 1.32,-9.74 -0.33,-7.26 -2.15,-12.55 -2.31,-18.83 -0.16,-6.28 16.02,6.99 16.02,6.99 l 1.98,9.85 c 0,0 25.76,-2.48 30.72,0 z"
           id="path136" />
        <path
           class="cls-48"
           d="m 103.28,604.11 c 0,0 -8.26,18.5 -4.29,23.78 3.96,5.28 16.18,8.26 16.18,8.26 0,0 5.61,-3.63 12.22,0 0,0 1.65,21.14 1.98,23.12 0.33,1.98 3.3,5.61 6.61,7.27 3.31,1.66 11.23,-1.65 11.23,-1.65 0,0 0,9.25 3.3,9.25 3.3,0 2.97,-7.93 2.97,-7.93 0,0 0.99,3.96 2.64,3.96 1.65,0 1.98,-11.23 1.98,-11.23 0,0 1.65,6.28 1.65,-0.33 0,-6.61 -1.32,-7.27 -3.96,-12.88 -2.64,-5.61 -11.89,-17.5 -11.89,-17.5 0,0 -6.28,-7.27 -8.26,-8.26 -1.98,-0.99 -14.2,-6.94 -14.2,-6.94 0,0 -15.52,-9.91 -18.17,-8.92 z"
           id="path137" />
        <path
           class="cls-5"
           d="m 160.12,758.35 c -1.16,-0.83 -15.36,-11.56 -18.33,-15.03 -2.97,-3.47 -15.36,-18.5 -15.52,-19.16 -0.16,-0.66 4.46,-14.37 6.44,-18 1.98,-3.63 9.57,-17.5 10.48,-18 0.91,-0.5 16.93,1.32 16.93,1.32 0,0 6.77,6.28 7.27,5.61 0.5,-0.67 2.64,-3.96 3.63,-4.13 0.99,-0.17 14.7,1.14 15.19,0.98 0.49,-0.16 4.46,33.86 4.46,33.86 0,0 -4.95,8.42 -7.6,11.72 -2.64,3.3 -4.13,6.28 -8.42,10.57 -4.29,4.29 -14.53,10.24 -14.53,10.24 z"
           id="path138" />
        <path
           class="cls-5"
           d="m 133.86,744.15 c -0.66,0.17 -10.9,9.08 -13.54,7.76 -2.64,-1.32 -5.94,-4.66 -6.61,-3.81 -0.67,0.85 -1.49,5.47 -3.63,7.28 -2.15,1.82 -7.27,4.62 -7.27,4.62 0,0 3.3,10.07 4.46,9.41 1.16,-0.66 28.9,-11.56 30.55,-14.37 1.65,-2.81 -3.96,-10.9 -3.96,-10.9 z"
           id="path139" />
        <path
           class="cls-5"
           d="m 182.58,743.32 c -1.28,2.49 -1.65,8.59 -1.65,8.59 l 6.61,6.44 3.14,-10.57 c 0,0 -0.33,-4.62 -0.99,-4.46 -0.66,0.16 -0.33,4.13 -2.48,2.64 -2.15,-1.49 -3.57,-4.71 -4.62,-2.64 z"
           id="path140" />
        <path
           class="cls-5"
           d="m 120.31,764.13 c 0,0 -1.77,14.67 0,19.13 1.77,4.46 8.64,20.25 12.32,23.6 3.68,3.35 13.42,7.81 14.38,8.29 0.96,0.48 0,4.3 0,4.3 0,0 -9.43,-2.07 -14.7,-7.49 -5.27,-5.42 -11.66,-13.23 -13.58,-19.29 -1.92,-6.06 -3.2,-9.41 -3.2,-13.71 v -12.91 l 4.78,-1.91 z"
           id="path141" />
        <path
           class="cls-5"
           d="m 154.18,815.11 -1.3,4.34 c 0,0 9.38,0 14.01,-1.32 4.63,-1.32 11.89,-7.27 14.04,-10.07 2.15,-2.81 3.63,-5.94 3.8,-6.77 0.17,-0.83 0.5,-11.23 0,-9.5 -0.5,1.73 -2.64,13.29 -6.77,15.61 -4.13,2.31 -8.42,7.27 -12.39,7.43 -3.97,0.16 -11.38,0.29 -11.38,0.29 z"
           id="path142" />
        <path
           class="cls-5"
           d="m 151.03,827.54 2.15,-9.41 c 0,0 1.82,-7.05 3.14,-12.61 1.32,-5.56 3.63,-12.22 3.96,-15.25 0.33,-3.03 -0.33,-6.66 0.83,-13.43 1.16,-6.77 2.64,-12.88 0.83,-15.69 -1.81,-2.81 -2.97,-3.6 -5.61,-4.36 -2.64,-0.76 -4.79,1.55 -3.8,6.34 0.99,4.79 3.3,5.45 3.14,13.38 -0.17,7.93 1.32,9.41 -0.5,19.82 -1.82,10.4 -2.48,15.52 -4.13,17.17 -1.65,1.65 -2.64,0.5 -3.3,4.29 -0.66,3.8 -2.15,10.9 -2.15,10.9 l 1.82,4.13 3.63,-5.28 z"
           id="path143" />
        <path
           class="cls-36"
           d="m 152.08,643.19 c -3.74,-0.11 -10.02,-6.28 -9.14,-9.58 0.88,-3.3 0.33,-4.62 2.64,-3.96 2.31,0.66 4.95,1.43 6.5,1.21 1.55,-0.22 1.87,-0.11 3.85,0.22 1.98,0.33 1.98,0.22 3.52,0.99 1.54,0.77 8.26,0.33 9.58,2.97 1.32,2.64 4.73,5.72 -3.19,8.15 -7.92,2.43 -13.76,0 -13.76,0 z"
           id="path144" />
        <path
           class="cls-35"
           d="m 128.83,661.25 c 0,0 2.31,15.85 9.25,19.82 0,0 8.92,-11.23 10.57,-13.54 1.65,-2.31 13.54,-5.35 14.53,-9.12 0.99,-3.77 3.96,-11.36 3.96,-11.36 0,0 4.95,-3.3 2.97,-6.28 -1.98,-2.98 -0.33,-3.96 -2.64,-4.62 -2.31,-0.66 -4.95,1.98 -4.95,1.98 l -6.94,4.95 c 0,0 4.29,-3.85 2.31,-7.04 -1.98,-3.2 -8.19,3.41 -8.19,3.41 l -2.05,0.66 c 0,0 1.65,-1.32 0.33,-1.98 -1.32,-0.66 -7.93,4.62 -9.25,7.6 -1.32,2.98 -2.31,6.94 -3.63,8.59 -1.32,1.65 -6.28,6.94 -6.28,6.94 z"
           id="path145" />
        <path
           class="cls-74"
           d="m 130.59,659.6 c 0,0 -2.19,2.09 -0.86,6.05 1.33,3.96 8.22,15.22 8.22,15.22 l 6.35,-7.68 c 0,0 3.47,12.17 0.49,14.48 -2.98,2.31 -4.83,1.32 -7.29,2.64 -2.46,1.32 -3.12,0.48 -3.45,1.64 -0.33,1.16 -1.49,5.62 -3.8,4.8 -2.31,-0.82 -2.04,-1.12 -4.9,0.1 -2.86,1.22 -7.65,8.32 -15.41,6.01 -7.76,-2.31 -11.06,-8.26 -12.22,-13.38 -1.16,-5.12 0.33,-14.53 3.14,-17.17 2.81,-2.64 11.39,-8.26 15.03,-8.26 3.64,0 12.06,-6.11 14.7,-4.46 z"
           id="path146" />
        <path
           class="cls-42"
           d="m 166.57,546.97 1.98,3.3 c 0,0 4.79,-4.13 8.09,2.64 3.3,6.77 6.28,13.87 6.44,16.35 0.17,2.48 1.49,10.57 3.47,14.53 1.98,3.96 3.96,7.93 3.96,7.93 0,0 -1.16,-5.79 0,-10.91 1.16,-5.12 3.8,-9.25 1.82,-19.16 -1.98,-9.91 -6.44,-18.64 -13.54,-18.4 -7.1,0.24 -8.26,1.72 -8.26,1.72 0,0 5.12,-5.45 4.79,-8.59 -0.33,-3.14 -3.96,0.66 -4.46,2.15 -0.5,1.49 0.33,-2.64 -3.63,-4.79 -3.96,-2.15 -12.55,-0.33 -14.86,3.63 0,0 10.9,-7.6 15.03,-1.49 4.13,6.11 -0.83,11.06 -0.83,11.06 z"
           id="path147" />
        <path
           class="cls-50"
           d="m 127.5,569.83 7.03,-9.15 c 0,0 -1.49,-7.1 2.97,-9.58 4.46,-2.48 7.43,-5.28 10.9,-3.14 3.47,2.15 7.76,4.62 13.71,6.94 5.94,2.31 13.57,2.97 18.26,6.19 4.69,3.22 6.34,5.54 7.66,10.49 1.32,4.95 -4.13,13.21 -4.13,13.21 l -32.53,-5.45 z"
           id="path148" />
        <path
           class="cls-54"
           d="m 153.52,581.65 c 0,0 3.63,4.13 0.83,7.6 -2.8,3.47 -7.76,4.95 -8.26,4.95 -0.5,0 2.15,0 2.97,0 0.82,0 3.8,-0.62 4.79,-1.96 0.99,-1.34 3.8,-5.31 3.8,-6.13 v -2.64 c 0,0 2.48,1.82 1.82,4.46 -0.66,2.64 -1.32,5.94 -2.81,6.28 -1.49,0.34 -3.86,1.16 -3.86,1.16 0,0 1.38,0.83 4.02,0.83 2.64,0 9.58,0.17 10.07,-8.09 0,0 0.17,-2.48 0.99,-2.31 0.82,0.17 1.82,2.15 0.99,5.28 -0.83,3.13 -1.98,5.45 -3.8,5.94 0,0 -2.31,1.82 2.64,0 4.95,-1.82 5.28,-2.31 5.94,-3.8 0.66,-1.49 1.32,-4.62 1.32,-4.62 0,0 0.66,5.94 0,7.76 -0.66,1.82 0.66,2.77 1.49,1.47 0.83,-1.3 2.64,-6.5 2.64,-7.78 0,-1.28 2.31,2.21 2.31,2.21 0,0 0.83,5.44 0.66,6.18 -0.17,0.74 2.64,-0.91 3.3,-3.23 0.66,-2.31 0,-7.6 0,-7.6 0,0 0.92,12.72 0.29,13.87 -0.62,1.16 -2.61,14.86 -2.61,14.86 0,0 5.45,3.3 4.79,7.1 -0.66,3.8 -5.78,8.75 -6.61,8.92 -0.83,0.17 5.56,-1.16 6.66,-3.47 1.1,-2.31 2.75,-6.44 1.6,-8.26 -1.16,-1.82 -3.63,-7.93 -3.63,-7.93 l 1.82,-7.6 4.46,9.08 -1.16,8.92 c 0,0 5.81,-7.76 4.06,-9.74 -1.75,-1.98 -5.71,-10.57 -5.71,-10.57 l 6.04,1.65 c 0,0 3.23,2.81 0,12.39 -3.23,9.58 -0.33,1.16 -0.33,1.16 0,0 3.86,-6.26 3.2,-10.97 -0.66,-4.71 -5.94,-10.49 -5.94,-10.49 0,0 -2.15,-9.74 -1.65,-12.72 0.5,-2.98 -6.77,-9.91 -8.75,-11.39 -1.98,-1.48 -3.12,-2.15 -9.74,-6.44 -6.62,-4.29 -8.43,-6.11 -9.09,-7.6 -0.66,-1.49 0.5,-5.94 0.5,-5.94 l -1.82,-1.32 c 0,0 -4.95,1.82 -8.59,4.62 -3.64,2.8 -7.16,13.21 -7.16,13.21 l 4.02,7.27 -9.58,-10.9 -12.06,2.45 -5.28,11.91 c 0,0 0,11.56 -1.32,16.18 -1.32,4.62 -5.12,10.24 -5.12,10.24 0,0 -5.94,5.45 -4.29,7.76 1.65,2.31 5.12,4.79 4.95,4.29 -0.17,-0.5 -0.17,-6.77 -0.17,-6.77 l 4.95,-7.43 3.3,4.47 c 0,0 -4.13,12.37 -6.11,12.7 -1.98,0.33 -3.14,1.49 -3.14,1.49 0,0 6.22,3.14 8.31,-2.15 2.09,-5.29 5.39,-12.04 5.39,-12.04 l 4.46,-3.98 c 0,0 4.46,-4.13 6.44,-9.08 1.98,-4.95 1.98,-6.44 1.98,-6.44 0,0 1.82,-3.63 4.79,-5.12 2.97,-1.49 5.94,-2.15 5.94,-2.15 z"
           id="path149"
           style="fill:#d5b478;fill-opacity:1" />
        <path
           class="cls-74"
           d="m 160.41,550.52 c 0,0 3.72,2.81 3.95,2.6 0.23,-0.21 3.06,0.45 3.74,-0.87 0.68,-1.32 1.98,-1.68 0.66,-2.75 -1.32,-1.07 -3.39,-3.3 -3.39,-3.3 0,0 -5.73,2.14 -4.96,4.32 z"
           id="path150" />
        <path
           class="cls-14"
           d="m 149.79,601.82 c 0,0 -0.66,3.63 2.56,3.8 3.22,0.17 2.81,-3.72 2.81,-3.8 0,-0.08 -2.15,-1.24 -5.37,0 z"
           id="path151" />
        <path
           class="cls-14"
           d="m 172.96,604.11 c 0,0 0.58,3.14 3.47,2.64 2.89,-0.5 2.23,-3.88 2.23,-3.88 0,0 -2.64,-1.16 -5.7,1.24 z"
           id="path152" />
        <path
           class="cls-31"
           d="m 157.99,604.44 c -0.62,-0.85 -1.38,-1.57 -2.25,-2.09 -0.88,-0.52 -1.88,-0.76 -2.88,-0.73 -1.02,0.02 -2.03,0.24 -3.02,0.5 -0.99,0.26 -1.98,0.6 -2.92,1.01 l 0.07,-0.39 c 0.64,0.63 1.34,1.25 2.1,1.76 0.76,0.52 1.56,0.98 2.47,1.21 -0.93,-0.1 -1.82,-0.48 -2.64,-0.95 -0.81,-0.49 -1.57,-1.03 -2.27,-1.69 -0.1,-0.09 -0.1,-0.24 -0.01,-0.34 0.02,-0.02 0.05,-0.04 0.08,-0.06 1.93,-0.88 3.98,-1.55 6.14,-1.57 1.09,-0.03 2.19,0.34 3.07,0.95 0.89,0.6 1.58,1.46 2.07,2.38 z"
           id="path153" />
        <path
           class="cls-31"
           d="m 178.74,606.59 c 0.6,-0.25 1.17,-0.56 1.69,-0.95 0.52,-0.37 1.01,-0.81 1.4,-1.28 l 0.09,0.34 c -0.23,-0.12 -0.25,-0.17 -0.38,-0.25 l -0.32,-0.21 c -0.21,-0.14 -0.42,-0.28 -0.64,-0.4 -0.44,-0.25 -0.9,-0.46 -1.37,-0.61 -0.95,-0.29 -1.96,-0.42 -2.94,-0.24 -0.98,0.18 -1.95,0.53 -2.83,1.03 -0.43,0.26 -0.84,0.57 -1.2,0.92 -0.18,0.18 -0.34,0.38 -0.47,0.59 -0.11,0.2 -0.24,0.5 -0.01,0.68 -0.26,-0.14 -0.2,-0.51 -0.1,-0.73 0.1,-0.25 0.25,-0.48 0.41,-0.69 0.33,-0.43 0.74,-0.77 1.17,-1.08 0.88,-0.61 1.87,-1.03 2.93,-1.24 1.06,-0.23 2.19,-0.12 3.2,0.24 0.51,0.18 0.99,0.42 1.45,0.69 0.23,0.13 0.45,0.28 0.67,0.44 l 0.31,0.24 c 0.08,0.07 0.25,0.2 0.24,0.21 l 0.09,0.34 c -0.48,0.49 -1,0.89 -1.58,1.23 -0.58,0.33 -1.19,0.59 -1.83,0.73 z"
           id="path154" />
        <path
           class="cls-34"
           d="m 164.45,605.52 c -2.34,2.06 -3.47,4.21 -3.55,5.53 -0.08,1.32 0.08,2.06 -0.41,2.23 -0.49,0.17 -2.48,2.39 -1.49,2.89 0.99,0.5 2.48,-0.74 3.55,0 1.07,0.74 1.32,1.24 2.72,0.91 1.4,-0.33 1.82,-1.07 2.81,-0.91 0.99,0.16 3.3,1.4 2.89,0 -0.41,-1.4 -1.49,-0.66 -1.9,-2.81 -0.41,-2.15 -0.66,-2.81 -1.4,-5.78 -0.74,-2.97 -2.08,-3.07 -3.22,-2.06 z"
           id="path155" />
        <path
           class="cls-34"
           d="m 180.32,611.06 c -2.75,0.45 -4.54,0.65 -6.69,-0.67 -2.15,-1.32 -5.78,-1.64 -3.22,1.2 2.56,2.84 4.13,7.96 4.13,7.96 0,0 3.06,2.89 4.87,0.74 1.81,-2.15 6.36,-10.13 0.91,-9.24 z"
           id="path156" />
        <path
           class="cls-34"
           d="m 149.11,609.41 c -3.32,-1.86 -4.54,-4.8 -5.94,-5.46 -1.4,-0.66 -4.95,-0.08 -5.28,3.22 -0.33,3.3 -0.25,9.08 4.21,11.56 4.46,2.48 3.63,5.12 7.51,2.72 3.88,-2.39 7.02,-6.9 6.77,-8.4 -0.25,-1.51 -6.67,-3.3 -7.27,-3.64 z"
           id="path157" />
      </g>
    </g>
  </g>
</svg>
