<?xml version="1.0" encoding="UTF-8" standalone="no"?>
<svg
   id="Layer_1"
   viewBox="0 0 595.28 594.99999"
   version="1.1"
   sodipodi:docname="Argentina-06.svg"
   width="595.28003"
   height="595"
   xmlns:inkscape="http://www.inkscape.org/namespaces/inkscape"
   xmlns:sodipodi="http://sodipodi.sourceforge.net/DTD/sodipodi-0.dtd"
   xmlns="http://www.w3.org/2000/svg"
   xmlns:svg="http://www.w3.org/2000/svg">
  <sodipodi:namedview
     id="namedview55"
     pagecolor="#ffffff"
     bordercolor="#000000"
     borderopacity="0.25"
     inkscape:showpageshadow="2"
     inkscape:pageopacity="0.0"
     inkscape:pagecheckerboard="0"
     inkscape:deskcolor="#d1d1d1" />
  <defs
     id="defs2">
    <style
       id="style1">.cls-1{clip-path:url(#clippath);}.cls-2{fill:none;}.cls-2,.cls-3,.cls-4,.cls-5,.cls-6,.cls-7,.cls-8,.cls-9,.cls-10,.cls-11,.cls-12,.cls-13,.cls-14,.cls-15,.cls-16,.cls-17,.cls-18,.cls-19,.cls-20,.cls-21,.cls-22,.cls-23,.cls-24,.cls-25,.cls-26,.cls-27,.cls-28{stroke-width:0px;}.cls-29{clip-path:url(#clippath-1);}.cls-30{clip-path:url(#clippath-2);}.cls-3{fill:#5abba3;}.cls-4{fill:#2d2821;}.cls-5{fill:#a36f65;}.cls-6{fill:#9c6a61;}.cls-7{fill:#100d0c;}.cls-8{fill:#231f1f;}.cls-9{fill:#c58a7e;}.cls-10{fill:#c59187;}.cls-11{fill:#cc8e82;}.cls-12{fill:#ad766c;}.cls-13{fill:#d52b2f;}.cls-14{fill:#bf2529;}.cls-15{fill:#c18f85;}.cls-16{fill:#a77268;}.cls-17{fill:#a74369;}.cls-18{fill:#ab756b;}.cls-19{fill:#a67167;}.cls-20{fill:#ac4e70;}.cls-21{fill:#b87d73;}.cls-22{fill:#9e6b62;}.cls-23{fill:#b47a70;}.cls-24{fill:#b5877d;}.cls-25{fill:#bb8a81;}.cls-26{fill:#a26e65;}.cls-27{fill:#fff;}.cls-28{fill:#00a888;}</style>
    <clipPath
       id="clippath">
      <rect
         class="cls-2"
         x="28.309999"
         y="378.70001"
         width="552.21997"
         height="480.26999"
         id="rect1" />
    </clipPath>
    <clipPath
       id="clippath-1">
      <path
         class="cls-2"
         d="m 438.01,590.57 c 0,0 -12.06,-5.78 -20.81,3.96 0,0 -1.98,3.63 0,4.29 1.98,0.66 5.78,1.49 8.59,0.83 2.81,-0.66 7.43,-0.83 12.22,-9.08 z"
         id="path1" />
    </clipPath>
    <clipPath
       id="clippath-2">
      <path
         class="cls-2"
         d="m 366.34,607.91 c -0.78,-0.71 6.61,-9.59 13.71,-8.01 7.1,1.57 8.75,4.22 8.42,5.37 -0.33,1.16 -3.63,5.61 -6.94,6.28 -3.31,0.67 -13.38,-1.98 -15.19,-3.63 z"
         id="path2" />
    </clipPath>
  </defs>
  <g
     class="cls-1"
     clip-path="url(#clippath)"
     id="g55"
     transform="matrix(1.3340967,0,0,1.3226708,-100.6033,-459.19479)">
    <path
       class="cls-9"
       d="m 335.33,584.19 c -0.24,1.8 7.93,36.99 14.53,41.83 6.6,4.84 20.26,33.03 20.26,33.03 0,0 6.63,9.36 14.09,9.83 0,0 14.53,52.26 31.27,58.87 16.74,6.61 63.85,-31.27 63.85,-31.27 0,0 25.98,-32.59 23.34,-33.47 -2.64,-0.88 -4.84,-2.75 -18.94,-6.66 -14.09,-3.91 -23.78,-6.11 -23.78,-6.11 0,0 -0.44,-23.34 -0.44,-26.86 V 606 c 0,0 2.2,4.61 5.72,4.17 3.52,-0.44 3.08,-12.33 2.64,-18.06 -0.44,-5.72 0.44,-1.32 -3.96,-18.5 -4.4,-17.17 -8.56,-47.45 -8.56,-47.45 0,0 -18.11,-21.69 -36.26,-18.17 -18.15,3.52 -38.41,14.53 -38.41,14.53 0,0 -44.48,55.05 -45.36,61.65 z"
       id="path3" />
    <path
       class="cls-24"
       d="m 482.69,672.82 c -4.62,-7.84 -12.55,-21.16 -5.94,-19.12 6.61,2.04 23.78,6.68 27.08,7.99 3.3,1.31 0,14.52 0,14.52 z"
       id="path4" />
    <path
       class="cls-11"
       d="m 417.43,520.11 c -3.88,9.1 -9.91,18.72 -8.81,29.28 1.1,10.57 -3.3,22.02 -5.72,28.18 -2.42,6.17 -2.42,23.12 0,31.71 2.42,8.59 7.71,18.94 7.71,18.94 0,0 3.3,-4.84 6.83,-2.42 3.52,2.42 1.1,2.86 3.08,4.62 1.98,1.76 8.37,6.61 19.16,9.91 10.79,3.3 20.48,-1.76 20.92,-12.33 0.44,-10.57 0,-19.16 0,-19.16 0,0 1.35,4.4 4.65,1.32 3.3,-3.08 2.61,-3.52 2.61,-9.69 0,-6.17 -0.54,-13.64 -0.54,-13.64 l -2.76,-3.97 0.38,-15.74 c 0,0 -3.34,-4.29 -3.78,-14.86 -0.44,-10.57 -3.14,-4.57 -4.25,-18 -1.1,-13.43 -11.96,-12.83 -17.68,-14.15 -5.72,-1.32 -19.38,-5.69 -21.8,0 z"
       id="path5" />
    <path
       class="cls-7"
       d="m 411.59,582.48 c 0.99,0.5 1.32,2.48 3.63,1.82 2.31,-0.66 20.64,-3.8 25.6,-4.29 4.96,-0.49 -2.64,-0.99 -6.28,-1.32 -3.64,-0.33 -6.44,-0.83 -10.9,0 -4.46,0.83 -12.06,3.8 -12.06,3.8 z"
       id="path6" />
    <path
       class="cls-7"
       d="m 384.67,591.4 c -7.6,1.16 -15.85,5.28 -18.5,6.11 -2.65,0.83 -9.91,4.29 -9.91,4.29 0,0 5.78,-6.28 7.76,-7.1 1.98,-0.82 9.25,-4.79 13.54,-5.28 4.29,-0.49 7.1,1.98 7.1,1.98 z"
       id="path7" />
    <path
       class="cls-24"
       d="m 403.66,633.01 c -0.66,-0.17 -3.8,-0.66 -2.31,-1.65 1.49,-0.99 2.15,-0.83 3.96,-0.66 1.81,0.17 1.65,1.69 3.8,1.09 2.15,-0.6 5.28,-2.08 5.78,-2.74 0.5,-0.66 1.16,-2.81 2.81,-2.64 1.65,0.17 2.81,1.82 1.32,1.82 -1.49,0 -2.81,0.5 -2.81,0.5 0,0 -4.62,4.95 -7.27,4.29 -2.65,-0.66 -5.28,0 -5.28,0 z"
       id="path8" />
    <path
       class="cls-24"
       d="m 398.04,624.09 c 0,0 -4.95,6.11 -3.47,8.09 1.48,1.98 4.79,2.64 4.79,2.64 0,0 -0.77,0.5 -2.53,0 -1.76,-0.5 -4.24,-1.49 -3.74,-3.3 0.5,-1.81 3.14,-7.93 4.95,-7.43 z"
       id="path9" />
    <path
       class="cls-24"
       d="m 422.32,619.8 c 0,0 1.82,1.43 1.16,4.27 -0.66,2.84 -0.87,3.17 0.14,1.51 1.01,-1.65 0.19,-4.95 -1.3,-5.78 z"
       id="path10" />
    <path
       class="cls-27"
       d="m 438.01,590.57 c 0,0 -12.06,-5.78 -20.81,3.96 0,0 -1.98,3.63 0,4.29 1.98,0.66 5.78,1.49 8.59,0.83 2.81,-0.66 7.43,-0.83 12.22,-9.08 z"
       id="path11" />
    <path
       class="cls-27"
       d="m 366.34,607.91 c -0.78,-0.71 6.61,-9.59 13.71,-8.01 7.1,1.57 8.75,4.22 8.42,5.37 -0.33,1.16 -3.63,5.61 -6.94,6.28 -3.31,0.67 -13.38,-1.98 -15.19,-3.63 z"
       id="path12" />
    <path
       class="cls-5"
       d="m 452.21,629.56 c -1.65,-1.33 -2.81,-4.94 -16.02,0 -13.21,4.94 -19.03,6.76 -25.86,9.56 -6.83,2.81 -15.75,5.61 -18.56,11.23 -2.81,5.62 -11.06,9.74 -2.31,14.86 8.75,5.12 9.25,10.73 19.49,8.75 10.24,-1.98 23.61,-7.1 23.61,-7.1 l 20.48,-19.98 -0.83,-17.33 z"
       id="path13" />
    <path
       class="cls-7"
       d="m 353.34,624.59 -6.28,-26.75 c 0,0 9.91,-31.05 18.83,-36 8.92,-4.95 14.53,-7.27 18.5,-11.56 3.96,-4.29 9.25,-11.89 9.25,-11.89 0,0 14.2,21.14 21.8,26.09 7.6,4.95 14.86,6.61 13.54,5.94 -1.32,-0.67 -20.81,-15.85 -24.11,-22.79 -3.3,-6.94 -5.61,-14.86 -5.61,-14.86 0,0 21.8,28.73 23.12,29.39 1.32,0.66 4.31,3.12 1.32,0.66 -2.99,-2.46 -13.21,-24.11 -13.21,-24.11 l -1.32,-10.9 c 0,0 7.93,6.28 9.58,12.88 1.65,6.61 7.27,20.15 8.26,20.48 0.99,0.33 6.92,-2.64 2.14,-9.58 -4.78,-6.94 -5.11,-10.9 -7.09,-14.53 -1.98,-3.63 -6.28,-10.9 -0.99,-12.22 5.28,-1.32 11.23,0 11.23,0 0,0 4.95,-0.51 6.28,-0.59 1.33,-0.08 7.27,-3.38 7.93,1.91 0.66,5.28 -3.3,21.14 0,25.76 3.3,4.62 7.93,9.91 7.93,9.91 0,0 -5.28,-8.92 -5.28,-13.54 0,-4.62 2.64,-16.51 2.64,-16.51 0,0 4.29,4.29 2.64,9.58 -1.65,5.28 -2.88,16.84 0.38,18.17 3.25,1.32 8.21,6.94 8.21,9.91 0,2.97 -2.64,16.18 0,20.15 2.64,3.96 9.58,-13.54 9.58,-13.54 l -5.94,-35.01 c 0,0 -6.61,-24.44 -11.23,-32.37 -4.62,-7.93 -2.97,-11.23 -16.51,-16.84 -13.54,-5.61 -14.2,-8.59 -27.08,-9.58 -12.88,-0.99 -19.49,-4.95 -28.73,0 -9.25,4.95 -28.07,5.94 -39.3,19.16 -11.23,13.21 -16.51,27.74 -19.16,39.96 -2.64,12.22 -4.62,22.79 0,32.7 4.62,9.91 10.9,30.05 10.9,30.05 l 11.56,23.45 6.28,-2.97 z"
       id="path14"
       style="fill:#302424;fill-opacity:1" />
    <path
       class="cls-18"
       d="m 58.25,849.29 c 0,0 -18.94,-111.85 6.17,-151.49 0,0 7.49,-16.29 25.1,-22.46 17.61,-6.17 19.82,-9.25 31.71,-15.85 11.89,-6.61 12.77,-5.72 27.3,-10.13 14.53,-4.4 27.74,-4.4 29.94,-14.53 2.2,-10.13 0,-15.41 0,-19.38 0,-3.97 -4.84,0.44 -14.97,-12.33 -10.13,-12.77 -33.03,-24.22 -32.15,-45.36 0.88,-21.14 7.93,-43.16 15.85,-46.68 7.92,-3.52 4.4,12.77 36.55,-27.3 32.15,-40.07 51.96,-49.32 65.17,-56.37 13.21,-7.05 47.12,-3.08 51.96,4.4 4.84,7.49 14.53,47.56 15.41,54.17 0.88,6.61 4.84,15.41 4.84,20.26 0,4.85 -6.61,25.98 -6.61,25.98 0,0 8.37,17.61 10.57,20.7 2.2,3.09 9.25,7.49 9.69,14.97 0.44,7.49 -8.81,8.37 -11.01,11.89 -2.2,3.52 1.32,14.09 0.44,16.29 -0.88,2.2 -5.72,7.49 -5.72,7.49 0,0 1.32,6.17 1.76,9.69 0.44,3.52 -5.28,1.76 -4.84,8.81 0.44,7.05 3.52,14.97 -4.84,20.7 -8.37,5.72 -22.02,11.45 -28.18,10.57 -6.16,-0.88 -17.61,-2.64 -17.61,-2.64 0,0 24.22,13.65 36.55,14.97 12.33,1.32 33.48,2.78 33.48,2.78 0,0 58.61,30.53 58.61,32.29 0,1.76 31.21,58.29 31.21,58.29 0,0 7.49,55.93 7.49,57.25 0,1.32 5.28,76.18 5.28,76.18 L 253.77,914.03 58.25,849.3 Z"
       id="path15"
       style="fill:#b17e74;fill-opacity:1" />
    <path
       class="cls-16"
       d="m 238.75,558.45 c -13.25,-4.77 -20.48,-6.86 -28.4,-11.48 -7.92,-4.62 -19.82,0.03 -21.8,16.2 -1.98,16.17 7.93,35.13 11.23,42.82 3.3,7.69 54.83,32.9 54.83,32.9 0,0 23.78,-8.09 23.78,-11.03 0,-2.94 0,-13.51 -12.55,-30.69 C 253.29,580 246.66,561.3 238.76,558.45 Z"
       id="path16"
       style="fill:#af7e76;fill-opacity:1" />
    <path
       class="cls-19"
       d="m 175.65,594.86 c 0,0 12.37,3.58 12.63,33 0.26,29.42 -3.7,25.89 6.87,45.82 10.57,19.93 19.16,21.53 19.16,21.53 l -44.26,-13.49 c 0,0 -30.39,-29.21 -27.74,-29.8 2.65,-0.59 25.05,-15.77 29.01,-19.08 3.96,-3.31 4.34,-37.98 4.34,-37.98 z"
       id="path17"
       style="fill:#ad7c73;fill-opacity:1" />
    <path
       class="cls-5"
       d="m 103.33,669.27 c -3.89,1.52 -44.92,9.82 -48.88,51.76 -3.96,41.94 3.96,126.5 3.96,126.5 0,0 31.05,12.51 48.22,-5.63 17.17,-18.15 13.87,-71.65 13.87,-71.65 l -11.89,-82.62 c 0,0 0.52,-20.63 -5.28,-18.35 z"
       id="path18"
       style="fill:#ab7c73;fill-opacity:1" />
    <path
       class="cls-26"
       d="m 311.41,664.85 -46.62,-14.17 c 0,0 3.03,45.91 13.6,57.96 10.57,12.06 29.06,52.69 42.94,58.79 13.87,6.1 20.48,8.75 20.48,8.75 0,0 -13.34,-106.21 -30.39,-111.34 z"
       id="path19"
       style="fill:#ad7c73;fill-opacity:1" />
    <path
       class="cls-8"
       d="m 314.67,522.75 c 0,0 -0.33,7.05 -1.43,8.15 0,0 -3.09,-5.75 -2.87,-7.29 0,0 3.31,-0.85 4.3,-0.85 z"
       id="path20" />
    <path
       class="cls-21"
       d="m 284.39,528.59 c 0,0 0.55,3.19 2.09,4.07 1.54,0.88 2.75,1.54 2.64,2.75 -0.11,1.21 -2.75,0.99 -4.73,0.66 -1.98,-0.33 -3.4,2 -5.06,1.76 -1.66,-0.24 0,-3.19 0,-3.19 l 2.09,-7.16 2.97,1.1 z"
       id="path21" />
    <path
       class="cls-27"
       d="m 281.42,527.49 c 0,0 1.65,7.16 -2.09,10.35 0,0 -13.6,-2.79 -15.03,-4.11 -1.43,-1.32 8.97,-3.05 10.63,-3.93 1.66,-0.88 6.5,-2.31 6.5,-2.31 z"
       id="path22" />
    <path
       class="cls-8"
       d="m 281.63,530.3 c 0,0 0.41,1.22 -0.12,3.85 -0.55,2.75 -2.13,3.74 -2.13,3.74 l -6.91,-1.54 c 0,0 -1.31,-1.76 -0.48,-3.3 0.83,-1.54 9.63,-2.75 9.63,-2.75 z"
       id="path23" />
    <path
       class="cls-12"
       d="m 286.82,541.03 c -5.69,1.88 -8.59,3.52 -13.54,1.98 -4.95,-1.54 -5.68,-2.2 -8.51,-3.3 -2.83,-1.1 -4.15,-3.74 -10.32,0 -6.17,3.74 -15.85,6.39 -10.13,15.63 5.72,9.25 8.81,8.59 14.97,17.17 6.16,8.58 9.16,28.43 9.16,28.43 0,0 7.86,2.4 13.33,-2.66 5.47,-5.06 15.38,-24.44 14.28,-33.47 -1.1,-9.03 -5.22,-25.12 -9.25,-23.78 z"
       id="path24"
       style="fill:#b48279;fill-opacity:1" />
    <path
       class="cls-12"
       d="m 276.03,460.44 c -8.56,5.71 -8.37,13.54 -6.66,25.1 1.71,11.56 3.03,17.5 -2.25,22.13 -5.28,4.63 -10.02,9.58 6.72,3.63 16.73,-5.94 19.03,-2.31 23.5,-11.56 4.46,-9.25 -0.49,-53.17 -21.3,-39.3 z"
       id="path25"
       style="fill:#b48279;fill-opacity:1" />
    <path
       class="cls-12"
       d="m 304.43,509.65 c -0.99,3.67 -0.66,19.49 2.97,24.61 3.63,5.12 11.72,18 11.72,18 l 6.44,12.55 c 0,0 -0.33,3.63 0.83,6.61 1.16,2.97 -2.75,7.67 -0.6,6.52 2.15,-1.16 9.85,-5.32 9.52,-8.45 -0.33,-3.13 -0.87,-6.31 -5.33,-11.43 -4.46,-5.12 -4.72,-5.95 -7.06,-10.41 -2.34,-4.46 -6.68,-12.47 -9.69,-16.73 -3.01,-4.26 -2.87,-12.04 -2.87,-12.04 0,0 -4.78,-13.5 -5.93,-9.21 z"
       id="path26"
       style="fill:#b48279;fill-opacity:1" />
    <path
       class="cls-13"
       d="m 324.56,815.16 c -2.4,2.9 -37.65,-18.28 -53.5,-27.52 -15.85,-9.25 -54.61,-51.52 -60.77,-58.57 -6.17,-7.05 -40.51,-53.28 -53.28,-62.53 -12.77,-9.25 -15.85,-16.29 -18.94,-16.29 -3.09,0 -18.06,5.28 -18.94,6.61 -0.88,1.33 -11.68,7.92 -9.04,9.24 2.64,1.32 9.59,-2.42 17.51,8.59 7.93,11.01 17.61,22.79 20.26,31.6 2.64,8.81 11.56,54.88 11.56,54.88 l 1.98,36.66 -1.91,23.07 c 0,0 13.36,68.03 13.8,71.11 0.44,3.08 144.44,25.54 144.44,25.54 L 446.32,898.17 404.93,807.89 365.85,744.15 333.93,667.7 h -25.65 c 0,0 9.85,5.94 9.85,5.94 l 10.4,67.05 c 0,0 16.18,50.07 -3.96,74.48 z"
       id="path27" />
    <path
       class="cls-14"
       d="m 322.58,823.48 c 0,0 -37.87,-3.96 -55.49,-17.61 -17.61,-13.65 -59.89,-55.05 -64.29,-61.65 -4.4,-6.61 -22.9,-37.87 -30.83,-44.48 -7.93,-6.61 -16.73,-17.17 -24.66,-25.54 -7.93,-8.37 -20.26,-17.17 -20.26,-17.17 h -4.4 c 0,0 37.43,22.9 48,61.21 10.57,38.31 14.97,80.15 14.09,86.75 -0.88,6.61 -12.77,45.8 -12.77,45.8 l -11.01,-40.95 c 0,0 -2.2,-66.94 -14.09,-99.96 -11.89,-33.02 -34.79,-42.72 -36.11,-42.72 -1.32,0 -8.81,3.08 -8.81,3.08 0,0 10.13,-11.89 18.94,-15.41 8.81,-3.52 17.61,-5.72 19.82,-3.96 2.2,1.76 37.43,26.42 50.64,49.76 13.21,23.34 66.5,71.78 66.5,71.78 l 59.45,38.31 c 0,0 16.29,-11.89 14.09,-32.15 -2.2,-20.26 -13.21,-47.12 -14.09,-61.21 -0.88,-14.09 -10.57,-45.87 -10.57,-45.87 l -8.41,-10.62 c 0,0 34.39,4.48 40.56,8.01 6.17,3.52 13.65,20.29 13.65,20.29 l 13.65,70.46 c 0,0 -7.93,51.08 -12.77,55.05 -4.84,3.96 -18.59,10.66 -30.83,8.81 z"
       id="path28" />
    <path
       class="cls-3"
       d="m 419.09,727.52 c -10.75,0.99 -22.62,-26.43 -25.26,-31.05 -2.64,-4.62 -8.66,-27.28 -9.62,-27.59 -18.03,-5.87 -14.73,-18.61 -18.03,-17.62 -3.3,0.99 -24.39,7.02 -24.39,7.02 L 355,726.32 c 0,0 11.56,69.36 12.88,69.36 1.32,0 46.24,61.43 51.19,64.73 4.95,3.3 93.8,26.09 101.39,24.11 7.6,-1.98 13.87,-50.2 13.87,-50.2 l -6.28,-23.78 c 0,0 3.63,-14.53 2.97,-23.12 -0.66,-8.59 -5.94,-17.77 -3.63,-20.94 2.31,-3.17 23.45,-26.95 23.45,-33.23 0,-6.28 -2.64,-19.49 -7.93,-29.72 -5.28,-10.24 2.64,-2.97 -19.82,-27.08 C 500.63,652.34 493.04,653 488.74,653 c -4.3,0 -22.75,-2.75 -22.75,-2.75 l 0.29,3.08 c 0,0 4.95,2.64 11.23,4.62 6.28,1.98 18.09,2.64 18.42,4.95 0.33,2.31 1.01,8.92 -5.93,16.84 -6.94,7.92 -20.66,20.7 -26.27,26.64 -5.61,5.94 -34.14,20.16 -44.67,21.14 z"
       id="path29" />
    <path
       class="cls-28"
       d="m 485.68,722.46 c 0,0 28.62,-24.22 34.79,-26.42 6.17,-2.2 12.33,0 14.97,7.05 2.64,7.05 9.69,15.41 10.57,22.02 0.88,6.61 6.17,11.89 -4.4,18.5 -10.57,6.61 -24.76,17.17 -24.71,18.5 0.05,1.32 -31.21,-39.63 -31.21,-39.63 z"
       id="path30" />
    <path
       class="cls-10"
       d="m 520.28,696.48 v 56.37 c 0,0 3.96,17.17 0,24.66 -3.96,7.49 -13.26,21.37 -13.26,21.37 0,0 -29.45,15.18 -50.15,-21.81 -20.7,-36.99 -25.98,-51.96 -29.5,-60.77 -3.52,-8.81 -8.28,-24.22 -8.28,-24.22 0,0 -7.58,-8.81 -5.38,-14.97 2.2,-6.17 5.38,-8.22 5.38,-8.22 l -5.78,-7.63 c 0,0 -11.49,-0.88 -6.64,-7.49 4.84,-6.61 12.42,-11.01 12.42,-11.01 0,0 -5.38,-1.32 -1.85,-6.61 3.53,-5.29 10.57,-8.37 14.09,-8.37 3.52,0 11.01,3.08 11.01,3.08 0,0 10.32,-3.19 15.16,-1.87 4.84,1.32 4.35,6.72 6.26,11.12 1.92,4.4 2.8,12.33 2.36,17.17 -0.44,4.84 -0.75,13.65 -2.36,14.97 -1.61,1.32 -7.77,12.33 -7.77,12.33 0,0 1.76,1.32 1.32,6.17 0,0 2.64,-2.64 8.37,10.13 5.72,12.77 16.73,21.58 16.73,21.58 0,0 18.94,-22.46 37.87,-25.98 z"
       id="path31" />
    <path
       class="cls-10"
       d="m 332.8,683.38 c 0,0 -2.31,43.27 -4.95,52.18 -2.64,8.92 -5.61,24.44 2.48,30.05 8.09,5.61 20.64,19.16 26.59,22.46 5.95,3.3 15.19,4.95 19.16,-3.63 3.96,-8.59 12.22,-30.68 4.95,-47.38 -7.27,-16.7 -8.26,-19.67 -10.9,-30.24 -2.64,-10.57 -4.29,-20.48 -5.28,-28.4 -0.99,-7.92 -3.3,-23.12 -3.3,-23.12 0,0 -0.99,-6.94 -0.66,-11.89 0.33,-4.95 -4.85,-14.53 -6.39,-16.51 -1.54,-1.98 -7.81,-0.33 -7.81,0 0,0.33 -14.53,-4.29 -19.82,3.63 -5.28,7.93 -18.5,22.13 -13.54,29.39 4.95,7.27 19.49,23.45 19.49,23.45 z"
       id="path32" />
    <path
       class="cls-15"
       d="m 480.87,721.03 c 0,0 6.94,6.28 14.53,11.89 7.6,5.61 15.19,16.51 15.19,16.51 0,0 2.97,14.2 4.29,11.89 1.32,-2.31 0.66,-9.58 -2.64,-14.2 -3.3,-4.62 -10.92,-12.22 -14.05,-15.52 -3.13,-3.3 -8.08,-6.94 -8.08,-6.94 l -4.95,-3.63 z"
       id="path33" />
    <path
       class="cls-25"
       d="m 331.72,681.73 c 0.88,0.88 6.61,5.06 7.71,5.94 1.1,0.88 -1.76,5.28 -1.76,5.28 l 2.01,18.72 c 0,0 5.03,25.54 9.66,39.63 4.63,14.09 8.35,35.89 9.01,37.65 0.66,1.76 -18.7,-13.65 -18.7,-13.65 0,0 -15.65,-11.45 -14.99,-22.9 0.66,-11.45 5.08,-35.01 5.08,-35.01 0,0 2.34,-22.18 2.42,-26.2 0.09,-4.39 -0.44,-9.47 -0.44,-9.47 z"
       id="path34" />
    <path
       class="cls-15"
       d="m 457.88,630.03 c 0,0 -7.43,3.63 -6.44,4.46 0.99,0.83 6.94,11.06 8.09,12.22 1.16,1.16 2.97,4.95 0,2.31 -2.97,-2.64 -4.46,-5.69 -6.61,-9.04 -2.15,-3.35 -9.25,-8.8 -9.25,-8.8 l -6.61,-2.15 c 0,0 7.23,-1.32 12.04,-1.16 4.81,0.16 9.26,0.66 9.6,1.32 0.34,0.66 -0.83,0.83 -0.83,0.83 z"
       id="path35" />
    <path
       class="cls-15"
       d="m 449.47,651.93 c -2.29,-0.75 -4.94,-4.05 -7.74,-6.7 -2.8,-2.65 -9.25,-6.28 -9.25,-6.28 0,0 -4.46,1.23 -6.94,1.94 -2.48,0.71 -6.77,1.86 -6.77,1.86 0,0 0.66,-0.99 3.3,-3.14 2.64,-2.15 4.29,-5.12 7.76,-3.8 3.47,1.32 5.28,1.32 7.6,3.14 2.32,1.82 12.72,10.09 12.72,12.97 h -0.68 z"
       id="path36" />
    <path
       class="cls-15"
       d="m 436.8,658.77 c -2.19,0.8 -11.39,-6.61 -11.39,-6.61 0,0 -5.45,0.66 -7.27,2.15 -1.82,1.49 -3.8,6.77 -3.8,6.77 0,0 -3.96,0.83 -1.32,-3.47 2.64,-4.29 9.5,-8.09 11.44,-8.26 1.94,-0.17 7.22,2.31 9.37,3.8 2.15,1.49 4.79,4.95 2.97,5.61 z"
       id="path37" />
    <path
       class="cls-15"
       d="m 422.94,668.24 c -0.99,-0.83 -3.14,-3.96 -3.14,-3.3 0,0.66 0.83,3.3 0.83,3.3 l -0.83,3.47 c 0,0 -2.31,2.64 0,1.82 2.31,-0.82 3.14,-5.28 3.14,-5.28 z"
       id="path38" />
    <path
       class="cls-15"
       d="m 456.41,682.33 c 0,0 -11.11,5.59 -16.31,6.75 -5.2,1.16 -13.35,1.81 -13.35,1.81 0,0 4.15,2.41 7.21,1.11 3.06,-1.3 13.73,-3.08 15.31,-4.32 1.58,-1.24 5.68,-3.3 5.68,-3.3 0,0 0.77,0.9 -1.55,3.56 -2.32,2.65 -6.01,5.56 -4.46,4.84 1.55,-0.72 5.03,-3.49 5.03,-3.49 0,0 4.37,-6.34 2.42,-6.96 z"
       id="path39" />
    <path
       class="cls-25"
       d="m 338.64,655.3 c -0.08,-0.5 2.64,-3.47 1.32,-2.97 -1.32,0.5 -2.06,2.23 -2.97,0.99 -0.91,-1.24 -4.21,-4.46 -3.88,-3.88 0.33,0.58 2.31,3.55 2.23,4.13 -0.08,0.58 -7.02,1.24 -7.27,2.23 -0.25,0.99 7.1,-1.49 7.76,-0.33 0.66,1.16 1.49,1.32 0.41,2.48 -1.07,1.16 -6.61,5.04 -5.53,5.28 1.08,0.24 6.36,-4.21 6.36,-4.21 0,0 2.56,-0.58 3.88,0.25 1.32,0.83 4.38,1.65 4.38,1.65 l 2.23,-0.74 c 0,0 3.14,0.17 4.13,-0.25 0.99,-0.42 1.16,-1.57 1.24,-1.98 0.08,-0.41 1.24,-1.24 0.83,-2.39 -0.41,-1.15 0.09,-1.73 0.09,-1.73 0,0 1.07,-0.5 0.74,-2.06 -0.33,-1.57 -1.4,-2.48 -1.16,-3.96 0.25,-1.49 1.22,-3.72 1.22,-3.72 0,0 -0.97,-4.13 -0.48,-4.13 0.49,0 2.23,-2.64 0.83,-2.23 -1.4,0.41 -1.32,0.99 -1.32,1.9 0,0.91 0.25,2.97 0.33,3.55 0.08,0.58 -0.17,2.64 -0.99,2.97 l -0.99,1.24 c 0,0 1.57,4.29 1.49,4.87 -0.08,0.58 -0.91,2.23 -1.49,2.31 -0.58,0.08 -2.72,0.74 -2.72,0.74 0,0 1.98,0.74 1.49,2.48 -0.49,1.74 -2.97,2.48 -3.3,1.24 -0.33,-1.24 -0.93,0.34 -1.16,0.99 -0.23,0.65 -2.77,0.41 -4.52,-1.24 -1.75,-1.65 -3.16,-3.47 -3.16,-3.47 z"
       id="path40" />
    <path
       class="cls-7"
       d="m 316.62,487.81 c 0,0 -4.56,-18.45 -10.84,-28.03 -6.28,-9.58 -19.82,-19.82 -26.09,-21.47 -6.27,-1.65 -21.47,11.89 -25.76,21.14 -4.29,9.25 -5.94,17.83 -17.17,28.73 -11.23,10.9 -13.54,15.19 -23.78,24.44 -10.24,9.25 -14.2,12.22 -14.2,12.22 0,0 0,18.5 -7.93,22.79 -7.93,4.29 -25.43,-7.93 -25.43,-7.93 0,0 -8.92,-14.2 -22.13,-11.89 -13.21,2.31 -9.58,29.72 -7.6,35.34 1.98,5.61 20.81,24.44 20.81,24.44 0,0 13.87,8.26 19.16,7.27 l -1.04,19.79 c 0,0 2.03,-4.93 -12.83,0.36 -14.86,5.29 -30.05,3.77 -31.38,-9.02 -1.32,-12.78 -24.11,-13.77 -23.12,-24.67 0.99,-10.9 5.28,-14.2 4.95,-18.83 -0.33,-4.62 -16.18,-48.55 -12.55,-56.48 3.63,-7.93 7.93,-29.06 7.93,-29.06 0,0 15.85,-53.17 47.89,-68.04 32.04,-14.86 60.11,-15.52 83.89,-10.57 23.78,4.95 41.61,27.41 41.61,27.41 0,0 5.28,-16.51 24.44,2.31 19.16,18.83 21.07,47.19 11.17,59.74 z"
       id="path41"
       style="fill:#302424;fill-opacity:1" />
    <path
       class="cls-23"
       d="m 160.47,540.04 c 0,0 -5.61,-6.61 -11.06,-6.44 -5.45,0.17 -10.24,3.3 -10.9,6.44 -0.66,3.14 0,10.57 0,10.57 0,0 -0.5,0.66 0.99,7.1 1.49,6.44 7.3,12.22 9.84,15.03 2.54,2.81 8.16,5.12 8.16,5.12 0,0 13.21,7.43 13.54,4.95 0.33,-2.48 -4.79,-7.93 -9.91,-8.42 -5.12,-0.49 -10.24,-2.15 -12.39,-5.61 -2.15,-3.47 -5.28,-8.42 -5.78,-12.88 -0.5,-4.46 -0.66,-14.37 3.8,-15.03 4.46,-0.66 12.39,1.32 12.72,3.14 0.33,1.82 -5.28,4.13 -6.77,7.76 -1.49,3.63 -5.94,12.88 0.33,12.22 6.27,-0.66 8.75,-10.07 12.22,-9.08 3.47,0.99 2.48,3.96 -0.33,7.93 -2.81,3.96 -11.56,7.93 -4.79,8.26 6.77,0.33 8.92,1.32 12.39,3.47 3.47,2.15 6.61,3.14 4.62,0 -1.99,-3.14 -9.41,-1.49 -6.77,-7.93 2.64,-6.44 3.96,-12.39 -0.17,-13.21 -4.13,-0.82 -8.09,0.83 -7.27,-3.96 0.83,-4.79 -2.48,-9.41 -2.48,-9.41 z"
       id="path42"
       style="fill:#a46f66;fill-opacity:1" />
    <path
       class="cls-22"
       d="m 318.22,575.21 c -1.65,0.33 -7.6,3.14 -6.28,3.63 1.32,0.49 -0.85,1.49 3.04,0 3.89,-1.49 5.38,-1.2 7.53,-1.42 2.15,-0.22 4.13,-2.37 1.82,-2.21 -2.31,0.16 -6.11,0 -6.11,0 z"
       id="path43" />
    <path
       class="cls-22"
       d="m 306.99,566.96 c 0.75,0.48 -7.1,4.62 -6.28,9.08 0.83,4.46 4.62,6.11 6.28,6.44 1.66,0.33 1.65,1.65 0,1.49 -1.65,-0.16 -9.09,-1.32 -9.58,-5.28 -0.49,-3.96 6.78,-13.54 9.58,-11.72 z"
       id="path44" />
    <path
       class="cls-7"
       d="m 316.24,521.71 -5.45,1.82 c 0,0 3.47,1.32 6.28,1.32 2.81,0 5.61,-3.14 5.61,-3.14 z"
       id="path45" />
    <path
       class="cls-7"
       d="m 311.75,513.45 c 0,0 4.48,-8.75 8.94,-8.59 4.46,0.16 0.99,6.61 0,6.44 -0.99,-0.17 -8.14,3.3 -8.94,2.15 z"
       id="path46" />
    <path
       class="cls-7"
       d="m 294.94,514.61 -18,2.81 -32.53,7.43 c 0,0 17.01,-11.39 19.49,-11.89 2.48,-0.5 16.18,-1.82 20.64,-2.48 4.46,-0.66 12.06,-0.83 10.4,4.13 z"
       id="path47" />
    <path
       class="cls-7"
       d="m 289.76,527.38 c 0,0 -3.63,1.1 -6.72,-0.99 0,0 -9.47,3.63 -11.89,4.07 -2.42,0.44 -8.7,3.08 -8.7,3.08 0,0 5.28,0.57 7.33,0.55 2.71,-0.02 16.78,-4.07 19.98,-6.72 z"
       id="path48" />
    <path
       class="cls-17"
       d="m 316.73,617.32 c -1.98,-0.19 -11.56,-0.99 -14.7,-2.31 -3.14,-1.32 -13.43,-4.24 -9.74,-6.11 3.69,-1.87 12.67,-3.33 15.17,-2.91 2.5,0.42 3.16,0.41 4.97,-0.08 1.81,-0.49 2.92,-1.47 4.9,-1.92 1.98,-0.45 4.52,-3.88 4.19,2 -0.33,5.88 0.26,11.82 -4.79,11.33 z"
       id="path49" />
    <path
       class="cls-20"
       d="m 319.71,594.86 c 0,0 -5.94,1.82 -9.74,4.46 -3.8,2.64 -17.67,9.58 -17.67,9.58 0,0 5.83,0.33 10.51,-1.49 4.68,-1.82 8.16,-0.28 9.98,-0.77 1.82,-0.49 9.73,-3.03 9.9,-5.83 0.17,-2.8 3.63,-7.27 1.16,-7.6 -2.47,-0.33 -4.13,1.65 -4.13,1.65 z"
       id="path50" />
    <path
       class="cls-6"
       d="m 285.05,526.83 c -0.16,-1.13 -0.57,-2.27 -1.36,-3.06 -0.79,-0.81 -1.97,-1.02 -3.05,-0.82 -2.24,0.38 -4.37,1.27 -6.38,2.34 -2.03,1.05 -3.97,2.29 -5.9,3.55 l -5.77,3.82 c 1.79,-1.45 3.64,-2.84 5.52,-4.18 1.89,-1.33 3.84,-2.58 5.88,-3.69 2.06,-1.05 4.25,-1.97 6.59,-2.27 1.17,-0.16 2.5,0.13 3.31,1.06 0.78,0.92 1.12,2.1 1.16,3.25 z"
       id="path51" />
    <path
       class="cls-6"
       d="m 311.37,518.68 c 0.4,-0.22 0.84,-0.35 1.29,-0.45 0.45,-0.1 0.91,-0.13 1.37,-0.11 0.46,0.03 0.93,0.1 1.37,0.31 0.43,0.2 0.83,0.5 1.04,0.92 -0.77,-0.5 -1.58,-0.62 -2.43,-0.66 -0.85,-0.05 -1.72,0 -2.63,0 z"
       id="path52" />
    <g
       class="cls-29"
       clip-path="url(#clippath-1)"
       id="g52">
      <circle
         class="cls-7"
         cx="426.56"
         cy="593.53998"
         r="6.3699999"
         id="circle52" />
    </g>
    <g
       class="cls-30"
       clip-path="url(#clippath-2)"
       id="g53">
      <circle
         class="cls-7"
         cx="378.20001"
         cy="605.78998"
         r="6.6799998"
         id="circle53" />
    </g>
    <path
       class="cls-4"
       d="m 438.01,590.57 c -1.78,-0.64 -3.63,-1.03 -5.49,-1.19 -0.93,-0.04 -1.85,-0.16 -2.78,-0.14 -0.46,-0.03 -0.93,0.04 -1.39,0.06 l -0.69,0.05 -0.68,0.12 c -0.92,0.12 -1.8,0.41 -2.69,0.66 -0.84,0.37 -1.73,0.66 -2.51,1.17 -1.65,0.86 -3.01,2.15 -4.31,3.47 l 0.05,-0.07 c -0.27,0.51 -0.5,1.07 -0.66,1.63 -0.15,0.55 -0.25,1.15 -0.1,1.6 0.11,0.47 0.58,0.57 1.2,0.76 0.58,0.17 1.16,0.31 1.76,0.43 1.18,0.24 2.38,0.4 3.58,0.41 0.6,0 1.19,-0.02 1.78,-0.11 0.56,-0.09 1.18,-0.25 1.78,-0.36 1.19,-0.25 2.35,-0.55 3.43,-1.06 1.07,-0.51 2.08,-1.16 2.97,-1.96 1.83,-1.55 3.41,-3.43 4.76,-5.48 z m 0,0 c -0.29,0.5 -0.56,1.07 -0.88,1.62 -0.33,0.52 -0.63,1.06 -1,1.56 -0.35,0.51 -0.72,1.01 -1.12,1.49 -0.38,0.49 -0.83,0.94 -1.3,1.35 -0.94,0.83 -2,1.53 -3.15,2.07 -1.14,0.54 -2.37,0.86 -3.58,1.11 -0.6,0.12 -1.17,0.26 -1.82,0.37 -0.63,0.1 -1.26,0.12 -1.89,0.12 -1.26,-0.01 -2.49,-0.18 -3.71,-0.43 -0.61,-0.13 -1.21,-0.27 -1.81,-0.45 l -0.45,-0.14 c -0.14,-0.04 -0.3,-0.1 -0.49,-0.2 -0.35,-0.17 -0.64,-0.52 -0.74,-0.88 -0.23,-0.73 -0.07,-1.4 0.09,-2.02 0.18,-0.62 0.42,-1.2 0.72,-1.77 v 0 c 0,0 0.03,-0.05 0.04,-0.07 1.34,-1.37 2.77,-2.71 4.49,-3.61 0.81,-0.53 1.74,-0.84 2.62,-1.22 0.93,-0.26 1.85,-0.57 2.81,-0.69 l 0.71,-0.12 0.72,-0.06 c 0.48,-0.03 0.96,-0.09 1.44,-0.07 0.96,0 1.93,0.03 2.87,0.23 1.88,0.37 3.72,0.94 5.41,1.82 z"
       id="path53" />
    <path
       class="cls-4"
       d="m 366.34,607.91 c -0.14,-0.25 0.04,-0.54 0.15,-0.78 0.12,-0.25 0.27,-0.49 0.42,-0.72 0.3,-0.47 0.63,-0.92 0.98,-1.36 0.69,-0.88 1.47,-1.7 2.32,-2.44 1.77,-1.38 3.79,-2.52 6.03,-3.02 1.12,-0.24 2.29,-0.32 3.43,-0.12 1.13,0.21 2.19,0.5 3.27,0.85 1.07,0.35 2.12,0.77 3.11,1.33 0.97,0.58 1.96,1.25 2.56,2.37 0.12,0.29 0.25,0.59 0.24,0.96 0,0.38 -0.16,0.69 -0.29,0.94 -0.28,0.52 -0.6,0.98 -0.94,1.44 -0.69,0.9 -1.45,1.73 -2.31,2.48 -0.86,0.74 -1.81,1.4 -2.92,1.81 -1.12,0.44 -2.33,0.35 -3.43,0.29 -2.24,-0.21 -4.43,-0.67 -6.58,-1.24 -1.06,-0.36 -2.11,-0.74 -3.12,-1.21 -1.01,-0.46 -2.04,-0.91 -2.92,-1.58 z m 0,0 c 0.88,0.69 1.96,1.01 3.01,1.34 1.06,0.3 2.14,0.54 3.22,0.77 2.12,0.56 4.29,1.02 6.46,1.22 1.08,0.07 2.17,0.14 3.13,-0.25 0.98,-0.37 1.88,-0.98 2.69,-1.68 0.81,-0.71 1.55,-1.52 2.21,-2.38 0.32,-0.43 0.63,-0.88 0.88,-1.34 0.13,-0.24 0.21,-0.44 0.21,-0.62 0.01,-0.2 -0.08,-0.42 -0.17,-0.64 -0.45,-0.87 -1.36,-1.53 -2.28,-2.07 -0.93,-0.53 -1.95,-0.94 -2.98,-1.28 -1.03,-0.34 -2.11,-0.63 -3.16,-0.82 -1.04,-0.18 -2.12,-0.11 -3.17,0.12 -2.1,0.47 -4.04,1.56 -5.75,2.89 -0.89,0.62 -1.75,1.31 -2.56,2.06 -0.4,0.38 -0.78,0.78 -1.12,1.21 -0.17,0.22 -0.33,0.44 -0.46,0.69 -0.11,0.23 -0.3,0.52 -0.16,0.77 z"
       id="path54" />
    <path
       class="cls-25"
       d="m 509.11,796 c 0,0 11.89,-14.25 -13.21,-33.88 -25.1,-19.63 -48.22,-41.1 -48.22,-41.1 l -17.76,-28.13 -10.83,-0.82 c 0,0 7.45,24.36 16.7,43.34 9.25,18.98 29.06,56.63 40.29,63.89 11.23,7.27 30.3,4.1 33.03,-3.3 z"
       id="path55" />
  </g>
</svg>
