<?xml version="1.0" encoding="UTF-8"?><svg xmlns="http://www.w3.org/2000/svg" xmlns:xlink="http://www.w3.org/1999/xlink" viewBox="0 0 595.28 841.89"><defs><style>.cls-1{clip-path:url(#clippath);}.cls-2{fill:none;}.cls-2,.cls-3,.cls-4,.cls-5,.cls-6,.cls-7,.cls-8,.cls-9,.cls-10,.cls-11,.cls-12,.cls-13,.cls-14,.cls-15,.cls-16,.cls-17,.cls-18,.cls-19,.cls-20,.cls-21,.cls-22,.cls-23,.cls-24,.cls-25,.cls-26,.cls-27,.cls-28,.cls-29,.cls-30,.cls-31,.cls-32,.cls-33,.cls-34,.cls-35,.cls-36,.cls-37,.cls-38,.cls-39,.cls-40,.cls-41,.cls-42,.cls-43,.cls-44,.cls-45,.cls-46,.cls-47,.cls-48,.cls-49,.cls-50,.cls-51,.cls-52,.cls-53,.cls-54,.cls-55,.cls-56,.cls-57,.cls-58,.cls-59,.cls-60,.cls-61,.cls-62,.cls-63,.cls-64,.cls-65,.cls-66,.cls-67,.cls-68,.cls-69,.cls-70,.cls-71,.cls-72,.cls-73,.cls-74,.cls-75{stroke-width:0px;}.cls-3{fill:#4a4a4c;mix-blend-mode:darken;opacity:.23;}.cls-4{fill:#5d5e60;opacity:.28;}.cls-4,.cls-5,.cls-6{mix-blend-mode:multiply;}.cls-5{fill:#8bb3c6;opacity:.54;}.cls-76{isolation:isolate;}.cls-6{fill:#d0d1d3;opacity:.8;}.cls-7{fill:#f2f2f3;}.cls-8{fill:#775d4d;}.cls-9{fill:#5e483a;}.cls-10{fill:#794837;}.cls-11{fill:#844e3d;}.cls-12{fill:#7b6050;}.cls-13{fill:#2d2721;}.cls-14{fill:#2d2a2a;}.cls-15{fill:#48352b;}.cls-16{fill:#705748;}.cls-17{fill:#9b755d;}.cls-18{fill:#9a7965;}.cls-19{fill:#886b59;}.cls-20{fill:#957562;}.cls-21{fill:#a2876f;}.cls-22{fill:#302411;}.cls-23{fill:#32261f;}.cls-24{fill:#321f1c;}.cls-25{fill:#3a3b3b;}.cls-26{fill:#3d2c23;}.cls-27{fill:#1a120b;}.cls-28{fill:#0a0200;}.cls-29{fill:#1c1711;}.cls-30{fill:#0b0000;}.cls-31{fill:#231f1f;}.cls-32{fill:#a8aaac;}.cls-33{fill:#241f19;}.cls-34{fill:#c49e88;}.cls-35{fill:#d1a991;}.cls-36{fill:#df727a;}.cls-37{fill:#c97ea5;}.cls-38{fill:#dcddde;}.cls-39{fill:#c17ba0;}.cls-40{fill:#b09257;}.cls-41{fill:#b08f7b;}.cls-42{fill:#c09e5e;}.cls-43{fill:#a58971;}.cls-44{fill:#bf9b86;}.cls-45{fill:#a78875;}.cls-46{fill:#b1907c;}.cls-47{fill:#a68a72;}.cls-48{fill:#a98d74;}.cls-49{fill:#a9796a;}.cls-50{fill:#cfab6f;}.cls-51{fill:#adc2d7;}.cls-52{fill:#85919c;}.cls-53{fill:#b7d0dc;}.cls-54{fill:#bb9a5c;}.cls-55{fill:#9d7b67;}.cls-56{fill:#c2c4c6;}.cls-57{fill:#73594a;}.cls-58{fill:#323132;}.cls-59{fill:#8e6b54;}.cls-60{fill:#97a5b2;}.cls-61{fill:#806453;}.cls-62{fill:#7d5f57;}.cls-63{fill:#926e56;}.cls-64{fill:#7d6151;}.cls-65{fill:#a1afbe;}.cls-66{fill:#a17a61;}.cls-67{fill:#a16e62;}.cls-68{fill:#9f6358;}.cls-69{fill:#85644f;}.cls-70{fill:#876958;}.cls-71{fill:#664f41;}.cls-72{fill:#81635b;}.cls-73{fill:#826554;}.cls-74{fill:#fff;}.cls-75{fill:#e4deee;}</style><clipPath id="clippath"><rect class="cls-2" x="-8.03" y="426.75" width="609.83" height="422.22"/></clipPath></defs><g class="cls-76"><g id="Layer_1"><g class="cls-1"><polygon class="cls-23" points="601.8 903.01 -8.03 872.64 -8.03 637.86 601.8 697.58 601.8 903.01"/><path class="cls-3" d="m515.13,687.01c-1.95,13.98-14.53,35.67-14.53,35.67v68.04l3.96,58.26s-16.51,9.56-19.82,10-64.91-6.5-64.93-6.76-14.33-35.74-14.33-35.74v-89.83l1.5-50.2,108.15,10.57Z"/><path class="cls-3" d="m367.61,700.66c-1.95,13.98-14.53,35.67-14.53,35.67v68.04l3.96,58.26s-16.51,9.56-19.82,10-64.91-6.5-64.93-6.76-14.33-35.74-14.33-35.74v-89.83l1.5-50.2,108.15,10.57Z"/><polygon class="cls-34" points="601.8 572 -8.03 539.36 -8.03 502.31 601.8 534.95 601.8 572"/><polygon class="cls-34" points="601.8 605.43 -8.03 572.79 -8.03 535.74 601.8 568.39 601.8 605.43"/><polygon class="cls-34" points="601.8 638.87 -8.03 606.22 -8.03 569.18 601.8 601.82 601.8 638.87"/><polygon class="cls-34" points="601.8 672.3 -8.03 639.66 -8.03 602.61 601.8 635.26 601.8 672.3"/><polygon class="cls-34" points="601.8 705.73 -8.03 673.09 -8.03 636.05 601.8 668.69 601.8 705.73"/><polygon class="cls-41" points="601.8 572 -8.03 539.36 -8.03 535.74 601.8 568.39 601.8 572"/><polygon class="cls-41" points="601.8 597.35 -8.03 564.71 -8.03 561.1 601.8 593.74 601.8 597.35"/><polygon class="cls-41" points="601.8 622.71 -8.03 590.07 -8.03 586.46 601.8 619.1 601.8 622.71"/><polygon class="cls-41" points="601.8 648.07 -8.03 615.42 -8.03 611.81 601.8 644.46 601.8 648.07"/><polygon class="cls-41" points="601.8 673.42 -8.03 640.78 -8.03 637.17 601.8 669.81 601.8 673.42"/><path class="cls-4" d="m201.32,511.3l13.26,18.72v21.25s-19.92,10.9-13.26,13.98c6.66,3.08,19.02,11.69,19.02,11.69,0,0-.99,8.64,6.57,17.38s9.57,29.88,9.57,29.88v32.65l93.03-39.63s6.15-96.18,12.33-92.92c6.18,3.27,13.21,7.93,15.85,17.61,2.64,9.69,1.32,20.39,0,23.86-1.32,3.48,9.91,22.26,9.91,22.26,0,0,17.39,11.12,20.48,22.13,3.08,11.01,48.44-11.23,54.61-22.13s22.9-60.22,22.9-60.22c0,0,27.3,8.37,29.06,13.21s7.93,34.79,7.93,34.79c0,0,11.01,15.85,8.81,23.78-2.2,7.93-7.96,14.24-7.96,14.24l3.55,35.97s8.07,23.34,4.69,31.27c-3.37,7.93-11.3,15.85-11.3,15.85l-46.24,11.01-295.93-27.74"/><path class="cls-48" d="m142.25,521.54s-.06,3.29.6,9.56c.66,6.28,2.53,44.52,11.78,46.17s26.26,9,28.24,9.33,13.87-14.2,13.87-14.2c0,0-6.23-4.49-7.88-11.1-1.65-6.61-1.45-11.03-.13-17.64,1.32-6.61,2.39-7.6,1.73-13.54-.66-5.94-1.98-10.24-1.98-10.24,0,0-2.97-8.26-16.18-15.19-13.21-6.94-18.83-5.94-18.83-5.94l-11.23,22.79Z"/><path class="cls-43" d="m184.93,521.21s-4.62,5.97-8.59,5.21-7.6-2.24-8.59-3.4-3.47-3.96-4.79-3.3-2.97,6.79-4.29,6.7-3.14,3.04-7.1,2.88-5.28-.83-6.44-1.32-3.47-3.1-3.47-3.1l2.31-9.94,11.06-10.23,19.49-.67s11.26,16.18,10.4,17.17Z"/><path class="cls-47" d="m181.76,517.68s4.06,6.82-.4,11.61c-2.44,2.62-6.55,3.31-9.76,3.39-1.66.04-2.65,1.85-1.78,3.27s2.81,4.72,2.19,5.83c-1.49,2.64-10.88,4.37-12.03,4.37s-5.12-1.96-4.95-2.88.83-4.72-1.49-3.23-6.15,5.19-6.65,5.52.39,7.05.39,7.05c0,0,7.58,8.24,16,11.71s20.4-4.79,21.76-8.59,2.35-7.09,3.83-11.89-.33-16.66,0-17.41-5.14-11.06-7.12-8.75Z"/><path class="cls-37" d="m193.22,569.59s3.53,4.02-5.05,6.89c-8.59,2.86-35.67-5.61-35.67-5.61l-12.55-9.56s-7.93,15.06,8.92,17.37,34.68,4.93,40.62,3.29c5.94-1.64,11.56-8.69,10.57-9.13s-2.78-2.1-6.84-3.25Z"/><path class="cls-75" d="m223.84,602.79c-.66-1.98-10.57-24.8-14.53-26.77-3.96-1.97-10.82-4.13-10.82-4.13,0,0,1.1,6.85-14.28,8.14-15.37,1.29-27.56-6-31.71-9.16-4.15-3.16-12.55-9.56-12.55-9.56,0,0-9.91-2.84-13.87,0-3.96,2.84-19.16,22.04-19.16,22.04l2.64.7s-5.61-2.88,4.29-.65c9.91,2.22,7.81,8.98,7.81,8.98l-7.7,32.24,41.51,17.15,26.09,17.16,24.77-10.23,2.64-29.72,14.86-16.18Z"/><polygon class="cls-37" points="231.1 611.74 223.06 600.86 206.99 611.74 213.6 618.97 231.1 611.74"/><path class="cls-17" d="m274.03,783.42c2.2,2.45,0,25.35,0,25.35l-3.52,27.3v21.14l13.46,5.28s6.36-20.7,6.8-26.42c.44-5.72,0-18.06,0-18.06,0,0,.38,13.46.63,13.35s-.67,9.11-.43,12.63-5.04,20.7-2.4,21.58,18.5,4.4,19.38,3.08c.88-1.32,5.72-14.53,7.93-24.22,2.2-9.69,0-18.5,2.64-29.5,2.64-11.01,5.98-22.02,4.75-24.66-1.23-2.64-26.24-16.66-26.24-16.66l-22.98,9.81Z"/><path class="cls-69" d="m289.12,789.34s2.57,41.56,1.64,46.74c-.93,5.17-4.84,25.54-4.84,28.18s10.02,5.72,15.58,6.61,7.76-3.93,10.48-12.89c2.72-8.96,4.56-9.33,4.91-21.95.36-12.62-.15-14.15,2.3-23.88s4.42-19.66,4.07-21.86c-.35-2.2-34.14-.94-34.14-.94Z"/><path class="cls-20" d="m206.98,652s-6.94,6.94-4.29,12.55c2.64,5.61,2.31,6.25,5.61,6.92s3.63-2.63,3.63-2.63v8.92s-3.96,1.98-7.93,7.27c-3.96,5.28,3,25.4,3,25.4l26.39,5.97s22.46,5.61,29.39-4.62-3.42-23.55-4.95-26.81-11.23-7.21-11.23-7.21c0,0,1.98-2.64,3.3-9.58,1.32-6.94,1.65-13.21,1.32-16.18-.33-2.97-.33-16.18-1.98-17.83s-3.3-3.3-10.9-3.96-16.51-3.63-20.48,0c-3.96,3.63-12.22,2.33-10.9,21.8Z"/><path class="cls-19" d="m213.04,647.41s-1.65,8.17,0,12.55c1.65,4.38,2.86,9.05,2.86,9.05l1.16,11.81-5.12-5.61-.55-9.87s-2.23-4.54-2.15-10.82c.08-6.28,1.16-9,1.16-9,0,0,2.48-4.62,2.64,1.9Z"/><path class="cls-19" d="m206.76,660.49c-.34-.77.91,2.89-.5,1.24-1.4-1.65-2.89-1.89-2.31.62.58,2.52.83,3.84,1.98,4.58s1.9,2.48,1.57.66,1.15-1.57,1.15-1.57c0,0,1.82,1.12.33-1.59-1.49-2.7-1.32-6.78-1.32-3.96s0,2.74.08,3.48-.2,1.98-1.05,1.41-1.92-1.98-1.18-1.98,2.72.5,1.24-2.89Z"/><path class="cls-61" d="m212.07,673.8s2.81,6.44,9.91,9.25,9.74,3.14,10.9,2.81,7.27-3.8,7.27-3.8l2.81-2.18s1.32,1.85-3.63,4.98c-4.95,3.14-6.94,6.61-13.38,4.79-6.44-1.82-12.22-4.79-12.88-4.79s-3.14-5.78-3.14-5.78l2.31-1.16-.17-4.13Z"/><path class="cls-74" d="m215.79,687.89s-3.63-11.92-4.35-10.51c-1.37,2.66-4.66,1.32-4.35,3.69.32,2.37,5.5,10.89,5.5,10.89,0,0-1.89,5.6,0,7.6s-4.63,8.35,0,9.9,34.58,10.17,34.58,10.17l10.13-13.46s4.84-16.97,0-19.27c-4.84-2.31-10.24-12.55-10.68-9.13s-1.21,17.1-.33,20.11,3.52,6.09,0,9.17c-3.52,3.08-15.41,2.41-15.41,2.41,0,0-13.65,1.55-13.21-3.3s-1.87-18.28-1.87-18.28Z"/><path class="cls-56" d="m230.87,709.46c-4.26-1.14-20.7-10.34-22.02-10.78s-6.17-11.68-4.84-11.79,7.93-9.82,7.93-9.82c0,0-14.34,3.11-16.42,11.92-2.08,8.81-14.41,47.12-14.41,47.12,0,0,0,75.3,3.96,87.19,3.96,11.89,8.37,22.02,8.37,22.02h20.26l-1.76-16.73,8.37-17.17,5.28,13.96s-6.17,23.03-4.84,23.47,12.77-.44,15.41,0,14.09-16.29,17.17-25.54c3.08-9.25,8.81-29.06,8.81-29.06,0,0,.88-26.82,0-27.5s2.64-9.71,2.64-9.71c0,0,3.08-2.42,3.52-11.67.44-9.25,0-21.14,0-21.14,0,0,1.27-6.17.2-8.81s-2.02-7.49.43-11.89c2.45-4.4,6.42-10.36-2.83-16.63s-19.06-9.82-19.06-9.82c0,0,2.77,7.07,3.65,8.39s5.06,9.8,5.06,12.88,1.55,7.82,1.55,7.82c0,0-23.56,4.06-26.42,3.3Z"/><path class="cls-32" d="m235.67,749.16c-4.83,3.84-10.01-2.35-13.73-3.07s-6.78-2.74-4.36,0c2.42,2.74,8.88,7.04,9.85,11.33.97,4.29,5.49,9.91,3.55,9.08s-7.27-2.64-10.66-4.13c-3.39-1.49-7.59-7.76-1.78-4.95,5.81,2.81,8.41,6.61,7.11,2.81s-.82-5.61-4.85-8.75c-4.04-3.14-6.94-4.48-7.11-6.78-.16-2.3-.81-3.62,3.55-2.3s19.87,5.61,18.41,6.77Z"/><path class="cls-17" d="m352.78,658.21s.47,8.78,1.47,15.47c1,6.69.69,20.92.69,20.92,0,0,11.66-22.13,11.66-37.71,0,0-7.48,2.41-13.82,1.32Z"/><path class="cls-17" d="m296.16,563.49s2.97,16.86,6.28,23.12c0,0-5.28,12.54,4.95,20.14,10.24,7.6,36.33-2.71,36.33-2.71l7.27-11.8-8.92-5.73s2.31-10.48,2.64-13.78c.33-3.3,2.97-2.97,3.63-6.61.66-3.63.33-9.91.33-9.91l-13.87-5.28s-36.99-3.96-38.64,12.55Z"/><path class="cls-66" d="m332.6,572.25c-1.71.69-8.09,1.32-8.83,1.07s-1.9,1.73-2.56,3.55c-.66,1.82-2.56,2.81-3.06,1.32s-2.06-2.89-2.15-.25c-.08,2.64-.17,3.14-.66,3.22s-1.73,0-.41.66.99,1.73,3.3,1.49,2.48-1.24,4.38-1.73,3.55-1.73,2.06-1.9-3.8.99-2.72-1.32c1.07-2.31,1.98-2.89,3.72-1.73,1.73,1.16,6.03.99,8.5,1.73s3.22,4.58,5.12-.56,1.65-9.1,1.65-9.1c0,0-5.28,2.31-8.34,3.55Z"/><path class="cls-66" d="m308.57,577.37c-1.72.46-4.71.74-5.94.83s-4.05.33-2.06,2.97c1.98,2.64,3.14,7.18,6.19,4.87,3.06-2.31,4.71-5.78,4.54-6.94-.17-1.16-1.18-2.15-2.72-1.73Z"/><path class="cls-30" d="m298.64,568.26c-.23.39,2.64-.5,4.46-.55s4.57,0,5.34-.28.94-1.16,0-1.43-4.9.06-6.83.44-2.42.88-2.97,1.82Z"/><path class="cls-30" d="m334.97,561.43c-2.7.61-4.3.88-7.32,1.65s-5.61,1.54-5.89,1.6-1.05-.77.44-1.62,1.59-1.35,5.94-1.62,6.83,0,6.83,0Z"/><path class="cls-59" d="m316.03,589.94c-.31-.13-.67-.04-1.23-.29s-.97.06-.7.35,1.75.75,1.75.75l.19-.8Z"/><path class="cls-59" d="m329.13,587.25s.82-.87,1.48-.48-.5.93-.89.93-.59-.45-.59-.45Z"/><path class="cls-63" d="m302.59,586.94s7.16,5.94,9.14,7.49,8.92,5.94,12.33,5.39,8.26-3.52,10.24-5.39c1.98-1.87.33-.22,1.98-1.87,1.65-1.65,5.24-5.07,5.68-5.73s2.93,1.55,4.37,2.43,3.72.99,3.83,1.54-4.95,10.35-11.34,11.23-16.51,6.28-22.9,3.3-15.19-12.88-15.19-12.88l1.87-5.5Z"/><path class="cls-64" d="m314.75,589.74c.17,0,.83.28,1.54.22s2.86-1.05,3.69-1.16,1.82.11,2.15,0,.77-.61,1.1-.66,2.15.44,3.63,0,3.14-1.33,3.14-1.33c0,0,.92.69-2.39,1.71s-5.43,2.21-9.72,2.15-3.14-.94-3.14-.94Z"/><path class="cls-57" d="m323.29,592.11c-1.9.49-4.07.22-5.01-.22s-3.45-1.62-3.45-1.62c0,0,4.18.32,7.25-.36s6.78-1.7,7.93-2.69c0,0-1.38,3.52-6.72,4.9Z"/><path class="cls-12" d="m317.01,583.74c-.88-.22-2.2-.22-1.71,0s1.38.5.8.55-1.62.55-1.96-.36-.66-.8-.55-.36.2,1.21,1.7,1.21,3.92.22,5.46-.28,3.36-1.27,3.36-1.27c0,0-.33.38.39,0s1.05-.82.72-1.1-.94-.33-1.71.22-1.82,1.71-3.41,1.98-3.08-.61-3.08-.61Z"/><path class="cls-74" d="m302.64,571.3s.61,2.15,3.36,1.98,3.25-.82,3.96-.99,1.76.49,1.32-.72-1.27-2.7-3.58-2.53-4.79,1.21-5.06,2.26Z"/><path class="cls-74" d="m332.97,566.07s-.54,2.59-2.97,3.19-4.35.22-5.18,0-.22-3.69,3.3-3.96,4.84.77,4.84.77Z"/><path class="cls-27" d="m312.83,511.19s-10.73-.11-15.88,3.41-.69,2.97,0,2.31-5.81,7.38-7.9,10.9c-2.09,3.52-6.83,14.53-6.83,14.53,0,0,2.09,18.28,3.08,19.82s5.94,7.43,5.94,7.43l7.73,6.89s-1.12-4.86-1.34-7.83-.66-3.67-.66-3.67c0,0,.66,2.21,4.07,2.45s5.61,1.52,5.5,0-2.42-8.23-.66-11.2c0,0,3.3,11.89,4.29,12.22,0,0-3.19-9.25-2.42-11.89,0,0,4.18,12.97,5.06,12.48,0,0-3.08-11.82-2.64-12.59,0,0,3.08,12.33,6.5,11.78s7.38-1.65,6.5-2.42-4.84-3.96-4.95-8.7c0,0,3.6,7.28,5.61,8.16,0,0,8.26-1.77,8.37-2.21s-3.47-9.8-3.47-9.8c0,0,3.69,6.28,4.24,8.59.55,2.31.66,2.09.99,1.43s1.54-1.98,1.32-3.74c-.22-1.76-.44-3.3-.44-3.3,0,0,1.32,3.96,2.53,3.74s1.76.11,1.21-.22-1.54-2.53-1.54-2.53c3.19,1.87,6.5,2.31,6.5,5.61v7.38s3.19-8.81,4.4-10.57,3.96-3.3,3.96-3.3c0,0-.77-7.71-.77-11.12s-1.21-10.24-1.98-14.09c-.77-3.85-2.86-6.72-2.86-6.72,0,0,1.43.55,1.43.22s-4.51-4.18-5.06-4.62,1.32-.22,1.32-.22c0,0,0-2.09-2.53-3.41s2.53.44,1.87-.33-3.52-4.18-7.82-5.61c-4.29-1.43-7.93-2.86-9.14-2.42s-4.95.99-4.95.99c0,0,7.6-4.51,7.32-4.73s-9.28,4.51-9.28,4.51l5.04-5.5s-5.4,2.97-6.17,4.84c0,0-6.29-4.51-6.94-4.84s5.68,5.17,5.68,5.17c0,0-3.69,2.75-4.24,2.75Z"/><path class="cls-55" d="m218.87,761.98c.99,0,4.29-2.64,6.61,0s6.94,5.28,3.96,4.95-4.95,0-2.97,1.65,3.94,3.96,3.94,3.96c0,0-5.61,4.29-5.77,5.94-.15,1.65,1.5,3.3,1.5,3.3,0,0,.64,2.97-1.5,3.3s-5.77-1.65-5.77-1.65c0,0,.33,2.97,0,2.97s-5.28-4.95-5.28-4.95l-4.29-5.28,9.58-14.2Z"/><path class="cls-70" d="m245.96,757.03s-2.49,3.34-4.83,3.78c-4.87.91-11.69,6.13-11.69,6.13,0,0-4.7.07-2.97,1.65s3.94,3.96,3.94,3.96l5.81-4.95s-8.68,6.59-10.13,8.74c-1.45,2.15-2.13,4.45.05,5.46,4.29,1.98,7.49,1.32,7.49,1.32,7.7,1.32,10.14-1.98,12.72-4.29,2.58-2.31,3.24-7.62,4.89-8.6,1.65-.98,6.28-5.27,6.28-5.27,0,0-4.62-6.61-11.56-7.93Z"/><path class="cls-17" d="m261.81,632.52s-5.94,13.54-5.61,21.47c.33,7.93-.01,24.44-.01,24.44,0,0,.65,13.87,0,15.85-.65,1.98-2.33,10.24,0,11.89,2.33,1.65,4.31,2.56,4.97,2.56s5.94-2.56,5.94-2.56c0,0,6.61,5.61,7.27,3.96.66-1.65-1.98-3.96-1.98-3.96,0,0,3.96-7.27,4.62-12.88.66-5.61-1.32-7.6-1.98-11.23-.66-3.63-2.64-6.96-2.31-10.58.33-3.62,1.32-8.9,1.65-15.51.33-6.61-.33-9.25-.33-9.25l-12.22-14.2Z"/><path class="cls-44" d="m133.79,597.51s1.32,22.82,4.62,26.77,5.17,16.12,5.17,16.12l18.94,10.62,18.83-4.95s1.65-4.62,0-5.61c-1.65-.99-13.73-3.04-12.22-4.71s4.74-2.86,7.66-5.5c3.04-2.75,5.2-4.24,6.17-10.44.87-5.55.04-4.79,1.03-8.42s5.49-7.1,3.84-13.71c-1.65-6.61-.85-14.66-.85-14.66l-42.96-2.98s-10.64,12.17-10.24,17.47Z"/><path class="cls-67" d="m165.2,629.43c-1.7-.13-4.24-1.16-5.12-1.6s-4.17-1.86-3.52-2.09,4.84-.06,5.89,0,3.25-.07,5.61-.09,5.17-.24,5.17-.24c0,0-3.03,4.4-8.04,4.02Z"/><path class="cls-46" d="m164.85,618.26c-.65-.33-.54-.72-1.64-.94s-1.49-.11-2.53,0-.55.35-1.43-.13-1.05-1.36-.88-.48.39,1.6,1.6,1.54,2.31-.32,3.14,0,1.75,0,1.75,0Z"/><path class="cls-46" d="m167.9,618.41c.17-.2.06-.7.99-.75s1.49-.11,1.76,0,.88.94-.55,1.05-2.2-.29-2.2-.29Z"/><path class="cls-74" d="m157.99,604.44c-.45-.74-2.09-3.08-5.01-3.08s-6.17,1.54-6.17,1.54c0,0,2.42,2.42,4.73,2.81s3.52.17,4.4,0,2.6-.35,2.04-1.27Z"/><path class="cls-74" d="m181.99,604.5c-.17-.06-2.75-2.53-6.11-1.71s-4.79,3.08-4.13,3.41,1.05-.44,2.26,0,2.75.99,4.73.39,3.25-2.09,3.25-2.09Z"/><path class="cls-40" d="m184.77,599.41c-.41-.08-3.47.17-4.79,0s-3.63.08-5.45.74-4.05.45-1.9-.4,4.87-1.5,6.61-1.42,5.53,1.07,5.53,1.07Z"/><path class="cls-40" d="m158.1,599.43c-1.75,1.21-4.79-1.68-7.76-1.59s-6.36.65-5.7,0,4.13-1.15,6.03-1.23,9.41,1.45,7.43,2.83Z"/><path class="cls-44" d="m132.75,598.32s-3.3-3.87-4.87-2.88c-1.57.99-3.03,6.37-1.6,9.3,1.43,2.92,1.1,8.95,3.99,10.19,2.89,1.24,3.8.58,4.87,0s.74-.5,1.16-1.9-.91-9-.91-9l-2.64-5.7Z"/><path class="cls-49" d="m173.24,625.41c0,.28-3.58.66-5.12,1.1s-1.65.61-2.64.55-1.87-.82-4.07-.82-5.34-.12-4.84-.5,2.2-.33,2.2-.33c0,0,2.7-.06,3.41-.33s1.71-1.02,1.98-.81.17.65.99.59,1.71-.28,1.71-.28c0,0,2.04.77,3.41.77s2.97-.28,2.97.06Z"/><path class="cls-32" d="m252.87,769.03l3.55-2.98s-9.12-8.15-10.73-8.15h-1.62s-1.13,0,1.62-3.8c2.75-3.8,4.16-7.76,4.16-7.76,0,0,5.53-7.93,7.3-11.06,1.78-3.14,2.75-9.25,4.68-10.9,1.94-1.65-2.75,6.61-.81,5.28,1.94-1.32,6.94-8.42,6.62-6.44-.32,1.98,0,2.97-1.62,4.46-1.62,1.49-4.36,3.47-5.49,4.95-1.13,1.49-4.68,7.27-6.46,10.07-1.78,2.81-5.49,10.07-6.3,11.72s-1.29,2.48-1.29,2.48c0,0,4.48,1.51,6.9,3.33s6.02,5.59,4.73,7.73c-1.29,2.15-5.25,1.05-5.25,1.05Z"/><path class="cls-32" d="m210.8,727.69c.65.17,3.39-.99,7.59,2.64,4.2,3.63,8.72,3.47,10.82,3.3s7.59.83,3.55,1.49-4.53,2.31-10.26.66-8.93-2.64-8.93-2.64c0,0-5.69.5-5.04-1.07s2.26-4.38,2.26-4.38Z"/><path class="cls-32" d="m208.48,706.55c-.47.53,0,10.9,0,10.9,0,0-1.56,2.98,2.47,1.9s8.5-.27,10.39.23-4.41-5.27-4.41-5.27c0,0-6.4-10.07-8.45-7.76Z"/><path class="cls-32" d="m254.89,720.59c-.65-.07-1.54-.16-2.56-.27-6.27-.66-17.63-1.82-11.66-.7,6.94,1.3,14.37,2.26,13.41,3.27-.97,1.01-3.69,6.29-10.24,11.74s-12.53,4.29-11.88,4.95,2.91,2.31,6.62,0,10.66-6.11,12.44-8.75c1.78-2.64,5.33-9.37,7.91-11.21s7.43-5.8,7.43-5.8c0,0-8.91,7.04-11.47,6.77Z"/><path class="cls-44" d="m213.71,764.63s1.32,2.97,4.29-.33c2.97-3.3,7.6-4.95,5.28-10.24s-4.62-7.93-7.93-11.89c-3.3-3.96-6.94-8.92-6.94-8.92l-9.91,7.27s.33,4.62,1.65,7.93,4.62,4.29,3.3,5.61"/><path class="cls-45" d="m215.08,749.27s.17,3.96,0,6.11c-.12,1.61.31,2.2.26,3.09-.02.3-.09.63-.26,1.04-.66,1.65.17,2.31-1.98,1.98s-3.47-.83-3.63-2.64c-.17-1.82,0-5.28,0-5.28l-4.29-4.29s-2.15-1.32-3.47-3.14c-1.32-1.82-1.49-7.1-1.98-6.61s-2.64,3.96-1.65,6.11,3.47,6.44,3.96,7.76-.17,5.28-.66,6.44-1.16,3.63.33,3.63,1.82.5,2.81-1.65c.99-2.15,2.07-4.13,2.07-4.13,0,0,.08,1.49,0,2.48s-3.55,2.81-3.06,4.95.83,2.48,2.15,1.82,2.97-1.98,2.97-1.98c0,0-2.15,1.65,1.32,1.49s3.8-1.16,3.8-1.16c0,0,1.49.33,3.14-.5s-1.82-.17-.99-2.31,1.44-1.98,1.44-1.98c0,0-.78-1.98,1.2-3.14,0,0-1.82.83-2.15-.99s1.16-2.31,1.16-2.31c0,0-2.31-.17-1.65-1.82s-.83-2.97-.83-2.97Z"/><path class="cls-65" d="m271.11,784.99s5.5,3.08,12.99,3.52,10.57,3.96,24.44,5.06,22.68.22,24,0,8.15-4.84,8.15-8.59-.44-15.19,0-19.16,1.98-23.12,1.98-23.12l1.1-18.28s7.49-5.5-1.54-5.72-59.67-9.48-64.51-9.25-17.39,0-17.39,1.99-3.52,40.34-3.52,40.34c0,0-1.1,24.62,0,26.16,1.1,1.54,12.33,8.37,14.31,7.05Z"/><path class="cls-60" d="m289.44,717.94c.06,1.69,1.54,18.88,1.54,23.92s.56,13.49-3.96,21.16c-4.52,7.67-3.63,9.4-4.24,12.5-.61,3.1-7.05,13.45-7.05,13.45,0,0,11.33-1.56,15.27,1.3s24.6,5.89,31.86,4.72,9.68-1.42,9.68-1.42c0,0,7.21-4.4,8.15-8.59s1.38-14.36,1.16-21.97c-.22-7.61,2.2-17.61,2.2-21.16v-15.66l2.64-6.58s-6.82,2.61-16.07,1.73-41.17-3.42-41.17-3.42Z"/><path class="cls-28" d="m395.51,496.45c-2.14.85-1.65,9.48-1.65,9.48,0,0,9.9,14.13,11,15.51,1.1,1.38,4.77,2.24,7.15,2.41s2.03-4.02,1.2-5.45c-.83-1.44-7.43-9.19-7.43-9.19,0,0-6.78-14.13-10.26-12.75Z"/><path class="cls-16" d="m409.66,515.05s5.28,7.05,0,9.69c-5.28,2.64-10.13,4.84-10.13,4.84l-29.06,54.61s.44,13.21,0,17.17-6.61,35.67-6.61,35.67v26.86s-1.76,14.09-3.52,17.61c-1.76,3.52-7.93,18.06-7.93,18.06,0,0-.44,18.06,3.96,14.97s0-10.57,1.76-12.77,8.37-8.37,8.37-8.37l-1.32,10.13s-.44,3.96,2.2,3.96.44-1.32,4.4-6.61c3.96-5.28,3.96-9.69,3.52-13.65s-4.84-12.33-4.84-12.33c0,0,5.72-40.05,6.17-50.63s3.66-18.95,5.57-26.88,24.81-56.81,24.81-56.81c0,0,15.85,11.01,24.66,11.89s19.82-8.37,19.82-8.37l21.58,49.32s-3.52,9.25,0,18.94c3.52,9.69,8.37,28.62,8.37,28.62,0,0-.88,22.9,0,25.98s-5.28,6.61-7.05,9.25-6.17,7.49-6.17,9.69-3.96,2.64,0,2.2,6.17-3.96,6.17-3.96l1.76,11.89s-6.17,19.64-3.52,18.85,5.9-11.36,8.89-17.97c0,0-.35,17.05,0,17.99s1.24,6.67,3.88,4.03.44-3.52,2.2-7.93c1.76-4.4,3.08-9.69,3.08-9.69v-3.52s1.32,9.25,2.2,12.77-.44,3.52,2.64,3.52-1.76-3.52,0-7.49-2.2-13.65-2.2-13.65c0,0,4.84,8.37,7.05,9.25s.88-2.64,0-5.28-.88-3.52-3.08-6.61c-2.2-3.08-3.96-3.96-1.76-12.33,2.2-8.37,4.4-14.09,3.08-20.7-1.32-6.61-1.76-22.9-2.2-35.23-.44-12.33-5.28-24.66-5.72-25.98s-1.32-7.93-1.32-7.93c0,0-30.83-62.53-32.59-62.53s-7.49,3.52-9.25-3.96c-1.76-7.49-2.2-12.33-.88-18.5,1.32-6.17,0-24.66,0-24.66,0,0-.44-12.77-10.13-13.21s-18.5-1.76-23.34,4.4c-4.84,6.17-15.85,16.73-16.73,19.38s1.68,12.25,1.68,12.25c0,0,3.47,8.79,11.53,13.73Z"/><path class="cls-8" d="m413.18,484.55c-.05,1.16-1.32,11.31-1.32,11.31,0,0-2.48.99-2.89,2.48s3.22,2.56,3.22,2.56h4.38l3.88-3.14s5.61-1.82,4.62-2.64-1.73.83-3.88-.91c-2.15-1.73-3.3-5.28-3.3-5.28,0,0-4.67-5.21-4.71-4.38Z"/><path class="cls-74" d="m433.9,482.49c-.33-.08-5.86-1.9-7.76-.99s-4.38,4.38-3.88,4.79.33-.58,1.73-.33,5.2-.67,6.94-1.49,2.97-1.97,2.97-1.97Z"/><path class="cls-28" d="m428.05,475.39c-1.99.08-6.94.17-8.84,1.32s-2.97,2.48-1.49,2.81,4.29-.17,6.52-.99,6.28-1.73,8.42-1.82,8.26.5,5.04-.5-9.65-.83-9.65-.83Z"/><path class="cls-71" d="m409.66,515.05s9.95,7.16,11.6,7.65,6.44-.17,9.08-1.16c2.64-.99,9.91-6.11,9.91-6.11l5.78-6.77s-5.61,9.91-8.75,11.89-9.08,6.61-15.52,6.11-7.1-.99-5.28,2.81-.83,4.29-.83,4.29h-14.04l-1.17-4.54s10.44-5.07,11.26-6.56-2.04-7.62-2.04-7.62Z"/><path class="cls-16" d="m389.85,744.48s-.88,18.94,0,27.74c.88,8.81-2.2,3.52-2.64,22.9-.44,19.38,2.8,38.75,2.8,38.75l9.97,40.51h21.58l-4.84-61.65,1.76-33.47s4.4-11.89,3.08-18.5c-1.32-6.61-4.4-16.29-4.4-16.29l-3.96-29.06,18.06,12.77s5.28,21.58,4.84,28.62.88,19.38,3.52,23.78,4.84,20.26,4.4,28.62c-.44,8.37.06,27.3.06,27.3,0,0,4.79,29.5,5.23,33.03s17.61,4.84,17.61,4.84c0,0,2.64-9.69,4.4-26.86,1.76-17.17,3.08-52.62,3.08-52.62,0,0,.88-12.11-3.52-34.13-4.4-22.02-4.4-33.47-7.05-37.43-2.64-3.96-33.01-11.89-33.01-11.89l-38.33-5.28-2.64,38.31Z"/><path class="cls-38" d="m369.97,677.98s-.44,15.41,0,18.06-6.17,9.86-6.61,14.4,0,32.28,0,32.28c0,0,21.58,6.61,35.23,7.93,13.65,1.32,23.78-11.01,23.78-11.01v-7.05s8.37-6.61,25.1-3.08c16.73,3.52,17.17,5.72,17.17,5.72,0,0,3.52-11.83,2.2-15.6s.3-9.19.3-9.19c0,0-2.94-9.55-3.38-11.75-.44-2.2,3.08-2.88.88-6.72-2.2-3.85-3.08-7.37-1.32-10.89,1.76-3.52,1.76-6.85-2.64-9.59-4.4-2.74-35.67-4.5-43.16-2.3s-47.56,8.81-47.56,8.81Z"/><path class="cls-53" d="m368.2,655.52s-1.63,24.66,0,26.42c1.63,1.76,12.77,3.96,12.77,3.96,0,0,9.25-2.64,18.06-2.2s29.06-2.2,29.06-2.2c0,0,11.89,5.28,18.06,4.4,6.17-.88,12.33,2.64,12.33,2.64l6.17,3.4s1.91-7.37,2.5-14.85c.58-7.49-2.94-14.97-4.26-21.58-1.32-6.61-4.84-35.67-4.84-35.67,0,0,1.76-17.17,3.08-20.26s3.08-7.35,3.08-7.35c0,0,1.91,2.51,2.94,2.95s10.27,3.35,17.76-2.95,17.17-8.06,17.17-8.06c0,0-.88.44-3.08-7.49-2.2-7.93-12.33-21.58-15.85-32.59-3.52-11.01-18.94-15.85-22.9-17.61-3.96-1.76-11.28-1.61-11.28-1.61,0,0,1.15,6.46-1.93,10.42-3.08,3.96-5.72,12.33-20.7,9.69s-22.9-15.85-26.86-17.17-12.33,4.4-12.33,4.4c0,0-11.89-1.76-16.29,3.52-4.4,5.28-18.94,45.58-18.94,45.58,0,0,16.73,8.85,19.38,10.92,2.64,2.07,10.57,2.51,10.57,2.51,0,0-.88,10.21-2.64,14.79-1.76,4.58-4.4,14.27-5.28,19.12s-5.38,20.71-5.72,26.86Z"/><path class="cls-6" d="m420.52,739.19s-3.63-10.9-4.29-13.54c-.66-2.64-3.63-2.8-2.97-6.02.66-3.22,3.59-5.53,3.59-5.53,0,0,1.7-8.26,3.68-10.24s20.15-18.5,20.48-16.84,0,4.61-2.31,4.95-6.94,2.32-1.98,4.3c4.95,1.98,16.51,3.96,16.18,4.95s-1.98,1.65-9.25.33c-7.27-1.32-23.78,5.61-19.49,4.62,4.29-.99,22.79,3.3,22.79,3.3,0,0-5.28,1.31-10.9,0s-12.22-1.99-12.88,0c-.66,1.99,17.22,8.81,11.89,6.61-6.11-2.52-11.23-3.03-11.23-3.03,0,0-2.31.06-.99,3.69s-1.98,5.28-1.98,5.28l.66,7.93-.99,9.25Z"/><path class="cls-6" d="m447.94,661.25c-8.59,3.96-6.36,4.29-14.91,6.93s-7.41,3.97-19.87,4.3-13.78,3.63-6.18,3.96,21.71.99,26.05-1.65c4.34-2.64,9.62-5.28,17.22-4.29s16.18,4.29,11.89-1.49c-4.29-5.78-4.29-6.77-7.93-7.76s-6.28,0-6.28,0Z"/><path class="cls-6" d="m379.24,589.25c.66-1.65,2.97-5.61,3.63-13.87.66-8.26,1.65-5.94,0-14.53-1.65-8.59-4.62-15.19-3.63-8.92s-.2,15.19-.2,15.19c0,0,.53-2.64-2.77-11.56s-6.61-27.41-4.95-12.88c1.65,14.53,4.76,19.49,6.01,25.76,1.25,6.28,1.91,20.81,1.91,20.81Z"/><path class="cls-6" d="m463.29,592.24c.83-1.01,1.49-8.28,5.79-14.22,4.29-5.94,4.95-1.98,4.29-9.58-.66-7.6.11-24.44.22-25.1s3.41,3.3,3.41,11.56,3.96,15.52,0,21.47c-3.96,5.94-7.27,12.88-7.27,12.88l-6.45,2.99Z"/><path class="cls-74" d="m418.44,504.45c-2.48.37-9.59,1.74-9.94,2.34s5.72,3.81,10.18,2.57,12.08-6.13,12.05-6.51-12.29,1.6-12.29,1.6Z"/><path class="cls-71" d="m430.93,502.72s-5.12-.33-7.51,0-3.96.58-5.37.99-4.21-.17-5.7.58-4.87,2.48-4.46,2.56,3.47-.66,5.53-1.07,3.88-.04,5.26-.55,12.24-2.51,12.24-2.51Z"/><path class="cls-9" d="m418.71,508.74c-2.56-.11-7.6-.83-8.5-1.07s-2.23-1.49-2.31-.83,5.04,5.2,9.74,5.2,7.95-2.4,10.8-5.49c.56-.61,2.5-3.84,2.5-3.84,0,0-3.73,2.64-5.75,3.72s-6.06,2.33-6.48,2.31Z"/><path class="cls-29" d="m424.32,482.81s-.11,1.76,1.32,2.86c0,0,2.97.22,4.29-1.43,0,0-.11-1.76-1.1-2.97,0,0-2.86-.33-4.51,1.54Z"/><path class="cls-22" d="m433.9,482.49c-1.08-.3-2.17-.58-3.27-.79-1.1-.21-2.21-.41-3.32-.34-1.14-.02-2.03.77-2.81,1.54-.77.79-1.48,1.68-1.98,2.66-.06.12-.11.25-.15.37-.04.11-.04.26-.02.26.03.03.09.07.11.07.02,0,.03,0,.09-.04.09-.07.21-.19.35-.27.6-.33,1.2-.03,1.72-.07,1.11-.02,2.21-.25,3.3-.5,1.08-.27,2.17-.59,3.17-1.07,1.01-.48,1.96-1.09,2.81-1.82Zm0,0c-.83.76-1.75,1.42-2.75,1.94-1.02.51-2.1.83-3.19,1.12-1.09.27-2.2.52-3.34.56-.58.03-1.16-.21-1.59.06-.11.06-.19.15-.31.25-.05.05-.18.12-.3.09-.11-.03-.18-.08-.25-.14-.18-.22-.08-.4-.06-.54.04-.15.1-.28.16-.41.54-1.02,1.27-1.9,2.07-2.7.41-.4.84-.77,1.32-1.08.47-.33,1.08-.47,1.64-.48,2.29-.03,4.47.65,6.6,1.32Z"/><path class="cls-33" d="m422.23,467.93s1.32,12.33,0,12.77-1.32-6.39-1.32-6.39v-7.49s-3.52,3.74-2.64,8.81c.88,5.06.88,8.37.88,8.37l-1.98-3.52-1.76,3.52s.88-.44,0-1.98c-.88-1.54-1.98.44-2.2,1.98l-.22,1.54-2.2-2.64-1.1,2.64s-2.64-3.3-2.2-2.64,1.1,4.84,1.1,4.84c0,0-1.98.44-1.98,0s-1.1-3.08-1.1-3.08v4.84c-1.54.66-2.42-1.98-2.42-1.98l-1.1-1.1v10.13s-1.98-1.32-2.86-1.54-1.54,2.2-1.76,3.08-1.54,1.32-1.54,1.32c0,0-.88,4.84,2.2,10.79s8.37,10.79,7.49,11.23-6.61-3.08-6.61-3.08l-10.35-8.59s-.44,10.13-1.1,4.4c-.66-5.72,1.1-9.69,0-14.53s-1.98-23.56,1.1-31.05c3.08-7.49,3.96-16.07,13.21-22.46,9.25-6.39,17.39-11.01,22.02-9.91,0,0,12.11-1.98,18.06,3.08,5.94,5.06,11.45,14.09,14.75,21.8s7.05,41.17,7.05,41.17c0,0-1.32,12.99-1.76,12.11s0-12.11-.88-15.41c-.88-3.3-2.64-5.94-2.64-5.94,0,0-1.1,24.08-2.42,28.44s-4.4,5.69-4.18,4.59c.22-1.1,3.3-6.61,3.3-12.11s-.44-11.89-.44-11.89c0,0-3.96,17.83-5.5,18.94s-2.42.22-2.86-1.32-.66-13.65-.44-14.31,0-2.86,0-2.86c0,0-1.98.22-1.98-6.39s-2.86-5.94-2.86-12.77-1.98-15.41-1.98-17.17-1.98,5.5-1.98,12.11,2.64,18.72,2.64,18.72c0,0-5.94-7.94-7.05-15.86-1.1-7.92-1.54-14.31-1.98-14.97s-2.64,4.18-2.42,8.59-.22,10.57-.88,4.4c-.66-6.17-1.32-11.89-1.32-11.89,0,0-1.46,5.28-.95,8.81.51,3.52.59,9.03,0,7.49s-2.79-15.63-2.79-15.63Z"/><path class="cls-25" d="m273.78,648.04s-3.09-2.2-7.72-8.15c-4.62-5.94-4.42-5.5-8.82-9.03-4.4-3.52-8.59-6.61-6.39-8.81,2.2-2.2,13.87-15.19,17.39-18.72,3.52-3.52,14.53-14.09,14.53-14.09l18.81-4.47.84,1.84s-1.38,2.42,3.91,8.14c5.28,5.72,12.33,9.91,21.36,8.81s17.5-5.94,18.99-8.37,3.15-3.57,1.93-4.4l-1.45-1s4.53-.54,7.17,1c2.64,1.54,16.07,7.29,17.61,17.63,1.54,10.33,1.76,18.26,1.76,18.26l-1.1,15.19s-.22,8.81-2.64,12.77-16.51,4.18-16.51,4.18c0,0,.44,11.45.88,16.29s2.86,26.86,1.98,31.93,4.85,6.92-2.86,11.23c-7.72,4.31-6.17,3.3-19.38,5.28-13.21,1.98-27.08.44-35.67-2.42-8.59-2.86-24.22-4.84-26.42-6.83s-6.17-1.54-5.72-5.94,3.3-20.92,4.84-30.39c1.54-9.47,2.67-29.94,2.67-29.94Z"/><path class="cls-17" d="m256.23,672.54s.17,7.93,0,10.52-2.15,9.82-2.15,9.82v8.8s.07,6.04,1.11,6.55,3.68,2.76,5.17,2.76,5.28-1.38,5.94-1.38c0,0,3.25,1.44,5.23,2.13s2.09-1.26,2.09-1.26l-2.97-4.25s1.87,1.72,2.97-1.72c1.1-3.45.77-6.21,1.43-9.66.66-3.45,2.31-4.48,0-8.16s-3.08-3.1-4.07-7.01-1.21-8.51-1.21-8.51l-13.54,1.38Z"/><path class="cls-52" d="m289.5,719.63s-.88,7.51,0,12.44c.82,4.58.5,22.82-2.73,27.84-.25.38-.51.69-.79.91-2.97,2.28-3.22,9.05-3.9,12.66-.23,1.2-.5,2.06-.94,2.28-1.76.88-6.17,5.23-5.28,7.68l.88,2.45s-1.32,3.47,2.64-2.45,11.45-22.27,13.21-30.17c1.76-7.9-1.32-13.34,0-21.19s-3.08-12.44-3.08-12.44Z"/><circle class="cls-52" cx="285.23" cy="730.86" r="3.22"/><circle class="cls-52" cx="281.68" cy="748.85" r="2.75"/><circle class="cls-52" cx="278.49" cy="769.33" r="2.75"/><path class="cls-68" d="m282.78,589.25l-4.87,15.19-2.31,6.61s3.63.99,2.31,3.96-2.35,14.86-2.17,18.5,0,11.89,0,11.89l-2.46,3.3s-7.6-7.27-12.22-12.22-12.03-13.21-12.03-13.21c0,0,8.73-9.22,12.03-14.85,3.3-5.63,21.71-19.17,21.71-19.17Z"/><path class="cls-68" d="m372.42,611.74s-.71,8.55-4.34,9.88-9.58,3.96-10.57,7.93,1.65,12.22,0,15.52c-1.65,3.3-4.71,11.39-4.05,13.76,0,0,4.95.44,8.96-.55,4.01-.99,9.95-2.64,10.61-9.58.66-6.94.41-20.72.69-23.56.51-5.3-1.3-13.4-1.3-13.4Z"/><path class="cls-68" d="m354.66,590.97s-2.27-1.31-5.25-1.8-4.32-.55-4.07-.55,1.69,1.58,1.69,1.58c0,0-4.14,14.15-22.38,12.84-16.38-1.18-20.48-11.81-21.55-14.94l-1.73-4.05s-3.31,1.67-3.72,1.67-5.36,17.24,21.39,21.62c26.75,4.38,35.63-16.36,35.63-16.36Z"/><path class="cls-28" d="m325.82,566.19s.28,3.03,3.19,2.97,1.65-3.85,1.65-3.85c0,0-2.7-.77-4.84.88Z"/><path class="cls-28" d="m309.8,569.59s-.19,3.28-2.48,3.25-2.81-1.87-2.53-3.3c0,0,3.58-1.49,5.01.05Z"/><path class="cls-30" d="m302.64,571.3c.31.82,1,1.46,1.82,1.72.81.29,1.7.17,2.55.06.86-.12,1.68-.34,2.46-.74.76-.58,2.28.41,1.65-.78-.29-.8-.74-1.57-1.46-2-.73-.44-1.61-.45-2.46-.35-.86.1-1.71.29-2.52.6-.41.15-.8.33-1.17.56-.36.23-.72.52-.87.94Zm0,0c.13-.42.47-.74.83-.99.36-.25.75-.46,1.16-.63.81-.34,1.67-.56,2.54-.69.86-.14,1.82-.12,2.62.35.8.47,1.3,1.3,1.6,2.12.06.22.18.42.11.72-.04.17-.24.27-.36.28-.13.02-.24,0-.36,0-.45-.07-.82-.08-1.21.13-.78.39-1.67.64-2.54.72-.86.08-1.78.19-2.63-.15-.84-.31-1.51-1.01-1.77-1.85Z"/><path class="cls-30" d="m332.97,566.07c-.19.85-.61,1.66-1.23,2.3-.62.65-1.51.99-2.37,1.14-.86.18-1.75.23-2.64.19-.44-.02-.88-.08-1.32-.16-.22-.04-.43-.09-.65-.15-.33-.12-.38-.43-.41-.65-.03-1.92,1.73-3.38,3.49-3.51,1.73-.14,3.6-.09,5.11.84Zm0,0c-.75-.46-1.63-.6-2.49-.68-.86-.08-1.74-.05-2.59.06-.84.13-1.67.44-2.27,1.05-.59.58-1.02,1.41-.97,2.22,0,.19.09.39.21.42.2.06.41.11.62.15.42.08.85.14,1.28.17.86.06,1.73,0,2.58-.15.86-.12,1.69-.42,2.31-1.02.63-.58,1.09-1.36,1.32-2.2Z"/><path class="cls-32" d="m222.45,813.34s1.32-10.24,5.94-13.38,16.18-6.44,9.41-5.28-13.87,4.79-13.87,4.79l-17.5.83s-12.19-1.65-11.79-.33c.4,1.32,7.33,4.95,7.33,4.95,0,0,6.94,6.28,7.27,7.43.33,1.16.5,1.82,3.3-1.65s4.79-4.13,6.77-2.81,3.14,5.45,3.14,5.45Z"/><path class="cls-26" d="m234.83,636.31s-4.62,2.64-7.27,1.82-4.62-1.82-4.62-1.82c0,0-1.82,5.12-4.79,5.28s-5.28,0-5.28,0l-1.32,6.28-2.31,5.45s2.48,9.08,1.49,9.08-4.46-5.61-5.78-4.62-.99,4.62-4.13,1.82-10.07-10.24-10.07-10.24l3.9-10.24s-.1-8.75,2.71-11.39,6.94-5.28,6.94-5.28c0,0-1.98-3.3,1.49-5.28,3.47-1.98,6.44-3.8,7.93-3.3s1.32.33,5.78-1.16c4.46-1.49,4.95-.17,5.61,0s3.96-2.48,8.09-1.98,5.94.17,7.1,3.3c1.16,3.14,2.81,3.63,4.95,5.12s7.93,5.13,7.93,5.13c0,0,3.47,7.42,2.81,7.91s-2.97,5.45-2.97,5.45c0,0-.83,7.76,2.31,7.27s3.63-4.95,3.63-4.95c0,0,2.64,2.81,1.32,4.95s-6.28,4.46-6.28,4.46l-1.16,7.76-1.71,1.18s.06-15.55-1.1-18.52c-1.16-2.97-4.13-5.45-4.13-5.45,0,0-5.78,5.12-11.06,1.98Z"/><path class="cls-73" d="m230.29,666.78s-.66,1.16,0,1.49,1.07.41,1.73,0,2.06-.41,2.31-.17,1.16.31,1.57.44c.16.05.42-.04.71-.18.46-.22,1-.57,1.35-.71.58-.22,1.32.24,1.57,0s1.32-.89.74-1.63-.66-.25-.58-.74,1.66,1.16.75,2.23-1.49,1.17-1.74,1.04-1.65-.15-1.78.05-.45.17-1.82,0-3.55.14-3.55.14c0,0-1.44.39-1.78-.48s.21-1.57.5-1.49Z"/><path class="cls-11" d="m235.74,672.93c-.39-.16-1.03-.78-1.28-.7s-2.23,1.78-3.14,2.15-2.85.95-2.11,1.16,0,.17,1.53,0,5.08-.83,5.57-.91,1.11.12,2.27.25,2.89.12,2.77-.17-.99.05-1.9-.76-2.02-1.73-2.19-1.73-1.31.8-1.53.71Z"/><path class="cls-26" d="m227.65,653.36c-2.68-.25-3.55-.29-5.9-.33s-2.52.12-4.91.87-2.27.15.29-.87,4.62-1.15,4.62-1.15c0,0,7.1.12,6.77.7s-.87.78-.87.78Z"/><path class="cls-26" d="m248.25,652.13s-3.43-.54-4.21-.5-3.8,1.32-4.5,1.43.08-1.71.95-1.84,2.04-1.16,3.27-.74,4.57,1.36,4.49,1.65Z"/><path class="cls-74" d="m246.1,655.1c.07-.28-2.06-1.28-4.29-.41s-2.35,3.01-2.31,3.3.37.29.83.21,2.37.25,3.44-.08,1.93-1.24,2.34-3.01Z"/><path class="cls-74" d="m219.43,658.26s2.52-1.84,5.08-1.68,2.85,1.87,2.97,1.68.74.47.62.76-1.2.66-1.32.66-5.28,1.41-7.35-1.42Z"/><path class="cls-18" d="m233.51,657.86c-.76,1.07-.74,4.5-.54,5.49.21.99-.08,2.15-.08,2.15,0,0,.96,1.97,4.21,1.07,0,0,1.57-.22,1.07-1.37s-.91-2.1-.91-2.1l-1.2-3.92s-1.86-2.31-2.56-1.32Z"/><path class="cls-18" d="m227.29,661.25c-1.48,1.75-3.85,2.09-6.06.96-2.2-1.13-4.62-4.22-4.79-2.18s3.91,6.99,3.91,6.99l3.74,3.64s4.4-2.75,4.95-5.06-1.16-5.06-1.76-4.35Z"/><path class="cls-18" d="m240.01,660.03c-.31.23-2.47,1.49-.74,3.64s1.97,4.4,3.53,4.35,2.88.66,4.2-1.54,1.49-5.61,1.49-5.61c0,0-.72-1.54-1.87-.61-1.16.94-2.4,1.71-3.81,1.05s-1.82-1.98-2.79-1.27Z"/><path class="cls-18" d="m237.15,678.18c-.83-.58-3.39-1.07-4.87,0s-3.72,1.57-2.06,2.15,4.35-.33,5.35-.41,3.93.91,3.93.91l-2.35-2.64Z"/><path class="cls-10" d="m235.78,676.03c-.29-.01-1.65.21-2.44,0s-4.01-.28-4.13-.5,3.31-.25,4.27-.41,2.38-.64,3.74-.45,4.12.03,4.12.03c0,0-1.91,1.48-5.57,1.32Z"/><path class="cls-13" d="m221.38,657.16s-.25,2.2.41,2.64c0,0,2.23.53,3.55,0,0,0,.83-1.05.41-2.64,0,0-1.07-1.41-4.38,0Z"/><path class="cls-13" d="m240.33,655.49s-.39,1.71.94,2.48,3.46-.15,3.3-1.51c-.16-1.35-.47-1.73-.47-1.73,0,0-1.26-1.29-3.77.76Z"/><path class="cls-15" d="m223.6,625.99c-.74.08-2.97.17-3.38,1.4s-1.4,3.3-.66,3.88,1.49,1.65,2.39.83.91-2.64,1.16-3.3,0,1.73.91,1.9,1.4-.5,1.4-.5c0,0-1.15-4.21-1.49-4.21h-.34Z"/><path class="cls-15" d="m232.6,624.27c-.66-.18-3.06-.1-2.97,1.31.08,1.4.41,3.22.41,3.22l2.56-1.16s-1.9,1.54,0,1.55,2.72,2.57,3.14-.4.5-3.39,0-4.13-3.14-.4-3.14-.4Z"/><path class="cls-15" d="m225.87,620.46c-1.93-.25-4.08,1.4-4.08,1.4,0,0-.76,1.84.57,2.41s3.15.34,3.81,0-.3-3.81-.3-3.81Z"/><path class="cls-15" d="m232.86,614.93c-1.57-.83-4.79-.33-3.64.91,1.16,1.24,3.06,1.73,3.06,1.73,0,0,2.72,1.32,2.48,0-.25-1.32-1.89-2.64-1.89-2.64Z"/><path class="cls-15" d="m217.41,621.78c-1.49.17-3.55.33-2.97,1.4s3.55,2.81,3.55,2.81c0,0,4.04-.77,3.34-1.38s-2.77-2.97-3.92-2.84Z"/><path class="cls-15" d="m209.32,623.02c-1.73,1.29-4.62,4.01-2.97,4.19s8.14,2.74,7.99.84c-.15-1.9-3.81-5.93-5.02-5.04Z"/><path class="cls-15" d="m240.06,620.43c-2.34,1.18-3.58,3.76-3.58,3.76,0,0,1.32-.69,2.81-1.3s.77-2.46.77-2.46Z"/><path class="cls-15" d="m226.4,614.52c-2.78.39-4.79,1.07-2.8,2.47,1.99,1.4,3.14,2.23,3.89,1.98s1.99-1.19,1.49-2.2c-.5-1.02-1.61-2.38-2.58-2.25Z"/><path class="cls-31" d="m246.1,655.1c-.07-.19-.3-.26-.47-.34-.19-.07-.38-.13-.58-.17-.39-.09-.79-.14-1.19-.14-.8,0-1.6.15-2.31.51-.71.33-1.3.91-1.64,1.63-.17.36-.29.74-.34,1.14-.03.2-.05.41.16.46.19.05.4.03.6,0-.2.04-.4.1-.62.06-.11-.01-.22-.1-.25-.22-.03-.11-.03-.22-.02-.32.02-.42.12-.83.28-1.22.32-.78.96-1.42,1.72-1.79.76-.36,1.61-.52,2.44-.47.42.02.83.1,1.22.22.2.07.39.14.57.24.17.1.4.19.45.4Z"/><path class="cls-31" d="m219.43,658.26c.67-.52,1.41-.96,2.2-1.28.79-.32,1.64-.53,2.51-.55.86.01,1.76.18,2.47.72.35.27.62.63.83,1,.02.05.07.08,0,.07.08-.08.17-.03.21,0,.1.06.18.14.25.22.12.17.26.38.2.59.04-.21-.12-.4-.25-.54-.07-.07-.15-.14-.24-.18-.04-.02-.08-.01-.08,0,.02-.02-.06.06-.09.04-.02,0-.05-.02-.07-.04l-.06-.07c-.23-.36-.5-.66-.84-.9-.67-.46-1.52-.62-2.34-.61-.83,0-1.65.19-2.43.47-.79.28-1.55.64-2.28,1.08Z"/><path class="cls-58" d="m164.32,504.71s3.47,8.08,5.28,10.23,0,2.64,4.46,2.64,9.41-1.49,11.72,3.63,3.63,14.2,3.47,15.36-2.48,9.58-2.64,11.39c-.17,1.82,2.66,15.36,2.66,15.36l7.09-6.61,5.94-3.14v-2.15l6.28-5.78-1.16-3.8,1.16-5.94-2.81-7.27s-2.81-10.9-4.46-17.34c-1.65-6.44-7.1-17.83-10.57-20.15-3.47-2.31-11.72-9.74-20.15-9.25s-14.04-4.34-17.83-.02c-3.8,4.32-19.32,19.26-21.3,25.5-1.98,6.23-3.3,10.69-3.63,16.47-.33,5.78-4.29,13.21-1.49,21.63,2.81,8.42,7.6,14.04,7.6,14.04l13.71,6.61-.67-20.31s-4.12-9.01-4.78-20.94c0,0,.83-4,1.98-3.67s3.63,0,3.63,0l2.64-1.82s2.31-.5,2.31-1.16-.83-6.36,1.16-10.86c0,0,2.31,9.21,4.79,11.35l1.32-.17s-1.65-5.28-1.49-7.6c.17-2.31,1.49-4.75,1.49-4.75,0,0,3.47,11.85,4.79,12.68,0,0,2.63.17,2.14-.5s-4.29-9.06-2.64-13.69Z"/><path class="cls-21" d="m168.78,533.85c0-.83-.74-1.32-1.49-1.32s-1.82.41-1.9.66.58.99-.5,1.32-3.06,1.16-3.47.41-.58-2.64-1.9-1.65-.99,1.24-.99,1.49-.41.19-.66.47.83.69.83.69c0,0,2.31.08,2.89,0s7.18-1.32,7.18-2.06Z"/><path class="cls-74" d="m147.65,524.6c.25,0,1.49,1.24,3.72,1.24s4.29-.41,4.87-.62.91-.88-.58-2.11c-1.49-1.23-4.13-1.64-5.53-.74s-2.48,2.23-2.48,2.23Z"/><path class="cls-74" d="m178.28,520.72s-1.98,1.9-4.05,1.9-3.22.25-3.88,0-1.73-.08-1.57-.41,1.06-3.14,4.74-3.3,4.76,1.82,4.76,1.82Z"/><path class="cls-74" d="m164.32,540.26c-.22.06-7.77,3.01-7.6,3.66s5.96,1.02,7.96.85,7.33-2.99,7.33-2.99l-7.69-1.52Z"/><path class="cls-72" d="m163.83,539.63c-.5-.08-2.56.08-4.21,1.4-1.65,1.32-3.39,3.06-3.39,3.06,0,0,6.11-2.08,7.93-2.24s8.26-.17,8.83,0-.58-1.93-3.55-2.24-5.61.02-5.61.02Z"/><path class="cls-62" d="m164.61,544.08c-1.84.3-7.56-.27-7.56-.27l-.82.27s3.8,3.22,8.83,3.06,7.93-5.29,7.93-5.29l-1.41-.1s-4.47,1.92-6.97,2.33Z"/><path class="cls-24" d="m170.95,519.64s.29,2.62,1.44,3.03c0,0,2.72.1,3.22-.31s.31-2.46-.35-3.37c0,0-2.54-.55-4.31.65Z"/><path class="cls-24" d="m154.14,522.37s.66,2.81.17,3.22c0,0-1.2.25-3.34.25,0,0-1.98-1.57-.9-3.47,0,0,2.76-1.07,4.08,0Z"/><path class="cls-37" d="m100.73,610.66l-9.99-6.21,17.3-22.5h4.5s5.39-2.35,10.13,0,6.72,5.76,6.72,5.76l-11.26,23.27-15.13-6.19-2.25,5.87Z"/><polygon class="cls-39" points="102.99 604.79 112.53 581.95 108.04 581.95 90.74 604.44 100.73 610.66 102.99 604.79"/><path class="cls-31" d="m304.98,517.08c-.17.5-3.8,4.62-3.8,4.62l3.8-.5-3.8,5.78s-5.12,8.09-5.12,9.91c0,0,9.08-11.82,10.24-12.02s0,4.42,0,4.42l2.31-2.31-1.49,8.09,2.64-3.47-3.3,9.08s-.66,4.46-3.55,6.28-5.64,1.82-4.84,1.32,3.77-6.61,3.77-6.61l-4.79,6.89,1.02-6.56-4.98,5.78v-6.94l-3.63,6.61-1.82,3.96-1.82-3.3s-.5,8.92.83,12.88,8.48,13.71,11.42,15.52l1.13,1.16-2.31-12.22s.99.83,3.63,1.16,6.61-2.48,6.61-2.48c0,0,.5-7.76,1.32-9.91s2.31-15.36,1.98-14.04c-.33,1.32-4.79,8.59-4.79,8.59l1.82-7.1,3.96-10.24,6.11,3.96-4.62-8.42,6.77,4.62s-9.08-9.25-9.25-10.24,7.6,1.16,7.6,1.16c0,0-3.63,0-3.3-4.13.33-4.13,2.15.17,3.63.66s2.15,0,1.98-1.32c-.17-1.32,3.14-.17,3.14-.17l5.45,2.31,1.82-1.82s4.13,2.97,3.96,2.48-2.81-5.12-2.81-5.12l4.79-1.82s-5.78-3.3-8.42-2.81-7.27,1.16-7.27,1.16l-3.3-3.3s-1.98,3.14-3.14,3.63-6.11-2.15-8.26-.66c-2.15,1.49-1.98,1.49,1.32,1.32s6.77-.33,4.79.5-7.43,3.63-7.43,3.63Z"/><path class="cls-31" d="m311.98,557.92v-6.77s2.31,5.28,3.3,3.39,1.49-5.7,1.49-5.7l2.48-.99h.99l6.11,6.77s4.46,7.76,3.14,7.93c-.29.04-3.88,3.1-6.19,1.49s-3.58-8.03-5.01-7.32c-.82.4.09,4.42,3.58,8.54,1.04,1.23-5.94,2.94-6.91,1.42-2.31-3.63-2.97-8.75-2.97-8.75Z"/><path class="cls-31" d="m152.42,507.38v11.19h-1.98s-.99,2.81-1.82,2.64-1.82-1.98-2.81,0-2.81,2.64-2.81,2.64c0,0,0,9.17,3.71,21.17.08.26.16.52.25.79,3.96,12.39-.08-.26-.08-.26,0,0-7.35,8.69-10.32,7.2-2.97-1.49-6.77,4.46-6.44-5.94s1.32-9.99,3.14-16.56c1.82-6.56,1.49-9.37,2.31-13.83.83-4.46,1.49-7.76,1.49-7.76,0,0,.5,8.92.83,9.41s3.38-1.49,3.38-1.49c0,0-.59-2.3,0-9.74.59-7.44,5.87-16.19,5.87-16.19,0,0-4.79,11.56-4.79,14.86s.17,12.88.99,12.88,6.77-8.3,6.77-8.3c0,0-1.16-10.85,2.31-15.31v12.59Z"/><path class="cls-31" d="m165.14,502.8s1.82,9.49,4.95,11.14,13.71,2.97,13.71,2.97l-9.33-8.92-9.33-5.2Z"/><path class="cls-31" d="m188.26,493.96c.66.17,11.89,24.61,11.89,24.61,0,0,2.97,9.91,1.49,12.88-1.49,2.97-6.28-.33-7.93-2.48-1.65-2.15-4.95-3.45-4.62-2.55s1.49,9.82.66,14.6-3.63,8.92-3.47,10.57c.17,1.65,2.64,6.11,2.64,6.11l8.42-3.14-3.18-8.09,7.89-3.21s-6.86,2.88-3.88-1.75c2.97-4.62,4.79-5.45,4.79-5.45,0,0,2.48-8.09-.99-16.51-3.47-8.42-13.71-25.6-13.71-25.6Z"/><path class="cls-31" d="m159.69,483.82c-.66.41-5.78,4.7-5.61,5.69s2.81-3.26,3.63-3.12,1.15,4.11-.83,5.43-2.81,3.47-2.81,3.47l4.13-2.6,1.49-8.87Z"/><path class="cls-30" d="m156.23,525.22c.23-.09.43-.28.45-.53.02-.24-.1-.46-.24-.66-.28-.39-.67-.72-1.06-1-.8-.55-1.76-.88-2.72-.98-.96-.11-1.98,0-2.76.6-.81.56-1.56,1.22-2.25,1.94.61-.79,1.31-1.52,2.12-2.12.8-.67,1.92-.81,2.92-.7,1.01.13,2,.47,2.82,1.08.4.32.77.66,1.05,1.1.13.22.23.48.19.74-.04.27-.28.45-.51.52Z"/><path class="cls-30" d="m170.35,522.62c-.26-.08-.54-.1-.81-.12l-.41-.02c-.13-.03-.3.03-.42-.18.16-.6.43-1.05.75-1.52.65-.92,1.68-1.54,2.77-1.83,1.1-.23,2.24-.24,3.33,0,1.08.24,2.16.81,2.73,1.77-.66-.9-1.73-1.36-2.77-1.56-1.06-.2-2.17-.18-3.22.06-1.04.25-2,.83-2.66,1.69-.33.4-.62.93-.79,1.36,0,.04.18.09.3.11l.41.06c.27.04.55.08.81.18Z"/><path class="cls-7" d="m171.59,637.59s5.2.89,5.2,4.25c0,1.57.33,4.87-6.49,4.43s-21.36-6.17-21.36-6.17l-16.51-5.94s-14.97-.53-17.39,1.17-11.45,12.27-13.87,15.79-4.18,6.39-5.06,9.69,3.3,9.25,1.1,13.65-2.67,11.23-1.22,16.51,9.15,12.33,9.15,12.33c0,0-3.08,1.87,2.42,9.74,5.5,7.87,19.6,16.02,19.6,16.02l67.6,10.13,14.97-5.06v-6.17s-2.42-4.19-1.32-10.02c1.1-5.83-.44-13.76-3.08-19.26-2.64-5.5-5.94-8.37-4.84-15.41,1.1-7.05,1.76-11.9.88-15.09s-2.86-12.22-2.86-12.22c0,0-4.84-7.93-8.59-11.89s-17.64-9.12-18.3-6.48Z"/><path class="cls-51" d="m183.65,670.66s-1.49-6.5,2.64-9.85c4.13-3.36,7.53-11.28,7.53-11.28l-3.9-5.28,6.77,3.47-1.32,9.74-5.33,15.52s3.22,10.73,3.78,15.52c.56,4.79,1.06,14.53,1.39,20.15s-2.78,13.54-1.39,18c1.39,4.46,1.88,11.23,1.06,14.53s-6.77,16.02-6.61,23.12c.17,7.1,1.32,15.36.17,17.83-1.16,2.48-2.31,5.45-2.31,5.45,0,0-.17,13.05,1.32,18.99s0,18.8,0,18.8l-4.06,19.34-5.85,19.65h-37.65l-43.1-1.98,2.64-40.62s2.64-1.49,3.14-7.27.17-11.06-1.32-19.82c-1.49-8.75-2.81-13.71-1.65-19.49,1.16-5.78,1.32-8.26,1.32-13.21s-1.49-26.42.66-32.7,5.12-16.63,6.11-16.24,4.29,4.52,4.29,4.52c0,0,16.18-13.54,19.65-21.3,3.47-7.76,3.14-10.24,4.29-13.87,1.16-3.63,1.65-2.48,1.32-9.74s-2.15-12.55-2.31-18.83,16.02,6.99,16.02,6.99l1.98,9.85s25.76-2.48,30.72,0Z"/><path class="cls-48" d="m103.28,604.11s-8.26,18.5-4.29,23.78c3.96,5.28,16.18,8.26,16.18,8.26,0,0,5.61-3.63,12.22,0,0,0,1.65,21.14,1.98,23.12s3.3,5.61,6.61,7.27,11.23-1.65,11.23-1.65c0,0,0,9.25,3.3,9.25s2.97-7.93,2.97-7.93c0,0,.99,3.96,2.64,3.96s1.98-11.23,1.98-11.23c0,0,1.65,6.28,1.65-.33s-1.32-7.27-3.96-12.88c-2.64-5.61-11.89-17.5-11.89-17.5,0,0-6.28-7.27-8.26-8.26-1.98-.99-14.2-6.94-14.2-6.94,0,0-15.52-9.91-18.17-8.92Z"/><path class="cls-5" d="m160.12,758.35c-1.16-.83-15.36-11.56-18.33-15.03-2.97-3.47-15.36-18.5-15.52-19.16s4.46-14.37,6.44-18,9.57-17.5,10.48-18,16.93,1.32,16.93,1.32c0,0,6.77,6.28,7.27,5.61s2.64-3.96,3.63-4.13,14.7,1.14,15.19.98,4.46,33.86,4.46,33.86c0,0-4.95,8.42-7.6,11.72-2.64,3.3-4.13,6.28-8.42,10.57s-14.53,10.24-14.53,10.24Z"/><path class="cls-5" d="m133.86,744.15c-.66.17-10.9,9.08-13.54,7.76s-5.94-4.66-6.61-3.81-1.49,5.47-3.63,7.28c-2.15,1.82-7.27,4.62-7.27,4.62,0,0,3.3,10.07,4.46,9.41s28.9-11.56,30.55-14.37c1.65-2.81-3.96-10.9-3.96-10.9Z"/><path class="cls-5" d="m182.58,743.32c-1.28,2.49-1.65,8.59-1.65,8.59l6.61,6.44,3.14-10.57s-.33-4.62-.99-4.46-.33,4.13-2.48,2.64c-2.15-1.49-3.57-4.71-4.62-2.64Z"/><path class="cls-5" d="m120.31,764.13s-1.77,14.67,0,19.13c1.77,4.46,8.64,20.25,12.32,23.6s13.42,7.81,14.38,8.29,0,4.3,0,4.3c0,0-9.43-2.07-14.7-7.49s-11.66-13.23-13.58-19.29-3.2-9.41-3.2-13.71v-12.91l4.78-1.91Z"/><path class="cls-5" d="m154.18,815.11l-1.3,4.34s9.38,0,14.01-1.32,11.89-7.27,14.04-10.07c2.15-2.81,3.63-5.94,3.8-6.77s.5-11.23,0-9.5-2.64,13.29-6.77,15.61c-4.13,2.31-8.42,7.27-12.39,7.43s-11.38.29-11.38.29Z"/><path class="cls-5" d="m151.03,827.54l2.15-9.41s1.82-7.05,3.14-12.61,3.63-12.22,3.96-15.25c.33-3.03-.33-6.66.83-13.43,1.16-6.77,2.64-12.88.83-15.69s-2.97-3.6-5.61-4.36-4.79,1.55-3.8,6.34,3.3,5.45,3.14,13.38c-.17,7.93,1.32,9.41-.5,19.82-1.82,10.4-2.48,15.52-4.13,17.17-1.65,1.65-2.64.5-3.3,4.29-.66,3.8-2.15,10.9-2.15,10.9l1.82,4.13,3.63-5.28Z"/><path class="cls-36" d="m152.08,643.19c-3.74-.11-10.02-6.28-9.14-9.58s.33-4.62,2.64-3.96,4.95,1.43,6.5,1.21,1.87-.11,3.85.22,1.98.22,3.52.99,8.26.33,9.58,2.97c1.32,2.64,4.73,5.72-3.19,8.15s-13.76,0-13.76,0Z"/><path class="cls-35" d="m128.83,661.25s2.31,15.85,9.25,19.82c0,0,8.92-11.23,10.57-13.54,1.65-2.31,13.54-5.35,14.53-9.12s3.96-11.36,3.96-11.36c0,0,4.95-3.3,2.97-6.28s-.33-3.96-2.64-4.62-4.95,1.98-4.95,1.98l-6.94,4.95s4.29-3.85,2.31-7.04c-1.98-3.2-8.19,3.41-8.19,3.41l-2.05.66s1.65-1.32.33-1.98-7.93,4.62-9.25,7.6-2.31,6.94-3.63,8.59c-1.32,1.65-6.28,6.94-6.28,6.94Z"/><path class="cls-74" d="m130.59,659.6s-2.19,2.09-.86,6.05,8.22,15.22,8.22,15.22l6.35-7.68s3.47,12.17.49,14.48-4.83,1.32-7.29,2.64c-2.46,1.32-3.12.48-3.45,1.64s-1.49,5.62-3.8,4.8-2.04-1.12-4.9.1-7.65,8.32-15.41,6.01-11.06-8.26-12.22-13.38c-1.16-5.12.33-14.53,3.14-17.17,2.81-2.64,11.39-8.26,15.03-8.26s12.06-6.11,14.7-4.46Z"/><path class="cls-42" d="m166.57,546.97l1.98,3.3s4.79-4.13,8.09,2.64c3.3,6.77,6.28,13.87,6.44,16.35.17,2.48,1.49,10.57,3.47,14.53s3.96,7.93,3.96,7.93c0,0-1.16-5.79,0-10.91,1.16-5.12,3.8-9.25,1.82-19.16-1.98-9.91-6.44-18.64-13.54-18.4s-8.26,1.72-8.26,1.72c0,0,5.12-5.45,4.79-8.59-.33-3.14-3.96.66-4.46,2.15s.33-2.64-3.63-4.79c-3.96-2.15-12.55-.33-14.86,3.63,0,0,10.9-7.6,15.03-1.49s-.83,11.06-.83,11.06Z"/><path class="cls-50" d="m127.5,569.83l7.03-9.15s-1.49-7.1,2.97-9.58c4.46-2.48,7.43-5.28,10.9-3.14,3.47,2.15,7.76,4.62,13.71,6.94,5.94,2.31,13.57,2.97,18.26,6.19,4.69,3.22,6.34,5.54,7.66,10.49s-4.13,13.21-4.13,13.21l-32.53-5.45-23.87-9.51Z"/><path class="cls-54" d="m153.52,581.65s3.63,4.13.83,7.6-7.76,4.95-8.26,4.95,2.15,0,2.97,0,3.8-.62,4.79-1.96,3.8-5.31,3.8-6.13v-2.64s2.48,1.82,1.82,4.46c-.66,2.64-1.32,5.94-2.81,6.28s-3.86,1.16-3.86,1.16c0,0,1.38.83,4.02.83s9.58.17,10.07-8.09c0,0,.17-2.48.99-2.31s1.82,2.15.99,5.28-1.98,5.45-3.8,5.94c0,0-2.31,1.82,2.64,0,4.95-1.82,5.28-2.31,5.94-3.8.66-1.49,1.32-4.62,1.32-4.62,0,0,.66,5.94,0,7.76s.66,2.77,1.49,1.47,2.64-6.5,2.64-7.78,2.31,2.21,2.31,2.21c0,0,.83,5.44.66,6.18s2.64-.91,3.3-3.23c.66-2.31,0-7.6,0-7.6,0,0,.92,12.72.29,13.87-.62,1.16-2.61,14.86-2.61,14.86,0,0,5.45,3.3,4.79,7.1-.66,3.8-5.78,8.75-6.61,8.92s5.56-1.16,6.66-3.47,2.75-6.44,1.6-8.26c-1.16-1.82-3.63-7.93-3.63-7.93l1.82-7.6,4.46,9.08-1.16,8.92s5.81-7.76,4.06-9.74-5.71-10.57-5.71-10.57l6.04,1.65s3.23,2.81,0,12.39c-3.23,9.58-.33,1.16-.33,1.16,0,0,3.86-6.26,3.2-10.97-.66-4.71-5.94-10.49-5.94-10.49,0,0-2.15-9.74-1.65-12.72s-6.77-9.91-8.75-11.39-3.12-2.15-9.74-6.44-8.43-6.11-9.09-7.6c-.66-1.49.5-5.94.5-5.94l-1.82-1.32s-4.95,1.82-8.59,4.62-7.16,13.21-7.16,13.21l4.02,7.27-9.58-10.9-12.06,2.45-5.28,11.91s0,11.56-1.32,16.18c-1.32,4.62-5.12,10.24-5.12,10.24,0,0-5.94,5.45-4.29,7.76,1.65,2.31,5.12,4.79,4.95,4.29s-.17-6.77-.17-6.77l4.95-7.43,3.3,4.47s-4.13,12.37-6.11,12.7-3.14,1.49-3.14,1.49c0,0,6.22,3.14,8.31-2.15s5.39-12.04,5.39-12.04l4.46-3.98s4.46-4.13,6.44-9.08c1.98-4.95,1.98-6.44,1.98-6.44,0,0,1.82-3.63,4.79-5.12,2.97-1.49,5.94-2.15,5.94-2.15Z"/><path class="cls-74" d="m160.41,550.52s3.72,2.81,3.95,2.6,3.06.45,3.74-.87,1.98-1.68.66-2.75-3.39-3.3-3.39-3.3c0,0-5.73,2.14-4.96,4.32Z"/><path class="cls-14" d="m149.79,601.82s-.66,3.63,2.56,3.8,2.81-3.72,2.81-3.8-2.15-1.24-5.37,0Z"/><path class="cls-14" d="m172.96,604.11s.58,3.14,3.47,2.64,2.23-3.88,2.23-3.88c0,0-2.64-1.16-5.7,1.24Z"/><path class="cls-31" d="m157.99,604.44c-.62-.85-1.38-1.57-2.25-2.09-.88-.52-1.88-.76-2.88-.73-1.02.02-2.03.24-3.02.5-.99.26-1.98.6-2.92,1.01l.07-.39c.64.63,1.34,1.25,2.1,1.76.76.52,1.56.98,2.47,1.21-.93-.1-1.82-.48-2.64-.95-.81-.49-1.57-1.03-2.27-1.69-.1-.09-.1-.24-.01-.34.02-.02.05-.04.08-.06,1.93-.88,3.98-1.55,6.14-1.57,1.09-.03,2.19.34,3.07.95.89.6,1.58,1.46,2.07,2.38Z"/><path class="cls-31" d="m178.74,606.59c.6-.25,1.17-.56,1.69-.95.52-.37,1.01-.81,1.4-1.28l.09.34c-.23-.12-.25-.17-.38-.25l-.32-.21c-.21-.14-.42-.28-.64-.4-.44-.25-.9-.46-1.37-.61-.95-.29-1.96-.42-2.94-.24-.98.18-1.95.53-2.83,1.03-.43.26-.84.57-1.2.92-.18.18-.34.38-.47.59-.11.2-.24.5-.01.68-.26-.14-.2-.51-.1-.73.1-.25.25-.48.41-.69.33-.43.74-.77,1.17-1.08.88-.61,1.87-1.03,2.93-1.24,1.06-.23,2.19-.12,3.2.24.51.18.99.42,1.45.69.23.13.45.28.67.44l.31.24c.08.07.25.2.24.21l.09.34c-.48.49-1,.89-1.58,1.23-.58.33-1.19.59-1.83.73Z"/><path class="cls-34" d="m164.45,605.52c-2.34,2.06-3.47,4.21-3.55,5.53s.08,2.06-.41,2.23-2.48,2.39-1.49,2.89,2.48-.74,3.55,0,1.32,1.24,2.72.91,1.82-1.07,2.81-.91,3.3,1.4,2.89,0-1.49-.66-1.9-2.81c-.41-2.15-.66-2.81-1.4-5.78-.74-2.97-2.08-3.07-3.22-2.06Z"/><path class="cls-34" d="m180.32,611.06c-2.75.45-4.54.65-6.69-.67-2.15-1.32-5.78-1.64-3.22,1.2,2.56,2.84,4.13,7.96,4.13,7.96,0,0,3.06,2.89,4.87.74s6.36-10.13.91-9.24Z"/><path class="cls-34" d="m149.11,609.41c-3.32-1.86-4.54-4.8-5.94-5.46s-4.95-.08-5.28,3.22-.25,9.08,4.21,11.56c4.46,2.48,3.63,5.12,7.51,2.72,3.88-2.39,7.02-6.9,6.77-8.4-.25-1.51-6.67-3.3-7.27-3.64Z"/></g></g></g></svg>