<?xml version="1.0" encoding="UTF-8"?><svg xmlns="http://www.w3.org/2000/svg" xmlns:xlink="http://www.w3.org/1999/xlink" viewBox="0 0 595.28 841.89"><defs><style>.cls-1{clip-path:url(#clippath);}.cls-2{fill:none;}.cls-2,.cls-3,.cls-4,.cls-5,.cls-6,.cls-7,.cls-8,.cls-9,.cls-10,.cls-11,.cls-12,.cls-13,.cls-14,.cls-15,.cls-16,.cls-17,.cls-18,.cls-19,.cls-20,.cls-21,.cls-22,.cls-23,.cls-24,.cls-25,.cls-26,.cls-27,.cls-28,.cls-29,.cls-30,.cls-31,.cls-32,.cls-33{stroke-width:0px;}.cls-34{isolation:isolate;}.cls-3{fill:#454547;mix-blend-mode:multiply;opacity:.77;}.cls-4{fill:#77a545;}.cls-5{fill:#733a00;}.cls-6{fill:#954f05;}.cls-7{fill:#a45e53;}.cls-8{fill:#2f332f;}.cls-9{fill:#1b3660;}.cls-10{fill:#1b221d;}.cls-11{fill:#112b51;}.cls-12{fill:#c5a575;}.cls-13{fill:#c3aa8f;}.cls-14{fill:#d1d2d4;}.cls-15{fill:#e0dcea;}.cls-16{fill:#d7a89a;}.cls-17{fill:#e1d5cf;}.cls-18{fill:#d5d7d8;}.cls-19{fill:#dcbf9f;}.cls-20{fill:#d52b2f;}.cls-21{fill:#d9d7e6;}.cls-22{fill:#be6d61;}.cls-23{fill:#af9469;}.cls-24{fill:#a58c63;}.cls-25{fill:#ad6458;}.cls-26{fill:#aa6256;}.cls-27{fill:#ba6414;}.cls-28{fill:#c2b5cb;}.cls-29{fill:#8f4b02;}.cls-30{fill:#9a584e;}.cls-31{fill:#874600;}.cls-32{fill:#fff;}.cls-33{fill:#e6e3f1;}</style><clipPath id="clippath"><rect class="cls-2" x="-12.01" y="303.67" width="622.64" height="555.3"/></clipPath></defs><g class="cls-34"><g id="Layer_1"><g class="cls-1"><path class="cls-4" d="m-34.78,447.06c6.27.92,102.01.1,256.31,0s242.28,1.85,242.28,1.85c0,0,135.17-6.87,138.99-1.85,3.83,5.02,17.85,408.47,12.75,410.86-5.1,2.39-623.54,0-623.54,0l-26.79-410.86Z"/><path class="cls-3" d="m290.93,777.22c-3.3-.37-64.07,34.97-64.07,34.97l4.62,7.64s62.09-22.75,64.73-21.31,13.21,21.31,13.21,21.31l61.43-23.83s32.37-5.21,36.33-18.79c3.96-13.58,11.23-22.17,11.23-22.17l-22.46-10.94s-1.98-17.8-9.91-14.99-52.84,0-52.84,0l-25.76-1.91,1.32,42.37-17.83,7.64Z"/><path class="cls-3" d="m347.74,715.21c2.64-1.78,23.78-2.44,34.35-7.72s11.89-28.4,15.85-28.4,29.72-3.3,29.72-3.3c0,0,29.06-11.01,31.71-3.52,2.64,7.49,6.61,16.85,6.61,16.85l-9.91,11.91s-31.05,27.61-37.65,30.91c-6.61,3.3-35.01,16.51-37.65,16.51s-38.31-9.32-38.31-9.32l5.28-23.91Z"/><path class="cls-23" d="m213.59,789.84l-2.64,28.21s-.22,4.59,6.17,6.13,12.77,2.42,14.97-1.32,1.54-7.71,1.54-7.71c0,0,3.3.22,5.06-4.84s1.76-5.72,0-7.27-3.3-2.64-2.86-4.18,1.1-7.71,1.1-7.71l-23.34-1.32Z"/><path class="cls-23" d="m279.65,798.42c.22.66,0,12.55,0,18.5s-1.1,11.23,1.98,13.21,13.87,5.28,17.39,1.76,10.13-8.59,10.13-8.59c0,0,5.5-5.94,5.94-8.37s0-10.35,0-10.35l-7.93-7.27h-5.94l-21.58,1.1Z"/><path class="cls-24" d="m302.72,798.48l-1.32,10.73s-3.8,1.82-1.65,2.64,1.98-.17,5.12,0,4.46.33,4.46.33l5.96-1.1s1.14-8.31-2.66-11.12-9.25-3.96-9.25-3.96l-.66,2.48Z"/><path class="cls-24" d="m236.17,793.69s-3.47,6.44-3.8,10.07,0,9.82,0,12.06-1.45,5.03-.15,3.63-2.36-3.63,1.7-5.28,6.37-2.31,5.88-5.61-1.98-7.1-1.98-7.1l-1.65-7.76Z"/><path class="cls-26" d="m348.87,495.89l-2.64-15.19,3.74-14.31s-4.62-2.64-5.5-7.27-1.98-10.57-1.76-12.77.88-7.49,1.1-8.15,1.73-1.32,2.52-2.2,17.08-3.52,20.38-3.08,13.21,2.42,13.21,2.42l1.31,9.17s-3.07,7.35-4.17,7.57-.66,7.71-.66,8.37-3.08,15.85-3.08,15.85l-15.41,22.9-9.03-3.3Z"/><path class="cls-22" d="m350.49,447.19c-.39.18-.59.7-.53,1.2s-.13,1.49.26,1.61.77.58,1.51.58.69-.25,1.03-.6.57-1.09.57-1.09c0,0-.93-2.6-2.83-1.69Z"/><path class="cls-7" d="m343.5,439.9l-.69,5.4s7.44-.61,7.86-.35c0,0,1.35-2.88,2.65-3.1s3.06,2.42,3.06,2.42c0,0,6.28,1.8,9.19,1.04s5.5-2.08,6.22-2.36.39-5.17.39-5.17c0,0-20.25-2.17-28.68,2.13Z"/><path class="cls-18" d="m371.47,437.65l-.22,5.78s-.22,2.37.88,2.64,2.04-1.65,2.37-2.15,1.43-1.68,1.87-2.05,1.82-1.03,2.42-.81.77-.06.77-.06l-1.82-2.7-6.28-.66Z"/><path class="cls-25" d="m349.52,466.03s2.16.71,4.93.53,4.58-1.62,5.53-2.16,9.83-5,10.82-5.82,3.72-2.97,3.67-5.99c0,0,2.06-.13,2.58-.52,0,0-.77.28-.75,5.06l-4.31,12.26s-3.67,4.62-8.34,4.21-14.13.25-14.13.25l.3-4-.3-3.82Z"/><path class="cls-22" d="m358.52,462.84c-.41-.5-3.72-1.73-5.2-1.9s-3.72,0-4.38.95-.83,1.78-.83,1.78c0,0,.74,2.72,3.39,2.89s5.94,0,6.52-1.24c.58-1.24.5-2.48.5-2.48Z"/><path class="cls-22" d="m362.29,478.16c.63-.2-3.52,1.93-5.34,2.1s-3.63-.95-3.63-.95c0,0-1.24-.02-1.74,0s-2.23-.05-2.15.53,0,15.28,0,15.28c0,0,10.64-13.46,10.81-13.71s2.05-3.26,2.05-3.26Z"/><path class="cls-9" d="m398.72,554.02s5.94,7.05,6.61,17.83c.66,10.79,1.32,31.71,0,39.19-1.32,7.49-4.4,49.54-4.4,49.54l-2.2,31.27-13.21,15.63-20.04-1.32s-3.08-19.16-4.18-24.44c-1.1-5.28-1.76-8.15-1.76-8.15,0,0-1.98,14.97-3.96,19.38s-16.29,10.79-16.29,10.79l-5.72-2.64s-11.23-17.61-12.11-24.88,0-36.77,0-36.77l3.74-37.12,2.2-32.68s3.52-7.27,9.69-7.71,26.5.88,26.5.88l35.15-8.81Z"/><path class="cls-11" d="m348.96,672.26c-5.28.22-19.49-8.7-18.83-5.06s7.88,10.9-.02,11.56-3.94,4.62-3.94,4.62l10.9,14.53,15.52-4.62,5.28-12.55s2.31,24.08,9.58,25.75,24.77-15.18,24.77-15.18c0,0-13.87-8.7-10.9-19.05s5.61-14.31,4.29-16.62-3.3-17.5-6.28-2.64c-2.97,14.86,2.64,14.86-2.97,14.86s-14.53-6.28-14.53-6.28c0,0-21.53-3.5-1.65-7.6,19.88-4.09,32.04-8.92,32.04-8.92,0,0,16.84.13,5.94-6.21-10.9-6.34-14.86-13.69-14.86-13.69,0,0-3.3-9.44-12.88-8.31-9.58,1.13-7.27-1.18-10.57,3.77s-11.89,4.54-11.89,4.54c0,0-2.97-4.49,1.98-8.31s8.59-6.8,4.62-10.1c-3.96-3.3-20.48-1.98-14.2,0s10.57-.66,5.94,6.28,1.65,8.59-11.56,8.59-26.09-8.1-15.52,3.55,17.17,17.59,19.16,19.57,9.25,17.83,9.25,17.83l1.32,9.69Z"/><path class="cls-31" d="m365.2,714.42c0,1.49-1.63,12.72-1.63,12.72v7.27l-5.8,8.92s-.29,6.61,5.8,8.26c6.09,1.65,18.31-8.59,18.81-10.24s3.3-8.92,3.3-8.92v-20.81l-15.39-5.13h-5.75l.66,7.94Z"/><path class="cls-31" d="m354.13,703.19c-.33,2.64-1.65,8.75-1.16,10.24.5,1.49.55.33.52,3.63s-.91,2.31-.63,3.96,1.6,3.96.61,5.28-1.32,2.81-1.32,2.81c0,0-.33,5.94-1.98,7.93s-2.48,4.79-13.54,6.44-18.33-.17-16.84-3.3,4.62-7.43,6.44-9.74,3.14-6.44,3.47-8.75,5.78-5.94,4.29-6.77-6.11-2.64-4.46-4.46,2.97-4.95,2.97-4.95c0,0-1.32-4.13-.83-4.46s22.46,2.15,22.46,2.15Z"/><path class="cls-33" d="m349.68,494.13s-1.14-16.73,1.01-23.5c0,0,.24-3.42-.72-4.24-.53-.45-2.08-1.58-2.08-1.58l-8.29,7.03-1.82,2.15s-1.98.99-3.63,2.97-4.95,6.11-5.61,8.92-2.48,8.92-3.63,13.05-2.81,9.91-2.81,9.91v51.03s26.92,10.57,45.74,9.08c18.83-1.49,25.27-5.61,27.08-7.93s4.79-6.72,5.28-6.99,0-4.9,0-4.9l11.56-59.28s-5.61-6.61-8.42-10.07-10.24-8.42-12.39-9.58c-2.15-1.16-10.73-4.62-10.73-4.62l-3.92-8.42s-3.18,7.27-5.16,9.74c-1.98,2.48-5.12,7.43-6.28,8.26s-3.14,3.3-4.62,6.28l-10.57,12.72Z"/><path class="cls-15" d="m349.7,495.45s-5.04-7.87-5.81-9.85-1.54-3.69-1.54-3.69v-2.59s-2.2-1.76-2.37-2.31.66-2.7,1.1-2.92-2.99,1.65-3.32.88.94-2.57,2.26-2.57,3.51,1.77,4.72,2.82,4.75,3.89,4.75,3.89l.21,16.34Z"/><path class="cls-30" d="m351.58,442.11s-.57.99-1.04,2.19c-.22.57-.42,1.19-.53,1.77-.33,1.82-.83,2.39-.58,3.14s1.65,1.73,1.65,1.73h2.23s-.66-.74,0-.91,2.31.08,2.31.08l1.16-.25s1.4-.5.99-1.32-.25-1.16-1.07-1.49-.5-.08-.5-.08c0,0,.33.17.5.83s-.33,1.07-.33,1.07c0,0-1.16-.41-1.98-.17s-1.65.74-1.73.99.61.33-.74.58-1.49-.26-1.9-1.4,1.57-6.77,1.57-6.77Z"/><path class="cls-30" d="m375.93,445.03s1.16-2.72,2.39-2.39,2.48,1.07,1.9,2.39-1.34,1.32-2.07,2.02-1.06,2.19-1.72,2.68-1.9,1.9-1.65.74.66-1.57.99-2.31-.08-1.4-.08-1.4l.25-1.74Z"/><path class="cls-30" d="m348.85,457.14s3.81.17,4.75,0,4.99-.99,4.99-.99c0,0-2.14-1.16-4.99-.91s-4.83,1.32-4.75,1.9Z"/><path class="cls-30" d="m358.59,441.29s2.31-.74,3.22-.58,2.89,1.38,2.89,1.38c0,0-1.65.11-3.06.03s-3.06-.83-3.06-.83Z"/><path class="cls-30" d="m350.09,441.41s-1.49-.78-2.31,0-1.98,1.44-1.4,1.11,2.99.09,2.99.09l.73-1.2Z"/><path class="cls-18" d="m352.24,450.95s-1.65-.58-2.48.41-2.48,2.39-2.64,2.64-2.56,2.71-1.24,3.21,1.65.13,3.8-1,5.91-1.44,7.83-.5,2.41,1.42,3.65,1.51,3.88.46,3.06-1c-.83-1.46-1.32-2.46-2.97-3.45s-5.2-2.31-9-1.82Z"/><path class="cls-27" d="m379.02,449.21s14.34,2.15,15.49-1.73c1.16-3.88-2.15-8.34-7.76-9.17s-20.72-1.07-20.72-1.07c0,0-11.31,1.16-14.94,1.32s-13.79.41-13.79.41l-5.61.5,11.34,4.05.48-3.63s9.4-.34,14.93-1,14.76-1.25,17.56-.25c1.56.56,2.65,1.24,2.65,1.24l.75,1.53s2.39,1.69.76,5.12c-1.01,2.11-1.13,2.68-1.13,2.68Z"/><path class="cls-19" d="m343.5,429.48s-1.5,3.39-4.23,4.54-5.94,3.47-9.91,4.29-5.2.66-4.87,1.16-1.07,1.85,1.73,1.21,10.8-1.48,18.58-1.38,11.84-1.16,14.42-1.4,13.31-.34,14.8-.09,6.76-.04,6.76-.04c0,0-1.89-5.74-2.06-6.81s-2.43-7.35-2.74-8.17-1.28-4.71-2.81-5.7c-1.54-.99-3.11-1.98-7.15-2.31s-8.83-1.24-11.64-.83-3.8.99-4.79,3.39-3.42,7.76-3.42,7.76l-2.67,4.38Z"/><path class="cls-26" d="m343.39,540.37s6.83,5.72,10.79,5.94,16.51-3.96,18.94-5.94c2.42-1.98,9.69-7.05,9.69-7.05l6.83-1.54,12.33,14.54s-13.21,5.28-17.61,6.38c-4.4,1.1-13.65,1.54-17.83,2.2s-15.85,1.76-15.85,1.76l-3.52-2.42-3.74-13.87Z"/><path class="cls-21" d="m382.7,531.78s10.07,6.44,12.55,8.75c2.48,2.31,4.95,8.59,4.95,8.59,0,0,4-2.15,5.88-2.15s3.7-.5,3.7-.5l1.98-4.62s1.98-14.04,3.3-18.99,1.49-10.4,1.49-14.04-4.79-14.7-4.79-16.84-6.94-7.43-9.74-7.6-5.94-1.65-7.27,0-8.09,9.58-9.74,12.55c-1.65,2.97-2.48,4.79-2.31,7.27.17,2.48,1.11,4.62-.02,7.27s-2.29,13.38.02,20.31Z"/><polygon class="cls-5" points="-9.81 503.22 611.37 550.18 611.37 529.81 -9.81 482.85 -9.81 503.22"/><polygon class="cls-5" points="-6.39 562.06 614.79 612.71 614.79 592.34 -6.39 541.7 -6.39 562.06"/><polygon class="cls-5" points="-6.39 616.54 614.79 670.73 614.79 649.15 -6.39 596.18 -6.39 616.54"/><polygon class="cls-5" points="-6.39 665.22 614.79 733.16 614.79 711.59 -6.39 644.85 -6.39 665.22"/><polygon class="cls-5" points="-6.39 715.23 614.79 783.17 614.79 761.59 -6.39 694.86 -6.39 715.23"/><rect class="cls-5" x="462.88" y="506.91" width="22.02" height="324.11"/><rect class="cls-5" x="137.01" y="480.32" width="22.02" height="324.11"/><polygon class="cls-6" points="-16.4 506.51 604.78 553.47 604.78 533.1 -16.4 486.15 -16.4 506.51"/><polygon class="cls-6" points="-12.98 565.36 608.21 616 608.21 595.63 -12.98 544.99 -12.98 565.36"/><polygon class="cls-6" points="-12.98 619.84 608.21 674.02 608.21 652.44 -12.98 599.47 -12.98 619.84"/><polygon class="cls-6" points="-12.98 668.51 608.21 736.46 608.21 714.88 -12.98 648.15 -12.98 668.51"/><polygon class="cls-6" points="-12.98 718.52 608.21 786.46 608.21 764.89 -12.98 698.15 -12.98 718.52"/><rect class="cls-6" x="456.29" y="510.2" width="22.02" height="324.11"/><rect class="cls-6" x="130.42" y="483.61" width="22.02" height="324.11"/><path class="cls-30" d="m343.17,430.11s1.29-1.38,5.82-1.1,14.41,1.1,18.89,2.75c4.47,1.65,12.59,4.62,12.59,4.62,0,0,.01-1.91-.11-2.57s-1.07-2.11-1.07-2.11c0,0-7.65-4.73-18.65-6.22s-15.18-1.05-15.89,0-1.88,3.63-1.59,4.62Z"/><path class="cls-13" d="m369.15,417.18c-.6.56-1.32,3.3-.77,4.79.55,1.49.22.28,1.71,0s4.46,2.2,5.17,3.91c.72,1.71-1.21-5.61-2.37-6.94-1.16-1.32-2.86-2.59-3.74-1.76Z"/><path class="cls-28" d="m344.93,503.74s4.13-7.43,6.28-9.5,2.23-3.39,3.96-4.13,4.21-2.81,4.95-3.39,1.32-2.48,1.24-4.05c-.08-1.57-.08-3.8.99-4.95,1.07-1.16,2.81-2.56,4.21-2.56s2.97,0,3.96,1.32,4.29,4.87,4.95,4.71,1.24-1.9,1.9-3.39,1.65-6.28,1.65-6.28c0,0,.08-.08-1.73-.66s-4.62-1.98-4.62-1.98l-3.87,1.18s2.97-3.95,4.13-6.02c1.16-2.06,3.09-6.09,3.26-6.91s1.93,3.74,2.26,4.49,1.82,3.55,1.9,3.88,9.11,3.7,9.11,3.95-1.34-.32-2.58.42-1.16,1.73-2.97,1.49-3.47-.99-4.05.58c-.58,1.57-1.24,6.94-1.65,8.01s.33,3.96-2.72,3.72-5.53-1.98-5.53-1.98c0,0-3.72.17-5.04,1.07s-1.57,3.39-3.06,5.2c-1.49,1.82-4.95,2.81-6.61,5.12-1.65,2.31-2.89,4.95-4.46,6.36s-5.86,4.29-5.86,4.29Z"/><path class="cls-28" d="m348.83,479.35s-4.05-4.29-5.61-4.87-3.88-1.73-3.88-1.73c0,0-1.73.25-1.16,2.48s.34,2.23-.12,1.9-1.69-1.84-1.45-2.42,2.14-2.87,3.46-3.69,7.8-6.2,7.8-6.2c0,0,1.44.64,2.27,1.79s.58,3.03.66,3.77-.88,2.92-1.38,9.47c-.12,1.59-.83-.75-1.46-1.37"/><circle class="cls-32" cx="347.19" cy="505.28" r="1.49"/><circle class="cls-32" cx="346.41" cy="514.88" r="1.49"/><path class="cls-16" d="m328.19,558.04l24.61.83s1.49,4.95,1.49,10.07.5,8.26-3.3,10.9-14.37,6.44-16.18,6.61-5.94,0-5.94,0l-1.98-16.51,1.32-11.89Z"/><path class="cls-16" d="m220.69,567.95c-1.16.17-7.93.99-9.08,0s-5.45-4.29-6.28-4.95-7.43-4.13-7.43-4.13c0,0-3.47,17.83,2.97,20.97s11.06,3.14,13.05,1.82,7.6-9.38,7.6-9.38l-.83-4.33Z"/><path class="cls-17" d="m327.72,507.51s7.1,3.63,10.73,9.08,4.95,7.93,6.28,12.55,8.42,30.88,8.42,30.88c0,0-12.72,2.64-18.99.83s-8.26-4.62-8.26-4.62l-3.8-21.73,5.61-26.99Z"/><path class="cls-17" d="m222.03,506.85s-7.6,0-13.21,15.03-15.36,32.86-15.36,32.86c0,0,1.32,1.65,2.97,3.63s3.47,9.08,11.31,9.58,15.44,1.16,15.44,1.16l2.64-26.09-3.8-36.17Z"/><path class="cls-12" d="m213.78,628.55s-1.32,29.17,1.98,36.22,4.95,13.32,5.28,18.28-3.96,11.56,0,15.52,1.65,6.25,1.65,7.91,1.67,3.65.67,4.31-3.64,2.31-2.65,3.63.66,3.3,0,4.95-4.56,4.29-2.11,5.28,1.19,2.97,0,7.93-2.84,17.17-2.18,21.14-2.17,5.94-2.9,9.91,0,11.56,0,11.56c0,0-1.24,1.32-.32,5.61s-.34,9.25-.34,9.25c0,0,7.53,4.62,12.98,5.94s13.38-1.98,13.05-3.3-1.65-5.61,1.98-8.26,3.96-7.22,3.96-7.22c0,0-.66-8.96,0-13.25s8.59-17.5,8.59-17.5c0,0,0-12.88,2.31-15.52s2.97-.89,5.28-8.37,5.71-23.66,5.71-23.66l3.86-13.21s-.33,11.56,0,16.84-.99,6.61,0,12.22,2.64,11.89,3.3,14.37-1.98,3.8,0,6.11.99,11.26,1.65,16.53,0,17.16,0,17.16c0,0-.4,8.92.29,12.22s-1.36,4.29,0,6.94,2.35,4.62,2.35,4.62c0,0-3.96,3.96,0,6.94s3.96,5.28,9.25,5.28,16.51-5.28,16.51-5.28c0,0,.66-6.61,1.65-8.59s1.65-4.95,1.65-7.93.99-4.62,1.98-8.92,1.98-19.16,1.98-19.16c0,0,1.65-7.67,1.65-10.94s.66-6.24,0-8.88,2.97-7.78,1.65-8.02-3.3-1.79-2.31-4.65,2.23.78,2.6-5.83,3.67-11.89,4.66-17.17,1.98-11.56,2.64-15.52,7.6-19.16,9.25-25.76,3.96-19.39,4.29-24.72l.33-5.33-122.2.33Z"/><path class="cls-20" d="m328.62,503.79s1.32,8.83,0,15.11-2.64,12.88-2.64,12.88c0,0,2.5,32.7,3.23,35.01s1.39,13.21,1.39,13.21c0,0,5.28,5.61,5.28,12.22s-1.98,2.72-1.32,10.11,4.29,11.03,5.28,14.66.99,8.59,0,11.23-.66,4.62-3.63,3.96-36.55,2.64-44.86,2.64-41.01,1.32-46.3,2.64-28.4,2.31-30.05,0-5.28-11.56-2.64-18.83,1.98-5.54,2.64-16.31-1.32-7.98,1.65-15.82,4.95-9.16,3.63-11.47-4.62-4.62-1.65-8.92,1.65-13.87,1.65-17.01-3.63-7.29-3.3-14.63.33-17.91,1.98-22.86,0-6.94,3.96-10.57,18.17-12.06,18.17-12.06h44.26s24.11,2.81,25.43,3.8,17.83,10.98,17.83,10.98Z"/><path class="cls-32" d="m260.35,566.12l-1.32-12.08-13.16.5-1.53-22.9,13.89-1.02.84-12.57h21.66l1.14,8.78,15.57-.84,1.29,24.49-12.86.95v13.44l-25.51,1.25Zm3.74-17.95l1.32,12.03,14.78-.73v-13.31l12.57-.93-.7-13.27-15.15.81-1.17-9.05h-11.37l-.81,12.2-13.19.96.79,11.78,12.93-.49Z"/><path class="cls-32" d="m237.12,576.38c0-3.16,2.42-5.41,5.68-5.41,1.81,0,3.32.66,4.31,1.85l-1.56,1.44c-.7-.81-1.58-1.23-2.63-1.23-1.96,0-3.35,1.38-3.35,3.35s1.39,3.35,3.35,3.35c1.05,0,1.93-.42,2.63-1.24l1.56,1.44c-.99,1.21-2.5,1.87-4.32,1.87-3.25,0-5.67-2.26-5.67-5.41Z"/><path class="cls-32" d="m253.57,573.45v2.15c-.19-.01-.34-.03-.52-.03-1.29,0-2.14.7-2.14,2.24v3.8h-2.33v-8.04h2.23v1.06c.57-.78,1.53-1.18,2.77-1.18Z"/><path class="cls-32" d="m263.12,573.57v8.04h-2.21v-.96c-.61.7-1.51,1.08-2.5,1.08-2.02,0-3.44-1.14-3.44-3.62v-4.55h2.33v4.2c0,1.35.6,1.94,1.63,1.94s1.85-.69,1.85-2.17v-3.98h2.33Z"/><path class="cls-32" d="m271.91,579.82v1.79h-7.18v-1.41l4.1-4.85h-3.99v-1.79h6.94v1.41l-4.1,4.85h4.23Z"/><path class="cls-32" d="m284.47,581.62l-2.02-2.92h-2.23v2.92h-2.42v-10.47h4.53c2.8,0,4.55,1.45,4.55,3.8,0,1.57-.79,2.72-2.15,3.3l2.35,3.36h-2.6Zm-2.27-8.49h-1.97v3.65h1.97c1.48,0,2.23-.69,2.23-1.82s-.75-1.82-2.23-1.82Z"/><path class="cls-32" d="m288.03,577.59c0-2.42,1.87-4.14,4.43-4.14s4.41,1.72,4.41,4.14-1.85,4.14-4.41,4.14-4.43-1.72-4.43-4.14Zm6.47,0c0-1.39-.88-2.23-2.05-2.23s-2.06.84-2.06,2.23.9,2.23,2.06,2.23,2.05-.84,2.05-2.23Z"/><path class="cls-32" d="m295.95,584.19l.63-1.69c.25.18.6.28.99.28.58,0,.96-.37.96-1.17v-8.04h2.33v8.03c0,1.85-1.09,3.04-3.04,3.04-.72,0-1.42-.13-1.87-.45Zm2.29-13.04c0-.73.58-1.3,1.45-1.3s1.45.54,1.45,1.26c0,.78-.58,1.35-1.45,1.35s-1.45-.57-1.45-1.3Z"/><path class="cls-32" d="m310.13,577.03v4.59h-2.18v-1c-.43.73-1.27,1.12-2.45,1.12-1.88,0-3-1.05-3-2.44s1-2.41,3.45-2.41h1.85c0-1-.6-1.58-1.85-1.58-.85,0-1.73.28-2.32.75l-.84-1.63c.88-.63,2.18-.97,3.47-.97,2.45,0,3.87,1.14,3.87,3.57Zm-2.33,2.05v-.82h-1.6c-1.09,0-1.44.4-1.44.94,0,.58.49.97,1.32.97.78,0,1.45-.36,1.72-1.09Z"/><path class="cls-32" d="m237.69,590.58v-5.86h2.42v5.77c0,1.99.87,2.81,2.33,2.81s2.33-.82,2.33-2.81v-5.77h2.39v5.86c0,3.08-1.76,4.79-4.74,4.79s-4.74-1.71-4.74-4.79Z"/><path class="cls-32" d="m254.39,587.02v2.15c-.19-.01-.34-.03-.52-.03-1.29,0-2.14.7-2.14,2.24v3.8h-2.33v-8.04h2.23v1.06c.57-.78,1.53-1.18,2.77-1.18Z"/><path class="cls-32" d="m263.94,587.14v8.04h-2.21v-.96c-.61.7-1.51,1.08-2.5,1.08-2.02,0-3.44-1.14-3.44-3.62v-4.55h2.33v4.2c0,1.35.6,1.94,1.63,1.94s1.85-.69,1.85-2.17v-3.98h2.33Z"/><path class="cls-32" d="m274.41,587.14v6.7c0,2.99-1.62,4.37-4.52,4.37-1.53,0-3.01-.37-3.95-1.11l.93-1.67c.69.55,1.81.91,2.84.91,1.64,0,2.36-.75,2.36-2.2v-.34c-.61.67-1.5,1-2.54,1-2.23,0-4.02-1.54-4.02-3.89s1.79-3.89,4.02-3.89c1.12,0,2.05.37,2.66,1.15v-1.03h2.21Zm-2.3,3.77c0-1.18-.88-1.97-2.11-1.97s-2.12.79-2.12,1.97.9,1.97,2.12,1.97,2.11-.79,2.11-1.97Z"/><path class="cls-32" d="m284.68,587.14v8.04h-2.21v-.96c-.61.7-1.51,1.08-2.5,1.08-2.02,0-3.44-1.14-3.44-3.62v-4.55h2.33v4.2c0,1.35.6,1.94,1.63,1.94s1.85-.69,1.85-2.17v-3.98h2.33Z"/><path class="cls-32" d="m293.97,590.59v4.59h-2.18v-1c-.43.73-1.27,1.12-2.45,1.12-1.88,0-3-1.05-3-2.44s1-2.41,3.45-2.41h1.85c0-1-.6-1.58-1.85-1.58-.85,0-1.74.28-2.32.75l-.84-1.63c.88-.63,2.18-.97,3.47-.97,2.45,0,3.87,1.14,3.87,3.57Zm-2.33,2.05v-.82h-1.6c-1.09,0-1.44.4-1.44.94,0,.58.49.97,1.32.97.78,0,1.45-.36,1.72-1.09Z"/><path class="cls-32" d="m303.91,587.14l-3.63,8.54c-.78,1.94-1.88,2.53-3.33,2.53-.82,0-1.72-.27-2.24-.73l.85-1.66c.36.31.85.51,1.32.51.64,0,1-.28,1.32-1l.03-.08-3.48-8.1h2.41l2.26,5.46,2.27-5.46h2.24Z"/><path class="cls-32" d="m311.71,590.59v4.59h-2.18v-1c-.43.73-1.27,1.12-2.45,1.12-1.88,0-3-1.05-3-2.44s1-2.41,3.45-2.41h1.85c0-1-.6-1.58-1.85-1.58-.85,0-1.74.28-2.32.75l-.84-1.63c.88-.63,2.18-.97,3.47-.97,2.45,0,3.87,1.14,3.87,3.57Zm-2.33,2.05v-.82h-1.6c-1.09,0-1.44.4-1.44.94,0,.58.49.97,1.32.97.78,0,1.45-.36,1.72-1.09Z"/><path class="cls-14" d="m215.23,612.15s-.88,4.18-1.32,5.72,0,5.06,0,5.06c0,0,30.83,0,40.73,1.54s34.35,0,34.35,0l36.33-3.08,12.99.44s-2.2-7.05-5.72-9.69-6.39-3.96-12.11-3.52-25.32,1.54-36.33,1.76-48.88,2.2-53.06,1.54-15.85.22-15.85.22Z"/><path class="cls-10" d="m270.29,431.38c-3.11,1.01-19.16,5.28-22.02,11.89s-9.91,16.51-10.57,24.88.66,12.33-2.64,18.72-5.5,12.33-5.5,12.33c0,0-9.61,7.25-13.78,12.45-.6.74-1.08,1.45-1.41,2.08-2.64,5.06-3.3,13.65-3.3,13.65l3.74,7,1.32,2.47s-3.74-10.35-3.3-12.77,2.86-12.55,15.41-20.04l-1.76,13.87s-.88,17.39-2.42,21.58-1.54,7.93,1.54,13.87,3.52,13.43,3.52,13.43c0,0-5.06,7.93-3.08,8.59s7.05-3.96,7.05-3.96l4.84-10.13-3.3,11.89,3.74,4.13s5.94-2.81,7.93-8.09,1.76-6.17,3.52-10.57l3.08-7.71s1.76,5.72.66,9.47-1.98,10.13-2.86,12.55-3.3,10.13-1.54,9.03,4.4-5.94,8.15-12.55,3.08-8.37,3.3-2.64.88,7.27.88,7.27c0,0-2.86,9.14.22,3.25s2.2-3.69,4.4-11.61.22-9.91,1.54-15.63,4.18-22.46,3.96-9.69-.42,18.5.01,23.12-2.02,9.47-3,12.11-6.73,9.25,0,4.62,11.57-10.13,12.89-14.31,3.08-8.37,1.98-12.77-5.7-3.96-3.95-14.75c.15-.93.29-1.81.43-2.63,1.43-8.74,1.98-11.68,1.98-11.68,0,0-1.32,15.19.88,23.78s3.08,11.67,2.42,15.19-2.65,9.25.21,4.18,3.97-7.71,1.99-12.99-7.05-5.28-2.42-14.09,7.27-10.57,7.71-18.94,0-20.26,0-20.26c0,0,.55,3.52,1.6,12.77s.82,12.11-.94,16.73-5.72,10.79-5.06,14.75.66,4.4,1.76-.99,5.94-13.76,7.93-21.91c1.72-7.05,2.61-7.34,1.53-10.43-.17-.48-.38-1.03-.65-1.68-1.98-4.84-4.57-12.11-4.57-12.11,0,0,7.87,8.37,8.09,16.29s-1.98,14.53-2.42,23.78.22,22.24,4.4,28.4,2.86,1.76,2.86,1.76c0,0-3.52-4.84-3.3-12.33s1.98-19.82,4.84-28.4,4.4-20.04,3.52-22.68-8.81-12.33-8.81-12.33c0,0,12.11,8.81,14.53,10.57s5.28,7.1,3.96,13.46-7.05,12.3-8.37,12.74-1.32,3.96,2.42,1.98,12.99-16.95,12.77-18.94-.44-8.59-4.62-12.55-8.37-2.2-14.31-9.47-6.17-7.27-7.49-18.5,1.54-5.5-4.4-18.28-1.1-12.55-8.81-17.39-13.17-6.71-18.94-4.84Z"/><path class="cls-8" d="m273.67,437.65s5.28,6.43,6.28,13.42-2.97,11.7-1.65,19.75,2.3,12.01,1.81,16.64-4.83,5.28-3.15,10.9,0,16.65,0,16.65l1.67,5.67s-2.31.19,0-7.1,2.89-7.57,1.61-12.88,2.02-9.28,2.68-14.72,1.65-5.71,0-10.87-2.97-5.66-1.65-13.33-3.63-20.77-7.6-24.13Z"/><path class="cls-8" d="m268.82,463c-1.09,9.93,3.2,13.57-2.08,22.98s-5.94,7.82-4.29,14.72,2.36,7.18-.8,14.31-6.47,15.55-7.13,19.93-1.65,12.96-1.65,12.96c0,0-2.31-4.13,0-12.96s7.77-24.86,7.77-24.86c0,0-4.14-14.69-1.83-17.66s5.94-11.84,5.94-11.84l4.06-17.58Z"/><path class="cls-8" d="m265.09,445.76c-.99,1.42-9.58,23.62-9.58,23.62l-1.65,19.75s-13.54,18.38-11.23,24.22-2.51,18.39-.27,22.68c.4.76.7,1.76.92,2.91,1.01,5.32.19,13.77-1.53,16.08-2.09,2.81-5.07,2.7-2.42-4.02s.02-27.14,1.98-30.3-5.72,1.68-3.02-8.84,5.67-13.82,9.3-19.76,3-3.37,3.81-14.73,13.69-31.6,13.69-31.6Z"/><path class="cls-23" d="m295.86,657.62c-1.32,1.98-.33,5.72-7.6,7.16s-10.9-1.54-13.21-1.54-5.09,1.98-8.82,4.29-10.01,0-10.01,0c0,0,17.5-7.6,17.83-9.91s1.32-4.29-4.95,0-12.22,6.39-15.52,7.16-15.85,0-15.85,0l18.83-4.84s21.8-11.89,14.86-8.92-18.83,10.46-23.45,8.53-19.16-1.93-14.53-2.26,5.94,2.26,5.94,2.26c0,0-17.17,1.38-14.2,2.7s9.91,1.72,16.18,6.31,12.55,3.49,16.51,3.71,5.61,1.54-.66,2.86-8.59-.33-6.28,1.32,17.82,1.32,9.41,2.97c-7.51,1.47-18.84.58-26.59-2.21-.93-.34-1.81-.7-2.63-1.09-7.6-3.63-10.9-5.28-10.9-5.28,0,0,21.14,11.23,28.73,11.89s14.2-2.31,10.9,0-16.51,15.52-16.51,15.52c0,0-7.93,8.23-3.63,8.24s15.19-4.94,20.48-8.9,10.57-11.23,5.28-3.96-9.91,12.88-16.51,16.18-13.21,6.77-13.21,6.77l8.92-2.15,4.62-.66s-8.92,6.94-14.86,5.94c-.64-.11-1.27-.23-1.89-.36-5.07-1.07-9.01-2.78-9.01-2.78,0,0,25.76,2.48,27.41,1.49s7.1-6.61,7.1-6.61c0,0,.17,5.48-7.43,8.35s-14.2,2.64-10.9,2.76,11.23,5.54,12.88,4.65-13.54,5.38-15.85,5.71,10.9,2.64,13.87,0-10.24,5.79-13.21,6.2,7.27.08,10.9-1.57,3.96-.5-1.65,1.73-1.98,3.88,0,3.22,1.32,4.29-4.95,5.94,0,5.31,2.64,3.32-1.98.04-2.64,2,.33,7.24.33,7.24c0,0-7.27.66-4.62,3.63s1.32,7.27.66,8.26.66,5.28-6.28,5.94-19.16-3.3-9.91,0,21.14-1.98,21.8-3.96-2.31-6.94,2.31-11.89,3.96-15.93,6.28-18.86,1.95-4.92,4.94-12.18,5.3-10.57,7.61-18.83,4.29-10.57,5.28-14.53.99-12.55.99-12.55c0,0,2.64-16.18,1.98-10.57s7.27-3.08,10.24-3.19,23.12,1.87,27.41,2.86,12.88-3.63,13.21-7.93-8.26.99-8.26.99c0,0-7.93,5.17-12.22,4.07s-15.19-1.1-4.29-2.75,17.83-5.61,17.5-6.94-5.61-.55-12.22,2.2-20.15,9.03-15.52,5.06,10.57-8.92,10.57-8.92l-3.63-3.3Z"/><path class="cls-23" d="m277.69,678.42s11.23,1.98,22.13,2.31,18.5-3.63,20.15-4.29,5.94-11.78,7.27-11.67-5.61,15.63-6.28,20.26,0,15.52-1.32,19.49-3.96,11.23-5.28,14.86-3.63,5.94-3.63,5.94c0,0-14.53,1.42-11.23-2.76s6.61-4.25,9.91-7.35,10.24-13.01,3.96-7.72-28.73.99-18.5,0,12.88,1.32,17.83-4.95,6.28-7.6,2.97-8.92-1.32-5.61-.33-7.27-7.6,3.87-16.84,2.76-14.53-2.1-4.95-1.77,19.82-.33,20.48-2.64-3.47-.99-11.48-1.32-24.85-4.95-24.85-4.95Z"/><path class="cls-23" d="m218.55,637.14s.69,6.94,9.28,6.28,15.19-3.59,23.78-3.12,10.22,3.78,19.64,1.46,31.22-3.5,37.83-2.91,14.55-.64,14.87,4.6-4.96,9.53-6.95,11.85.66,1.65,2.97,3.63-4.43,7.57,1.42,6.7,8.49-3.73,9.48-7.03,1.65-12.55,2.31-17.83,0-10.02,0-10.02h-39.3s-41.28,1.52-49.21,2.8-26.12,3.59-26.12,3.59Z"/><path class="cls-23" d="m311.71,729.12c-.99.49-13.87,8.09-12.22,7.43s11.23-2.97,12.22-2.64-4.29,7.27-4.29,7.27c0,0-7.76.91-4.87,2.93s5.2,2.05,4.21,7.65-4.21,21.78-4.21,21.78c0,0-1.37,6.61-3.2,7.93s6.75-3.49,4.77-1.58-18.83,3.89-16.18,4.88,9.42,1.98,11.81,1.32-2.88-1.32-2.39.66,3.63-1.98,5.19,0,0,5.61,0,5.61c0,0,6.85-8.45,6.85-12.48s1.57-7.01,2.44-15.26.12-20.3,0-25.51-.12-10-.12-10Z"/><polygon class="cls-29" points="130.42 483.61 137.01 480.32 159.02 480.32 152.44 483.61 130.42 483.61"/><polygon class="cls-29" points="456.29 510.2 462.88 506.91 484.9 506.91 478.31 510.2 456.29 510.2"/></g></g></g></svg>