<?xml version="1.0" encoding="UTF-8"?><svg id="Layer_1" xmlns="http://www.w3.org/2000/svg" xmlns:xlink="http://www.w3.org/1999/xlink" viewBox="0 0 595.28 841.89"><defs><style>.cls-1{clip-path:url(#clippath);}.cls-2{fill:none;}.cls-2,.cls-3,.cls-4,.cls-5,.cls-6,.cls-7,.cls-8,.cls-9,.cls-10,.cls-11,.cls-12,.cls-13,.cls-14,.cls-15,.cls-16,.cls-17,.cls-18,.cls-19,.cls-20,.cls-21,.cls-22,.cls-23,.cls-24,.cls-25,.cls-26,.cls-27,.cls-28{stroke-width:0px;}.cls-29{clip-path:url(#clippath-1);}.cls-30{clip-path:url(#clippath-2);}.cls-3{fill:#5abba3;}.cls-4{fill:#2d2821;}.cls-5{fill:#a36f65;}.cls-6{fill:#9c6a61;}.cls-7{fill:#100d0c;}.cls-8{fill:#231f1f;}.cls-9{fill:#c58a7e;}.cls-10{fill:#c59187;}.cls-11{fill:#cc8e82;}.cls-12{fill:#ad766c;}.cls-13{fill:#d52b2f;}.cls-14{fill:#bf2529;}.cls-15{fill:#c18f85;}.cls-16{fill:#a77268;}.cls-17{fill:#a74369;}.cls-18{fill:#ab756b;}.cls-19{fill:#a67167;}.cls-20{fill:#ac4e70;}.cls-21{fill:#b87d73;}.cls-22{fill:#9e6b62;}.cls-23{fill:#b47a70;}.cls-24{fill:#b5877d;}.cls-25{fill:#bb8a81;}.cls-26{fill:#a26e65;}.cls-27{fill:#fff;}.cls-28{fill:#00a888;}</style><clipPath id="clippath"><rect class="cls-2" x="28.31" y="378.7" width="552.22" height="480.27"/></clipPath><clipPath id="clippath-1"><path class="cls-2" d="m438.01,590.57s-12.06-5.78-20.81,3.96c0,0-1.98,3.63,0,4.29s5.78,1.49,8.59.83,7.43-.83,12.22-9.08Z"/></clipPath><clipPath id="clippath-2"><path class="cls-2" d="m366.34,607.91c-.78-.71,6.61-9.59,13.71-8.01,7.1,1.57,8.75,4.22,8.42,5.37-.33,1.16-3.63,5.61-6.94,6.28s-13.38-1.98-15.19-3.63Z"/></clipPath></defs><g class="cls-1"><path class="cls-9" d="m335.33,584.19c-.24,1.8,7.93,36.99,14.53,41.83s20.26,33.03,20.26,33.03c0,0,6.63,9.36,14.09,9.83,0,0,14.53,52.26,31.27,58.87s63.85-31.27,63.85-31.27c0,0,25.98-32.59,23.34-33.47s-4.84-2.75-18.94-6.66c-14.09-3.91-23.78-6.11-23.78-6.11,0,0-.44-23.34-.44-26.86v-17.38s2.2,4.61,5.72,4.17,3.08-12.33,2.64-18.06c-.44-5.72.44-1.32-3.96-18.5-4.4-17.17-8.56-47.45-8.56-47.45,0,0-18.11-21.69-36.26-18.17s-38.41,14.53-38.41,14.53c0,0-44.48,55.05-45.36,61.65Z"/><path class="cls-24" d="m482.69,672.82c-4.62-7.84-12.55-21.16-5.94-19.12,6.61,2.04,23.78,6.68,27.08,7.99s0,14.52,0,14.52l-21.14-3.39Z"/><path class="cls-11" d="m417.43,520.11c-3.88,9.1-9.91,18.72-8.81,29.28,1.1,10.57-3.3,22.02-5.72,28.18-2.42,6.17-2.42,23.12,0,31.71,2.42,8.59,7.71,18.94,7.71,18.94,0,0,3.3-4.84,6.83-2.42,3.52,2.42,1.1,2.86,3.08,4.62s8.37,6.61,19.16,9.91c10.79,3.3,20.48-1.76,20.92-12.33s0-19.16,0-19.16c0,0,1.35,4.4,4.65,1.32s2.61-3.52,2.61-9.69-.54-13.64-.54-13.64l-2.76-3.97.38-15.74s-3.34-4.29-3.78-14.86c-.44-10.57-3.14-4.57-4.25-18-1.1-13.43-11.96-12.83-17.68-14.15-5.72-1.32-19.38-5.69-21.8,0Z"/><path class="cls-7" d="m411.59,582.48c.99.5,1.32,2.48,3.63,1.82s20.64-3.8,25.6-4.29-2.64-.99-6.28-1.32-6.44-.83-10.9,0-12.06,3.8-12.06,3.8Z"/><path class="cls-7" d="m384.67,591.4c-7.6,1.16-15.85,5.28-18.5,6.11s-9.91,4.29-9.91,4.29c0,0,5.78-6.28,7.76-7.1s9.25-4.79,13.54-5.28,7.1,1.98,7.1,1.98Z"/><path class="cls-24" d="m403.66,633.01c-.66-.17-3.8-.66-2.31-1.65,1.49-.99,2.15-.83,3.96-.66s1.65,1.69,3.8,1.09,5.28-2.08,5.78-2.74,1.16-2.81,2.81-2.64,2.81,1.82,1.32,1.82-2.81.5-2.81.5c0,0-4.62,4.95-7.27,4.29s-5.28,0-5.28,0Z"/><path class="cls-24" d="m398.04,624.09s-4.95,6.11-3.47,8.09,4.79,2.64,4.79,2.64c0,0-.77.5-2.53,0s-4.24-1.49-3.74-3.3,3.14-7.93,4.95-7.43Z"/><path class="cls-24" d="m422.32,619.8s1.82,1.43,1.16,4.27-.87,3.17.14,1.51c1.01-1.65.19-4.95-1.3-5.78Z"/><path class="cls-27" d="m438.01,590.57s-12.06-5.78-20.81,3.96c0,0-1.98,3.63,0,4.29s5.78,1.49,8.59.83,7.43-.83,12.22-9.08Z"/><path class="cls-27" d="m366.34,607.91c-.78-.71,6.61-9.59,13.71-8.01,7.1,1.57,8.75,4.22,8.42,5.37-.33,1.16-3.63,5.61-6.94,6.28s-13.38-1.98-15.19-3.63Z"/><path class="cls-5" d="m452.21,629.56c-1.65-1.33-2.81-4.94-16.02,0-13.21,4.94-19.03,6.76-25.86,9.56-6.83,2.81-15.75,5.61-18.56,11.23s-11.06,9.74-2.31,14.86,9.25,10.73,19.49,8.75,23.61-7.1,23.61-7.1l20.48-19.98-.83-17.33Z"/><path class="cls-7" d="m353.34,624.59l-6.28-26.75s9.91-31.05,18.83-36c8.92-4.95,14.53-7.27,18.5-11.56,3.96-4.29,9.25-11.89,9.25-11.89,0,0,14.2,21.14,21.8,26.09,7.6,4.95,14.86,6.61,13.54,5.94s-20.81-15.85-24.11-22.79c-3.3-6.94-5.61-14.86-5.61-14.86,0,0,21.8,28.73,23.12,29.39s4.31,3.12,1.32.66-13.21-24.11-13.21-24.11l-1.32-10.9s7.93,6.28,9.58,12.88c1.65,6.61,7.27,20.15,8.26,20.48s6.92-2.64,2.14-9.58c-4.78-6.94-5.11-10.9-7.09-14.53-1.98-3.63-6.28-10.9-.99-12.22,5.28-1.32,11.23,0,11.23,0,0,0,4.95-.51,6.28-.59s7.27-3.38,7.93,1.91c.66,5.28-3.3,21.14,0,25.76s7.93,9.91,7.93,9.91c0,0-5.28-8.92-5.28-13.54s2.64-16.51,2.64-16.51c0,0,4.29,4.29,2.64,9.58-1.65,5.28-2.88,16.84.38,18.17,3.25,1.32,8.21,6.94,8.21,9.91s-2.64,16.18,0,20.15c2.64,3.96,9.58-13.54,9.58-13.54l-5.94-35.01s-6.61-24.44-11.23-32.37-2.97-11.23-16.51-16.84-14.2-8.59-27.08-9.58-19.49-4.95-28.73,0c-9.25,4.95-28.07,5.94-39.3,19.16-11.23,13.21-16.51,27.74-19.16,39.96-2.64,12.22-4.62,22.79,0,32.7s10.9,30.05,10.9,30.05l11.56,23.45,6.28-2.97Z"/><path class="cls-18" d="m58.25,849.29s-18.94-111.85,6.17-151.49c0,0,7.49-16.29,25.1-22.46,17.61-6.17,19.82-9.25,31.71-15.85,11.89-6.61,12.77-5.72,27.3-10.13,14.53-4.4,27.74-4.4,29.94-14.53,2.2-10.13,0-15.41,0-19.38s-4.84.44-14.97-12.33-33.03-24.22-32.15-45.36c.88-21.14,7.93-43.16,15.85-46.68s4.4,12.77,36.55-27.3c32.15-40.07,51.96-49.32,65.17-56.37,13.21-7.05,47.12-3.08,51.96,4.4,4.84,7.49,14.53,47.56,15.41,54.17.88,6.61,4.84,15.41,4.84,20.26s-6.61,25.98-6.61,25.98c0,0,8.37,17.61,10.57,20.7s9.25,7.49,9.69,14.97c.44,7.49-8.81,8.37-11.01,11.89s1.32,14.09.44,16.29-5.72,7.49-5.72,7.49c0,0,1.32,6.17,1.76,9.69s-5.28,1.76-4.84,8.81,3.52,14.97-4.84,20.7c-8.37,5.72-22.02,11.45-28.18,10.57s-17.61-2.64-17.61-2.64c0,0,24.22,13.65,36.55,14.97,12.33,1.32,33.48,2.78,33.48,2.78,0,0,58.61,30.53,58.61,32.29s31.21,58.29,31.21,58.29c0,0,7.49,55.93,7.49,57.25s5.28,76.18,5.28,76.18l-183.63,21.58-195.52-64.73Z"/><path class="cls-16" d="m238.75,558.45c-13.25-4.77-20.48-6.86-28.4-11.48s-19.82.03-21.8,16.2,7.93,35.13,11.23,42.82,54.83,32.9,54.83,32.9c0,0,23.78-8.09,23.78-11.03s0-13.51-12.55-30.69c-12.55-17.17-19.18-35.87-27.08-38.72Z"/><path class="cls-19" d="m175.65,594.86s12.37,3.58,12.63,33c.26,29.42-3.7,25.89,6.87,45.82s19.16,21.53,19.16,21.53l-44.26-13.49s-30.39-29.21-27.74-29.8,25.05-15.77,29.01-19.08c3.96-3.31,4.34-37.98,4.34-37.98Z"/><path class="cls-5" d="m103.33,669.27c-3.89,1.52-44.92,9.82-48.88,51.76-3.96,41.94,3.96,126.5,3.96,126.5,0,0,31.05,12.51,48.22-5.63,17.17-18.15,13.87-71.65,13.87-71.65l-11.89-82.62s.52-20.63-5.28-18.35Z"/><path class="cls-26" d="m311.41,664.85l-46.62-14.17s3.03,45.91,13.6,57.96c10.57,12.06,29.06,52.69,42.94,58.79,13.87,6.1,20.48,8.75,20.48,8.75,0,0-13.34-106.21-30.39-111.34Z"/><path class="cls-8" d="m314.67,522.75s-.33,7.05-1.43,8.15c0,0-3.09-5.75-2.87-7.29,0,0,3.31-.85,4.3-.85Z"/><path class="cls-21" d="m284.39,528.59s.55,3.19,2.09,4.07,2.75,1.54,2.64,2.75c-.11,1.21-2.75.99-4.73.66s-3.4,2-5.06,1.76,0-3.19,0-3.19l2.09-7.16,2.97,1.1Z"/><path class="cls-27" d="m281.42,527.49s1.65,7.16-2.09,10.35c0,0-13.6-2.79-15.03-4.11s8.97-3.05,10.63-3.93,6.5-2.31,6.5-2.31Z"/><path class="cls-8" d="m281.63,530.3s.41,1.22-.12,3.85c-.55,2.75-2.13,3.74-2.13,3.74l-6.91-1.54s-1.31-1.76-.48-3.3,9.63-2.75,9.63-2.75Z"/><path class="cls-12" d="m286.82,541.03c-5.69,1.88-8.59,3.52-13.54,1.98s-5.68-2.2-8.51-3.3c-2.83-1.1-4.15-3.74-10.32,0-6.17,3.74-15.85,6.39-10.13,15.63,5.72,9.25,8.81,8.59,14.97,17.17s9.16,28.43,9.16,28.43c0,0,7.86,2.4,13.33-2.66,5.47-5.06,15.38-24.44,14.28-33.47-1.1-9.03-5.22-25.12-9.25-23.78Z"/><path class="cls-12" d="m276.03,460.44c-8.56,5.71-8.37,13.54-6.66,25.1s3.03,17.5-2.25,22.13-10.02,9.58,6.72,3.63c16.73-5.94,19.03-2.31,23.5-11.56,4.46-9.25-.49-53.17-21.3-39.3Z"/><path class="cls-12" d="m304.43,509.65c-.99,3.67-.66,19.49,2.97,24.61s11.72,18,11.72,18l6.44,12.55s-.33,3.63.83,6.61c1.16,2.97-2.75,7.67-.6,6.52,2.15-1.16,9.85-5.32,9.52-8.45s-.87-6.31-5.33-11.43c-4.46-5.12-4.72-5.95-7.06-10.41-2.34-4.46-6.68-12.47-9.69-16.73s-2.87-12.04-2.87-12.04c0,0-4.78-13.5-5.93-9.21Z"/><path class="cls-13" d="m324.56,815.16c-2.4,2.9-37.65-18.28-53.5-27.52-15.85-9.25-54.61-51.52-60.77-58.57-6.17-7.05-40.51-53.28-53.28-62.53-12.77-9.25-15.85-16.29-18.94-16.29s-18.06,5.28-18.94,6.61-11.68,7.92-9.04,9.24c2.64,1.32,9.59-2.42,17.51,8.59,7.93,11.01,17.61,22.79,20.26,31.6,2.64,8.81,11.56,54.88,11.56,54.88l1.98,36.66-1.91,23.07s13.36,68.03,13.8,71.11,144.44,25.54,144.44,25.54l128.59-19.38-41.39-90.28-39.08-63.74-31.92-76.45h-25.65s9.85,5.94,9.85,5.94l10.4,67.05s16.18,50.07-3.96,74.48Z"/><path class="cls-14" d="m322.58,823.48s-37.87-3.96-55.49-17.61c-17.61-13.65-59.89-55.05-64.29-61.65-4.4-6.61-22.9-37.87-30.83-44.48s-16.73-17.17-24.66-25.54-20.26-17.17-20.26-17.17h-4.4s37.43,22.9,48,61.21,14.97,80.15,14.09,86.75c-.88,6.61-12.77,45.8-12.77,45.8l-11.01-40.95s-2.2-66.94-14.09-99.96-34.79-42.72-36.11-42.72-8.81,3.08-8.81,3.08c0,0,10.13-11.89,18.94-15.41s17.61-5.72,19.82-3.96c2.2,1.76,37.43,26.42,50.64,49.76,13.21,23.34,66.5,71.78,66.5,71.78l59.45,38.31s16.29-11.89,14.09-32.15c-2.2-20.26-13.21-47.12-14.09-61.21-.88-14.09-10.57-45.87-10.57-45.87l-8.41-10.62s34.39,4.48,40.56,8.01c6.17,3.52,13.65,20.29,13.65,20.29l13.65,70.46s-7.93,51.08-12.77,55.05c-4.84,3.96-18.59,10.66-30.83,8.81Z"/><path class="cls-3" d="m419.09,727.52c-10.75.99-22.62-26.43-25.26-31.05-2.64-4.62-8.66-27.28-9.62-27.59-18.03-5.87-14.73-18.61-18.03-17.62s-24.39,7.02-24.39,7.02l13.21,68.04s11.56,69.36,12.88,69.36,46.24,61.43,51.19,64.73c4.95,3.3,93.8,26.09,101.39,24.11,7.6-1.98,13.87-50.2,13.87-50.2l-6.28-23.78s3.63-14.53,2.97-23.12c-.66-8.59-5.94-17.77-3.63-20.94,2.31-3.17,23.45-26.95,23.45-33.23s-2.64-19.49-7.93-29.72c-5.28-10.24,2.64-2.97-19.82-27.08-22.46-24.11-30.05-23.45-34.35-23.45s-22.75-2.75-22.75-2.75l.29,3.08s4.95,2.64,11.23,4.62c6.28,1.98,18.09,2.64,18.42,4.95.33,2.31,1.01,8.92-5.93,16.84s-20.66,20.7-26.27,26.64-34.14,20.16-44.67,21.14Z"/><path class="cls-28" d="m485.68,722.46s28.62-24.22,34.79-26.42,12.33,0,14.97,7.05c2.64,7.05,9.69,15.41,10.57,22.02.88,6.61,6.17,11.89-4.4,18.5s-24.76,17.17-24.71,18.5c.05,1.32-31.21-39.63-31.21-39.63Z"/><path class="cls-10" d="m520.28,696.48v56.37s3.96,17.17,0,24.66c-3.96,7.49-13.26,21.37-13.26,21.37,0,0-29.45,15.18-50.15-21.81-20.7-36.99-25.98-51.96-29.5-60.77-3.52-8.81-8.28-24.22-8.28-24.22,0,0-7.58-8.81-5.38-14.97,2.2-6.17,5.38-8.22,5.38-8.22l-5.78-7.63s-11.49-.88-6.64-7.49c4.84-6.61,12.42-11.01,12.42-11.01,0,0-5.38-1.32-1.85-6.61s10.57-8.37,14.09-8.37,11.01,3.08,11.01,3.08c0,0,10.32-3.19,15.16-1.87s4.35,6.72,6.26,11.12c1.92,4.4,2.8,12.33,2.36,17.17s-.75,13.65-2.36,14.97-7.77,12.33-7.77,12.33c0,0,1.76,1.32,1.32,6.17,0,0,2.64-2.64,8.37,10.13,5.72,12.77,16.73,21.58,16.73,21.58,0,0,18.94-22.46,37.87-25.98Z"/><path class="cls-10" d="m332.8,683.38s-2.31,43.27-4.95,52.18c-2.64,8.92-5.61,24.44,2.48,30.05,8.09,5.61,20.64,19.16,26.59,22.46s15.19,4.95,19.16-3.63c3.96-8.59,12.22-30.68,4.95-47.38s-8.26-19.67-10.9-30.24c-2.64-10.57-4.29-20.48-5.28-28.4s-3.3-23.12-3.3-23.12c0,0-.99-6.94-.66-11.89.33-4.95-4.85-14.53-6.39-16.51s-7.81-.33-7.81,0-14.53-4.29-19.82,3.63c-5.28,7.93-18.5,22.13-13.54,29.39,4.95,7.27,19.49,23.45,19.49,23.45Z"/><path class="cls-15" d="m480.87,721.03s6.94,6.28,14.53,11.89c7.6,5.61,15.19,16.51,15.19,16.51,0,0,2.97,14.2,4.29,11.89s.66-9.58-2.64-14.2-10.92-12.22-14.05-15.52-8.08-6.94-8.08-6.94l-4.95-3.63h-4.29Z"/><path class="cls-25" d="m331.72,681.73c.88.88,6.61,5.06,7.71,5.94s-1.76,5.28-1.76,5.28l2.01,18.72s5.03,25.54,9.66,39.63,8.35,35.89,9.01,37.65c.66,1.76-18.7-13.65-18.7-13.65,0,0-15.65-11.45-14.99-22.9.66-11.45,5.08-35.01,5.08-35.01,0,0,2.34-22.18,2.42-26.2.09-4.39-.44-9.47-.44-9.47Z"/><path class="cls-15" d="m457.88,630.03s-7.43,3.63-6.44,4.46,6.94,11.06,8.09,12.22c1.16,1.16,2.97,4.95,0,2.31-2.97-2.64-4.46-5.69-6.61-9.04-2.15-3.35-9.25-8.8-9.25-8.8l-6.61-2.15s7.23-1.32,12.04-1.16,9.26.66,9.6,1.32-.83.83-.83.83Z"/><path class="cls-15" d="m449.47,651.93c-2.29-.75-4.94-4.05-7.74-6.7s-9.25-6.28-9.25-6.28c0,0-4.46,1.23-6.94,1.94s-6.77,1.86-6.77,1.86c0,0,.66-.99,3.3-3.14,2.64-2.15,4.29-5.12,7.76-3.8,3.47,1.32,5.28,1.32,7.6,3.14s12.72,10.09,12.72,12.97h-.68Z"/><path class="cls-15" d="m436.8,658.77c-2.19.8-11.39-6.61-11.39-6.61,0,0-5.45.66-7.27,2.15s-3.8,6.77-3.8,6.77c0,0-3.96.83-1.32-3.47,2.64-4.29,9.5-8.09,11.44-8.26s7.22,2.31,9.37,3.8c2.15,1.49,4.79,4.95,2.97,5.61Z"/><path class="cls-15" d="m422.94,668.24c-.99-.83-3.14-3.96-3.14-3.3s.83,3.3.83,3.3l-.83,3.47s-2.31,2.64,0,1.82,3.14-5.28,3.14-5.28Z"/><path class="cls-15" d="m456.41,682.33s-11.11,5.59-16.31,6.75c-5.2,1.16-13.35,1.81-13.35,1.81,0,0,4.15,2.41,7.21,1.11,3.06-1.3,13.73-3.08,15.31-4.32,1.58-1.24,5.68-3.3,5.68-3.3,0,0,.77.9-1.55,3.56-2.32,2.65-6.01,5.56-4.46,4.84s5.03-3.49,5.03-3.49c0,0,4.37-6.34,2.42-6.96Z"/><path class="cls-25" d="m338.64,655.3c-.08-.5,2.64-3.47,1.32-2.97s-2.06,2.23-2.97.99-4.21-4.46-3.88-3.88,2.31,3.55,2.23,4.13-7.02,1.24-7.27,2.23,7.1-1.49,7.76-.33c.66,1.16,1.49,1.32.41,2.48-1.07,1.16-6.61,5.04-5.53,5.28s6.36-4.21,6.36-4.21c0,0,2.56-.58,3.88.25s4.38,1.65,4.38,1.65l2.23-.74s3.14.17,4.13-.25,1.16-1.57,1.24-1.98,1.24-1.24.83-2.39.09-1.73.09-1.73c0,0,1.07-.5.74-2.06-.33-1.57-1.4-2.48-1.16-3.96.25-1.49,1.22-3.72,1.22-3.72,0,0-.97-4.13-.48-4.13s2.23-2.64.83-2.23-1.32.99-1.32,1.9.25,2.97.33,3.55-.17,2.64-.99,2.97l-.99,1.24s1.57,4.29,1.49,4.87-.91,2.23-1.49,2.31-2.72.74-2.72.74c0,0,1.98.74,1.49,2.48s-2.97,2.48-3.3,1.24-.93.34-1.16.99-2.77.41-4.52-1.24-3.16-3.47-3.16-3.47Z"/><path class="cls-7" d="m316.62,487.81s-4.56-18.45-10.84-28.03c-6.28-9.58-19.82-19.82-26.09-21.47s-21.47,11.89-25.76,21.14c-4.29,9.25-5.94,17.83-17.17,28.73-11.23,10.9-13.54,15.19-23.78,24.44s-14.2,12.22-14.2,12.22c0,0,0,18.5-7.93,22.79-7.93,4.29-25.43-7.93-25.43-7.93,0,0-8.92-14.2-22.13-11.89-13.21,2.31-9.58,29.72-7.6,35.34,1.98,5.61,20.81,24.44,20.81,24.44,0,0,13.87,8.26,19.16,7.27l-1.04,19.79s2.03-4.93-12.83.36-30.05,3.77-31.38-9.02c-1.32-12.78-24.11-13.77-23.12-24.67s5.28-14.2,4.95-18.83c-.33-4.62-16.18-48.55-12.55-56.48s7.93-29.06,7.93-29.06c0,0,15.85-53.17,47.89-68.04,32.04-14.86,60.11-15.52,83.89-10.57s41.61,27.41,41.61,27.41c0,0,5.28-16.51,24.44,2.31,19.16,18.83,21.07,47.19,11.17,59.74Z"/><path class="cls-23" d="m160.47,540.04s-5.61-6.61-11.06-6.44-10.24,3.3-10.9,6.44c-.66,3.14,0,10.57,0,10.57,0,0-.5.66.99,7.1s7.3,12.22,9.84,15.03c2.54,2.81,8.16,5.12,8.16,5.12,0,0,13.21,7.43,13.54,4.95s-4.79-7.93-9.91-8.42-10.24-2.15-12.39-5.61c-2.15-3.47-5.28-8.42-5.78-12.88-.5-4.46-.66-14.37,3.8-15.03s12.39,1.32,12.72,3.14-5.28,4.13-6.77,7.76c-1.49,3.63-5.94,12.88.33,12.22s8.75-10.07,12.22-9.08,2.48,3.96-.33,7.93c-2.81,3.96-11.56,7.93-4.79,8.26s8.92,1.32,12.39,3.47c3.47,2.15,6.61,3.14,4.62,0s-9.41-1.49-6.77-7.93c2.64-6.44,3.96-12.39-.17-13.21s-8.09.83-7.27-3.96c.83-4.79-2.48-9.41-2.48-9.41Z"/><path class="cls-22" d="m318.22,575.21c-1.65.33-7.6,3.14-6.28,3.63s-.85,1.49,3.04,0,5.38-1.2,7.53-1.42,4.13-2.37,1.82-2.21-6.11,0-6.11,0Z"/><path class="cls-22" d="m306.99,566.96c.75.48-7.1,4.62-6.28,9.08.83,4.46,4.62,6.11,6.28,6.44s1.65,1.65,0,1.49-9.09-1.32-9.58-5.28c-.49-3.96,6.78-13.54,9.58-11.72Z"/><path class="cls-7" d="m316.24,521.71l-5.45,1.82s3.47,1.32,6.28,1.32,5.61-3.14,5.61-3.14h-6.44Z"/><path class="cls-7" d="m311.75,513.45s4.48-8.75,8.94-8.59.99,6.61,0,6.44-8.14,3.3-8.94,2.15Z"/><path class="cls-7" d="m294.94,514.61l-18,2.81-32.53,7.43s17.01-11.39,19.49-11.89,16.18-1.82,20.64-2.48,12.06-.83,10.4,4.13Z"/><path class="cls-7" d="m289.76,527.38s-3.63,1.1-6.72-.99c0,0-9.47,3.63-11.89,4.07s-8.7,3.08-8.7,3.08c0,0,5.28.57,7.33.55,2.71-.02,16.78-4.07,19.98-6.72Z"/><path class="cls-17" d="m316.73,617.32c-1.98-.19-11.56-.99-14.7-2.31s-13.43-4.24-9.74-6.11c3.69-1.87,12.67-3.33,15.17-2.91s3.16.41,4.97-.08,2.92-1.47,4.9-1.92,4.52-3.88,4.19,2,.26,11.82-4.79,11.33Z"/><path class="cls-20" d="m319.71,594.86s-5.94,1.82-9.74,4.46-17.67,9.58-17.67,9.58c0,0,5.83.33,10.51-1.49s8.16-.28,9.98-.77,9.73-3.03,9.9-5.83,3.63-7.27,1.16-7.6-4.13,1.65-4.13,1.65Z"/><path class="cls-6" d="m285.05,526.83c-.16-1.13-.57-2.27-1.36-3.06-.79-.81-1.97-1.02-3.05-.82-2.24.38-4.37,1.27-6.38,2.34-2.03,1.05-3.97,2.29-5.9,3.55l-5.77,3.82c1.79-1.45,3.64-2.84,5.52-4.18,1.89-1.33,3.84-2.58,5.88-3.69,2.06-1.05,4.25-1.97,6.59-2.27,1.17-.16,2.5.13,3.31,1.06.78.92,1.12,2.1,1.16,3.25Z"/><path class="cls-6" d="m311.37,518.68c.4-.22.84-.35,1.29-.45.45-.1.91-.13,1.37-.11.46.03.93.1,1.37.31.43.2.83.5,1.04.92-.77-.5-1.58-.62-2.43-.66-.85-.05-1.72,0-2.63,0Z"/><g class="cls-29"><circle class="cls-7" cx="426.56" cy="593.54" r="6.37"/></g><g class="cls-30"><circle class="cls-7" cx="378.2" cy="605.79" r="6.68"/></g><path class="cls-4" d="m438.01,590.57c-1.78-.64-3.63-1.03-5.49-1.19-.93-.04-1.85-.16-2.78-.14-.46-.03-.93.04-1.39.06l-.69.05-.68.12c-.92.12-1.8.41-2.69.66-.84.37-1.73.66-2.51,1.17-1.65.86-3.01,2.15-4.31,3.47l.05-.07c-.27.51-.5,1.07-.66,1.63-.15.55-.25,1.15-.1,1.6.11.47.58.57,1.2.76.58.17,1.16.31,1.76.43,1.18.24,2.38.4,3.58.41.6,0,1.19-.02,1.78-.11.56-.09,1.18-.25,1.78-.36,1.19-.25,2.35-.55,3.43-1.06,1.07-.51,2.08-1.16,2.97-1.96,1.83-1.55,3.41-3.43,4.76-5.48Zm0,0c-.29.5-.56,1.07-.88,1.62-.33.52-.63,1.06-1,1.56-.35.51-.72,1.01-1.12,1.49-.38.49-.83.94-1.3,1.35-.94.83-2,1.53-3.15,2.07-1.14.54-2.37.86-3.58,1.11-.6.12-1.17.26-1.82.37-.63.1-1.26.12-1.89.12-1.26-.01-2.49-.18-3.71-.43-.61-.13-1.21-.27-1.81-.45l-.45-.14c-.14-.04-.3-.1-.49-.2-.35-.17-.64-.52-.74-.88-.23-.73-.07-1.4.09-2.02.18-.62.42-1.2.72-1.77h0s.03-.05.04-.07c1.34-1.37,2.77-2.71,4.49-3.61.81-.53,1.74-.84,2.62-1.22.93-.26,1.85-.57,2.81-.69l.71-.12.72-.06c.48-.03.96-.09,1.44-.07.96,0,1.93.03,2.87.23,1.88.37,3.72.94,5.41,1.82Z"/><path class="cls-4" d="m366.34,607.91c-.14-.25.04-.54.15-.78.12-.25.27-.49.42-.72.3-.47.63-.92.98-1.36.69-.88,1.47-1.7,2.32-2.44,1.77-1.38,3.79-2.52,6.03-3.02,1.12-.24,2.29-.32,3.43-.12,1.13.21,2.19.5,3.27.85,1.07.35,2.12.77,3.11,1.33.97.58,1.96,1.25,2.56,2.37.12.29.25.59.24.96,0,.38-.16.69-.29.94-.28.52-.6.98-.94,1.44-.69.9-1.45,1.73-2.31,2.48-.86.74-1.81,1.4-2.92,1.81-1.12.44-2.33.35-3.43.29-2.24-.21-4.43-.67-6.58-1.24-1.06-.36-2.11-.74-3.12-1.21-1.01-.46-2.04-.91-2.92-1.58Zm0,0c.88.69,1.96,1.01,3.01,1.34,1.06.3,2.14.54,3.22.77,2.12.56,4.29,1.02,6.46,1.22,1.08.07,2.17.14,3.13-.25.98-.37,1.88-.98,2.69-1.68.81-.71,1.55-1.52,2.21-2.38.32-.43.63-.88.88-1.34.13-.24.21-.44.21-.62.01-.2-.08-.42-.17-.64-.45-.87-1.36-1.53-2.28-2.07-.93-.53-1.95-.94-2.98-1.28-1.03-.34-2.11-.63-3.16-.82-1.04-.18-2.12-.11-3.17.12-2.1.47-4.04,1.56-5.75,2.89-.89.62-1.75,1.31-2.56,2.06-.4.38-.78.78-1.12,1.21-.17.22-.33.44-.46.69-.11.23-.3.52-.16.77Z"/><path class="cls-25" d="m509.11,796s11.89-14.25-13.21-33.88c-25.1-19.63-48.22-41.1-48.22-41.1l-17.76-28.13-10.83-.82s7.45,24.36,16.7,43.34c9.25,18.98,29.06,56.63,40.29,63.89,11.23,7.27,30.3,4.1,33.03-3.3Z"/></g></svg>