<?xml version="1.0" encoding="UTF-8" standalone="no"?>
<!DOCTYPE svg PUBLIC "-//W3C//DTD SVG 1.1//EN" "http://www.w3.org/Graphics/SVG/1.1/DTD/svg11.dtd">
<svg width="100%" height="100%" viewBox="0 0 3508 2481" version="1.1" xmlns="http://www.w3.org/2000/svg" xmlns:xlink="http://www.w3.org/1999/xlink" xml:space="preserve" xmlns:serif="http://www.serif.com/" style="fill-rule:evenodd;clip-rule:evenodd;stroke-linecap:round;stroke-linejoin:round;stroke-miterlimit:10;">
    <g transform="matrix(4.16667,0,0,4.16667,-42.731,-1027.94)">
        <clipPath id="_clip1">
            <rect x="0.397" y="338.902" width="584.586" height="502.988" clip-rule="nonzero"/>
        </clipPath>
        <g clip-path="url(#_clip1)">
            <g transform="matrix(1,0,0,1,127.504,828.395)">
                <path d="M0,-162.719C0,-162.719 -37.087,-4.327 -32.189,-0C-27.291,4.327 -18.894,-0.865 -18.894,-0.865C-18.894,-0.865 0,-158.391 9.097,-158.391C18.194,-158.391 77.674,-137.618 83.272,-128.098C88.87,-118.577 80.473,1.731 83.272,5.193C86.071,8.655 95.168,11.252 95.168,6.058C95.168,0.865 93.068,-121.174 93.068,-127.233C93.068,-133.291 4.898,-173.971 0,-162.719" style="fill:rgb(12,1,0);fill-rule:nonzero;"/>
            </g>
            <g transform="matrix(1,0,0,1,62.4261,890.712)">
                <path d="M0,-162.718C0,-162.718 -37.087,-4.327 -32.189,0C-27.291,4.328 -18.894,-0.865 -18.894,-0.865C-18.894,-0.865 0,-158.391 9.097,-158.391C18.194,-158.391 77.673,-137.618 83.271,-128.098C88.87,-118.576 80.473,1.731 83.271,5.193C86.071,8.655 95.167,11.252 95.167,6.058C95.167,0.866 93.068,-121.173 93.068,-127.232C93.068,-133.29 4.898,-173.97 0,-162.718" style="fill:rgb(29,7,1);fill-rule:nonzero;"/>
            </g>
            <g transform="matrix(1,0,0,1,223.78,848.846)">
                <path d="M0,-187.271C0,-187.271 88.434,-156.041 102.026,-142.447C115.62,-128.854 105.466,-79.461 105.935,-73.836C106.403,-68.211 98.634,0 98.634,0L62.304,-3.964L-36.502,-127.642C-36.502,-127.642 -29.999,-155.397 -27.655,-156.334C-25.312,-157.272 0,-187.271 0,-187.271" style="fill:rgb(21,49,88);fill-rule:nonzero;"/>
            </g>
            <g transform="matrix(1,0,0,1,206.158,802.852)">
                <path d="M0,-54.411L12.991,-109.236L25.321,-102.19C25.321,-102.19 69.357,-79.291 85.21,-62.998C93.174,-54.813 95.339,8.342 95.339,8.342L96.939,54.825L42.055,44.451C42.055,44.451 34.128,-19.182 22.238,-25.126C10.349,-31.071 -7.927,-35.915 -7.927,-35.915" style="fill:rgb(26,54,95);fill-rule:nonzero;"/>
            </g>
            <g transform="matrix(0.00320298,0.999995,0.999995,-0.00320298,420.971,772.138)">
                <path d="M-68.667,-89.219L80.257,-89.219L89.503,-69.442L-66.259,-68.388L-68.667,-89.219Z" style="fill:rgb(96,55,26);fill-rule:nonzero;"/>
            </g>
            <g transform="matrix(0.797854,-0.602851,-0.602851,-0.797854,399.384,851.871)">
                <path d="M-43.976,20.704L-24.977,20.704L58.647,126.799L47.448,141.952L-43.976,20.704Z" style="fill:rgb(87,47,20);fill-rule:nonzero;"/>
            </g>
            <g transform="matrix(-0.0159758,0.999872,0.999872,0.0159758,601.606,685.225)">
                <path d="M-88.444,-103.918L97.023,-103.918L102.287,-88.029L-85.077,-87.073L-88.444,-103.918Z" style="fill:rgb(96,55,26);fill-rule:nonzero;"/>
            </g>
            <g transform="matrix(0.868709,-0.495324,-0.495324,-0.868709,558.313,778.517)">
                <path d="M-44.026,16.382L-29.625,16.382L58.2,159.777L49.219,173.27L-44.026,16.382Z" style="fill:rgb(87,47,20);fill-rule:nonzero;"/>
            </g>
            <g transform="matrix(-0.0162623,0.999868,0.999868,0.0162623,479.045,671.715)">
                <path d="M-86.76,-102.236L95.44,-102.236L100.603,-86.348L-83.461,-85.39L-86.76,-102.236Z" style="fill:rgb(96,55,26);fill-rule:nonzero;"/>
            </g>
            <g transform="matrix(0.872481,-0.488648,-0.488648,-0.872481,436.004,763.814)">
                <path d="M-42.664,15.773L-28.325,15.773L56.95,157.255L47.803,170.566L-42.664,15.773Z" style="fill:rgb(87,47,20);fill-rule:nonzero;"/>
            </g>
            <g transform="matrix(-0.884917,0.465748,0.465748,0.884917,402.137,693.433)">
                <path d="M-35.52,-130.125L181.378,-130.125L17.254,-0.935L-192.587,-23.675L-35.52,-130.125Z" style="fill:rgb(127,76,44);fill-rule:nonzero;"/>
            </g>
            <g transform="matrix(-0.884917,0.465748,0.465748,0.884917,402.02,711.208)">
                <path d="M-35.916,-130.026L180.982,-130.026L16.857,-0.837L-196.401,-30.975L-35.916,-130.026Z" style="fill:rgb(127,76,44);fill-rule:nonzero;"/>
            </g>
            <g transform="matrix(-0.925891,-0.37779,-0.37779,0.925891,438.49,621.491)">
                <path d="M-7.386,-44.19C-4.866,-43.597 3.746,-37.592 4.276,-31.533C4.805,-25.473 -7.386,2.407 -7.386,2.407C-7.386,2.407 -21.309,-8.311 -20.605,-10.21C-19.901,-12.109 -9.656,-44.723 -7.386,-44.19" style="fill:rgb(26,54,95);fill-rule:nonzero;"/>
            </g>
            <g transform="matrix(1,0,0,1,431.462,621.994)">
                <path d="M0,-33.535C-2.603,-33.619 -41.25,-38.051 -41.25,-38.051C-41.25,-38.051 -57.211,-27.855 -59.394,-14.03C-61.577,-0.206 -37.901,1.716 -37.901,1.716L12.957,4.516L15.887,-32.443L0,-33.535Z" style="fill:rgb(68,138,201);fill-rule:nonzero;"/>
            </g>
            <g transform="matrix(-0.993878,-0.110484,-0.110484,0.993878,389.532,579.319)">
                <path d="M-72.494,-3.987L-6.032,-3.987L-0.413,5.742L-57.818,5.002C-57.818,5.002 -62.489,-2.04 -72.494,-3.987" style="fill:rgb(26,98,148);fill-rule:nonzero;"/>
            </g>
            <g transform="matrix(1,0,0,1,442.032,567.507)">
                <path d="M0,-19.524L0.765,-16.315L-6.297,-12.78L-6.418,-9.02L-12.276,-6.893L-22.92,0C-22.92,0 -30.625,-3.433 -28.358,-10.886C-28.358,-10.886 -17.183,-16.315 -16.026,-16.278C-14.869,-16.241 -9.897,-17.817 -9.897,-17.817L-7.351,-15.998L0,-19.524Z" style="fill:rgb(186,188,190);fill-rule:nonzero;"/>
            </g>
            <g transform="matrix(0.0738073,0.997273,0.997273,-0.0738073,362.309,571.664)">
                <path d="M16.232,-17.803C16.232,-17.803 33.185,-18.607 28.158,-12.381C27.386,-11.426 16.232,17.695 16.232,17.695L1.962,14.852L16.232,-17.803Z" style="fill:rgb(68,138,201);fill-rule:nonzero;"/>
            </g>
            <g transform="matrix(1,0,0,1,414.868,574.307)">
                <path d="M0,-18.805C0,-18.805 -1.39,-20.587 -4.627,-18.954C-7.864,-17.323 -15.812,-13.237 -15.812,-13.237C-15.812,-13.237 -17.93,-1.436 -7.902,1.782L5.363,-5.606C5.363,-5.606 9.972,-4.878 0,-18.805" style="fill:rgb(26,98,148);fill-rule:nonzero;"/>
            </g>
            <g transform="matrix(1,0,0,1,377.265,577.833)">
                <path d="M0,-5.308C0,-5.308 -0.195,-8.209 6.521,-10.019C13.237,-11.829 21.792,-16.763 21.792,-16.763C21.792,-16.763 19.44,-6.707 29.701,-1.745L-0.83,11.455C-0.83,11.455 -6.894,1.996 0,-5.308" style="fill:rgb(251,218,101);fill-rule:nonzero;"/>
            </g>
            <g transform="matrix(1,0,0,1,401.109,583.487)">
                <path d="M0,-5.271L-1.772,-4.17C-1.772,-4.17 -0.467,0.214 -2.23,1.026C-3.993,1.837 -9.926,-11.67 -9.926,-11.67L-11.409,-10.56C-11.409,-10.56 -6.167,6.399 -4.403,5.587C-2.641,4.776 2.947,2.061 2.947,2.061L0,-5.271Z" style="fill:rgb(26,54,95);fill-rule:nonzero;"/>
            </g>
            <g transform="matrix(1,0,0,1,378.589,594.158)">
                <path d="M0,-17.827C0,-17.827 -0.363,-15.523 0.122,-12.612C0.606,-9.702 1.399,-7.36 -2.705,-5.756C-6.81,-4.152 -6.408,1.361 -5.896,3.404L18.116,-5.084L11.11,-21.231L0,-17.827Z" style="fill:rgb(68,138,201);fill-rule:nonzero;"/>
            </g>
            <g transform="matrix(1,0,0,1,93.4158,756.177)">
                <path d="M0,-64.744C0,-64.744 -27.5,-30.37 -32.187,-57.557C-32.187,-57.557 -32.734,-54.548 -31.875,-66.619C-36.397,-49.393 -38.124,-31.932 -38.124,-31.932C-33.437,-4.746 72.966,10.253 72.966,10.253C92.696,-4.114 98.784,-22.209 99.587,-37.615C96.363,-25.898 14.077,-74.997 0,-64.744" style="fill:rgb(44,23,13);fill-rule:nonzero;"/>
            </g>
            <g transform="matrix(1,0,0,1,107.634,713.306)">
                <path d="M0,-191.947C0,-191.947 -62.811,-188.666 -66.092,-181.635C-69.373,-174.604 -47.811,-137.574 -47.343,-115.544C-46.874,-93.512 -41.718,-26.718 -50.155,-2.812L8.437,0L0,-191.947Z" style="fill:rgb(44,23,13);fill-rule:nonzero;"/>
            </g>
            <g transform="matrix(1,0,0,1,110.447,660.34)">
                <path d="M0,-79.686C0,-79.686 -48.983,-74.295 -48.983,-68.436C-48.983,-62.578 -46.171,-9.375 -45.937,-4.688C-45.702,0 -8.438,-8.438 -8.438,-8.438L6.796,-21.329L0,-79.686Z" style="fill:rgb(42,26,10);fill-rule:nonzero;"/>
            </g>
            <g transform="matrix(1,0,0,1,87.4783,771.56)">
                <path d="M0,-119.658C0,-119.658 -8.741,-71.555 -5.625,-61.066C-2.201,-49.541 14.531,-24.973 50.624,-18.88C86.716,-12.786 126.606,0 126.606,0L131.715,-100.44L0,-119.658Z" style="fill:rgb(26,54,95);fill-rule:nonzero;"/>
            </g>
            <g transform="matrix(1,0,0,1,294.777,682.175)">
                <path d="M0,-29.413C0,-29.413 -1.992,-13.945 -1.406,-14.062C-0.82,-14.18 41.014,-5.976 42.655,-6.797C44.295,-7.617 40.545,1.055 39.256,1.055C37.967,1.055 -10.898,-8.32 -10.898,-8.32C-10.898,-8.32 -9.961,-23.788 -9.844,-24.257C-9.727,-24.726 -5.273,-30.233 -4.805,-30.35C-4.336,-30.468 0,-29.413 0,-29.413" style="fill:rgb(26,98,148);fill-rule:nonzero;"/>
            </g>
            <g transform="matrix(1,0,0,1,293.879,605.967)">
                <path d="M0,-8.439C0,-8.439 5.859,-16.876 11.718,-17.579C17.578,-18.282 20.39,-19.922 27.89,-19.219C35.389,-18.516 34.686,-22.969 44.53,-19.688C54.374,-16.407 68.201,-13.36 69.607,-11.016C71.013,-8.673 72.888,9.608 72.888,9.608C72.888,9.608 60.233,14.53 57.186,11.014C54.139,7.499 46.874,4.217 36.795,4.686C26.718,5.155 27.656,5.155 19.921,3.983C12.187,2.811 -0.937,-8.439 -0.937,-8.439" style="fill:rgb(178,108,68);fill-rule:nonzero;"/>
            </g>
            <g transform="matrix(1,0,0,1,362.163,615.139)">
                <path d="M0,-0.344L-15.854,-6.412C-15.854,-6.412 -38.158,-8.089 -40.081,-5.772C-42.004,-3.454 -25.764,6.669 -25.764,6.669C-25.764,6.669 -2.563,7.745 -1.86,6.969C-1.158,6.194 3.813,1.875 0,-0.344" style="fill:rgb(60,26,2);fill-rule:nonzero;"/>
            </g>
            <g transform="matrix(1,0,0,1,189.272,686.667)">
                <path d="M0,-224.604C0,-224.604 -14.765,-221.791 -28.827,-215.932C-42.89,-210.073 -59.061,-206.557 -64.451,-200.463C-69.842,-194.37 -83.435,-172.105 -85.076,-166.246C-86.716,-160.386 -87.888,-149.372 -86.482,-142.106C-85.076,-134.84 -88.826,-132.262 -89.06,-125.7C-89.294,-119.138 -87.888,-109.763 -87.888,-109.763C-87.888,-109.763 -89.06,-102.498 -88.357,-101.326C-87.654,-100.154 -90.232,-99.919 -93.279,-86.327C-96.325,-72.733 -99.138,-63.124 -99.606,-61.483C-100.075,-59.842 -109.45,-48.593 -105.231,-38.75C-101.013,-28.906 -18.75,-0.625 -4.375,-0.313C10,0 39.374,-15.313 44.374,-30.625L49.374,-45.937L66.248,-88.749C66.248,-88.749 59.686,-71.561 71.561,-68.124C83.435,-64.686 117.184,-98.435 117.184,-98.435C117.184,-98.435 108.434,-107.185 108.122,-114.685C107.809,-122.185 105.622,-132.809 105.622,-132.809C105.622,-132.809 111.247,-146.247 106.56,-161.246C101.872,-176.246 108.122,-179.996 97.497,-186.871C86.873,-193.745 79.685,-199.995 72.498,-201.245C65.311,-202.495 65.936,-207.807 54.686,-202.495C43.436,-197.182 28.437,-195.932 24.999,-199.37C21.562,-202.807 0,-224.604 0,-224.604" style="fill:rgb(85,192,166);fill-rule:nonzero;"/>
            </g>
            <g transform="matrix(1,0,0,1,244.21,673.36)">
                <path d="M0,-43.76L-63.138,-9.759L-5.024,0" style="fill:rgb(127,76,44);fill-rule:nonzero;"/>
            </g>
            <g transform="matrix(1,0,0,1,207.006,519.015)">
                <path d="M0,-23.203C0,-23.203 14.765,0 19.687,-5.625C24.608,-11.25 30.702,-21.797 31.874,-22.5C33.046,-23.203 0,-23.203 0,-23.203" style="fill:rgb(180,109,69);fill-rule:nonzero;"/>
            </g>
            <g transform="matrix(1,0,0,1,225.443,461.127)">
                <path d="M0,49.92C0,49.92 -12.109,38.67 -17.031,34.217C-21.953,29.765 -28.515,16.171 -29.687,11.015C-30.858,5.858 -31.093,-3.984 -31.093,-3.984C-31.093,-3.984 -36.015,-0.235 -38.358,2.812C-40.702,5.858 -45.858,6.796 -47.264,12.655C-48.67,18.515 -48.905,33.515 -48.905,33.515C-48.905,33.515 -38.358,38.201 -34.14,37.967C-29.921,37.732 -19.14,41.014 -14.921,43.826C-10.703,46.639 -2.031,53.904 -2.031,53.904L0,49.92Z" style="fill:rgb(74,170,147);fill-rule:nonzero;"/>
            </g>
            <g transform="matrix(1,0,0,1,238.099,623.778)">
                <path d="M0,-127.106C0,-127.106 -14.921,-115.309 -15.156,-105.7C-15.39,-96.09 -16.796,-86.013 -17.265,-79.919C-17.734,-73.826 -18.437,-68.904 -18.203,-66.794C-17.968,-64.685 -17.968,-63.982 -18.437,-59.764C-18.906,-55.545 -22.421,-47.577 -22.187,-39.842C-21.953,-32.108 -26.64,-31.639 -23.125,-22.5C-19.609,-13.359 -19.843,-7.5 -20.312,-3.984C-20.781,-0.468 -16.093,0 -14.921,-0.468C-13.75,-0.937 -11.875,-8.437 -11.875,-9.375C-11.875,-10.312 -14.687,-19.921 -14.921,-24.609C-15.156,-29.295 -14.453,-31.405 -14.921,-37.499C-15.39,-43.592 -10.234,-57.186 -9.765,-64.451C-9.296,-71.716 -9.296,-77.576 -9.062,-82.732C-8.828,-87.888 -9.296,-97.028 -8.359,-104.528C-7.422,-112.028 -0.312,-122.809 1.562,-124.684C3.438,-126.559 0,-127.106 0,-127.106" style="fill:rgb(78,177,153);fill-rule:nonzero;"/>
            </g>
            <g transform="matrix(1,0,0,1,259.27,516.671)">
                <path d="M0,76.874C0,76.874 6.328,61.171 10.312,52.968C14.296,44.766 14.296,41.719 17.109,33.984C19.921,26.25 20.156,19.453 23.671,16.641C27.187,13.828 27.187,14.297 24.843,17.812C22.499,21.328 19.218,31.172 19.218,31.172C19.218,31.172 26.249,28.594 27.89,27.891C29.53,27.187 26.015,36.094 25.312,36.562C24.608,37.031 19.921,35.625 16.875,41.25C13.828,46.874 14.296,49.921 14.296,49.921C14.296,49.921 19.218,48.28 24.843,39.141C30.468,30 32.812,22.266 33.28,16.172C33.749,10.079 32.812,-2.812 32.812,-2.812C32.812,-2.812 35.624,0.704 34.218,18.75C32.812,36.797 23.437,47.577 19.687,50.39C15.937,53.202 9.843,56.952 9.843,57.89C9.843,58.827 2.344,77.811 1.406,78.749C0.469,79.686 0,76.874 0,76.874" style="fill:rgb(74,170,147);fill-rule:nonzero;"/>
            </g>
            <g transform="matrix(1,0,0,1,264.895,537.999)">
                <path d="M0,59.764C-1.149,52.868 18.281,39.609 22.031,31.171C25.781,22.735 29.296,16.172 30.234,11.25C31.171,6.328 31.406,-1.406 31.406,-0.703C31.406,0 29.531,23.438 28.593,26.015C27.656,28.593 21.093,39.14 17.578,45.702C14.063,52.265 8.203,57.421 13.359,57.421C18.515,57.421 31.874,53.906 33.749,53.202C35.624,52.499 40.546,51.093 37.968,53.437C35.39,55.781 26.484,55.077 20.39,57.656C14.297,60.233 5.625,58.358 3.281,59.53C0.937,60.701 0.234,61.17 0,59.764" style="fill:rgb(74,170,147);fill-rule:nonzero;"/>
            </g>
            <g transform="matrix(1,0,0,1,270.989,497.418)">
                <path d="M0,49.253C-0.392,50.624 4.453,8.473 1.875,-1.371C1.875,-1.371 0,0.504 -0.234,7.535C-0.469,14.566 0.469,47.612 0,49.253" style="fill:rgb(74,170,147);fill-rule:nonzero;"/>
            </g>
            <g transform="matrix(1,0,0,1,196.694,535.654)">
                <path d="M0,-8.904C-3.046,-15.232 -11.718,-36.795 -12.187,-37.732C-12.656,-38.67 -8.203,-18.982 -9.609,-4.217C-11.015,10.548 -13.828,25.079 -14.296,26.017C-14.765,26.953 -11.015,29.766 -9.14,16.642C-7.265,3.517 -6.093,-13.591 -3.984,-10.076C-1.875,-6.561 0.703,13.361 2.578,8.204C4.453,3.048 0,-8.904 0,-8.904" style="fill:rgb(77,176,152);fill-rule:nonzero;"/>
            </g>
            <g transform="matrix(-0.992818,0.119636,0.119636,0.992818,181.167,531.286)">
                <path d="M8.181,-51.115C7.449,-43.473 0.863,-0.188 0.975,0.742C1.087,1.674 7.7,-27.687 8.181,-31.522C8.664,-35.358 10.163,-52.298 8.069,-52.045C5.975,-51.793 8.181,-51.115 8.181,-51.115" style="fill:rgb(77,176,152);fill-rule:nonzero;"/>
            </g>
            <g transform="matrix(1,0,0,1,259.505,428.55)">
                <path d="M0,16.639C0,16.639 9.375,7.264 5.156,-0.939C5.156,-0.939 1.992,-3.516 -3.047,1.639C-3.047,1.639 -2.344,20.155 0,16.639" style="fill:rgb(193,117,74);fill-rule:nonzero;"/>
            </g>
            <g transform="matrix(-0.698338,-0.715768,-0.715768,0.698338,177.033,438.584)">
                <path d="M-3.429,-18.556C-3.429,-18.556 4.888,-21.105 6.656,-16.608C8.424,-12.111 1.567,-7.059 -3.429,-5.132C-8.425,-3.204 -16.612,2.164 -18.912,0.479C-21.212,-1.207 -15.815,-8.765 -15.815,-8.765" style="fill:rgb(195,118,75);fill-rule:nonzero;"/>
            </g>
            <g transform="matrix(1,0,0,1,258.528,438.861)">
                <path d="M0,-5.742C0.586,-6.094 4.687,-9.844 5.507,-9.844C6.328,-9.844 7.031,-5.976 6.093,-4.57C5.156,-3.164 1.641,4.102 1.523,3.399C1.406,2.696 3.867,-4.336 3.867,-5.859C3.867,-7.383 2.227,-6.562 1.875,-5.976C1.523,-5.39 0.82,0.117 0.469,-0.234C0.117,-0.586 0,-5.742 0,-5.742" style="fill:rgb(188,114,72);fill-rule:nonzero;"/>
            </g>
            <g transform="matrix(1,0,0,1,192.671,434.292)">
                <path d="M0,-1.173C0,-1.173 -2.344,-8.555 -5.859,-10.313C-9.375,-12.07 -10.781,-6.915 -10.664,-4.571C-10.547,-2.228 -10.43,-0.587 -9.492,1.054C-8.555,2.694 -6.211,9.257 -5.273,10.077C-4.336,10.897 -1.523,10.663 -3.281,8.671C-5.039,6.679 -6.562,4.804 -7.031,2.577C-7.5,0.35 -7.969,-2.814 -7.734,-3.751C-7.5,-4.689 -5.859,-9.258 -4.805,-7.5C-3.75,-5.743 -5.859,-6.564 -5.742,-3.165C-5.625,0.233 -6.797,3.749 -5.039,5.741C-3.281,7.733 -1.172,9.96 -2.695,7.382C-4.219,4.804 -5.391,-0.001 -4.219,-1.29C-3.047,-2.579 0.117,0.233 0,-1.173" style="fill:rgb(208,125,80);fill-rule:nonzero;"/>
            </g>
            <g transform="matrix(1,0,0,1,208.881,491.126)">
                <path d="M0,-110.622C-3.148,-107.924 -16.406,-96.794 -17.812,-91.169C-19.218,-85.545 -16.289,-68.318 -16.289,-68.318C-16.289,-68.318 -14.062,-31.64 -12.422,-25.781C-10.781,-19.922 11.015,1.406 18.515,0.703C26.015,0 45.233,-25.781 48.045,-35.858C50.858,-45.936 49.92,-52.382 49.452,-55.897C48.983,-59.413 48.514,-70.779 49.452,-75.467C50.389,-80.154 51.795,-87.42 49.92,-91.872C48.045,-96.326 41.483,-103.591 36.562,-105.701C31.64,-107.809 1.641,-112.028 0,-110.622" style="fill:rgb(201,121,77);fill-rule:nonzero;"/>
            </g>
            <g transform="matrix(1,0,0,1,235.755,447.221)">
                <path d="M0,-55.936C-1.562,-51.717 4.219,-51.717 6.406,-48.905C8.594,-46.092 2.031,-43.749 7.812,-38.905C13.593,-34.061 12.968,-34.686 12.968,-34.686C12.968,-34.686 14.062,-31.405 15.781,-29.374C17.5,-27.343 18.593,-22.03 17.187,-19.687C15.781,-17.344 14.062,-16.562 14.062,-16.562C14.062,-16.562 20.625,-7.5 20.625,-3.906C20.625,-0.312 24.375,5.469 22.968,-1.719C21.562,-8.906 21.718,-20.936 21.718,-25.311C21.718,-29.686 24.218,-37.499 23.75,-42.499C23.281,-47.498 15.625,-58.28 13.125,-59.842C10.625,-61.405 0,-55.936 0,-55.936" style="fill:rgb(196,116,76);fill-rule:nonzero;"/>
            </g>
            <g transform="matrix(1,0,0,1,203.1,420.972)">
                <path d="M0,-9.844C-0.054,-9.641 -0.104,-9.432 -0.149,-9.218C-1.157,-4.48 -0.143,2.852 0.156,3.75C0.469,4.687 -0.469,6.093 0.156,8.28C0.781,10.468 -0.937,12.03 -2.188,16.405C-3.438,20.78 -7.187,28.124 -7.5,28.749C-7.812,29.374 -8.906,24.218 -10.156,16.874C-11.406,9.53 -11.718,2.031 -11.718,-2.501C-11.718,-7.031 -11.25,-29.375 -2.813,-33.75C5.625,-38.124 12.343,-39.218 8.438,-30.156C4.531,-21.094 0,-9.844 0,-9.844" style="fill:rgb(196,116,76);fill-rule:nonzero;"/>
            </g>
            <g transform="matrix(1,0,0,1,216.029,441.674)">
                <path d="M0,-3.047C-2.285,-1.031 -8.671,0.937 -10.312,-2.578C-11.953,-6.094 -11.718,-11.602 -13.593,-10.313C-15.468,-9.024 -20.624,-2.11 -17.929,1.172C-15.234,4.453 -14.062,8.555 -10.195,6.445C-6.328,4.336 5.625,-1.992 5.859,-2.93C6.094,-3.867 1.992,-4.805 0,-3.047" style="fill:rgb(208,125,80);fill-rule:nonzero;"/>
            </g>
            <g transform="matrix(-0.312655,0.949867,0.949867,0.312655,248.283,439.944)">
                <path d="M2.06,-8.974C0.477,-6.465 1.48,-5.711 1.82,-3.748C2.162,-1.785 1.167,-0.262 2.06,0.772C2.954,1.806 6.811,2.829 6.541,-0.097C6.27,-3.023 2.834,-10.199 2.06,-8.974" style="fill:rgb(208,125,80);fill-rule:nonzero;"/>
            </g>
            <g transform="matrix(1,0,0,1,231.029,446.009)">
                <path d="M0,-2.226C-1.881,-2.397 -4.921,-3.867 -6.21,-3.398C-7.5,-2.929 -10.429,-1.874 -8.203,-1.64C-5.976,-1.406 -4.687,-1.64 -3.75,-0.585C-2.812,0.469 -0.469,1.641 1.055,0.821C2.578,0.001 2.578,-1.992 0,-2.226" style="fill:rgb(208,125,80);fill-rule:nonzero;"/>
            </g>
            <g transform="matrix(1,0,0,1,226.459,441.205)">
                <path d="M0,-4.102C-2.254,-4.102 -3.164,-4.336 -1.758,-2.93C-0.352,-1.524 1.172,0.234 1.758,-1.055C2.344,-2.344 1.055,-4.102 0,-4.102" style="fill:rgb(208,125,80);fill-rule:nonzero;"/>
            </g>
            <g transform="matrix(1,0,0,1,225.756,426.088)">
                <path d="M0,-13.476C-3.302,-12.876 -14.765,-16.054 -12.07,-13.476C-9.375,-10.898 -2.695,-11.249 -1.875,-7.734C-1.055,-4.218 -1.172,2.578 1.641,0.235C4.453,-2.109 9.96,-7.617 11.015,-9.843C12.07,-12.07 5.156,-14.413 0,-13.476" style="fill:rgb(208,125,80);fill-rule:nonzero;"/>
            </g>
            <g transform="matrix(1,0,0,1,220.834,461.751)">
                <path d="M0,-6.796C-0.547,-6.718 -7.187,-6.562 -6.836,-6.132C-6.484,-5.702 -0.898,0.195 8.242,-0.078C17.382,-0.352 20.937,-3.476 20.937,-3.866C20.937,-4.257 21.757,-4.96 19.062,-5.507C16.367,-6.054 7.617,-6.757 5.664,-6.874C3.711,-6.991 0,-6.796 0,-6.796" style="fill:rgb(205,129,156);fill-rule:nonzero;"/>
            </g>
            <g transform="matrix(1,0,0,1,217.992,462.942)">
                <path d="M0,-4.716C0,-4.716 5.068,-3.954 6.035,-3.749C7.002,-3.544 11.25,-3.573 11.66,-3.31C12.07,-3.046 15.146,-2.929 15.878,-2.841C16.611,-2.753 18.076,-3.427 18.544,-3.163C19.013,-2.9 21.708,-4.071 21.708,-3.661C21.708,-3.251 12.568,0 12.568,0L2.344,-2.636L0,-4.716Z" style="fill:rgb(172,109,133);fill-rule:nonzero;"/>
            </g>
            <g transform="matrix(1,0,0,1,240.794,458.959)">
                <path d="M0,-2.344C0,-2.344 -2.813,-2.754 -3.223,-2.168C-3.633,-1.582 -3.867,0.41 -3.633,0.293C-3.398,0.176 -2.637,-0.586 -1.816,-0.762C-0.996,-0.938 -0.117,-1.289 -0.059,-1.465C0,-1.641 0,-2.344 0,-2.344" style="fill:rgb(232,233,234);fill-rule:nonzero;"/>
            </g>
            <g transform="matrix(1,0,0,1,215.775,458.197)">
                <path d="M0,-2.871C0.059,-2.695 -0.117,-1.348 0.527,-0.937C1.172,-0.527 1.289,0.352 2.109,-0.176C2.93,-0.703 4.395,-1.699 4.395,-1.699C4.395,-1.699 3.223,-3.223 3.047,-3.105C2.871,-2.988 0,-2.871 0,-2.871" style="fill:rgb(232,233,234);fill-rule:nonzero;"/>
            </g>
            <g transform="matrix(1,0,0,1,236.634,460.247)">
                <path d="M0,-3.632C0,-3.632 1.172,-3.984 1.172,-3.573C1.172,-3.163 0.645,-1.581 0.527,-0.995C0.41,-0.409 0.117,-0.116 -0.234,-0.175C-0.586,-0.234 -0.937,0.352 -0.937,-0.644C-0.937,-1.64 -0.352,-3.573 0,-3.632" style="fill:rgb(239,240,241);fill-rule:nonzero;"/>
            </g>
            <g transform="matrix(-0.662854,0.748749,0.748749,0.662854,223.146,457.308)">
                <path d="M1.076,-4.117C1.076,-4.117 3.901,-2.712 3.616,-1.948C3.33,-1.183 1.53,1.293 1.076,0.656C0.622,0.019 -0.094,-2.884 0.401,-3.62C0.896,-4.356 1.076,-4.117 1.076,-4.117" style="fill:rgb(239,240,241);fill-rule:nonzero;"/>
            </g>
            <g transform="matrix(1,0,0,1,233.587,460.95)">
                <path d="M0,-4.569C0,-3.866 -0.234,-2.987 -0.293,-2.46C-0.352,-1.932 -0.293,-0.76 0.059,-0.702C0.41,-0.643 1.758,0 2.109,-1.346C2.461,-2.694 2.871,-4.276 2.637,-4.393C2.402,-4.51 0,-4.569 0,-4.569" style="fill:rgb(245,245,245);fill-rule:nonzero;"/>
            </g>
            <g transform="matrix(1,0,0,1,229.135,456.732)">
                <path d="M0,2.93C0.059,3.164 0.117,3.809 1.523,3.809C2.929,3.809 4.101,3.809 4.277,3.34C4.453,2.871 4.218,-0.175 3.867,-0.527C3.515,-0.879 0.937,-0.293 0.761,0.176C0.585,0.645 0,2.93 0,2.93" style="fill:rgb(250,250,250);fill-rule:nonzero;"/>
            </g>
            <g transform="matrix(-0.903971,0.427593,0.427593,0.903971,228.662,460.277)">
                <path d="M-0.359,-4.723C0.486,-4.994 2.406,-4.086 3.326,-1.865C3.326,-1.865 0.26,0.557 -0.359,0.073C-0.977,-0.412 -2.105,-1.565 -1.971,-2.924C-1.836,-4.284 -0.359,-4.723 -0.359,-4.723" style="fill:white;fill-rule:nonzero;"/>
            </g>
            <g transform="matrix(1,0,0,1,223.92,459.896)">
                <path d="M0,-4.57C0,-4.57 1.23,-2.05 1.172,-1.699C1.113,-1.347 1.758,0.176 0.937,0.117C0.117,0.059 -1.641,0.762 -1.875,-0.293C-2.109,-1.347 -2.109,-3.925 -1.172,-4.629C-0.234,-5.332 0,-4.57 0,-4.57" style="fill:rgb(245,245,245);fill-rule:nonzero;"/>
            </g>
            <g transform="matrix(1,0,0,1,258.02,427.884)">
                <path d="M0,18.477C0,18.477 -0.41,7.696 -0.566,4.571C-0.723,1.446 -1.66,-3.085 -1.504,-5.116C-1.348,-7.147 0.059,-15.116 0.371,-18.71C0.684,-22.303 0.684,-26.522 -2.441,-31.209C-5.566,-35.897 -10.254,-40.897 -11.035,-40.74C-11.816,-40.584 -24.316,-37.459 -25.566,-36.834C-26.816,-36.209 -32.284,-37.615 -30.722,-37.772C-29.159,-37.928 -26.816,-38.709 -26.191,-39.49C-25.566,-40.272 -27.91,-40.115 -29.315,-39.49C-30.722,-38.865 -33.534,-37.928 -35.565,-36.209C-37.597,-34.49 -45.097,-32.303 -42.597,-33.553C-40.097,-34.803 -37.597,-36.365 -36.815,-37.147C-36.034,-37.928 -36.347,-37.303 -39.003,-36.365C-41.659,-35.428 -45.409,-35.272 -45.409,-35.272C-45.409,-35.272 -44.472,-36.522 -42.597,-37.928C-40.722,-39.334 -37.128,-41.053 -39.472,-40.74C-41.815,-40.428 -44.94,-39.803 -46.659,-38.24C-48.377,-36.678 -53.221,-34.49 -53.221,-34.49L-48.846,-38.865C-48.846,-38.865 -50.252,-38.24 -52.127,-36.834C-54.002,-35.428 -56.502,-35.897 -54.94,-37.147C-53.377,-38.397 -56.19,-37.147 -57.596,-34.49C-59.002,-31.834 -61.502,-29.334 -62.127,-24.647C-62.752,-19.96 -59.315,-16.366 -60.409,-13.71C-61.502,-11.053 -63.846,1.29 -64.314,3.477C-64.783,5.664 -62.908,13.165 -62.439,16.289C-61.971,19.414 -57.284,33.32 -55.096,33.632C-52.909,33.945 -45.565,37.539 -43.69,41.445C-41.815,45.351 -40.409,49.882 -37.597,49.57C-34.784,49.257 -31.972,45.039 -29.94,46.289C-27.91,47.539 -26.035,51.445 -21.816,49.726C-17.597,48.007 -15.253,41.757 -12.128,38.32C-9.004,34.882 -5.879,31.446 -3.848,28.165C-1.816,24.883 0.703,14.727 0.859,15.508C1.016,16.289 2.656,34.609 1.719,38.046C0.781,41.484 -3.398,53.749 -3.086,57.499C-2.773,61.249 -11.835,74.998 -12.929,74.842C-14.023,74.686 -26.914,70.936 -30.976,73.436C-35.038,75.936 -42.44,74.1 -45.409,71.288C-48.377,68.475 -47.909,73.163 -55.252,66.289C-62.596,59.414 -66.189,62.695 -65.252,51.445C-64.314,40.195 -62.284,36.445 -64.627,31.602C-66.971,26.758 -68.221,18.789 -66.814,15.196C-65.408,11.602 -64.939,2.227 -65.096,0.977C-65.252,-0.273 -68.064,-4.178 -68.846,-4.491C-68.846,-4.491 -70.408,-18.71 -68.846,-28.084C-67.283,-37.459 -57.284,-54.959 -37.44,-56.209C-17.597,-57.459 -5.566,-43.24 -2.441,-37.772C0.684,-32.303 4.434,-26.21 3.027,-17.46C1.621,-8.71 -0.098,-1.053 0.215,1.446C0.527,3.946 0.996,18.633 0.996,18.633L0,18.477Z" style="fill:rgb(29,7,1);fill-rule:nonzero;"/>
            </g>
            <g transform="matrix(1,0,0,1,222.904,419.643)">
                <path d="M0,-1.523C0,-1.523 -0.937,0.704 -3.398,-0.352C-5.859,-1.406 -12.656,-0.703 -13.71,-0.469C-14.765,-0.234 -17.695,1.055 -18.867,1.29C-20.039,1.524 -21.562,3.047 -20.625,1.524C-19.687,0 -15.937,-3.867 -14.531,-4.218C-13.125,-4.57 -9.258,-3.984 -6.445,-3.984C-3.633,-3.984 1.406,-3.398 0,-1.523" style="fill:rgb(29,7,1);fill-rule:nonzero;"/>
            </g>
            <g transform="matrix(1,0,0,1,239.31,425.034)">
                <path d="M0,-7.148C-0.291,-5.695 -2.461,-4.335 -1.523,-3.632C-0.586,-2.929 6.211,-4.453 7.968,-3.984C9.726,-3.515 12.89,-2.226 13.945,-1.523C15,-0.82 16.875,0.586 16.171,-0.703C15.468,-1.992 11.601,-6.445 9.492,-7.031C7.382,-7.617 0.117,-7.734 0,-7.148" style="fill:rgb(29,7,1);fill-rule:nonzero;"/>
            </g>
            <g transform="matrix(-0.999874,0.0158452,0.0158452,0.999874,218.273,446.162)">
                <path d="M-4.625,-6.994C-4.625,-6.994 -1.291,-3.649 -1.499,-2.004C-1.707,-0.36 -4.625,0.39 -4.625,0.39C-4.625,0.39 0.174,0.078 -0.694,-2.954C-1.562,-5.988 -3.811,-7.359 -4.625,-6.994" style="fill:rgb(177,101,60);fill-rule:nonzero;"/>
            </g>
            <g transform="matrix(-0.953348,-0.301874,-0.301874,0.953348,206.546,456.62)">
                <path d="M-5.093,-15.201C-6.524,-14.752 -0.747,-7.187 -1.643,-5.135C-2.539,-3.084 -6.675,0.277 -5.093,-0.45C-3.51,-1.178 0.485,-4.093 -0.406,-6.71C-1.299,-9.329 -3.728,-15.629 -5.093,-15.201" style="fill:rgb(199,113,69);fill-rule:nonzero;"/>
            </g>
            <g transform="matrix(-0.999659,-0.0261116,-0.0261116,0.999659,250.137,463.171)">
                <path d="M4.404,-14.238C3.982,-14.25 -0.518,-9.795 0.481,-7.659C1.48,-5.523 4.616,0.068 4.404,-0.758C4.19,-1.585 1.021,-5.886 1.185,-7.64C1.347,-9.395 4.99,-14.223 4.404,-14.238" style="fill:rgb(199,113,69);fill-rule:nonzero;"/>
            </g>
            <g transform="matrix(1,0,0,1,229.428,452.966)">
                <path d="M0,4.098C-0.902,4.375 -6.094,2.067 -8.984,2.536C-11.875,3.004 -15.391,2.614 -15.625,2.536C-15.859,2.457 -11.016,1.598 -7.344,0.66C-3.672,-0.277 -0.391,1.989 0.312,1.832C1.015,1.676 4.296,0.582 7.187,1.676C10.078,2.77 11.953,3.629 11.953,3.629C11.953,3.629 1.015,3.786 0,4.098" style="fill:rgb(171,89,72);fill-rule:nonzero;"/>
            </g>
            <g transform="matrix(1,0,0,1,229.818,461.283)">
                <path d="M0,-0.235C-2.202,-0.535 -7.968,-1.953 -10.625,-2.89C-13.281,-3.828 -15.781,-6.406 -16.015,-5.781C-16.25,-5.156 -12.812,-2.109 -11.718,-0.547C-10.625,1.015 -6.718,6.171 0.156,6.171C7.031,6.171 12.188,-2.656 12.031,-3.281C11.875,-3.906 10.547,-2.89 8.672,-2.109C6.797,-1.328 1.719,-0.001 0,-0.235" style="fill:rgb(178,93,76);fill-rule:nonzero;"/>
            </g>
            <g transform="matrix(0.997779,0.0666069,0.0666069,-0.997779,226.813,472.76)">
                <path d="M0.198,-0.072C-2.134,1.417 -6.335,4.543 -5.189,4.972C-4.043,5.4 -2.415,5.626 0.198,5.213C2.808,4.8 8.342,6.344 6.823,4.482C5.303,2.618 0.198,-0.072 0.198,-0.072" style="fill:rgb(29,7,1);fill-rule:nonzero;"/>
            </g>
            <g transform="matrix(1,0,0,1,228.138,475.658)">
                <path d="M0,-27.851C-1.055,-27.968 -4.062,-28.124 -8.164,-27.187C-12.266,-26.249 -12.617,-26.718 -16.132,-25.195C-19.648,-23.671 -21.406,-21.796 -19.765,-19.57C-18.125,-17.343 -19.648,-13.829 -18.945,-13.125C-18.242,-12.422 -20.117,-7.383 -18.71,-9.141C-17.304,-10.899 -16.601,-15.117 -16.484,-17.343C-16.367,-19.57 -15.313,-21.328 -11.445,-21.796C-7.578,-22.265 -3.008,-22.968 -1.25,-22.734C0.508,-22.499 0.977,-22.148 1.796,-22.148C2.617,-22.148 6.601,-23.32 9.531,-21.796C12.46,-20.273 14.921,-20.742 15.273,-19.218C15.625,-17.695 14.921,-10.43 14.57,-8.086C14.218,-5.743 12.226,-2.93 12.343,-1.993C12.46,-1.055 15.742,1.406 16.21,-0.704C16.679,-2.813 16.796,-9.258 17.031,-10.313C17.265,-11.368 21.171,-19.453 19.179,-22.968C17.187,-26.484 15.742,-26.601 13.046,-27.07C10.351,-27.539 7.734,-29.257 6.093,-27.499C4.453,-25.742 5.312,-26.132 3.906,-26.132C2.5,-26.132 0,-27.851 0,-27.851" style="fill:rgb(29,7,1);fill-rule:nonzero;"/>
            </g>
            <g transform="matrix(1,0,0,1,219.506,425.004)">
                <path d="M0,0.831C0,0.831 -6.553,2.578 -11.65,0.177C-11.65,0.177 -9.199,-1.747 -5.391,-1.63C-1.582,-1.513 1.055,0.011 0,0.831" style="fill:white;fill-rule:nonzero;"/>
            </g>
            <g transform="matrix(-0.0535954,0.998563,0.998563,0.0535954,244.553,420.564)">
                <path d="M6.63,-6.234C6.851,-5.988 7.066,-4.538 7.097,-4.009C7.128,-3.479 8.239,2.595 6.63,6.323C6.63,6.323 4.541,3.912 4.484,-0.491C4.427,-4.895 6.63,-6.234 6.63,-6.234" style="fill:white;fill-rule:nonzero;"/>
            </g>
            <g>
                <clipPath id="_clip2">
                    <path d="M208.061,425.151C213.158,427.553 219.505,425.835 219.505,425.835C220.56,425.015 217.923,423.491 214.115,423.374C214.001,423.37 213.889,423.369 213.777,423.369C210.174,423.369 208.061,425.151 208.061,425.151Z" clip-rule="nonzero"/>
                </clipPath>
                <g clip-path="url(#_clip2)">
                    <g transform="matrix(0,1,1,0,213.646,421.792)">
                        <path d="M2.754,-2.753C1.233,-2.753 -0,-1.52 -0,0C-0,1.521 1.233,2.754 2.754,2.754C4.275,2.754 5.507,1.521 5.507,0C5.507,-1.52 4.275,-2.753 2.754,-2.753" style="fill:rgb(71,44,27);fill-rule:nonzero;"/>
                    </g>
                    <g transform="matrix(0,1,1,0,213.725,423.744)">
                        <path d="M1.232,-1.232C0.551,-1.232 0.001,-0.68 0.001,-0.001C0.001,0.68 0.551,1.232 1.232,1.232C1.912,1.232 2.463,0.68 2.463,-0.001C2.463,-0.68 1.912,-1.232 1.232,-1.232" style="fill:rgb(52,28,11);fill-rule:nonzero;"/>
                    </g>
                </g>
            </g>
            <g>
                <clipPath id="_clip3">
                    <path d="M238.255,426.831C238.489,427.065 239.29,427.26 239.818,427.318C240.345,427.377 245.99,429.056 249.798,427.651C249.798,427.651 248.215,425.308 243.822,425.015C243.537,424.996 243.265,424.987 243.007,424.987C239.28,424.987 238.255,426.831 238.255,426.831Z" clip-rule="nonzero"/>
                </clipPath>
                <g clip-path="url(#_clip3)">
                    <g transform="matrix(0,1,1,0,243.879,423.784)">
                        <path d="M2.754,-2.753C1.233,-2.753 -0,-1.52 -0,0.001C-0,1.521 1.233,2.754 2.754,2.754C4.275,2.754 5.507,1.521 5.507,0.001C5.507,-1.52 4.275,-2.753 2.754,-2.753" style="fill:rgb(71,44,27);fill-rule:nonzero;"/>
                    </g>
                    <g transform="matrix(0,1,1,0,243.88,425.221)">
                        <path d="M1.317,-1.317C0.589,-1.317 0,-0.728 0,-0C0,0.727 0.589,1.317 1.317,1.317C2.043,1.317 2.633,0.727 2.633,-0C2.633,-0.728 2.043,-1.317 1.317,-1.317" style="fill:rgb(52,28,11);fill-rule:nonzero;"/>
                    </g>
                </g>
            </g>
            <g>
                <clipPath id="_clip4">
                    <rect x="0.397" y="338.902" width="584.586" height="502.988" clip-rule="nonzero"/>
                </clipPath>
                <g clip-path="url(#_clip4)">
                    <g transform="matrix(1,0,0,1,209.065,424.372)">
                        <path d="M0,1.282C2.278,1.93 4.678,2.303 7.019,1.847C8.206,1.714 9.352,1.462 10.602,1.49C10.767,1.495 10.962,1.591 11.051,1.611C11.175,1.641 11.314,1.651 11.449,1.647C11.578,1.644 11.732,1.621 11.799,1.582C11.815,1.576 11.806,1.565 11.788,1.613C11.778,1.667 11.801,1.68 11.787,1.668C11.771,1.647 11.713,1.609 11.659,1.58C11.435,1.48 11.089,1.332 10.855,1.152L10.13,0.632C9.181,-0.043 8.069,-0.416 6.914,-0.545C5.765,-0.697 4.577,-0.671 3.417,-0.541C2.255,-0.427 1.1,-0.182 0.022,0.271C-1.048,0.717 -2.09,1.34 -2.838,2.257C-2.845,2.268 -2.861,2.272 -2.873,2.265C-2.884,2.259 -2.886,2.242 -2.881,2.23C-2.226,1.213 -1.207,0.474 -0.122,-0.051C0.968,-0.589 2.164,-0.875 3.359,-1.04C4.561,-1.172 5.771,-1.202 6.981,-1.036C8.184,-0.872 9.384,-0.43 10.361,0.305C10.873,0.676 11.25,1.035 11.833,1.263C11.907,1.308 11.98,1.346 12.062,1.439C12.097,1.48 12.16,1.567 12.132,1.696C12.096,1.819 12.021,1.857 11.974,1.887C11.774,1.985 11.622,1.982 11.456,1.99C11.293,1.99 11.133,1.977 10.969,1.934C10.771,1.875 10.702,1.82 10.564,1.811C9.433,1.761 8.223,1.984 7.048,2.092C4.67,2.484 2.241,2.043 -0.016,1.33C-0.029,1.326 -0.036,1.311 -0.032,1.299C-0.028,1.285 -0.013,1.278 0,1.282" style="fill:rgb(44,21,1);fill-rule:nonzero;"/>
                    </g>
                    <g transform="matrix(1,0,0,1,249.394,425.685)">
                        <path d="M0,2.126C-2.233,2.665 -4.581,2.744 -6.858,2.388C-7.996,2.226 -9.133,1.96 -10.228,1.644C-10.363,1.609 -10.501,1.573 -10.618,1.566C-10.685,1.564 -10.943,1.593 -11.086,1.524C-11.248,1.466 -11.421,1.377 -11.521,1.162C-11.616,0.918 -11.459,0.692 -11.34,0.587C-10.801,0.164 -10.242,0.082 -9.717,-0.151C-8.645,-0.563 -7.524,-0.932 -6.349,-1.057C-5.176,-1.177 -3.96,-1.012 -2.86,-0.611C-1.765,-0.196 -0.732,0.343 0.237,0.976C1.186,1.625 2.158,2.3 2.827,3.26C2.835,3.272 2.833,3.287 2.821,3.295C2.81,3.303 2.793,3.298 2.785,3.287C2.428,2.847 1.961,2.508 1.496,2.184C1.031,1.856 0.547,1.555 0.054,1.274C-0.935,0.716 -1.958,0.213 -3.026,-0.136C-5.141,-0.955 -7.456,-0.564 -9.579,0.227C-10.103,0.436 -10.721,0.563 -11.093,0.855C-11.178,0.934 -11.205,0.996 -11.189,1.034C-11.171,1.086 -11.08,1.162 -10.975,1.197C-10.847,1.244 -10.811,1.229 -10.594,1.231C-10.424,1.247 -10.285,1.289 -10.143,1.328C-9.043,1.672 -7.948,1.952 -6.818,2.139C-4.578,2.558 -2.252,2.548 -0.013,2.078C0.001,2.074 0.015,2.082 0.019,2.095C0.022,2.108 0.013,2.122 0,2.126" style="fill:rgb(44,21,1);fill-rule:nonzero;"/>
                    </g>
                    <g transform="matrix(1,0,0,1,238.275,425.106)">
                        <path d="M0,0.258C1.024,-0.452 2.14,-0.935 3.319,-1.226C4.494,-1.511 5.724,-1.603 6.917,-1.415C8.099,-1.217 9.27,-0.871 10.302,-0.261C10.848,-0.013 11.303,0.389 11.806,0.704C12.274,1.07 12.711,1.478 13.164,1.861C12.697,1.493 12.248,1.103 11.769,0.755C11.256,0.458 10.793,0.077 10.244,-0.149C9.203,-0.717 8.042,-1.013 6.886,-1.165C5.721,-1.307 4.536,-1.175 3.416,-0.861C2.3,-0.549 1.217,-0.023 0.312,0.652L0,0.258Z" style="fill:rgb(156,94,58);fill-rule:nonzero;"/>
                    </g>
                    <g transform="matrix(1,0,0,1,220.336,422.425)">
                        <path d="M0,2.387C-0.964,1.594 -2.122,0.955 -3.33,0.539C-4.541,0.12 -5.833,-0.102 -7.123,-0.037C-8.402,0.042 -9.704,0.266 -10.888,0.811C-11.51,1.012 -12.047,1.395 -12.632,1.681C-13.187,2.022 -13.708,2.417 -14.248,2.784C-13.721,2.401 -13.211,1.988 -12.666,1.628C-12.089,1.323 -11.558,0.918 -10.938,0.696C-9.759,0.108 -8.445,-0.166 -7.136,-0.288C-5.816,-0.397 -4.478,-0.212 -3.211,0.181C-1.94,0.579 -0.748,1.177 0.331,2.009L0,2.387Z" style="fill:rgb(156,94,58);fill-rule:nonzero;"/>
                    </g>
                    <g transform="matrix(1,0,0,1,237.904,450.346)">
                        <path d="M0,-10.43C0.586,-10.078 2.461,-8.555 2.344,-6.094C2.227,-3.633 0.586,-3.164 -0.352,-3.399C-1.289,-3.633 -1.523,-4.336 -2.93,-3.047C-4.336,-1.758 -4.922,-0.586 -6.68,-1.289C-8.437,-1.992 -10.078,-2.813 -10.781,-3.633C-11.484,-4.453 -14.296,-5.391 -14.062,-4.805C-13.828,-4.219 -11.132,-3.399 -10.312,-2.578C-9.492,-1.758 -5.508,0 -4.687,-0.703C-3.867,-1.407 -3.398,-3.399 -1.641,-3.047C0.117,-2.696 2.813,-2.578 3.164,-6.211C3.516,-9.844 0,-10.43 0,-10.43" style="fill:rgb(177,101,60);fill-rule:nonzero;"/>
                    </g>
                    <g transform="matrix(1,0,0,1,215.365,622.138)">
                        <path d="M0,-6.563L16.171,-6.563C16.171,-6.563 37.265,-6.094 46.171,-7.735C55.077,-9.376 60.233,-16.172 66.326,-19.454C72.42,-22.735 79.686,-27.656 82.498,-28.125C85.31,-28.593 96.326,-26.953 103.357,-24.844C110.387,-22.735 116.012,-15.235 117.653,-14.063C119.293,-12.891 126.793,-5.391 126.559,-3.047C126.325,-0.704 124.215,2.109 120.934,1.406C117.653,0.703 110.153,-3.985 110.153,-3.985C110.153,-3.985 116.012,0.703 113.2,2.109C110.387,3.515 107.107,6.093 104.294,3.75C101.482,1.406 97.732,-3.75 97.732,-3.75C97.732,-3.75 101.248,7.5 98.435,7.734C95.623,7.968 72.186,9.374 64.452,10.545C56.717,11.717 37.499,22.03 19.687,20.389C1.875,18.749 -17.812,19.92 -17.812,19.92L0,-6.563Z" style="fill:rgb(188,114,72);fill-rule:nonzero;"/>
                    </g>
                    <g transform="matrix(1,0,0,1,221.303,531.203)">
                        <path d="M0,84.372C0,84.372 -4.687,83.669 -8.906,90.466C-13.125,97.263 -25.078,116.48 -29.765,120.23C-34.452,123.98 -52.03,121.637 -61.639,118.59C-71.248,115.543 -84.841,114.371 -93.747,110.855C-102.653,107.34 -105.935,98.903 -107.341,89.059C-108.747,79.216 -113.434,64.451 -115.309,56.482C-117.184,48.514 -119.762,47.107 -117.184,33.279C-114.606,19.452 -116.247,16.64 -117.418,10.78C-118.59,4.921 -121.168,-3.75 -116.247,-9.609C-111.325,-15.469 -99.606,-37.265 -98.435,-38.437C-97.263,-39.608 -75.467,-37.733 -68.67,-25.078C-61.873,-12.422 -56.483,3.28 -56.483,13.593C-56.483,23.905 -56.717,34.685 -58.124,37.732L-59.295,42.654C-59.295,42.654 -58.124,48.748 -57.655,52.967C-57.186,57.185 -59.295,59.998 -59.295,59.998C-59.295,59.998 -56.014,65.856 -55.545,68.669C-55.077,71.481 -54.608,73.122 -54.608,73.122C-54.608,73.122 -51.327,76.169 -47.811,77.106C-44.295,78.044 -42.655,78.981 -41.483,78.981C-40.312,78.981 -35.858,80.856 -35.858,80.856C-35.858,80.856 -33.749,78.747 -31.64,78.981C-29.53,79.216 0,84.372 0,84.372" style="fill:rgb(108,198,175);fill-rule:nonzero;"/>
                    </g>
                    <g transform="matrix(1,0,0,1,153.101,570.852)">
                        <path d="M0,-81.367C4.237,-85.075 6.094,-64.727 7.969,-55.821C9.843,-46.915 10.546,-31.213 12.187,-24.885C13.828,-18.556 13.125,-8.947 11.015,-4.964C8.906,-0.979 7.969,0.661 8.672,1.13C9.375,1.599 11.484,3.708 12.187,-10.822C12.89,-25.353 9.14,-41.056 8.438,-44.102C7.734,-47.149 6.562,-52.54 4.453,-60.977C2.344,-69.415 -1.875,-79.726 0,-81.367" style="fill:rgb(77,176,152);fill-rule:nonzero;"/>
                    </g>
                    <g transform="matrix(1,0,0,1,156.617,492.531)">
                        <path d="M0,23.906C-0.703,22.031 -11.953,4.687 -18.984,2.578C-26.015,0.469 -36.562,4.219 -37.733,5.39C-38.905,6.562 -34.921,-0.937 -27.187,-0.937C-19.453,-0.937 -10.078,1.876 -4.922,10.547C0.234,19.219 2.813,24.843 2.813,24.843L0,23.906Z" style="fill:rgb(78,177,153);fill-rule:nonzero;"/>
                    </g>
                    <g transform="matrix(1,0,0,1,165.757,525.109)">
                        <path d="M0,26.249C0.566,28.294 -0.469,16.405 -6.328,7.733C-12.187,-0.938 -13.359,-0.469 -16.406,-8.672C-19.453,-16.875 -19.921,-22.5 -20.39,-19.219C-20.859,-15.938 -20.156,-7.734 -18.281,-5.859C-16.406,-3.984 -20.156,-8.438 -24.608,-15C-29.062,-21.563 -29.999,-34.218 -30.233,-26.25C-30.468,-18.281 -27.655,-11.953 -24.374,-8.438C-21.093,-4.922 -16.64,-0.234 -16.64,-0.234C-16.64,-0.234 -27.655,-8.438 -28.124,-8.672C-28.593,-8.906 -19.453,10.077 -16.406,19.452C-13.359,28.827 -9.609,35.39 -6.093,44.998C-2.578,54.607 -1.875,57.654 -2.109,59.061C-2.344,60.467 -0.469,56.014 -2.578,49.92C-4.687,43.826 -11.953,24.843 -15.234,17.108C-18.515,9.374 -26.483,-3.281 -22.03,-0.469C-17.578,2.344 -14.062,1.172 -11.718,6.093C-9.375,11.015 -4.218,11.015 0,26.249" style="fill:rgb(77,176,152);fill-rule:nonzero;"/>
                    </g>
                    <g transform="matrix(1,0,0,1,119.821,581.357)">
                        <path d="M0,-76.404C-2.218,-75.453 -7.031,-49.686 9.375,-30.467C25.78,-11.25 38.671,-0.703 40.312,0C41.952,0.703 41.483,-0.468 32.577,-10.078C23.671,-19.686 18.75,-26.952 11.484,-39.374C4.219,-51.796 1.641,-77.107 0,-76.404" style="fill:rgb(77,176,152);fill-rule:nonzero;"/>
                    </g>
                    <g transform="matrix(1,0,0,1,163.882,606.2)">
                        <path d="M0,-23.202C0,-23.202 1.393,-18.327 -0.023,-15.479C-0.25,-15.023 -0.549,-14.62 -0.937,-14.296C-0.937,-14.296 3.281,-6.094 3.281,-0.937C3.281,-0.937 1.406,0 1.641,-1.406C1.875,-2.812 1.406,-6.797 0,-9.844C-1.406,-12.89 -4.921,-15.936 -4.218,-15.702C-3.515,-15.468 0.234,-17.577 0,-23.202" style="fill:rgb(77,176,152);fill-rule:nonzero;"/>
                    </g>
                    <g transform="matrix(1,0,0,1,310.597,682.526)">
                        <path d="M0,-50.155L-8.672,-44.296C-8.672,-44.296 26.483,-29.296 27.421,-25.311C28.358,-21.327 27.89,-4.922 23.905,0.469C23.905,0.469 33.983,-5.859 33.749,-6.797C33.515,-7.734 37.265,-29.764 34.218,-33.28C31.171,-36.796 0.937,-50.624 0,-50.155" style="fill:rgb(26,98,148);fill-rule:nonzero;"/>
                    </g>
                    <g transform="matrix(-0.38012,0.924937,0.924937,0.38012,328.161,646.974)">
                        <path d="M14.128,-22.749C14.128,-22.749 17.218,9.603 16.666,9.715C16.113,9.825 14.334,4.702 14.128,1.915C13.922,-0.873 11.681,-21.727 11.681,-21.727L14.128,-22.749Z" style="fill:rgb(192,194,196);fill-rule:nonzero;"/>
                    </g>
                    <g transform="matrix(1,0,0,1,305.597,643.23)">
                        <path d="M0,4.063L-2.813,-1.406L-4.375,-6.406L-6.094,-7.5L-9.08,-3.893L-18.906,7.969L-15.937,10.782L-12.968,9.688L-6.094,11.563L0,4.063Z" style="fill:rgb(20,79,122);fill-rule:nonzero;"/>
                    </g>
                    <g transform="matrix(-0.531097,0.847311,0.847311,0.531097,296.712,648.59)">
                        <path d="M-6.891,-8.217L5.464,-8.217C5.464,-8.217 5.362,-5.7 5.162,-5.088C4.962,-4.475 -8.205,-4.062 -8.205,-4.062L-6.891,-8.217Z" style="fill:rgb(20,79,122);fill-rule:nonzero;"/>
                    </g>
                    <g transform="matrix(1,0,0,1,274.035,648.543)">
                        <path d="M0,-19.53C0,-19.53 -7.664,-13.286 -4.375,-11.093C-3.906,-10.781 7.656,-4.375 8.437,-3.437C9.218,-2.5 7.968,-1.406 9.687,-0.781C11.406,-0.156 11.562,0.469 12.812,0.313C14.062,0.157 20.468,-9.062 19.375,-10.781C18.281,-12.5 17.5,-12.812 16.875,-12.968C16.25,-13.125 13.281,-12.812 13.281,-12.812C13.281,-12.812 0.469,-19.999 0,-19.53" style="fill:rgb(251,218,101);fill-rule:nonzero;"/>
                    </g>
                    <g transform="matrix(-0.6497,0.76019,0.76019,0.6497,274.884,621.409)">
                        <path d="M15.587,-28.901C15.587,-28.901 20.874,-29.315 21.81,-27.283L15.587,6.451L5.656,5.567C5.656,5.567 14.13,-29.119 15.587,-28.901" style="fill:rgb(26,98,148);fill-rule:nonzero;"/>
                    </g>
                    <g transform="matrix(-0.671844,0.740693,0.740693,0.671844,242.675,613.113)">
                        <path d="M7.111,-15.338C7.111,-15.338 12.103,-15.029 11.433,-12.894C10.763,-10.76 7.223,0.584 7.111,2.803L0.761,1.895L7.111,-15.338Z" style="fill:rgb(29,7,1);fill-rule:nonzero;"/>
                    </g>
                    <g transform="matrix(1,0,0,1,222.474,464.096)">
                        <path d="M0,-2.579C-2.118,-3.756 -4.766,-4.922 -4.062,-4.062C-3.359,-3.204 -0.234,0.78 3.672,1.562C7.578,2.343 12.734,1.874 12.343,0.546C11.953,-0.782 11.328,-1.173 7.734,-1.329C4.141,-1.485 0.703,-2.188 0,-2.579" style="fill:rgb(185,96,79);fill-rule:nonzero;"/>
                    </g>
                    <g transform="matrix(1,0,0,1,301.925,683.932)">
                        <path d="M0,-45.702C0,-45.702 -17.109,-28.124 -17.343,-25.077C-17.578,-22.03 -18.046,-10.078 -18.046,-10.078C-18.046,-10.078 30.702,0 32.577,-0.937C34.452,-1.875 39.14,-22.968 35.39,-27.655C31.64,-32.343 0,-45.702 0,-45.702Z" style="fill:none;fill-rule:nonzero;stroke:rgb(16,74,115);stroke-width:0.7px;"/>
                    </g>
                    <g transform="matrix(1,0,0,1,294.426,675.495)">
                        <path d="M0,-22.03C0,-22.03 -2.344,-7.734 -1.055,-7.383C0.234,-7.031 38.319,0 42.538,-0.117" style="fill:none;fill-rule:nonzero;stroke:rgb(16,74,115);stroke-width:0.7px;"/>
                    </g>
                    <g transform="matrix(1,0,0,1,89.3533,630.339)">
                        <path d="M0,15.469C0,15.469 6.562,0 9.375,0.469C12.187,0.938 0,15.469 0,15.469" style="fill:rgb(77,176,152);fill-rule:nonzero;"/>
                    </g>
                    <g transform="matrix(1,0,0,1,94.5091,631.746)">
                        <path d="M0,16.875C0,16.875 11.719,0 19.218,0.469C26.718,0.937 0,16.875 0,16.875" style="fill:rgb(77,176,152);fill-rule:nonzero;"/>
                    </g>
                    <g transform="matrix(1,0,0,1,188.725,674.558)">
                        <path d="M0,10.625C0,10.625 -50.155,-17.499 -96.56,-15.624C-124.524,-14.494 -126.817,9.817 -128.122,28.124C-124.314,13.624 -119.956,-1.018 -98.747,-1.875C-52.342,-3.75 -6.562,25.937 -6.562,25.937C-6.562,25.937 3.438,26.249 0,10.625" style="fill:rgb(29,7,1);fill-rule:nonzero;"/>
                    </g>
                    <g transform="matrix(-0.0147783,0.999891,0.999891,0.0147783,540.022,739.515)">
                        <path d="M-157.031,19.193L-147.49,19.193L-18.912,-154.727L-36.6,-154.148L-157.031,19.193Z" style="fill:rgb(96,55,26);fill-rule:nonzero;"/>
                    </g>
                    <g transform="matrix(0.00643947,0.999979,0.999979,-0.00643947,303.517,756.439)">
                        <path d="M-80.637,-100.936L90.805,-100.936L101.588,-81.158L-77.721,-80.103L-80.637,-100.936Z" style="fill:rgb(96,55,26);fill-rule:nonzero;"/>
                    </g>
                    <g transform="matrix(0.755118,-0.655588,-0.655588,-0.755118,282.339,842.557)">
                        <path d="M-55.28,26.817L-35.266,26.817L68.313,142.777L58.727,159.338L-55.28,26.817Z" style="fill:rgb(87,47,20);fill-rule:nonzero;"/>
                    </g>
                    <g transform="matrix(0,1,1,0,311.509,587.836)">
                        <path d="M74.923,-130.483L92.414,-130.483L130.483,74.081L112.805,74.923L74.923,-130.483Z" style="fill:rgb(96,55,26);fill-rule:nonzero;"/>
                    </g>
                    <g transform="matrix(-0.0168154,0.999859,0.999859,0.0168154,221.505,650.124)">
                        <path d="M14.15,-39.967L30.802,-39.967L39.319,12.838L22.391,13.91L14.15,-39.967Z" style="fill:rgb(96,55,26);fill-rule:nonzero;"/>
                    </g>
                    <g transform="matrix(1,0,0,1,216.693,853.237)">
                        <path d="M0,-222.038C0.019,-220.001 0.781,-204.069 3.125,-197.038C5.469,-190.007 4.844,-183.289 4.844,-179.695C4.844,-176.101 16.547,22.03 16.547,22.03L13.735,22.03C13.735,22.03 1.719,-181.101 1.562,-188.601C1.406,-196.101 -3.438,-215.007 -2.969,-220.007C-2.5,-225.006 -3.594,-243.287 9.219,-244.068L9.375,-242.037C9.375,-242.037 -0.156,-239.381 0,-222.038" style="fill:rgb(29,7,1);fill-rule:nonzero;"/>
                    </g>
                </g>
            </g>
        </g>
    </g>
</svg>
