<?xml version="1.0" encoding="UTF-8" standalone="no"?>
<!DOCTYPE svg PUBLIC "-//W3C//DTD SVG 1.1//EN" "http://www.w3.org/Graphics/SVG/1.1/DTD/svg11.dtd">
<svg width="100%" height="100%" viewBox="0 0 3508 2481" version="1.1" xmlns="http://www.w3.org/2000/svg" xmlns:xlink="http://www.w3.org/1999/xlink" xml:space="preserve" xmlns:serif="http://www.serif.com/" style="fill-rule:evenodd;clip-rule:evenodd;stroke-linejoin:round;stroke-miterlimit:2;">
    <g transform="matrix(4.16667,0,0,4.16667,809.443,1626.62)">
        <path d="M0,-18.381C-0.711,-17.599 -2.63,-15.396 -2.487,-14.543C-2.346,-13.691 -2.559,-13.335 -2.559,-13.335C-2.559,-13.335 -3.127,-14.188 -3.198,-13.619C-3.269,-13.051 -3.411,-9.64 -2.771,-9.569C-2.132,-9.498 -4.477,-7.863 -4.477,-7.863C-4.477,-7.863 -1.517,-1.516 0.687,-0.947C2.89,-0.379 4.903,0.853 6.04,0C7.177,-0.853 8.953,-8.574 9.096,-9.569C9.237,-10.564 9.309,-12.554 9.237,-14.117C9.166,-15.68 9.309,-19.234 7.674,-19.162C6.04,-19.091 0,-18.381 0,-18.381" style="fill:rgb(138,97,78);fill-rule:nonzero;"/>
    </g>
    <g transform="matrix(4.16667,0,0,4.16667,804.999,1545.89)">
        <path d="M0,2.488C0.711,2.842 1.635,3.411 2.914,3.056C4.192,2.701 2.63,1.777 4.122,1.99C5.614,2.203 5.827,2.061 7.106,1.777C8.386,1.493 8.883,0.853 9.38,1.422C9.878,1.99 10.091,3.411 10.091,3.411C10.091,3.411 11.086,0.498 9.024,-0.994C6.964,-2.487 3.411,-3.908 1.492,-2.558C-0.426,-1.207 -2.913,-0.071 -2.345,1.28C-1.776,2.63 -1.989,6.396 -1.279,5.614C-0.568,4.833 0,2.488 0,2.488" style="fill:rgb(35,31,32);fill-rule:nonzero;"/>
    </g>
    <g transform="matrix(-0.229349,4.16035,4.16035,0.229349,838.785,1560.68)">
        <path d="M1.571,-1.344C1.77,-1.084 1.878,-1.114 1.705,-0.554C1.531,0.006 1.547,1.003 1.571,1.254C1.592,1.504 0.986,0.865 1.201,0.201C1.416,-0.463 1.571,-1.344 1.571,-1.344" style="fill:rgb(35,31,32);fill-rule:nonzero;"/>
    </g>
    <g transform="matrix(4.16667,0,0,4.16667,824.099,1571.8)">
        <path d="M0,-0.995C-0.178,-0.817 -0.107,-0.711 -0.854,-0.711C-1.6,-0.711 -1.99,-0.711 -2.274,-0.568C-2.559,-0.427 -3.554,0.178 -2.985,-0.284C-2.416,-0.746 -1.777,-0.889 -1.244,-1.03C-0.711,-1.173 0,-0.995 0,-0.995" style="fill:rgb(35,31,32);fill-rule:nonzero;"/>
    </g>
    <g transform="matrix(4.16667,0,0,4.16667,822.468,1586.33)">
        <path d="M0,-1.64C-0.022,-1.376 -0.042,-1.057 0.104,-0.881C0.178,-0.802 0.299,-0.791 0.424,-0.806C0.597,-0.839 0.791,-0.703 0.853,-0.571C0.995,-0.283 1.111,-0.212 1.371,-0.328L1.742,-0.488L1.918,-0.577L1.995,-0.625C2.012,-0.62 2.05,-0.707 2.021,-0.612L2.228,-0.666C2.292,-0.551 2.425,-0.423 2.486,-0.447C2.567,-0.456 2.65,-0.61 2.715,-0.758L2.924,-1.195C2.997,-1.334 2.996,-1.509 2.843,-1.605C3.012,-1.549 3.065,-1.328 3.009,-1.168C2.974,-1.002 2.91,-0.852 2.856,-0.699C2.796,-0.564 2.777,-0.349 2.533,-0.249C2.251,-0.216 2.143,-0.419 2.037,-0.554L2.243,-0.608C2.188,-0.448 2.165,-0.494 2.13,-0.446L2.035,-0.38C1.972,-0.342 1.908,-0.307 1.845,-0.276C1.718,-0.211 1.591,-0.154 1.458,-0.106C1.32,-0.06 1.145,0 0.963,-0.095C0.786,-0.194 0.74,-0.358 0.673,-0.46C0.607,-0.571 0.549,-0.625 0.436,-0.627C0.293,-0.624 0.105,-0.651 -0.002,-0.793C-0.181,-1.089 -0.055,-1.379 0,-1.64" style="fill:rgb(105,72,57);fill-rule:nonzero;"/>
    </g>
    <g transform="matrix(4.16667,0,0,4.16667,209.235,2250.67)">
        <path d="M0,-97.638L226.882,47.254C226.882,47.254 361.445,13.143 363.323,12.204C365.201,11.265 371.772,-0.626 377.405,1.564C383.038,3.755 387.732,5.319 387.732,5.319C387.732,5.319 392.739,-3.13 394.617,-3.13C396.495,-3.13 410.891,-2.192 412.455,-2.192C414.02,-2.192 584.259,-55.078 586.137,-58.207C588.015,-61.337 169.301,-144.892 169.301,-144.892L-15.647,-108.591L0,-97.638Z" style="fill:rgb(134,162,212);fill-rule:nonzero;"/>
    </g>
    <g transform="matrix(4.16667,0,0,4.16667,749.929,1693.88)">
        <path d="M0,-15.337C0,-15.337 -0.143,-20.88 3.979,-22.301C8.101,-23.722 9.521,-24.858 9.948,-25.001C10.375,-25.144 11.583,-25.581 11.583,-25.581C11.583,-25.581 11.512,-22.158 12.791,-20.737C14.069,-19.316 13.928,-18.748 15.349,-18.321C16.771,-17.895 18.476,-17.042 18.617,-16.616C18.76,-16.19 20.039,-19.032 20.039,-19.032L20.892,-23.153L23.308,-24.006C23.308,-24.006 27.287,-22.728 28.851,-21.306C30.413,-19.885 34.582,-9.274 34.582,-9.274L27.855,-7.805C27.855,-7.805 26.86,-11.073 26.15,-9.794C25.439,-8.516 22.312,-5.673 23.165,-5.246C24.019,-4.82 25.724,0.58 25.865,1.149C26.008,1.718 26.576,7.971 22.597,9.107C18.617,10.244 9.948,9.534 9.948,9.534L0,-15.337Z" style="fill:rgb(186,188,190);fill-rule:nonzero;"/>
    </g>
    <g transform="matrix(2.55791,3.28911,3.28911,-2.55791,875.452,1645.34)">
        <path d="M1.292,-4.061L6.152,-4.061L10.322,1.07L3.111,2.447C3.111,2.447 3.498,-0.645 1.292,-4.061" style="fill:rgb(138,97,78);fill-rule:nonzero;"/>
    </g>
    <g transform="matrix(4.16667,0,0,4.16667,817.142,1601.85)">
        <path d="M0,-1.563C-0.782,-2.132 -2.559,-3.837 -2.843,-4.193C-3.127,-4.548 -3.767,-4.761 -3.767,-3.126C-3.767,-1.493 -4.335,-0.426 -2.7,0.568C-1.066,1.563 0.142,3.198 2.202,2.914C4.264,2.629 6.395,1.492 6.821,0.853C7.248,0.213 7.816,-1.848 7.674,-2.558C7.532,-3.269 7.177,-4.548 7.177,-4.548C7.177,-4.548 6.182,-2.985 5.613,-2.274C5.045,-1.563 4.548,-0.64 3.766,-0.995C2.984,-1.35 2.061,-1.137 1.705,-0.924C1.35,-0.71 0,-1.563 0,-1.563" style="fill:rgb(35,31,32);fill-rule:nonzero;"/>
    </g>
    <g transform="matrix(4.16667,0,0,4.16667,828.685,1592.08)">
        <path d="M0,-0.995C0,-0.995 -0.853,-1.208 -1.172,-1.03C-1.492,-0.852 -1.954,-0.603 -1.954,-0.603C-1.954,-0.603 -0.781,0.213 -0.213,0.143C0.355,0.071 1.848,-0.497 1.848,-0.497C1.848,-0.497 1.279,-1.208 0,-0.995" style="fill:rgb(105,72,57);fill-rule:nonzero;"/>
    </g>
    <g transform="matrix(4.16667,0,0,4.16667,501.813,1683.07)">
        <path d="M0,-17.338C0,-17.338 2.273,-14.922 2.416,-13.359C2.558,-11.796 2.132,-10.374 2.7,-9.096C3.269,-7.817 4.974,-6.68 4.405,-6.537C3.837,-6.396 2.842,-6.821 2.842,-5.969C2.842,-5.116 2.558,-4.121 2.558,-3.126C2.558,-2.132 2.842,-0.853 1.563,-0.994C0.284,-1.137 0.426,0 -1.279,-1.564C-2.984,-3.126 -2.7,-9.664 -2.7,-9.664L0,-17.338Z" style="fill:rgb(138,97,78);fill-rule:nonzero;"/>
    </g>
    <g transform="matrix(4.16667,0,0,4.16667,2106.97,1804.86)">
        <path d="M0,-38.656C0,-38.656 -5.116,-48.699 -1.895,-50.594C1.327,-52.489 11.56,-51.352 14.592,-48.32C17.623,-45.289 18.76,-41.878 18.95,-41.309C19.14,-40.741 20.845,-10.043 20.655,-8.717C20.466,-7.39 14.022,13.833 13.454,13.833C12.886,13.833 2.653,-9.095 2.653,-9.095L0,-38.656Z" style="fill:rgb(222,171,62);fill-rule:nonzero;"/>
    </g>
    <g transform="matrix(4.16667,0,0,4.16667,2155.13,1677.74)">
        <path d="M0,-19.612C0,-19.612 0.568,-9.664 -3.695,-5.968C-7.959,-2.273 -10.517,-0.568 -10.517,-0.568C-10.517,-0.568 -3.127,0 0,-1.989C3.127,-3.978 6.253,-14.212 6.253,-14.212L0,-19.612Z" style="fill:rgb(197,153,55);fill-rule:nonzero;"/>
    </g>
    <g transform="matrix(4.16667,0,0,4.16667,1307.95,1605.1)">
        <path d="M0,-10.611C0,-10.611 -0.9,-9.333 -0.711,-7.248C-0.521,-5.164 -1.516,-2.464 -1.516,-2.464C-1.516,-2.464 0.568,0 1.516,-0.189C2.463,-0.379 3.031,-4.548 2.652,-5.305C2.273,-6.064 0,-10.611 0,-10.611" style="fill:rgb(132,97,81);fill-rule:nonzero;"/>
    </g>
    <g transform="matrix(4.16667,0,0,4.16667,1304.98,1589.51)">
        <path d="M0,-3.221C0,-3.221 -0.379,-2.226 -0.663,-1.895C-0.947,-1.563 -1.231,-0.853 -0.805,-0.663C-0.379,-0.474 -0.236,-0.379 -0.047,-0.237C0.143,-0.095 0.806,0 0.806,-0.237C0.806,-0.474 0.474,-1.232 0.474,-1.232" style="fill:rgb(132,97,81);fill-rule:nonzero;"/>
    </g>
    <g transform="matrix(4.16667,0,0,4.16667,1411.97,2222.53)">
        <path d="M0,-15.775C0.568,-15.917 6.537,-16.912 7.248,-15.348C7.958,-13.785 7.105,-14.069 7.105,-14.069C7.105,-14.069 8.812,-15.207 11.369,-13.075C13.928,-10.943 14.638,-10.232 14.638,-10.232C14.638,-10.232 14.78,-8.953 14.069,-7.958C13.358,-6.963 13.785,-6.679 12.08,-5.4C10.374,-4.121 8.526,-5.116 5.969,-3.268C3.41,-1.421 2.273,0.285 -0.143,0.711C-2.559,1.137 -7.391,0.569 -7.248,-0.71C-7.106,-1.989 -4.548,-6.679 -4.548,-6.679L0,-15.775Z" style="fill:rgb(128,95,78);fill-rule:nonzero;"/>
    </g>
    <g transform="matrix(4.16667,0,0,4.16667,1083.71,1697.87)">
        <path d="M0,-37.044C0,-37.044 -1.705,-32.97 -2.084,-30.696C-2.463,-28.423 -2.084,-24.917 -3.41,-23.211C-4.737,-21.506 -5.59,-20.938 -6.821,-17.053C-8.053,-13.168 -9.095,-11.463 -8.053,-8.336C-7.011,-5.21 -7.105,-3.22 -4.927,-2.367C-2.747,-1.515 -2.937,-3.409 -2.937,-3.409C-2.937,-3.409 -0.663,-4.831 -0.379,-4.831C-0.095,-4.831 6.064,1.896 8.433,0.665C10.802,-0.567 16.486,-7.578 17.149,-7.673C17.812,-7.768 21.603,-10.895 23.402,-8.052C25.203,-5.21 25.677,-2.462 26.056,-3.315C26.435,-4.167 28.804,-5.21 25.203,-12.126C21.603,-19.043 20.939,-20.653 19.234,-22.832C17.528,-25.012 12.602,-29.37 11.749,-28.991C10.896,-28.612 6.349,-38.94 0,-37.044" style="fill:rgb(127,79,134);fill-rule:nonzero;"/>
    </g>
    <g transform="matrix(4.16667,0,0,4.16667,1043.84,1712.08)">
        <path d="M0,-5.968C-0.609,-5.087 -2.747,1.423 -2.747,1.423L0.759,9.096C0.759,9.096 8.717,8.718 13.928,9.286C19.139,9.854 22.55,9.096 28.045,8.244C33.541,7.391 36.004,-1.136 35.909,-1.799C35.814,-2.462 35.72,-7.578 34.109,-10.326C32.498,-13.074 30.509,-15.822 27.382,-12.6C24.256,-9.379 20.182,-5.589 20.182,-5.589C20.182,-5.589 12.696,-8.811 10.707,-8.716C8.717,-8.621 5.78,-8.621 4.832,-7.199C3.885,-5.779 0.854,-7.199 0,-5.968" style="fill:rgb(22,23,26);fill-rule:nonzero;"/>
    </g>
    <g transform="matrix(4.16667,0,0,4.16667,1095.16,1641.82)">
        <path d="M0,-12.791C-1.312,-12.682 -3.316,-11.465 -3.695,-10.423C-4.074,-9.38 -2.938,-6.064 -0.947,-4.643C1.042,-3.222 2.179,0.095 3.506,-3.032C4.832,-6.159 6.727,-8.622 6.537,-10.707C6.348,-12.791 1.137,-12.886 0,-12.791" style="fill:rgb(130,91,83);fill-rule:nonzero;"/>
    </g>
    <g transform="matrix(4.16667,0,0,4.16667,925.8,1795.39)">
        <path d="M0,-50.594C-1.8,-49.647 -2.179,-48.794 -1.895,-45.099C-1.61,-41.404 -1.231,-36.382 -0.853,-32.403C-0.474,-28.424 -0.474,-16.201 -0.095,-14.875C0.284,-13.548 5.307,-8.811 8.812,-6.916C12.317,-5.022 16.676,-6.537 21.697,-6.537C26.719,-6.537 27.761,0 29.846,-8.337C31.93,-16.675 29.751,-22.928 29.372,-25.676C28.993,-28.424 27.855,-33.256 26.813,-34.014C25.771,-34.772 25.487,-32.497 25.866,-35.814C26.245,-39.13 25.771,-36.95 25.582,-41.309C25.393,-45.667 25.582,-47.752 24.729,-47.657C23.876,-47.563 0,-50.594 0,-50.594" style="fill:rgb(35,31,32);fill-rule:nonzero;"/>
    </g>
    <g transform="matrix(4.16667,0,0,4.16667,988.967,1570.37)">
        <path d="M0,17.433C0,17.433 0.947,16.059 0.758,13.738C0.568,11.416 0.236,10.042 0.236,9C0.236,7.958 0.947,6.111 1.326,5.305C1.705,4.499 3.079,0.094 3.079,-0.758C3.079,-0.758 4.311,0.189 5.353,0.568C6.395,0.947 8.242,0.662 8.858,2.415C9.475,4.168 10.753,6.963 9.569,8.243C8.385,9.522 6.11,10.611 6.489,12.222C6.869,13.832 7.2,13.974 7.2,15.206C7.2,16.438 6.964,18.001 6.821,18.096C6.68,18.191 0,17.433 0,17.433" style="fill:rgb(214,43,47);fill-rule:nonzero;"/>
    </g>
    <g transform="matrix(4.16667,0,0,4.16667,977.322,1643.2)">
        <path d="M0,0.663C0.426,-1.279 -0.095,-5.827 -0.569,-8.195C-1.043,-10.565 -2.891,-10.422 -3.411,-12.933C-3.933,-15.443 -2.938,-15.302 -4.312,-16.344C-5.686,-17.386 -6.111,-16.959 -6.254,-18.097C-6.396,-19.233 -7.201,-18.76 -8.291,-18.191C-9.38,-17.623 -15.302,-14.496 -15.965,-13.265C-16.628,-12.032 -17.718,-10.849 -16.628,-9.806C-15.539,-8.764 -14.639,-8.812 -14.639,-7.579C-14.639,-6.348 -14.165,-2.084 -14.497,-1.326C-14.828,-0.568 -16.107,-0.142 -15.491,0.758C-14.876,1.658 -14.165,0.427 -14.497,2.464C-14.828,4.501 -16.344,7.485 -16.107,9.19C-15.87,10.896 -15.918,14.022 -15.634,15.396C-15.35,16.77 -17.812,17.812 -14.26,18.57C-10.707,19.328 -8.433,19.896 -8.622,18.808C-8.812,17.718 -9.475,17.101 -9.285,15.443C-9.096,13.786 -9.333,12.08 -9.333,11.322C-9.333,10.564 -7.153,6.064 -7.153,6.064C-7.153,6.064 -9.665,5.779 -10.802,4.217C-11.938,2.653 -13.407,1.137 -13.028,-1.042C-12.649,-3.221 -13.976,-7.438 -13.691,-8.812C-13.407,-10.185 -14.781,-12.364 -13.123,-12.127C-11.465,-11.891 -8.765,-9.569 -8.291,-8.574C-7.817,-7.579 -6.728,-3.031 -6.443,-1.279C-6.159,0.474 -7.723,0.048 -4.88,0.237C-2.037,0.427 0,0.663 0,0.663" style="fill:rgb(214,43,47);fill-rule:nonzero;"/>
    </g>
    <g transform="matrix(4.16667,0,0,4.16667,948.107,1623.07)">
        <path d="M0,-19.851C-0.317,-18.265 -0.663,-17.955 0.237,-16.061C1.137,-14.165 -0.806,-12.792 0.379,-12.081C1.563,-11.371 2.464,-11.229 2.605,-10.091C2.748,-8.955 2.559,-8.813 3.127,-8.623C3.695,-8.434 3.174,-7.202 3.79,-6.633C4.405,-6.065 4.88,-6.397 5.306,-3.697C5.732,-0.997 7.012,1.846 7.059,3.457C7.106,5.068 7.201,5.257 7.816,5.683C8.433,6.11 8.906,6.205 9.759,5.494C10.611,4.784 10.801,3.836 10.943,2.794C11.085,1.752 10.611,-0.238 10.659,-1.66C10.706,-3.08 9.996,-2.464 10.754,-4.786C11.512,-7.107 12.317,-9.097 12.743,-10.091C13.17,-11.086 13.406,-12.318 13.312,-14.26C13.217,-16.203 13.217,-18.334 12.933,-19.851C12.648,-21.367 12.175,-24.919 9.522,-25.488C6.869,-26.056 1.09,-25.298 0,-19.851" style="fill:rgb(234,210,225);fill-rule:nonzero;"/>
    </g>
    <g transform="matrix(4.16667,0,0,4.16667,974.828,1576.49)">
        <path d="M0,-12.933C-1.119,-10.18 -2.368,-9.079 -1.989,-5.099C-1.61,-1.12 0.185,-0.416 2.559,0.249C3.891,0.622 5.178,-4.03 5.205,-4.388C5.259,-5.081 5.614,-7 5.472,-7.959C5.021,-10.995 1.8,-13.555 1.137,-12.987C0.474,-12.418 0.249,-13.111 0.249,-13.111L0,-12.933Z" style="fill:rgb(112,69,58);fill-rule:nonzero;"/>
    </g>
    <g transform="matrix(4.16667,0,0,4.16667,972.138,1534.88)">
        <path d="M0,-1.705C0,-1.705 1.137,-2.664 2.522,-1.848C3.908,-1.03 5.685,0.782 5.934,1.351C6.183,1.919 5.791,-0.142 5.045,-1.243C4.299,-2.345 2.843,-3.588 2.132,-3.481C1.421,-3.375 0.568,-3.624 0,-1.705" style="fill:rgb(35,31,32);fill-rule:nonzero;"/>
    </g>
    <g transform="matrix(4.16667,0,0,4.16667,986.526,1544.84)">
        <path d="M0,-0.297C0.083,-0.064 0.39,0.048 0.9,0.03C1.411,0.013 1.564,-0.029 1.778,-0.011C1.992,0.009 2.262,-0.01 2.368,0.06C2.476,0.13 2.137,-0.229 1.77,-0.326C1.403,-0.425 0.905,-0.114 0.617,-0.244C0.33,-0.375 -0.047,-0.427 0,-0.297" style="fill:rgb(35,31,32);fill-rule:nonzero;"/>
    </g>
    <g transform="matrix(4.16667,0,0,4.16667,980.195,1544.12)">
        <path d="M0,0.068C-0.256,0.263 -1.367,-0.02 -1.716,0.066C-2.063,0.151 -2.475,0.315 -2.475,0.315C-2.475,0.315 -2.003,-0.165 -1.626,-0.206C-1.249,-0.247 -0.423,-0.1 -0.217,-0.17C-0.01,-0.241 0.221,-0.099 0,0.068" style="fill:rgb(35,31,32);fill-rule:nonzero;"/>
    </g>
    <g transform="matrix(4.16667,0,0,4.16667,985.236,1567.34)">
        <path d="M0,-1.166C-0.188,-1.18 -0.915,-1.326 -1.215,-1.11C-1.516,-0.895 -2.261,-0.758 -2.188,-0.776C-2.116,-0.795 -1.044,0.16 -0.32,-0.002C0.403,-0.164 1.077,-0.614 1.109,-0.73C1.141,-0.848 0.896,-1.078 0.663,-1.143C0.431,-1.207 0,-1.166 0,-1.166" style="fill:rgb(144,89,72);fill-rule:nonzero;"/>
    </g>
    <g transform="matrix(4.16667,0,0,4.16667,978.901,1560.4)">
        <path d="M0,-0.663C0.142,-0.45 0.118,-0.402 0.639,-0.355C1.16,-0.308 1.16,-0.331 1.468,-0.213C1.776,-0.095 1.942,-0.331 2.061,-0.426C2.179,-0.52 2.558,-0.52 2.558,-0.52C2.558,-0.52 2.416,-0.402 2.202,-0.308C1.989,-0.213 1.8,0 1.492,-0.047C1.184,-0.095 1.137,-0.166 0.734,-0.213C0.331,-0.261 0.26,-0.071 0.07,-0.331C-0.119,-0.592 0,-0.663 0,-0.663" style="fill:rgb(88,52,42);fill-rule:nonzero;"/>
    </g>
    <g transform="matrix(-0.173359,4.16306,4.16306,0.173359,976.147,1545.18)">
        <path d="M0.779,-0.966C0.751,-0.849 0.445,-0.364 0.545,0.09C0.645,0.546 0.779,0.741 0.779,0.741C0.779,0.741 1.258,0.186 1.18,-0.196C1.101,-0.579 0.779,-0.966 0.779,-0.966" style="fill:white;fill-rule:nonzero;"/>
    </g>
    <g transform="matrix(0,4.16667,4.16667,0,991.581,1544.85)">
        <path d="M0.699,-0.675C0.699,-0.675 0.296,-0.178 0.485,0.415L0.699,0.794C0.699,0.794 0.983,0.676 1.03,0.154C1.078,-0.367 0.675,-0.77 0.675,-0.77" style="fill:white;fill-rule:nonzero;"/>
    </g>
    <g transform="matrix(0,-4.16667,-4.16667,0,975.841,1547.94)">
        <path d="M-0.19,-0.19C-0.337,-0.19 -0.457,-0.105 -0.457,-0.001C-0.457,0.105 -0.337,0.19 -0.19,0.19C-0.042,0.19 0.078,0.105 0.078,-0.001C0.078,-0.105 -0.042,-0.19 -0.19,-0.19" style="fill:rgb(35,31,32);fill-rule:nonzero;"/>
    </g>
    <g transform="matrix(0,-4.16667,-4.16667,0,992.076,1547.2)">
        <path d="M-0.19,-0.19C-0.337,-0.19 -0.457,-0.105 -0.457,-0.001C-0.457,0.106 -0.337,0.19 -0.19,0.19C-0.042,0.19 0.078,0.106 0.078,-0.001C0.078,-0.105 -0.042,-0.19 -0.19,-0.19" style="fill:rgb(35,31,32);fill-rule:nonzero;"/>
    </g>
    <g transform="matrix(-0.15902,-4.16363,-4.16363,0.15902,974.603,1543.71)">
        <path d="M-1.064,-0.826C-1.007,-0.502 -0.962,-0.208 -1.009,0.083C-1.045,0.37 -1.109,0.733 -1.064,1.035C-0.903,0.712 -0.839,0.452 -0.767,0.112C-0.738,-0.23 -0.824,-0.588 -1.064,-0.826" style="fill:rgb(35,31,32);fill-rule:nonzero;"/>
    </g>
    <g transform="matrix(4.16667,0,0,4.16667,995.58,1546.28)">
        <path d="M0,0.368C-0.13,0.366 -0.273,0.351 -0.419,0.316C-0.568,0.282 -0.663,0.246 -0.794,0.248C-1.04,0.221 -1.29,0.279 -1.575,0.32C-1.381,0.098 -1.081,0 -0.777,0.006C-0.631,0.02 -0.464,0.078 -0.357,0.14C-0.244,0.198 -0.13,0.276 0,0.368" style="fill:rgb(35,31,32);fill-rule:nonzero;"/>
    </g>
    <g transform="matrix(4.16667,0,0,4.16667,1489.24,1799.53)">
        <path d="M0,-6.04C-0.284,-5.827 0.64,-5.116 -1.918,-4.477C-4.477,-3.837 -6.466,-3.979 -6.821,-3.269C-7.177,-2.558 -7.958,-1.918 -7.674,-1.563C-7.39,-1.208 -7.888,-0.284 -6.75,-0.142C-5.613,0 -3.694,-0.071 -2.416,-0.426C-1.137,-0.781 0.64,-1.279 1.848,-1.279C3.056,-1.279 3.767,-0.995 4.264,-1.208C4.762,-1.421 3.624,-3.197 2.7,-3.553C1.776,-3.908 0,-6.04 0,-6.04" style="fill:rgb(102,75,61);fill-rule:nonzero;"/>
    </g>
    <g transform="matrix(4.16667,0,0,4.16667,1552.31,1828.84)">
        <path d="M0,-12.151C0,-12.151 -1.278,-7.603 -1.848,-6.892C-2.416,-6.182 -6.04,-4.192 -7.177,-2.913C-8.313,-1.634 -10.729,-1.279 -9.735,-0.711C-8.74,-0.142 -8.172,-0.284 -5.187,-0.142C-2.202,0 0.071,-1.492 2.132,-1.208C4.192,-0.923 6.254,-0.355 5.614,-1.492C4.975,-2.629 3.411,-5.329 3.695,-6.466C3.979,-7.603 4.192,-8.811 4.192,-8.811L0,-12.151Z" style="fill:rgb(102,75,61);fill-rule:nonzero;"/>
    </g>
    <g transform="matrix(4.16667,0,0,4.16667,1307.16,1698.67)">
        <path d="M0,-33.636C0.568,-33.92 1.042,-34.773 3.79,-35.246C6.537,-35.72 9.475,-36.667 10.706,-34.867C11.938,-33.067 11.938,-31.077 12.886,-30.225C13.833,-29.372 16.485,-29.562 16.201,-27.382C15.917,-25.203 14.496,-25.203 15.349,-23.687C16.201,-22.171 19.518,-21.413 20.938,-18.192C22.36,-14.971 23.592,-14.307 23.687,-10.802C23.781,-7.296 20.275,-2.085 20.275,-1.706C20.275,-1.327 8.148,-2.654 7.39,-1.517C6.632,-0.38 2.747,3.031 -0.189,1.705C-3.127,0.379 -3.411,-0.38 -4.074,-3.885C-4.737,-7.391 -6.063,-8.907 -6.063,-8.907C-6.063,-8.907 -6.538,-12.128 -5.116,-14.307C-3.695,-16.487 -2.085,-22.361 -2.085,-22.645C-2.085,-22.929 -1.326,-24.73 -1.326,-24.73L1.516,-23.024C1.516,-23.024 1.326,-31.456 0.474,-31.93L-0.379,-32.404L0,-33.636Z" style="fill:rgb(191,146,95);fill-rule:nonzero;"/>
    </g>
    <g transform="matrix(4.16667,0,0,4.16667,1273.6,1751.17)">
        <path d="M0,-15.159C0,-15.159 -6.348,-18.191 -9.475,-17.528C-12.602,-16.864 -14.022,-11.843 -13.833,-9.474C-13.644,-7.105 -15.633,-2.273 -12.507,-0.473C-9.38,1.326 -5.021,2.275 -0.947,3.98C3.127,5.685 7.201,5.779 12.223,5.59C17.244,5.401 17.623,7.58 20.939,3.222C24.255,-1.137 25.486,-3.126 25.582,-6.537C25.677,-9.948 22.455,-15.538 21.318,-16.012C20.181,-16.485 7.485,-22.739 5.495,-22.55C3.506,-22.36 0.284,-19.802 0.379,-19.328C0.474,-18.854 0,-14.78 0,-14.78L0,-15.159Z" style="fill:rgb(22,29,32);fill-rule:nonzero;"/>
    </g>
    <g transform="matrix(4.16667,0,0,4.16667,1412.95,1738.54)">
        <path d="M0,-14.781C0,-14.781 -5.874,-23.497 -8.527,-22.171C-11.18,-20.844 -14.022,-12.128 -14.022,-10.423C-14.022,-8.717 -17.243,4.168 -16.296,4.548C-15.349,4.927 -3.031,8.148 -3.031,8.148L15.729,8.716L24.065,7.39C24.065,7.39 27.287,-10.423 25.393,-13.075C23.497,-15.728 13.644,-20.844 9.664,-16.865C5.685,-12.885 0,-14.781 0,-14.781" style="fill:rgb(72,129,164);fill-rule:nonzero;"/>
    </g>
    <g transform="matrix(-2.68523,3.18601,3.18601,2.68523,1456.35,1735.6)">
        <path d="M6.85,-13.796C6.85,-13.796 7.957,0.767 8.041,3.315L6.85,3.552L4.98,-13.637L6.85,-13.796Z" style="fill:rgb(72,129,164);fill-rule:nonzero;"/>
    </g>
    <g transform="matrix(4.16667,0,0,4.16667,1418.48,1740.9)">
        <path d="M0,-9.663C0,-9.663 7.959,-0.757 9.854,0.191C11.749,1.138 10.423,-0.947 10.423,-0.947L6.633,-6.063L1.706,-10.801L0,-9.663Z" style="fill:rgb(72,129,164);fill-rule:nonzero;"/>
    </g>
    <g transform="matrix(4.16667,0,0,4.16667,1403.48,1789.07)">
        <path d="M0,-13.644C0,-13.644 -0.189,-10.801 -3.601,-9.096C-7.012,-7.39 -14.78,-6.632 -14.78,-6.632C-14.78,-6.632 -18.002,-4.927 -16.865,-4.359C-15.729,-3.79 -17.434,-3.601 -16.486,-2.842C-15.539,-2.084 -16.676,-1.706 -14.97,-0.948C-13.265,-0.19 -13.454,0 -11.938,-0.19C-10.423,-0.379 -6.443,-1.516 -5.116,-1.706C-3.79,-1.895 -0.947,-2.084 -0.379,-3.601C0.189,-5.117 0.379,-7.011 1.137,-7.58C1.895,-8.149 3.6,-10.991 3.6,-10.991L0,-13.644Z" style="fill:rgb(122,86,74);fill-rule:nonzero;"/>
    </g>
    <g transform="matrix(4.16667,0,0,4.16667,1424.8,1785.12)">
        <path d="M0,-5.685C0,-5.685 -3.222,-4.548 -3.79,-3.412C-4.358,-2.275 -7.77,-2.084 -6.822,-1.137C-5.874,-0.19 -7.58,0.568 -4.548,0.378C-1.517,0.189 4.169,-0.569 4.927,-0.569C5.685,-0.569 8.717,-0.19 6.821,-1.516C4.927,-2.843 4.548,-3.601 3.221,-4.927C1.895,-6.253 0,-5.685 0,-5.685" style="fill:rgb(138,98,84);fill-rule:nonzero;"/>
    </g>
    <g transform="matrix(4.16667,0,0,4.16667,1419.37,1654.05)">
        <path d="M0,-1.349L0,4.264C0,4.264 -4.335,7.533 -4.406,7.888C-4.477,8.244 -4.335,8.599 -4.975,8.883C-5.614,9.168 -9.167,10.447 -9.167,10.447C-9.167,10.447 -8.314,13.644 -7.178,14.284C-7.178,14.284 -4.122,14.426 -2.559,13.289C-0.995,12.152 2.061,11.015 3.837,9.807C5.613,8.599 7.532,7.463 10.659,6.255C13.785,5.047 23.308,-0.355 22.952,-0.709C22.597,-1.065 19.684,-9.663 19.399,-10.089C19.115,-10.516 12.436,-15.775 12.436,-15.775L6.608,-9.165C6.608,-9.165 4.121,-13.713 3.979,-13.997C3.837,-14.283 1.279,-13.997 -0.355,-12.435C-1.99,-10.871 -3.979,-10.089 -5.685,-8.811C-7.391,-7.532 -9.664,-6.679 -10.446,-6.536C-11.228,-6.395 -14.71,-4.689 -14.71,-4.689C-14.71,-4.689 -17.126,-0.639 -17.126,0.499C-17.126,1.635 -17.268,7.463 -17.268,7.675C-17.268,7.888 -16.486,8.955 -16.486,8.955C-16.486,8.955 -13.359,7.604 -11.299,9.452C-11.299,9.452 -11.654,2.417 -11.299,1.493C-10.943,0.569 -10.872,-1.917 -10.659,-1.917C-10.446,-1.917 -8.527,-2.06 -7.178,-1.136C-5.827,-0.212 -5.472,-0.923 -5.472,-0.923L0,-1.349Z" style="fill:white;fill-rule:nonzero;"/>
    </g>
    <g transform="matrix(4.16667,0,0,4.16667,1784.74,1609.5)">
        <path d="M0,-6.396C-0.213,-5.828 -0.711,-3.696 -1.351,-2.488C-1.99,-1.28 -2.416,-1.28 -2.416,-0.924C-2.416,-0.569 -3.767,-0.142 -2.132,-0.072C-0.498,0 1.065,-0.498 0.924,-0.853C0.781,-1.209 0,-6.396 0,-6.396" style="fill:rgb(112,69,58);fill-rule:nonzero;"/>
    </g>
    <g transform="matrix(4.16667,0,0,4.16667,1896.98,2170.03)">
        <path d="M0,-27.571C0,-27.571 1.501,-16.202 -1.501,-14.497C-4.503,-12.791 -10.807,-5.969 -10.807,-5.969C-10.807,-5.969 -10.807,-2.274 -9.006,-1.706C-7.205,-1.137 -9.606,0 -6.305,-0.569C-3.002,-1.137 0,-0.569 0,-0.569C0,-0.569 2.701,-1.99 3.902,-2.274C5.103,-2.558 3.002,-0.285 8.705,-4.548C14.409,-8.811 16.811,-10.233 15.609,-11.654C14.409,-13.075 12.308,-18.475 12.308,-18.475L0,-27.571Z" style="fill:rgb(138,102,85);fill-rule:nonzero;"/>
    </g>
    <g transform="matrix(4.16667,0,0,4.16667,1975.12,2157.4)">
        <path d="M0,-11.654C0,-11.654 -4.264,-13.075 -5.969,-12.222C-7.675,-11.37 -11.938,-10.8 -11.37,-9.095C-10.802,-7.39 -9.38,-4.548 -8.243,-4.548C-7.106,-4.548 -10.802,-4.263 -8.527,-2.558L-6.254,-0.852C-6.254,-0.852 -6.822,0.853 -5.685,1.137C-4.548,1.421 -1.137,0.853 -1.137,0.853L3.411,0.284L6.537,-2.274C6.537,-2.274 10.232,-4.263 9.948,-5.4C9.664,-6.538 0,-11.654 0,-11.654" style="fill:rgb(157,115,97);fill-rule:nonzero;"/>
    </g>
    <g transform="matrix(4.16667,0,0,4.16667,1989.92,1594.94)">
        <path d="M0,8.147C0,8.147 -1.137,2.273 -3.79,1.515C-3.79,1.515 0.758,0 4.927,2.273C4.927,2.273 1.516,4.737 0,8.147" style="fill:rgb(221,193,41);fill-rule:nonzero;"/>
    </g>
    <g transform="matrix(4.16667,0,0,4.16667,1942.55,1611.52)">
        <path d="M0,6.064L1.895,8.527C1.895,8.527 8.716,6.822 10.611,7.201L11.369,4.168C11.369,4.168 10.043,-1.516 7.579,-2.463C7.579,-2.463 1.516,1.137 0,6.064" style="fill:rgb(57,56,59);fill-rule:nonzero;"/>
    </g>
    <g transform="matrix(4.16667,0,0,4.16667,2005.12,1703.8)">
        <path d="M0,-24.255C0,-24.255 -0.19,-24.009 -0.498,-23.583C-1.688,-21.935 -4.625,-17.605 -4.927,-14.591C-5.306,-10.801 2.843,-4.548 3.79,-3.411C4.737,-2.275 6.822,-0.758 7.959,-0.379C9.096,0 10.802,-8.149 10.232,-8.149C9.664,-8.149 5.306,-11.939 3.411,-13.454C1.517,-14.97 0,-24.255 0,-24.255" style="fill:rgb(132,97,81);fill-rule:nonzero;"/>
    </g>
    <g transform="matrix(4.16667,0,0,4.16667,2057.23,1669.06)">
        <path d="M0,-17.623C0,-17.623 -7.959,-22.739 -12.507,-15.917C-17.055,-9.096 -3.79,5.116 -1.516,1.516C0.758,-2.084 0,-17.623 0,-17.623" style="fill:rgb(35,31,32);fill-rule:nonzero;"/>
    </g>
    <g transform="matrix(4.16667,0,0,4.16667,2164.61,1733.8)">
        <path d="M0,-20.086C0,-20.086 -0.075,-19.875 -0.195,-19.527C-0.68,-18.129 -1.895,-14.516 -1.895,-13.454C-1.895,-12.127 -1.516,-10.232 -2.273,-9.096C-3.031,-7.958 -5.306,-8.148 -3.6,-7.011C-1.895,-5.874 -2.463,-7.39 -2.652,-5.874C-2.842,-4.358 -2.652,-2.274 -2.463,-1.326C-2.273,-0.379 -1.326,0 -0.758,-0.379C-0.189,-0.758 3.222,-2.463 2.843,-3.98C2.464,-5.495 0,-20.086 0,-20.086" style="fill:rgb(132,97,81);fill-rule:nonzero;"/>
    </g>
    <g transform="matrix(4.16667,0,0,4.16667,1786.22,1782.56)">
        <path d="M0,-43.346C0,-43.346 -1.563,-48.462 0.142,-49.6C1.848,-50.737 7.39,-53.01 9.806,-52.158C12.222,-51.305 17.054,-47.325 18.476,-45.336C19.896,-43.346 22.312,-39.509 22.597,-36.666C22.881,-33.825 19.328,-31.55 19.328,-31.55C19.328,-31.55 23.165,-27.429 24.586,-21.744C26.008,-16.06 27.002,-11.938 27.002,-7.674C27.002,-3.41 24.87,5.258 24.444,5.543C24.018,5.827 17.765,8.101 16.344,7.959C14.922,7.816 -7.248,9.664 -7.248,9.664C-7.248,9.664 -11.938,-2.274 -10.375,-6.111C-8.812,-9.949 -6.111,-26.292 -5.543,-27.002C-4.975,-27.713 -1.99,-33.114 -1.99,-33.114C-1.99,-33.114 -1.99,-34.961 -2.843,-36.809C-3.695,-38.657 -3.979,-40.646 -2.984,-41.925L0,-43.346Z" style="fill:rgb(176,157,168);fill-rule:nonzero;"/>
    </g>
    <g transform="matrix(4.16667,0,0,4.16667,2166.98,1953.3)">
        <path d="M0,-56.089C0,-56.089 -1.896,-58.742 -1.327,-63.48C-0.759,-68.217 -0.948,-74.47 -0.38,-75.417C0.189,-76.365 10.99,-78.26 14.022,-78.26C17.054,-78.26 21.033,-80.345 24.444,-76.555C27.854,-72.765 29.561,-65.374 31.076,-59.69C32.592,-54.005 29.939,-45.288 29.939,-45.288C29.939,-45.288 33.161,-40.74 35.624,-37.329C38.088,-33.919 43.962,-27.286 45.478,-23.876C46.994,-20.465 51.541,-20.086 48.889,-13.832C46.235,-7.579 45.099,-1.516 44.341,3.222C43.583,7.959 44.341,11.37 38.656,15.728C32.972,20.087 21.033,23.118 14.212,23.687C7.39,24.256 -3.032,21.602 -3.032,17.812C-3.032,14.022 -4.169,-2.842 -6.822,-13.264C-9.475,-23.687 -6.254,-37.329 -5.117,-41.688C-3.979,-46.046 -3.601,-55.331 0,-56.089" style="fill:rgb(226,231,112);fill-rule:nonzero;"/>
    </g>
    <g transform="matrix(4.16667,0,0,4.16667,2034.33,1812.76)">
        <path d="M0,-28.14C0.284,-29.277 4.832,-38.657 4.264,-44.057C3.695,-49.457 4.548,-53.153 4.548,-53.153C4.548,-53.153 17.338,-46.046 18.476,-40.646C19.612,-35.245 17.054,-25.013 20.181,-14.781C23.308,-4.548 28.708,10.801 28.14,16.202C27.571,21.602 27.571,25.013 27.571,25.013L8.243,-3.411L0,-28.14Z" style="fill:rgb(82,81,83);fill-rule:nonzero;"/>
    </g>
    <g transform="matrix(4.16667,0,0,4.16667,1571.26,1763.01)">
        <path d="M0,-48.32C-1.535,-47.697 -6.063,-43.488 -6.348,-41.593C-6.632,-39.699 -7.863,-39.888 -7.39,-37.803C-6.916,-35.719 -5.495,-35.909 -7.011,-35.435C-8.527,-34.962 -10.99,-33.54 -11.653,-32.877C-12.316,-32.214 -14.875,-31.645 -16.77,-30.035C-18.665,-28.424 -21.128,-26.718 -20.844,-26.718C-20.56,-26.718 -17.622,-26.15 -15.159,-25.298C-12.695,-24.444 -9.475,-25.961 -9.19,-22.36C-8.906,-18.759 -7.484,-11.749 -7.484,-11.749C-7.484,-11.749 -8.622,-1.706 -8.147,-0.284C-7.674,1.137 -7.011,1.232 -5.021,0.663C-3.031,0.095 14.496,-19.044 16.865,-22.265C19.233,-25.487 19.139,-29.655 18.097,-30.698C17.055,-31.74 11.938,-36.856 11.465,-37.709C10.991,-38.561 10.707,-41.593 9.475,-43.299C8.243,-45.005 7.864,-45.005 7.391,-45.762C6.917,-46.52 3.032,-49.552 0,-48.32" style="fill:rgb(168,156,65);fill-rule:nonzero;"/>
    </g>
    <g transform="matrix(4.16667,0,0,4.16667,1499.81,1789.86)">
        <path d="M0,-28.803C-0.235,-28.38 -3.601,-22.929 -4.074,-17.718C-4.548,-12.506 -2.464,-11.748 -3.411,-8.907C-4.358,-6.064 -4.264,-7.39 -2.653,-4.169C-1.043,-0.948 1.231,1.136 1.61,1.801C1.989,2.464 -2.843,2.843 1.421,3.885C5.685,4.926 6.632,5.116 9.854,4.832C13.074,4.548 14.78,5.116 15.064,0.758C15.349,-3.601 14.496,-5.211 14.212,-13.075C13.928,-20.939 12.979,-27.95 12.032,-29.656C11.085,-31.361 2.842,-33.919 0,-28.803" style="fill:rgb(19,20,22);fill-rule:nonzero;"/>
    </g>
    <g transform="matrix(4.16667,0,0,4.16667,1671.93,1685.25)">
        <path d="M0,-17.055C0,-17.055 0.379,-14.496 -4.737,-14.97C-9.854,-15.444 -10.043,-14.26 -10.043,-14.639C-10.043,-15.018 -9.854,-17.055 -9.854,-17.055C-9.854,-17.055 -11.085,-17.244 -11.369,-14.97C-11.653,-12.697 -11.843,-13.644 -10.327,-11.56C-8.812,-9.475 -5.874,-8.907 -8.147,-8.243C-10.422,-7.58 -16.296,-3.222 -16.296,-3.222C-16.296,-3.222 -16.201,1.705 -15.159,3.6C-14.117,5.495 6.349,12.316 6.349,12.316C6.349,12.316 16.486,-2.275 16.202,-2.654C15.918,-3.033 9.475,-8.528 9.38,-12.223C9.285,-15.918 9.475,-16.392 8.054,-19.234C6.633,-22.076 7.201,-23.782 4.169,-25.108C1.138,-26.435 3.127,-29.371 -1.137,-27.951C-5.4,-26.53 -10.138,-21.508 -10.043,-21.224C-9.948,-20.94 -6.442,-21.224 -4.927,-19.802C-3.41,-18.381 0,-17.055 0,-17.055" style="fill:rgb(154,81,158);fill-rule:nonzero;"/>
    </g>
    <g transform="matrix(4.16667,0,0,4.16667,1552.7,1605.5)">
        <path d="M0,0.758C0,0.758 2.938,-3.032 8.148,-2.369L13.359,-1.706C13.359,-1.706 13.454,0.569 13.454,1.232C13.454,1.895 12.317,1.232 10.991,2.084C9.664,2.937 8.054,3.221 5.97,3.411C3.03,3.678 0.947,3.79 0.474,3.221C0,2.653 0,0.758 0,0.758" style="fill:rgb(112,69,58);fill-rule:nonzero;"/>
    </g>
    <g transform="matrix(4.16667,0,0,4.16667,1610.34,1826.58)">
        <path d="M0,-36.668C0,-36.668 -3.695,-38.941 -6.253,-34.772C-8.812,-30.604 -10.517,-25.677 -11.559,-22.74C-12.601,-19.803 -14.875,-13.929 -14.78,-12.603C-14.686,-11.275 -12.127,-8.055 -12.127,-8.055C-12.127,-8.055 -10.138,-6.349 -9.001,-5.022C-7.863,-3.696 -7.011,0.283 -5.685,0.757C-4.358,1.23 3.316,2.273 3.316,2.273C3.316,2.273 12.128,-0.38 12.128,-3.128C12.128,-5.875 5.495,-21.888 5.495,-21.888L0,-36.668Z" style="fill:rgb(15,25,33);fill-rule:nonzero;"/>
    </g>
    <g transform="matrix(4.16667,0,0,4.16667,1833.79,2152.26)">
        <path d="M0,-60.069C-0.569,-58.174 -7.959,-31.835 -7.959,-31.835C-7.959,-31.835 -6.064,-14.781 1.326,-12.128C8.716,-9.474 13.833,-7.201 14.78,-9.285C15.728,-11.37 16.675,-21.034 16.675,-21.034C16.675,-21.034 18.57,-16.675 23.687,-14.781C28.803,-12.885 27.665,-10.801 34.677,-7.58C41.688,-4.358 50.783,0 50.783,0C50.783,0 49.078,-7.39 52.11,-4.169C55.142,-0.948 57.605,-0.189 63.479,-2.842C69.354,-5.496 74.659,-12.696 76.744,-19.708C78.828,-26.718 79.018,-34.677 78.449,-38.657C77.881,-42.635 68.217,-48.131 68.217,-48.131L-0.759,-59.311" style="fill:rgb(68,113,86);fill-rule:nonzero;"/>
    </g>
    <g transform="matrix(4.16667,0,0,4.16667,408.251,1812.76)">
        <path d="M0,-28.566C0,-28.566 -2.843,-30.556 -0.568,-35.53C1.705,-40.504 -0.853,-40.504 3.695,-43.63C8.243,-46.757 9.948,-48.321 11.654,-48.605C13.359,-48.889 18.191,-49.173 19.044,-49.032C19.896,-48.889 22.739,-48.605 22.881,-48.178C23.023,-47.753 22.739,-42.494 22.028,-39.794C21.318,-37.093 21.744,-33.682 22.171,-30.982C22.597,-28.282 23.023,-27.856 23.592,-27.003C24.16,-26.15 29.561,-24.729 29.987,-23.592C30.414,-22.455 31.692,20.607 31.692,20.607C31.692,20.607 10.943,20.323 6.253,19.328C1.563,18.333 -6.396,16.912 -4.405,12.222C-2.416,7.532 -2.273,3.553 -3.127,-1.563C-3.979,-6.68 -6.396,-7.674 -5.4,-13.359C-4.405,-19.045 0,-28.566 0,-28.566" style="fill:rgb(126,125,83);fill-rule:nonzero;"/>
    </g>
    <g transform="matrix(4.16667,0,0,4.16667,619.062,1918.16)">
        <path d="M0,-38.088C-0.853,-37.946 -24.303,-37.662 -24.729,-37.235C-25.155,-36.81 -23.308,-31.693 -23.876,-27.287C-24.444,-22.882 -23.592,-14.923 -24.16,-12.08C-24.729,-9.238 -24.019,-4.691 -20.181,-2.7C-16.344,-0.711 -8.954,0 -5.827,-0.427C-2.7,-0.853 -1.848,-5.259 -1.848,-5.259L0,-38.088Z" style="fill:rgb(155,169,158);fill-rule:nonzero;"/>
    </g>
    <g transform="matrix(4.16667,0,0,4.16667,563.398,1853.03)">
        <path d="M0,-43.347C-3.127,-41.499 -8.527,-40.363 -9.38,-38.089C-10.232,-35.815 -16.201,-25.867 -16.344,-22.03C-16.486,-18.192 -16.771,-7.675 -16.771,-4.975C-16.771,-2.275 -14.639,4.547 -14.639,4.547L-16.912,7.674C-16.912,7.674 -18.049,9.948 -18.617,11.51C-19.187,13.074 -17.48,14.211 -15.775,13.501C-14.07,12.79 -7.675,14.78 -6.821,13.642C-5.969,12.506 -9.096,12.079 -9.948,7.816C-10.801,3.552 -11.085,-2.701 -10.659,-7.959C-10.232,-13.218 -9.948,-20.75 -9.948,-20.75C-9.948,-20.75 3.411,-19.755 7.675,-20.182C11.938,-20.608 12.791,-16.202 17.055,-21.177C21.317,-26.151 25.297,-27.43 25.297,-34.251C25.297,-41.074 26.15,-50.595 26.15,-51.022C26.15,-51.449 22.028,-58.127 16.771,-57.559C11.512,-56.991 4.832,-56.138 3.411,-52.159C1.989,-48.179 0,-43.347 0,-43.347" style="fill:rgb(167,32,67);fill-rule:nonzero;"/>
    </g>
    <g transform="matrix(4.16667,0,0,4.16667,652.814,1949.55)">
        <path d="M0,-39.936C0,-39.936 -10.091,-37.378 -12.08,-34.962C-14.069,-32.546 -17.339,-29.277 -17.623,-26.151C-17.907,-23.024 -18.333,-17.765 -18.333,-15.349C-18.333,-12.933 -17.48,-5.259 -15.633,-3.696C-13.785,-2.132 -17.623,-2.275 -11.938,-1.137C-6.253,0 2.273,0 2.273,0C2.273,0 8.527,-5.685 8.812,-13.217C9.096,-20.75 0,-39.936 0,-39.936" style="fill:rgb(167,72,142);fill-rule:nonzero;"/>
    </g>
    <g transform="matrix(4.16667,0,0,4.16667,620.246,1829.34)">
        <path d="M0,-19.754C0,-19.754 -7.391,-11.938 -8.527,-8.527C-9.664,-5.116 -12.223,4.406 -12.223,7.391C-12.223,10.375 -9.664,24.587 -8.527,24.728C-7.391,24.871 -7.675,25.298 -7.675,20.466C-7.675,15.634 -7.959,6.395 -4.548,1.563C-1.137,-3.269 2.842,-7.674 6.253,-8.527C9.664,-9.38 12.364,-10.375 14.923,-13.359C17.48,-16.344 20.465,-21.886 20.892,-23.308C21.317,-24.729 23.023,-37.235 22.881,-37.804C22.739,-38.372 20.465,-41.925 14.354,-43.488C8.243,-45.052 2.7,-42.92 2.416,-38.088C2.132,-33.256 2.842,-29.561 1.848,-26.008C0.853,-22.455 -1.421,-22.028 0,-19.754" style="fill:rgb(13,14,14);fill-rule:nonzero;"/>
    </g>
    <g transform="matrix(4.16667,0,0,4.16667,824.543,1887.97)">
        <path d="M0,-30.983C0,-31.409 -2.274,-48.748 -3.269,-52.3C-4.264,-55.854 -2.843,-59.691 -7.391,-60.402C-11.938,-61.112 -16.344,-63.386 -20.039,-61.112C-23.734,-58.838 -26.576,-58.128 -27.287,-53.295C-27.998,-48.463 -32.688,-44.2 -34.108,-40.647C-35.53,-37.094 -38.372,-31.409 -39.936,-27.999C-41.499,-24.587 -45.194,-15.634 -45.336,-12.934C-45.479,-10.233 -45.479,-6.823 -44.768,-6.396C-44.058,-5.97 -42.21,-7.107 -42.21,-7.107C-42.21,-7.107 -43.347,1.136 -42.636,3.268C-41.926,5.4 -43.488,8.668 -42.494,12.789C-41.499,16.912 -42.494,18.475 -39.936,22.312C-37.378,26.149 -39.083,30.697 -32.972,31.123C-26.86,31.549 -22.739,32.403 -19.612,29.987C-16.486,27.571 -15.35,8.384 -12.507,0.568C-9.664,-7.249 0,-30.983 0,-30.983" style="fill:rgb(78,81,81);fill-rule:nonzero;"/>
    </g>
    <g transform="matrix(4.16667,0,0,4.16667,771.841,2123.64)">
        <path d="M0,-53.295C0,-53.295 -4.264,-43.063 -5.543,-38.657C-6.822,-34.251 -10.091,-24.445 -7.533,-20.323C-4.975,-16.202 5.116,-11.796 10.09,-12.649C15.064,-13.502 16.912,0 24.16,-14.355C31.408,-28.708 31.55,-14.78 31.408,-28.708C31.266,-42.636 21.176,-48.321 21.176,-48.321L0,-53.295Z" style="fill:rgb(209,100,40);fill-rule:nonzero;"/>
    </g>
    <g transform="matrix(4.16667,0,0,4.16667,824.543,1963.76)">
        <path d="M0,-49.174C-1.137,-48.463 -2.7,-47.753 -5.827,-49.031C-8.954,-50.311 -15.634,-45.479 -17.623,-43.063C-19.612,-40.647 -22.598,-24.73 -23.45,-18.476C-24.303,-12.223 -27.43,3.694 -26.435,6.679C-25.439,9.664 -26.15,15.348 -26.15,15.348C-26.15,15.348 -23.45,12.506 -22.171,10.516C-20.892,8.526 -18.334,11.226 -19.044,13.501C-19.755,15.774 -21.318,17.054 -19.896,20.749C-18.476,24.444 -14.354,26.008 -12.364,24.87C-10.375,23.733 -13.644,22.597 -12.08,21.744C-10.517,20.89 -6.822,20.606 -9.522,18.617C-12.223,16.628 -13.218,21.176 -14.07,14.212C-14.923,7.248 -16.486,10.374 -14.496,4.973C-12.507,-0.427 -9.522,-14.355 -9.522,-14.355C-9.522,-14.355 -8.527,-3.98 -6.68,-1.99C-4.832,0 1.279,-0.427 1.563,0.284C1.848,0.994 0,5.116 5.116,5.826C10.232,6.537 15.064,4.121 18.476,3.41C21.886,2.7 36.098,-19.755 38.514,-25.298C40.93,-30.841 44.768,-41.358 41.499,-42.494C38.229,-43.631 36.524,-45.905 33.397,-47.042C30.271,-48.179 26.149,-49.458 25.155,-49.458C24.16,-49.458 27.145,-50.595 26.576,-56.279C26.008,-61.965 24.018,-64.665 21.033,-67.081C18.049,-69.497 14.069,-75.182 10.659,-70.35C7.248,-65.518 0.284,-60.543 -0.568,-56.706C-1.422,-52.869 0,-49.174 0,-49.174" style="fill:rgb(207,124,164);fill-rule:nonzero;"/>
    </g>
    <g transform="matrix(4.16667,0,0,4.16667,875.467,2128.97)">
        <path d="M0,-15.491C0.143,-15.065 4.406,-3.269 9.948,0.426C15.491,4.121 18.902,6.111 25.014,6.963C31.124,7.817 36.241,6.821 36.241,6.821L41.073,-15.918L36.951,-23.308L0,-15.491Z" style="fill:rgb(26,37,31);fill-rule:nonzero;"/>
    </g>
    <g transform="matrix(4.16667,0,0,4.16667,1005.54,2139.63)">
        <path d="M0,1.137C0.38,1.705 -3.979,20.276 0.759,27.287C5.496,34.298 7.012,37.899 20.655,38.467C34.299,39.035 36.383,39.414 46.426,33.919C56.469,28.424 62.723,20.465 63.67,20.655C64.617,20.844 73.902,27.287 81.672,27.098C89.44,26.908 89.63,28.045 90.957,22.74C92.283,17.434 91.146,17.055 94.937,13.265C98.726,9.475 98.536,12.507 100.811,9.664C103.084,6.822 103.463,1.137 100.621,-6.821C97.778,-14.78 91.336,-22.739 89.251,-27.287C87.167,-31.835 82.809,-37.898 79.776,-38.088C76.745,-38.277 59.501,-26.34 58.743,-25.012C57.985,-23.686 -1.895,0.758 -0.947,0.948" style="fill:rgb(186,40,102);fill-rule:nonzero;"/>
    </g>
    <g transform="matrix(4.16667,0,0,4.16667,868.956,1731.04)">
        <path d="M0,79.019L9.806,37.947C9.806,37.947 13.217,26.577 16.201,23.876C19.186,21.176 27.997,19.613 28.992,17.908C29.986,16.203 25.865,8.67 30.129,2.843C34.393,-2.984 42.92,-6.111 47.325,-4.405C51.73,-2.7 55,2.559 55.71,6.964C56.421,11.371 53.152,18.476 55.568,22.597C57.984,26.719 64.664,30.983 64.948,34.82C65.232,38.657 35.388,76.035 20.891,80.582C6.395,85.13 0.71,84.419 0,79.019" style="fill:rgb(18,140,126);fill-rule:nonzero;"/>
    </g>
    <g transform="matrix(4.16667,0,0,4.16667,1510.86,2218.59)">
        <path d="M0,-40.553C-0.947,-40.742 -12.886,-43.395 -15.917,-40.364C-18.949,-37.331 -20.654,-26.72 -20.465,-23.498C-20.275,-20.277 -10.611,-10.423 -3.979,-10.802C2.653,-11.181 30.698,-2.085 38.088,0.378C45.479,2.842 54.195,0.567 58.174,-0.949C62.153,-2.465 51.542,-3.033 68.218,-6.444C84.893,-9.855 90.956,-6.444 86.219,-14.403C81.481,-22.362 82.619,-20.656 79.397,-29.372C76.176,-38.089 71.438,-40.174 69.733,-39.036C68.028,-37.9 0,-40.553 0,-40.553" style="fill:rgb(70,36,29);fill-rule:nonzero;"/>
    </g>
    <g transform="matrix(4.16667,0,0,4.16667,1628.5,1978.56)">
        <path d="M0,-39.794C0,-39.794 -7.959,-50.026 -7.769,-57.416C-7.579,-64.807 -8.906,-64.996 -4.358,-68.597C0.189,-72.197 6.253,-79.776 12.886,-78.071C19.518,-76.365 24.823,-77.882 26.529,-70.87C28.234,-63.859 29.75,-45.289 29.75,-42.067C29.75,-38.846 33.161,-39.983 34.487,-37.33C35.814,-34.678 42.257,-19.897 44.152,-13.075C46.047,-6.254 49.079,8.717 51.542,11.559C54.006,14.401 56.469,16.485 53.058,17.243C49.647,18.002 48.51,19.896 43.204,24.823C37.898,29.75 35.246,33.161 28.613,36.572C21.981,39.982 11.938,39.793 10.801,37.519C9.664,35.245 3.032,31.076 2.274,23.308C1.516,15.538 0,-39.794 0,-39.794" style="fill:rgb(221,208,220);fill-rule:nonzero;"/>
    </g>
    <g transform="matrix(4.16667,0,0,4.16667,1522.7,2085.15)">
        <path d="M0,-18.191C-3.979,-17.623 -4.358,-15.159 -4.548,-9.285C-4.737,-3.411 -10.611,-2.273 -5.685,9.286C-0.758,20.845 1.137,22.929 2.084,25.204C3.031,27.477 -7.012,30.32 2.084,34.109C11.18,37.899 11.369,36.194 16.296,40.931C21.223,45.668 22.55,47.184 24.255,45.1C25.96,43.015 15.917,37.52 25.013,39.984C34.108,42.447 43.772,46.616 43.772,42.447C43.772,38.278 62.532,37.709 63.29,36.383C64.048,35.057 54.194,32.214 47.563,29.941C40.93,27.666 29.939,33.73 34.108,22.929C38.277,12.128 32.214,-1.894 32.593,-14.59C32.972,-27.287 36.003,-26.338 32.593,-38.845C29.182,-51.352 25.392,-65.375 25.392,-65.375C25.392,-65.375 10.611,-54.573 9.475,-50.784C8.338,-46.994 3.79,-34.676 3.031,-29.181C2.273,-23.686 0,-18.191 0,-18.191" style="fill:rgb(174,142,165);fill-rule:nonzero;"/>
    </g>
    <g transform="matrix(4.16667,0,0,4.16667,1925.37,2000.67)">
        <path d="M0,-55.332C0,-54.764 -4.927,-53.815 -10.801,-50.974C-16.675,-48.131 -22.739,-45.668 -23.687,-45.289C-24.634,-44.91 -28.613,-48.131 -27.855,-44.341C-27.097,-40.552 -26.718,-24.065 -25.392,-21.603C-24.065,-19.139 -26.718,-17.623 -22.739,-16.107C-18.76,-14.591 -17.054,-17.055 -14.401,-15.349C-11.748,-13.644 -11.938,-7.391 -6.821,-5.685C-1.705,-3.979 6.254,-2.843 6.254,-2.843C6.254,-2.843 9.475,3.032 9.854,7.011C10.232,10.99 9.854,11.18 10.991,14.591C12.128,18.002 17.055,25.771 20.087,28.803C23.118,31.835 23.118,35.435 25.203,32.214C27.287,28.992 30.319,23.687 34.108,19.518C37.898,15.349 42.636,9.096 45.289,7.2C47.941,5.306 57.605,-2.274 57.985,-4.927C58.364,-7.58 59.312,-9.096 56.279,-16.486C53.248,-23.876 50.974,-30.319 48.131,-36.383C45.289,-42.446 37.141,-53.247 36.193,-54.385C35.246,-55.521 36.762,-59.311 34.678,-62.722C32.593,-66.133 29.371,-69.544 28.613,-71.249C27.855,-72.955 21.981,-86.408 17.623,-86.598C13.265,-86.787 1.706,-90.767 -2.273,-83.756C-6.253,-76.744 -5.874,-66.891 -4.737,-64.049C-3.601,-61.206 0,-55.332 0,-55.332" style="fill:rgb(186,165,67);fill-rule:nonzero;"/>
    </g>
    <g transform="matrix(4.16667,0,0,4.16667,1626.13,2185.42)">
        <path d="M0,-51.921C-4.459,-51.028 -1.516,-51.542 -6.442,-51.921C-11.369,-52.3 -11.748,-55.711 -13.644,-49.647C-15.538,-43.583 -16.676,-43.962 -18.949,-43.204C-21.223,-42.446 -23.118,-38.656 -22.739,-34.866C-22.36,-31.076 -18.191,-25.392 -15.538,-20.465C-12.886,-15.538 -17.812,-14.78 -15.538,-10.99C-13.265,-7.2 -9.475,-6.442 -8.717,-3.41C-7.959,-0.379 -6.442,-6.064 -0.758,-3.789C4.927,-1.516 7.201,3.79 7.201,0.379C7.201,-3.031 5.685,-3.41 7.959,-5.685C10.232,-7.958 7.201,-7.2 7.959,-13.265C8.717,-19.328 3.79,-52.679 0,-51.921" style="fill:rgb(169,29,58);fill-rule:nonzero;"/>
    </g>
    <g transform="matrix(4.16667,0,0,4.16667,1631.66,1620.9)">
        <path d="M0,-6.064C-0.315,-5.59 -0.189,-2.274 -0.189,-1.706C-0.189,-1.137 -1.326,1.137 0,1.137C1.327,1.137 8.148,0.948 8.717,0.569C9.285,0.19 10.802,-1.516 10.612,-2.274C10.423,-3.032 0.758,-7.201 0,-6.064" style="fill:rgb(130,91,83);fill-rule:nonzero;"/>
    </g>
    <g transform="matrix(-0.745356,-4.09946,-4.09946,0.745356,1633.18,1614.12)">
        <path d="M-0.851,-1.279C-0.717,-0.943 -0.513,-0.619 -0.494,-0.116C-0.476,0.386 -0.576,0.621 -0.851,0.309C-1.124,-0.002 -1.639,-0.847 -1.105,-1.088C-0.571,-1.33 -0.851,-1.279 -0.851,-1.279" style="fill:rgb(66,46,34);fill-rule:nonzero;"/>
    </g>
    <g transform="matrix(-0.706945,4.10626,4.10626,0.706945,1655.34,1614.26)">
        <path d="M1.061,-0.682C1.061,-0.682 1.274,-1.078 1.318,-0.493C1.361,0.091 1.061,1.41 1.061,1.41C1.061,1.41 0.383,-0.511 0.629,-0.684C0.875,-0.858 1.061,-0.682 1.061,-0.682" style="fill:rgb(66,46,34);fill-rule:nonzero;"/>
    </g>
    <g transform="matrix(4.16667,0,0,4.16667,1435.26,1534.24)">
        <path d="M0,14.496C-0.568,13.217 -1.658,11.085 -1.611,9.711C-1.563,8.337 -2.037,5.258 -2.037,5.258C-2.037,5.258 -3.885,2.511 -0.806,0.663C2.273,-1.185 6.68,-0.379 7.011,0.047C7.343,0.474 7.769,3.079 8.479,4.31C9.19,5.542 9.569,6.869 9.569,6.869C9.569,6.869 10.043,6.016 10.375,7.343C10.706,8.669 10.801,9.19 10.138,10.043C9.475,10.895 9.285,11.796 8.764,11.512C8.243,11.227 7.627,12.032 7.295,12.411C6.964,12.79 5.638,15.395 4.5,15.538C3.363,15.681 0,14.496 0,14.496" style="fill:rgb(132,97,81);fill-rule:nonzero;"/>
    </g>
    <g transform="matrix(4.16667,0,0,4.16667,1510.86,1740.02)">
        <path d="M0,-20.109C0,-20.109 -3.114,-17.953 -2.629,-16.982C-2.487,-16.698 -0.355,-14.282 0.568,-12.577C1.492,-10.872 2.771,-9.166 3.908,-8.456C5.045,-7.745 7.461,-7.816 8.527,-6.537C9.593,-5.257 10.162,-3.481 10.162,-2.557C10.162,-1.633 6.253,1.848 5.259,0.783C4.264,-0.284 2.132,-3.126 1.848,-3.694C1.563,-4.263 -3.908,-5.329 -5.613,-8.171C-7.319,-11.013 -10.02,-15.632 -9.948,-15.988C-9.877,-16.343 -6.396,-21.957 -5.685,-21.814C-4.974,-21.672 -2.7,-20.109 -1.563,-20.18C-0.426,-20.252 0,-20.109 0,-20.109" style="fill:rgb(102,75,61);fill-rule:nonzero;"/>
    </g>
    <g transform="matrix(4.16667,0,0,4.16667,1441.87,1585.56)">
        <path d="M0,-0.674C-0.355,-0.674 -0.782,-0.993 -1.173,-0.639C-1.563,-0.283 -1.848,-0.39 -1.919,0.037C-1.99,0.463 -2.097,0.889 -2.097,0.677C-2.097,0.463 -2.345,-0.639 -2.097,-0.887C-1.848,-1.136 -1.314,-1.563 -0.675,-1.527C-0.035,-1.491 0.711,-1.349 1.243,-1.207C1.776,-1.065 2.203,-1.314 2.31,-0.852C2.416,-0.39 2.203,0.569 2.203,0.569C2.203,0.569 1.705,-0.425 1.421,-0.531C1.137,-0.639 0,-0.674 0,-0.674" style="fill:rgb(159,161,164);fill-rule:nonzero;"/>
    </g>
    <g transform="matrix(4.16667,0,0,4.16667,1439.06,1608.21)">
        <path d="M0,-4.797C-0.498,-4.832 -0.462,-4.335 -0.711,-4.086C-0.96,-3.837 -0.746,-3.483 -1.138,-3.802C-1.528,-4.122 -1.954,-5.152 -2.097,-5.862C-2.238,-6.573 -2.559,-8.599 -2.7,-8.137C-2.843,-7.675 -3.731,-5.046 -3.518,-3.66C-3.305,-2.275 -1.386,0.141 -1.173,0.852C-0.96,1.563 -0.604,3.802 0.106,3.446C0.816,3.091 2.132,1.954 3.304,0.995C4.477,0.035 5.187,-0.605 5.969,-1.528C6.75,-2.452 7.71,-4.335 7.496,-5.01C7.283,-5.685 7.142,-6.786 6.715,-5.862C6.288,-4.939 3.908,-3.376 3.73,-3.234C3.553,-3.091 3.232,-3.446 2.913,-3.837C2.594,-4.229 1.954,-3.553 1.421,-3.731C0.888,-3.908 0.924,-4.513 0.924,-4.513L0,-4.797Z" style="fill:rgb(159,161,164);fill-rule:nonzero;"/>
    </g>
    <g transform="matrix(4.16667,0,0,4.16667,1463.93,1567.51)">
        <path d="M0,-6.396C-0.889,-6.574 -0.995,-7.391 -2.451,-7.391C-3.908,-7.391 -4.548,-7.356 -5.969,-6.787C-7.391,-6.218 -8.492,-4.371 -8.456,-3.802C-8.421,-3.234 -8.705,0.141 -8.705,0.141C-8.705,0.141 -10.659,-3.874 -9.735,-5.188C-8.812,-6.502 -10.304,-8.28 -6.893,-8.918C-3.482,-9.558 -1.635,-9.38 -0.32,-8.741C0.995,-8.102 2.238,-7.462 2.735,-6.68C3.233,-5.899 3.624,-4.086 3.553,-2.843C3.481,-1.6 3.197,-0.889 3.197,-0.889C3.197,-0.889 1.635,-0.143 1.563,0.212C1.492,0.568 1.173,2.806 1.173,2.948C1.173,3.09 0.533,3.162 0.64,1.954C0.746,0.746 0.924,0.212 0.959,-0.854C0.995,-1.919 0.853,-3.199 0.426,-4.335C0,-5.472 -0.035,-6.539 -0.035,-6.539L0,-6.396Z" style="fill:rgb(159,161,164);fill-rule:nonzero;"/>
    </g>
    <g transform="matrix(4.16667,0,0,4.16667,1442.27,1563.36)">
        <path d="M0,-1.042C0.308,-0.806 0.521,-0.355 1.042,-0.332C1.563,-0.308 2.393,-0.663 2.795,-0.568C3.197,-0.474 4.003,-0.048 4.098,-0.023C4.192,0 3.269,-0.806 2.938,-0.9C2.605,-0.995 2.084,-0.806 1.729,-0.806C1.374,-0.806 0,-1.042 0,-1.042" style="fill:rgb(102,75,61);fill-rule:nonzero;"/>
    </g>
    <g transform="matrix(4.16667,0,0,4.16667,1438.91,1564.24)">
        <path d="M0,-1.113C-0.402,-0.829 -0.474,-0.686 -1.042,-0.52C-1.61,-0.355 -2.202,-0.236 -2.227,-0.118C-2.25,0 -2.416,-0.663 -1.8,-0.734C-1.184,-0.804 -0.568,-0.924 -0.568,-0.924L0,-1.113Z" style="fill:rgb(102,75,61);fill-rule:nonzero;"/>
    </g>
    <g transform="matrix(0.829578,4.08325,4.08325,-0.829578,1452.32,1560.99)">
        <path d="M0.686,-0.91C0.989,-0.731 1.375,-0.494 1.371,-0.156C1.368,0.184 0.984,1.035 0.686,0.637C0.387,0.237 0.305,-1.002 0.556,-0.956C0.806,-0.911 0.686,-0.91 0.686,-0.91" style="fill:rgb(115,85,69);fill-rule:nonzero;"/>
    </g>
    <g transform="matrix(4.16667,0,0,4.16667,1437.43,1565.82)">
        <path d="M0,-0.213C-0.107,-0.056 -0.924,0.545 -1.231,0.166C-1.539,-0.213 -1.444,-0.663 -0.994,-0.71C-0.544,-0.758 0.309,-0.663 0,-0.213" style="fill:rgb(115,85,69);fill-rule:nonzero;"/>
    </g>
    <g transform="matrix(4.16667,0,0,4.16667,1440.99,1574.71)">
        <path d="M0,-1.516C-0.189,-0.948 -0.474,-0.356 -0.379,-0.095C-0.284,0.166 0.402,0.498 0.402,0.498C0.402,0.498 1.184,0.592 1.113,0.355C1.042,0.119 0.497,0.403 0.142,0.047C-0.214,-0.308 -0.119,-0.663 0,-1.019C0.118,-1.374 0.284,-2.108 0.284,-2.108L0,-1.516Z" style="fill:rgb(126,93,77);fill-rule:nonzero;"/>
    </g>
    <g transform="matrix(0,-4.16667,-4.16667,0,1434.42,1564.1)">
        <path d="M-0.154,-0.155C-0.259,-0.155 -0.344,-0.086 -0.344,-0.001C-0.344,0.084 -0.259,0.154 -0.154,0.154C-0.049,0.154 0.036,0.084 0.036,-0.001C0.036,-0.086 -0.049,-0.155 -0.154,-0.155" style="fill:rgb(78,56,44);fill-rule:nonzero;"/>
    </g>
    <g transform="matrix(0,-4.16667,-4.16667,0,1452.04,1564)">
        <path d="M-0.202,-0.201C-0.339,-0.201 -0.45,-0.111 -0.45,0.001C-0.45,0.111 -0.339,0.202 -0.202,0.202C-0.064,0.202 0.048,0.111 0.048,0.001C0.048,-0.111 -0.064,-0.201 -0.202,-0.201" style="fill:rgb(78,56,44);fill-rule:nonzero;"/>
    </g>
    <g transform="matrix(4.16667,0,0,4.16667,1331.44,2150.29)">
        <path d="M0,-41.073C0.141,-40.486 6.964,-35.673 8.101,-34.819C9.237,-33.967 13.217,-25.013 16.77,-20.607C20.322,-16.202 21.744,-13.075 21.744,-11.654C21.744,-10.233 20.181,-6.538 21.033,-5.117C21.886,-3.695 22.738,-3.127 22.028,-1.563C21.317,0 20.181,0.994 20.181,1.99C20.181,2.985 21.317,4.832 21.317,4.832C21.317,4.832 19.754,8.101 22.312,6.679C24.87,5.258 26.292,0.71 27.286,-1.137C28.281,-2.985 28.708,-7.249 28.281,-8.385C27.854,-9.522 28.565,-10.091 27.57,-13.643C26.576,-17.197 25.013,-21.745 23.592,-26.15C22.17,-30.555 17.906,-41.783 16.628,-42.921C15.349,-44.057 9.237,-49.174 9.237,-49.174C9.237,-49.174 -0.995,-45.194 0,-41.073" style="fill:rgb(157,115,97);fill-rule:nonzero;"/>
    </g>
    <g transform="matrix(4.16667,0,0,4.16667,1067.92,2106.47)">
        <path d="M0,-57.038C-4.678,-54.407 -9.096,-50.026 -12.128,-44.342C-15.16,-38.657 -14.591,-34.488 -14.022,-30.319C-13.454,-26.15 -11.749,-22.93 -14.022,-18.003C-16.297,-13.075 -12.886,-10.044 -13.833,-4.928C-14.78,0.189 -16.676,3.031 -17.434,7.579C-18.191,12.127 -18.381,16.675 -12.886,21.791C-7.391,26.907 9.854,31.076 10.801,33.16C11.748,35.245 29.371,17.243 31.834,13.832C34.298,10.421 49.457,-6.254 54.763,-14.971C60.068,-23.687 65.374,-30.888 65.374,-30.888C65.374,-30.888 69.354,-38.278 72.386,-39.226C75.418,-40.173 74.849,-42.637 65.564,-45.1C56.279,-47.563 59.311,-49.647 48.51,-53.437C37.709,-57.227 36.95,-58.933 32.972,-58.743C28.992,-58.554 30.318,-58.364 31.266,-63.101C32.213,-67.839 35.435,-71.439 33.919,-78.64C32.403,-85.841 28.045,-92.283 17.622,-90.578C7.2,-88.873 3.789,-81.861 2.463,-75.419C1.137,-68.976 3.031,-58.743 0,-57.038" style="fill:rgb(220,194,36);fill-rule:nonzero;"/>
    </g>
    <g transform="matrix(4.16667,0,0,4.16667,1177.67,1825.39)">
        <path d="M0,11.369C0,11.369 -1.326,14.78 -11.938,14.97C-22.55,15.159 -31.076,16.106 -27.477,12.886C-23.876,9.664 -25.013,10.801 -23.876,7.58C-22.739,4.358 -25.392,-4.737 -23.497,-4.548C-21.602,-4.359 -15.728,-4.737 -11.559,-2.464C-7.39,-0.19 -4.358,3.222 -2.652,5.874C-0.947,8.527 2.274,10.422 0,11.369" style="fill:rgb(205,181,33);fill-rule:nonzero;"/>
    </g>
    <g transform="matrix(4.16667,0,0,4.16667,1080.36,1584.68)">
        <path d="M0,4.121C0,4.121 1.208,3.056 2.345,3.056C3.481,3.056 3.056,2.132 4.477,2.7C5.897,3.268 5.827,3.767 6.608,3.553C7.39,3.34 9.309,2.629 9.664,2.487C10.02,2.345 11.085,2.06 9.664,1.137C8.243,0.213 7.105,0 5.045,0.64C2.984,1.279 -0.924,1.065 0,4.121" style="fill:rgb(50,31,20);fill-rule:nonzero;"/>
    </g>
    <g transform="matrix(4.16667,0,0,4.16667,1132.57,1690.67)">
        <path d="M0,-6.608C-1.271,-6.608 -2.984,-6.04 -3.695,-4.903C-4.406,-3.766 -5.543,-3.127 -5.543,-2.629C-5.543,-2.131 -5.97,-1.919 -4.832,-1.35C-3.695,-0.782 -3.554,0 -2.274,-0.426C-0.995,-0.852 0.354,-1.847 0.994,-2.416C1.634,-2.984 2.132,-3.198 2.132,-3.837C2.132,-4.476 1.563,-6.608 0,-6.608" style="fill:rgb(128,95,78);fill-rule:nonzero;"/>
    </g>
    <g transform="matrix(4.16667,0,0,4.16667,1076.51,1704)">
        <path d="M0,-6.182C-0.568,-6.111 -2.416,-6.182 -1.776,-5.045C-1.137,-3.909 -2.629,-3.34 -0.355,-2.701C1.918,-2.061 3.411,-0.995 4.264,-0.569C5.116,-0.142 5.827,0.071 5.969,-0.285C6.111,-0.64 5.542,-1.279 5.542,-1.279C5.542,-1.279 7.105,-1.137 7.177,-1.35C7.248,-1.564 6.751,-2.345 6.751,-2.345C6.751,-2.345 8.385,-2.629 8.385,-2.913C8.385,-3.198 6.68,-3.766 6.893,-3.837C7.105,-3.909 8.953,-3.695 8.598,-4.334C8.243,-4.974 6.466,-5.827 5.613,-6.04C4.761,-6.253 0,-6.182 0,-6.182" style="fill:rgb(128,95,78);fill-rule:nonzero;"/>
    </g>
    <g transform="matrix(4.16667,0,0,4.16667,1091.61,1615.37)">
        <path d="M0,-17.432C-0.553,-16.628 -3.032,-15.727 -3.506,-13.168C-3.979,-10.611 -4.169,-6.821 -4.358,-4.831C-4.548,-2.841 -5.4,0.758 -4.737,1.138C-4.074,1.517 -4.074,0.474 -3.79,-1.42C-3.506,-3.315 -1.706,-7.105 2.273,-6.726C6.253,-6.347 7.769,-6.442 8.054,-4.642C8.338,-2.841 7.864,-2.652 8.906,-1.041C9.948,0.569 10.232,1.233 9.948,1.233C9.664,1.233 10.896,-0.568 10.611,-2.462C10.327,-4.358 10.138,-5.021 10.422,-6.347C10.706,-7.673 9.854,-9.569 8.148,-11.084C6.442,-12.6 1.042,-18.949 0,-17.432" style="fill:rgb(108,66,114);fill-rule:nonzero;"/>
    </g>
    <g transform="matrix(4.16667,0,0,4.16667,1105.52,1590.69)">
        <path d="M0,12.294C-1.639,12.203 -8.054,8.078 -8.077,7.06C-8.101,6.041 -6.467,1.493 -6.467,1.493C-6.467,1.493 -3.056,7.178 -2.203,8.102C-1.351,9.025 0.781,7.959 1.563,7.604C2.345,7.249 4.121,2.133 4.264,0.995C4.405,-0.142 4.264,-0.142 5.116,1.209C5.969,2.559 6.324,3.838 6.537,4.833C6.75,5.827 2.558,12.436 0,12.294" style="fill:rgb(119,73,125);fill-rule:nonzero;"/>
    </g>
    <g transform="matrix(-4.15161,0.353921,0.353921,4.15161,1331.93,1610.73)">
        <path d="M2.735,-13.665C2.735,-13.665 2.025,-5.007 2.62,-1.877C2.654,-1.698 2.692,-1.538 2.735,-1.398C3.526,1.196 -0.489,-12.44 0.263,-13.644C1.018,-14.85 2.735,-13.665 2.735,-13.665" style="fill:rgb(169,29,58);fill-rule:nonzero;"/>
    </g>
    <g transform="matrix(4.16667,0,0,4.16667,1336.66,1608.26)">
        <path d="M0,-14.212C-1.239,-13.964 -1.527,-4.098 -2.001,-2.582C-2.476,-1.066 -3.411,0.379 -1.137,-1.137C1.137,-2.653 3.506,-3.506 3.127,-6.064C2.748,-8.622 3.506,-13.075 3.127,-13.17C2.748,-13.265 1.895,-14.591 0,-14.212" style="fill:rgb(169,29,58);fill-rule:nonzero;"/>
    </g>
    <g transform="matrix(4.16667,0,0,4.16667,1301.92,1663.36)">
        <path d="M0,-12.087C0.271,-12.412 1.232,-10.191 2.369,-10.097C3.506,-10.002 3.601,-8.108 4.074,-7.16C4.548,-6.213 4.074,-3.465 4.074,-3.465C4.074,-3.465 5.685,0.325 4.169,-0.054C2.653,-0.433 1.517,-3.086 0.379,-5.265C-0.758,-7.444 -0.474,-11.519 0,-12.087" style="fill:rgb(169,29,58);fill-rule:nonzero;"/>
    </g>
    <g transform="matrix(4.16667,0,0,4.16667,1364.3,1604.46)">
        <path d="M0,-6.572C-1.432,-7.012 -1.137,-4.582 -0.568,-3.919C0,-3.256 0,0.44 0.285,-1.645C0.569,-3.729 1.232,-6.193 0,-6.572" style="fill:rgb(169,29,58);fill-rule:nonzero;"/>
    </g>
    <g transform="matrix(-3.4889,2.27787,2.27787,3.4889,1311.56,1578.29)">
        <path d="M0.099,-1.261C0.496,-1.692 0.432,-1.704 0.375,-1.272C0.318,-0.839 0.141,-0.158 0.099,0.039C0.057,0.236 0.003,0.498 -0.061,0.313C-0.125,0.129 0.099,-1.261 0.099,-1.261" style="fill:rgb(102,75,61);fill-rule:nonzero;"/>
    </g>
    <g transform="matrix(4.16667,0,0,4.16667,1302.61,1624.84)">
        <path d="M0,-8.859C0,-8.859 2.132,-7.437 3.411,-7.296C4.69,-7.153 6.206,-7.236 6.348,-7.236C6.49,-7.236 3.435,-1.042 2.439,-0.521C1.445,0 0.284,-4.027 -0.047,-5.069C-0.379,-6.111 -0.427,-8.67 -0.284,-8.716C-0.142,-8.764 0,-8.859 0,-8.859" style="fill:rgb(191,129,67);fill-rule:nonzero;"/>
    </g>
    <g transform="matrix(4.16667,0,0,4.16667,1328.57,1633.38)">
        <path d="M0,-8.717C-0.758,-7.959 -2.463,-6.633 -2.842,-6.064C-3.222,-5.495 -3.222,-4.738 -2.652,-2.843C-2.084,-0.947 -1.516,0.758 -1.516,0.758L1.896,0.379C1.896,0.379 1.516,-1.137 2.085,-2.085C2.653,-3.032 3.79,-4.927 3.601,-7.201C3.411,-9.475 1.137,-6.253 1.326,-5.685C1.516,-5.116 0,-8.717 0,-8.717" style="fill:rgb(132,97,81);fill-rule:nonzero;"/>
    </g>
    <g transform="matrix(4.16667,0,0,4.16667,1644.69,1607.08)">
        <path d="M0,4.359C0,4.359 3.979,5.117 5.59,3.885C7.201,2.653 7.011,1.8 8.338,-0.189C9.664,-2.179 9.759,-7.011 9.759,-7.011C9.759,-7.011 12.791,-5.873 13.17,-3.789C13.549,-1.704 13.833,0.474 13.075,2.842C12.317,5.212 11.369,9.475 8.812,9.854C6.253,10.233 -0.568,11.37 -1.705,10.138C-2.843,8.907 -5.495,7.106 -5.306,5.59C-5.116,4.075 -4.453,1.516 -3.885,1.611C-3.316,1.706 -4.832,3.696 -3.506,4.122C-2.179,4.548 0,4.359 0,4.359" style="fill:rgb(130,67,134);fill-rule:nonzero;"/>
    </g>
    <g transform="matrix(4.16667,0,0,4.16667,1769.83,1587.74)">
        <path d="M0,5.874C0,5.874 0.948,3.979 5.306,3.032C9.664,2.084 13.075,-0.379 14.022,-1.705C14.971,-3.032 14.78,-5.306 14.78,-5.306C14.78,-5.306 17.812,-4.358 15.918,-1.516C14.022,1.326 13.075,3.222 7.77,5.495C2.464,7.77 0.284,8.717 1.09,9.948C1.896,11.18 0,5.874 0,5.874" style="fill:rgb(162,145,155);fill-rule:nonzero;"/>
    </g>
    <g transform="matrix(4.16667,0,0,4.16667,1849.58,1653.27)">
        <path d="M0,-17.054C0,-17.054 -1.137,-13.265 -4.548,-10.233C-7.958,-7.2 -9.664,-4.927 -12.506,-4.738C-15.349,-4.548 -17.433,-4.548 -17.433,-4.548C-17.433,-4.548 -16.959,-2.842 -17.196,-2.084C-17.433,-1.326 -14.591,0 -11.18,-0.948C-7.769,-1.895 -1.516,-7.2 -0.568,-8.907C0.379,-10.612 0,-17.054 0,-17.054" style="fill:rgb(162,145,155);fill-rule:nonzero;"/>
    </g>
    <g transform="matrix(4.16667,0,0,4.16667,1869.31,1654.84)">
        <path d="M0,-12.316C0,-12.316 -2.273,-5.684 -5.116,-3.789C-7.958,-1.894 -14.401,-2.652 -15.917,-2.084C-17.433,-1.515 -14.97,0 -10.422,-0.189C-5.874,-0.378 -1.705,-1.515 -0.568,-3.979C0.569,-6.442 0,-12.316 0,-12.316" style="fill:rgb(162,145,155);fill-rule:nonzero;"/>
    </g>
    <g transform="matrix(2.21823,-3.52712,-3.52712,-2.21823,2292.35,1798.82)">
        <path d="M-17.255,-8.211C-18.728,1.607 -12.427,22.022 -11.438,23.653C-10.449,25.282 -16.308,30.327 -17.255,24.358C-18.202,18.39 -22.524,1.235 -21.189,-1.955C-19.854,-5.145 -17.255,-8.211 -17.255,-8.211" style="fill:rgb(197,153,55);fill-rule:nonzero;"/>
    </g>
    <g transform="matrix(4.16667,0,0,4.16667,2168.16,1721.56)">
        <path d="M0,-17.907C0,-17.907 -1.422,-6.822 -0.284,-3.695C0.853,-0.568 -1.138,0.284 1.989,1.421C5.116,2.558 7.105,4.548 11.085,3.126C13.34,2.322 16.963,-3.776 19.37,-9.324C21.211,-13.568 22.341,-17.49 21.602,-18.475C19.896,-20.75 16.201,-22.455 11.653,-21.034C7.105,-19.612 0,-17.907 0,-17.907" style="fill:rgb(197,153,55);fill-rule:nonzero;"/>
    </g>
    <g transform="matrix(4.16667,0,0,4.16667,2252.25,1755.91)">
        <path d="M0,-16.485C-1.421,-9.948 -7.675,-3.41 -7.675,-3.41C-7.675,-3.41 -5.685,-2.841 -3.127,-1.421C-0.568,0 0,-16.485 0,-16.485" style="fill:rgb(197,153,55);fill-rule:nonzero;"/>
    </g>
    <g transform="matrix(3.95282,-1.31769,-1.31769,-3.95282,2295.99,1747.08)">
        <path d="M-3.888,-0.937C-7.664,2.118 -7.933,2.208 -6.135,7.601C-4.338,12.994 -0.473,23.69 -3.888,17.039C-7.303,10.388 -13.146,1.848 -10.899,0.499C-8.653,-0.848 -3.888,-0.937 -3.888,-0.937" style="fill:rgb(197,153,55);fill-rule:nonzero;"/>
    </g>
    <g transform="matrix(-1.5867,3.85273,3.85273,1.5867,2208.02,1793.78)">
        <path d="M-3.109,6.818C-4.824,-6.184 -6.405,-13.291 -5.318,-9.462C-4.231,-5.633 -3.046,11.147 -3.109,12.043C-3.171,12.94 -1.269,18.027 -1.486,13.326C-1.701,8.627 -3.109,6.818 -3.109,6.818" style="fill:rgb(197,153,55);fill-rule:nonzero;"/>
    </g>
    <g transform="matrix(-1.48337,-3.89368,-3.89368,1.48337,2269.58,1818.53)">
        <path d="M-2.688,-10.948C-2.688,-10.948 -9.949,-12.44 -7.458,-6.699C-4.966,-0.956 -0.02,3.243 -2.688,1.827C-5.357,0.41 -12.099,-10.101 -10.239,-10.81C-8.38,-11.518 -2.688,-10.948 -2.688,-10.948" style="fill:rgb(197,153,55);fill-rule:nonzero;"/>
    </g>
    <g transform="matrix(4.16667,0,0,4.16667,2159.87,2040.15)">
        <path d="M0,-31.551C0.568,-30.698 6.254,-21.887 8.812,-17.339C11.37,-12.791 11.938,-7.675 11.654,-5.401C11.37,-3.127 10.801,0 9.096,-2.275C7.391,-4.548 8.812,-4.548 7.959,-9.38C7.106,-14.212 3.979,-18.476 2.843,-20.749C1.706,-23.024 0,-31.551 0,-31.551" style="fill:rgb(197,153,55);fill-rule:nonzero;"/>
    </g>
    <g transform="matrix(0.546587,4.13066,4.13066,-0.546587,2077.71,1654.05)">
        <path d="M8.5,-7.994C8.5,-7.994 10.37,0.359 9.492,2.387C8.613,4.414 5.756,5.939 8.5,5.003C11.244,4.066 13.63,9.103 11.998,1.101C10.366,-6.903 8.5,-7.994 8.5,-7.994" style="fill:rgb(35,31,32);fill-rule:nonzero;"/>
    </g>
    <g transform="matrix(2.81552,3.07148,3.07148,-2.81552,2063.35,1664.91)">
        <path d="M5.003,-2.467C5.003,-2.467 7.144,3.795 6.074,6.833C5.003,9.872 4.455,10.115 5.003,9.872C5.549,9.628 8.541,8.684 8.25,6.123C7.959,3.562 5.003,-2.467 5.003,-2.467" style="fill:rgb(35,31,32);fill-rule:nonzero;"/>
    </g>
    <g transform="matrix(-1.86339,3.72678,3.72678,1.86339,2103.95,1700)">
        <path d="M6.508,-9.707C6.508,-9.707 7.609,-5.13 6.169,-2.25C4.728,0.632 4.982,3.514 6.508,1.31C8.034,-0.894 8.627,-1.233 8.287,-3.521C7.949,-5.809 6.508,-9.707 6.508,-9.707" style="fill:rgb(35,31,32);fill-rule:nonzero;"/>
    </g>
    <g transform="matrix(4.16667,0,0,4.16667,1925.37,1680.11)">
        <path d="M0,21.602C0,21.602 -0.853,20.181 5.685,20.181C12.223,20.181 15.064,20.181 19.328,20.749C23.592,21.318 28.424,23.876 28.424,22.455C28.424,21.034 29.846,19.897 24.16,18.76C18.476,17.623 21.034,20.181 17.339,15.633C13.644,11.085 13.644,11.085 12.791,8.811C11.938,6.538 9.948,-2.274 9.948,-0.569C9.948,1.137 8.812,5.685 10.232,8.527C11.654,11.37 14.78,15.633 14.78,15.633C14.78,15.633 21.887,19.329 15.064,17.054C8.243,14.781 7.959,14.781 6.254,11.085C4.548,7.39 3.695,3.126 4.548,7.39C5.4,11.654 5.116,13.075 6.254,14.781C7.391,16.486 10.802,15.917 6.822,17.338C2.843,18.76 0,21.602 0,21.602" style="fill:rgb(166,147,58);fill-rule:nonzero;"/>
    </g>
    <g transform="matrix(4.16667,0,0,4.16667,2023.67,2031.86)">
        <path d="M0,-59.974C0,-59.974 2.843,-56.279 3.979,-46.899C5.116,-37.519 5.97,-36.382 3.411,-31.266C0.853,-26.15 2.559,-21.034 4.548,-15.349C6.538,-9.664 10.517,-6.537 7.959,-4.263C5.4,-1.99 3.127,1.137 3.411,-2.274C3.695,-5.685 3.411,-7.674 1.706,-13.075C0,-18.475 -7.39,-21.886 -3.126,-28.424C1.137,-34.961 2.274,-40.646 2.274,-40.646C2.274,-40.646 -2.273,-61.111 -1.137,-60.542L0,-59.974Z" style="fill:rgb(166,147,58);fill-rule:nonzero;"/>
    </g>
    <g transform="matrix(4.16667,0,0,4.16667,1878,2016.46)">
        <path d="M0,-41.783C0.284,-40.93 3.411,-30.982 5.969,-26.719C8.527,-22.455 10.517,-23.307 14.212,-19.897C17.907,-16.486 16.77,-15.634 19.896,-13.643C23.023,-11.654 26.149,-11.654 26.719,-8.811C27.287,-5.97 25.297,-9.095 24.444,-4.832C23.592,-0.568 21.886,0 22.171,-1.422C22.455,-2.843 25.013,-8.243 23.308,-8.811C21.602,-9.38 18.76,-12.222 15.917,-14.496C13.075,-16.77 11.369,-16.486 7.959,-20.466C4.548,-24.444 0,-26.434 0.568,-30.13C1.137,-33.824 0,-41.783 0,-41.783" style="fill:rgb(166,147,58);fill-rule:nonzero;"/>
    </g>
    <g transform="matrix(4.16667,0,0,4.16667,1634.03,1700.64)">
        <path d="M0,27.666C0,27.666 2.274,24.634 6.064,18.949C9.854,13.264 12.128,4.548 9.854,3.031C7.58,1.516 6.443,0 6.443,4.548C6.443,9.096 7.959,12.885 5.307,16.296C2.653,19.707 0,27.666 0,27.666" style="fill:rgb(199,188,200);fill-rule:nonzero;"/>
    </g>
    <g transform="matrix(-3.56345,2.15938,2.15938,3.56345,1751.43,1822.98)">
        <path d="M0.992,-15.436C0.992,-15.436 6.472,-10.78 4.537,-7.392C2.602,-4.005 -3.3,-1.313 0.992,-0.812C5.284,-0.312 8.524,-2.275 9.546,-6.439C10.569,-10.604 0.992,-15.436 0.992,-15.436" style="fill:rgb(199,188,200);fill-rule:nonzero;"/>
    </g>
    <g transform="matrix(4.16667,0,0,4.16667,1634.03,1808.02)">
        <path d="M0,-29.561C0,-29.561 -5.306,-19.707 -4.168,-14.023C-3.031,-8.338 -1.516,0 -2.273,-1.516C-3.031,-3.033 -1.8,-26.055 0,-29.561" style="fill:rgb(199,188,200);fill-rule:nonzero;"/>
    </g>
    <g transform="matrix(-4.1534,0.332272,0.332272,4.1534,1667.78,2073.91)">
        <path d="M-3.92,-3.253C-0.913,-8.437 3.303,-17.519 1.354,-8.618C-0.595,0.283 -3.814,2.82 -3.92,6.252C-4.026,9.682 2.548,11.056 -2.273,12.583C-7.093,14.109 -3.92,-3.253 -3.92,-3.253" style="fill:rgb(199,188,200);fill-rule:nonzero;"/>
    </g>
    <g transform="matrix(4.16667,0,0,4.16667,1517.17,2194.9)">
        <path d="M0,-39.035C0,-35.246 1.138,-36.383 -1.137,-29.94C-3.41,-23.497 -1.895,-25.014 -0.379,-19.707C1.138,-14.401 -0.758,-11.37 4.169,-7.201C9.096,-3.032 10.233,0 7.201,-7.959C4.169,-15.918 1.896,-17.433 2.274,-23.876C2.653,-30.319 0,-39.035 0,-39.035" style="fill:rgb(157,129,150);fill-rule:nonzero;"/>
    </g>
    <g transform="matrix(2.43469,-3.38133,-3.38133,-2.43469,1184.8,1819.38)">
        <path d="M-10.283,-5.295C-10.283,-5.295 -6.494,6.306 -7.429,8.902C-8.364,11.498 -12.006,21.211 -10.283,18.055C-7.356,12.692 -4.267,11.645 -5.485,7.499C-6.703,3.354 -9.175,-6.834 -10.283,-5.295" style="fill:rgb(198,175,32);fill-rule:nonzero;"/>
    </g>
    <g transform="matrix(4.16667,0,0,4.16667,1150.82,1955.47)">
        <path d="M0,-14.401C-5.685,-10.232 -7.201,-8.338 -13.265,-7.579C-19.328,-6.821 -20.845,-9.474 -25.393,-5.305C-29.939,-1.136 -36.383,0 -29.939,-1.136C-23.497,-2.273 -15.538,-4.926 -11.37,-4.926C-7.201,-4.926 0,-14.401 0,-14.401" style="fill:rgb(198,175,32);fill-rule:nonzero;"/>
    </g>
    <g transform="matrix(4.16667,0,0,4.16667,1125.56,1893.88)">
        <path d="M0,-1.135C-7.58,-0.756 -16.676,-2.652 -13.265,-1.135C-9.854,0.381 -12.886,0.76 -6.822,1.138C-0.759,1.517 0,-1.135 0,-1.135" style="fill:rgb(198,175,32);fill-rule:nonzero;"/>
    </g>
    <g transform="matrix(-4.12479,-0.589256,-0.589256,4.12479,1263.04,1955.48)">
        <path d="M-6.032,4.877C2.407,1.142 10.209,-1.608 6.242,2.037C2.276,5.681 -3.78,7.879 -6.032,7.557C-8.283,7.236 -13.642,7.236 -14.767,7.075C-15.894,6.914 -9.3,6.326 -6.032,4.877" style="fill:rgb(198,175,32);fill-rule:nonzero;"/>
    </g>
    <g transform="matrix(3.01743,2.87336,2.87336,-3.01743,1004.35,2140.07)">
        <path d="M4.181,-2.874C3.437,-0.444 1.92,3.346 4.117,5.437C6.312,7.528 6.691,12.076 4.181,8.116C1.672,4.156 -1.596,2.092 0.247,0.707C2.09,-0.679 4.677,-4.496 4.677,-4.496" style="fill:rgb(198,175,32);fill-rule:nonzero;"/>
    </g>
    <g transform="matrix(4.16667,0,0,4.16667,1025.28,2018.83)">
        <path d="M0,-39.794C0,-39.794 0.285,-35.815 -5.116,-30.982C-10.517,-26.15 -20.181,-22.739 -24.729,-18.76C-29.276,-14.78 -36.382,0 -34.677,-0.568C-32.972,-1.137 -28.424,-10.232 -25.581,-13.359C-22.738,-16.486 -14.496,-22.455 -11.369,-24.16C-8.242,-25.866 -3.694,-32.972 -0.853,-32.403C1.99,-31.835 4.548,-32.403 3.695,-33.54C2.843,-34.678 2.843,-34.393 1.706,-35.53C0.569,-36.667 0.854,-39.794 0,-39.794" style="fill:rgb(58,152,145);fill-rule:nonzero;"/>
    </g>
    <g transform="matrix(-1.78362,-3.76561,-3.76561,1.78362,959.063,1809.96)">
        <path d="M-8.181,-7.735C-9.019,-4.193 -9.723,-1.03 -9.032,2.419C-8.343,5.866 -8.762,7.637 -8.181,4.216C-7.6,0.795 -5.397,-7.167 -4.855,-8.682C-4.314,-10.195 -8.181,-7.735 -8.181,-7.735" style="fill:rgb(58,152,145);fill-rule:nonzero;"/>
    </g>
    <g transform="matrix(4.16667,0,0,4.16667,982.648,1837.63)">
        <path d="M0,-6.538C-2.273,-3.127 -5.116,0 -5.116,0C-5.116,0 -4.264,-4.548 -3.41,-5.116C-2.558,-5.685 0,-6.538 0,-6.538" style="fill:rgb(58,152,145);fill-rule:nonzero;"/>
    </g>
    <g transform="matrix(4.16667,0,0,4.16667,884.349,1819.86)">
        <path d="M0,-6.538C-0.853,-5.684 2.559,-5.116 -2.558,-4.548C-7.674,-3.979 -10.801,-5.116 -12.222,-4.832C-13.644,-4.548 -17.338,-5.97 -15.917,-4.548C-14.496,-3.127 -9.38,-3.411 -11.085,-2.274C-12.79,-1.138 -13.928,-2.274 -13.644,-1.138C-13.359,0 -11.369,0 -8.812,-0.568C-6.253,-1.138 -3.979,-3.979 -3.126,-2.843C-2.273,-1.706 -0.853,-1.706 -0.853,-2.843C-0.853,-3.979 0,-6.538 0,-6.538" style="fill:rgb(192,115,153);fill-rule:nonzero;"/>
    </g>
    <g transform="matrix(4.16667,0,0,4.16667,909.223,1784.33)">
        <path d="M0,-3.411C-2.843,-0.852 -5.401,0 -2.843,-0.852C-0.284,-1.705 0,-3.411 0,-3.411" style="fill:rgb(192,115,153);fill-rule:nonzero;"/>
    </g>
    <g transform="matrix(4.16667,0,0,4.16667,842.898,1777.23)">
        <path d="M0,-1.138C-3.695,-1.422 -7.105,-1.706 -7.105,-1.706C-7.105,-1.706 -7.959,-0.57 -4.548,0C-1.137,0.568 0,-1.138 0,-1.138" style="fill:rgb(192,115,153);fill-rule:nonzero;"/>
    </g>
    <g transform="matrix(-3.89582,-1.47773,-1.47773,3.89582,741.128,1894.61)">
        <path d="M-4.644,-30.98C-4.351,-28.514 -3.886,-25.223 -3.525,-21.77C-2.811,-14.973 -2.493,-7.547 -4.644,-4.532C-7.889,0.013 -10.334,-3.955 -8.163,-6.475C-5.991,-8.996 -4.644,-30.98 -4.644,-30.98" style="fill:rgb(192,115,153);fill-rule:nonzero;"/>
    </g>
    <g transform="matrix(-4.14603,0.414166,0.414166,4.14603,862.764,1961.4)">
        <path d="M2.326,-4.662C8.634,-7.291 10.556,-8.056 9.567,-6.528C8.577,-5.001 2.326,-1.805 2.326,-1.805C2.326,-1.805 -7.998,3.51 -5.452,0.4C-2.906,-2.711 2.326,-4.662 2.326,-4.662" style="fill:rgb(192,115,153);fill-rule:nonzero;"/>
    </g>
    <g transform="matrix(4.16667,0,0,4.16667,866.584,1876.71)">
        <path d="M0,11.938C3.411,7.106 9.38,0 9.096,1.421C8.812,2.842 7.391,6.822 7.391,6.822L0,11.938Z" style="fill:rgb(192,115,153);fill-rule:nonzero;"/>
    </g>
    <g transform="matrix(-3.5901,-2.11478,-2.11478,3.5901,647.696,1768.57)">
        <path d="M-5.751,-23.739C-5.751,-23.739 -9.955,-7.082 -10.418,-4.056C-10.881,-1.029 -6.472,1.568 -5.751,0.344C-5.029,-0.882 -2.865,-4.555 -4.952,-9.413C-7.04,-14.271 -5.751,-23.739 -5.751,-23.739" style="fill:rgb(35,31,32);fill-rule:nonzero;"/>
    </g>
    <g transform="matrix(4.16667,0,0,4.16667,762.364,1804.47)">
        <path d="M0,-13.075C-3.866,-13.075 -7.959,-11.085 -8.243,-8.811C-8.527,-6.537 -7.959,-5.4 -11.085,-5.4C-14.212,-5.4 -14.78,-4.548 -12.223,-4.263C-9.664,-3.979 -17.055,-3.411 -14.78,-1.705C-12.507,0 -14.78,0 -12.507,0C-10.232,0 -10.232,-1.137 -8.243,-3.979C-6.253,-6.822 1.99,-13.075 0,-13.075" style="fill:rgb(35,31,32);fill-rule:nonzero;"/>
    </g>
    <g transform="matrix(4.16667,0,0,4.16667,701.964,1896.85)">
        <path d="M0,-18.76C-6.537,-12.791 -11.369,-9.38 -11.369,-7.391C-11.369,-5.402 -12.791,0 -10.232,-2.275C-7.675,-4.548 -9.096,-7.107 -5.116,-9.096C-1.137,-11.086 1.421,-10.234 2.559,-13.928C3.695,-17.623 0,-18.76 0,-18.76" style="fill:rgb(35,31,32);fill-rule:nonzero;"/>
    </g>
    <g transform="matrix(-3.93535,1.36898,1.36898,3.93535,710.742,1935.34)">
        <path d="M10.638,-2.65C11.863,-5.183 12.786,-10.319 14.642,-5.848C16.497,-1.378 14.677,3.77 10.638,4.272C6.6,4.774 -3.077,7.237 2.969,2.124C9.016,-2.988 10.638,-2.65 10.638,-2.65" style="fill:rgb(35,31,32);fill-rule:nonzero;"/>
    </g>
    <g transform="matrix(4.16667,0,0,4.16667,780.129,1746.43)">
        <path d="M0,-15.917C0.568,-11.938 0.853,-5.969 1.705,-3.979C2.559,-1.989 0.568,0 2.559,-2.843C4.548,-5.685 0,-15.917 0,-15.917" style="fill:rgb(35,31,32);fill-rule:nonzero;"/>
    </g>
    <g transform="matrix(4.16667,0,0,4.16667,619.062,1657.61)">
        <path d="M0,9.665C0,9.665 -1.99,0 -3.695,0.569C-5.4,1.138 -5.685,2.559 -4.264,4.548C-2.843,6.538 0,9.665 0,9.665" style="fill:rgb(153,27,60);fill-rule:nonzero;"/>
    </g>
    <g transform="matrix(0.833322,-4.08249,-4.08249,-0.833322,574.047,1699.91)">
        <path d="M-8.468,-7.243C-7.116,3.186 -6.127,6.869 -6.968,8.148C-7.81,9.427 -6.598,13.446 -8.468,6.972C-10.338,0.498 -11.082,-8.647 -10.912,-9.482C-10.741,-10.318 -8.468,-7.243 -8.468,-7.243" style="fill:rgb(153,27,60);fill-rule:nonzero;"/>
    </g>
    <g transform="matrix(4.16667,0,0,4.16667,604.849,1721.56)">
        <path d="M0,0.001C-6.253,-1.137 -10.517,-1.989 -7.39,0.001C-4.264,1.99 0,0.001 0,0.001" style="fill:rgb(153,27,60);fill-rule:nonzero;"/>
    </g>
    <g transform="matrix(4.16667,0,0,4.16667,525.499,1883.82)">
        <path d="M0,-38.088C-2.559,-32.403 -5.4,-23.592 -5.685,-19.897C-5.969,-16.201 -5.685,-7.959 -5.685,-3.98C-5.685,0 -3.127,-0.568 -3.127,-5.685C-3.127,-10.801 -4.264,-19.612 -3.979,-21.318C-3.695,-23.024 0,-38.088 0,-38.088" style="fill:rgb(153,27,60);fill-rule:nonzero;"/>
    </g>
    <g transform="matrix(4.16667,0,0,4.16667,497.077,1894.48)">
        <path d="M0,-31.551C-0.284,-30.13 -8.527,-18.192 -9.664,-19.329C-10.802,-20.466 -19.897,-25.582 -19.044,-24.73C-18.191,-23.877 -14.781,-21.319 -12.791,-19.329C-10.802,-17.339 -15.065,-3.98 -15.065,-3.98C-15.065,-3.98 -9.664,-16.202 -8.812,-15.634C-7.959,-15.066 -9.38,-5.97 -7.391,-3.98C-5.401,-1.99 -7.391,-0.57 -3.695,-2.275C0,-3.98 0.284,0 -0.284,-8.243C-0.854,-16.487 0,-31.551 0,-31.551" style="fill:rgb(111,112,73);fill-rule:nonzero;"/>
    </g>
    <g transform="matrix(4.16667,0,0,4.16667,466.283,1688.01)">
        <path d="M0,-1.895C-1.251,-1.979 -3.016,-1.989 -4.849,-1.94C-9.265,-1.822 -14.079,-1.361 -13.075,-0.758C-11.653,0.094 0,-1.895 0,-1.895" style="fill:rgb(111,112,73);fill-rule:nonzero;"/>
    </g>
    <g transform="matrix(2.98252,-2.90958,-2.90958,-2.98252,496.737,1656.81)">
        <path d="M-6.681,-2.487C-5.722,1.344 -6.606,7.766 -6.24,10.584C-5.872,13.402 -6.11,16.415 -6.681,13.794C-7.251,11.174 -8.795,5.93 -8.368,3.925C-7.941,1.919 -6.681,-2.487 -6.681,-2.487" style="fill:rgb(111,112,73);fill-rule:nonzero;"/>
    </g>
    <g transform="matrix(3.92671,-1.39358,-1.39358,-3.92671,508.469,1685.87)">
        <path d="M-3.16,-0.729C-4.301,5.406 -5.129,9.018 -5.441,11.542C-5.752,14.065 -3.16,17.97 -3.16,17.97C-3.16,17.97 -2.978,13.382 -2.857,10.324C-2.736,7.264 -3.16,-0.729 -3.16,-0.729" style="fill:rgb(111,112,73);fill-rule:nonzero;"/>
    </g>
    <g transform="matrix(-2.33624,3.45009,3.45009,2.33624,839.71,1568.3)">
        <path d="M0.898,-0.548C0.981,-0.597 1.221,-0.803 1.185,-0.59C1.149,-0.379 1.098,-0.114 0.898,0.181C0.699,0.475 0.1,0.821 0.096,0.732C0.092,0.642 0.211,-0.135 0.898,-0.548" style="fill:white;fill-rule:nonzero;"/>
    </g>
    <g transform="matrix(-0.332023,-4.15342,-4.15342,0.332023,817.07,1567.03)">
        <path d="M-0.959,-1.116C-0.935,-1.047 -0.679,-0.07 -0.743,0.257C-0.805,0.582 -0.959,0.879 -0.959,0.879C-0.959,0.879 -1.224,0.473 -1.275,0.05C-1.327,-0.374 -0.959,-1.116 -0.959,-1.116" style="fill:white;fill-rule:nonzero;"/>
    </g>
    <g transform="matrix(0,-4.16667,-4.16667,0,838.804,1569.77)">
        <path d="M-0.197,-0.196C-0.343,-0.196 -0.463,-0.108 -0.463,-0.001C-0.463,0.108 -0.343,0.197 -0.197,0.197C-0.049,0.197 0.071,0.108 0.071,-0.001C0.071,-0.108 -0.049,-0.196 -0.197,-0.196" style="fill:rgb(35,31,32);fill-rule:nonzero;"/>
    </g>
    <g transform="matrix(0,-4.16667,-4.16667,0,818.181,1570.34)">
        <path d="M-0.214,-0.213C-0.346,-0.213 -0.453,-0.118 -0.453,0.001C-0.453,0.118 -0.346,0.214 -0.214,0.214C-0.081,0.214 0.026,0.118 0.026,0.001C0.026,-0.118 -0.081,-0.213 -0.214,-0.213" style="fill:rgb(35,31,32);fill-rule:nonzero;"/>
    </g>
    <g transform="matrix(4.16667,0,0,4.16667,2310.68,2224.7)">
        <path d="M0,-10.231C-4.832,-10.705 -8.338,-12.127 -12.033,-10.042C-15.728,-7.958 -21.081,-6.962 -23.071,-5.92C-25.061,-4.878 -24.539,-2.841 -22.076,-1.325C-19.612,0.191 -18.476,1.896 -15.159,0.949C-11.844,0.001 -11.37,-1.135 -6.633,-2.462C-1.896,-3.789 0,-3.031 2.558,-4.168C5.116,-5.304 8.717,-5.304 6.537,-7.2C4.358,-9.094 0,-10.231 0,-10.231" style="fill:rgb(35,31,32);fill-rule:nonzero;"/>
    </g>
    <g transform="matrix(4.16667,0,0,4.16667,2291.73,2215.23)">
        <path d="M0,-13.644C-2.069,-13.083 -2.653,-11.748 -0.568,-10.328C1.516,-8.907 8.812,-6.632 11.085,-4.927C13.359,-3.221 16.391,-1.137 18.286,0.189C20.181,1.516 27.003,2.179 28.14,1.327C29.276,0.473 31.977,-1.918 29.514,-3.151C27.05,-4.382 23.402,-3.885 20.465,-6.727C17.528,-9.57 8.054,-15.823 0,-13.644" style="fill:rgb(35,31,32);fill-rule:nonzero;"/>
    </g>
    <g transform="matrix(4.16667,0,0,4.16667,2309.49,2216.02)">
        <path d="M0,-10.233C-4.832,-10.707 -8.338,-12.128 -12.033,-10.044C-15.729,-7.959 -20.276,-5.212 -22.266,-4.17C-24.255,-3.127 -24.539,-2.842 -22.076,-1.327C-19.612,0.189 -18.476,1.895 -15.159,0.948C-11.844,-0.001 -11.37,-1.137 -6.633,-2.463C-1.896,-3.79 0,-3.032 2.558,-4.17C5.116,-5.306 8.717,-5.306 6.537,-7.201C4.358,-9.096 0,-10.233 0,-10.233" style="fill:rgb(165,193,208);fill-rule:nonzero;"/>
    </g>
    <g transform="matrix(4.16667,0,0,4.16667,2290.54,2206.54)">
        <path d="M0,-13.643C-2.069,-13.083 -2.653,-11.748 -0.568,-10.327C1.516,-8.906 8.812,-6.632 11.085,-4.926C13.359,-3.221 16.391,-1.136 18.286,0.19C20.181,1.516 27.003,2.179 28.14,1.327C29.276,0.474 31.36,-0.473 28.897,-1.705C26.434,-2.937 23.402,-3.884 20.465,-6.727C17.528,-9.569 8.054,-15.822 0,-13.643" style="fill:rgb(165,193,208);fill-rule:nonzero;"/>
    </g>
    <g transform="matrix(4.16667,0,0,4.16667,2239.71,2175.36)">
        <path d="M0,4.476C0,4.476 0.995,-0.142 3.625,-1.066C6.254,-1.99 11.938,-1.493 13.146,-0.924C14.354,-0.356 14.781,-0.213 14.994,-0.001C15.207,0.213 16.486,-0.001 16.06,1.421C15.634,2.842 14.71,4.476 13.786,5.045C12.862,5.614 7.604,6.324 8.527,6.893C9.451,7.461 12.862,6.466 14.213,5.614C15.563,4.761 17.197,4.334 17.197,2.629C17.197,0.923 18.689,0.71 16.983,-0.071C15.278,-0.853 10.802,-2.985 6.894,-2.487C2.985,-1.99 1.209,-1.493 0.285,0.142C-0.639,1.776 -1.065,4.192 -0.923,4.761C-0.781,5.33 -0.213,5.258 0,4.476" style="fill:rgb(149,175,188);fill-rule:nonzero;"/>
    </g>
    <g transform="matrix(4.16667,0,0,4.16667,2315.51,2196.38)">
        <path d="M0,-10.802C-0.028,-10.376 0,-8.812 1.138,-7.32C2.274,-5.827 2.771,-4.406 5.116,-3.127C7.462,-1.848 10.73,1.065 10.73,0.141C10.73,-0.782 10.304,-0.854 7.959,-2.346C5.614,-3.838 3.695,-5.046 2.771,-6.538C1.848,-8.031 0.355,-10.091 0.995,-10.304C1.635,-10.518 3.624,-11.442 7.248,-10.162C10.872,-8.883 12.578,-10.518 14.567,-6.396C16.558,-2.275 16.415,-1.848 16.771,-1.635C17.126,-1.422 18.831,-2.772 17.41,-4.335C15.988,-5.899 14.496,-9.451 11.796,-10.02C9.096,-10.588 0.071,-11.867 0,-10.802" style="fill:rgb(149,175,188);fill-rule:nonzero;"/>
    </g>
    <g transform="matrix(4.16667,0,0,4.16667,545.042,2111.2)">
        <path d="M0,-2.557C-0.711,-2.7 -7.533,-3.552 -11.512,-3.552C-15.491,-3.552 -17.481,-3.268 -18.191,-3.836C-18.902,-4.405 -19.613,-0.709 -18.476,0.854C-17.339,2.418 -17.197,2.559 -14.07,2.559C-10.943,2.559 -3.695,1.991 -0.143,1.848C3.41,1.707 8.242,1.707 11.938,1.28C15.633,0.854 19.044,0.286 20.038,-0.709C21.033,-1.704 22.312,-5.116 22.312,-5.116C22.312,-5.116 21.317,-2.414 17.054,-1.846C12.79,-1.278 0,-2.557 0,-2.557" style="fill:white;fill-rule:nonzero;"/>
    </g>
    <g transform="matrix(4.16667,0,0,4.16667,545.042,2104.09)">
        <path d="M0,-4.688C-3.695,-5.115 -7.817,-5.256 -10.943,-5.399C-14.07,-5.542 -20.466,-3.267 -18.76,-2.13C-17.055,-0.994 -8.243,-2.415 -4.264,-1.419C-0.285,-0.424 7.39,0.854 10.801,0.428C14.212,0.001 19.044,0.001 20.038,-0.994C21.033,-1.988 23.876,-2.556 22.312,-3.41C20.749,-4.262 20.322,-4.262 15.064,-4.262C9.806,-4.262 0,-4.688 0,-4.688" style="fill:rgb(162,135,135);fill-rule:nonzero;"/>
    </g>
    <g transform="matrix(4.16667,0,0,4.16667,514.545,2063.54)">
        <path d="M0,7.887C0,7.887 3.41,3.766 7.958,2.061C12.506,0.355 13.644,0.853 13.928,0.355C14.212,-0.142 9.166,0.853 9.166,0.853C9.166,0.853 12.79,-0.995 13.785,-0.569C14.78,-0.142 20.82,2.345 20.749,3.126C20.678,3.908 22.1,7.247 22.1,7.247C22.1,7.247 21.104,7.674 21.033,7.461C20.962,7.247 19.684,3.623 19.684,3.623C19.684,3.623 14.425,3.908 13.004,5.045C11.582,6.182 7.745,8.598 7.532,8.74C7.319,8.882 0,7.887 0,7.887" style="fill:rgb(163,134,112);fill-rule:nonzero;"/>
    </g>
    <g transform="matrix(4.16667,0,0,4.16667,516.617,2144.36)">
        <path d="M0,-2.557C-0.711,-2.7 -7.532,-3.552 -11.512,-3.552C-15.491,-3.552 -17.48,-3.268 -18.191,-3.836C-18.901,-4.405 -19.612,-0.709 -18.476,0.853C-17.339,2.417 -17.196,2.559 -14.069,2.559C-10.943,2.559 -3.695,1.991 -0.142,1.848C3.411,1.707 8.243,1.707 11.938,1.28C15.633,0.853 19.044,0.285 20.039,-0.709C21.034,-1.704 22.312,-5.116 22.312,-5.116C22.312,-5.116 21.318,-2.415 17.055,-1.847C12.791,-1.279 0,-2.557 0,-2.557" style="fill:white;fill-rule:nonzero;"/>
    </g>
    <g transform="matrix(4.16667,0,0,4.16667,516.617,2137.26)">
        <path d="M0,-4.69C-3.695,-5.116 -7.816,-5.258 -10.943,-5.4C-14.069,-5.543 -20.465,-3.268 -18.76,-2.131C-17.055,-0.995 -8.243,-2.416 -4.264,-1.42C-0.284,-0.426 7.391,0.853 10.801,0.426C14.212,-0 19.044,-0 20.039,-0.995C21.034,-1.99 23.876,-2.558 22.312,-3.411C20.749,-4.263 20.323,-4.263 15.064,-4.263C9.807,-4.263 0,-4.69 0,-4.69" style="fill:rgb(162,135,135);fill-rule:nonzero;"/>
    </g>
    <g transform="matrix(4.16667,0,0,4.16667,486.119,2096.7)">
        <path d="M0,7.888C0,7.888 3.411,3.767 7.959,2.061C12.507,0.356 13.644,0.853 13.928,0.356C14.212,-0.141 9.167,0.853 9.167,0.853C9.167,0.853 12.791,-0.995 13.786,-0.568C14.78,-0.141 20.82,2.345 20.75,3.127C20.679,3.909 22.1,7.248 22.1,7.248C22.1,7.248 21.105,7.675 21.034,7.461C20.963,7.248 19.684,3.624 19.684,3.624C19.684,3.624 14.426,3.909 13.004,5.045C11.583,6.183 7.746,8.599 7.532,8.741C7.319,8.883 0,7.888 0,7.888" style="fill:rgb(163,134,112);fill-rule:nonzero;"/>
    </g>
    <g transform="matrix(4.16667,0,0,4.16667,374.006,2025.05)">
        <path d="M0,0.356C0.707,1.256 4.263,0.64 5.969,0.853C7.674,1.066 13.43,1.777 14.638,1.848C15.846,1.919 20.181,1.99 22.881,1.493C25.581,0.996 27.713,-0.355 27.713,-0.355C27.713,-0.355 28.494,-1.279 26.932,-1.35C25.368,-1.42 5.4,-1.42 3.126,-1.279C0.853,-1.136 -1.563,-1.634 0,0.356" style="fill:rgb(35,31,32);fill-rule:nonzero;"/>
    </g>
    <g transform="matrix(4.16667,0,0,4.16667,374.006,2021.2)">
        <path d="M0,0.356C0.707,1.256 4.263,0.64 5.969,0.853C7.674,1.066 13.43,1.777 14.638,1.848C15.846,1.919 20.181,1.99 22.881,1.493C25.581,0.996 27.713,-0.355 27.713,-0.355C27.713,-0.355 20.109,-1.066 18.546,-1.136C16.982,-1.207 9.664,-0.781 7.39,-0.639C5.116,-0.497 -1.563,-1.634 0,0.356" style="fill:white;fill-rule:nonzero;"/>
    </g>
    <g transform="matrix(4.16667,0,0,4.16667,401.244,2010.84)">
        <path d="M0,4.192C0,4.192 5.116,1.279 8.172,0.711C11.228,0.142 13.075,0 13.999,0.071C14.923,0.142 15.633,0.355 15.633,0.355L16.485,2.416L14.78,2.344L14.212,0.852C14.212,0.852 10.232,1.421 6.04,3.411C6.04,3.411 4.903,3.837 4.619,3.979C4.335,4.122 0,4.192 0,4.192" style="fill:rgb(173,88,75);fill-rule:nonzero;"/>
    </g>
    <g transform="matrix(4.16667,0,0,4.16667,369.859,2035.11)">
        <path d="M0,0.356C0.708,1.256 4.264,0.64 5.969,0.853C7.674,1.066 13.43,1.777 14.638,1.848C15.846,1.919 20.181,1.99 22.881,1.493C25.581,0.996 27.713,-0.355 27.713,-0.355C27.713,-0.355 28.495,-1.279 26.932,-1.35C25.368,-1.42 5.4,-1.42 3.127,-1.279C0.853,-1.136 -1.563,-1.634 0,0.356" style="fill:rgb(35,31,32);fill-rule:nonzero;"/>
    </g>
    <g transform="matrix(4.16667,0,0,4.16667,369.859,2031.26)">
        <path d="M0,0.356C0.708,1.256 4.264,0.64 5.969,0.853C7.674,1.066 13.43,1.777 14.638,1.848C15.846,1.919 20.181,1.99 22.881,1.493C25.581,0.996 27.713,-0.355 27.713,-0.355C27.713,-0.355 20.109,-1.066 18.547,-1.136C16.983,-1.207 9.664,-0.781 7.39,-0.639C5.116,-0.497 -1.563,-1.634 0,0.356" style="fill:white;fill-rule:nonzero;"/>
    </g>
    <g transform="matrix(4.16667,0,0,4.16667,397.097,2020.9)">
        <path d="M0,4.192C0,4.192 5.116,1.279 8.172,0.711C11.228,0.142 13.075,0 13.999,0.071C14.923,0.142 15.634,0.355 15.634,0.355L16.486,2.416L14.78,2.344L14.212,0.852C14.212,0.852 10.232,1.421 6.04,3.411C6.04,3.411 4.903,3.838 4.619,3.979C4.335,4.122 0,4.192 0,4.192" style="fill:rgb(173,88,75);fill-rule:nonzero;"/>
    </g>
    <g transform="matrix(4.16667,0,0,4.16667,313.011,1963.46)">
        <path d="M0,0.356C0.708,1.256 4.264,0.64 5.969,0.853C7.675,1.066 13.431,1.777 14.639,1.848C15.847,1.918 20.181,1.99 22.881,1.493C25.581,0.995 27.713,-0.355 27.713,-0.355C27.713,-0.355 28.495,-1.279 26.932,-1.35C25.368,-1.421 5.4,-1.421 3.127,-1.279C0.853,-1.136 -1.563,-1.634 0,0.356" style="fill:rgb(35,31,32);fill-rule:nonzero;"/>
    </g>
    <g transform="matrix(4.16667,0,0,4.16667,313.011,1959.61)">
        <path d="M0,0.356C0.708,1.256 4.264,0.64 5.969,0.853C7.675,1.066 13.431,1.777 14.639,1.848C15.847,1.918 20.181,1.99 22.881,1.493C25.581,0.996 27.713,-0.355 27.713,-0.355C27.713,-0.355 20.109,-1.066 18.547,-1.136C16.983,-1.207 9.664,-0.782 7.391,-0.639C5.116,-0.498 -1.563,-1.634 0,0.356" style="fill:white;fill-rule:nonzero;"/>
    </g>
    <g transform="matrix(4.16667,0,0,4.16667,340.249,1949.25)">
        <path d="M0,4.192C0,4.192 5.116,1.279 8.172,0.711C11.228,0.142 13.075,0 13.999,0.071C14.923,0.142 15.634,0.355 15.634,0.355L16.486,2.416L14.78,2.344L14.212,0.852C14.212,0.852 10.233,1.421 6.04,3.411C6.04,3.411 4.903,3.837 4.619,3.979C4.335,4.121 0,4.192 0,4.192" style="fill:rgb(124,69,74);fill-rule:nonzero;"/>
    </g>
    <g transform="matrix(4.16667,0,0,4.16667,345.405,1975.72)">
        <path d="M0,-0.933C0.644,0.014 4.233,-0.355 5.92,-0.024C7.606,0.306 13.3,1.414 14.5,1.569C15.7,1.723 20.02,2.094 22.747,1.785C25.476,1.475 27.696,0.276 27.696,0.276C27.696,0.276 28.54,-0.591 26.985,-0.771C25.431,-0.95 5.511,-2.331 3.232,-2.347C0.954,-2.363 -1.422,-3.027 0,-0.933" style="fill:rgb(35,31,32);fill-rule:nonzero;"/>
    </g>
    <g transform="matrix(4.16667,0,0,4.16667,345.669,1971.89)">
        <path d="M0,-0.934C0.645,0.013 4.234,-0.356 5.921,-0.025C7.607,0.306 13.3,1.414 14.5,1.568C15.7,1.722 20.02,2.093 22.748,1.784C25.477,1.474 27.696,0.275 27.696,0.275C27.696,0.275 20.16,-0.96 18.605,-1.139C17.051,-1.318 9.72,-1.4 7.441,-1.415C5.163,-1.431 -1.422,-3.027 0,-0.934" style="fill:white;fill-rule:nonzero;"/>
    </g>
    <g transform="matrix(4.16667,0,0,4.16667,372.456,1962.79)">
        <path d="M0,3.048C0,3.048 5.306,0.496 8.394,0.141C11.48,-0.215 13.334,-0.229 14.25,-0.095C15.167,0.04 15.861,0.303 15.861,0.303L16.569,2.417L14.873,2.229L14.409,0.7C14.409,0.7 10.399,0.992 6.08,2.687C6.08,2.687 4.916,3.033 4.623,3.155C4.329,3.277 0,3.048 0,3.048" style="fill:rgb(124,69,74);fill-rule:nonzero;"/>
    </g>
</svg>
