<?xml version="1.0" encoding="UTF-8" standalone="no"?>
<!DOCTYPE svg PUBLIC "-//W3C//DTD SVG 1.1//EN" "http://www.w3.org/Graphics/SVG/1.1/DTD/svg11.dtd">
<svg width="100%" height="100%" viewBox="0 0 2484 3509" version="1.1" xmlns="http://www.w3.org/2000/svg" xmlns:xlink="http://www.w3.org/1999/xlink" xml:space="preserve" xmlns:serif="http://www.serif.com/" style="fill-rule:evenodd;clip-rule:evenodd;stroke-linejoin:round;stroke-miterlimit:2;">
    <g transform="matrix(4.16667,0,0,4.16667,0,0)">
        <path d="M226.237,467.378C226.237,467.378 265.651,506.113 371.664,480.969L476.998,493.202C476.998,493.202 498.744,512.23 515.732,567.954C532.723,623.679 578.254,733.769 573.497,753.477C568.74,773.185 561.265,806.484 542.237,823.473C523.209,840.462 465.445,820.754 440.301,812.6C415.157,804.445 399.527,786.776 399.527,786.776C399.527,786.776 421.273,814.638 435.544,773.185C449.815,731.731 446.417,708.625 431.467,706.587C416.516,704.548 430.787,703.868 430.787,703.868C430.787,703.868 450.495,701.83 456.611,707.266C456.611,707.266 461.368,674.647 472.241,641.348C483.114,608.049 487.871,523.782 481.755,509.511C475.639,495.24 459.329,497.279 445.058,501.356C430.787,505.434 367.587,593.098 304.387,584.944C241.187,576.789 220.12,487.085 220.12,487.085L107.991,486.406C107.991,486.406 116.826,572.032 131.097,591.06C145.368,610.088 150.804,692.316 146.727,705.907C146.727,705.907 177.987,707.946 195.656,700.471C213.325,692.995 258.855,678.724 258.855,678.724C258.855,678.724 244.585,699.111 257.497,733.769C270.409,768.428 279.923,754.836 279.923,754.836C279.923,754.836 230.993,785.417 176.628,808.522C122.262,831.628 43.432,849.976 26.442,820.754C9.453,791.533 4.016,746.681 16.249,709.985C28.481,673.288 29.84,612.806 44.791,584.944C59.741,557.081 93.04,483.688 101.875,484.367C110.71,485.047 226.237,467.378 226.237,467.378Z" style="fill:rgb(134,65,108);fill-rule:nonzero;"/>
        <path d="M359.081,448.35C359.081,448.35 476.647,476.212 478.006,487.085C479.365,497.959 491.143,550.436 479.59,603.442C468.038,656.449 444.707,793.572 446.746,818.036L125.989,818.036C125.989,818.036 173.559,738.526 140.939,629.795C108.32,521.064 112.397,521.064 111.038,496.599C109.679,472.135 91.67,493.372 84.025,506.878C84.025,506.878 91.8,477.942 113.757,470.776C140.736,461.97 164.045,456.505 186.471,450.389C208.896,444.273 224.864,431.25 234.635,430.171C234.635,430.171 198.146,521.199 272.049,551.269C272.049,551.269 308.114,559.12 318.987,565.916C329.86,572.711 344.811,550.965 345.49,535.335C346.17,519.705 359.081,448.35 359.081,448.35Z" style="fill:white;fill-rule:nonzero;"/>
        <path d="M471.151,481.559C471.151,481.559 484.972,531.937 474.778,584.944C464.585,637.95 438.761,720.858 438.761,752.118C438.761,752.118 455.071,756.195 454.391,754.157C453.712,752.118 465.944,673.967 477.497,618.922C489.049,563.877 491.768,532.617 480.215,486.406L471.151,481.559Z" style="fill:white;fill-rule:nonzero;"/>
        <path d="M81.986,510.191C81.986,510.191 93.488,477.501 102.98,476.846C115.695,475.969 116.352,486.82 116.352,486.82C116.352,486.82 123.78,552.324 136.692,576.109C149.604,599.894 161.157,680.083 152.322,707.946L146.206,709.305C146.206,709.305 149.604,661.055 133.974,606.69C118.344,552.324 111.548,531.937 108.83,509.511L106.112,487.085C106.112,487.085 93.199,486.406 83.006,510.87" style="fill:white;fill-rule:nonzero;"/>
        <path d="M279.417,666.598L277.816,591.526C282.563,590.169 301.391,593.824 311.05,595.369C322.354,597.178 339.536,596.273 339.536,596.273L339.536,670.88C354.457,676.306 402.612,674.271 402.612,674.271L402.505,676.325L402.386,735.087L341.797,731.47L346.996,813.989L276.233,805.172L276.234,802.066C275.329,771.771 276.459,729.209 276.459,729.209L206.908,717.354L205.244,717.001L205.922,655.281L280.301,666.952L277.816,591.526C282.563,590.169 301.391,593.824 311.05,595.369C322.354,597.178 339.536,596.273 339.536,596.273" style="fill:rgb(217,68,72);fill-rule:nonzero;"/>
        <path d="M396.458,363.404C396.968,361.875 409.2,313.965 408.69,290.01C408.18,266.055 394.419,240.571 386.264,237.513C378.109,234.455 366.387,230.378 362.309,227.32C358.232,224.262 326.122,214.068 310.832,215.597C295.542,217.126 297.071,224.771 287.897,226.3C278.722,227.829 269.038,227.829 257.825,239.552C246.613,251.275 244.574,279.817 234.89,291.029C225.206,302.242 224.696,331.804 223.677,346.584C222.658,361.365 215.013,377.675 221.129,387.359C227.245,397.042 246.103,414.881 247.122,413.352C248.142,411.823 396.458,363.404 396.458,363.404Z" style="fill:rgb(25,0,2);fill-rule:nonzero;"/>
        <path d="M229.538,469.926C229.538,469.926 257.825,507.133 355.174,482.668C355.174,482.668 371.993,446.991 367.916,429.152C367.916,429.152 408.18,363.913 403.593,325.178C399.006,286.442 392.89,255.862 380.148,255.862C367.406,255.862 369.445,262.997 360.78,259.429C352.116,255.862 340.393,242.61 327.651,254.842C314.909,267.075 304.206,283.894 292.484,285.933C280.761,287.971 263.432,303.262 263.942,316.004C264.451,328.746 251.709,335.881 253.238,332.313C254.767,328.746 242.535,308.868 232.342,317.533C222.148,326.197 226.225,344.546 229.284,356.268C232.342,367.991 229.284,371.558 236.929,376.146C244.574,380.733 250.855,390.589 243.045,404.688C228.646,430.681 229.538,469.926 229.538,469.926Z" style="fill:rgb(239,165,181);fill-rule:nonzero;"/>
        <path d="M394.371,274.402C394.371,274.402 394.535,297.748 391.411,302.681C388.288,307.613 372.833,305.147 372.998,308.599C373.162,312.052 374.559,326.808 374.559,326.808L374.148,334.576L401.769,351.675C401.769,351.675 405.198,336.059 403.413,319.779C400.783,295.775 394.371,274.402 394.371,274.402Z" style="fill:rgb(237,146,171);fill-rule:nonzero;"/>
        <path d="M353.761,301.9C353.761,301.9 354.09,309.997 342.335,318.176C342.335,318.176 337.814,305.64 329.264,306.955C320.715,308.271 316.276,312.874 313.645,313.696C311.015,314.518 305.425,315.34 300.821,314.189C296.218,313.038 294.08,307.325 294.08,307.325C294.08,307.325 315.125,296.104 320.55,295.611C325.976,295.118 353.761,301.9 353.761,301.9Z" style="fill:rgb(237,146,171);fill-rule:nonzero;"/>
        <path d="M375.025,331.398C376.121,332.274 398.92,341.043 403.085,340.385L403.496,339.837C403.496,339.837 402.208,357.922 399.796,361.43C399.796,361.43 387.959,357.046 380.506,345.646C373.052,334.247 375.025,331.398 375.025,331.398Z" style="fill:rgb(237,146,171);fill-rule:nonzero;"/>
        <path d="M233.871,430.087C233.871,430.087 227.5,458.798 230.303,478.081C233.136,497.57 239.987,540.771 271.587,547.907C303.187,555.042 304.716,554.533 312.871,559.63C321.026,564.726 321.026,568.804 328.671,561.668C336.316,554.533 336.316,548.926 336.316,548.926L339.884,563.707C339.884,563.707 334.277,580.017 321.535,574.41C308.793,568.804 317.967,568.804 304.716,565.746C291.464,562.688 264.451,560.139 249.671,545.868C234.89,531.597 220.619,491.843 220.619,467.378C220.619,442.913 233.871,430.087 233.871,430.087Z" style="fill:white;fill-rule:nonzero;"/>
        <path d="M371.484,425.075C371.484,425.075 409.2,440.365 422.961,464.829C436.722,489.294 432.135,491.843 436.722,517.326C441.31,542.81 464.245,573.391 461.697,590.21C459.148,607.03 440.406,623.775 440.406,623.775C440.406,623.775 453.032,662.075 436.722,679.404C420.413,696.733 391.871,702.339 387.793,725.275C383.716,748.21 373.013,757.385 367.916,731.391C362.819,705.397 347.529,700.81 353.645,663.094C359.761,625.378 361.8,608.049 347.529,589.701C333.258,571.352 317.967,545.359 328.161,513.759C338.355,482.159 344.471,458.204 349.567,449.539C354.664,440.875 371.484,425.075 371.484,425.075Z" style="fill:rgb(25,0,2);fill-rule:nonzero;"/>
        <path d="M370.527,324.248C371.795,325.674 373.464,332.41 380.211,338.819C386.958,345.229 403.487,355.012 400.451,375.927C397.415,396.842 371.44,434.624 360.308,443.394C360.308,443.394 352.883,451.221 344.112,454.257C335.341,457.293 330.622,465.659 325.225,458.575C325.225,458.575 269.901,428.214 270.238,389.758C270.576,351.301 292.165,339.157 317.128,331.061C342.091,322.964 367.828,321.212 370.527,324.248Z" style="fill:rgb(137,148,202);fill-rule:nonzero;"/>
        <path d="M245.25,318.299C248.196,319.269 265.9,332.111 274.757,335.109C283.851,338.187 302.756,346.241 303.094,347.927C303.431,349.614 301.605,350.721 300.256,349.035C298.907,347.348 279.031,338.469 271.61,336.445C264.189,334.421 258.173,329.567 250.018,324.054" style="fill:rgb(116,85,164);fill-rule:nonzero;"/>
        <path d="M371.446,325.396C371.446,325.396 376.04,335.503 385.228,342.854C394.416,350.204 406.13,362.607 399.699,382.821C393.267,403.034 366.923,454.335 330.559,461.607C329.411,461.837 325.966,459.081 325.966,459.081C325.966,459.081 336.072,443.002 348.935,421.87C361.798,400.737 373.513,357.325 372.135,352.041C370.757,346.758 371.446,325.396 371.446,325.396Z" style="fill:rgb(116,85,164);fill-rule:nonzero;"/>
        <path d="M395.061,362.103C395.061,362.103 398.996,361.428 401.02,360.529C403.044,359.629 404.169,358.954 403.831,357.605C403.494,356.256 402.707,355.131 402.032,355.244C401.358,355.356 402.375,357.527 401.476,357.864C400.576,358.202 394.752,359.939 394.527,360.276C394.302,360.614 392.249,361.991 395.061,362.103Z" style="fill:rgb(82,53,117);fill-rule:nonzero;"/>
        <path d="M365.771,323.888C365.771,323.888 367.838,376.489 366.001,382.92C364.163,389.352 340.964,437.358 340.964,437.358C340.964,437.358 364.622,419.442 371.973,390.271C379.323,361.099 372.432,325.725 372.432,325.725C372.432,325.725 370.365,322.739 365.771,323.888Z" style="fill:rgb(116,85,164);fill-rule:nonzero;"/>
        <path d="M359.961,331.369C359.961,331.369 348.935,377.079 350.084,382.362C351.232,387.645 361.798,392.928 361.798,392.928L359.961,396.833C359.961,396.833 345.26,393.847 345.719,383.051C346.179,372.255 356.745,329.761 359.961,331.369Z" style="fill:rgb(116,85,164);fill-rule:nonzero;"/>
        <path d="M241.581,380.174C241.581,380.174 263.533,409.18 275.522,414.913C287.511,420.647 303.669,422.211 303.148,424.817C302.627,427.424 303.381,429.358 276.586,418.64C261.28,412.518 241.898,386.339 241.898,386.339" style="fill:rgb(116,85,164);fill-rule:nonzero;"/>
        <path d="M127.348,586.133C141.619,605.161 151.133,692.316 147.056,705.907C147.056,705.907 178.316,707.946 195.985,700.471C213.653,692.995 259.185,678.724 259.185,678.724C259.185,678.724 244.914,699.111 257.825,733.769C270.737,768.428 280.251,754.836 280.251,754.836C280.251,754.836 231.322,785.417 176.957,808.522C122.591,831.628 43.76,849.976 26.771,820.754C9.782,791.533 4.345,746.681 16.578,709.985" style="fill:rgb(134,65,108);fill-rule:nonzero;"/>
        <path d="M542.565,823.473C523.538,840.462 465.774,820.754 440.63,812.6C415.486,804.445 399.856,786.776 399.856,786.776C399.856,786.776 421.477,813.253 435.748,771.799C450.019,730.345 447.147,710.638 431.796,706.587C417.206,702.736 431.116,703.868 431.116,703.868C431.116,703.868 450.824,701.83 456.94,707.266C456.94,707.266 462.031,675.542 472.904,642.243" style="fill:rgb(134,65,108);fill-rule:nonzero;"/>
        <path d="M315.043,313.984C323.735,317.525 336.909,319.656 342.335,318.176C342.335,318.176 339.951,309.216 332.224,308.147C324.496,307.079 323.345,307.983 318.578,311.189C318.272,311.394 315.043,313.984 315.043,313.984Z" style="fill:white;fill-rule:nonzero;"/>
        <path d="M374.559,326.808C376.169,326.164 385.164,328.699 389.289,329.977C392.274,330.902 397.084,331 397.084,331C397.084,331 394.535,321.793 386.561,321.465C378.587,321.136 375.546,325.493 375.053,326.15L374.559,326.808Z" style="fill:white;fill-rule:nonzero;"/>
        <path d="M326.305,317.409C326.305,317.409 322.386,311.6 326.442,307.764C326.442,307.764 330.305,307.079 335.457,309.134C335.457,309.134 339.485,316.34 332.854,318.368L326.305,317.409Z" style="fill:rgb(25,0,2);fill-rule:nonzero;"/>
        <path d="M382.965,328.185C382.965,328.185 380.826,322.268 382.513,321.773C387.897,320.19 391.74,323.211 391.74,323.211C391.74,323.211 394.002,328.059 389.289,329.977L382.965,328.185Z" style="fill:rgb(25,0,2);fill-rule:nonzero;"/>
        <path d="M353.761,301.9C353.761,301.9 354.024,306.755 351.295,305.846C348.829,305.023 333.703,294.83 319.893,297.954C306.082,301.078 294.08,307.325 294.08,307.325C294.08,307.325 314.303,292.364 321.044,291.542C327.785,290.72 346.856,296.967 353.761,301.9Z" style="fill:rgb(25,0,2);fill-rule:nonzero;"/>
        <path d="M401.605,319.985C401.605,319.985 398.974,315.381 394.206,314.888C389.438,314.395 374.148,314.395 374.148,314.395C374.148,314.395 372.504,310.613 373.984,308.64C375.464,306.668 385.493,306.668 391.083,308.969C396.673,311.271 400.947,314.395 401.605,319.985Z" style="fill:rgb(25,0,2);fill-rule:nonzero;"/>
        <path d="M342.746,318.176C342.746,318.176 338.802,307.807 329.264,307.764C323.263,307.736 319.975,311.682 315.043,313.984C315.043,313.984 310.96,315.107 307.343,314.669C307.343,314.669 312.933,312.696 315.344,311.271C317.755,309.846 324.113,305.352 329.374,305.791C334.635,306.229 342.088,309.846 342.746,318.176Z" style="fill:rgb(25,0,2);fill-rule:nonzero;"/>
        <path d="M397.084,331C397.084,331 393.795,321.136 386.561,321.465C379.327,321.793 374.559,326.808 374.559,326.808C374.559,326.808 375.546,321.053 386.644,320.314C397.741,319.574 398.563,333.713 399.056,334.042C399.55,334.371 397.084,331 397.084,331Z" style="fill:rgb(25,0,2);fill-rule:nonzero;"/>
        <path d="M375.53,428.58C376.095,427.881 377.037,427.615 377.879,427.93C382.041,429.489 393.537,435.137 389.238,448.84C384.025,465.456 365.454,485.004 369.69,504.553C373.357,521.477 392.529,526.801 386.513,558.262C386.049,560.689 382.507,560.455 382.366,557.988C381.678,546.001 378.206,531.112 365.943,525.567C347.209,517.097 327.848,495.02 335.667,476.775C342.314,461.267 346.491,458.502 347.595,458.021C347.846,457.912 348.06,457.744 348.251,457.547C349.976,455.771 357.418,448.213 361.11,446.168C361.356,446.032 361.571,445.863 361.747,445.645L375.53,428.58Z" style="fill:rgb(55,27,27);fill-rule:nonzero;"/>
        <path d="M407.38,661.451C407.124,658.242 410.702,656.148 413.375,657.941C423.936,665.022 441.614,678.6 431.583,684.333C424.782,688.219 415.801,694.657 408.437,700.191C405.355,702.506 401.139,699.373 402.488,695.762C405.698,687.171 408.484,675.322 407.38,661.451Z" style="fill:rgb(55,27,27);fill-rule:nonzero;"/>
        <path d="M411.238,536.717C410.684,532.813 415.558,530.593 418.16,533.556C427.708,544.429 440.795,562.508 439.609,578.863C438.016,600.826 438.977,613.764 439.742,619.742C439.956,621.416 438.119,622.587 436.698,621.678C432.601,619.061 425.529,613.702 417.617,604.032C417.617,604.032 406.132,593.036 410.775,569.822C413.216,557.619 412.483,545.484 411.238,536.717Z" style="fill:rgb(55,27,27);fill-rule:nonzero;"/>
        <path d="M390.549,690.148C388.675,688.409 424.308,705.493 428.692,705.493C433.076,705.493 448.86,712.508 448.421,729.607C447.983,746.705 431.322,790.548 421.239,795.371C411.155,800.194 401.071,787.479 401.071,787.479L353.721,761.612C353.721,761.612 382.219,755.912 391.426,737.06C400.633,718.208 402.825,701.547 390.549,690.148Z" style="fill:rgb(239,165,181);fill-rule:nonzero;"/>
        <path d="M374.477,683.127C376.45,683.127 396.837,692.663 396.837,692.663C396.837,692.663 415.251,717.982 392.891,744.288C370.531,770.593 355.077,761.715 355.077,761.715L343.239,756.783C343.239,756.783 329.429,769.278 300.821,764.675C300.821,764.675 280.434,755.687 266.295,724.449C266.295,724.449 262.349,710.09 269.583,708.446C269.583,708.446 261.582,689.703 267.172,686.744C272.762,683.784 280.763,692.443 280.763,692.443C280.763,692.443 272.543,678.085 281.421,675.783C290.299,673.481 311.015,691.019 311.015,691.019C311.015,691.019 303.781,679.181 315.947,678.195C328.113,677.208 355.954,686.415 363.188,688.059C370.422,689.703 367.134,700.116 373.71,699.458C380.286,698.801 386.315,696.609 384.342,693.649C382.369,690.69 374.477,683.127 374.477,683.127Z" style="fill:white;fill-rule:nonzero;"/>
        <path d="M347.185,611.937C347.185,611.937 371.189,600.428 373.491,605.032C375.793,609.635 375.281,622.179 370.203,620.486C369.216,620.157 358.036,624.432 357.05,623.775C356.063,623.117 347.185,611.937 347.185,611.937Z" style="fill:white;fill-rule:nonzero;"/>
        <path d="M326.798,622.459C326.798,622.459 321.537,588.262 335.676,587.933C349.816,587.604 343.239,602.73 349.816,609.306C356.392,615.883 361.324,624.432 361.324,624.432L326.798,622.459Z" style="fill:rgb(202,205,208);fill-rule:nonzero;"/>
        <path d="M283.229,750.535C283.229,750.535 278.242,759.852 272.323,759.194C266.405,758.537 251.279,740.451 251.279,713.488C251.279,686.525 257.198,680.606 260.157,679.619C263.116,678.633 267.062,680.935 276.269,663.836C285.476,646.737 294.026,635.557 301.917,630.625C309.809,625.693 307.178,622.405 316.385,621.747C325.592,621.089 354.858,610.238 365.051,615.17C375.244,620.103 386.424,625.693 388.726,631.283C391.028,636.873 402.208,651.998 396.618,654.3C391.028,656.602 377.217,653.643 374.916,649.368L378.533,675.345C378.533,675.345 388.397,697.705 383.794,700.335C379.19,702.966 369.654,706.912 368.339,701.65C367.024,696.389 364.722,690.471 364.722,690.471C364.722,690.471 354.529,689.813 345.979,685.867C337.43,681.921 316.385,676.989 314.084,681.592C311.782,686.196 313.755,693.101 313.755,693.101C313.755,693.101 290.08,674.03 281.201,678.633C272.323,683.237 284.49,696.06 284.49,696.06C284.49,696.06 268.378,683.237 266.076,690.799C263.774,698.362 270.679,707.569 270.679,707.569C270.679,707.569 262.13,713.488 267.72,725.983C273.31,738.478 283.229,750.535 283.229,750.535Z" style="fill:rgb(223,224,226);fill-rule:nonzero;"/>
        <path d="M409.661,703.514C409.661,703.514 436.953,708.117 440.899,719.626C444.845,731.135 435.967,734.094 427.746,726.531C419.526,718.968 413.278,719.297 410.976,730.148C408.675,740.999 394.206,770.593 384.013,768.62C373.82,766.647 373.162,770.265 385.328,758.756C397.495,747.247 406.702,733.108 407.359,725.216C408.017,717.324 402.427,699.897 409.661,703.514Z" style="fill:rgb(237,146,171);fill-rule:nonzero;"/>
        <path d="M246.785,392.558C246.785,392.558 266.733,416.014 280.544,419.96C280.544,419.96 295.67,440.128 306.63,446.047C306.63,446.047 285.147,442.101 276.598,440.347C268.049,438.593 262.568,414.918 251.827,421.933C241.085,428.948 246.346,460.734 248.1,464.899C249.854,469.064 262.788,483.752 264.541,485.067C266.295,486.382 264.98,488.136 261.471,487.259C257.965,486.382 241.085,483.094 229.686,470.599C229.686,470.599 230.782,437.278 236.701,419.083C242.62,400.889 246.346,403.081 246.785,392.558Z" style="fill:rgb(237,146,171);fill-rule:nonzero;"/>
        <path d="M307.398,224.75C307.398,224.75 322.195,227.709 323.181,240.862C324.168,254.015 310.028,260.92 302.794,268.483C295.56,276.046 306.082,279.992 287.011,284.266C267.939,288.541 265.966,274.731 262.349,297.419C258.732,320.108 250.512,312.216 253.8,297.091C257.088,281.965 251.169,259.605 258.074,250.398C264.98,241.191 273.858,232.313 285.695,230.34C297.533,228.367 301.479,224.421 307.398,224.75Z" style="fill:rgb(55,27,27);fill-rule:nonzero;"/>
    </g>
</svg>
