<?xml version="1.0" encoding="UTF-8" standalone="no"?>
<!DOCTYPE svg PUBLIC "-//W3C//DTD SVG 1.1//EN" "http://www.w3.org/Graphics/SVG/1.1/DTD/svg11.dtd">
<svg width="100%" height="100%" viewBox="0 0 2555 3580" version="1.1" xmlns="http://www.w3.org/2000/svg" xmlns:xlink="http://www.w3.org/1999/xlink" xml:space="preserve" xmlns:serif="http://www.serif.com/" style="fill-rule:evenodd;clip-rule:evenodd;stroke-linejoin:round;stroke-miterlimit:2;">
    <g transform="matrix(4.16667,0,0,4.16667,0,0)">
        <path d="M135.403,837.578L135.403,773.969C135.403,773.969 311.458,812.661 323.488,805.773L332.402,856.506C332.402,856.506 143.969,857.285 140.075,856.506C136.182,855.728 135.403,837.578 135.403,837.578Z" style="fill:rgb(30,28,36);fill-rule:nonzero;"/>
        <path d="M297.181,699.171C298.238,699.171 345.43,719.95 389.804,713.963C434.179,707.976 488.062,691.071 488.062,691.071C488.062,691.071 497.923,718.189 499.684,730.163C501.445,742.137 502.502,799.895 501.445,814.686C500.388,829.478 500.036,865.071 500.036,865.071C500.036,865.071 314.208,857.557 312.448,856.852C310.687,856.148 297.181,699.171 297.181,699.171Z" style="fill:rgb(39,101,150);fill-rule:nonzero;"/>
        <path d="M369.282,719.204C373.399,728.61 372.612,741.082 372.612,741.082L384.39,784.091C384.39,784.091 384.6,798.453 388.219,815.411C391.839,832.368 392.093,859.623 392.093,859.623L306.292,856.852L297.181,699.171L369.282,719.204Z" style="fill:rgb(33,91,135);fill-rule:nonzero;"/>
        <path d="M406.591,413.906C406.591,413.906 406.122,421.184 413.635,422.827C421.148,424.471 425.609,426.819 426.313,426.584C427.018,426.349 404.478,518.151 387.809,526.603C371.139,535.055 372.547,556.184 369.73,548.378C366.913,540.571 358.695,498.664 351.886,488.098C345.077,477.533 345.312,450.298 345.312,450.298C345.312,450.298 342.729,444.897 336.156,428.932C329.582,412.966 324.651,387.375 325.59,385.262C326.529,383.149 341.791,368.827 369.26,363.661C396.73,358.496 411.287,361.313 410.583,362.487C409.878,363.661 415.748,374.696 415.748,374.696C415.748,374.696 422.322,382.444 419.505,390.662C416.687,398.879 410.348,416.253 406.591,413.906Z" style="fill:rgb(105,83,75);fill-rule:nonzero;"/>
        <path d="M406.303,378.246C406.303,378.246 400.333,399.269 394.104,405.239C387.875,411.209 385.02,416.919 376.974,414.583C368.928,412.247 366.073,408.094 362.958,410.69C359.844,413.285 357.248,413.285 352.836,418.736C348.423,424.186 336.484,428.858 336.484,428.858L321.43,412.507C321.43,412.507 309.75,398.233 321.43,393.82C333.11,389.407 408.899,367.864 408.899,367.864L406.303,378.246Z" style="fill:rgb(53,38,36);fill-rule:nonzero;"/>
        <path d="M389.682,397.498C386.541,395.995 372.292,391.658 370.086,392.826C367.88,393.994 362.3,392.696 363.338,397.498C364.376,402.3 371.384,406.842 378.262,408.269C385.14,409.697 398.637,401.781 389.682,397.498Z" style="fill:rgb(37,19,19);fill-rule:nonzero;"/>
        <path d="M328.299,404.636C331.283,402.04 343.482,394.902 346.727,396.2C349.971,397.498 355.811,401.261 354.903,405.284C353.994,409.308 346.302,417.743 341.648,418.132C336.994,418.522 328.299,404.636 328.299,404.636Z" style="fill:rgb(37,19,19);fill-rule:nonzero;"/>
        <path d="M370.432,400.094C370.432,400.094 374.845,398.277 376.791,398.407C378.738,398.537 381.204,398.264 383.15,398.4C385.097,398.537 382.112,400.094 379.387,400.094C376.662,400.094 370.822,401.132 370.432,400.094Z" style="fill:rgb(31,9,11);fill-rule:nonzero;"/>
        <path d="M347.897,404.896C346.854,404.573 337.989,405.804 337.989,406.972C337.989,408.14 337.989,407.102 342.401,406.972C346.813,406.842 350.407,405.674 347.897,404.896Z" style="fill:rgb(31,9,11);fill-rule:nonzero;"/>
        <path d="M363.425,444.329C354.714,444.202 353.951,442.531 352.264,442.141C350.577,441.752 347.332,441.752 347.981,441.363C348.63,440.973 355.076,439.345 357.747,439.805C360.569,440.292 363.425,440.324 364.982,439.805C366.539,439.286 369.524,437.713 371.86,437.453C374.196,437.194 380.295,436.042 381.204,436.042C382.112,436.042 368.733,444.406 363.425,444.329Z" style="fill:rgb(83,65,61);fill-rule:nonzero;"/>
        <path d="M347.897,441.363C347.897,441.363 350.707,438.767 355.249,438.378C359.791,437.988 360.829,437.988 362.386,438.378C363.944,438.767 364.333,437.599 366.799,436.95C369.264,436.301 376.142,434.485 381.204,436.042C381.204,436.042 370.951,437.641 367.188,439.328C363.425,441.015 357.455,440.195 354.859,440.065C352.264,439.935 347.897,441.363 347.897,441.363Z" style="fill:rgb(93,74,67);fill-rule:nonzero;"/>
        <path d="M382.372,433.057C382.372,433.057 376.193,429.081 369.264,427.347C367.51,426.908 365.858,432.451 361.768,431.964C359.054,431.641 355.508,429.553 355.508,429.553C355.508,429.553 341.363,438.508 344.866,439.156C348.371,439.805 354.6,438.508 357.844,437.08C361.088,435.652 363.384,435.782 364.572,435.652C365.76,435.523 382.372,435.133 382.372,433.057Z" style="fill:rgb(24,4,7);fill-rule:nonzero;"/>
        <path d="M344.281,448.218C344.281,448.218 351.269,459.466 361.975,459.66C372.682,459.855 373.266,456.546 375.991,456.351C378.717,456.156 386.114,448.37 386.698,448.175C387.282,447.98 392.927,446.229 390.591,448.175C388.255,450.122 381.831,452.458 381.831,456.351C381.831,460.244 384.167,468.615 384.167,468.615C384.167,468.615 380.469,476.596 378.522,481.463C376.575,486.329 375.213,503.459 375.213,503.459L340.563,475.362L344.281,448.218Z" style="fill:rgb(80,63,59);fill-rule:nonzero;"/>
        <path d="M391.154,372.581C392.019,372.711 399.805,384.391 402.4,387.375C404.996,390.36 403.568,400.093 405.775,399.445C407.981,398.796 412.782,389.323 412.782,389.323C412.782,389.323 413.172,381.016 415.767,378.551C418.363,376.085 418.622,371.673 417.065,369.207C415.508,366.741 412.004,364.016 412.004,364.016L391.154,372.581Z" style="fill:rgb(24,4,7);fill-rule:nonzero;"/>
        <path d="M389.293,434.873C388.514,433.316 374.888,417.743 373.98,416.834C373.071,415.926 369.438,413.72 369.957,414.888C370.476,416.056 370.476,415.942 371.644,418.14C372.812,420.338 373.201,423.769 371.773,424.714C370.346,425.659 367.361,426.957 366.712,428.125C366.063,429.293 364.376,431.499 362.04,431.499C359.704,431.499 356.001,430.331 354.998,430.072C353.994,429.812 357.368,433.446 361.781,432.537C366.193,431.629 366.018,431.369 367.621,428.774C369.223,426.178 372.552,425.845 373.201,424.714C373.85,423.583 371.514,415.796 372.812,417.354C374.109,418.911 386.827,436.041 387.995,435.911C389.163,435.782 389.293,434.873 389.293,434.873Z" style="fill:rgb(98,78,71);fill-rule:nonzero;"/>
        <path d="M415.378,391.528C415.118,390.62 414.469,388.675 412.782,389.323C411.095,389.971 412.134,383.872 410.447,387.116C408.76,390.36 408.76,393.605 408.76,393.605L408.76,401.132L412.069,398.147L415.378,391.528Z" style="fill:rgb(90,71,66);fill-rule:nonzero;"/>
        <path d="M343.316,448.067C343.316,448.067 325.708,460.746 318.664,465.324C311.62,469.902 301.407,490.329 297.885,498.429C294.364,506.529 284.15,534.703 284.15,561.117C284.15,587.53 297.181,699.171 297.181,699.171C297.181,699.171 339.795,726.641 396.496,713.258C453.197,699.875 498.275,670.645 498.275,670.645L499.684,557.595L500.036,456.871C500.036,456.871 492.993,442.784 474.327,435.389C455.662,427.993 446.857,427.993 440.518,425.527C434.179,423.062 428.544,419.893 422.557,416.371C416.57,412.849 408.954,418.691 408.954,418.691L408.25,420.804C408.25,420.804 409.174,421.654 417.979,426.232C417.979,426.232 414.809,445.954 412.696,448.067C410.583,450.18 406.709,450.884 402.483,460.393C398.257,469.902 382.056,518.151 382.056,518.151C382.056,518.151 377.126,533.999 375.717,539.634C375.717,539.634 376.069,526.251 375.717,517.8C375.365,509.346 373.604,492.442 369.378,486.455C365.152,480.468 360.221,476.241 356.347,470.254C352.473,464.267 348.599,454.758 348.599,454.758L343.316,448.067Z" style="fill:rgb(159,163,170);fill-rule:nonzero;"/>
        <path d="M406.826,358.966C406.826,358.966 399.313,336.426 396.73,328.443C394.148,320.461 391.095,311.539 381,307.782C370.904,304.026 369.495,298.156 362.452,301.443C355.408,304.73 354.938,310.6 346.956,310.365C338.973,310.13 338.738,306.608 333.573,308.721C328.407,310.834 319.955,324.452 317.842,335.487C315.729,346.522 319.955,370.705 319.955,370.705C319.955,370.705 392.035,354.974 406.826,358.966Z" style="fill:rgb(250,217,111);fill-rule:nonzero;"/>
        <path d="M420.678,383.618C420.678,383.618 463.41,357.557 460.592,349.105C457.775,340.652 410.583,365.305 410.583,365.305L420.678,383.618Z" style="fill:rgb(210,174,91);fill-rule:nonzero;"/>
        <path d="M314.555,371.409C314.555,371.409 290.842,389.488 297.181,393.01C303.52,396.532 323.947,395.827 323.947,395.827C323.947,395.827 370.199,388.549 410.583,365.305C410.583,365.305 449.323,345.583 459.653,347.931C459.653,347.931 445.566,345.583 399.078,355.913C352.591,366.244 314.555,371.409 314.555,371.409Z" style="fill:rgb(250,217,111);fill-rule:nonzero;"/>
        <path d="M369.73,487.687C369.73,487.687 365.328,484.165 357.932,482.757C350.536,481.348 349.127,480.468 345.606,478.178C342.084,475.889 335.921,472.543 336.625,470.254C337.329,467.965 340.675,465.5 336.273,466.38C331.871,467.261 329.758,468.141 329.582,471.135C329.405,474.128 331.343,490.152 331.343,490.152C331.343,490.152 325.531,473.952 331.166,465.148C336.801,456.343 338.914,450.884 338.914,450.884L344.075,447.582L348.842,453.294C348.842,453.294 351.945,462.154 358.284,471.135C364.624,480.115 368.849,484.694 369.73,487.687Z" style="fill:rgb(139,144,150);fill-rule:nonzero;"/>
        <path d="M440.518,425.527C440.518,425.527 448.97,431.162 452.668,437.502C456.366,443.841 462.781,455.526 459.008,454.582C458.303,454.406 454.253,448.948 448.618,448.595C442.983,448.243 430.129,449.476 429.601,449.652C429.072,449.828 430.129,450.884 428.72,454.054C427.311,457.224 420.972,461.45 420.62,462.859C420.268,464.267 418.507,471.839 412.872,479.763C407.237,487.687 392.622,505.296 390.156,510.931C387.691,516.566 373.604,549.143 372.9,553.017C372.195,556.891 376.245,533.118 386.811,502.479C397.376,471.839 401.602,457.048 407.765,451.237C413.928,445.426 415.498,439.136 415.85,433.325C416.202,427.514 418.315,427.69 416.202,426.106C414.089,424.521 408.25,422.037 408.25,420.1C408.25,418.163 409.482,417.283 409.482,417.283C409.482,417.283 414.633,412.849 421.148,416.019C427.663,419.188 440.518,425.527 440.518,425.527Z" style="fill:rgb(139,144,150);fill-rule:nonzero;"/>
        <path d="M402.6,705.041C402.6,705.041 387.104,682.266 382.878,656.44C378.652,630.614 382.643,576.143 384.287,564.169C385.93,552.195 391.434,508.585 391.434,508.585C391.434,508.585 370.904,552.43 369.495,563.23C368.086,574.03 363.86,605.257 367.852,655.97C367.852,655.97 377.983,701.123 383.1,708.655C383.266,708.9 383.427,709.105 383.582,709.267C388.513,714.432 402.6,705.041 402.6,705.041Z" style="fill:rgb(147,151,157);fill-rule:nonzero;"/>
        <path d="M408.47,515.568C408.47,515.568 405.652,558.299 405.183,566.986C404.713,575.673 401.426,574.265 407.061,578.256C412.696,582.247 433.827,591.404 436.175,590.465C438.522,589.526 445.331,587.413 452.844,586.239C460.358,585.065 464.818,588.587 465.758,580.369C466.697,572.152 469.749,521.438 469.749,521.438C469.749,521.438 437.818,515.803 408.47,515.568Z" style="fill:rgb(147,151,157);fill-rule:nonzero;"/>
        <path d="M421.677,696.882C421.677,696.882 434.883,682.971 436.468,682.971C438.053,682.971 439.461,688.782 438.405,690.014C437.348,691.247 421.677,696.882 421.677,696.882Z" style="fill:rgb(147,151,157);fill-rule:nonzero;"/>
        <path d="M419.502,701.152C419.678,698.158 414.809,669.412 408.47,671.349C402.13,673.286 406.709,698.819 406.709,698.819C406.709,698.819 393.15,662.897 387.339,661.84C381.528,660.784 392.446,669.588 394.559,674.871C396.672,680.153 402.483,694.064 403.011,697.234C403.539,700.404 391.037,706.039 398.257,705.686C405.476,705.334 419.502,701.152 419.502,701.152Z" style="fill:rgb(147,151,157);fill-rule:nonzero;"/>
        <path d="M338.503,653.623C338.503,654.796 352.356,670.762 357.052,673.345C357.052,673.345 353.06,671.936 347.425,668.884C341.791,665.831 336.39,660.197 337.329,664.188C338.269,668.179 354.704,681.562 360.104,686.258C365.504,690.954 372.782,696.823 367.382,694.475C361.982,692.128 352.121,684.145 345.782,680.153C339.443,676.162 339.912,678.745 346.251,686.023C352.591,693.301 356.112,698.467 355.877,700.11C355.643,701.754 348.599,696.589 341.556,688.84C334.512,681.093 332.164,678.275 328.173,668.414C324.181,658.553 338.503,653.623 338.503,653.623Z" style="fill:rgb(147,151,157);fill-rule:nonzero;"/>
        <path d="M374.191,666.418C374.191,664.797 375.505,663.484 377.126,663.484C378.747,663.484 380.061,664.797 380.061,666.418C380.061,668.039 378.747,669.353 377.126,669.353C375.505,669.353 374.191,668.039 374.191,666.418Z" style="fill:rgb(139,144,150);fill-rule:nonzero;"/>
        <path d="M370.552,618.17C370.552,616.549 371.866,615.235 373.487,615.235C375.107,615.235 376.421,616.549 376.421,618.17C376.421,619.791 375.107,621.105 373.487,621.105C371.866,621.105 370.552,619.791 370.552,618.17Z" style="fill:rgb(139,144,150);fill-rule:nonzero;"/>
        <path d="M372.665,571.447C372.665,569.762 374.031,568.395 375.717,568.395C377.403,568.395 378.769,569.762 378.769,571.447C378.769,573.133 377.403,574.499 375.717,574.499C374.031,574.499 372.665,573.133 372.665,571.447Z" style="fill:rgb(139,144,150);fill-rule:nonzero;"/>
        <path d="M370.61,531.622C370.61,530.212 371.754,529.068 373.164,529.068C374.574,529.068 375.717,530.212 375.717,531.622C375.717,533.032 374.574,534.175 373.164,534.175C371.754,534.175 370.61,533.032 370.61,531.622Z" style="fill:rgb(139,144,150);fill-rule:nonzero;"/>
        <path d="M319.016,366.244C319.016,366.244 351.064,357.674 366.091,356.031C381.117,354.387 394.969,352.744 405.417,352.861L406.122,356.031L386.869,360.844C386.869,360.844 346.486,365.305 319.72,374.109L319.016,366.244Z" style="fill:rgb(251,176,102);fill-rule:nonzero;"/>
        <path d="M480.667,534.703C480.667,534.703 494.02,546.06 497.59,558.02C498.937,562.531 498.184,566.936 498.184,566.936C498.184,566.936 494.402,598.095 498.275,603.378C502.149,608.661 503.558,603.73 503.558,603.73C503.558,603.73 497.219,611.478 498.275,615C499.332,618.522 494.754,615.704 496.163,619.931C497.571,624.157 494.049,629.439 494.049,630.496C494.049,631.553 490.175,631.905 487.71,636.483C485.245,641.061 483.484,649.162 483.484,649.162C483.484,649.162 475.736,649.866 475.031,656.909L447.209,680.153C447.209,680.153 471.862,691.071 479.258,712.202L478.553,723.824L502.854,701.989C502.854,701.989 504.263,694.241 508.841,688.958C513.419,683.675 526.098,667.475 530.324,657.966C534.55,648.457 553.568,611.126 555.329,604.787C557.089,598.448 562.724,596.687 560.611,582.6C558.498,568.513 553.568,563.23 548.637,553.369C543.707,543.508 504.263,460.393 501.445,456.871C498.628,453.35 490.528,455.463 490.175,457.576C489.823,459.689 495.106,459.689 495.458,466.733C495.81,473.776 492.641,491.385 491.584,494.555C490.528,497.724 494.402,508.29 480.667,534.703Z" style="fill:rgb(154,158,164);fill-rule:nonzero;"/>
        <path d="M486.419,543.038C480.659,545.342 485.714,548.908 480.08,550.786C474.445,552.664 470.688,550.082 466.931,554.777C463.175,559.473 469.279,555.012 472.097,554.543C474.914,554.073 474.21,553.604 478.671,553.838C483.132,554.073 485.245,552.43 485.245,552.43C485.245,552.43 490.645,552.899 485.01,558.299C479.375,563.699 474.679,567.926 475.853,568.63C477.027,569.334 486.888,560.178 487.827,558.299C488.767,556.421 492.523,559.238 491.819,563.934C491.115,568.63 486.184,582.013 487.593,586.943C489.001,591.874 493.932,587.882 495.341,577.552C496.749,567.221 498.158,557.36 496.28,553.838C494.402,550.317 491.115,541.16 486.419,543.038Z" style="fill:rgb(147,151,157);fill-rule:nonzero;"/>
        <path d="M483.601,533.647C482.193,532.003 476.558,528.481 478.906,533.412C481.254,538.342 485.714,541.629 487.123,542.099C488.532,542.569 494.636,544.917 491.584,541.16C488.532,537.403 483.601,533.647 483.601,533.647Z" style="fill:rgb(147,151,157);fill-rule:nonzero;"/>
        <path d="M545.35,553.134C543.256,553.537 541.315,558.186 537.593,561.796C530.13,569.034 519.839,578.019 517.176,581.778C513.184,587.413 500.036,599.387 501.68,599.622C503.323,599.856 513.419,604.318 515.063,597.039C516.706,589.761 522.106,580.604 523.515,580.604C524.924,580.604 528.68,578.491 527.976,576.847C527.272,575.204 533.141,567.691 537.367,563.699C541.594,559.708 548.402,562.291 550.281,566.047C552.159,569.804 560.611,577.787 559.437,577.082C558.263,576.378 551.455,551.96 545.35,553.134Z" style="fill:rgb(147,151,157);fill-rule:nonzero;"/>
        <path d="M523.275,605.923C524.039,608.216 507.545,614.375 505.901,617.428C504.258,620.48 502.145,626.115 502.849,628.697C503.553,631.28 498.623,634.802 500.97,635.741C503.318,636.68 519.284,639.967 525.623,639.263C525.623,639.263 515.526,645.837 506.84,642.08C498.153,638.324 497.684,638.793 497.449,637.15C497.214,635.506 500.266,630.576 497.214,633.393C494.162,636.211 492.518,637.854 493.692,634.098C494.866,630.341 500.736,605.219 503.084,605.688C505.432,606.158 506.371,608.271 507.545,607.097C508.719,605.923 510.597,603.34 510.597,603.34C510.597,603.34 505.432,611.089 508.484,610.854C511.536,610.619 522.336,603.106 523.275,605.923Z" style="fill:rgb(147,151,157);fill-rule:nonzero;"/>
        <path d="M522.106,645.405C516.224,645.138 513.419,648.927 511.541,653.388C509.663,657.849 501.915,673.579 501.21,676.632C500.506,679.684 502.384,681.327 501.445,681.327C500.506,681.327 503.089,673.579 507.315,667.005C511.541,660.431 511.071,653.857 518.349,654.092C525.628,654.327 528.211,654.092 523.28,662.075C518.349,670.058 505.437,685.084 506.141,685.319C506.845,685.553 522.81,667.944 526.567,660.431C530.324,652.918 532.437,645.875 522.106,645.405Z" style="fill:rgb(147,151,157);fill-rule:nonzero;"/>
        <path d="M413.752,702.693C413.752,702.693 445.801,694.241 449.675,691.951C453.549,689.662 457.951,715.9 457.951,715.9C457.951,715.9 412.168,725.761 395.967,726.465C395.967,726.465 354.234,723.471 318.488,710.617L320.249,692.128C320.249,692.128 345.958,701.108 359.341,703.045C372.724,704.982 386.458,707.447 393.15,706.391C399.841,705.334 405.652,704.806 405.652,704.806L413.752,702.693Z" style="fill:rgb(246,137,53);fill-rule:nonzero;"/>
        <path d="M450.427,682.046C450.427,682.046 446.857,681.738 442.983,688.254C439.109,694.769 437.172,695.121 432.066,702.869C426.959,710.617 417.274,718.541 417.45,719.421C417.626,720.302 419.211,725.409 422.557,725.585C425.903,725.761 430.657,725.761 434.531,721.887C434.531,721.887 433.651,729.635 443.159,735.622C452.668,741.609 474.853,730.258 478.198,729.025L479.258,712.202C479.258,712.202 472.618,691.071 450.427,682.046Z" style="fill:rgb(105,83,75);fill-rule:nonzero;"/>
        <path d="M435.097,725.967C435.097,725.967 438.293,736.682 451.011,737.201C463.729,737.72 494.875,715.263 494.875,715.263C494.875,715.263 488.387,723.185 488.127,724.223C487.868,725.262 475.669,735.147 472.035,737.212C468.401,739.277 451.79,741.094 454.385,741.613C456.981,742.132 482.388,737.054 488.242,733.364C488.242,733.364 492.28,736.422 482.417,740.316C472.554,744.209 460.615,747.323 460.615,747.323L478.524,749.919L494.875,745.595C494.875,745.595 468.661,763.935 467.363,763.416C466.065,762.896 480.6,753.553 478.264,753.293C475.928,753.033 455.943,754.591 451.011,757.965C446.08,761.339 417.27,767.828 415.972,766.79C414.674,765.751 414.674,763.416 427.652,760.041C440.629,756.667 457.76,750.957 457.5,750.178C457.24,749.4 439.072,746.462 437.255,745.595C435.438,744.728 433.362,741.613 442.446,742.392C451.531,743.171 440.889,739.796 440.889,739.796L392.093,728.117L435.097,725.967Z" style="fill:rgb(36,94,140);fill-rule:nonzero;"/>
        <path d="M231.079,398.098C231.079,398.098 225.368,429.763 222.254,433.397C219.139,437.031 210.315,450.268 205.902,454.161C201.49,458.054 198.375,474.406 208.498,484.788C218.62,495.17 250.545,513.858 257.553,513.339C264.561,512.819 275.721,501.659 275.721,501.659L273.905,486.852L319.866,445.84C319.866,445.84 318.715,437.869 319.234,433.716C319.753,429.563 271.309,388.495 231.079,398.098Z" style="fill:rgb(105,83,75);fill-rule:nonzero;"/>
        <path d="M243.452,406.468C243.452,406.468 244.491,419.705 243.712,427.492C242.933,435.278 242.933,441.508 246.048,446.699C249.163,451.89 254.354,458.378 256.43,461.753C258.506,465.127 267.331,466.684 268.629,464.089C269.927,461.493 266.552,453.187 265.255,445.92C263.957,438.653 265.255,432.164 265.255,423.079C265.255,413.995 271.484,410.881 263.957,409.064C256.43,407.247 243.452,406.468 243.452,406.468Z" style="fill:rgb(110,87,78);fill-rule:nonzero;"/>
        <path d="M223.727,430.347C223.727,430.347 225.803,435.019 231.773,434.24C231.773,434.24 233.59,458.897 239.04,466.424C244.491,473.951 267.331,488.227 267.331,488.227L275.118,503.54L254.873,513.922L222.429,495.754C222.429,495.754 205.818,473.173 205.818,471.356C205.818,469.539 208.673,449.554 208.673,449.554C208.673,449.554 217.238,441.767 223.727,430.347Z" style="fill:rgb(98,78,71);fill-rule:nonzero;"/>
        <path d="M310.391,436.42C310.391,436.42 307.925,444.337 311.689,450.306C311.689,450.306 319.736,447.138 319.866,445.84C319.995,444.542 319.044,434.802 319.044,434.802L310.391,436.42Z" style="fill:rgb(92,73,67);fill-rule:nonzero;"/>
        <path d="M292.892,441.304C292.892,441.304 291.915,445.283 292.667,445.84C292.667,445.84 281.836,441.535 279.32,437.253C279.32,437.253 288.129,443.017 292.892,441.304Z" style="fill:rgb(30,28,36);fill-rule:nonzero;"/>
        <path d="M268.863,407.61C268.863,407.61 250.435,423.832 249.656,426.298C248.877,428.764 245.244,414.359 243.557,409.687C241.87,405.015 236.549,400.083 236.549,400.083L267.955,400.083L268.863,407.61Z" style="fill:rgb(30,28,36);fill-rule:nonzero;"/>
        <path d="M324.279,550.284L329.21,495.778C329.21,495.778 330.637,490.457 334.79,489.809C338.943,489.16 358.15,486.954 358.15,486.954C358.15,486.954 367.624,485.786 367.364,491.366C367.104,496.946 363.081,537.955 363.081,537.955L330.637,552.75L324.279,550.284Z" style="fill:rgb(30,28,36);fill-rule:nonzero;"/>
        <path d="M406.417,601.265C406.417,601.265 406.417,596.687 397.26,597.919C388.103,599.152 372.783,602.322 367.501,602.322C362.218,602.322 352.181,602.674 347.955,602.674C343.729,602.674 341.792,597.743 337.037,598.272C332.283,598.8 327.704,599.152 328.233,603.73C328.761,608.309 339.15,617.113 342.848,617.113C346.546,617.113 357.287,620.811 356.759,625.566C356.231,630.32 326.648,650.218 326.648,650.218C326.648,650.218 334.748,652.86 341.615,651.627C341.615,651.627 343.024,653.916 351.653,652.155C351.653,652.155 354.822,651.979 356.583,652.331C358.344,652.683 366.444,650.57 368.381,648.633C370.318,646.696 373.664,645.112 372.783,642.822L371.903,640.533C371.903,640.533 376.129,637.716 375.953,634.722C375.953,634.722 382.821,634.722 380.884,625.39C378.947,616.057 373.664,617.994 373.664,617.994L386.871,610.246C386.871,610.246 407.297,608.837 406.417,601.265Z" style="fill:rgb(90,71,66);fill-rule:nonzero;"/>
        <path d="M337.725,617.832L375.198,588.535C375.198,588.535 378.118,584.545 384.542,583.863C390.965,583.182 404.981,581.041 405.273,581.041C405.565,581.041 408.29,579.386 410.334,582.793C412.378,586.199 411.016,588.73 407.609,591.358C404.202,593.986 361.279,627.468 361.279,627.468L333.929,619.681L337.725,617.832Z" style="fill:rgb(30,28,36);fill-rule:nonzero;"/>
        <path d="M305.043,607.78C305.043,607.78 295.182,577.141 297.823,567.456C300.464,557.771 304.69,546.149 306.98,544.212C309.269,542.275 314.023,536.64 315.784,531.534C317.545,526.427 320.715,522.905 321.067,520.969C321.419,519.032 322.476,515.509 323.708,516.391C324.941,517.271 325.293,519.383 325.293,519.383L323.004,531.181C323.004,531.181 339.028,514.629 340.26,514.102C341.493,513.573 348.185,509.522 350.474,513.573C352.763,517.623 342.902,525.018 342.021,526.603C341.141,528.188 329.695,542.451 330.224,544.388C330.752,546.325 339.908,537.521 344.839,535.76C349.77,533.999 359.454,525.018 361.039,523.962C362.624,522.905 368.963,524.314 369.668,526.427C370.372,528.54 364.913,537.873 362.976,538.929C362.976,538.929 366.146,541.395 366.498,546.853C366.85,552.312 363.152,554.073 363.152,554.073C363.152,554.073 366.322,554.954 365.617,557.947C364.913,560.941 366.322,564.815 364.209,567.984C362.096,571.154 354.876,576.437 352.587,577.493C350.298,578.55 347.48,578.726 345.191,580.31C342.902,581.895 309.445,600.385 305.043,607.78Z" style="fill:rgb(105,83,75);fill-rule:nonzero;"/>
        <path d="M312.448,550.551C312.448,548.438 308.222,505.472 299.065,500.542C289.908,495.611 267.369,499.133 267.369,499.133C267.369,499.133 262.438,506.881 253.281,501.951C244.125,497.02 207.498,475.185 207.498,475.185C207.498,475.185 130.723,476.594 116.636,531.534C102.549,586.474 88.461,678.04 105.366,698.467C105.366,698.467 123.679,716.076 241.307,680.858C241.307,680.858 237.316,678.51 245.768,677.101C254.221,675.693 274.882,670.058 274.882,670.058L260.795,618.405L231.212,630.614C231.212,630.614 236.377,624.509 226.046,627.796C215.716,631.083 213.368,633.9 210.55,636.718C210.55,636.718 206.324,638.596 200.689,638.127C195.054,637.657 189.42,635.309 186.133,635.779C182.845,636.248 181.437,638.596 178.619,638.127C175.802,637.657 172.985,640.474 170.637,640.474C168.289,640.474 173.454,640.944 169.698,635.309C165.941,629.674 164.532,628.735 165.941,627.796C167.35,626.857 170.167,614.648 170.167,614.648L284.743,596.335L311.509,552.195L312.448,550.551Z" style="fill:white;fill-rule:nonzero;"/>
        <path d="M277.934,578.021C277.934,578.021 253.281,515.334 218.768,479.411C218.768,479.411 208.306,451.665 210.668,447.715C210.668,447.715 205.902,454.161 196.933,457.224C195.879,457.584 187.072,460.041 182.845,464.267C178.619,468.494 159.25,477.65 156.784,479.763C154.319,481.876 134.949,491.385 134.245,495.259C133.541,499.133 124.384,507.233 121.566,517.446C121.566,517.446 137.767,485.75 162.067,496.316C162.067,496.316 172.632,503.359 175.098,513.925C177.563,524.49 179.676,539.634 182.141,548.086C184.607,556.538 189.537,577.317 188.48,585.417C187.424,593.517 186.367,597.039 183.902,600.913C181.437,604.787 184.607,604.435 180.732,607.604C176.859,610.774 170.519,612.535 170.519,612.535L165.237,625.566L129.313,700.11C129.313,700.11 123.21,759.276 124.619,772.424C126.027,785.572 148.097,794.494 148.097,794.494C148.097,794.494 284.273,824.547 306.813,822.669C329.352,820.791 342.5,802.008 342.5,802.008C342.5,802.008 340.622,759.746 332.17,748.476C323.717,737.206 320.9,711.38 327.004,704.336C333.109,697.293 336.23,696.589 332.004,682.971C327.778,669.353 317.613,651.275 315.735,595.396L313.856,547.499C313.856,547.499 321.839,551.725 321.369,548.908C320.9,546.09 319.491,540.925 313.387,537.638C307.282,534.351 303.056,544.212 303.995,534.351C304.935,524.49 300.239,495.846 296.952,494.907C293.665,493.968 274.412,489.742 274.412,489.742L268.778,495.846C268.778,495.846 276.291,505.237 274.412,513.69C272.534,522.142 273.943,519.326 275.351,526.838C276.76,534.351 277.934,578.021 277.934,578.021Z" style="fill:rgb(215,57,61);fill-rule:nonzero;"/>
        <path d="M333.579,402.871C333.579,402.871 331.7,398.645 301.178,402.401C270.656,406.158 246.708,406.158 242.951,405.219C239.194,404.279 221.061,405.365 221.061,405.365C221.061,405.365 219.003,384.557 221.351,372.348C223.698,360.14 225.107,334.313 269.717,328.209C269.717,328.209 267.838,325.391 273.943,325.391C280.047,325.391 280.517,327.739 280.517,327.739C280.517,327.739 316.674,334.313 327.944,374.696C327.944,374.696 333.579,395.357 333.579,402.871Z" style="fill:rgb(206,54,58);fill-rule:nonzero;"/>
        <path d="M250.832,405.74C250.832,405.74 273.473,435.741 297.421,437.15C321.369,438.558 333.109,429.636 342.5,427.758C351.892,425.88 358.205,428.35 360.553,430.698L333.579,402.302C333.579,402.302 326.535,396.297 291.787,403.34L250.832,405.74Z" style="fill:rgb(215,57,61);fill-rule:nonzero;"/>
        <path d="M342.107,427.811L359.238,434.802C359.238,434.802 364.403,430.575 356.42,428.228C348.438,425.88 342.107,427.811 342.107,427.811Z" style="fill:rgb(196,51,55);fill-rule:nonzero;"/>
        <path d="M261.319,620.635L271.884,659.727C271.884,659.727 277.519,657.086 280.512,657.966C283.506,658.847 300.234,665.01 304.813,665.186C309.391,665.362 314.85,665.714 318.724,663.777C322.598,661.84 321.718,656.909 323.126,655.853C324.535,654.796 329.818,653.564 332.811,651.803C335.805,650.042 336.685,651.275 337.918,648.457C339.15,645.64 339.502,644.055 339.502,644.055C339.502,644.055 348.307,643.351 352.005,641.766C355.703,640.181 364.683,636.307 363.803,635.955C362.922,635.603 361.514,628.911 364.683,627.327C367.853,625.742 372.783,624.509 372.607,619.931C372.431,615.352 370.318,614.296 361.866,614.472C353.414,614.648 342.672,613.767 342.672,613.767C342.672,613.767 339.326,608.837 335.981,608.133C332.635,607.428 332.635,600.209 328.409,600.209C324.183,600.209 305.693,599.68 303.756,601.265C301.819,602.85 287.38,610.246 284.034,612.183C280.688,614.12 261.142,617.994 261.319,620.635Z" style="fill:rgb(105,83,75);fill-rule:nonzero;"/>
        <path d="M242.106,407.247C242.106,407.247 237.434,397.125 229.258,398.487C221.082,399.85 219.135,408.026 219.914,417.37C220.693,426.713 224.781,431.191 226.922,433.332C229.063,435.473 233.735,434.305 234.514,432.359" style="fill:rgb(105,83,75);fill-rule:nonzero;"/>
        <path d="M238.991,408.902C238.802,407.393 231.886,402.575 230.329,402.478C228.771,402.38 225.851,401.991 224.489,405.69C223.126,409.388 221.179,412.114 221.958,414.936C222.737,417.759 222.931,420.192 224.099,421.555C225.267,422.917 228.966,423.112 227.117,421.068C225.267,419.024 223.71,415.618 223.71,415.618C223.71,415.618 225.365,407.442 226.241,406.468C227.117,405.495 229.258,404.424 231.789,405.884C234.319,407.344 236.558,409.194 233.249,408.999C229.939,408.804 229.258,407.834 227.603,412.504C225.949,417.175 226.727,417.954 228.382,418.732C230.037,419.511 230.329,421.486 230.913,422.591C231.497,423.696 235.876,428.855 235,425.448C234.125,422.041 232.47,422.139 232.957,420.289C233.443,418.44 235.487,418.292 235.584,416.42C235.682,414.547 234.611,412.795 235.487,412.016C236.363,411.238 239.38,412.016 238.991,408.902Z" style="fill:rgb(97,77,70);fill-rule:nonzero;"/>
        <path d="M257.868,442.87C257.868,442.87 254.365,462.726 253.975,463.505C253.586,464.283 250.342,468.177 250.342,468.177C250.342,468.177 244.502,467.657 243.464,467.268C242.425,466.879 239.44,460.65 237.753,461.169C236.066,461.688 236.585,469.085 237.753,475.444C238.921,481.803 261.502,498.284 264.357,498.804C267.212,499.323 275.907,500.491 281.488,498.804C287.068,497.116 295.633,493.742 297.191,491.536C298.748,489.33 311.206,475.833 311.206,475.833L312.244,471.81L313.413,469.734C313.413,469.734 311.596,466.749 312.374,465.192C313.153,463.634 319.642,449.489 320.031,447.932C320.42,446.374 321.199,442.87 320.031,442.87C318.863,442.87 320.42,444.428 319.252,445.466C318.084,446.504 311.725,447.283 311.206,448.321C310.687,449.359 314.451,452.733 302.252,450.397C290.053,448.061 258.018,442.026 257.868,442.87Z" style="fill:rgb(69,141,203);fill-rule:nonzero;"/>
        <path d="M116.636,531.534C102.549,586.474 88.461,678.04 105.366,698.467C105.366,698.467 123.679,716.076 241.307,680.858C241.307,680.858 237.316,678.51 245.768,677.101C254.221,675.693 274.882,670.058 274.882,670.058L260.795,618.405L231.212,630.614C231.212,630.614 236.377,624.509 226.046,627.796C215.716,631.083 213.368,633.9 210.55,636.718C210.55,636.718 206.324,638.596 200.689,638.127C195.054,637.657 189.42,635.309 186.133,635.779C182.845,636.248 181.437,638.596 178.619,638.127C175.802,637.657 172.985,640.474 170.637,640.474C168.289,640.474 173.454,640.944 169.698,635.309C165.941,629.674 164.532,628.735 165.941,627.796C167.35,626.857 170.167,614.648 170.167,614.648" style="fill:white;fill-rule:nonzero;"/>
        <path d="M187.137,727.582L187.137,737.964C187.137,737.964 214.131,739.261 219.581,740.559C225.032,741.857 254.88,742.376 264.224,742.636C273.568,742.895 294.851,745.75 295.37,743.933C295.889,742.116 296.408,734.849 295.37,733.551C294.332,732.254 278.759,733.032 272.011,732.513C265.262,731.994 249.17,731.734 233.338,731.215C217.505,730.696 187.137,727.582 187.137,727.582Z" style="fill:rgb(49,51,58);fill-rule:nonzero;"/>
        <path d="M291.737,750.422C291.737,750.422 289.66,735.481 286.545,735.684C283.431,735.887 282.912,749.643 284.469,751.72C286.026,753.796 290.719,756.324 291.737,750.422Z" style="fill:rgb(30,28,36);fill-rule:nonzero;"/>
        <path d="M194.665,541.484C194.665,541.484 201.67,599.641 205.044,604.053C208.418,608.466 209.199,622.464 207.642,621.425C206.085,620.387 202.191,610.005 202.711,614.677C203.23,619.349 201.906,622.983 201.4,623.242C200.894,623.502 184.542,532.399 185.84,533.697C187.137,534.995 186.878,531.88 189.214,538.11C191.55,544.339 194.665,541.484 194.665,541.484Z" style="fill:rgb(187,48,52);fill-rule:nonzero;"/>
        <path d="M270.194,611.303C270.194,611.303 251.506,617.792 246.315,619.089C241.124,620.387 221.917,622.204 220.879,622.204C219.841,622.204 207.642,621.425 207.642,621.425C207.642,621.425 202.415,602.526 201.784,599.185C201.153,595.844 194.665,541.484 194.665,541.484L221.658,543.56L241.554,542.782L270.194,611.303Z" style="fill:rgb(208,56,59);fill-rule:nonzero;"/>
        <path d="M188.176,532.399C188.176,532.399 185.321,537.071 189.214,538.11C193.107,539.148 191.81,537.331 194.665,540.186C197.52,543.041 195.703,543.82 198.298,547.713C200.894,551.606 198.298,554.628 198.298,554.628C198.298,554.628 255.399,552.385 255.399,551.606C255.399,550.828 255.399,541.224 249.949,538.369C244.498,535.514 242.681,532.399 242.681,532.399L188.176,532.399Z" style="fill:rgb(196,51,55);fill-rule:nonzero;"/>
        <path d="M312.448,600.124C312.448,600.124 313.228,599.215 309.854,594.414C306.479,589.612 303.494,582.604 303.494,582.604C303.494,582.604 302.067,561.655 300.12,556.427C298.174,551.198 293.502,539.129 293.502,539.129C293.502,539.129 293.632,535.495 291.555,535.236C289.479,534.976 286.753,534.198 286.494,536.015C286.234,537.832 291.685,554.183 292.463,558.206C293.242,562.229 301.154,597.658 301.154,597.658L304.624,600.124L312.448,600.124Z" style="fill:rgb(196,51,55);fill-rule:nonzero;"/>
        <path d="M284.158,526.801C284.46,528.986 285.456,533.679 285.975,534.847C286.494,536.015 291.491,537.697 294.378,541.398C297.265,545.099 298.303,547.694 302.326,550.03C306.349,552.366 308.037,553.015 310.373,552.496C312.708,551.977 319.457,549.641 321.403,550.29C323.35,550.939 324.907,550.16 321.403,545.878C317.899,541.595 314.785,536.404 309.594,534.847C304.403,533.289 303.823,528.228 303.823,528.228C303.823,528.228 283.705,523.525 284.158,526.801Z" style="fill:rgb(196,51,55);fill-rule:nonzero;"/>
        <path d="M124.52,571.034C124.52,571.034 124.52,584.855 123.547,585.439C122.573,586.023 116.928,585.05 114.592,587.386C112.256,589.721 112.451,601.596 112.451,601.596C112.451,601.596 122.768,599.455 123.157,601.596C123.547,603.737 122.573,616.196 122.573,616.196C122.573,616.196 132.89,616.78 134.448,615.028C134.448,615.028 135.81,601.985 136.394,601.401C136.978,600.817 140.288,599.065 142.818,599.649C142.818,599.649 145.738,583.687 144.959,583.492C144.181,583.298 143.013,581.935 141.65,583.103C140.288,584.271 137.173,585.05 137.173,585.05C137.173,585.05 139.12,571.618 138.146,571.034C137.173,570.45 124.52,571.034 124.52,571.034Z" style="fill:rgb(196,51,55);fill-rule:nonzero;"/>
        <path d="M299.976,365.989C299.976,365.989 313.213,362.355 319.313,364.951C319.313,364.951 326.969,381.951 327.099,392.982C327.099,392.982 312.954,392.593 307.503,393.761C307.503,393.761 306.465,394.02 305.816,391.295C305.167,388.57 299.306,366.162 299.976,365.989Z" style="fill:white;fill-rule:nonzero;"/>
        <path d="M312.435,374.294L310.488,367.546C310.488,367.546 315.679,366.767 316.198,367.546C316.717,368.325 317.755,374.294 317.755,374.294C317.755,374.294 321.649,374.294 322.038,375.073C322.427,375.852 324.244,382.081 324.244,382.081L319.962,382.081C319.962,382.081 321.649,388.699 321.13,388.699C320.61,388.699 315.679,389.089 315.419,388.699C315.16,388.31 314.771,381.692 314.122,381.692C313.473,381.692 308.282,382.47 307.892,382.47C307.503,382.47 306.076,375.203 306.076,375.203C306.076,375.203 311.396,374.165 312.435,374.294Z" style="fill:rgb(196,51,55);fill-rule:nonzero;"/>
        <path d="M396.113,728.885C396.113,728.885 391.052,757.223 392.609,772.059C392.609,772.059 372.753,775.604 370.807,762.367C368.86,749.13 370.807,726.416 370.807,726.416L398.838,723.824L396.113,728.885Z" style="fill:rgb(36,94,140);fill-rule:nonzero;"/>
        <path d="M405.273,719.363C404.351,727.291 394.253,732.631 382.72,731.289C371.187,729.948 362.585,722.433 363.507,714.505C364.429,706.576 374.526,701.236 386.06,702.578C397.593,703.919 406.195,711.434 405.273,719.363Z" style="fill:rgb(230,129,52);fill-rule:nonzero;"/>
        <path d="M254.181,462.726C254.181,462.726 295.492,473.656 308.535,471.709C308.535,471.709 308.535,472.877 307.756,472.877C306.978,472.877 294.324,474.045 292.767,472.877C291.458,471.895 301.157,476.555 304.279,478.064C304.87,478.35 305.226,478.523 305.226,478.523C305.226,478.523 284.202,471.125 281.769,471.028C279.335,470.931 282.645,474.824 286.538,475.992C290.431,477.16 300.165,482.026 300.165,482.026L299.386,483.389C299.386,483.389 268.629,468.595 265.904,468.4C263.178,468.205 255.781,466.433 255.781,466.433L253.251,469.957L290.341,489.638L291.405,490.202L266.293,478.328C266.293,478.328 271.16,491.76 271.354,492.928C271.549,494.096 271.938,497.6 266.877,492.928C261.816,488.256 248.384,476.965 247.021,471.904L243.464,467.268C243.464,467.268 250.573,469.116 254.181,462.726Z" style="fill:rgb(66,133,192);fill-rule:nonzero;"/>
        <path d="M310.871,450.88C310.871,450.88 311.455,464.702 310.871,468.205C310.287,471.709 310.676,472.099 312.039,468.205C313.402,464.312 310.871,450.88 310.871,450.88Z" style="fill:rgb(66,133,192);fill-rule:nonzero;"/>
        <path d="M242.106,407.247C240.776,404.826 239.06,402.586 236.895,400.91C235.808,400.085 234.605,399.424 233.319,399.021C232.02,398.642 230.662,398.614 229.338,398.8C228.019,399.082 226.726,399.49 225.584,400.188C224.457,400.9 223.493,401.845 222.733,402.945C221.24,405.185 220.597,407.905 220.324,410.606C219.879,416.031 220.356,421.695 222.589,426.695C223.7,429.184 225.311,431.476 227.275,433.362C228.263,434.23 229.723,434.471 231.059,434.289C231.734,434.2 232.401,434.015 233.015,433.713C233.622,433.414 234.21,432.99 234.514,432.359C234.25,433.009 233.676,433.483 233.074,433.825C232.46,434.164 231.784,434.384 231.092,434.508C229.725,434.752 228.177,434.599 227.01,433.675C224.92,431.787 223.229,429.502 222.007,426.967C220.769,424.438 220.077,421.676 219.698,418.906C219.362,416.127 219.244,413.327 219.494,410.523C219.802,407.742 220.485,404.907 222.107,402.517C222.931,401.343 223.985,400.327 225.21,399.571C226.447,398.82 227.84,398.421 229.235,398.169C230.658,398.005 232.111,398.08 233.475,398.519C234.823,398.984 236.058,399.705 237.149,400.592C239.284,402.421 240.939,404.736 242.106,407.247Z" style="fill:rgb(94,75,68);fill-rule:nonzero;"/>
        <path d="M258.653,448.163C258.652,448.161 254.791,437.647 250.733,427C248.704,421.676 246.626,416.319 244.955,412.22C244.119,410.17 243.385,408.435 242.805,407.167C242.515,406.532 242.264,406.015 242.049,405.621C241.941,405.423 241.844,405.256 241.744,405.11C241.635,404.962 241.567,404.84 241.332,404.67L240.405,406.06L240.632,405.718L240.319,405.989L240.405,406.06L240.632,405.718L240.319,405.989C240.324,405.994 240.383,406.074 240.454,406.194C240.742,406.673 241.255,407.754 241.884,409.21C244.103,414.325 247.909,424.221 251.153,432.821C252.775,437.122 254.258,441.102 255.335,444.006C255.874,445.458 256.312,446.641 256.614,447.462C256.917,448.282 257.084,448.737 257.084,448.739L258.653,448.163Z" style="fill:white;fill-rule:nonzero;"/>
        <path d="M226.967,434.827C226.968,434.828 229.175,441.513 231.529,448.381C232.706,451.815 233.92,455.294 234.915,458.011C235.413,459.37 235.855,460.537 236.215,461.421C236.395,461.863 236.554,462.234 236.692,462.53C236.762,462.678 236.827,462.807 236.89,462.923C236.956,463.04 237.013,463.138 237.107,463.255L238.4,462.197L238.279,462.296L238.407,462.206L238.4,462.197L238.279,462.296L238.407,462.206C238.392,462.19 238.283,461.996 238.162,461.727C237.686,460.691 236.829,458.42 235.836,455.647C234.342,451.48 232.521,446.142 231.074,441.848C230.35,439.7 229.72,437.814 229.271,436.464C228.822,435.115 228.555,434.305 228.554,434.303L226.968,434.827L226.967,434.827Z" style="fill:white;fill-rule:nonzero;"/>
        <path d="M371.274,396.647C372.826,395.596 374.705,395.074 376.59,394.976C377.535,394.93 378.491,395.016 379.41,395.247C380.335,395.446 381.204,395.866 381.98,396.373C381.061,396.184 380.193,395.96 379.295,395.888C378.406,395.799 377.517,395.753 376.627,395.81C375.737,395.842 374.848,395.948 373.958,396.089C373.07,396.245 372.176,396.415 371.274,396.647Z" style="fill:rgb(31,9,11);fill-rule:nonzero;"/>
        <path d="M335.701,403.577C337.253,402.526 339.132,402.004 341.017,401.906C341.962,401.86 342.918,401.946 343.836,402.176C344.762,402.376 345.631,402.796 346.407,403.303C345.487,403.114 344.619,402.89 343.722,402.818C342.833,402.728 341.944,402.682 341.054,402.74C340.164,402.772 339.275,402.877 338.384,403.018C337.497,403.174 336.603,403.344 335.701,403.577Z" style="fill:rgb(31,9,11);fill-rule:nonzero;"/>
    </g>
</svg>
