<?xml version="1.0" encoding="UTF-8" standalone="no"?>
<!DOCTYPE svg PUBLIC "-//W3C//DTD SVG 1.1//EN" "http://www.w3.org/Graphics/SVG/1.1/DTD/svg11.dtd">
<svg width="100%" height="100%" viewBox="0 0 2484 3509" version="1.1" xmlns="http://www.w3.org/2000/svg" xmlns:xlink="http://www.w3.org/1999/xlink" xml:space="preserve" xmlns:serif="http://www.serif.com/" style="fill-rule:evenodd;clip-rule:evenodd;stroke-linejoin:round;stroke-miterlimit:2;">
    <g transform="matrix(4.16667,0,0,4.16667,0,0)">
        <path d="M472.194,843.891C472.194,843.891 466.91,783.12 464.268,776.955L414.947,776.515C414.947,776.515 412.745,796.772 415.387,807.781C418.029,818.79 415.827,844.772 415.827,844.772L472.194,843.891Z" style="fill:rgb(82,53,117);fill-rule:nonzero;"/>
        <path d="M443.13,701.653L473.515,761.542C473.515,761.542 471.155,772.293 464.816,778.822C462.941,780.754 460.717,782.316 458.102,783.12C446.653,786.643 415.827,778.276 415.827,778.276C415.827,778.276 409.662,775.634 418.91,757.579C428.158,739.524 443.13,701.653 443.13,701.653Z" style="fill:rgb(215,57,61);fill-rule:nonzero;"/>
        <path d="M225.589,641.763L266.103,636.919C266.103,636.919 352.855,632.955 365.185,637.359C377.515,641.763 397.865,649.133 404.818,651.451C406.139,651.891 442.69,662.9 446.653,665.543C450.616,668.185 445.772,679.634 445.332,687.561C444.891,695.487 442.249,712.221 436.525,723.671C430.8,735.12 418.469,769.029 417.589,777.836C416.708,786.643 416.708,845.212 416.708,845.212L181.552,843.45L225.589,641.763Z" style="fill:rgb(26,57,99);fill-rule:nonzero;"/>
        <path d="M275.791,843.45C275.791,843.45 270.947,824.515 270.506,819.671C270.066,814.827 273.149,749.652 274.47,731.597C274.47,731.597 261.259,654.974 259.937,643.965C258.617,632.955 252.892,606.974 256.415,592.442C256.415,592.442 248.488,552.368 262.58,524.625C276.672,496.882 315.864,480.589 348.011,508.772C380.158,536.956 371.35,623.267 367.827,642.644C364.304,662.02 344.928,756.258 345.369,769.909L339.644,842.57L275.791,843.45Z" style="fill:rgb(215,57,61);fill-rule:nonzero;"/>
        <path d="M198.286,842.57L52.525,843.45L51.644,641.322C51.644,641.322 49.442,630.754 85.552,658.497C121.663,686.24 198.286,842.57 198.286,842.57Z" style="fill:rgb(127,135,194);fill-rule:nonzero;"/>
        <path d="M107.241,818.57C106.84,818.461 106.447,818.23 106.018,818.029C100.183,815.29 90.984,808.879 98.983,807.34C107.571,805.689 123.094,810.973 134.654,811.634C146.213,812.295 168.011,813.285 170.653,816.258C173.296,819.23 177.589,830.129 169.993,828.808C162.397,827.487 151.498,827.487 144.892,823.854C138.287,820.221 114.507,820.551 107.241,818.57Z" style="fill:rgb(68,37,99);fill-rule:nonzero;"/>
        <path d="M60.892,843.45L1.883,843.891C1.883,843.891 1.883,733.799 7.607,681.396C13.332,628.992 83.791,633.396 83.791,633.396C83.791,633.396 49.662,679.414 53.626,719.047C57.589,758.68 62.213,770.35 60.011,785.322L60.892,843.45Z" style="fill:rgb(134,65,108);fill-rule:nonzero;"/>
        <path d="M174.507,830.239C174.507,830.239 172.745,816.148 152.488,813.065C132.232,809.983 121.663,813.506 115.057,809.983C108.452,806.46 102.287,809.542 98.323,807.781C94.36,806.019 36.927,744.425 49.883,724.992C50.763,723.671 47.02,695.708 65.956,663.121C65.956,663.121 63.094,635.157 67.057,631.194C71.02,627.231 73.222,640.001 77.626,617.543C82.029,595.084 74.543,549.726 93.038,524.625C93.038,524.625 93.919,492.919 105.369,481.47C116.819,470.02 111.534,460.772 147.204,460.332C182.874,459.892 210.834,480.904 210.176,491.598C209.516,502.332 208.855,544.882 208.855,544.882C208.855,544.882 221.626,612.699 221.626,634.277C221.626,634.277 233.956,633.396 233.075,644.845C232.195,656.295 226.03,674.35 226.03,674.35C226.03,674.35 230.874,684.919 221.185,717.506L213.259,755.818C213.259,755.818 200.048,784.441 199.608,806.019C199.608,806.019 178.03,821.432 174.507,830.239Z" style="fill:rgb(82,53,117);fill-rule:nonzero;"/>
        <path d="M98.708,496.772C98.708,496.772 147.479,479.873 153.644,480.974C159.809,482.075 183.589,484.497 186.231,487.8C188.874,491.103 202.525,501.671 207.369,523.249C207.369,523.249 206.708,506.956 205.608,505.635C204.507,504.314 208.14,529.635 208.36,528.313C208.58,526.992 212.103,495.836 208.36,491.653C204.617,487.47 193.057,482.295 185.791,479.433C178.525,476.57 160.03,472.387 147.699,472.167C135.369,471.947 116.048,475.855 108.121,479.598C100.195,483.341 97.827,495.231 98.708,496.772Z" style="fill:rgb(54,19,82);fill-rule:nonzero;"/>
        <path d="M133.222,634.827C132.562,626.57 124.635,618.644 121.002,612.699C117.369,606.754 111.094,600.478 110.433,592.552C109.773,584.625 101.186,554.24 101.186,554.24L96.231,544.002C96.231,544.002 92.598,561.176 91.938,579.341C91.277,597.506 86.983,622.607 84.341,627.561C81.699,632.515 76.084,638.79 77.736,645.396C79.387,652.001 83.681,661.579 86.653,651.341C89.626,641.102 90.286,629.543 99.534,633.176C108.782,636.809 118.36,660.588 118.69,652.332C119.021,644.075 109.443,630.203 106.8,620.295C104.158,610.387 103.828,590.57 108.782,605.433C113.736,620.295 127.277,649.689 131.571,646.717C135.865,643.744 133.222,634.827 133.222,634.827Z" style="fill:rgb(92,64,132);fill-rule:nonzero;"/>
        <path d="M186.066,630.533C189.554,622.686 180.782,618.313 186.397,614.02C192.011,609.726 193.663,603.451 194.323,601.469C194.984,599.488 202.91,585.286 202.91,585.286C202.91,585.286 202.58,597.836 200.598,608.405C198.617,618.974 193.332,631.855 192.342,638.46C191.351,645.066 200.929,661.91 203.241,667.194C205.552,672.478 199.608,668.515 195.314,658.277C191.02,648.038 181.442,627.561 183.424,637.139C185.406,646.717 202.58,696.258 200.598,696.588C198.617,696.919 182.103,637.139 181.112,637.139C180.121,637.139 177.479,638.13 178.47,644.075C179.461,650.02 185.075,676.772 185.736,681.396C186.397,686.02 178.47,686.35 178.8,695.928C179.13,705.506 176.488,734.57 175.828,737.873C175.167,741.175 161.956,808.221 160.965,807.561C159.975,806.9 159.314,798.643 161.956,790.386C164.598,782.129 173.186,740.515 173.846,733.579C174.507,726.643 173.846,708.809 175.167,693.946C176.488,679.084 175.498,624.589 176.158,623.598C176.819,622.607 183.424,636.478 186.066,630.533Z" style="fill:rgb(92,64,132);fill-rule:nonzero;"/>
        <path d="M216.452,686.68C225.967,679.543 208.525,639.451 210.176,625.249C211.828,611.047 211.497,567.451 210.176,567.451C208.855,567.451 208.855,577.029 208.855,582.974C208.855,588.919 203.241,622.607 203.901,633.506C204.562,644.405 215.13,687.671 216.452,686.68Z" style="fill:rgb(92,64,132);fill-rule:nonzero;"/>
        <path d="M75.754,662.57C81.385,661.319 89.956,694.937 95.24,706.827C100.525,718.717 113.076,757.359 112.745,766.276C112.415,775.194 122.654,801.946 121.333,803.928C120.011,805.909 149.076,807.891 151.387,810.203C153.699,812.515 130.58,808.551 128.599,808.551C126.617,808.551 104.819,805.249 101.516,804.588C98.213,803.928 92.268,800.625 99.534,800.295C106.8,799.964 119.021,804.918 117.369,799.634C115.718,794.35 105.81,776.515 104.158,761.322C102.507,746.13 103.498,742.827 99.864,732.588C96.231,722.35 72.782,663.231 75.754,662.57Z" style="fill:rgb(92,64,132);fill-rule:nonzero;"/>
        <path d="M67.717,635.377C67.717,635.377 71.681,638.46 75.864,629.873C80.048,621.286 79.167,619.524 73.002,618.423C66.837,617.322 57.369,615.341 54.066,616.222C50.763,617.102 44.818,617.102 44.158,617.102C43.497,617.102 39.534,624.148 38.433,624.148C37.332,624.148 31.828,623.928 30.947,625.689C30.066,627.451 28.525,630.093 27.424,630.754C26.323,631.414 23.241,631.855 22.8,633.616C22.36,635.377 18.617,644.405 18.617,644.405C18.617,644.405 8.488,645.066 9.369,650.35C10.25,655.634 21.259,663.781 25.883,656.515C25.883,656.515 28.085,653.212 22.8,651.231L26.763,647.708C26.763,647.708 31.387,653.433 35.13,655.855C38.873,658.277 43.497,665.543 49.662,661.139C55.828,656.735 44.158,650.35 44.158,650.35L37.772,643.524C37.772,643.524 48.341,651.01 57.589,658.497C66.837,665.983 69.259,666.643 71.461,663.561C73.662,660.478 71.461,658.056 66.176,652.772C60.892,647.488 56.708,643.524 56.708,643.524C56.708,643.524 71.901,652.992 72.561,654.313C73.222,655.634 77.185,661.579 80.488,658.717C83.791,655.855 78.947,649.689 76.084,646.387C73.222,643.084 67.717,635.377 67.717,635.377Z" style="fill:rgb(203,127,139);fill-rule:nonzero;"/>
        <path d="M232.635,646.166C232.635,646.166 256.855,648.809 263.02,656.735C269.185,664.662 274.91,671.708 271.828,706.937C268.745,742.166 261.699,806.46 259.937,812.184C258.176,817.909 241.002,842.129 237.479,843.891C233.956,845.652 157.332,843.01 157.332,843.01C157.332,843.01 190.36,807.781 199.608,806.019C199.608,806.019 200.048,780.918 213.259,755.818C213.259,755.818 221.185,711.341 223.387,708.258C225.589,705.175 226.03,678.754 226.03,674.35C226.03,669.946 232.635,646.166 232.635,646.166Z" style="fill:rgb(134,65,108);fill-rule:nonzero;"/>
        <path d="M196.057,590.075L179.075,608.075L177.975,612.038C177.975,612.038 182.819,611.818 183.479,611.378C184.14,610.937 196.057,590.075 196.057,590.075Z" style="fill:rgb(210,212,215);fill-rule:nonzero;"/>
        <path d="M183.094,434.35C183.094,434.35 178.47,432.038 177.479,431.378C176.488,430.717 172.525,420.809 165.92,419.818C159.314,418.827 152.708,427.415 150.066,428.075C147.424,428.736 106.47,430.717 91.607,483.892C91.607,483.892 87.266,514.615 93.259,512.516C95.256,511.816 101.919,480.051 104.709,479.048C120.011,473.543 136.363,474.434 164.929,479.598C188.974,483.945 201.561,488.636 208.855,493.58C211.31,495.243 207.349,533.667 209.241,534.258C219.809,537.561 223.828,510.313 223.828,510.313L221.075,498.093C221.075,498.093 224.378,480.589 216.121,464.736C207.864,448.882 193.993,436.993 183.094,434.35Z" style="fill:white;fill-rule:nonzero;"/>
        <path d="M208.855,493.58C211.31,495.243 207.349,533.667 209.241,534.258C219.809,537.561 223.828,510.313 223.828,510.313L221.075,498.093" style="fill:rgb(120,124,130);fill-rule:nonzero;"/>
        <path d="M91.607,483.892C91.607,483.892 87.266,514.615 93.259,512.516C95.256,511.816 101.919,480.051 104.709,479.048" style="fill:rgb(120,124,130);fill-rule:nonzero;"/>
        <path d="M93.589,517.249C93.589,517.249 81.038,514.607 85.662,494.46C90.286,474.314 121.663,472.332 140.488,474.974C159.314,477.616 208.525,488.185 210.837,489.837C213.149,491.488 227.681,499.745 225.369,513.287C223.057,526.827 218.653,536.02 208.745,535.359L208.745,527.102C208.745,527.102 220.745,526.167 217.112,509.653C213.479,493.139 202.25,495.781 200.598,494.791C198.947,493.8 198.947,488.846 195.974,487.194C193.002,485.543 138.837,472.992 126.287,476.295C113.736,479.598 117.369,484.222 110.764,483.892C104.158,483.561 90.947,493.8 91.938,502.387C92.928,510.974 94.69,510.864 94.69,510.864L93.589,517.249Z" style="fill:rgb(207,223,232);fill-rule:nonzero;"/>
        <path d="M91.497,506.35C91.497,506.35 93.038,516.92 99.204,531.671C105.369,546.424 117.259,588.478 117.259,588.478L133.332,614.24C133.332,614.24 127.387,615.561 123.424,604.772C119.461,593.983 120.342,596.185 116.599,590.46C112.855,584.735 105.369,566.46 102.727,560.075C100.085,553.69 87.094,516.699 86.653,511.855C86.213,507.011 87.314,499.525 89.295,500.185C91.277,500.846 91.497,506.35 91.497,506.35Z" style="fill:rgb(210,212,215);fill-rule:nonzero;"/>
        <path d="M138.507,608.075C138.507,608.075 125.626,608.405 126.121,612.864C126.617,617.322 132.727,617.818 132.727,617.818C132.727,617.818 143.626,629.212 158.984,626.24C174.342,623.267 185.406,614.185 185.406,614.185C185.406,614.185 191.681,612.203 190.36,609.561C189.039,606.919 144.947,606.423 138.507,608.075Z" style="fill:rgb(210,212,215);fill-rule:nonzero;"/>
        <path d="M220.525,518.24C220.525,518.24 215.901,520.003 217.002,525.506C218.103,531.011 220.305,533.653 215.901,543.561C211.497,553.469 208.415,559.635 208.415,559.635L206.433,573.946C206.433,573.946 222.507,534.754 223.387,528.809C224.268,522.865 221.846,516.699 220.525,518.24Z" style="fill:rgb(210,212,215);fill-rule:nonzero;"/>
        <path d="M287.956,522.204C287.956,522.204 249.375,522.942 259.221,579.341C268.305,631.359 285.809,643.414 302.323,644.075C318.837,644.735 341.295,634.497 336.837,591.231C331.508,539.525 287.956,522.204 287.956,522.204Z" style="fill:rgb(215,134,146);fill-rule:nonzero;"/>
        <path d="M320.488,572.515C320.598,573.506 320.048,575.598 317.185,575.598C314.323,575.598 305.956,573.286 305.626,574.937C305.295,576.589 310.91,579.341 315.314,579.891C319.717,580.442 324.341,581.102 324.341,581.102C324.341,581.102 328.745,592.001 328.965,594.423C329.185,596.845 326.543,600.589 325.112,600.809C323.681,601.029 319.057,596.405 316.525,594.974C313.993,593.543 308.708,588.589 309.699,591.451C310.69,594.313 322.25,599.928 323.35,602.46C324.451,604.992 320.928,609.726 320.598,610.827C320.268,611.928 324.561,609.066 326.213,607.194C327.864,605.323 328.194,608.956 327.754,612.368C327.314,615.781 323.571,626.57 321.809,629.102C320.048,631.634 313.332,638.57 312.231,639.781C311.13,640.992 322.69,637.249 327.534,628.111C332.378,618.974 338.763,615.121 337.222,604.001C335.681,592.882 328.084,561.286 327.314,559.855C326.543,558.424 316.745,557.433 313.442,558.203C310.139,558.974 299.461,561.616 300.231,563.047C301.002,564.479 313.222,558.864 316.525,560.405C319.828,561.946 323.02,562.387 322.91,563.928C322.8,565.469 320.488,572.515 320.488,572.515Z" style="fill:rgb(198,124,136);fill-rule:nonzero;"/>
        <path d="M286.029,595.194C286.029,595.194 289.112,592.222 290.213,589.8C291.314,587.378 293.075,573.836 291.974,569.873C290.873,565.91 284.268,564.258 283.497,562.167C282.727,560.075 275.02,560.956 272.048,559.524C269.075,558.093 276.394,553.228 275.24,551.818C271.277,546.974 265.662,556.112 265.442,560.515C265.222,564.919 264.341,572.185 263.24,576.258C262.14,580.332 263.268,597.506 263.268,597.506C263.818,596.405 265.084,583.552 269.791,581.157C272.244,579.909 273.149,581.433 279.974,580.992C286.8,580.552 284.928,578.02 284.928,577.469C284.928,576.919 280.084,578.46 276.341,578.68C272.598,578.901 268.525,575.818 267.314,574.937C266.103,574.057 265.222,571.524 265.222,570.974C265.222,570.423 273.039,562.937 274.14,562.387C275.24,561.836 282.066,563.047 283.167,563.488C284.268,563.928 286.029,575.818 288.121,574.937C290.213,574.057 288.121,580.222 287.24,583.524C287.24,583.524 284.928,594.038 286.029,595.194Z" style="fill:rgb(198,124,136);fill-rule:nonzero;"/>
        <path d="M267.479,561.176C267.479,561.176 278.048,556.442 279.369,553.579C280.69,550.717 280.8,547.194 280.69,546.203C280.58,545.213 283.442,540.368 287.626,540.809C291.809,541.249 296.433,539.598 296.873,539.157C297.314,538.717 307.442,542.901 308.873,545.543C310.305,548.185 320.763,557.102 320.763,557.102C320.763,557.102 316.58,540.809 303.699,532.772C290.818,524.735 289.057,520.662 284.103,520.553C279.149,520.442 271.552,527.818 269.791,532.002C268.029,536.185 263.846,544.992 264.617,551.047C265.387,557.102 267.479,561.176 267.479,561.176Z" style="fill:rgb(196,122,135);fill-rule:nonzero;"/>
        <path d="M8.818,715.744C6.331,717.5 7.497,727.304 11.461,743.157C15.424,759.01 21.369,773.873 29.295,787.414C37.222,800.955 53.956,844.221 55.277,844.221C56.598,844.221 64.855,842.9 64.855,842.9C64.855,839.928 64.965,786.753 62.984,778.827C61.002,770.9 57.039,752.074 56.378,749.102C55.717,746.13 47.681,734.24 47.681,734.24C47.681,734.24 50.103,744.478 51.424,751.744C52.745,759.01 54.396,770.9 54.396,770.9C54.396,770.9 42.507,738.864 32.598,724.662C22.69,710.46 15.094,700.221 13.773,694.937C12.451,689.653 8.488,688.331 10.14,693.286C11.791,698.24 33.589,731.267 36.892,738.864C40.195,746.46 52.745,771.891 53.736,776.185C54.727,780.478 47.13,761.322 45.479,764.295C43.828,767.267 52.415,797.322 52.415,800.955C52.415,804.588 57.699,824.074 54.396,821.762C51.094,819.451 38.213,798.643 35.24,790.717C32.268,782.79 14.433,711.781 8.818,715.744Z" style="fill:rgb(125,60,101);fill-rule:nonzero;"/>
        <path d="M187.057,814.331C187.057,814.331 203.351,802.276 211.938,800.625C220.525,798.973 243.644,800.625 243.644,800.625C243.644,800.625 252.892,795.671 245.956,796.331C239.02,796.992 224.488,795.01 217.552,796.001C210.617,796.992 207.974,801.285 205.332,800.295C202.69,799.304 197.736,788.405 208.635,781.469C219.534,774.533 227.791,762.643 225.479,759.671C223.167,756.698 210.617,769.579 208.635,772.882C206.653,776.185 212.598,759.341 219.204,752.405C225.809,745.469 244.965,729.616 250.91,725.322C256.855,721.029 246.947,723.671 239.351,729.946C231.754,736.221 218.874,746.46 218.874,746.46C218.874,746.46 223.828,733.249 231.424,721.359C239.02,709.469 257.846,690.974 250.25,693.946C242.653,696.919 233.406,703.524 227.791,713.432C222.176,723.341 214.25,741.836 213.259,747.12C212.268,752.405 208.635,760.001 205.663,766.937C202.69,773.873 197.736,792.698 196.415,797.322C195.094,801.946 187.057,814.331 187.057,814.331Z" style="fill:rgb(125,60,101);fill-rule:nonzero;"/>
        <rect x="161.626" y="439.635" width="3.523" height="6.055" style="fill:rgb(215,57,61);fill-rule:nonzero;"/>
        <rect x="158.213" y="441.726" width="10.129" height="2.312" style="fill:rgb(215,57,61);fill-rule:nonzero;"/>
        <path d="M151.387,430.387C151.387,430.387 133.332,440.075 128.709,446.02C124.085,451.965 121.443,470.46 119.241,470.681C117.039,470.901 115.938,464.295 113.736,464.295C111.534,464.295 99.424,464.956 98.983,467.598L98.543,470.24L96.782,479.268L93.259,480.148C93.259,480.148 94.8,456.589 119.241,439.855C119.241,439.855 129.589,431.488 149.186,428.626C149.186,428.626 161.076,421.36 163.498,421.139C163.498,421.139 155.131,429.506 151.387,430.387Z" style="fill:rgb(230,240,246);fill-rule:nonzero;"/>
        <path d="M283.167,522.865C280.429,523.548 272.268,529.139 272.598,532.442C272.928,535.745 276.562,535.414 271.607,540.368C266.653,545.323 267.314,549.616 267.644,551.268C267.974,552.919 266.984,572.735 265.662,577.359C264.341,581.983 262.36,597.176 264.011,601.139C265.662,605.102 268.305,611.378 268.965,614.68C269.626,617.983 277.552,631.194 277.552,631.194C277.552,631.194 262.36,610.717 261.699,607.745C261.039,604.772 271.607,636.478 271.938,643.744C272.268,651.01 280.855,701.542 281.516,703.194C282.176,704.845 278.543,709.799 275.901,698.24C273.259,686.68 272.598,677.102 269.626,670.497C266.653,663.891 264.672,648.699 263.681,642.754C262.69,636.809 257.406,594.864 258.396,592.222C259.387,589.579 246.176,551.928 266.653,527.818C266.653,527.818 276.892,515.598 289.772,517.249C302.653,518.901 319.497,538.717 322.47,545.983C325.442,553.249 338.323,571.745 337.662,581.323C337.002,590.901 340.635,609.066 338.323,613.359C336.011,617.653 337.993,624.589 342.286,614.68C346.58,604.772 351.204,589.249 350.873,580.662C350.543,572.075 348.231,544.002 348.231,542.35C348.231,540.699 352.194,560.846 351.864,568.442C351.864,568.442 356.818,548.295 354.837,540.038C352.855,531.781 348.892,522.534 350.213,522.534C351.534,522.534 358.8,540.038 358.8,552.589C358.8,565.139 355.167,585.286 355.167,585.286C355.167,585.286 364.745,557.873 364.084,552.919C363.424,547.965 362.763,540.699 363.754,543.011C364.745,545.323 367.717,554.24 365.075,562.167L360.451,582.313C360.451,582.313 368.708,570.423 368.378,561.176C368.048,551.928 357.479,517.58 357.479,517.58C357.479,517.58 369.369,543.341 369.699,566.79C370.029,590.24 353.516,652.662 353.516,656.625C353.516,660.588 339.644,713.432 338.653,724.331C337.662,735.23 337.002,766.276 335.35,774.533C333.699,782.79 336.011,749.432 329.736,754.386C323.46,759.341 314.213,774.203 313.552,775.524C312.892,776.845 307.938,775.524 313.552,766.937C319.167,758.35 329.405,737.873 331.057,731.597C332.708,725.322 341.626,711.451 334.029,716.075C326.433,720.698 319.167,730.607 316.855,729.286C314.543,727.964 317.516,716.405 323.791,706.497C330.066,696.588 361.442,612.038 362.103,604.442C362.763,596.845 370.359,576.038 365.736,580.992C361.112,585.946 361.112,580.332 357.809,593.212C354.506,606.093 352.855,615.671 346.249,622.937C339.644,630.203 325.442,642.093 323.791,643.084C322.139,644.075 313.222,648.038 312.561,654.313C311.901,660.588 315.204,674.79 313.222,685.689C311.24,696.588 313.883,708.148 308.268,718.386C302.653,728.625 296.708,734.57 294.066,745.799C291.424,757.029 287.791,785.763 287.791,793.359C287.791,800.955 286.47,825.395 286.47,825.395C286.47,825.395 282.176,817.799 283.497,810.533C284.818,803.267 286.47,763.634 288.451,754.056C290.433,744.478 295.057,731.267 297.699,727.634C300.341,724.001 302.984,706.827 304.635,697.249C306.286,687.671 307.607,683.047 309.259,671.818C310.91,660.588 310.91,650.02 311.571,646.056C312.231,642.093 295.387,650.68 293.075,647.708C290.763,644.735 281.35,635.157 281.35,635.157C281.35,635.157 288.121,642.423 298.029,642.093C307.938,641.763 320.818,637.469 322.8,636.148C324.782,634.827 329.075,627.561 330.727,624.919C332.378,622.277 336.672,616.001 336.341,609.396C336.011,602.79 332.708,578.68 331.717,576.038C330.727,573.396 324.451,560.846 314.543,550.277C304.635,539.708 285.809,522.204 283.167,522.865Z" style="fill:rgb(199,51,56);fill-rule:nonzero;"/>
        <path d="M360.781,678.974C360.781,678.974 359.02,685.799 364.525,695.708C370.029,705.616 375.314,722.79 375.314,730.056C375.314,737.322 368.928,749.212 368.048,761.983C367.167,774.753 362.543,797.212 361.222,804.038C359.901,810.863 354.176,843.01 354.176,843.01L333.919,842.79C333.919,842.79 337.222,779.157 340.084,770.79C342.947,762.423 342.727,760.882 344.048,746.57C345.369,732.258 346.69,722.79 350.653,714.423C354.616,706.056 360.781,678.974 360.781,678.974Z" style="fill:rgb(15,48,88);fill-rule:nonzero;"/>
        <path d="M443.791,682.276C438.056,681.56 428.378,671.708 413.405,668.185C398.433,664.662 391.387,658.717 385.442,658.497C379.497,658.277 371.13,660.478 371.791,656.075C372.451,651.671 369.809,652.111 373.772,649.029C377.736,645.946 381.479,642.203 385.002,642.644C388.525,643.084 404.598,648.809 405.259,650.57C405.259,650.57 431.68,656.295 436.965,659.157C442.249,662.02 450.396,661.799 450.396,665.763C450.396,669.726 448.414,673.029 448.855,675.01C449.295,676.992 447.313,682.717 443.791,682.276Z" style="fill:rgb(15,48,88);fill-rule:nonzero;"/>
        <g>
            <clipPath id="_clip1">
                <path d="M200.158,567.561C202.744,523.597 188.543,497.763 162.121,495.781C162.121,495.781 127.004,489.664 118.8,560.185C118.8,560.185 117.699,586.937 121.112,592.552C127.441,602.964 137.323,615.547 163.195,617.859C163.195,617.859 165.094,617.818 166.58,617.157C166.898,617.016 182.296,610.332 196.057,590.075L195.974,590.199C195.974,590.199 200.158,575.818 200.158,567.561Z"/>
            </clipPath>
            <g clip-path="url(#_clip1)">
                <path d="M162.343,495.799C162.219,495.789 162.099,495.775 161.977,495.752C159.554,495.293 127.409,490.518 119.516,558.368C111.387,628.246 161.022,620.629 166.341,619.617C166.65,619.559 166.941,619.469 167.229,619.344C171.24,617.611 202.154,603.154 207.094,567.341C213.095,523.834 188.68,497.908 162.343,495.799Z" style="fill:rgb(203,127,139);fill-rule:nonzero;"/>
                <path d="M182.653,521.323C176.488,518.24 176.268,511.194 172.305,507.231C168.342,503.268 160.855,504.369 156.011,505.029C151.167,505.69 145.883,509.653 142.58,514.717C139.277,519.782 135.314,521.763 132.011,522.644C128.709,523.524 122.323,526.607 129.369,527.928C136.415,529.249 148.965,531.011 148.965,532.772C148.965,534.534 136.855,535.635 133.773,535.194C130.69,534.754 120.562,535.414 119.681,536.515C118.8,537.616 120.837,546.726 123.479,546.726C126.121,546.726 129.419,547.949 134.461,547.304C140.473,546.535 146.956,546.817 146.929,548.295C146.911,549.28 137.516,554.79 133.112,554.57C128.709,554.35 121.883,549.506 120.782,551.268C119.681,553.029 112.195,520.222 112.195,520.222C112.195,520.222 126.287,490.937 147.644,486.314C169.002,481.69 188.378,502.167 191.461,505.91C194.543,509.653 199.167,518.46 201.589,525.726C204.011,532.992 204.452,547.304 203.13,547.084C201.809,546.864 197.626,553.029 191.901,553.91C186.176,554.79 169.883,551.378 169.883,548.956C169.883,546.534 179.543,548.68 180.865,548.46C182.186,548.24 192.809,543.919 193.828,542.35C196.134,538.798 192.837,536.547 189.039,535.414C184.953,534.196 177.858,535.393 172.855,536.653C168.648,537.712 165.424,533.928 167.406,531.699C172.071,526.451 175.608,529.469 180.892,529.91C186.176,530.35 192.121,530.57 191.241,527.708C190.36,524.846 184.71,522.352 182.653,521.323Z" style="fill:rgb(196,122,135);fill-rule:nonzero;"/>
                <path d="M158.158,603.121C153.948,602.279 143.461,601.965 142.305,605.102C141.149,608.24 152.874,614.68 160.305,614.515C167.736,614.35 176.323,612.368 174.672,608.24C173.02,604.111 158.984,603.286 158.158,603.121Z" style="fill:rgb(210,131,144);fill-rule:nonzero;"/>
                <path d="M158.819,536.24C156.437,536.835 156.837,543.836 156.342,546.313C155.846,548.79 153.039,563.653 153.369,566.295C153.699,568.937 158.984,572.24 161.296,572.24C163.608,572.24 168.231,568.937 168.231,565.139C168.231,561.341 163.443,548.79 162.286,545.653C161.131,542.515 162.121,535.414 158.819,536.24Z" style="fill:rgb(210,131,144);fill-rule:nonzero;"/>
                <path d="M173.351,564.809C172.892,565.655 176.158,572.405 180.947,574.882C185.736,577.359 186.562,579.341 187.057,580.001C187.552,580.662 186.231,583.304 186.231,584.46C186.231,585.616 183.094,592.387 186.231,591.066C189.369,589.745 200.433,575.047 200.268,572.57C200.103,570.093 198.121,568.277 195.644,571.91C193.167,575.543 192.011,580.332 188.874,576.699C185.736,573.066 175.498,560.846 173.351,564.809Z" style="fill:rgb(200,125,137);fill-rule:nonzero;"/>
                <path d="M145.608,564.974C146.79,567.001 141.149,571.249 137.516,573.396C133.883,575.543 130.085,575.708 129.92,579.341C129.755,582.974 130.414,588.258 130.744,588.589C131.076,588.919 127.938,592.056 127.112,586.772C126.287,581.488 124.14,580.662 121.828,578.185C119.516,575.708 114.892,569.598 119.351,571.249C123.81,572.901 127.938,574.552 130.414,573.561C132.892,572.57 143.296,561.011 145.608,564.974Z" style="fill:rgb(200,125,137);fill-rule:nonzero;"/>
            </g>
        </g>
        <path d="M196.525,537.066C197.114,538.146 192.231,535.965 185.736,535.524C179.241,535.084 173.075,537.066 171.975,536.735C170.874,536.405 168.121,534.534 170.874,532.992C173.626,531.451 177.039,532.552 179.461,532.112C181.883,531.671 189.369,531.011 190.47,531.121C191.571,531.231 195.864,535.855 196.525,537.066Z" style="fill:rgb(30,28,36);fill-rule:nonzero;"/>
        <path d="M122.874,536.735C122.874,536.735 133.002,534.974 135.865,535.414C138.727,535.855 146.103,537.616 147.644,536.956C149.186,536.295 147.644,532.552 145.773,532.332C143.901,532.112 141.809,532.552 137.736,532.002C133.663,531.451 130.03,529.58 128.488,529.91C126.947,530.24 124.525,531.671 124.525,531.671L122.874,536.735Z" style="fill:rgb(30,28,36);fill-rule:nonzero;"/>
        <path d="M126.712,544.425C127.902,545.258 129.203,545.931 130.556,546.436C131.907,546.947 133.338,547.256 134.768,547.244C136.216,547.205 137.658,547.082 139.107,546.956C139.834,546.914 140.562,546.854 141.297,546.852C142.016,546.876 142.815,546.849 143.446,547.287L143.451,547.316L143.421,547.322C143.108,547.141 142.739,547.117 142.385,547.109C142.029,547.093 141.668,547.121 141.309,547.148C140.59,547.213 139.869,547.293 139.145,547.38C137.696,547.52 136.233,547.617 134.769,547.584C133.284,547.553 131.832,547.191 130.479,546.634C129.127,546.068 127.849,545.341 126.686,544.459L126.682,544.429L126.712,544.425Z" style="fill:rgb(30,28,36);fill-rule:nonzero;"/>
        <g>
            <clipPath id="_clip2">
                <path d="M171.782,545.543C171.782,545.543 170.351,547.084 170.571,547.635C170.791,548.185 173.103,547.745 173.103,547.745C173.103,547.745 177.947,548.956 182.13,548.075C186.314,547.194 190.085,544.662 190.085,544.662C190.085,544.662 184.112,541.249 178.58,542.295C172.309,543.481 171.782,545.543 171.782,545.543Z"/>
            </clipPath>
            <g clip-path="url(#_clip2)">
                <path d="M171.782,545.543C171.782,545.543 170.351,547.084 170.571,547.635C170.791,548.185 174.121,547.579 174.121,547.579C174.121,547.579 178.14,549.121 182.323,548.24C186.507,547.359 190.085,544.607 190.085,544.607C190.085,544.607 185.13,541.69 178.965,542.35C172.619,543.03 171.782,545.543 171.782,545.543Z" style="fill:white;fill-rule:nonzero;"/>
                <path d="M176.02,544.497C176.02,542.171 177.906,540.286 180.231,540.286C182.557,540.286 184.442,542.171 184.442,544.497C184.442,546.823 182.557,548.708 180.231,548.708C177.906,548.708 176.02,546.823 176.02,544.497Z" style="fill:rgb(30,28,36);fill-rule:nonzero;"/>
            </g>
        </g>
        <path d="M188.555,545.561C187.345,546.317 186.065,546.96 184.736,547.491C183.402,548.002 182.013,548.419 180.569,548.548C179.135,548.677 177.682,548.639 176.262,548.345C175.558,548.188 174.877,547.979 174.192,547.86C173.506,547.745 172.797,547.739 172.089,547.821L172.065,547.802L172.081,547.779C172.771,547.593 173.5,547.506 174.228,547.573C174.958,547.63 175.649,547.826 176.343,547.935C177.719,548.198 179.138,548.257 180.542,548.199C181.943,548.122 183.325,547.753 184.66,547.289C185.995,546.815 187.297,546.229 188.532,545.525L188.561,545.532L188.555,545.561Z" style="fill:rgb(30,28,36);fill-rule:nonzero;"/>
        <path d="M170.131,547.69C170.072,547.588 170.029,547.434 170.026,547.337L170.041,547.155C170.055,547.031 170.086,546.97 170.11,546.875C170.169,546.716 170.229,546.566 170.306,546.436C170.448,546.162 170.619,545.925 170.8,545.698C171.164,545.246 171.577,544.852 172.019,544.503C172.908,543.81 173.905,543.297 174.931,542.905C176.985,542.118 179.198,541.816 181.366,541.938C183.535,542.055 185.669,542.559 187.657,543.394C189.611,544.313 191.509,545.266 193.442,546.203C191.487,545.347 189.52,544.453 187.564,543.623C185.574,542.877 183.46,542.466 181.349,542.434C179.239,542.396 177.129,542.773 175.209,543.595C174.253,544.003 173.345,544.52 172.568,545.176C172.182,545.505 171.831,545.87 171.537,546.264C171.393,546.46 171.258,546.666 171.162,546.872C171.105,546.975 171.073,547.078 171.041,547.17L171.017,547.279L171.014,547.297L170.956,547.139C171.108,547.367 171.047,547.675 170.819,547.827C170.591,547.979 170.283,547.917 170.131,547.69Z" style="fill:rgb(30,28,36);fill-rule:nonzero;"/>
        <g>
            <clipPath id="_clip3">
                <path d="M146.048,545.763C146.709,546.203 146.874,547.579 146.543,547.8C146.213,548.02 144.534,547.414 143.764,547.194C142.993,546.974 143.323,547.194 139.8,547.524C136.277,547.855 132.259,547.249 130.36,546.589C128.595,545.975 126.232,544.029 126.232,544.029C126.232,544.029 131.956,540.809 137.351,541.469C142.745,542.13 146.048,545.763 146.048,545.763Z"/>
            </clipPath>
            <g clip-path="url(#_clip3)">
                <path d="M145.415,545.378C146.076,545.818 146.901,547.8 146.571,548.02C146.241,548.24 143.076,546.891 142.002,547.029C141.207,547.131 142.112,546.809 138.589,547.139C135.066,547.469 131.378,546.781 129.479,546.121C127.715,545.507 126.232,544.029 126.232,544.029C126.232,544.029 131.516,540.919 136.91,541.579C142.305,542.24 145.415,545.378 145.415,545.378Z" style="fill:white;fill-rule:nonzero;"/>
                <path d="M131.929,543.616C131.929,541.336 133.777,539.488 136.057,539.488C138.337,539.488 140.186,541.336 140.186,543.616C140.186,545.896 138.337,547.745 136.057,547.745C133.777,547.745 131.929,545.896 131.929,543.616Z" style="fill:rgb(30,28,36);fill-rule:nonzero;"/>
            </g>
        </g>
        <path d="M146.164,547.496C146.091,547.17 145.804,546.676 145.497,546.287C145.185,545.88 144.828,545.497 144.444,545.141C143.672,544.432 142.802,543.815 141.862,543.326C139.981,542.344 137.858,541.82 135.71,541.78C133.56,541.715 131.386,542.023 129.343,542.74C128.32,543.095 127.34,543.572 126.401,544.119C125.932,544.395 125.471,544.685 125.01,544.977C124.546,545.249 124.086,545.598 123.534,545.653C124.081,545.577 124.523,545.214 124.977,544.925C125.425,544.616 125.876,544.308 126.336,544.013C127.259,543.427 128.231,542.908 129.256,542.508C131.303,541.701 133.505,541.301 135.714,541.283C137.929,541.241 140.167,541.698 142.196,542.661C143.21,543.141 144.16,543.76 145.022,544.493C145.452,544.863 145.857,545.264 146.226,545.709C146.589,546.172 146.941,546.598 147.143,547.333C147.215,547.597 147.06,547.869 146.796,547.942C146.532,548.014 146.259,547.859 146.187,547.595L146.182,547.574L146.164,547.496Z" style="fill:rgb(30,28,36);fill-rule:nonzero;"/>
        <path d="M137.595,583.306C140.984,584.51 152.444,589.497 160.305,589.497C160.305,589.497 164.764,589.538 166.91,589.043C169.057,588.547 172.401,586.978 173.846,586.855C175.282,586.732 178.161,585.875 179.876,585.358C180.127,585.282 180.094,584.92 179.835,584.886C178.29,584.681 175.465,584.327 173.516,584.212C170.708,584.047 168.231,582.561 164.764,583.387C161.296,584.212 156.173,582.808 155.186,582.726C153.204,582.561 146.268,583.056 143.626,583.222C141.755,583.339 139.057,583.207 137.64,583.12C137.64,583.12 137.281,583.195 137.595,583.306Z" style="fill:rgb(240,78,67);fill-rule:nonzero;"/>
        <path d="M159.975,595.855C166.577,595.652 168.231,595.896 172.195,593.584C176.158,591.272 177.314,587.763 178.305,586.937C179.296,586.112 180.02,585.235 180.02,585.235C180.02,585.235 174.342,586.607 173.846,586.607C173.351,586.607 167.571,589.084 165.259,589.084C162.947,589.084 157.993,589.91 153.865,588.589C149.736,587.267 138.053,583.459 138.053,583.459C138.053,583.459 140.819,585.286 141.975,587.928C143.131,590.57 149.241,596.185 159.975,595.855Z" style="fill:rgb(224,70,59);fill-rule:nonzero;"/>
        <path d="M146.599,567.616C146.599,567.616 143.956,572.901 147.754,573.726C151.553,574.552 153.369,573.726 155.681,574.717C157.993,575.708 157.993,576.864 161.131,576.864C164.268,576.864 164.929,575.212 167.571,574.717C170.213,574.222 172.69,574.717 174.011,574.057C175.332,573.396 175.498,572.075 175.498,570.093C175.498,568.112 173.681,566.295 173.681,566.295C173.681,566.295 177.149,567.946 176.323,572.075C175.498,576.203 169.222,576.368 168.066,576.534C166.91,576.699 163.608,579.176 161.131,579.011C158.653,578.845 155.186,576.864 153.204,576.203C151.222,575.543 146.929,576.368 145.277,574.387C143.626,572.405 145.277,567.946 146.599,567.616Z" style="fill:rgb(196,122,135);fill-rule:nonzero;"/>
        <path d="M145.164,544.209C143.821,543.034 142.154,542.079 140.399,541.614C139.528,541.369 138.598,541.334 137.645,541.259C136.703,541.193 135.758,541.142 134.813,541.108C133.868,541.074 132.922,541.056 131.979,541.071C131.033,541.113 130.088,541.062 129.233,541.463C127.479,542.166 125.753,542.964 124.03,543.754C125.719,542.888 127.403,542.019 129.138,541.233C129.56,541.029 130.058,540.872 130.535,540.828C131.011,540.765 131.489,540.727 131.965,540.699C132.917,540.643 133.868,540.619 134.82,540.611C135.772,540.604 136.723,540.613 137.675,540.639C138.613,540.672 139.595,540.664 140.57,540.887C142.504,541.32 144.265,542.215 145.831,543.464C146.047,543.636 146.083,543.951 145.911,544.167C145.738,544.383 145.424,544.419 145.208,544.246L145.192,544.233L145.164,544.209Z" style="fill:rgb(30,28,36);fill-rule:nonzero;"/>
        <path d="M171.633,543.063C173.681,542.11 175.775,541.288 178.067,541.017C178.628,540.964 179.26,540.971 179.793,541.049L181.443,541.248C182.541,541.388 183.636,541.543 184.729,541.711C185.823,541.88 186.914,542.06 188.002,542.275C188.538,542.379 189.108,542.499 189.626,542.732C190.145,542.954 190.631,543.231 191.104,543.521C192.055,544.087 192.927,544.796 193.933,545.203C194.979,545.492 196.12,545.302 197.186,545.075C196.124,545.34 195.006,545.583 193.895,545.323C192.831,544.938 191.94,544.262 190.976,543.739C190.015,543.184 189.037,542.765 187.935,542.648C186.85,542.477 185.756,542.34 184.662,542.213C183.567,542.087 182.471,541.975 181.374,541.877C180.273,541.804 179.171,541.62 178.152,541.769C176.057,542.089 174.001,542.972 172.095,543.95L172.073,543.961C171.827,544.087 171.526,543.99 171.4,543.744C171.273,543.499 171.37,543.197 171.616,543.071L171.633,543.063Z" style="fill:rgb(30,28,36);fill-rule:nonzero;"/>
        <path d="M107.351,493.58C107.351,493.58 103.608,521.323 109.993,547.745C116.378,574.167 116.158,580.112 117.479,577.91C118.8,575.708 116.378,558.313 119.241,547.084C122.103,535.855 126.287,514.498 130.47,508.112C134.654,501.726 147.204,490.497 160.415,491.598C173.626,492.699 186.617,502.827 188.158,504.809C189.699,506.791 196.745,505.469 193.883,502.167C191.02,498.864 193.002,495.341 195.424,499.745C197.846,504.148 204.452,521.763 205.112,526.607C205.773,531.451 202.25,499.084 202.25,499.084C202.25,499.084 206.653,505.249 206.653,514.498C206.653,523.745 209.956,535.194 209.296,541.359C208.635,547.524 210.396,577.91 199.608,591.341C199.608,591.341 204.011,569.763 204.672,567.121C205.332,564.479 202.69,545.983 202.69,541.139C202.69,536.295 198.947,527.708 194.323,521.102C189.699,514.498 183.974,503.708 173.186,500.185C162.397,496.662 151.608,494.681 143.241,507.231C134.874,519.782 126.947,530.35 126.287,539.378C125.626,548.405 120.782,562.277 120.782,565.359C120.782,568.442 117.369,587.598 124.14,599.653C124.14,599.653 115.553,587.267 111.755,564.919C108.945,548.387 101.186,525.946 102.727,519.121C104.268,512.295 105.81,493.58 107.351,493.58Z" style="fill:rgb(92,64,132);fill-rule:nonzero;"/>
        <path d="M65.35,620.13C65.35,620.13 59.24,627.066 62.708,631.524C66.176,635.983 68.818,636.644 70.635,635.653C72.451,634.662 75.754,629.708 76.25,627.231C76.745,624.754 78.892,623.763 76.91,621.616C74.929,619.469 69.149,617.653 65.35,620.13Z" style="fill:rgb(196,122,135);fill-rule:nonzero;"/>
        <path d="M190.36,609.561C192.921,611.034 185.406,614.185 185.406,614.185C185.406,614.185 174.342,623.267 158.984,626.24C143.626,629.212 132.727,617.818 132.727,617.818C132.727,617.818 126.617,617.322 126.121,612.864C126.121,612.864 127.828,609.286 133.443,612.038C139.057,614.79 154.14,616.772 160.415,617.763C166.69,618.754 173.075,614.68 176.048,614.13C179.02,613.579 188.158,608.295 190.36,609.561Z" style="fill:rgb(210,212,215);fill-rule:nonzero;"/>
        <path d="M324.396,562.772C324.396,562.772 317.681,560.846 314.158,561.396C310.635,561.946 305.681,563.488 304.91,563.268C304.139,563.047 302.598,560.295 305.461,559.745C308.323,559.194 312.947,557.212 315.259,557.433C317.571,557.653 321.094,558.203 321.974,558.974L324.396,562.772Z" style="fill:rgb(30,28,36);fill-rule:nonzero;"/>
        <path d="M283.552,564.368C281.339,564.368 277.718,563.268 274.084,564.038C270.451,564.809 266.928,566.79 266.928,566.79L267.259,563.157C267.259,563.157 273.754,559.304 277.607,559.745C281.461,560.185 284.873,561.396 285.534,561.946C286.195,562.497 284.103,564.368 283.552,564.368Z" style="fill:rgb(30,28,36);fill-rule:nonzero;"/>
        <path d="M284.956,610.387C283.305,610.387 279.341,610.139 279.094,610.139C278.846,610.139 279.259,612.533 280.497,613.937C281.736,615.341 290.406,621.368 296.846,621.699C303.286,622.029 312.286,616.662 313.525,615.671C314.763,614.68 317.818,611.543 317.653,611.047C317.488,610.552 318.479,609.396 315.754,609.809C313.029,610.222 284.956,610.387 284.956,610.387Z" style="fill:white;fill-rule:nonzero;"/>
        <path d="M295.552,618.809C292.017,618.34 286.47,616.579 284.24,615.341C282.011,614.102 279.727,609.396 278.571,609.891C277.415,610.387 282.754,617.735 283.91,620.13C285.066,622.524 290.02,624.754 295.222,624.754C300.424,624.754 305.791,622.689 308.681,620.543C311.571,618.396 317.928,611.46 317.763,611.047C317.598,610.634 316.69,612.203 314.956,613.111C313.222,614.02 302.406,619.717 295.552,618.809Z" style="fill:rgb(224,70,59);fill-rule:nonzero;"/>
        <path d="M295.387,613.359C293.685,613.998 292.332,613.524 290.516,612.699C288.699,611.873 285.231,611.708 284.158,611.625C283.084,611.543 278.791,610.387 278.461,609.974C278.13,609.561 280.112,609.809 281.516,609.891C282.919,609.974 287.956,608.405 289.607,608.488C291.259,608.57 292.745,609.148 293.818,609.478C294.892,609.809 295.8,608.157 298.277,608.405C300.754,608.653 306.782,609.396 308.35,609.644C309.919,609.891 317.35,609.396 317.433,609.644C317.516,609.891 315.341,610.414 313.855,610.497C312.369,610.579 296.708,612.864 295.387,613.359Z" style="fill:rgb(240,78,67);fill-rule:nonzero;"/>
        <g>
            <clipPath id="_clip4">
                <path d="M306.286,571.194C306.286,571.194 304.855,572.35 305.075,572.901C305.295,573.451 307.112,572.405 307.112,572.405C307.112,572.405 311.218,573.374 315.369,572.35C319.607,571.304 322.194,570.203 322.194,570.203C322.194,570.203 318.047,566.393 312.506,567.396C306.727,568.442 306.286,571.194 306.286,571.194Z"/>
            </clipPath>
            <g clip-path="url(#_clip4)">
                <path d="M305.746,570.919C305.746,570.919 304.315,572.46 304.535,573.011C304.755,573.561 308.086,572.956 308.086,572.956C308.086,572.956 312.104,574.497 316.287,573.616C320.471,572.735 324.049,569.983 324.049,569.983C324.049,569.983 319.332,566.13 313.167,566.79C306.821,567.47 305.746,570.919 305.746,570.919Z" style="fill:white;fill-rule:nonzero;"/>
                <path d="M311.189,569.46C311.189,567.526 312.757,565.958 314.691,565.958C316.625,565.958 318.193,567.526 318.193,569.46C318.193,571.394 316.625,572.962 314.691,572.962C312.757,572.962 311.189,571.394 311.189,569.46Z" style="fill:rgb(30,28,36);fill-rule:nonzero;"/>
            </g>
        </g>
        <g>
            <clipPath id="_clip5">
                <path d="M283.089,572.735C283.089,572.735 284.52,573.891 284.3,574.442C284.08,574.992 282.263,573.946 282.263,573.946C282.263,573.946 278.157,574.916 274.006,573.891C269.768,572.845 267.204,572.46 267.204,572.46C267.204,572.46 271.329,567.935 276.869,568.937C282.649,569.983 283.089,572.735 283.089,572.735Z"/>
            </clipPath>
            <g clip-path="url(#_clip5)">
                <path d="M283.629,572.46C283.629,572.46 285.06,574.002 284.84,574.552C284.62,575.102 281.29,574.497 281.29,574.497C281.29,574.497 277.271,576.038 273.088,575.157C268.904,574.277 265.326,571.524 265.326,571.524C265.326,571.524 270.043,567.671 276.208,568.332C282.554,569.012 283.629,572.46 283.629,572.46Z" style="fill:white;fill-rule:nonzero;"/>
                <path d="M280.223,571.167C280.223,569.232 278.655,567.665 276.721,567.665C274.786,567.665 273.219,569.232 273.219,571.167C273.219,573.101 274.786,574.669 276.721,574.669C278.655,574.669 280.223,573.101 280.223,571.167Z" style="fill:rgb(30,28,36);fill-rule:nonzero;"/>
            </g>
        </g>
        <path d="M321.864,573.258C320.431,573.343 317.901,575.13 314.598,574.8C311.295,574.469 305.901,572.818 305.571,573.919C305.24,575.02 307.772,575.57 310.415,576.341C313.057,577.112 318.892,577.222 320.543,576.451C322.194,575.68 325.607,573.038 321.864,573.258Z" style="fill:rgb(191,120,132);fill-rule:nonzero;"/>
        <path d="M283.57,576.112C283.57,576.112 282.667,579.165 278.368,579.162C274.069,579.159 269.48,579.431 267.697,577.684C265.913,575.938 266.272,575.406 267.672,576.03C269.073,576.654 273.611,577.372 275.815,577.376C278.02,577.38 282.521,574.817 283.57,576.112Z" style="fill:rgb(191,120,132);fill-rule:nonzero;"/>
        <path d="M282.837,592.139C282.837,592.139 281.103,594.534 281.02,596.02C280.938,597.506 281.02,599.818 282.672,600.066C284.323,600.313 286.47,599.735 287.461,600.478C288.451,601.222 288.286,602.46 289.938,602.79C291.589,603.121 294.149,602.46 295.305,601.387C296.461,600.313 298.277,599.57 299.763,599.735C301.25,599.9 305.708,600.561 307.277,599.488C308.846,598.414 309.176,596.02 308.516,594.781C307.855,593.543 305.626,592.469 305.791,591.974C305.956,591.478 307.855,592.469 308.598,593.46C309.341,594.451 310.58,597.754 309.754,598.992C308.928,600.231 307.112,603.038 304.635,603.121C302.158,603.203 298.607,602.543 297.286,603.534C295.965,604.524 293.24,606.093 291.094,605.598C288.947,605.102 288.204,601.717 287.048,601.469C285.892,601.222 285.562,602.46 283.662,601.469C281.763,600.478 279.534,599.157 280.112,596.763C280.69,594.368 281.763,590.735 282.837,592.139Z" style="fill:rgb(196,122,135);fill-rule:nonzero;"/>
        <path d="M306.683,572.655C306.398,572.827 306.099,572.973 305.769,573.059C305.604,573.099 305.427,573.128 305.241,573.087C305.146,573.062 305.06,573.03 304.973,572.951C304.879,572.863 304.867,572.718 304.889,572.624C304.994,572.241 305.235,572.004 305.452,571.748C305.68,571.501 305.918,571.273 306.173,571.051L306.105,571.177C306.225,570.405 306.665,569.816 307.166,569.312C307.683,568.823 308.277,568.423 308.91,568.125C309.539,567.813 310.197,567.581 310.864,567.388C311.533,567.198 312.211,567.065 312.891,566.939L312.861,566.944C313.76,566.761 314.606,566.745 315.478,566.802C316.341,566.873 317.203,567.022 318.02,567.313C318.835,567.599 319.629,567.957 320.348,568.428C321.084,568.872 321.729,569.441 322.352,570.012L322.374,570.032L322.378,570.037L322.573,570.233L322.828,570.431C323.008,570.556 323.2,570.672 323.395,570.789L323.413,570.859L323.361,570.883C323.133,570.846 322.908,570.79 322.687,570.712C322.575,570.674 322.464,570.631 322.353,570.581C322.238,570.524 322.142,570.485 322.011,570.37L322.037,570.394C321.353,569.94 320.654,569.525 319.93,569.174C319.217,568.8 318.458,568.54 317.706,568.283C316.944,568.055 316.17,567.873 315.381,567.769C314.603,567.662 313.772,567.636 313.033,567.738L313.002,567.743C312.343,567.827 311.687,567.925 311.041,568.072C310.398,568.224 309.764,568.412 309.164,568.673C308.557,568.921 307.996,569.263 307.507,569.68C307.027,570.086 306.596,570.638 306.468,571.211L306.461,571.242L306.4,571.337C306.147,571.528 305.897,571.737 305.666,571.956C305.445,572.174 305.199,572.421 305.116,572.672C305.072,572.788 305.148,572.839 305.29,572.894C305.423,572.934 305.581,572.924 305.734,572.897C306.042,572.839 306.348,572.715 306.632,572.568L306.701,572.587L306.683,572.655Z" style="fill:rgb(30,28,36);fill-rule:nonzero;"/>
        <path d="M307.182,572.131C308.335,572.417 309.563,572.552 310.774,572.602C311.99,572.639 313.211,572.576 314.418,572.393C315.62,572.201 316.822,571.912 318.011,571.618C319.198,571.309 320.387,570.984 321.52,570.506C320.405,571.028 319.226,571.399 318.049,571.755C316.864,572.096 315.684,572.429 314.466,572.673C313.249,572.905 312.009,573.018 310.767,573.027C309.522,573.022 308.288,572.939 307.042,572.68C306.888,572.648 306.79,572.498 306.822,572.344C306.853,572.191 307.004,572.093 307.157,572.124L307.167,572.127L307.182,572.131Z" style="fill:rgb(30,28,36);fill-rule:nonzero;"/>
        <path d="M283.063,574.423C283.333,574.511 283.631,574.572 283.892,574.533C284.021,574.513 284.128,574.457 284.18,574.373C284.217,574.329 284.183,574.224 284.118,574.112C283.832,573.67 283.348,573.295 282.914,572.945L282.843,572.849L282.825,572.804C282.577,572.186 282.058,571.602 281.496,571.168C280.925,570.718 280.252,570.418 279.575,570.153C278.904,569.867 278.195,569.657 277.483,569.398C277.122,569.293 276.759,569.141 276.386,569.068C276.009,569.045 275.633,568.981 275.254,568.992C273.742,568.982 272.217,569.305 270.833,569.955C269.448,570.596 268.163,571.493 267.104,572.602L267.034,572.61L267.028,572.538C268.058,571.37 269.319,570.412 270.719,569.716C272.113,569.008 273.677,568.622 275.253,568.584C275.647,568.561 276.04,568.614 276.435,568.626L277.631,568.638C278.425,568.716 279.23,568.863 279.974,569.208C280.718,569.547 281.404,570.02 282.002,570.585C282.595,571.162 283.103,571.811 283.353,572.666L283.264,572.526C283.491,572.737 283.697,572.952 283.893,573.187C284.086,573.423 284.278,573.661 284.414,573.967C284.469,574.106 284.558,574.337 284.396,574.538C284.266,574.692 284.071,574.744 283.911,574.747C283.582,574.749 283.297,574.642 283.023,574.515L282.999,574.449L283.063,574.423Z" style="fill:rgb(30,28,36);fill-rule:nonzero;"/>
        <path d="M282.325,574.223C281.133,574.446 279.943,574.582 278.737,574.62C278.135,574.637 277.53,574.624 276.927,574.552C276.316,574.48 275.748,574.325 275.162,574.207L268.181,572.694L275.212,573.928C275.796,574.022 276.387,574.156 276.962,574.199C277.543,574.245 278.131,574.235 278.717,574.195C279.888,574.112 281.064,573.929 282.202,573.67L282.209,573.668C282.362,573.633 282.514,573.729 282.549,573.881C282.584,574.034 282.488,574.186 282.336,574.221L282.325,574.223Z" style="fill:rgb(30,28,36);fill-rule:nonzero;"/>
        <path d="M280.084,624.038C282.617,623.616 276.011,612.258 273.699,611.267C271.387,610.277 271.828,612.368 273.149,614.13C274.47,615.891 278.763,624.258 280.084,624.038Z" style="fill:rgb(191,120,132);fill-rule:nonzero;"/>
        <path d="M307.938,568.937C308.859,568.225 309.82,567.588 310.792,566.969L310.911,566.928L310.967,566.924C312.612,566.801 314.256,566.783 315.903,566.858L317.14,566.945C317.358,566.97 317.532,566.985 317.798,567.029C318.108,567.099 318.248,567.205 318.447,567.305C319.183,567.709 319.874,568.16 320.543,568.662C319.743,568.429 318.961,568.148 318.194,567.888C318.014,567.835 317.783,567.745 317.686,567.753L317.114,567.773L315.887,567.806C314.247,567.829 312.605,567.788 310.964,567.647L311.138,567.603C310.091,568.085 309.035,568.549 307.938,568.937Z" style="fill:rgb(30,28,36);fill-rule:nonzero;"/>
        <path d="M281.681,570.589C280.992,570.218 280.331,569.811 279.684,569.386L279.842,569.448C277.915,569.541 276.005,569.415 274.109,569.113L274.273,569.091C272.763,569.555 271.239,569.983 269.681,570.313C271.095,569.58 272.544,568.943 274.005,568.343L274.114,568.321L274.17,568.321C276.09,568.313 277.997,568.48 279.886,568.867L279.951,568.88L280.045,568.928C280.609,569.459 281.159,570.005 281.681,570.589Z" style="fill:rgb(30,28,36);fill-rule:nonzero;"/>
    </g>
</svg>
