<?xml version="1.0" encoding="UTF-8" standalone="no"?>
<!DOCTYPE svg PUBLIC "-//W3C//DTD SVG 1.1//EN" "http://www.w3.org/Graphics/SVG/1.1/DTD/svg11.dtd">
<svg width="100%" height="100%" viewBox="0 0 1772 1772" version="1.1" xmlns="http://www.w3.org/2000/svg" xmlns:xlink="http://www.w3.org/1999/xlink" xml:space="preserve" xmlns:serif="http://www.serif.com/" style="fill-rule:evenodd;clip-rule:evenodd;stroke-linejoin:round;stroke-miterlimit:2;">
    <g transform="matrix(-15.2917,-5.99518,-5.99518,15.2917,-5445.79,4554.06)">
        <path d="M-546.347,-303.639L-272.479,-303.639L9.793,-68.101C9.793,-68.101 -332.051,83.569 -355.041,93.95L-546.347,-303.639Z" style="fill:rgb(13,167,136);fill-rule:nonzero;"/>
    </g>
    <g transform="matrix(16.425,0,0,16.425,633.496,987.495)">
        <path d="M0,-32.586C-3.513,-30.127 -6.275,-26.311 -5.835,-23.889C-5.395,-21.467 -4.844,-16.513 -3.413,-15.412C-1.981,-14.312 0.33,-10.788 0.33,-10.788C0.33,-10.788 -0.11,-8.256 0.33,-5.944C0.771,-3.632 1.871,0.771 4.403,0.331C6.936,-0.109 10.679,-4.402 10.679,-4.402C10.679,-4.402 14.752,-9.026 15.303,-10.678C15.854,-12.329 15.522,-14.861 15.743,-15.523C15.963,-16.183 17.505,-21.137 16.954,-23.999C16.403,-26.861 16.844,-29.174 13.981,-31.155C11.119,-33.137 1.101,-33.357 0,-32.586" style="fill:rgb(166,118,105);fill-rule:nonzero;"/>
    </g>
    <g transform="matrix(14.4552,-7.79917,-7.79917,-14.4552,777.878,784.474)">
        <path d="M-0.604,-0.139C-0.812,-0.05 -3.709,1.536 -3.413,1.869C-3.116,2.202 -1.353,1.906 -0.604,1.642C0.145,1.379 2.564,0.732 2.351,0.423C2.139,0.116 -0.165,-0.329 -0.604,-0.139" style="fill:rgb(205,207,208);fill-rule:nonzero;"/>
    </g>
    <g transform="matrix(16.425,0,0,16.425,573.828,291.339)">
        <path d="M0,24.88C0,24.88 -2.643,20.477 -0.881,17.944C0.881,15.412 1.871,12.99 3.303,12.22C4.733,11.449 7.706,9.027 7.926,9.467C8.146,9.907 13.981,12.109 16.403,13.431C18.825,14.752 20.366,16.183 20.587,18.385C20.807,20.587 20.133,24.075 20.133,24.075C20.133,24.075 23.89,16.073 21.357,12.44C18.825,8.807 17.614,4.403 13.541,2.312C9.468,0.22 5.835,-0.551 2.532,1.32C-0.771,3.193 -3.634,6.825 -4.073,9.798C-4.514,12.771 -4.624,14.531 -4.184,17.504C-3.743,20.477 -2.202,24.44 0.22,25.431L0,24.88Z" style="fill:rgb(0,1,10);fill-rule:nonzero;"/>
    </g>
    <g transform="matrix(16.425,0,0,16.425,589.642,576.573)">
        <path d="M0,2.56C0,2.56 2.092,1.844 2.835,1.597C3.578,1.349 5.009,1.239 4.899,0.964C4.789,0.689 5.119,0 4.349,0.193C3.578,0.386 2.257,1.019 1.816,1.184C1.376,1.349 0,2.368 0,2.56" style="fill:rgb(0,1,10);fill-rule:nonzero;"/>
    </g>
    <g transform="matrix(16.425,0,0,16.425,754.197,558.051)">
        <path d="M0,0.385C0.131,0.777 0.33,1.211 1.046,0.963C1.762,0.715 2.862,-0.083 3.881,-0.193C4.898,-0.302 5.697,-0.137 5.89,-0.165C6.082,-0.193 3.825,-0.826 3,-0.688C2.174,-0.551 -0.11,0.055 0,0.385" style="fill:rgb(0,1,10);fill-rule:nonzero;"/>
    </g>
    <g transform="matrix(16.425,0,0,16.425,714.417,701.805)">
        <path d="M0,-4.046C-0.088,-3.275 -0.083,-1.651 -0.083,-1.321C-0.083,-0.991 -0.496,-0.578 -0.743,-0.303C-0.991,-0.027 -1.569,1.376 -0.881,1.294C-0.193,1.211 0.138,0.743 0.495,0.963C0.853,1.183 1.184,1.403 1.789,1.073C2.395,0.743 2.284,0.303 2.862,0.386C3.44,0.468 4.486,-0.221 4.101,-0.743C3.715,-1.266 3.55,-0.854 2.779,-1.706C2.009,-2.56 1.101,-4.9 0.853,-5.175C0.605,-5.449 0.138,-5.257 0,-4.046" style="fill:rgb(174,123,109);fill-rule:nonzero;"/>
    </g>
    <g transform="matrix(16.425,0,0,16.425,752.384,771.978)">
        <path d="M0,-1.327C-0.12,-1.177 -0.771,-1.878 -1.514,-1.107C-2.257,-0.337 -3.255,0.881 -3.062,0.908C-2.869,0.937 -0.66,0.131 0.275,-0.061C1.211,-0.254 4.019,-0.805 3.854,-0.942C3.688,-1.08 2.862,-1.327 2.202,-1.548C1.541,-1.767 0.743,-2.264 0,-1.327" style="fill:rgb(151,91,108);fill-rule:nonzero;"/>
    </g>
    <g transform="matrix(16.425,0,0,16.425,703.447,790.527)">
        <path d="M0,-0.221C0,-0.221 1.569,1.156 2.175,1.43C2.78,1.706 4.184,1.954 5.229,1.156C6.275,0.357 6.468,-0.055 6.661,-0.771C6.854,-1.487 7.156,-2.175 6.771,-2.147C6.386,-2.119 5.175,-0.854 4.651,-0.551C4.129,-0.248 2.313,-0.303 1.651,-0.358C0.991,-0.413 0.193,-0.689 0,-0.221" style="fill:rgb(165,98,109);fill-rule:nonzero;"/>
    </g>
    <g transform="matrix(16.425,0,0,16.425,678.248,716.258)">
        <path d="M0,-3.797C-0.793,-3.331 -0.495,-1.54 -3,-2.283C-5.505,-3.026 -6.66,-4.403 -6.468,-3.302C-6.275,-2.201 -4.403,0.331 -3,0.441C-1.597,0.551 0.027,0.826 0.551,-0.137C1.073,-1.101 1.403,-4.623 0,-3.797" style="fill:rgb(170,121,107);fill-rule:nonzero;"/>
    </g>
    <g transform="matrix(16.425,0,0,16.425,760.982,641.679)">
        <path d="M0,-0.771C0.157,-0.33 0.771,1.349 1.898,1.789C3.027,2.229 4.183,2.174 4.816,1.431C5.449,0.688 6.468,-2.12 6.027,-2.56C5.587,-3 4.541,-1.789 3.743,-1.018C2.944,-0.248 -0.138,-1.156 0,-0.771" style="fill:rgb(170,121,107);fill-rule:nonzero;"/>
    </g>
    <g transform="matrix(16.425,0,0,16.425,800.762,1950.4)">
        <path d="M0,-23.45C-0.661,-23.615 -11.56,-17.257 -12.551,-14.862C-13.542,-12.469 -10.569,-4.954 -10.899,-3.386C-11.229,-1.817 -1.734,-0.248 1.898,0.412C5.532,1.073 14.284,2.725 19.981,-0.991C25.679,-4.707 28.651,-7.513 28.486,-10.734C28.32,-13.954 29.477,-15.771 26.835,-18.496C24.192,-21.221 19.981,-25.845 19.651,-26.01C19.321,-26.175 0,-23.45 0,-23.45" style="fill:rgb(245,131,31);fill-rule:nonzero;"/>
    </g>
    <g transform="matrix(16.425,0,0,16.425,496.964,1905.63)">
        <path d="M0,-20.476C-2.306,-21.167 -2.394,-22.622 -7.596,-25.265C-12.798,-27.908 -17.174,-28.651 -21.88,-28.155C-26.587,-27.66 -32.696,-25.595 -34.018,-22.21C-35.339,-18.825 -37.816,-14.119 -38.89,-11.806C-39.963,-9.495 -44.504,-6.192 -43.101,-3.632C-41.696,-1.073 -40.788,0.992 -37.65,1.487C-34.514,1.983 -27.742,-1.32 -23.779,0.827C-19.816,2.973 -9.165,7.349 -4.788,7.762C-0.412,8.175 5.945,6.689 6.193,7.267C6.44,7.845 7.597,2.643 7.927,1.735C8.257,0.827 7.845,-6.852 8.753,-8.916C9.661,-10.981 11.808,-14.201 9.991,-16.595C8.175,-18.99 0.826,-20.228 0,-20.476" style="fill:rgb(218,133,184);fill-rule:nonzero;"/>
    </g>
    <g transform="matrix(16.425,0,0,16.425,479.785,1388.03)">
        <path d="M0,0.496C0,0.496 -2.531,-0.385 -5.725,1.267C-8.917,2.918 -10.128,3.908 -10.568,4.129C-11.009,4.349 -12.55,4.899 -11.339,5.34C-10.128,5.78 -8.972,7.707 -8.972,7.707C-8.972,7.707 -14.752,6.056 -14.862,3.853C-14.972,1.651 -14.201,-1.376 -13.871,-2.587C-13.541,-3.798 -13.761,-6.771 -13.761,-6.771C-13.761,-6.771 -12.439,-7.211 -11.229,-6.441C-10.018,-5.669 -4.733,-6.109 -4.073,-5.119C-3.412,-4.128 0,0.496 0,0.496" style="fill:rgb(218,133,184);fill-rule:nonzero;"/>
    </g>
    <g transform="matrix(16.425,0,0,16.425,637.105,921.526)">
        <path d="M0,-7.598C0,-7.598 3.193,-4.24 8.202,-4.79C13.211,-5.34 15.413,-11.34 15.413,-11.34L14.808,-7.267L12.496,1.43C12.496,1.43 7.267,3.412 5.285,3.577C3.303,3.742 1.321,1.705 1.321,1.705C1.321,1.705 -0.715,-2.918 -0.55,-3.469C-0.385,-4.02 -0.22,-7.653 -0.22,-7.653L0,-7.598Z" style="fill:rgb(140,99,88);fill-rule:nonzero;"/>
    </g>
    <g transform="matrix(16.425,0,0,16.425,894.788,1524.56)">
        <path d="M0,-49.651C-1.211,-46.238 -0.771,-44.146 -0.771,-44.146C-0.771,-44.146 -7.046,-37.321 -7.707,-37.101C-8.367,-36.88 -7.927,-36.11 -8.808,-34.789C-9.688,-33.467 -11.89,-34.678 -12.33,-34.899C-12.771,-35.119 -14.973,-40.294 -14.973,-40.294L-15.192,-44.256C-15.192,-44.256 -20.257,-51.083 -20.367,-51.632C-20.478,-52.183 -23.67,-59.559 -23.67,-60C-23.67,-60.44 -23.119,-64.294 -22.349,-65.945C-21.578,-67.596 -17.064,-72.77 -13.872,-73.872C-10.679,-74.972 -6.056,-72.991 -4.514,-71.67C-2.973,-70.348 0.551,-63.743 1.541,-62.202C2.532,-60.661 1.211,-53.064 0,-49.651M44.146,-5.615C43.706,-11.45 39.522,-22.459 36.44,-26.202C33.357,-29.945 28.184,-36.55 26.201,-38.642C24.22,-40.734 22.679,-42.055 18.825,-44.807C14.973,-47.559 12,-49.981 9.908,-49.981C7.816,-49.981 5.835,-51.192 6.275,-51.083C6.275,-51.083 4.624,-60.33 -1.762,-70.018C-1.762,-70.018 -4.844,-76.073 -12.991,-75.963C-21.138,-75.853 -23.34,-67.596 -24.11,-65.174C-24.881,-62.752 -27.854,-52.734 -28.184,-50.753C-28.514,-48.77 -25.211,-42.935 -25.211,-42.935C-25.211,-42.935 -33.798,-36.991 -35.34,-33.027C-36.881,-29.064 -39.192,-25.761 -39.413,-24C-39.633,-22.238 -40.514,-17.505 -40.624,-16.624C-40.734,-15.743 -43.046,-16.073 -40.403,-14.202C-37.762,-12.33 -33.908,-12.33 -33.357,-12.22C-32.808,-12.11 -27.854,-10.018 -27.854,-10.018C-27.854,-10.018 -27.633,-8.147 -26.092,-7.486C-24.551,-6.826 -33.138,0.881 -33.138,0.881C-33.138,0.881 -27.083,2.752 -22.459,3.303C-17.835,3.853 -12.44,3.523 -5.505,3.853C1.431,4.184 9.908,1.652 11.56,1.101C13.211,0.55 16.073,-0.77 16.073,-0.77C16.073,-0.77 18.605,8.698 20.146,9.468C21.687,10.239 23.119,11.56 23.119,11.56L20.587,20.257C20.587,20.257 21.468,22.899 24.44,24.661C27.413,26.422 32.477,25.541 37.211,17.504C41.944,9.468 44.587,0.22 44.146,-5.615" style="fill:rgb(236,248,254);fill-rule:nonzero;"/>
    </g>
    <g transform="matrix(16.425,0,0,16.425,244.717,1640.3)">
        <path d="M0,-10.9C0.11,-10.57 6.495,-6.827 8.808,-6.386C11.119,-5.946 18.495,-6.716 19.597,-5.175C20.697,-3.633 21.248,-1.102 22.789,-0.662C24.33,-0.221 24.771,1.871 25.981,3.081C27.192,4.292 29.614,5.614 29.284,4.513C28.954,3.412 28.734,1.76 27.854,1.1C26.973,0.44 26.422,-1.762 26.422,-1.762C26.422,-1.762 28.294,0.109 29.505,1.651C30.716,3.192 31.927,4.513 32.367,4.513C32.808,4.513 36.11,4.403 34.129,2.641C32.146,0.88 31.266,-0.551 30.716,-0.992C30.165,-1.432 28.844,-4.074 28.844,-4.074C28.844,-4.074 32.257,-1.762 34.019,-0.331C35.78,1.1 37.211,1.43 37.432,0.66C37.651,-0.111 36.66,-1.652 35.56,-2.422C34.459,-3.194 31.156,-5.505 31.156,-5.505C31.156,-5.505 34.569,-5.395 35.78,-5.285C36.991,-5.175 40.624,-4.514 38.973,-5.725C37.321,-6.936 35.89,-8.038 34.349,-8.808C32.808,-9.579 28.734,-9.799 27.083,-10.46C25.432,-11.12 22.349,-13.102 20.367,-13.212C18.386,-13.322 11.229,-16.514 10.129,-16.405C9.027,-16.295 0,-10.9 0,-10.9" style="fill:rgb(166,118,105);fill-rule:nonzero;"/>
    </g>
    <g transform="matrix(16.425,0,0,16.425,1331.48,812.107)">
        <path d="M0,34.679C0,34.679 -3.082,27.303 -0.991,24.441C1.101,21.578 2.422,17.284 2.862,15.853C3.303,14.422 4.624,10.458 4.734,9.688C4.844,8.917 4.954,6.055 6.055,4.514C7.156,2.973 8.478,-1.651 9.357,-1.542C10.238,-1.431 11.119,-1.321 10.789,0.55C10.459,2.422 9.798,3.963 10.349,4.293C10.899,4.624 14.862,2.863 15.963,2.312C17.064,1.761 19.156,-0.991 20.037,-1.321C20.917,-1.651 21.798,-1.981 21.798,-1.651C21.798,-1.321 21.027,1.211 20.257,2.201C19.486,3.193 15.963,5.395 16.624,5.725C17.284,6.055 19.927,5.945 21.027,5.395C22.129,4.844 25.872,3.303 26.202,3.963C26.532,4.624 27.633,4.514 26.422,5.284C25.211,6.055 22.899,6.495 22.019,7.156C21.138,7.817 18.716,8.587 18.495,8.698C18.275,8.807 22.019,8.367 23.009,8.257C24,8.147 25.981,7.266 26.202,7.927C26.422,8.587 24.881,10.789 23.119,11.119C21.357,11.45 18.826,11.009 18.826,11.45C18.826,11.89 21.027,12.66 21.798,12.66C22.568,12.66 24.22,12.881 24.11,13.541C24,14.201 24.33,15.743 21.798,14.863C19.266,13.982 15.854,13.761 15.523,13.871C15.192,13.982 12.66,14.972 12,15.412C11.34,15.853 9.468,15.523 9.578,16.734C9.688,17.945 10.019,25.101 9.798,27.412C9.578,29.725 6.826,36 4.514,36.33C2.202,36.66 0,34.679 0,34.679" style="fill:rgb(166,118,105);fill-rule:nonzero;"/>
    </g>
    <g transform="matrix(16.425,0,0,16.425,1323.84,1446.42)">
        <path d="M0,-5.729C0,-5.385 -2.067,-1.408 -2.067,-1.408C-2.067,-1.408 -2.069,-0.229 1.034,-0.115C4.137,0 7.585,-4.125 7.699,-4.927C7.814,-5.729 5.286,-3.896 3.678,-4.125C2.068,-4.354 0,-5.729 0,-5.729" style="fill:rgb(218,133,184);fill-rule:nonzero;"/>
    </g>
    <g transform="matrix(4.87753,15.6841,15.6841,-4.87753,776.686,574.407)">
        <path d="M1.782,-1.181C1.782,-1.181 2.354,-0.451 2.346,0.632C2.337,1.717 1.782,2.365 1.782,2.365C1.782,2.365 0.989,1.552 1.066,0.62C1.144,-0.313 1.782,-1.181 1.782,-1.181" style="fill:white;fill-rule:nonzero;"/>
    </g>
    <g transform="matrix(16.425,0,0,16.425,670.228,634.54)">
        <path d="M0,-0.143C0,-0.143 -0.558,-0.825 -1.549,-0.721C-2.539,-0.618 -3.51,0.125 -3.51,0.125C-3.51,0.125 -2.478,0.682 -1.651,0.641C-0.826,0.6 -0.31,-0.061 -0.31,-0.061L0,-0.143Z" style="fill:white;fill-rule:nonzero;"/>
    </g>
    <g transform="matrix(0,16.425,16.425,0,795.657,585.725)">
        <clipPath id="_clip1">
            <path d="M0.146,-0.246C0.496,-1.114 1.364,-1.754 1.364,-1.754C1.364,-1.754 1.693,-0.886 1.364,0.146C1.033,1.178 0.311,1.632 0.311,1.632C0.311,1.632 0.023,1.069 0.023,0.423C0.023,0.203 0.056,-0.026 0.146,-0.246Z" clip-rule="nonzero"/>
        </clipPath>
        <g clip-path="url(#_clip1)">
            <path d="M0.744,-0.743C0.3,-0.743 -0.062,-0.41 -0.062,0C-0.062,0.411 0.3,0.744 0.744,0.744C1.188,0.744 1.549,0.411 1.549,0C1.549,-0.41 1.188,-0.743 0.744,-0.743" style="fill:rgb(35,31,32);fill-rule:nonzero;"/>
        </g>
    </g>
    <g transform="matrix(0,16.425,16.425,0,644.449,621.671)">
        <clipPath id="_clip2">
            <path d="M0.062,0.021C0.165,-0.969 0.908,-1.94 0.908,-1.94C0.908,-1.94 1.465,-0.908 1.425,-0.082C1.383,0.744 0.723,1.26 0.723,1.26L0.64,1.57C0.64,1.57 0.051,1.088 0.051,0.224C0.051,0.159 0.055,0.091 0.062,0.021Z" clip-rule="nonzero"/>
        </clipPath>
        <g clip-path="url(#_clip2)">
            <path d="M0.743,-0.744C0.299,-0.744 -0.062,-0.411 -0.062,0C-0.062,0.41 0.299,0.743 0.743,0.743C1.188,0.743 1.549,0.41 1.549,0C1.549,-0.411 1.188,-0.744 0.743,-0.744" style="fill:rgb(35,31,32);fill-rule:nonzero;"/>
        </g>
    </g>
    <g transform="matrix(16.425,0,0,16.425,766.66,583.383)">
        <path d="M0,1.497C0.213,1.187 0.462,0.904 0.742,0.647C1.03,0.403 1.353,0.175 1.744,0.076C2.15,-0.024 2.52,0.011 2.913,0.099C3.101,0.155 3.293,0.263 3.434,0.356C3.551,0.432 3.755,0.434 3.927,0.386C3.934,0.383 3.942,0.386 3.945,0.393C3.948,0.398 3.945,0.406 3.94,0.41C3.785,0.524 3.585,0.609 3.354,0.537C3.162,0.466 3.02,0.398 2.842,0.373C2.512,0.305 2.118,0.255 1.792,0.298C1.449,0.355 1.126,0.544 0.832,0.758C0.537,0.976 0.263,1.23 0.023,1.514C0.019,1.52 0.01,1.521 0.003,1.517C-0.003,1.512 -0.004,1.504 0,1.497" style="fill:rgb(35,31,32);fill-rule:nonzero;"/>
    </g>
    <g transform="matrix(16.425,0,0,16.425,670.052,624.779)">
        <path d="M0,0.46C-0.466,0.021 -1.146,-0.15 -1.728,0.029C-2.027,0.115 -2.318,0.251 -2.606,0.369C-2.889,0.503 -3.185,0.618 -3.453,0.772L-3.476,0.785C-3.485,0.791 -3.497,0.792 -3.507,0.789L-3.796,0.699C-3.804,0.696 -3.808,0.689 -3.806,0.681C-3.804,0.675 -3.799,0.671 -3.793,0.671L-3.49,0.649L-3.544,0.666C-3.063,0.183 -2.421,-0.048 -1.778,-0.179C-1.107,-0.332 -0.394,-0.059 0.021,0.441C0.026,0.447 0.025,0.457 0.02,0.462C0.014,0.466 0.005,0.465 0,0.46" style="fill:rgb(35,31,32);fill-rule:nonzero;"/>
    </g>
    <g transform="matrix(16.425,0,0,16.425,2049.35,2698.13)">
        <path d="M0,-59.671C0,-59.671 -1.541,-62.313 -0.66,-68.258C0.221,-74.203 -4.403,-73.542 -1.981,-78.166C0.44,-82.79 0.221,-85.652 0.661,-87.193C1.102,-88.734 -0.881,-92.478 3.083,-94.02C7.046,-95.561 9.028,-98.643 17.395,-97.542C25.762,-96.442 32.367,-91.817 33.468,-89.836C34.569,-87.855 39.413,-80.148 40.734,-76.845C42.056,-73.542 45.138,-70.9 48.44,-66.937C51.743,-62.974 53.725,-57.909 53.725,-57.909L52.404,-56.368C52.404,-56.368 56.367,-59.231 57.027,-56.148C57.688,-53.066 54.386,-51.744 55.707,-49.983C57.027,-48.221 58.789,-45.139 59.45,-43.377C60.11,-41.615 59.01,-35.231 58.349,-34.129C57.688,-33.028 60.991,-30.387 60.991,-30.387C60.991,-30.387 58.789,-25.983 61.432,-23.12C64.073,-20.258 63.193,-16.515 59.45,-9.028C55.707,-1.542 -28.623,38.972 -28.623,38.972C-28.623,38.972 -44.036,27.742 -42.936,19.815C-41.834,11.889 -44.036,10.127 -44.036,10.127C-44.036,10.127 -48.88,8.807 -51.082,5.944C-53.284,3.082 -53.725,0.659 -53.725,-0.221L-53.725,-5.066C-53.725,-5.066 -57.027,-5.285 -58.349,-6.607C-59.669,-7.928 -62.531,-23.341 -59.009,-32.148C-55.485,-40.955 -53.944,-50.423 -47.56,-51.744C-41.174,-53.066 -38.531,-52.845 -34.788,-53.066C-31.046,-53.285 -29.944,-54.386 -28.403,-54.826C-26.862,-55.267 -25.761,-56.588 -22.458,-56.148C-19.155,-55.707 -18.495,-56.368 -17.395,-56.588C-16.293,-56.809 -14.092,-59.45 -9.688,-59.891C-5.284,-60.331 0,-59.671 0,-59.671" style="fill:rgb(241,114,172);fill-rule:nonzero;"/>
    </g>
    <g transform="matrix(16.425,0,0,16.425,-5229.04,-6824.78)">
        <clipPath id="_clip3">
            <path d="M446.213,485.763C442.249,487.304 444.231,491.048 443.791,492.589C443.35,494.13 443.57,496.992 441.148,501.616C438.727,506.24 443.35,505.579 442.47,511.524C441.589,517.47 443.129,520.111 443.129,520.111C443.129,520.111 437.845,519.451 433.442,519.892C429.038,520.332 426.837,522.974 425.735,523.195C424.634,523.414 423.975,524.076 420.672,523.635C417.369,523.195 416.267,524.516 414.726,524.956C413.185,525.397 412.084,526.498 408.342,526.717C404.599,526.938 401.956,526.717 395.57,528.038C389.185,529.36 387.644,538.828 384.121,547.635C380.598,556.442 383.46,571.855 384.781,573.176C386.103,574.497 389.405,574.717 389.405,574.717L389.405,579.562C389.405,580.442 389.846,582.865 392.047,585.727C394.249,588.589 399.093,589.909 399.093,589.909C399.093,589.909 401.296,591.671 400.194,599.597C399.093,607.525 414.507,618.754 414.507,618.754C414.507,618.754 498.837,578.24 502.58,570.754C506.323,563.268 507.203,559.525 504.562,556.662C501.918,553.8 504.121,549.395 504.121,549.395C504.121,549.395 500.819,546.754 501.478,545.653C502.14,544.552 503.24,538.167 502.58,536.406C501.918,534.644 500.157,531.562 498.837,529.8C497.516,528.038 500.819,526.717 500.157,523.635C499.496,520.552 495.534,523.414 495.534,523.414L496.854,521.873C496.854,521.873 494.873,516.809 491.57,512.846C488.267,508.882 485.185,506.24 483.864,502.937C482.543,499.635 477.699,491.928 476.598,489.947C475.497,487.965 468.891,483.341 460.525,482.24C459.301,482.079 458.215,482.008 457.239,482.008C451.537,482.008 449.596,484.447 446.213,485.763Z" clip-rule="nonzero"/>
        </clipPath>
        <g clip-path="url(#_clip3)">
            <g transform="matrix(0,1,1,0,392.464,516.365)">
                <path d="M0.826,-0.825C0.37,-0.825 0,-0.456 0,0C0,0.456 0.37,0.826 0.826,0.826C1.282,0.826 1.651,0.456 1.651,0C1.651,-0.456 1.282,-0.825 0.826,-0.825" style="fill:rgb(169,110,174);fill-rule:nonzero;"/>
            </g>
            <g transform="matrix(0,1,1,0,395.216,520.879)">
                <path d="M0.826,-0.825C0.37,-0.825 0,-0.456 0,0C0,0.456 0.37,0.826 0.826,0.826C1.282,0.826 1.651,0.456 1.651,0C1.651,-0.456 1.282,-0.825 0.826,-0.825" style="fill:rgb(169,110,174);fill-rule:nonzero;"/>
            </g>
            <g transform="matrix(0,1,1,0,400.171,517.577)">
                <path d="M0.826,-0.825C0.37,-0.825 0,-0.456 0,0C0,0.456 0.37,0.826 0.826,0.826C1.282,0.826 1.651,0.456 1.651,0C1.651,-0.456 1.282,-0.825 0.826,-0.825" style="fill:rgb(169,110,174);fill-rule:nonzero;"/>
            </g>
            <g transform="matrix(0,1,1,0,402.922,522.09)">
                <path d="M0.826,-0.825C0.37,-0.825 0,-0.455 0,0.001C0,0.457 0.37,0.826 0.826,0.826C1.282,0.826 1.651,0.457 1.651,0.001C1.651,-0.455 1.282,-0.825 0.826,-0.825" style="fill:rgb(169,110,174);fill-rule:nonzero;"/>
            </g>
            <g transform="matrix(0,1,1,0,407.876,518.787)">
                <path d="M0.826,-0.825C0.37,-0.825 0,-0.455 0,0.001C0,0.457 0.37,0.826 0.826,0.826C1.282,0.826 1.651,0.457 1.651,0.001C1.651,-0.455 1.282,-0.825 0.826,-0.825" style="fill:rgb(169,110,174);fill-rule:nonzero;"/>
            </g>
            <g transform="matrix(0,1,1,0,410.63,523.302)">
                <path d="M0.826,-0.826C0.37,-0.826 -0.001,-0.457 -0.001,-0C-0.001,0.455 0.37,0.826 0.826,0.826C1.282,0.826 1.652,0.455 1.652,-0C1.652,-0.457 1.282,-0.826 0.826,-0.826" style="fill:rgb(169,110,174);fill-rule:nonzero;"/>
            </g>
            <g transform="matrix(0,1,1,0,415.583,519.998)">
                <path d="M0.826,-0.825C0.37,-0.825 0,-0.456 0,0C0,0.456 0.37,0.826 0.826,0.826C1.282,0.826 1.651,0.456 1.651,0C1.651,-0.456 1.282,-0.825 0.826,-0.825" style="fill:rgb(169,110,174);fill-rule:nonzero;"/>
            </g>
            <g transform="matrix(0,1,1,0,423.291,521.21)">
                <path d="M0.825,-0.826C0.369,-0.826 0,-0.456 0,0C0,0.455 0.369,0.825 0.825,0.825C1.281,0.825 1.651,0.455 1.651,0C1.651,-0.456 1.281,-0.826 0.825,-0.826" style="fill:rgb(169,110,174);fill-rule:nonzero;"/>
            </g>
        </g>
    </g>
    <g transform="matrix(16.425,0,0,16.425,2224.76,3927.72)">
        <path d="M0,-78.605C0,-78.605 -4.074,-85.43 -5.835,-87.853C-7.597,-90.275 -10.239,-97.541 -8.697,-97.541C-7.156,-97.541 -10.899,-102.384 -11.12,-103.045C-11.34,-103.706 -15.083,-110.091 -13.102,-114.275C-11.12,-118.459 -11.561,-121.1 -9.799,-123.962C-8.037,-126.825 -9.358,-129.908 -3.854,-131.669C1.651,-133.43 5.834,-136.954 13.32,-135.853C20.807,-134.751 34.018,-123.962 35.779,-121.981C37.541,-120 36.439,-113.834 39.082,-111.413C41.725,-108.99 45.247,-106.127 44.807,-103.706C44.366,-101.284 45.027,-98.862 48.33,-96.66C51.633,-94.459 65.944,-84.991 69.468,-80.586C72.99,-76.183 87.963,-53.504 88.183,-45.357C88.403,-37.21 87.302,-34.568 88.183,-30.605C89.063,-26.642 91.045,-21.797 86.861,-12.991C82.679,-4.183 70.128,7.046 66.825,9.909C63.522,12.771 50.972,21.579 44.587,25.541C38.201,29.505 23.89,33.909 23.89,33.909L8.917,36.55C8.917,36.55 8.036,40.955 6.055,45.138C4.073,49.322 0.109,51.303 -1.432,51.963C-2.973,52.624 -8.037,54.826 -8.037,56.587C-8.037,58.349 -14.423,54.385 -14.643,51.744C-14.863,49.101 -21.028,44.257 -21.028,38.312C-21.028,32.368 -26.312,29.065 -28.734,19.597C-31.156,10.128 -34.459,3.303 -35.78,-3.963C-37.102,-11.229 -46.349,-23.119 -46.349,-23.119C-46.349,-23.119 -47.891,-39.853 -43.267,-43.596C-38.643,-47.339 -32.478,-47.339 -31.377,-48C-30.275,-48.66 -28.954,-54.825 -26.532,-57.467C-24.11,-60.11 -26.092,-60.55 -16.184,-66.054C-6.275,-71.559 0,-78.605 0,-78.605" style="fill:rgb(218,133,184);fill-rule:nonzero;"/>
    </g>
    <g transform="matrix(16.425,0,0,16.425,-5229.04,-6824.78)">
        <clipPath id="_clip4">
            <path d="M449.956,522.974C444.451,524.735 445.772,527.819 444.01,530.681C442.249,533.543 442.689,536.184 440.707,540.368C438.727,544.552 442.47,550.938 442.689,551.598C442.91,552.259 446.653,557.103 445.112,557.103C443.57,557.103 446.213,564.369 447.974,566.791C449.735,569.213 453.81,576.038 453.81,576.038C453.81,576.038 447.534,583.084 437.626,588.589C427.718,594.093 429.699,594.533 427.277,597.176C424.855,599.819 423.534,605.984 422.432,606.643C421.331,607.304 415.166,607.304 410.543,611.047C405.919,614.79 407.461,631.525 407.461,631.525C407.461,631.525 416.708,643.414 418.029,650.68C419.35,657.946 422.654,664.772 425.074,674.241C427.496,683.708 432.781,687.011 432.781,692.955C432.781,698.901 438.946,703.745 439.167,706.387C439.386,709.028 445.772,712.992 445.772,711.231C445.772,709.469 450.837,707.268 452.378,706.607C453.919,705.947 457.882,703.965 459.864,699.782C461.846,695.598 462.726,691.193 462.726,691.193L477.699,688.552C477.699,688.552 492.01,684.149 498.397,680.184C504.781,676.222 517.332,667.414 520.635,664.552C523.937,661.689 536.488,650.46 540.67,641.653C544.855,632.846 542.873,628.001 541.992,624.038C541.112,620.075 542.212,617.433 541.992,609.286C541.772,601.139 526.8,578.46 523.277,574.057C519.754,569.653 505.442,560.185 502.14,557.983C498.837,555.782 498.175,553.36 498.616,550.938C499.056,548.516 495.534,545.653 492.891,543.23C490.249,540.809 491.35,534.644 489.588,532.663C487.827,530.681 474.616,519.892 467.13,518.79C466.15,518.646 465.227,518.581 464.351,518.581C458.527,518.581 454.74,521.443 449.956,522.974Z" clip-rule="nonzero"/>
        </clipPath>
        <g clip-path="url(#_clip4)">
            <g transform="matrix(1,0,0,1,425.888,503.002)">
                <path d="M0,55.354C-0.051,55.354 -0.103,55.346 -0.153,55.331C-0.435,55.247 -0.593,54.95 -0.508,54.669L2.376,45.118C2.448,44.875 2.693,44.715 2.938,44.743C5.631,45.019 8.821,45.161 9.489,44.928C9.862,44.085 11.558,39.351 12.658,36.226C12.749,35.97 13.018,35.818 13.284,35.887L19.79,37.464L21.475,29.975C21.508,29.827 21.603,29.7 21.735,29.626C21.869,29.554 22.027,29.541 22.17,29.591C23.369,30.016 24.646,30.297 25.085,30.316C25.36,29.615 25.75,26.539 25.97,23.908C25.982,23.761 26.055,23.626 26.17,23.536C26.284,23.444 26.437,23.405 26.577,23.426L29.425,23.852L29.754,17.784C29.765,17.592 29.876,17.422 30.048,17.336L33.168,15.783L32.999,10.495C32.994,10.352 33.048,10.213 33.146,10.11L34.949,8.234C34.978,8.205 35.009,8.178 35.044,8.157L41.574,3.928L40.767,0.715C40.695,0.43 40.867,0.142 41.151,0.071C41.444,0 41.725,0.173 41.796,0.456L42.696,4.038C42.752,4.258 42.661,4.49 42.47,4.613L35.672,9.014L34.067,10.685L34.24,16.089C34.247,16.296 34.133,16.489 33.946,16.582L30.798,18.15L30.454,24.492C30.446,24.641 30.375,24.781 30.26,24.875C30.144,24.969 29.985,25.008 29.846,24.989L26.979,24.56C26.435,30.76 25.922,31.083 25.7,31.223C25.244,31.509 24.131,31.365 22.38,30.786L20.707,38.224C20.676,38.363 20.591,38.484 20.47,38.559C20.349,38.634 20.201,38.659 20.064,38.624L13.5,37.032C12.851,38.871 10.715,44.895 10.383,45.52C10.229,45.812 9.875,46.488 3.266,45.843L0.508,54.976C0.438,55.206 0.229,55.354 0,55.354" style="fill:rgb(231,138,185);fill-rule:nonzero;"/>
            </g>
            <g transform="matrix(1,0,0,1,450.087,527.093)">
                <path d="M-25.04,30.41C-25.091,30.41 -25.143,30.403 -25.193,30.387C-25.475,30.303 -25.633,30.006 -25.548,29.726L-22.663,20.174C-22.591,19.931 -22.353,19.778 -22.102,19.799C-19.408,20.075 -16.221,20.218 -15.55,19.985C-15.17,19.125 -13.371,14.161 -12.2,10.882C-12.105,10.615 -11.82,10.471 -11.544,10.553L-5.242,12.489L-3.564,5.031C-3.531,4.883 -3.437,4.756 -3.304,4.683C-3.17,4.61 -3.012,4.597 -2.869,4.648C-1.671,5.072 -0.38,5.379 0.046,5.372C0.321,4.671 0.711,1.595 0.93,-1.036C0.942,-1.182 1.015,-1.317 1.13,-1.408C1.245,-1.5 1.397,-1.54 1.537,-1.517L4.386,-1.092L4.715,-7.161C4.726,-7.36 4.847,-7.536 5.028,-7.617L8.128,-9.006L7.96,-14.45C7.955,-14.593 8.009,-14.731 8.107,-14.835L9.91,-16.711C9.938,-16.74 9.97,-16.766 10.005,-16.788L16.535,-21.016L15.727,-24.228C15.655,-24.512 15.827,-24.802 16.111,-24.873C16.397,-24.942 16.685,-24.771 16.756,-24.488L17.657,-20.907C17.713,-20.686 17.622,-20.455 17.431,-20.332L10.633,-15.93L9.027,-14.26L9.2,-8.683C9.207,-8.469 9.083,-8.27 8.887,-8.182L5.758,-6.78L5.415,-0.452C5.407,-0.303 5.336,-0.163 5.221,-0.069C5.104,0.026 4.946,0.065 4.807,0.045L1.939,-0.384C1.396,5.816 0.884,6.139 0.661,6.28C0.205,6.566 -0.91,6.419 -2.659,5.842L-4.332,13.28C-4.364,13.425 -4.455,13.549 -4.583,13.623C-4.712,13.697 -4.864,13.715 -5.006,13.672L-11.371,11.717C-12.063,13.649 -14.326,19.951 -14.655,20.575C-14.81,20.868 -15.171,21.542 -21.773,20.9L-24.532,30.032C-24.602,30.262 -24.812,30.41 -25.04,30.41" style="fill:white;fill-rule:nonzero;"/>
            </g>
            <g transform="matrix(1,0,0,1,424.61,501.518)">
                <path d="M0,54.725C-0.05,54.725 -0.1,54.718 -0.15,54.704C-0.427,54.621 -0.584,54.329 -0.501,54.052L2.327,44.609C2.399,44.37 2.634,44.215 2.882,44.24C5.521,44.512 8.646,44.654 9.302,44.423C9.666,43.59 11.329,38.909 12.409,35.819C12.498,35.566 12.771,35.422 13.026,35.484L19.401,37.042L21.053,29.638C21.085,29.493 21.179,29.367 21.311,29.294C21.442,29.222 21.6,29.21 21.738,29.26C22.911,29.679 24.173,29.976 24.592,29.976C24.862,29.283 25.244,26.242 25.46,23.639C25.472,23.495 25.543,23.362 25.656,23.272C25.771,23.182 25.913,23.145 26.059,23.165L28.848,23.585L29.171,17.583C29.181,17.396 29.29,17.229 29.458,17.145L32.518,15.608L32.352,10.377C32.347,10.238 32.399,10.102 32.496,10L34.264,8.146C34.291,8.117 34.322,8.09 34.355,8.069L40.76,3.887L39.967,0.707C39.896,0.427 40.067,0.143 40.347,0.074C40.631,0 40.912,0.174 40.98,0.454L41.864,3.995C41.919,4.211 41.83,4.438 41.644,4.559L34.979,8.911L33.403,10.563L33.573,15.909C33.58,16.112 33.468,16.301 33.285,16.392L30.198,17.943L29.86,24.216C29.853,24.363 29.783,24.5 29.669,24.593C29.554,24.686 29.406,24.727 29.261,24.704L26.454,24.282C25.92,30.41 25.419,30.729 25.201,30.868C24.75,31.152 23.658,31.007 21.945,30.438L20.305,37.791C20.274,37.928 20.19,38.047 20.07,38.121C19.953,38.196 19.81,38.219 19.671,38.185L13.239,36.612C12.602,38.43 10.508,44.385 10.184,45.002C10.032,45.291 9.68,45.96 3.205,45.323L0.501,54.353C0.433,54.579 0.226,54.725 0,54.725" style="fill:rgb(231,138,185);fill-rule:nonzero;"/>
            </g>
            <g transform="matrix(1,0,0,1,423.785,500.675)">
                <path d="M0,54.724C-0.05,54.724 -0.1,54.717 -0.15,54.703C-0.427,54.62 -0.584,54.328 -0.501,54.051L2.327,44.609C2.4,44.37 2.625,44.21 2.882,44.24C5.521,44.512 8.645,44.654 9.302,44.423C9.674,43.575 11.438,38.665 12.586,35.422C12.68,35.16 12.966,35.012 13.233,35.098L19.408,37.01L21.053,29.638C21.085,29.493 21.179,29.367 21.311,29.294C21.442,29.222 21.601,29.21 21.738,29.26C22.883,29.669 24.108,29.976 24.561,29.976C24.571,29.976 24.582,29.976 24.593,29.975C24.863,29.283 25.245,26.242 25.461,23.639C25.473,23.495 25.544,23.362 25.657,23.272C25.771,23.182 25.915,23.145 26.06,23.165L28.848,23.585L29.171,17.582C29.181,17.388 29.299,17.215 29.478,17.134L32.518,15.76L32.352,10.377C32.348,10.237 32.399,10.101 32.495,10L34.263,8.145C34.291,8.116 34.322,8.089 34.355,8.068L40.76,3.887L39.967,0.707C39.896,0.427 40.067,0.143 40.347,0.074C40.637,0 40.912,0.174 40.98,0.453L41.864,3.995C41.919,4.211 41.83,4.438 41.644,4.559L34.979,8.91L33.403,10.563L33.573,16.078C33.58,16.288 33.459,16.483 33.266,16.57L30.197,17.956L29.86,24.216C29.853,24.363 29.783,24.5 29.669,24.593C29.554,24.686 29.407,24.726 29.261,24.704L26.455,24.282C25.921,30.41 25.419,30.729 25.201,30.868C24.753,31.152 23.658,31.007 21.945,30.438L20.305,37.791C20.273,37.933 20.184,38.056 20.058,38.129C19.931,38.203 19.778,38.219 19.641,38.176L13.404,36.245C12.726,38.156 10.507,44.385 10.184,45.001C10.032,45.292 9.679,45.959 3.205,45.323L0.501,54.352C0.433,54.578 0.226,54.724 0,54.724" style="fill:white;fill-rule:nonzero;"/>
            </g>
            <g transform="matrix(1,0,0,1,447.81,524.238)">
                <path d="M-24.77,30.017C-24.819,30.017 -24.871,30.01 -24.922,29.995C-25.199,29.911 -25.355,29.618 -25.271,29.34L-22.418,19.915C-22.346,19.675 -22.109,19.518 -21.863,19.546C-19.201,19.817 -16.043,19.957 -15.382,19.728C-15.014,18.896 -13.336,14.222 -12.248,11.138C-12.157,10.884 -11.89,10.744 -11.63,10.803L-5.193,12.362L-3.527,4.97C-3.494,4.824 -3.4,4.699 -3.27,4.627C-3.138,4.553 -2.982,4.54 -2.841,4.591C-1.651,5.011 -0.349,5.336 0.045,5.305C0.317,4.614 0.702,1.578 0.92,-1.019C0.932,-1.163 1.003,-1.296 1.117,-1.386C1.229,-1.476 1.377,-1.516 1.52,-1.494L4.338,-1.073L4.663,-7.063C4.673,-7.251 4.784,-7.42 4.953,-7.504L8.04,-9.038L7.872,-14.256C7.867,-14.398 7.921,-14.535 8.019,-14.637L9.802,-16.489C9.83,-16.517 9.861,-16.543 9.896,-16.565L16.354,-20.737L15.555,-23.908C15.484,-24.188 15.654,-24.473 15.936,-24.544C16.218,-24.617 16.501,-24.444 16.572,-24.163L17.464,-20.628C17.519,-20.411 17.429,-20.182 17.239,-20.06L10.516,-15.717L8.928,-14.069L9.1,-8.735C9.106,-8.53 8.992,-8.339 8.809,-8.248L5.693,-6.701L5.354,-0.441C5.346,-0.293 5.276,-0.156 5.161,-0.063C5.047,0.031 4.899,0.071 4.753,0.049L1.917,-0.373C1.378,5.745 0.872,6.064 0.653,6.202C0.2,6.489 -0.902,6.341 -2.633,5.771L-4.287,13.112C-4.318,13.25 -4.402,13.368 -4.522,13.442C-4.641,13.517 -4.786,13.541 -4.922,13.506L-11.416,11.934C-12.059,13.75 -14.172,19.695 -14.498,20.312C-14.651,20.601 -15.004,21.269 -21.539,20.631L-24.268,29.645C-24.336,29.872 -24.544,30.017 -24.77,30.017" style="fill:rgb(231,138,185);fill-rule:nonzero;"/>
            </g>
            <g transform="matrix(1,0,0,1,446.977,523.397)">
                <path d="M-24.769,30.016C-24.818,30.016 -24.87,30.009 -24.921,29.994C-25.198,29.91 -25.354,29.617 -25.271,29.339L-22.417,19.914C-22.345,19.673 -22.114,19.521 -21.862,19.545C-19.199,19.816 -16.042,19.956 -15.381,19.727C-15.005,18.878 -13.226,13.98 -12.067,10.743C-11.974,10.479 -11.688,10.335 -11.42,10.418L-5.186,12.329L-3.526,4.969C-3.493,4.823 -3.399,4.698 -3.269,4.626C-3.137,4.552 -2.982,4.54 -2.84,4.59C-1.653,5.008 -0.397,5.348 0.045,5.304C0.318,4.614 0.703,1.578 0.921,-1.019C0.933,-1.163 1.004,-1.296 1.118,-1.386C1.231,-1.477 1.376,-1.515 1.521,-1.494L4.339,-1.074L4.664,-7.064C4.675,-7.26 4.794,-7.434 4.974,-7.514L8.041,-8.885L7.873,-14.257C7.869,-14.399 7.922,-14.536 8.02,-14.638L9.803,-16.49C9.831,-16.518 9.862,-16.544 9.896,-16.566L16.355,-20.738L15.556,-23.909C15.485,-24.189 15.655,-24.474 15.937,-24.545C16.219,-24.617 16.502,-24.445 16.573,-24.164L17.465,-20.629C17.52,-20.412 17.43,-20.183 17.24,-20.061L10.517,-15.718L8.929,-14.069L9.101,-8.567C9.107,-8.354 8.984,-8.159 8.79,-8.072L5.694,-6.687L5.354,-0.442C5.347,-0.294 5.277,-0.157 5.163,-0.064C5.049,0.03 4.898,0.07 4.754,0.048L1.918,-0.373C1.379,5.746 0.872,6.063 0.652,6.202C0.201,6.485 -0.903,6.338 -2.632,5.77L-4.286,13.111C-4.318,13.253 -4.408,13.377 -4.534,13.45C-4.662,13.523 -4.814,13.538 -4.951,13.498L-11.248,11.568C-11.932,13.473 -14.171,19.695 -14.497,20.311C-14.649,20.6 -15.003,21.267 -21.538,20.63L-24.267,29.644C-24.335,29.871 -24.543,30.016 -24.769,30.016" style="fill:white;fill-rule:nonzero;"/>
            </g>
            <g transform="matrix(1,0,0,1,446.058,522.493)">
                <path d="M-24.281,29.678C-24.33,29.678 -24.38,29.671 -24.43,29.657C-24.703,29.574 -24.857,29.286 -24.776,29.013L-21.979,19.694C-21.908,19.456 -21.67,19.303 -21.432,19.328C-18.82,19.597 -15.728,19.737 -15.08,19.51C-14.719,18.688 -13.074,14.068 -12.007,11.018C-11.918,10.768 -11.656,10.627 -11.397,10.687L-5.09,12.226L-3.457,4.919C-3.425,4.775 -3.332,4.651 -3.202,4.579C-3.072,4.507 -2.919,4.495 -2.779,4.545C-1.617,4.959 -0.337,5.24 0.044,5.251C0.312,4.567 0.689,1.566 0.902,-1.003C0.914,-1.145 0.984,-1.276 1.097,-1.365C1.208,-1.453 1.349,-1.491 1.494,-1.47L4.254,-1.055L4.573,-6.978C4.583,-7.164 4.691,-7.33 4.857,-7.413L7.884,-8.928L7.719,-14.091C7.715,-14.229 7.767,-14.364 7.862,-14.464L9.61,-16.294C9.638,-16.323 9.668,-16.348 9.701,-16.37L16.037,-20.496L15.252,-23.634C15.183,-23.911 15.351,-24.191 15.628,-24.26C15.904,-24.333 16.185,-24.162 16.254,-23.884L17.128,-20.389C17.182,-20.176 17.094,-19.952 16.909,-19.832L10.315,-15.537L8.759,-13.907L8.927,-8.632C8.933,-8.43 8.821,-8.244 8.642,-8.153L5.589,-6.624L5.255,-0.433C5.247,-0.288 5.179,-0.152 5.065,-0.06C4.952,0.031 4.808,0.071 4.662,0.05L1.885,-0.367C1.356,5.681 0.86,5.995 0.645,6.132C0.203,6.414 -0.88,6.271 -2.575,5.708L-4.197,12.965C-4.228,13.101 -4.311,13.218 -4.429,13.291C-4.546,13.366 -4.688,13.389 -4.823,13.355L-11.188,11.801C-11.817,13.596 -13.889,19.473 -14.209,20.082C-14.359,20.368 -14.703,21.031 -21.112,20.399L-23.786,29.31C-23.854,29.533 -24.059,29.678 -24.281,29.678" style="fill:rgb(231,138,185);fill-rule:nonzero;"/>
            </g>
            <g transform="matrix(1,0,0,1,445.243,521.659)">
                <path d="M-24.282,29.68C-24.331,29.68 -24.381,29.673 -24.431,29.659C-24.704,29.576 -24.858,29.288 -24.777,29.015L-21.979,19.696C-21.908,19.459 -21.678,19.299 -21.432,19.33C-18.821,19.6 -15.729,19.74 -15.081,19.512C-14.712,18.674 -12.967,13.83 -11.831,10.629C-11.739,10.368 -11.455,10.225 -11.192,10.309L-5.084,12.197L-3.457,4.92C-3.425,4.776 -3.332,4.652 -3.202,4.58C-3.072,4.508 -2.919,4.495 -2.779,4.546C-1.619,4.961 -0.349,5.282 0.044,5.253C0.312,4.569 0.689,1.568 0.902,-1.001C0.914,-1.143 0.984,-1.274 1.097,-1.363C1.209,-1.451 1.348,-1.49 1.494,-1.468L4.253,-1.053L4.572,-6.976C4.583,-7.17 4.699,-7.341 4.876,-7.42L7.883,-8.776L7.719,-14.09C7.715,-14.227 7.767,-14.362 7.862,-14.462L9.61,-16.292C9.638,-16.321 9.668,-16.346 9.701,-16.368L16.037,-20.494L15.252,-23.632C15.183,-23.909 15.351,-24.189 15.628,-24.258C15.902,-24.333 16.185,-24.16 16.254,-23.882L17.128,-20.387C17.182,-20.174 17.094,-19.95 16.909,-19.83L10.315,-15.535L8.758,-13.905L8.927,-8.463C8.933,-8.255 8.813,-8.062 8.622,-7.976L5.587,-6.607L5.254,-0.431C5.246,-0.286 5.178,-0.15 5.064,-0.058C4.951,0.033 4.806,0.072 4.661,0.052L1.885,-0.365C1.356,5.683 0.86,5.997 0.645,6.134C0.204,6.416 -0.879,6.272 -2.575,5.709L-4.198,12.967C-4.229,13.108 -4.318,13.229 -4.443,13.301C-4.567,13.374 -4.716,13.392 -4.854,13.348L-11.024,11.442C-11.694,13.326 -13.891,19.476 -14.21,20.084C-14.359,20.37 -14.71,21.032 -21.112,20.401L-23.787,29.312C-23.854,29.535 -24.06,29.68 -24.282,29.68" style="fill:white;fill-rule:nonzero;"/>
            </g>
            <g transform="matrix(1,0,0,1,419.283,495.64)">
                <path d="M0,55.354C-0.051,55.354 -0.103,55.346 -0.153,55.331C-0.435,55.247 -0.593,54.95 -0.508,54.669L2.376,45.119C2.448,44.876 2.688,44.716 2.938,44.744C5.63,45.019 8.821,45.162 9.489,44.929C9.861,44.086 11.558,39.351 12.658,36.226C12.749,35.97 13.019,35.82 13.284,35.887L19.79,37.464L21.475,29.976C21.508,29.828 21.603,29.701 21.735,29.627C21.869,29.554 22.027,29.542 22.17,29.592C23.367,30.016 24.651,30.315 25.085,30.316C25.36,29.616 25.75,26.54 25.97,23.908C25.982,23.761 26.055,23.626 26.17,23.536C26.284,23.444 26.435,23.405 26.577,23.426L29.425,23.852L29.754,17.784C29.765,17.592 29.876,17.422 30.048,17.336L33.168,15.783L32.999,10.495C32.994,10.352 33.048,10.213 33.146,10.11L34.949,8.234C34.978,8.205 35.009,8.178 35.044,8.157L41.574,3.928L40.766,0.715C40.694,0.43 40.866,0.142 41.15,0.071C41.436,0 41.724,0.172 41.795,0.456L42.696,4.038C42.752,4.258 42.661,4.49 42.47,4.613L35.672,9.014L34.067,10.685L34.24,16.089C34.247,16.296 34.133,16.489 33.946,16.582L30.798,18.15L30.454,24.492C30.446,24.641 30.375,24.781 30.26,24.875C30.143,24.969 29.988,25.01 29.846,24.989L26.979,24.56C26.435,30.76 25.922,31.083 25.7,31.223C25.243,31.512 24.127,31.363 22.38,30.787L20.707,38.224C20.676,38.363 20.591,38.484 20.47,38.559C20.349,38.634 20.202,38.659 20.064,38.624L13.5,37.032C12.851,38.871 10.714,44.894 10.384,45.52C10.228,45.812 9.871,46.49 3.266,45.843L0.508,54.976C0.438,55.206 0.229,55.354 0,55.354" style="fill:rgb(231,138,185);fill-rule:nonzero;"/>
            </g>
            <g transform="matrix(1,0,0,1,418.441,494.79)">
                <path d="M0,55.352C-0.051,55.352 -0.103,55.344 -0.153,55.329C-0.435,55.245 -0.593,54.948 -0.508,54.667L2.377,45.116C2.449,44.873 2.682,44.719 2.938,44.741C5.632,45.017 8.822,45.159 9.49,44.926C9.87,44.067 11.669,39.104 12.84,35.824C12.936,35.556 13.221,35.412 13.496,35.495L19.798,37.43L21.476,29.973C21.509,29.825 21.604,29.698 21.736,29.624C21.87,29.551 22.028,29.539 22.171,29.589C23.369,30.013 24.648,30.317 25.086,30.314C25.361,29.613 25.751,26.537 25.97,23.906C25.982,23.759 26.055,23.624 26.17,23.534C26.284,23.442 26.436,23.404 26.577,23.424L29.426,23.85L29.755,17.782C29.766,17.582 29.887,17.407 30.068,17.326L33.168,15.936L32.999,10.493C32.994,10.35 33.048,10.211 33.146,10.108L34.949,8.231C34.978,8.202 35.009,8.175 35.044,8.154L41.575,3.926L40.767,0.713C40.695,0.428 40.867,0.14 41.151,0.069C41.44,0 41.725,0.17 41.796,0.454L42.697,4.036C42.753,4.256 42.662,4.488 42.471,4.611L35.672,9.011L34.067,10.683L34.24,16.258C34.247,16.473 34.123,16.671 33.927,16.759L30.798,18.162L30.455,24.49C30.447,24.639 30.376,24.779 30.261,24.873C30.144,24.967 29.988,25.006 29.847,24.987L26.979,24.558C26.436,30.758 25.923,31.081 25.701,31.221C25.242,31.506 24.127,31.362 22.381,30.784L20.708,38.222C20.676,38.367 20.585,38.491 20.457,38.565C20.328,38.64 20.176,38.656 20.034,38.614L13.669,36.659C12.978,38.59 10.714,44.894 10.385,45.517C10.23,45.81 9.875,46.486 3.267,45.841L0.508,54.974C0.438,55.204 0.229,55.352 0,55.352" style="fill:white;fill-rule:nonzero;"/>
            </g>
            <g transform="matrix(1,0,0,1,418.005,494.158)">
                <path d="M0,54.724C-0.05,54.724 -0.1,54.717 -0.15,54.703C-0.427,54.62 -0.584,54.328 -0.501,54.051L2.326,44.609C2.399,44.37 2.622,44.22 2.881,44.24C5.519,44.511 8.644,44.65 9.302,44.423C9.666,43.59 11.329,38.908 12.408,35.818C12.497,35.565 12.766,35.422 13.025,35.483L19.401,37.041L21.053,29.637C21.085,29.492 21.179,29.366 21.311,29.293C21.443,29.221 21.6,29.209 21.738,29.259C22.911,29.678 24.186,30.03 24.592,29.975C24.862,29.282 25.244,26.241 25.46,23.638C25.472,23.494 25.543,23.361 25.656,23.271C25.771,23.181 25.915,23.144 26.059,23.164L28.848,23.584L29.171,17.582C29.181,17.395 29.29,17.228 29.458,17.144L32.518,15.607L32.352,10.376C32.347,10.237 32.399,10.101 32.495,9.999L34.262,8.145C34.29,8.116 34.321,8.089 34.354,8.068L40.76,3.887L39.967,0.707C39.896,0.427 40.067,0.143 40.347,0.074C40.634,0 40.911,0.174 40.98,0.453L41.864,3.995C41.919,4.211 41.83,4.438 41.644,4.559L34.978,8.91L33.403,10.562L33.573,15.908C33.58,16.111 33.468,16.3 33.285,16.391L30.198,17.942L29.86,24.215C29.853,24.362 29.783,24.499 29.669,24.592C29.555,24.686 29.405,24.726 29.261,24.703L26.454,24.281C25.92,30.409 25.419,30.728 25.201,30.867C24.752,31.152 23.661,31.008 21.945,30.437L20.305,37.79C20.274,37.927 20.19,38.046 20.07,38.12C19.951,38.195 19.805,38.216 19.671,38.184L13.238,36.611C12.602,38.429 10.508,44.383 10.184,45.001C10.032,45.291 9.682,45.959 3.204,45.323L0.501,54.352C0.433,54.578 0.226,54.724 0,54.724" style="fill:rgb(231,138,185);fill-rule:nonzero;"/>
            </g>
            <g transform="matrix(1,0,0,1,417.179,493.315)">
                <path d="M0,54.724C-0.05,54.724 -0.1,54.717 -0.15,54.703C-0.427,54.62 -0.584,54.328 -0.501,54.051L2.327,44.608C2.4,44.368 2.627,44.215 2.882,44.239C5.521,44.51 8.645,44.652 9.302,44.422C9.674,43.574 11.438,38.665 12.586,35.422C12.68,35.16 12.968,35.01 13.233,35.098L19.408,37.009L21.053,29.637C21.085,29.492 21.179,29.366 21.311,29.293C21.443,29.221 21.6,29.209 21.738,29.259C22.883,29.668 24.108,29.975 24.561,29.975C24.571,29.975 24.582,29.975 24.593,29.974C24.863,29.282 25.245,26.241 25.461,23.638C25.473,23.494 25.544,23.361 25.657,23.271C25.771,23.181 25.917,23.144 26.06,23.164L28.848,23.584L29.171,17.582C29.181,17.388 29.299,17.215 29.478,17.134L32.518,15.76L32.352,10.375C32.348,10.236 32.399,10.1 32.496,9.999L34.264,8.145C34.291,8.116 34.322,8.089 34.355,8.068L40.76,3.886L39.967,0.706C39.896,0.426 40.067,0.142 40.347,0.073C40.633,0 40.911,0.173 40.98,0.453L41.864,3.994C41.919,4.21 41.83,4.437 41.644,4.558L34.979,8.91L33.403,10.562L33.573,16.078C33.58,16.288 33.459,16.483 33.266,16.57L30.197,17.956L29.86,24.215C29.853,24.362 29.783,24.499 29.669,24.592C29.555,24.685 29.405,24.725 29.261,24.703L26.455,24.281C25.921,30.409 25.419,30.728 25.201,30.867C24.753,31.152 23.658,31.006 21.945,30.437L20.305,37.79C20.273,37.932 20.184,38.055 20.058,38.128C19.931,38.202 19.777,38.218 19.641,38.175L13.404,36.245C12.726,38.156 10.507,44.385 10.184,45.001C10.032,45.29 9.68,45.958 3.205,45.322L0.501,54.352C0.433,54.578 0.226,54.724 0,54.724" style="fill:white;fill-rule:nonzero;"/>
            </g>
            <g transform="matrix(1,0,0,1,441.204,516.875)">
                <path d="M-24.769,30.018C-24.818,30.018 -24.87,30.011 -24.921,29.996C-25.198,29.912 -25.354,29.619 -25.271,29.341L-22.417,19.916C-22.344,19.675 -22.105,19.523 -21.862,19.547C-19.199,19.818 -16.042,19.958 -15.381,19.729C-15.013,18.897 -13.335,14.224 -12.246,11.14C-12.156,10.886 -11.888,10.746 -11.629,10.805L-5.192,12.363L-3.526,4.971C-3.493,4.825 -3.399,4.7 -3.269,4.628C-3.137,4.554 -2.981,4.542 -2.84,4.592C-1.654,5.01 -0.405,5.346 0.045,5.306C0.318,4.616 0.703,1.58 0.921,-1.017C0.933,-1.161 1.004,-1.294 1.118,-1.384C1.231,-1.474 1.375,-1.513 1.521,-1.492L4.339,-1.072L4.664,-7.062C4.674,-7.25 4.785,-7.419 4.954,-7.503L8.04,-9.037L7.873,-14.254C7.868,-14.396 7.922,-14.533 8.02,-14.635L9.803,-16.488C9.831,-16.516 9.862,-16.542 9.896,-16.564L16.355,-20.736L15.556,-23.907C15.485,-24.187 15.655,-24.472 15.937,-24.543C16.22,-24.617 16.501,-24.444 16.573,-24.162L17.465,-20.627C17.52,-20.41 17.43,-20.181 17.24,-20.059L10.517,-15.716L8.929,-14.067L9.1,-8.733C9.106,-8.528 8.992,-8.337 8.809,-8.246L5.694,-6.7L5.354,-0.44C5.347,-0.292 5.277,-0.155 5.163,-0.062C5.048,0.032 4.901,0.072 4.754,0.05L1.918,-0.371C1.379,5.748 0.872,6.065 0.652,6.204C0.2,6.487 -0.902,6.34 -2.632,5.772L-4.286,13.113C-4.317,13.251 -4.401,13.369 -4.521,13.443C-4.64,13.518 -4.785,13.542 -4.921,13.507L-11.415,11.936C-12.058,13.751 -14.171,19.696 -14.497,20.313C-14.649,20.601 -15.002,21.269 -21.538,20.632L-24.267,29.646C-24.335,29.873 -24.543,30.018 -24.769,30.018" style="fill:rgb(231,138,185);fill-rule:nonzero;"/>
            </g>
            <g transform="matrix(1,0,0,1,415.603,491.417)">
                <path d="M0,54.635C-0.05,54.635 -0.102,54.628 -0.152,54.613C-0.43,54.529 -0.586,54.236 -0.502,53.958L2.352,44.532C2.424,44.293 2.658,44.131 2.906,44.163C5.571,44.436 8.728,44.576 9.389,44.346C9.764,43.499 11.543,38.6 12.701,35.363C12.796,35.098 13.083,34.955 13.349,35.037L19.583,36.948L21.242,29.588C21.275,29.442 21.369,29.317 21.5,29.244C21.632,29.171 21.787,29.157 21.929,29.209C23.115,29.629 24.403,29.937 24.813,29.924C25.087,29.233 25.472,26.197 25.689,23.6C25.701,23.455 25.772,23.323 25.887,23.233C26,23.143 26.147,23.104 26.289,23.125L29.107,23.545L29.433,17.556C29.443,17.36 29.562,17.186 29.742,17.106L32.809,15.734L32.642,10.363C32.638,10.221 32.69,10.084 32.788,9.982L34.571,8.13C34.6,8.102 34.631,8.075 34.665,8.054L41.124,3.881L40.324,0.71C40.254,0.43 40.424,0.145 40.705,0.073C40.988,0 41.27,0.173 41.342,0.454L42.233,3.989C42.288,4.207 42.198,4.436 42.009,4.558L35.285,8.902L33.697,10.551L33.868,16.052C33.875,16.265 33.752,16.46 33.558,16.547L30.463,17.932L30.123,24.177C30.115,24.324 30.046,24.462 29.932,24.555C29.817,24.649 29.669,24.691 29.522,24.667L26.687,24.245C26.147,30.364 25.641,30.683 25.421,30.822C24.973,31.106 23.868,30.959 22.137,30.389L20.482,37.73C20.45,37.872 20.36,37.995 20.234,38.069C20.107,38.142 19.955,38.156 19.817,38.116L13.521,36.188C12.837,38.093 10.598,44.314 10.271,44.93C10.117,45.219 9.766,45.887 3.23,45.249L0.502,54.263C0.434,54.489 0.226,54.635 0,54.635" style="fill:white;fill-rule:nonzero;"/>
            </g>
            <g transform="matrix(1,0,0,1,439.453,515.133)">
                <path d="M-24.281,29.677C-24.33,29.677 -24.38,29.67 -24.43,29.656C-24.703,29.573 -24.857,29.285 -24.776,29.012L-21.979,19.693C-21.908,19.455 -21.67,19.301 -21.432,19.327C-18.821,19.596 -15.729,19.737 -15.08,19.509C-14.719,18.687 -13.074,14.067 -12.007,11.017C-11.918,10.767 -11.659,10.624 -11.397,10.686L-5.09,12.225L-3.457,4.918C-3.425,4.774 -3.332,4.65 -3.202,4.578C-3.072,4.506 -2.919,4.494 -2.779,4.544C-1.617,4.958 -0.335,5.272 0.044,5.25C0.312,4.566 0.689,1.565 0.902,-1.004C0.914,-1.146 0.984,-1.277 1.097,-1.366C1.209,-1.454 1.35,-1.492 1.494,-1.471L4.254,-1.056L4.573,-6.979C4.583,-7.165 4.691,-7.331 4.857,-7.414L7.884,-8.929L7.719,-14.092C7.715,-14.23 7.767,-14.365 7.862,-14.465L9.61,-16.295C9.638,-16.324 9.668,-16.349 9.701,-16.371L16.036,-20.497L15.252,-23.635C15.183,-23.911 15.351,-24.191 15.628,-24.26C15.906,-24.333 16.184,-24.162 16.254,-23.885L17.128,-20.39C17.182,-20.177 17.094,-19.953 16.909,-19.833L10.315,-15.538L8.759,-13.908L8.927,-8.633C8.933,-8.431 8.821,-8.245 8.642,-8.154L5.589,-6.625L5.255,-0.434C5.247,-0.289 5.179,-0.153 5.065,-0.061C4.953,0.03 4.81,0.069 4.662,0.049L1.885,-0.368C1.356,5.681 0.86,5.995 0.645,6.132C0.203,6.411 -0.879,6.271 -2.575,5.707L-4.197,12.964C-4.228,13.1 -4.311,13.217 -4.429,13.29C-4.545,13.365 -4.688,13.388 -4.823,13.354L-11.188,11.8C-11.817,13.595 -13.889,19.472 -14.209,20.081C-14.358,20.367 -14.702,21.028 -21.112,20.398L-23.786,29.309C-23.854,29.532 -24.059,29.677 -24.281,29.677" style="fill:rgb(231,138,185);fill-rule:nonzero;"/>
            </g>
            <g transform="matrix(1,0,0,1,423.616,500.16)">
                <path d="M-9.261,43.817C-9.31,43.817 -9.359,43.811 -9.409,43.796C-9.683,43.714 -9.837,43.426 -9.756,43.152L-6.959,33.833C-6.888,33.597 -6.657,33.436 -6.411,33.468C-3.801,33.737 -0.708,33.877 -0.06,33.649C0.31,32.812 2.055,27.968 3.19,24.767C3.282,24.505 3.564,24.364 3.829,24.446L9.938,26.334L11.563,19.059C11.596,18.914 11.688,18.79 11.818,18.719C11.948,18.645 12.102,18.634 12.241,18.685C13.403,19.099 14.701,19.404 15.065,19.391C15.333,18.706 15.711,15.705 15.924,13.137C15.936,12.994 16.006,12.863 16.118,12.774C16.23,12.687 16.37,12.648 16.516,12.669L19.274,13.084L19.594,7.161C19.604,6.968 19.721,6.797 19.897,6.718L22.904,5.361L22.74,0.048C22.736,-0.09 22.788,-0.225 22.884,-0.324L24.632,-2.154C24.659,-2.184 24.689,-2.209 24.723,-2.23L31.058,-6.356L30.272,-9.495C30.203,-9.772 30.371,-10.052 30.648,-10.121C30.926,-10.193 31.205,-10.022 31.274,-9.745L32.149,-6.25C32.203,-6.037 32.115,-5.813 31.931,-5.692L25.337,-1.397L23.779,0.232L23.948,5.675C23.954,5.883 23.834,6.075 23.644,6.161L20.608,7.53L20.275,13.706C20.268,13.852 20.199,13.987 20.086,14.079C19.974,14.17 19.829,14.21 19.683,14.189L16.906,13.772C16.378,19.821 15.882,20.136 15.666,20.272C15.226,20.552 14.142,20.411 12.445,19.848L10.823,27.104C10.792,27.245 10.703,27.366 10.578,27.438C10.454,27.512 10.306,27.528 10.167,27.485L3.997,25.579C3.327,27.464 1.131,33.613 0.812,34.222C0.661,34.508 0.317,35.17 -6.092,34.538L-8.766,43.449C-8.833,43.673 -9.038,43.817 -9.261,43.817" style="fill:white;fill-rule:nonzero;"/>
            </g>
            <g transform="matrix(1,0,0,1,438.254,512.967)">
                <path d="M-25.04,30.409C-25.091,30.409 -25.143,30.402 -25.193,30.386C-25.475,30.302 -25.633,30.005 -25.548,29.725L-22.663,20.173C-22.591,19.931 -22.353,19.765 -22.102,19.798C-19.41,20.075 -16.217,20.217 -15.55,19.984C-15.178,19.143 -13.482,14.406 -12.382,11.281C-12.291,11.026 -12.022,10.875 -11.756,10.943L-5.25,12.52L-3.565,5.031C-3.532,4.883 -3.438,4.756 -3.305,4.683C-3.17,4.61 -3.014,4.597 -2.87,4.648C-1.672,5.071 -0.397,5.371 0.046,5.371C0.321,4.669 0.71,1.594 0.93,-1.037C0.942,-1.183 1.015,-1.318 1.13,-1.409C1.244,-1.501 1.396,-1.539 1.537,-1.518L4.386,-1.093L4.715,-7.161C4.726,-7.352 4.837,-7.522 5.009,-7.608L8.128,-9.162L7.959,-14.45C7.954,-14.593 8.008,-14.731 8.106,-14.835L9.909,-16.711C9.938,-16.74 9.969,-16.766 10.004,-16.788L16.535,-21.016L15.727,-24.229C15.655,-24.514 15.827,-24.803 16.111,-24.874C16.399,-24.942 16.685,-24.772 16.756,-24.489L17.657,-20.907C17.713,-20.686 17.622,-20.455 17.431,-20.332L10.632,-15.93L9.027,-14.26L9.2,-8.855C9.207,-8.648 9.093,-8.456 8.906,-8.363L5.759,-6.795L5.414,-0.453C5.406,-0.304 5.335,-0.164 5.22,-0.07C5.103,0.025 4.944,0.065 4.806,0.044L1.939,-0.385C1.395,5.816 0.883,6.138 0.661,6.279C0.203,6.564 -0.912,6.418 -2.66,5.842L-4.333,13.279C-4.364,13.418 -4.449,13.539 -4.57,13.614C-4.691,13.69 -4.838,13.716 -4.976,13.679L-11.54,12.087C-12.189,13.926 -14.325,19.949 -14.655,20.574C-14.811,20.867 -15.165,21.543 -21.773,20.899L-24.532,30.031C-24.602,30.261 -24.812,30.409 -25.04,30.409" style="fill:rgb(231,138,185);fill-rule:nonzero;"/>
            </g>
            <g transform="matrix(1,0,0,1,412.373,487.171)">
                <path d="M0,55.353C-0.051,55.353 -0.103,55.345 -0.153,55.33C-0.435,55.246 -0.593,54.949 -0.508,54.668L2.376,45.117C2.448,44.874 2.681,44.713 2.938,44.742C5.631,45.018 8.822,45.16 9.489,44.927C9.869,44.069 11.668,39.105 12.839,35.825C12.935,35.558 13.221,35.414 13.495,35.496L19.797,37.431L21.475,29.974C21.508,29.826 21.603,29.699 21.735,29.625C21.87,29.552 22.027,29.541 22.17,29.59C23.368,30.015 24.651,30.294 25.085,30.315C25.36,29.614 25.75,26.538 25.97,23.907C25.982,23.76 26.055,23.625 26.17,23.535C26.284,23.443 26.436,23.403 26.577,23.425L29.425,23.851L29.754,17.783C29.765,17.583 29.886,17.408 30.067,17.327L33.167,15.937L32.999,10.494C32.994,10.351 33.048,10.212 33.146,10.109L34.949,8.232C34.978,8.203 35.009,8.176 35.044,8.155L41.574,3.926L40.766,0.714C40.694,0.43 40.866,0.141 41.15,0.07C41.437,0 41.724,0.171 41.795,0.455L42.696,4.036C42.752,4.256 42.661,4.488 42.47,4.611L35.672,9.012L34.066,10.684L34.239,16.259C34.246,16.474 34.122,16.672 33.926,16.76L30.797,18.163L30.454,24.491C30.446,24.64 30.375,24.78 30.26,24.874C30.144,24.968 29.983,25.009 29.846,24.988L26.979,24.559C26.435,30.759 25.922,31.082 25.7,31.222C25.241,31.507 24.127,31.362 22.38,30.785L20.707,38.223C20.675,38.368 20.584,38.492 20.456,38.566C20.327,38.64 20.176,38.658 20.033,38.615L13.668,36.66C12.977,38.591 10.713,44.895 10.384,45.518C10.23,45.811 9.875,46.487 3.266,45.842L0.508,54.975C0.438,55.205 0.229,55.353 0,55.353" style="fill:white;fill-rule:nonzero;"/>
            </g>
            <g transform="matrix(1,0,0,1,411.935,486.539)">
                <path d="M0,54.725C-0.05,54.725 -0.1,54.718 -0.15,54.704C-0.427,54.621 -0.584,54.329 -0.501,54.052L2.327,44.609C2.399,44.37 2.621,44.21 2.882,44.24C5.521,44.511 8.645,44.653 9.302,44.423C9.666,43.59 11.329,38.909 12.409,35.819C12.498,35.566 12.771,35.423 13.026,35.484L19.401,37.042L21.053,29.638C21.085,29.493 21.179,29.367 21.311,29.294C21.442,29.222 21.601,29.21 21.738,29.26C22.911,29.679 24.166,30.006 24.593,29.976C24.863,29.283 25.245,26.242 25.461,23.639C25.473,23.495 25.544,23.362 25.657,23.272C25.771,23.182 25.918,23.144 26.06,23.165L28.848,23.585L29.171,17.583C29.181,17.396 29.29,17.229 29.458,17.145L32.518,15.608L32.352,10.377C32.347,10.238 32.399,10.102 32.496,10L34.264,8.146C34.291,8.117 34.322,8.09 34.355,8.069L40.76,3.888L39.967,0.708C39.896,0.428 40.067,0.144 40.347,0.075C40.631,0 40.912,0.176 40.98,0.454L41.864,3.996C41.919,4.212 41.83,4.439 41.644,4.56L34.979,8.911L33.403,10.563L33.573,15.909C33.58,16.112 33.468,16.301 33.285,16.392L30.198,17.943L29.86,24.216C29.853,24.363 29.783,24.5 29.669,24.593C29.554,24.686 29.406,24.727 29.261,24.704L26.455,24.282C25.921,30.41 25.42,30.729 25.202,30.868C24.752,31.152 23.66,31.008 21.945,30.438L20.305,37.791C20.274,37.928 20.19,38.047 20.07,38.121C19.952,38.195 19.81,38.219 19.671,38.185L13.239,36.612C12.602,38.43 10.508,44.385 10.184,45.002C10.032,45.29 9.681,45.96 3.205,45.323L0.501,54.353C0.433,54.579 0.226,54.725 0,54.725" style="fill:rgb(231,138,185);fill-rule:nonzero;"/>
            </g>
            <g transform="matrix(1,0,0,1,435.658,510.351)">
                <path d="M-24.548,30.07C-24.598,30.07 -24.647,30.063 -24.698,30.049C-24.975,29.966 -25.132,29.675 -25.049,29.397L-22.221,19.954C-22.147,19.714 -21.922,19.564 -21.666,19.585C-19.028,19.856 -15.903,19.998 -15.245,19.769C-14.873,18.919 -13.109,14.012 -11.962,10.769C-11.868,10.506 -11.581,10.356 -11.314,10.444L-5.139,12.355L-3.495,4.984C-3.463,4.838 -3.369,4.712 -3.237,4.64C-3.104,4.567 -2.948,4.556 -2.81,4.605C-1.665,5.015 -0.439,5.321 0.013,5.321C0.023,5.321 0.034,5.321 0.045,5.32C0.315,4.628 0.697,1.587 0.913,-1.016C0.925,-1.16 0.996,-1.293 1.109,-1.383C1.223,-1.473 1.371,-1.511 1.512,-1.489L4.301,-1.069L4.624,-7.071C4.634,-7.266 4.752,-7.438 4.931,-7.52L7.97,-8.894L7.804,-14.278C7.8,-14.418 7.852,-14.554 7.948,-14.654L9.716,-16.509C9.743,-16.538 9.774,-16.564 9.808,-16.586L16.213,-20.768L15.42,-23.947C15.35,-24.228 15.521,-24.512 15.8,-24.581C16.089,-24.654 16.364,-24.48 16.434,-24.201L17.317,-20.66C17.372,-20.443 17.283,-20.217 17.097,-20.096L10.431,-15.744L8.855,-14.092L9.025,-8.576C9.032,-8.365 8.911,-8.171 8.718,-8.084L5.65,-6.697L5.313,-0.438C5.306,-0.292 5.236,-0.154 5.122,-0.062C5.008,0.032 4.858,0.072 4.714,0.05L1.907,-0.373C1.373,5.755 0.871,6.074 0.653,6.213C0.205,6.497 -0.89,6.353 -2.603,5.783L-4.242,13.136C-4.273,13.278 -4.363,13.401 -4.489,13.475C-4.617,13.548 -4.766,13.565 -4.906,13.521L-11.144,11.591C-11.821,13.501 -14.04,19.73 -14.363,20.347C-14.515,20.638 -14.863,21.306 -21.343,20.668L-24.047,29.698C-24.115,29.925 -24.322,30.07 -24.548,30.07" style="fill:white;fill-rule:nonzero;"/>
            </g>
            <g transform="matrix(1,0,0,1,410.367,484.641)">
                <path d="M0,54.634C-0.05,54.634 -0.102,54.627 -0.152,54.612C-0.43,54.528 -0.586,54.235 -0.502,53.957L2.351,44.531C2.424,44.291 2.664,44.139 2.905,44.162C5.568,44.434 8.726,44.573 9.387,44.345C9.755,43.513 11.433,38.839 12.522,35.755C12.612,35.501 12.88,35.361 13.14,35.42L19.576,36.979L21.242,29.587C21.275,29.441 21.369,29.316 21.5,29.243C21.632,29.17 21.787,29.157 21.929,29.208C23.114,29.627 24.377,29.963 24.813,29.922C25.086,29.232 25.472,26.196 25.688,23.599C25.7,23.454 25.771,23.322 25.886,23.232C25.999,23.141 26.147,23.104 26.288,23.124L29.106,23.544L29.433,17.554C29.442,17.365 29.554,17.196 29.723,17.113L32.809,15.579L32.641,10.361C32.636,10.219 32.689,10.082 32.787,9.98L34.57,8.128C34.599,8.1 34.63,8.073 34.664,8.052L41.124,3.88L40.324,0.709C40.254,0.429 40.424,0.144 40.705,0.072C40.987,0 41.271,0.172 41.342,0.453L42.233,3.988C42.288,4.206 42.198,4.435 42.009,4.557L35.284,8.9L33.696,10.548L33.868,15.883C33.875,16.088 33.761,16.279 33.577,16.369L30.463,17.916L30.122,24.176C30.114,24.323 30.045,24.461 29.931,24.554C29.816,24.648 29.667,24.689 29.521,24.666L26.686,24.244C26.147,30.363 25.641,30.681 25.421,30.82C24.972,31.103 23.869,30.958 22.137,30.388L20.482,37.729C20.451,37.866 20.367,37.985 20.247,38.059C20.13,38.134 19.983,38.157 19.848,38.123L13.354,36.551C12.711,38.365 10.597,44.312 10.271,44.929C10.118,45.218 9.766,45.885 3.229,45.248L0.502,54.262C0.434,54.488 0.226,54.634 0,54.634" style="fill:rgb(231,138,185);fill-rule:nonzero;"/>
            </g>
            <g transform="matrix(1,0,0,1,434.303,508.417)">
                <path d="M-24.769,30.017C-24.818,30.017 -24.87,30.01 -24.921,29.995C-25.198,29.911 -25.354,29.618 -25.271,29.34L-22.418,19.915C-22.346,19.675 -22.109,19.513 -21.863,19.546C-19.201,19.817 -16.043,19.957 -15.382,19.728C-15.006,18.879 -13.227,13.981 -12.068,10.744C-11.975,10.479 -11.688,10.337 -11.421,10.419L-5.186,12.33L-3.527,4.97C-3.494,4.824 -3.4,4.699 -3.27,4.627C-3.138,4.553 -2.982,4.54 -2.841,4.591C-1.651,5.011 -0.363,5.328 0.045,5.305C0.317,4.614 0.702,1.579 0.92,-1.018C0.932,-1.162 1.003,-1.295 1.117,-1.385C1.229,-1.476 1.377,-1.513 1.52,-1.493L4.338,-1.073L4.664,-7.063C4.675,-7.259 4.794,-7.433 4.974,-7.513L8.04,-8.884L7.872,-14.255C7.868,-14.397 7.921,-14.534 8.019,-14.636L9.802,-16.488C9.83,-16.516 9.861,-16.542 9.896,-16.564L16.354,-20.737L15.556,-23.908C15.485,-24.188 15.655,-24.473 15.937,-24.544C16.219,-24.617 16.502,-24.444 16.573,-24.163L17.464,-20.628C17.519,-20.411 17.429,-20.182 17.239,-20.06L10.516,-15.716L8.928,-14.067L9.1,-8.566C9.106,-8.353 8.983,-8.158 8.789,-8.071L5.694,-6.686L5.354,-0.441C5.346,-0.293 5.276,-0.156 5.162,-0.063C5.047,0.031 4.896,0.071 4.753,0.049L1.917,-0.372C1.378,5.746 0.872,6.064 0.652,6.203C0.2,6.484 -0.902,6.34 -2.633,5.771L-4.286,13.112C-4.318,13.254 -4.408,13.377 -4.534,13.451C-4.662,13.524 -4.813,13.539 -4.951,13.499L-11.249,11.569C-11.933,13.474 -14.172,19.696 -14.498,20.312C-14.65,20.601 -15.004,21.268 -21.539,20.631L-24.267,29.645C-24.335,29.872 -24.543,30.017 -24.769,30.017" style="fill:white;fill-rule:nonzero;"/>
            </g>
            <g transform="matrix(1,0,0,1,433.385,507.514)">
                <path d="M-24.282,29.678C-24.331,29.678 -24.381,29.671 -24.431,29.657C-24.704,29.574 -24.858,29.286 -24.777,29.013L-21.98,19.694C-21.909,19.457 -21.681,19.301 -21.433,19.328C-18.822,19.598 -15.729,19.739 -15.081,19.51C-14.72,18.688 -13.075,14.068 -12.008,11.018C-11.92,10.768 -11.658,10.625 -11.398,10.687L-5.091,12.226L-3.458,4.919C-3.426,4.775 -3.333,4.651 -3.203,4.579C-3.073,4.507 -2.919,4.495 -2.78,4.545C-1.617,4.959 -0.335,5.258 0.044,5.251C0.312,4.567 0.689,1.566 0.902,-1.003C0.914,-1.145 0.984,-1.276 1.097,-1.365C1.209,-1.453 1.35,-1.49 1.494,-1.47L4.253,-1.055L4.572,-6.978C4.582,-7.164 4.69,-7.33 4.856,-7.413L7.883,-8.928L7.718,-14.091C7.714,-14.229 7.766,-14.364 7.861,-14.464L9.61,-16.294C9.638,-16.323 9.668,-16.348 9.701,-16.37L16.036,-20.496L15.251,-23.634C15.182,-23.911 15.35,-24.191 15.627,-24.26C15.902,-24.333 16.184,-24.162 16.253,-23.884L17.127,-20.389C17.181,-20.176 17.093,-19.952 16.908,-19.832L10.315,-15.537L8.758,-13.907L8.926,-8.632C8.932,-8.43 8.82,-8.244 8.641,-8.153L5.588,-6.624L5.254,-0.433C5.246,-0.288 5.178,-0.152 5.064,-0.06C4.951,0.031 4.811,0.072 4.661,0.05L1.885,-0.367C1.356,5.682 0.86,5.996 0.645,6.133C0.204,6.412 -0.88,6.272 -2.576,5.708L-4.198,12.965C-4.229,13.101 -4.312,13.218 -4.43,13.291C-4.547,13.366 -4.689,13.388 -4.824,13.355L-11.188,11.801C-11.818,13.596 -13.89,19.473 -14.21,20.082C-14.359,20.368 -14.703,21.031 -21.113,20.399L-23.787,29.31C-23.854,29.533 -24.06,29.678 -24.282,29.678" style="fill:rgb(231,138,185);fill-rule:nonzero;"/>
            </g>
            <g transform="matrix(1,0,0,1,432.568,506.68)">
                <path d="M-24.281,29.679C-24.33,29.679 -24.38,29.672 -24.43,29.658C-24.703,29.575 -24.857,29.287 -24.776,29.014L-21.979,19.695C-21.907,19.457 -21.675,19.296 -21.432,19.329C-18.821,19.599 -15.729,19.739 -15.08,19.511C-14.711,18.673 -12.967,13.829 -11.831,10.628C-11.739,10.367 -11.457,10.225 -11.192,10.308L-5.083,12.196L-3.457,4.92C-3.425,4.776 -3.332,4.652 -3.202,4.58C-3.072,4.508 -2.92,4.495 -2.779,4.546C-1.647,4.95 -0.435,5.252 0.012,5.252L0.044,5.252C0.312,4.568 0.689,1.567 0.902,-1.002C0.914,-1.144 0.984,-1.275 1.097,-1.364C1.209,-1.452 1.35,-1.49 1.494,-1.469L4.254,-1.054L4.573,-6.977C4.584,-7.171 4.7,-7.342 4.877,-7.421L7.884,-8.777L7.719,-14.091C7.715,-14.228 7.767,-14.363 7.862,-14.463L9.61,-16.293C9.638,-16.322 9.668,-16.347 9.701,-16.369L16.037,-20.495L15.252,-23.633C15.183,-23.91 15.351,-24.19 15.628,-24.259C15.901,-24.333 16.185,-24.161 16.254,-23.883L17.128,-20.388C17.182,-20.175 17.094,-19.951 16.909,-19.831L10.315,-15.536L8.758,-13.906L8.927,-8.464C8.933,-8.256 8.813,-8.063 8.622,-7.977L5.588,-6.608L5.255,-0.432C5.247,-0.287 5.179,-0.151 5.065,-0.059C4.953,0.032 4.81,0.071 4.662,0.051L1.885,-0.366C1.356,5.682 0.86,5.996 0.645,6.133C0.203,6.414 -0.881,6.273 -2.575,5.709L-4.197,12.966C-4.229,13.107 -4.317,13.228 -4.442,13.3C-4.566,13.373 -4.715,13.39 -4.854,13.347L-11.023,11.441C-11.694,13.325 -13.89,19.475 -14.209,20.083C-14.359,20.369 -14.703,21.032 -21.112,20.4L-23.786,29.311C-23.854,29.534 -24.059,29.679 -24.281,29.679" style="fill:white;fill-rule:nonzero;"/>
            </g>
            <g transform="matrix(1,0,0,1,432.184,505.347)">
                <path d="M-25.04,30.41C-25.091,30.41 -25.143,30.403 -25.193,30.387C-25.475,30.303 -25.633,30.006 -25.548,29.726L-22.663,20.174C-22.591,19.931 -22.353,19.773 -22.102,19.799C-19.408,20.075 -16.218,20.218 -15.55,19.985C-15.178,19.142 -13.481,14.407 -12.381,11.282C-12.29,11.027 -12.022,10.873 -11.755,10.944L-5.249,12.521L-3.564,5.032C-3.531,4.884 -3.437,4.757 -3.304,4.684C-3.17,4.611 -3.012,4.599 -2.869,4.649C-1.671,5.072 -0.406,5.372 0.046,5.372C0.321,4.671 0.711,1.595 0.931,-1.036C0.943,-1.182 1.016,-1.317 1.131,-1.408C1.245,-1.5 1.396,-1.54 1.538,-1.517L4.386,-1.092L4.715,-7.16C4.726,-7.351 4.837,-7.521 5.009,-7.607L8.129,-9.161L7.96,-14.449C7.955,-14.592 8.009,-14.73 8.107,-14.834L9.91,-16.71C9.938,-16.739 9.97,-16.765 10.005,-16.787L16.535,-21.015L15.727,-24.228C15.655,-24.513 15.827,-24.802 16.111,-24.873C16.402,-24.942 16.685,-24.771 16.756,-24.488L17.657,-20.906C17.713,-20.685 17.622,-20.454 17.431,-20.331L10.633,-15.929L9.028,-14.259L9.2,-8.854C9.207,-8.647 9.093,-8.455 8.906,-8.362L5.759,-6.795L5.415,-0.452C5.407,-0.303 5.336,-0.163 5.221,-0.069C5.104,0.026 4.945,0.065 4.807,0.045L1.94,-0.384C1.396,5.817 0.883,6.14 0.661,6.28C0.205,6.566 -0.91,6.42 -2.659,5.843L-4.332,13.28C-4.363,13.419 -4.448,13.54 -4.569,13.615C-4.69,13.691 -4.837,13.716 -4.975,13.68L-11.539,12.088C-12.188,13.927 -14.325,19.95 -14.655,20.575C-14.809,20.868 -15.164,21.544 -21.773,20.9L-24.532,30.032C-24.602,30.262 -24.812,30.41 -25.04,30.41" style="fill:rgb(231,138,185);fill-rule:nonzero;"/>
            </g>
            <g transform="matrix(1,0,0,1,431.344,504.494)">
                <path d="M-25.04,30.411C-25.091,30.411 -25.143,30.404 -25.193,30.388C-25.475,30.304 -25.633,30.007 -25.548,29.727L-22.664,20.175C-22.592,19.933 -22.359,19.779 -22.103,19.8C-19.409,20.076 -16.217,20.218 -15.55,19.986C-15.17,19.128 -13.371,14.163 -12.2,10.883C-12.104,10.616 -11.818,10.472 -11.544,10.554L-5.243,12.49L-3.565,5.032C-3.532,4.884 -3.438,4.757 -3.305,4.684C-3.17,4.612 -3.013,4.598 -2.87,4.649C-1.672,5.073 -0.395,5.358 0.046,5.373C0.321,4.671 0.71,1.596 0.93,-1.035C0.942,-1.181 1.015,-1.316 1.13,-1.407C1.245,-1.499 1.396,-1.538 1.537,-1.516L4.386,-1.091L4.715,-7.16C4.726,-7.359 4.847,-7.535 5.028,-7.616L8.128,-9.005L7.959,-14.449C7.954,-14.592 8.008,-14.73 8.106,-14.834L9.909,-16.71C9.938,-16.739 9.969,-16.765 10.004,-16.787L16.535,-21.015L15.727,-24.227C15.655,-24.511 15.827,-24.801 16.111,-24.872C16.399,-24.942 16.685,-24.77 16.756,-24.487L17.657,-20.906C17.713,-20.685 17.622,-20.454 17.431,-20.331L10.632,-15.929L9.027,-14.259L9.2,-8.682C9.207,-8.468 9.083,-8.269 8.887,-8.181L5.758,-6.779L5.414,-0.451C5.406,-0.302 5.335,-0.162 5.22,-0.068C5.104,0.027 4.945,0.067 4.806,0.046L1.939,-0.383C1.395,5.818 0.883,6.14 0.661,6.281C0.205,6.567 -0.91,6.422 -2.66,5.843L-4.333,13.281C-4.365,13.426 -4.456,13.55 -4.584,13.624C-4.713,13.698 -4.864,13.715 -5.007,13.673L-11.371,11.718C-12.063,13.65 -14.326,19.953 -14.655,20.576C-14.812,20.869 -15.172,21.542 -21.774,20.901L-24.532,30.033C-24.602,30.263 -24.812,30.411 -25.04,30.411" style="fill:white;fill-rule:nonzero;"/>
            </g>
            <g transform="matrix(1,0,0,1,405.866,478.92)">
                <path d="M0,54.726C-0.05,54.726 -0.1,54.719 -0.15,54.705C-0.427,54.622 -0.584,54.33 -0.501,54.053L2.327,44.61C2.399,44.371 2.634,44.214 2.882,44.241C5.52,44.511 8.646,44.654 9.302,44.424C9.666,43.591 11.329,38.91 12.409,35.82C12.498,35.567 12.771,35.423 13.026,35.485L19.401,37.043L21.053,29.64C21.085,29.494 21.179,29.368 21.311,29.295C21.442,29.223 21.601,29.211 21.738,29.261C22.911,29.68 24.188,30.025 24.593,29.977C24.863,29.284 25.245,26.243 25.461,23.64C25.473,23.496 25.544,23.363 25.657,23.273C25.771,23.183 25.916,23.147 26.06,23.166L28.849,23.586L29.172,17.584C29.182,17.397 29.291,17.23 29.459,17.146L32.518,15.609L32.352,10.378C32.347,10.239 32.399,10.103 32.496,10.001L34.264,8.147C34.291,8.118 34.322,8.091 34.355,8.07L40.761,3.888L39.968,0.708C39.897,0.428 40.068,0.144 40.348,0.075C40.636,0 40.912,0.176 40.981,0.455L41.865,3.996C41.92,4.212 41.831,4.439 41.645,4.56L34.979,8.912L33.403,10.564L33.573,15.91C33.58,16.113 33.468,16.302 33.285,16.393L30.199,17.944L29.861,24.217C29.854,24.364 29.784,24.501 29.67,24.594C29.555,24.687 29.407,24.726 29.262,24.705L26.455,24.283C25.921,30.411 25.42,30.73 25.202,30.869C24.753,31.153 23.659,31.009 21.945,30.439L20.306,37.791C20.275,37.929 20.191,38.048 20.071,38.122C19.952,38.196 19.807,38.216 19.672,38.186L13.239,36.613C12.602,38.431 10.508,44.385 10.185,45.002C10.033,45.293 9.686,45.961 3.205,45.324L0.501,54.354C0.433,54.58 0.226,54.726 0,54.726" style="fill:rgb(231,138,185);fill-rule:nonzero;"/>
            </g>
            <g transform="matrix(1,0,0,1,405.042,478.077)">
                <path d="M0,54.725C-0.05,54.725 -0.1,54.718 -0.15,54.704C-0.427,54.621 -0.584,54.329 -0.501,54.052L2.327,44.61C2.4,44.371 2.624,44.223 2.882,44.241C5.52,44.512 8.645,44.655 9.302,44.424C9.674,43.576 11.438,38.666 12.586,35.423C12.68,35.161 12.965,35.011 13.233,35.099L19.408,37.011L21.053,29.639C21.085,29.494 21.179,29.368 21.311,29.295C21.443,29.223 21.6,29.211 21.738,29.261C22.912,29.68 24.167,30.011 24.592,29.976C24.862,29.284 25.244,26.243 25.46,23.64C25.472,23.496 25.543,23.363 25.656,23.273C25.771,23.183 25.916,23.147 26.059,23.166L28.848,23.586L29.171,17.584C29.181,17.39 29.299,17.217 29.478,17.136L32.518,15.762L32.352,10.377C32.348,10.238 32.399,10.102 32.496,10.001L34.264,8.147C34.291,8.118 34.322,8.091 34.355,8.07L40.76,3.888L39.967,0.708C39.896,0.428 40.067,0.144 40.347,0.075C40.634,0 40.911,0.175 40.98,0.454L41.864,3.996C41.919,4.212 41.83,4.439 41.644,4.56L34.979,8.912L33.403,10.564L33.573,16.079C33.58,16.29 33.459,16.485 33.266,16.572L30.197,17.958L29.86,24.217C29.853,24.364 29.783,24.501 29.669,24.594C29.554,24.687 29.407,24.728 29.261,24.705L26.454,24.283C25.92,30.411 25.418,30.73 25.2,30.869C24.754,31.153 23.662,31.009 21.945,30.439L20.305,37.792C20.273,37.934 20.184,38.057 20.058,38.13C19.93,38.204 19.777,38.22 19.641,38.177L13.404,36.246C12.726,38.157 10.507,44.386 10.184,45.002C10.032,45.292 9.68,45.961 3.205,45.324L0.501,54.353C0.433,54.579 0.226,54.725 0,54.725" style="fill:white;fill-rule:nonzero;"/>
            </g>
            <g transform="matrix(1,0,0,1,429.066,501.641)">
                <path d="M-24.769,30.016C-24.818,30.016 -24.87,30.009 -24.921,29.994C-25.198,29.91 -25.354,29.617 -25.271,29.339L-22.417,19.914C-22.345,19.673 -22.102,19.521 -21.862,19.545C-19.197,19.816 -16.043,19.957 -15.381,19.727C-15.013,18.895 -13.335,14.221 -12.247,11.137C-12.156,10.883 -11.889,10.743 -11.629,10.802L-5.192,12.361L-3.526,4.969C-3.493,4.823 -3.399,4.698 -3.269,4.626C-3.137,4.552 -2.981,4.539 -2.84,4.59C-1.654,5.009 -0.377,5.346 0.045,5.304C0.318,4.614 0.703,1.578 0.921,-1.019C0.933,-1.163 1.004,-1.296 1.118,-1.386C1.23,-1.476 1.377,-1.516 1.521,-1.494L4.339,-1.074L4.664,-7.064C4.674,-7.252 4.785,-7.421 4.954,-7.505L8.04,-9.039L7.873,-14.257C7.868,-14.399 7.922,-14.536 8.02,-14.638L9.803,-16.49C9.831,-16.518 9.862,-16.544 9.896,-16.566L16.355,-20.738L15.556,-23.909C15.485,-24.189 15.655,-24.474 15.937,-24.545C16.219,-24.617 16.502,-24.446 16.573,-24.164L17.465,-20.629C17.52,-20.412 17.43,-20.183 17.24,-20.061L10.517,-15.718L8.929,-14.07L9.1,-8.735C9.106,-8.53 8.992,-8.339 8.809,-8.248L5.694,-6.702L5.354,-0.442C5.347,-0.294 5.277,-0.157 5.163,-0.064C5.048,0.03 4.9,0.07 4.754,0.048L1.918,-0.373C1.379,5.746 0.872,6.063 0.652,6.202C0.203,6.486 -0.899,6.341 -2.632,5.77L-4.286,13.111C-4.317,13.249 -4.401,13.367 -4.521,13.441C-4.64,13.517 -4.785,13.539 -4.921,13.505L-11.415,11.933C-12.058,13.748 -14.171,19.694 -14.498,20.312C-14.651,20.599 -15.006,21.268 -21.538,20.63L-24.267,29.644C-24.335,29.871 -24.543,30.016 -24.769,30.016" style="fill:rgb(231,138,185);fill-rule:nonzero;"/>
            </g>
            <g transform="matrix(1,0,0,1,428.234,500.799)">
                <path d="M-24.769,30.016C-24.818,30.016 -24.87,30.009 -24.921,29.994C-25.198,29.91 -25.354,29.617 -25.271,29.339L-22.418,19.914C-22.345,19.674 -22.107,19.512 -21.863,19.545C-19.198,19.817 -16.042,19.958 -15.381,19.727C-15.005,18.878 -13.226,13.98 -12.067,10.743C-11.973,10.478 -11.688,10.336 -11.42,10.418L-5.186,12.329L-3.526,4.969C-3.493,4.823 -3.399,4.698 -3.269,4.626C-3.137,4.552 -2.981,4.54 -2.84,4.59C-1.654,5.01 -0.404,5.329 0.045,5.304C0.318,4.614 0.703,1.578 0.921,-1.019C0.933,-1.163 1.004,-1.296 1.118,-1.386C1.231,-1.476 1.376,-1.516 1.521,-1.494L4.339,-1.074L4.664,-7.064C4.675,-7.26 4.794,-7.434 4.974,-7.514L8.04,-8.885L7.873,-14.256C7.869,-14.398 7.922,-14.535 8.02,-14.637L9.802,-16.489C9.83,-16.517 9.861,-16.543 9.896,-16.565L16.355,-20.738L15.556,-23.909C15.485,-24.189 15.655,-24.474 15.937,-24.545C16.219,-24.617 16.502,-24.446 16.573,-24.164L17.465,-20.629C17.52,-20.412 17.43,-20.183 17.24,-20.061L10.516,-15.717L8.929,-14.069L9.1,-8.567C9.106,-8.354 8.983,-8.159 8.789,-8.072L5.694,-6.687L5.354,-0.442C5.347,-0.294 5.277,-0.157 5.163,-0.064C5.049,0.029 4.898,0.072 4.754,0.048L1.918,-0.373C1.379,5.746 0.872,6.063 0.652,6.202C0.204,6.484 -0.899,6.341 -2.632,5.77L-4.286,13.111C-4.318,13.253 -4.408,13.377 -4.534,13.45C-4.661,13.523 -4.814,13.538 -4.951,13.498L-11.248,11.568C-11.932,13.473 -14.172,19.695 -14.498,20.312C-14.65,20.599 -15.004,21.267 -21.539,20.63L-24.267,29.644C-24.335,29.871 -24.543,30.016 -24.769,30.016" style="fill:white;fill-rule:nonzero;"/>
            </g>
            <g transform="matrix(1,0,0,1,427.315,499.894)">
                <path d="M-24.282,29.679C-24.331,29.679 -24.381,29.672 -24.431,29.658C-24.704,29.575 -24.858,29.287 -24.777,29.014L-21.979,19.695C-21.908,19.458 -21.677,19.301 -21.432,19.329C-18.821,19.599 -15.729,19.739 -15.081,19.511C-14.72,18.689 -13.075,14.068 -12.007,11.019C-11.918,10.769 -11.656,10.629 -11.397,10.688L-5.091,12.227L-3.457,4.92C-3.425,4.776 -3.332,4.652 -3.202,4.58C-3.072,4.508 -2.919,4.495 -2.779,4.546C-1.617,4.96 -0.334,5.243 0.044,5.252C0.312,4.568 0.689,1.567 0.902,-1.002C0.914,-1.144 0.984,-1.275 1.097,-1.364C1.209,-1.452 1.351,-1.489 1.494,-1.469L4.253,-1.054L4.572,-6.977C4.582,-7.163 4.69,-7.329 4.856,-7.412L7.884,-8.927L7.719,-14.09C7.715,-14.228 7.767,-14.363 7.862,-14.463L9.61,-16.293C9.638,-16.322 9.668,-16.347 9.701,-16.369L16.037,-20.495L15.252,-23.633C15.183,-23.91 15.351,-24.19 15.628,-24.259C15.906,-24.333 16.184,-24.161 16.254,-23.883L17.128,-20.388C17.182,-20.175 17.094,-19.951 16.909,-19.831L10.315,-15.536L8.759,-13.906L8.927,-8.631C8.933,-8.429 8.821,-8.243 8.642,-8.152L5.588,-6.623L5.254,-0.432C5.246,-0.287 5.178,-0.151 5.064,-0.059C4.951,0.032 4.806,0.071 4.661,0.051L1.885,-0.366C1.356,5.682 0.86,5.996 0.645,6.133C0.204,6.414 -0.88,6.273 -2.575,5.709L-4.198,12.966C-4.229,13.102 -4.312,13.219 -4.43,13.292C-4.546,13.367 -4.689,13.39 -4.824,13.356L-11.188,11.802C-11.817,13.597 -13.89,19.474 -14.21,20.083C-14.36,20.369 -14.708,21.03 -21.112,20.4L-23.787,29.311C-23.854,29.534 -24.06,29.679 -24.282,29.679" style="fill:rgb(231,138,185);fill-rule:nonzero;"/>
            </g>
            <g transform="matrix(1,0,0,1,426.5,499.061)">
                <path d="M-24.282,29.68C-24.331,29.68 -24.381,29.673 -24.431,29.659C-24.704,29.576 -24.858,29.288 -24.777,29.015L-21.98,19.696C-21.909,19.458 -21.672,19.31 -21.433,19.33C-18.822,19.599 -15.729,19.74 -15.081,19.512C-14.712,18.674 -12.968,13.83 -11.832,10.629C-11.74,10.368 -11.458,10.226 -11.193,10.309L-5.084,12.197L-3.458,4.921C-3.426,4.777 -3.333,4.653 -3.203,4.581C-3.073,4.509 -2.92,4.497 -2.78,4.547C-1.617,4.962 -0.346,5.258 0.044,5.253C0.312,4.569 0.689,1.568 0.902,-1.001C0.914,-1.143 0.984,-1.274 1.097,-1.363C1.209,-1.451 1.35,-1.489 1.494,-1.468L4.253,-1.053L4.572,-6.976C4.583,-7.17 4.699,-7.341 4.876,-7.42L7.883,-8.776L7.718,-14.09C7.714,-14.227 7.766,-14.362 7.861,-14.462L9.61,-16.292C9.638,-16.321 9.668,-16.346 9.701,-16.368L16.036,-20.494L15.251,-23.632C15.182,-23.909 15.35,-24.189 15.627,-24.258C15.904,-24.333 16.184,-24.16 16.253,-23.882L17.127,-20.387C17.181,-20.174 17.093,-19.95 16.908,-19.83L10.315,-15.535L8.757,-13.905L8.926,-8.463C8.932,-8.255 8.812,-8.062 8.621,-7.976L5.587,-6.607L5.254,-0.431C5.246,-0.286 5.178,-0.15 5.064,-0.058C4.951,0.033 4.81,0.073 4.661,0.052L1.885,-0.365C1.356,5.683 0.86,5.997 0.645,6.134C0.204,6.415 -0.881,6.274 -2.576,5.71L-4.198,12.967C-4.229,13.108 -4.318,13.229 -4.443,13.301C-4.567,13.374 -4.717,13.391 -4.854,13.348L-11.024,11.442C-11.695,13.326 -13.891,19.476 -14.21,20.084C-14.36,20.37 -14.703,21.032 -21.113,20.401L-23.787,29.312C-23.854,29.535 -24.06,29.68 -24.282,29.68" style="fill:white;fill-rule:nonzero;"/>
            </g>
        </g>
    </g>
    <g transform="matrix(16.425,0,0,16.425,1158.79,1759.63)">
        <path d="M0,-14.973C0,-14.973 2.917,-5.339 3.798,-4.789C4.679,-4.239 5.56,-4.404 5.78,-3.413C6,-2.422 5.67,1.321 5.67,1.321C5.67,1.321 4.568,4.073 5.78,5.724C6.991,7.376 15.248,4.734 15.248,4.734C15.248,4.734 12.386,4.073 13.597,0.55C14.808,-2.973 15.908,-7.487 16.679,-11.67C17.449,-15.853 16.568,-22.349 16.568,-22.349C16.568,-22.349 13.376,-18.716 10.844,-19.211C8.246,-19.719 8.422,-20.698 7.981,-20.477C7.541,-20.257 2.092,-15.633 0,-14.973" style="fill:rgb(197,198,200);fill-rule:nonzero;"/>
    </g>
    <g transform="matrix(16.425,0,0,16.425,568.389,1304.85)">
        <path d="M0,6.166C0,6.166 8.588,-0.109 9.799,-1.21L11.01,-2.312C11.01,-2.312 11.01,-2.201 6.166,-0.77C1.321,0.661 0.331,0.331 0.331,0.771C0.331,1.212 -2.201,8.478 0,6.166" style="fill:rgb(201,202,204);fill-rule:nonzero;"/>
    </g>
    <g transform="matrix(16.425,0,0,16.425,691.352,1045.38)">
        <path d="M0,9.247C-1.431,9.798 -1.32,10.898 0,10.788C1.321,10.679 2.313,12.33 5.064,9.467C7.816,6.604 9.248,5.725 10.129,3.192C11.01,0.66 12.771,-3.083 11.229,-0.991C9.688,1.101 6.937,6.274 5.285,7.706C3.634,9.137 0,9.247 0,9.247" style="fill:rgb(173,176,178);fill-rule:nonzero;"/>
    </g>
    <g transform="matrix(16.425,0,0,16.425,487.018,940.5)">
        <path d="M0,21.908C0,20.587 -2.642,14.752 -1.431,7.816C-0.22,0.881 0.221,-4.844 0.221,-5.065C0.221,-5.284 -1.761,-2.532 -2.752,2.972C-3.743,8.476 -4.623,11.009 -3.192,16.073C-1.761,21.137 -1.761,23.889 -1.32,25.541C-0.88,27.192 0,21.908 0,21.908" style="fill:rgb(201,202,204);fill-rule:nonzero;"/>
    </g>
    <g transform="matrix(16.425,0,0,16.425,394.804,1038.14)">
        <path d="M0,14.862C-0.454,13.501 -4.184,-1.321 -4.514,-0.55C-4.844,0.22 -3.633,7.266 -2.422,10.018C-1.211,12.771 -2.092,13.211 -3.413,11.78C-4.734,10.348 -8.917,6.496 -7.376,8.697C-5.835,10.899 -3.522,14.423 -2.422,14.862C-1.321,15.302 0.44,16.183 0,14.862" style="fill:rgb(201,202,204);fill-rule:nonzero;"/>
    </g>
    <g transform="matrix(16.425,0,0,16.425,910.154,1112.28)">
        <path d="M0,20.147C-0.308,19.762 8.697,12.661 9.908,11.56C11.119,10.459 13.321,6.055 16.954,4.404C20.587,2.752 26.092,-0.55 26.092,-0.55C26.092,-0.55 24.551,1.982 22.019,3.633C19.486,5.285 15.743,5.064 14.532,7.596C13.321,10.128 9.798,13.542 7.597,15.413C5.395,17.285 0.44,20.697 0,20.147" style="fill:rgb(201,202,204);fill-rule:nonzero;"/>
    </g>
    <g transform="matrix(12.0016,11.2135,11.2135,-12.0016,851.441,736.679)">
        <path d="M3.939,-1.399C4.029,-1.012 4.355,3.962 4.257,5.678C4.16,7.395 4.19,10.588 3.939,7.792C3.689,4.997 3.296,-2.001 3.618,-1.699L3.939,-1.399Z" style="fill:rgb(212,213,215);fill-rule:nonzero;"/>
    </g>
    <g transform="matrix(16.425,0,0,16.425,1049.4,989.325)">
        <path d="M0,-15.634C-3.303,-13.432 -5.395,-10.129 -8.367,-8.148C-11.34,-6.165 -11.891,-6.056 -13.982,-4.294C-16.074,-2.532 -18.275,-0.991 -19.597,-0.772C-20.918,-0.551 -22.459,0 -20.478,-0.441C-18.496,-0.881 -15.193,-2.753 -13.762,-3.524C-12.331,-4.294 -9.799,-6.386 -9.799,-6.386L0,-15.634Z" style="fill:rgb(212,213,215);fill-rule:nonzero;"/>
    </g>
    <g transform="matrix(-10.0014,-13.0288,-13.0288,10.0014,697.305,1008.36)">
        <path d="M-2.902,-5.505C-1.386,-1.375 -2.698,-1.08 -2.351,0.456C-2.004,1.995 -2.078,3.163 -2.902,0.463C-3.725,-2.236 -4.507,-5.244 -4.507,-5.244C-4.507,-5.244 -3.538,-7.237 -2.902,-5.505" style="fill:rgb(212,213,215);fill-rule:nonzero;"/>
    </g>
    <g transform="matrix(10.059,-12.9845,-12.9845,-10.059,748.567,1063.91)">
        <path d="M-2.477,-1.97C-0.624,1.185 -3.228,3.854 -3.004,5.003C-2.78,6.151 -2.216,8.12 -2.477,7.917C-2.738,7.715 -5.55,1.638 -5.081,-0.226C-4.612,-2.092 -4.279,-5.037 -2.477,-1.97" style="fill:rgb(212,213,215);fill-rule:nonzero;"/>
    </g>
    <g transform="matrix(16.425,0,0,16.425,507.822,884.443)">
        <path d="M0,-22.019C0,-22.019 -3.743,-13.322 -1.981,-10.459C-0.221,-7.597 0.551,-7.376 3.633,-5.285C6.716,-3.193 6.605,0 7.706,-2.422C8.808,-4.844 8.917,-5.285 7.596,-6.496C6.275,-7.706 3.303,-12.22 2.422,-14.752C1.541,-17.285 0,-22.019 0,-22.019" style="fill:rgb(192,194,196);fill-rule:nonzero;"/>
    </g>
</svg>
