<?xml version="1.0" encoding="UTF-8" standalone="no"?>
<!DOCTYPE svg PUBLIC "-//W3C//DTD SVG 1.1//EN" "http://www.w3.org/Graphics/SVG/1.1/DTD/svg11.dtd">
<svg width="100%" height="100%" viewBox="0 0 1000 1000" version="1.1" xmlns="http://www.w3.org/2000/svg" xmlns:xlink="http://www.w3.org/1999/xlink" xml:space="preserve" xmlns:serif="http://www.serif.com/" style="fill-rule:evenodd;clip-rule:evenodd;stroke-linejoin:round;stroke-miterlimit:2;">
    <g transform="matrix(4.16667,0,0,4.16667,149.743,843.15)">
        <path d="M0,-5.907C0,-5.907 -0.814,-9.167 -6.314,-7.334C-11.814,-5.5 -15.685,-1.018 -16.296,1.426C-16.907,3.87 -19.759,10.389 -19.555,12.426C-19.352,14.462 -17.314,20.573 -14.666,21.388L-12.018,22.203C-12.018,22.203 -13.036,25.462 -14.055,25.869C-15.073,26.278 -24.852,26.481 -26.073,25.869C-27.296,25.259 -29.943,24.24 -28.518,20.778C-27.092,17.315 -28.925,12.222 -23.833,6.315C-18.74,0.407 -17.11,-4.278 -13.647,-6.926C-10.185,-9.574 -5.5,-12.426 -3.259,-12.222C-1.019,-12.018 3.667,-13.851 3.667,-13.851C3.667,-13.851 5.5,-14.26 9.778,-18.741C14.056,-23.221 23.019,-30.148 23.019,-30.148C23.019,-30.148 24.444,-32.388 27.093,-34.018C29.74,-35.647 25.87,-34.629 28.519,-38.296C31.166,-41.963 37.277,-46.851 38.296,-48.073C39.314,-49.296 37.889,-53.37 41.555,-55.814C45.222,-58.259 53.37,-64.573 64.369,-68.036C75.369,-71.499 83.313,-73.332 83.313,-73.332C83.313,-73.332 85.351,-56.017 86.369,-54.184C87.388,-52.351 96.146,-36.666 97.979,-36.055C99.813,-35.444 113.665,-69.462 113.665,-69.462C113.665,-69.462 122.628,-82.295 123.238,-82.499C123.85,-82.702 132.405,-77.61 132.405,-77.61C132.405,-77.61 136.275,-78.425 139.942,-77.202C143.608,-75.98 160.923,-75.369 163.775,-71.906C166.627,-68.443 177.423,-54.184 178.237,-39.518C179.053,-24.851 180.071,-25.055 180.479,-20.777C180.886,-16.5 185.774,14.462 185.774,14.462C185.774,14.462 194.126,21.592 193.515,27.092C192.904,32.592 186.589,37.888 186.589,37.888C186.589,37.888 188.219,43.795 188.016,46.036C187.812,48.277 187.607,55.406 186.386,58.258C185.163,61.11 181.7,62.128 181.7,62.128L161.534,21.796C161.127,20.981 158.071,16.703 154.812,16.296C151.553,15.889 148.701,16.092 148.701,16.092L141.164,24.036C141.164,24.036 135.664,54.184 134.646,54.999C133.627,55.814 102.461,76.795 99.406,75.98C96.351,75.165 56.018,52.554 56.018,52.554C56.018,52.554 58.462,32.185 58.055,31.573C57.647,30.962 56.018,6.926 53.98,1.629C51.943,-3.667 50.518,-0.611 46.036,1.426C41.555,3.463 31.574,8.963 30.352,9.37C29.129,9.778 0,-5.907 0,-5.907" style="fill:rgb(19,150,122);fill-rule:nonzero;"/>
    </g>
    <g transform="matrix(4.16667,0,0,4.16667,531.113,823.62)">
        <path d="M0,34.834C0,34.834 -1.833,45.426 -1.222,49.5C-0.611,53.574 0.407,59.481 1.223,59.889C2.037,60.296 9.574,62.74 10.389,62.333C11.203,61.926 9.777,62.74 9.574,58.667C9.37,54.593 10.186,46.444 10.186,42.371C10.186,38.297 7.537,29.945 9.167,24.038C10.796,18.13 11,15.278 10.186,10.797C9.37,6.315 8.759,1.427 8.759,-3.258L8.759,-14.055C8.759,-17.721 7.74,-27.906 7.74,-27.906C7.74,-27.906 2.037,-23.832 0.611,-19.554C-0.814,-15.276 -1.833,-7.332 -1.019,-2.851C-0.203,1.631 1.223,6.927 0.814,13.853C0.407,20.778 0,34.834 0,34.834" style="fill:rgb(10,121,98);fill-rule:nonzero;"/>
    </g>
    <g transform="matrix(4.16667,0,0,4.16667,554.873,541.85)">
        <path d="M0,41.962C0,41.962 -3.667,37.888 -9.574,35.036C-15.481,32.185 -18.333,32.592 -18.537,30.555C-18.741,28.518 -18.741,26.481 -18.741,26.481C-18.741,26.481 -20.777,25.259 -21.593,25.259C-22.407,25.259 -23.833,23.629 -26.277,23.425C-28.722,23.222 -33.203,19.962 -33.203,19.962C-33.203,19.962 -29.333,18.943 -26.074,15.277C-22.814,11.61 -21.796,8.963 -20.37,7.129C-18.944,5.296 -15.278,0 -15.278,0C-15.278,0 -11.815,14.259 -11,17.11C-10.186,19.962 -8.353,28.11 -6.723,30.148C-5.093,32.185 0,41.962 0,41.962" style="fill:rgb(10,121,98);fill-rule:nonzero;"/>
    </g>
    <g transform="matrix(4.16667,0,0,4.16667,561.663,491.77)">
        <path d="M0,52.757C0,52.757 6.111,42.98 7.944,42.572C9.778,42.165 17.926,41.147 23.63,43.998C29.333,46.85 30.963,47.665 31.166,45.221C31.37,42.777 27.296,37.072 30.147,28.925C33,20.777 31.37,19.962 31.37,13.647C31.37,7.332 36.055,-0.001 34.833,-0.408C33.61,-0.815 27.093,0.611 24.852,0.611C22.611,0.611 16.093,19.351 13.037,24.444C9.981,29.535 4.278,40.535 2.444,43.794C0.611,47.054 -2.444,50.72 0,53.572" style="fill:rgb(10,121,98);fill-rule:nonzero;"/>
    </g>
    <g transform="matrix(4.16667,0,0,4.16667,591.083,1315.91)">
        <path d="M0,-47.056C0,-47.056 -31.369,-68.036 -40.739,-75.574C-50.109,-83.111 -62.128,-92.074 -79.646,-96.555C-97.164,-101.035 -115.905,-94.925 -117.941,-91.258C-119.979,-87.592 -123.441,-85.148 -125.071,-84.74C-126.701,-84.332 -129.553,-81.481 -129.96,-77.814C-130.367,-74.148 -135.256,-54.185 -134.441,-48.685C-133.627,-43.185 -133.016,-44 -128.534,-32.796C-124.053,-21.593 -120.59,-12.223 -120.59,-12.223C-120.59,-12.223 -118.553,37.887 -111.831,50.516C-111.831,50.516 -96.35,50.109 -85.757,50.313C-75.165,50.516 -75.165,53.979 -67.017,50.924C-58.869,47.869 -54.795,45.832 -52.351,42.98C-49.906,40.128 -47.258,37.276 -40.739,31.573C-34.222,25.869 -25.055,8.962 -25.055,8.962C-25.055,8.962 -10.389,33.202 -9.166,33.61C-7.944,34.017 9.574,36.665 13.444,34.629C17.314,32.591 19.963,21.795 22.611,21.999C25.259,22.203 44.407,25.257 49.703,24.036C54.999,22.813 52.555,29.943 53.166,30.35C53.777,30.757 74.147,18.332 77.406,12.017C80.665,5.703 83.518,-10.797 82.702,-22.204C81.888,-33.612 80.258,-37.889 80.462,-47.666C80.665,-57.445 80.665,-68.851 74.555,-74.555C68.443,-80.258 65.388,-88.611 59.073,-88.611C52.759,-88.611 44.203,-89.018 40.74,-88.202C37.277,-87.388 35.24,-89.425 33.407,-86.369C31.574,-83.314 24.444,-69.666 21.796,-64.37C19.148,-59.074 6.111,-44 0,-47.056" style="fill:white;fill-rule:nonzero;"/>
    </g>
    <g transform="matrix(4.16667,0,0,4.16667,754.613,1416.91)">
        <path d="M0,-102.394C0,-102.394 -4.345,-92.345 0.544,-83.654C5.433,-74.962 3.531,-65.456 9.507,-66.271C15.481,-67.086 22.271,-67.086 25.803,-78.494C29.333,-89.901 26.617,-98.591 29.333,-94.246C32.049,-89.901 38.839,-72.247 36.395,-62.741C33.95,-53.235 30.148,-47.259 29.062,-39.383C27.976,-31.506 26.074,-19.013 23.63,-15.21C21.186,-11.408 26.889,0 15.481,-19.556C4.074,-39.111 2.717,-44.272 0,-59.481C-2.716,-74.691 -6.246,-101.851 0,-102.394" style="fill:rgb(237,237,238);fill-rule:nonzero;"/>
    </g>
    <g transform="matrix(4.16667,0,0,4.16667,695.763,1028.74)">
        <path d="M0,66.542C0,64.369 2.444,36.666 4.346,25.53C6.247,14.395 8.963,-10.321 9.234,-11.95C9.506,-13.58 -13.308,21.728 -19.555,27.975C-25.802,34.222 -44.155,39.866 -34.493,42.642C-28.11,44.475 -26.006,54.388 -22.203,60.363C-18.4,66.338 -8.69,80.122 -5.16,77.949C-1.629,75.776 0,66.542 0,66.542" style="fill:rgb(237,237,238);fill-rule:nonzero;"/>
    </g>
    <g transform="matrix(4.16667,0,0,4.16667,370.413,1216.6)">
        <path d="M0,-23.087C-7.265,-32.185 -26.219,-54.111 -32.523,-61.518C-38.635,-68.697 -35.715,-70.073 -41.419,-68.443C-47.122,-66.814 -54.455,-52.419 -47.122,-40.469C-39.789,-28.519 -33.271,-0.816 -32.999,11.135C-32.728,23.086 -24.579,42.098 -18.604,44.542C-12.629,46.986 -7.74,14.394 3.938,6.517C15.617,-1.358 38.616,-0.909 32.049,-3.463C6.383,-13.444 0,-23.087 0,-23.087" style="fill:rgb(239,240,241);fill-rule:nonzero;"/>
    </g>
    <g transform="matrix(4.16667,0,0,4.16667,306.333,859.27)">
        <path d="M0,6.316C0,6.316 -3.973,4.177 -5.296,1.427C-6.62,-1.323 -4.481,-1.934 -6.723,-3.767C-8.963,-5.6 -17.009,-11.304 -17.824,-11.61C-18.639,-11.915 -22.509,-14.665 -24.546,-15.073C-26.583,-15.48 -29.536,-17.11 -30.86,-16.397C-32.185,-15.684 -33.916,-15.073 -34.12,-13.748C-34.323,-12.424 -34.12,-11.304 -35.036,-10.693C-35.953,-10.081 -38.193,-10.081 -38.193,-10.081C-38.193,-10.081 -44.509,-12.73 -48.786,-9.674C-53.063,-6.619 -54.286,0.205 -55.203,2.344C-56.119,4.483 -58.36,10.593 -56.018,14.872C-53.675,19.149 -52.759,19.862 -49.499,19.455C-46.24,19.047 -35.139,13.955 -35.139,13.955C-35.139,13.955 -26.277,18.64 -20.879,19.659C-15.481,20.677 -14.666,20.677 -14.666,20.677C-14.666,20.677 -10.287,23.426 -10.694,18.538C-10.694,18.538 -7.843,16.196 -9.88,12.733L-15.889,10.593C-15.889,10.593 -14.056,9.168 -14.972,7.13C-15.889,5.094 -18.639,3.363 -19.25,3.159C-19.86,2.955 -26.073,-1.323 -26.176,-1.628C-26.277,-1.934 -25.259,-2.545 -24.647,-2.137C-24.037,-1.73 -13.953,5.297 -12.527,5.297C-11.102,5.297 -10.389,2.853 -10.389,2.242C-10.389,1.63 -12.527,-1.323 -18.435,-6.313C-18.435,-6.313 -15.074,-5.6 -14.056,-3.767C-13.037,-1.934 -8.352,8.252 -5.907,9.27C-3.463,10.289 2.648,13.038 0,6.316" style="fill:rgb(126,89,82);fill-rule:nonzero;"/>
    </g>
    <g transform="matrix(4.16667,0,0,4.16667,286.873,941.83)">
        <path d="M0,-21.799C0,-21.799 -5.614,-20.808 -7.596,-17.835C-9.577,-14.862 -10.073,-10.239 -8.917,-6.937C-7.761,-3.634 -0.66,1.651 2.478,1.486C5.615,1.32 9.248,0.66 10.569,-4.789C11.891,-10.239 13.046,-23.45 0,-21.799" style="fill:rgb(111,84,109);fill-rule:nonzero;"/>
    </g>
    <g transform="matrix(4.16667,0,0,4.16667,785.033,983.19)">
        <path d="M0,-18.332C0,-18.332 -18.13,-18.026 -19.657,-18.026C-21.185,-18.026 -43.693,-21.286 -49.703,-22.61C-55.712,-23.934 -63.452,-26.888 -66.508,-27.092C-69.563,-27.295 -71.702,-27.702 -71.702,-27.702C-71.702,-27.702 -82.091,-31.573 -87.082,-32.286C-92.072,-32.999 -96.859,-34.018 -98.998,-32.693C-101.137,-31.369 -101.952,-30.962 -105.211,-30.351C-108.471,-29.739 -110.202,-29.026 -112.238,-27.193C-114.275,-25.36 -118.35,-24.749 -118.248,-23.526C-118.146,-22.305 -117.738,-22.305 -117.229,-21.999C-116.72,-21.693 -119.47,-20.369 -118.146,-19.249C-116.822,-18.129 -115.701,-17.721 -115.396,-17.823C-115.091,-17.925 -107.758,-20.166 -106.841,-20.166C-105.924,-20.166 -101.442,-21.082 -99.609,-21.082C-97.776,-21.082 -96.961,-20.573 -98.489,-20.063C-100.017,-19.555 -109.896,-18.332 -111.118,-17.925C-112.341,-17.518 -117.637,-16.703 -117.738,-15.379C-117.841,-14.055 -116.109,-12.629 -116.109,-12.629C-116.109,-12.629 -118.35,-11.406 -113.868,-11.61C-109.387,-11.813 -104.294,-10.185 -100.526,-10.795C-96.758,-11.406 -95.229,-12.73 -94.924,-12.323C-94.619,-11.916 -99.202,-9.573 -105.517,-9.98C-111.831,-10.388 -116.822,-9.573 -117.229,-8.962C-117.637,-8.351 -119.572,-6.009 -118.248,-5.092C-116.924,-4.175 -112.646,-3.666 -112.646,-3.666C-112.646,-3.666 -115.905,-2.443 -114.275,-0.712C-112.646,1.02 -113.868,2.038 -109.591,1.936C-105.313,1.834 -99.915,0.51 -92.582,0.408C-85.248,0.307 -83.008,0.714 -80.768,0.103C-78.526,-0.509 -75.268,-3.564 -71.601,-3.462C-67.934,-3.36 -56.832,-0.509 -52.453,1.223C-48.073,2.954 -20.981,14.26 -13.139,14.973C-5.296,15.686 13.037,14.871 13.24,10.593C13.444,6.315 16.602,-14.156 0,-18.332" style="fill:rgb(126,89,82);fill-rule:nonzero;"/>
    </g>
    <g transform="matrix(4.16667,0,0,4.16667,500.703,716.27)">
        <path d="M0,-109.387L-17.417,-102.258C-17.417,-102.258 -19.963,-96.962 -20.37,-93.295C-20.777,-89.628 -20.981,-86.777 -21.593,-84.944C-22.203,-83.111 -21.389,-82.397 -20.88,-81.175C-20.37,-79.952 -17.723,-79.952 -18.333,-77.508C-18.944,-75.064 -22.102,-69.972 -22.917,-68.342C-23.731,-66.712 -25.463,-63.148 -24.24,-61.111C-23.019,-59.074 -19.861,-58.666 -19.352,-58.666C-18.843,-58.666 -17.213,-59.786 -17.417,-57.953C-17.62,-56.12 -16.907,-52.658 -16.907,-52.658L-16.5,-48.379C-16.5,-48.379 -18.639,-46.445 -16.5,-44.611C-16.5,-44.611 -15.074,-43.491 -15.176,-41.861C-15.277,-40.232 -17.213,-40.232 -16.398,-37.074C-15.583,-33.916 -12.223,-31.982 -7.639,-31.472C-3.056,-30.963 -1.936,-31.37 -1.936,-31.37C-1.936,-31.37 1.935,-28.112 3.259,-19.862C4.583,-11.612 4.379,-9.269 6.11,-8.047C7.842,-6.824 12.73,0 13.342,0C13.953,0 14.564,-1.121 14.564,-1.529C14.564,-1.936 14.055,-4.482 16.499,-7.639C18.943,-10.797 21.083,-15.482 22.102,-17.112C23.119,-18.741 28.009,-28.519 29.129,-30.862C30.249,-33.203 33.712,-43.286 34.222,-44C34.73,-44.713 38.193,-51.536 38.193,-51.536C38.193,-51.536 39.823,-75.369 39.518,-76.388C39.212,-77.407 0,-109.387 0,-109.387" style="fill:rgb(107,76,57);fill-rule:nonzero;"/>
    </g>
    <g transform="matrix(4.16667,0,0,4.16667,429.833,467.43)">
        <path d="M0,-6.45C-1.274,-6.383 -2.717,-5.227 -1.901,-4.888C-1.087,-4.549 2.919,-5.363 3.666,-5.16C4.413,-4.956 5.567,-3.734 5.567,-2.783C5.567,-1.833 5.296,-1.357 5.092,-1.018C4.889,-0.679 4.685,0.204 5.16,-0.067C5.635,-0.339 6.382,-2.376 5.975,-3.259C5.567,-4.141 3.87,-6.654 0,-6.45" style="fill:rgb(82,58,53);fill-rule:nonzero;"/>
    </g>
    <g transform="matrix(4.16667,0,0,4.16667,449.343,503.65)">
        <path d="M0,-14.734C0,-14.734 0.407,-14.258 2.104,-12.221C3.803,-10.184 6.654,-6.925 7.13,-5.092C7.604,-3.258 9.303,-0.135 9.37,0.204C9.438,0.543 8.691,-4.548 6.926,-6.721C5.16,-8.894 0.476,-15.277 0,-14.734" style="fill:rgb(82,58,53);fill-rule:nonzero;"/>
    </g>
    <g transform="matrix(4.16667,0,0,4.16667,462.923,524.31)">
        <path d="M0,-20.303C0.815,-18.809 1.427,-15.822 2.648,-14.667C3.871,-13.513 8.76,-10.253 9.71,-8.827C10.661,-7.402 11.68,-2.037 11.136,0C11.136,0 12.358,-7.537 10.253,-9.37C8.148,-11.204 4.346,-13.513 3.124,-14.939C1.901,-16.365 0,-20.303 0,-20.303" style="fill:rgb(82,58,53);fill-rule:nonzero;"/>
    </g>
    <g transform="matrix(4.16667,0,0,4.16667,435.883,426.26)">
        <path d="M0,-10.144C0,-9.743 -0.029,-6.884 1.33,-4.309C3.193,-0.781 6.037,0 8.731,-0.643C11.426,-1.285 19.801,-2.159 17.338,-5.209C14.874,-8.259 9.054,-9.636 6.898,-9.877C4.742,-10.118 0,-10.144 0,-10.144" style="fill:rgb(91,64,59);fill-rule:nonzero;"/>
    </g>
    <g transform="matrix(4.16667,0,0,4.16667,430.603,512.21)">
        <path d="M0,-3.208C0,-3.208 -0.072,-0.364 0.646,-0.328C1.363,-0.292 1.363,-0.656 1.363,-0.656C1.363,-0.656 1.937,0 2.691,-0.073C3.444,-0.146 3.875,-0.729 3.875,-0.729C3.875,-0.729 3.409,-0.328 4.198,-0.219C4.987,-0.109 6.387,-0.219 6.459,-1.02C6.459,-1.02 6.495,-0.109 7.643,-0.219C8.791,-0.328 9.258,-0.547 9.438,-0.875C9.616,-1.203 10.765,-0.766 10.908,-1.02C11.052,-1.276 11.913,-1.13 11.088,-1.932C10.263,-2.734 8.72,-3.172 7.571,-3.062C6.423,-2.953 0,-3.208 0,-3.208" style="fill:white;fill-rule:nonzero;"/>
    </g>
    <g transform="matrix(4.16667,0,0,4.16667,424.593,503.93)">
        <path d="M0,-3.565C-0.199,-3.066 -0.306,-1.969 0.68,-1.46C1.664,-0.951 2.207,-0.577 3.769,-0.475C5.33,-0.374 7.809,-0.509 8.861,-0.407C9.914,-0.305 12.697,0.339 12.256,-0.441C11.814,-1.222 10.593,-2.478 8.386,-2.75C6.179,-3.021 0.136,-3.904 0,-3.565" style="fill:rgb(61,41,37);fill-rule:nonzero;"/>
    </g>
    <g transform="matrix(4.16667,0,0,4.16667,431.383,527.63)">
        <path d="M0,-3.056C0,-3.056 -2.241,-1.562 -0.679,0.271C0.883,2.104 5.5,-0.476 8.08,-2.106C10.66,-3.735 12.357,-5.16 11.747,-5.16C11.136,-5.16 11.475,-4.279 6.586,-3.803C1.697,-3.327 0.476,-3.396 0,-3.056" style="fill:rgb(70,48,44);fill-rule:nonzero;"/>
    </g>
    <g transform="matrix(4.16667,0,0,4.16667,560.533,497.43)">
        <path d="M0,47.53C0.679,45.764 -0.543,41.42 -1.63,36.394C-2.716,31.37 -0.679,28.654 0.951,24.58C2.58,20.506 10.05,2.988 10.186,-1.086C10.321,-5.16 9.506,-1.901 8.691,2.581C7.877,7.062 6.926,5.297 4.753,8.284C2.58,11.271 1.087,14.531 -1.901,17.79C-4.889,21.05 -7.74,19.827 -10.185,20.234C-12.629,20.641 -16.975,21.185 -16.975,21.185C-16.975,21.185 -14.259,22.814 -13.24,26.006C-12.222,29.197 -11.271,33.95 -10.864,36.53C-10.456,39.111 -10.32,41.691 -9.302,43.66C-8.283,45.629 -7.197,45.629 -5.703,47.53C-4.21,49.431 -2.58,52.283 -1.426,52.487C-0.271,52.69 0.476,51.74 0.407,51.4C0.34,51.061 0,47.53 0,47.53" style="fill:rgb(91,64,59);fill-rule:nonzero;"/>
    </g>
    <g transform="matrix(4.16667,0,0,4.16667,926.343,958.58)">
        <path d="M0,38.093C0.203,28.315 0.203,16.908 -5.907,11.204C-12.019,5.501 -15.074,-2.851 -21.389,-2.851C-27.703,-2.851 -36.259,-3.259 -39.722,-2.443C-43.185,-1.629 -45.222,-3.666 -47.055,-0.61C-48.888,2.446 -56.018,16.093 -58.666,21.389C-61.313,26.686 -74.351,41.759 -80.462,38.703" style="fill:white;fill-rule:nonzero;"/>
    </g>
    <g transform="matrix(4.16667,0,0,4.16667,372.113,943.31)">
        <path d="M0,41.554C0,41.554 -11,30.011 -16.297,23.628C-21.593,17.246 -27.432,9.369 -29.876,6.654C-32.321,3.938 -36.53,-0.544 -36.53,-0.544L-38.024,-0.951C-38.024,-0.951 -15.889,23.764 -14.667,26.208C-13.444,28.654 -0.408,42.505 -0.408,42.505L0,41.554Z" style="fill:rgb(178,180,182);fill-rule:nonzero;"/>
    </g>
    <g transform="matrix(4.16453,-0.133477,-0.133477,-4.16453,85.7328,1240.48)">
        <path d="M-1.076,-0.143C-0.853,0.461 -0.289,37.128 0.3,49.135C0.888,61.14 1.478,66.828 -1.076,63.445C-3.63,60.062 -10.011,45.389 -9.36,40.272C-8.708,35.157 -1.076,-0.143 -1.076,-0.143" style="fill:rgb(222,223,224);fill-rule:nonzero;"/>
    </g>
    <g transform="matrix(4.16667,0,0,4.16667,754.613,1074.01)">
        <path d="M0,22.815C-2.716,7.605 -6.246,-19.555 0,-20.098C0,-20.098 -4.345,-10.049 0.544,-1.358C5.433,7.334 3.531,16.839 9.507,16.025C15.481,15.21 22.271,15.21 25.803,3.802C29.333,-7.605 26.617,-16.295 29.333,-11.95C32.049,-7.605 38.839,10.049 36.395,19.555C33.95,29.061 30.148,35.037 29.062,42.913" style="fill:rgb(237,237,238);fill-rule:nonzero;"/>
    </g>
    <g transform="matrix(4.16667,0,0,4.16667,713.873,982.34)">
        <path d="M0,36.666C1.901,25.53 4.617,0.814 4.889,-0.814C5.16,-2.444 -17.653,32.863 -23.9,39.11" style="fill:rgb(237,237,238);fill-rule:nonzero;"/>
    </g>
    <g transform="matrix(4.16667,0,0,4.16667,490.373,451.59)">
        <path d="M0,-42.37C0,-42.37 -11.95,-38.432 -12.766,-38.432C-13.58,-38.432 -15.617,-34.765 -15.617,-34.765C-15.617,-34.765 -20.099,-38.16 -18.74,-42.777C-17.383,-47.394 -13.037,-50.517 -12.358,-50.653C-11.679,-50.789 -14.123,-51.333 -8.827,-53.641C-3.531,-55.95 -3.938,-55.814 2.444,-57.987C8.827,-60.159 12.086,-60.974 13.58,-61.382C15.073,-61.789 12.222,-62.332 17.926,-62.876C23.629,-63.419 30.826,-60.023 31.642,-59.345C32.456,-58.666 37.209,-56.357 40.468,-55.814C43.728,-55.27 44.678,-52.69 48.48,-51.604C52.283,-50.517 58.665,-49.296 60.566,-45.629C62.468,-41.963 63.69,-37.481 62.875,-36.259C62.061,-35.037 61.518,-21.321 61.789,-18.469C62.061,-15.617 59.48,-7.333 58.665,-3.803C57.851,-0.271 55.949,9.506 55.406,10.32C54.863,11.136 50.653,17.246 46.036,19.148C41.419,21.049 35.715,20.098 35.308,19.691C34.9,19.283 33.135,6.382 33.135,6.382C33.135,6.382 26.48,-2.716 24.308,-2.037C22.135,-1.358 17.518,0.407 17.11,-2.308C16.703,-5.024 18.876,-10.457 17.11,-11C15.346,-11.543 13.173,-11.543 11.543,-15.889C9.913,-20.234 10.049,-21.457 9.777,-23.766C9.506,-26.074 6.519,-27.024 5.16,-29.469C3.803,-31.913 -0.407,-42.099 0,-42.37" style="fill:rgb(53,52,53);fill-rule:nonzero;"/>
    </g>
    <g transform="matrix(4.16667,0,0,4.16667,435.343,400.74)">
        <path d="M0,-4.075C0.5,-3.076 0.459,-0.663 3.361,-0.816C6.264,-0.969 7.995,-2.394 10.135,-1.783C12.273,-1.173 17.061,1.069 17.468,0.915C17.875,0.763 13.954,-1.783 12.12,-2.802C10.287,-3.82 7.334,-5.144 5.5,-4.94C3.667,-4.737 -0.356,-4.788 0,-4.075" style="fill:rgb(1,0,0);fill-rule:nonzero;"/>
    </g>
    <g transform="matrix(4.16667,0,0,4.16667,426.003,366.78)">
        <path d="M0,3.567C-0.866,2.243 -1.273,2.243 -1.885,1.326C-2.495,0.409 -2.394,-0.61 -2.394,-0.61C-2.394,-0.61 -5.245,2.294 -4.838,2.65C-4.431,3.006 -1.731,3.77 -1.528,3.974C-1.324,4.177 0,3.77 0,3.77L0,3.567Z" style="fill:rgb(1,0,0);fill-rule:nonzero;"/>
    </g>
    <g transform="matrix(4.16667,0,0,4.16667,448.073,525.5)">
        <path d="M0,-13.24C-2.782,-12.247 -4.277,-13.902 -5.856,-13.189C-7.435,-12.476 -9.166,-11.356 -8.606,-11.559C-8.046,-11.763 -6.009,-12.985 -7.078,-11.916C-8.147,-10.846 -8.81,-9.929 -7.791,-10.745C-6.772,-11.559 -5.144,-12.578 -6.213,-11.407C-7.282,-10.235 -6.977,-9.319 -6.264,-10.032C-5.551,-10.745 -5.652,-10.338 -5.958,-9.37C-6.264,-8.402 -4.685,-8.708 -4.685,-8.708C-4.685,-8.708 -5.856,-7.231 -4.939,-7.333C-4.022,-7.434 -3.819,-9.013 -3.564,-8.809C-3.31,-8.606 -2.953,-7.179 -2.546,-7.179C-2.139,-7.179 -1.578,-8.453 -1.324,-8.963C-1.069,-9.471 -1.171,-7.944 -0.764,-7.638C-0.356,-7.333 0.102,-7.485 0.356,-7.995C0.611,-8.504 4.889,-6.721 4.787,-6.467C4.686,-6.213 4.991,-5.346 5.348,-5.092C5.704,-4.838 5.5,-7.333 5.5,-7.333C5.5,-7.333 7.995,-3.106 8.708,-2.189C9.421,-1.272 10.542,0.662 11.509,-0C12.477,-0.662 13.495,-0.814 12.731,-2.647C11.968,-4.481 11.458,-6.11 10.236,-8.046C9.014,-9.981 6.824,-11.713 6.824,-11.713C6.824,-11.713 5.449,-12.782 4.431,-12.527C3.412,-12.272 0.713,-13.495 0,-13.24" style="fill:rgb(157,159,162);fill-rule:nonzero;"/>
    </g>
    <g transform="matrix(4.16667,0,0,4.16667,644.133,276.61)">
        <path d="M0,-6.823C-2.139,-6.823 -16.296,-6.823 -17.416,-6.517C-18.536,-6.212 -27.805,-3.869 -29.74,-2.647C-31.675,-1.425 -34.832,-0.406 -34.935,0.917C-35.036,2.241 -32.592,10.287 -30.656,11.714C-28.722,13.14 -26.073,14.463 -26.073,14.463C-26.073,14.463 -32.897,8.76 -33.406,2.241C-33.406,2.241 -25.699,13.646 -25.36,11.612C-25.259,11 -31.472,6.417 -31.472,0.917C-31.472,0.917 -28.604,4.064 -27.1,6.387C-27.025,6.501 -26.955,6.614 -26.889,6.723C-25.462,9.066 -28.009,0.001 -27.397,-1.527C-27.397,-1.527 -26.685,11.103 -20.98,13.446C-20.98,13.446 -26.48,6.927 -26.889,-1.73C-26.889,-1.73 -25.36,-4.175 -25.36,-2.443C-25.36,-0.712 -24.036,5.908 -20.879,9.473C-20.879,9.473 -24.852,0.714 -24.647,-3.054C-24.647,-3.054 -21.897,7.13 -18.231,9.066C-18.231,9.066 -22.305,1.936 -22.712,-1.425C-22.712,-1.425 -18.639,6.621 -16.092,8.149C-16.092,8.149 -19.759,2.853 -20.37,-1.527L-18.536,-3.666C-18.536,-3.666 -18.639,1.834 -15.889,5.093C-15.889,5.093 -17.213,-0.61 -17.314,-3.564C-17.314,-3.564 -13.75,4.89 -7.435,6.52C-7.435,6.52 -15.685,-0.61 -16.194,-3.767C-16.194,-3.767 -12.426,-4.379 -12.426,-3.767C-12.426,-3.156 -11.509,2.241 -9.269,3.667C-9.269,3.667 -10.516,-1.463 -11.01,-4.173C-11.114,-4.748 -11.186,-5.214 -11.203,-5.499C-11.203,-5.499 -5.806,4.483 -2.546,5.399C-2.546,5.399 -2.852,0.51 -2.647,-0.509C-2.647,-0.509 0.204,3.362 2.75,3.871L1.223,0.307C1.223,0.307 8.556,6.01 9.88,6.01C11.204,6.01 7.944,3.057 7.944,2.751C7.944,2.446 4.583,-2.036 7.944,0.307C11.306,2.649 10.796,0.103 10.49,-0.203C10.186,-0.509 7.13,-2.443 7.13,-2.443L13.444,-1.323L18.843,2.343C18.843,2.343 20.166,6.824 20.472,7.436C20.777,8.047 23.935,12.834 23.935,12.834C23.935,12.834 22.916,6.824 21.287,4.177C19.657,1.529 18.13,-2.647 20.981,-1.12C23.833,0.408 25.769,-2.24 24.343,-3.462C22.916,-4.684 13.648,-9.777 13.648,-9.777L4.583,-15.786C4.583,-15.786 -0.407,-14.259 -1.731,-14.971C-3.056,-15.684 -6.926,-17.721 -9.472,-18.943C-12.019,-20.166 -19.352,-21.286 -20.166,-20.879C-20.98,-20.47 -24.647,-19.045 -24.953,-18.842C-25.259,-18.637 -22.102,-18.739 -19.147,-15.887C-16.194,-13.036 -19.249,-14.563 -20.98,-15.684C-22.712,-16.804 -26.685,-18.434 -26.685,-18.434C-26.685,-18.434 -23.323,-15.582 -22.203,-13.036C-21.083,-10.49 -16.703,-5.397 -20.777,-9.573C-24.852,-13.749 -26.889,-16.499 -28.518,-16.295C-30.147,-16.092 -37.175,-17.823 -32.796,-15.379C-28.416,-12.934 -26.889,-11.1 -26.889,-11.1C-26.889,-11.1 -38.193,-12.934 -38.703,-12.832C-39.212,-12.73 -47.156,-11.406 -41.555,-10.999C-35.953,-10.592 -34.222,-9.166 -34.527,-9.267C-34.832,-9.369 -43.795,-9.879 -45.629,-9.675C-47.462,-9.471 -48.786,-9.267 -44.203,-7.842C-39.619,-6.416 -40.23,-6.212 -40.23,-5.906C-40.23,-5.6 -40.435,-1.833 -38.601,-2.24C-36.768,-2.647 -21.185,-7.129 -17.11,-7.637C-13.037,-8.147 0,-6.823 0,-6.823" style="fill:rgb(85,86,88);fill-rule:nonzero;"/>
    </g>
    <g transform="matrix(4.16667,0,0,4.16667,752.353,533.64)">
        <path d="M0,-55.95C-0.814,-54.728 -1.357,-41.012 -1.086,-38.16C-0.814,-35.308 -3.395,-27.024 -4.21,-23.494C-5.024,-19.963 -6.926,-10.185 -7.469,-9.371C-8.012,-8.555 -12.222,-2.445 -16.839,-0.544C-21.456,1.358 -27.16,0.406 -27.567,-0.001C-27.975,-0.408 -29.74,-13.309 -29.74,-13.309C-29.74,-13.309 -36.395,-22.407 -38.567,-21.728C-40.74,-21.05 -45.357,-19.284 -45.765,-22C-46.172,-24.716 -43.999,-30.148 -45.765,-30.691C-47.529,-31.234 -49.702,-31.234 -51.332,-35.58C-51.332,-35.58 -54.931,-44.067 -53.505,-44.475C-52.079,-44.883 -51.875,-38.364 -49.635,-36.938C-47.394,-35.513 -48.005,-43.864 -48.005,-43.864C-48.005,-43.864 -49.635,-48.753 -48.82,-47.53C-48.005,-46.308 -42.505,-43.457 -42.505,-43.457C-42.505,-43.457 -41.486,-48.549 -41.69,-49.771C-41.895,-50.993 -40.061,-52.827 -37.82,-50.179C-35.579,-47.53 -33.339,-51.808 -33.339,-51.808L-29.061,-50.586C-29.061,-50.586 -26.413,-46.92 -24.579,-45.901C-22.746,-44.883 -18.876,-41.623 -20.709,-45.901C-22.543,-50.179 -27.024,-57.308 -25.395,-55.679C-23.765,-54.049 -15.82,-47.938 -15.82,-47.938C-15.82,-47.938 -14.19,-54.456 -13.376,-54.456C-12.562,-54.456 -11.136,-55.883 -9.302,-54.049C-7.469,-52.216 -4.21,-45.697 -3.802,-45.086C-3.395,-44.475 0,-55.95 0,-55.95" style="fill:rgb(45,42,43);fill-rule:nonzero;"/>
    </g>
    <g transform="matrix(4.16667,0,0,4.16667,647.673,490.64)">
        <path d="M0,-21.864C0,-21.864 2.444,-14.938 0.951,-11.271C-0.543,-7.605 -2.58,-6.79 -5.16,-3.531C-7.74,-0.271 -10.049,0.407 -10.728,-0.135C-11.407,-0.678 -12.222,-3.26 -12.222,-3.26L-11.136,-9.506L-6.79,-15.888C-6.79,-15.888 -6.382,-15.345 -7.062,-17.247C-7.74,-19.148 -4.21,-18.604 -3.802,-19.148C-3.395,-19.691 -4.889,-22.271 -3.123,-21.728C-1.357,-21.184 0,-21.864 0,-21.864" style="fill:rgb(91,64,59);fill-rule:nonzero;"/>
    </g>
    <g transform="matrix(4.16667,0,0,4.16667,616.833,432.07)">
        <path d="M0,2.784C-1.223,3.598 -2.648,4.55 -2.173,4.957C-1.698,5.364 0.543,4.753 1.969,5.16C3.395,5.568 2.173,5.5 4.277,4.753C6.382,4.006 7.333,1.697 6.926,1.222C6.518,0.747 2.716,0.543 2.716,0.543C2.716,0.543 2.376,-2.784 1.629,-1.63C0.882,-0.476 0,2.784 0,2.784" style="fill:rgb(76,53,49);fill-rule:nonzero;"/>
    </g>
    <g transform="matrix(4.16667,0,0,4.16667,423.883,468.57)">
        <path d="M0,-1.223C-0.543,-1.087 -2.444,-0.137 -2.036,-0.001C-1.629,0.135 -0.203,-0.001 1.358,-0.001C2.92,-0.001 3.599,0.543 4.278,-0.001C4.957,-0.544 3.735,-1.766 3.327,-1.766C2.92,-1.766 0,-1.223 0,-1.223" style="fill:rgb(70,48,44);fill-rule:nonzero;"/>
    </g>
    <g transform="matrix(4.16667,0,0,4.16667,420.493,391.9)">
        <path d="M0,-1.969C0,-1.969 -1.019,-0.747 -1.766,-0.612C-2.513,-0.476 1.223,0 1.223,0C1.223,0 1.019,-1.698 0,-1.969" style="fill:rgb(35,31,32);fill-rule:nonzero;"/>
    </g>
    <g transform="matrix(4.16667,0,0,4.16667,471.273,409.02)">
        <path d="M0,-2.089C0,-2.089 -7.562,-2.037 -0.79,0C-0.79,0 3.233,-0.866 2.863,-1.302C2.584,-1.631 0,-2.089 0,-2.089" style="fill:white;fill-rule:nonzero;"/>
    </g>
    <g transform="matrix(-4.15042,0.367598,0.367598,4.15042,471.053,408.29)">
        <path d="M0.824,-2.074C0.984,-2.059 1.792,-1.547 1.85,-0.887C1.909,-0.227 1.686,0.15 0.824,0.227C-0.038,0.303 -0.831,0.016 -0.77,-0.449C-0.709,-0.916 -0.568,-2.206 0.824,-2.074" style="fill:rgb(35,31,32);fill-rule:nonzero;"/>
    </g>
    <g transform="matrix(4.16667,0,0,4.16667,456.523,407.23)">
        <path d="M0,-1.252L-0.094,-0.71L-0.108,-0.745C0.414,-0.441 0.97,-0.195 1.531,0.009C2.097,0.204 2.688,0.342 3.255,0.259C4.421,0.083 5.542,-0.436 6.619,-0.944L6.635,-0.636C6.112,-0.839 5.567,-1.014 5.022,-1.167C4.479,-1.312 3.917,-1.461 3.372,-1.546C2.261,-1.675 1.111,-1.509 0,-1.252M0,-1.252C1.077,-1.636 2.227,-1.881 3.399,-1.8C3.99,-1.746 4.542,-1.609 5.104,-1.467C5.662,-1.319 6.211,-1.154 6.759,-0.952C6.847,-0.92 6.891,-0.823 6.858,-0.735C6.844,-0.695 6.811,-0.661 6.774,-0.643C6.227,-0.357 5.663,-0.122 5.085,0.089C4.508,0.298 3.915,0.477 3.29,0.555C2.643,0.629 2.022,0.431 1.458,0.203C0.887,-0.029 0.354,-0.338 -0.146,-0.69C-0.157,-0.696 -0.162,-0.713 -0.16,-0.726L0,-1.252Z" style="fill:rgb(35,31,32);fill-rule:nonzero;"/>
    </g>
    <g transform="matrix(4.16667,0,0,4.16667,203.633,863.95)">
        <path d="M0,-3.259C0.61,-2.852 10.694,4.176 12.12,4.176C13.546,4.176 14.259,1.731 14.259,1.12C14.259,0.509 12.12,-2.445 6.213,-7.435" style="fill:rgb(111,78,72);fill-rule:nonzero;"/>
    </g>
    <g transform="matrix(4.16667,0,0,4.16667,245.223,914.86)">
        <path d="M0,7.335C0,7.335 4.379,10.084 3.972,5.195C3.972,5.195 6.823,2.854 4.786,-0.609L-1.223,-2.749" style="fill:rgb(111,78,72);fill-rule:nonzero;"/>
    </g>
    <g transform="matrix(4.16667,0,0,4.16667,262.783,1004.02)">
        <path d="M0,-13.793C0,-13.793 -1.708,-13.761 0.653,-11.262C3.014,-8.763 5.386,-8.15 5.386,-8.15C5.386,-8.15 2.583,-7.14 4.3,-4.492C6.017,-1.844 8.685,-1.155 8.685,-1.155C8.685,-1.155 4.001,0 1.754,-4.99C-0.493,-9.981 0,-13.793 0,-13.793" style="fill:rgb(111,84,109);fill-rule:nonzero;"/>
    </g>
</svg>
